<svg width="134" height="16" viewBox="0 0 134 16" fill="none" xmlns="http://www.w3.org/2000/svg">
<g clip-path="url(#clip0_1_41)">
<path d="M10 8H6" stroke="black" stroke-width="2" stroke-linecap="round"/>
<path d="M2 12L6 12" stroke="black" stroke-width="2" stroke-linecap="round"/>
<path d="M14 4H10" stroke="black" stroke-width="2" stroke-linecap="round"/>
<path d="M26.916 13V5.716H24.12V4.36H31.158V5.716H28.362V13H26.916ZM33.0856 13.18C32.6176 13.18 32.2216 13.092 31.8976 12.916C31.5736 12.736 31.3276 12.498 31.1596 12.202C30.9956 11.906 30.9136 11.58 30.9136 11.224C30.9136 10.912 30.9656 10.632 31.0696 10.384C31.1736 10.132 31.3336 9.916 31.5496 9.736C31.7656 9.552 32.0456 9.402 32.3896 9.286C32.6496 9.202 32.9536 9.126 33.3016 9.058C33.6536 8.99 34.0336 8.928 34.4416 8.872C34.8536 8.812 35.2836 8.748 35.7316 8.68L35.2156 8.974C35.2196 8.526 35.1196 8.196 34.9156 7.984C34.7116 7.772 34.3676 7.666 33.8836 7.666C33.5916 7.666 33.3096 7.734 33.0376 7.87C32.7656 8.006 32.5756 8.24 32.4676 8.572L31.1476 8.158C31.3076 7.61 31.6116 7.17 32.0596 6.838C32.5116 6.506 33.1196 6.34 33.8836 6.34C34.4596 6.34 34.9656 6.434 35.4016 6.622C35.8416 6.81 36.1676 7.118 36.3796 7.546C36.4956 7.774 36.5656 8.008 36.5896 8.248C36.6136 8.484 36.6256 8.742 36.6256 9.022V13H35.3596V11.596L35.5696 11.824C35.2776 12.292 34.9356 12.636 34.5436 12.856C34.1556 13.072 33.6696 13.18 33.0856 13.18ZM33.3736 12.028C33.7016 12.028 33.9816 11.97 34.2136 11.854C34.4456 11.738 34.6296 11.596 34.7656 11.428C34.9056 11.26 34.9996 11.102 35.0476 10.954C35.1236 10.77 35.1656 10.56 35.1736 10.324C35.1856 10.084 35.1916 9.89 35.1916 9.742L35.6356 9.874C35.1996 9.942 34.8256 10.002 34.5136 10.054C34.2016 10.106 33.9336 10.156 33.7096 10.204C33.4856 10.248 33.2876 10.298 33.1156 10.354C32.9476 10.414 32.8056 10.484 32.6896 10.564C32.5736 10.644 32.4836 10.736 32.4196 10.84C32.3596 10.944 32.3296 11.066 32.3296 11.206C32.3296 11.366 32.3696 11.508 32.4496 11.632C32.5296 11.752 32.6456 11.848 32.7976 11.92C32.9536 11.992 33.1456 12.028 33.3736 12.028ZM39.9997 13.18C39.5317 13.18 39.1357 13.092 38.8117 12.916C38.4877 12.736 38.2417 12.498 38.0737 12.202C37.9097 11.906 37.8277 11.58 37.8277 11.224C37.8277 10.912 37.8797 10.632 37.9837 10.384C38.0877 10.132 38.2477 9.916 38.4637 9.736C38.6797 9.552 38.9597 9.402 39.3037 9.286C39.5637 9.202 39.8677 9.126 40.2157 9.058C40.5677 8.99 40.9477 8.928 41.3557 8.872C41.7677 8.812 42.1977 8.748 42.6457 8.68L42.1297 8.974C42.1337 8.526 42.0337 8.196 41.8297 7.984C41.6257 7.772 41.2817 7.666 40.7977 7.666C40.5057 7.666 40.2237 7.734 39.9517 7.87C39.6797 8.006 39.4897 8.24 39.3817 8.572L38.0617 8.158C38.2217 7.61 38.5257 7.17 38.9737 6.838C39.4257 6.506 40.0337 6.34 40.7977 6.34C41.3737 6.34 41.8797 6.434 42.3157 6.622C42.7557 6.81 43.0817 7.118 43.2937 7.546C43.4097 7.774 43.4797 8.008 43.5037 8.248C43.5277 8.484 43.5397 8.742 43.5397 9.022V13H42.2737V11.596L42.4837 11.824C42.1917 12.292 41.8497 12.636 41.4577 12.856C41.0697 13.072 40.5837 13.18 39.9997 13.18ZM40.2877 12.028C40.6157 12.028 40.8957 11.97 41.1277 11.854C41.3597 11.738 41.5437 11.596 41.6797 11.428C41.8197 11.26 41.9137 11.102 41.9617 10.954C42.0377 10.77 42.0797 10.56 42.0877 10.324C42.0997 10.084 42.1057 9.89 42.1057 9.742L42.5497 9.874C42.1137 9.942 41.7397 10.002 41.4277 10.054C41.1157 10.106 40.8477 10.156 40.6237 10.204C40.3997 10.248 40.2017 10.298 40.0297 10.354C39.8617 10.414 39.7197 10.484 39.6037 10.564C39.4877 10.644 39.3977 10.736 39.3337 10.84C39.2737 10.944 39.2437 11.066 39.2437 11.206C39.2437 11.366 39.2837 11.508 39.3637 11.632C39.4437 11.752 39.5597 11.848 39.7117 11.92C39.8677 11.992 40.0597 12.028 40.2877 12.028ZM46.6193 13L44.2673 6.52H45.7133L47.3453 11.218L48.9713 6.52H50.4233L48.0713 13H46.6193ZM51.6202 5.536V4.21H53.0662V5.536H51.6202ZM51.6202 13V6.52H53.0662V13H51.6202ZM57.2658 13V4.36H60.8358C60.9198 4.36 61.0278 4.364 61.1598 4.372C61.2918 4.376 61.4138 4.388 61.5258 4.408C62.0258 4.484 62.4378 4.65 62.7618 4.906C63.0898 5.162 63.3318 5.486 63.4878 5.878C63.6478 6.266 63.7278 6.698 63.7278 7.174C63.7278 7.878 63.5498 8.484 63.1938 8.992C62.8378 9.496 62.2918 9.808 61.5558 9.928L60.9378 9.982H58.7118V13H57.2658ZM62.2278 13L60.5238 9.484L61.9938 9.16L63.8658 13H62.2278ZM58.7118 8.632H60.7758C60.8558 8.632 60.9458 8.628 61.0458 8.62C61.1458 8.612 61.2378 8.596 61.3218 8.572C61.5618 8.512 61.7498 8.406 61.8858 8.254C62.0258 8.102 62.1238 7.93 62.1798 7.738C62.2398 7.546 62.2698 7.358 62.2698 7.174C62.2698 6.99 62.2398 6.802 62.1798 6.61C62.1238 6.414 62.0258 6.24 61.8858 6.088C61.7498 5.936 61.5618 5.83 61.3218 5.77C61.2378 5.746 61.1458 5.732 61.0458 5.728C60.9458 5.72 60.8558 5.716 60.7758 5.716H58.7118V8.632ZM68.6197 5.518V4.198H69.9397V5.518H68.6197ZM66.1417 5.518V4.198H67.4617V5.518H66.1417ZM67.6177 13.186C67.1377 13.186 66.7417 13.106 66.4297 12.946C66.1177 12.786 65.8697 12.582 65.6857 12.334C65.5017 12.086 65.3657 11.822 65.2777 11.542C65.1897 11.262 65.1317 10.998 65.1037 10.75C65.0797 10.498 65.0677 10.294 65.0677 10.138V6.52H66.5317V9.64C66.5317 9.84 66.5457 10.066 66.5737 10.318C66.6017 10.566 66.6657 10.806 66.7657 11.038C66.8697 11.266 67.0217 11.454 67.2217 11.602C67.4257 11.75 67.6997 11.824 68.0437 11.824C68.2277 11.824 68.4097 11.794 68.5897 11.734C68.7697 11.674 68.9317 11.572 69.0757 11.428C69.2237 11.28 69.3417 11.078 69.4297 10.822C69.5177 10.566 69.5617 10.242 69.5617 9.85L70.4197 10.216C70.4197 10.768 70.3117 11.268 70.0957 11.716C69.8837 12.164 69.5697 12.522 69.1537 12.79C68.7377 13.054 68.2257 13.186 67.6177 13.186ZM69.7357 13V10.99H69.5617V6.52H71.0137V13H69.7357ZM75.8134 13.18C75.1814 13.18 74.6514 13.03 74.2234 12.73C73.7954 12.43 73.4734 12.022 73.2574 11.506C73.0414 10.986 72.9334 10.404 72.9334 9.76C72.9334 9.108 73.0414 8.524 73.2574 8.008C73.4734 7.492 73.7894 7.086 74.2054 6.79C74.6254 6.49 75.1434 6.34 75.7594 6.34C76.3714 6.34 76.9014 6.49 77.3494 6.79C77.8014 7.086 78.1514 7.492 78.3994 8.008C78.6474 8.52 78.7714 9.104 78.7714 9.76C78.7714 10.408 78.6494 10.99 78.4054 11.506C78.1614 12.022 77.8174 12.43 77.3734 12.73C76.9294 13.03 76.4094 13.18 75.8134 13.18ZM72.6874 13V4.36H74.1454V8.452H73.9654V13H72.6874ZM75.5914 11.884C75.9674 11.884 76.2774 11.79 76.5214 11.602C76.7654 11.414 76.9454 11.16 77.0614 10.84C77.1814 10.516 77.2414 10.156 77.2414 9.76C77.2414 9.368 77.1814 9.012 77.0614 8.692C76.9414 8.368 76.7554 8.112 76.5034 7.924C76.2514 7.732 75.9314 7.636 75.5434 7.636C75.1754 7.636 74.8754 7.726 74.6434 7.906C74.4114 8.082 74.2394 8.33 74.1274 8.65C74.0194 8.966 73.9654 9.336 73.9654 9.76C73.9654 10.18 74.0194 10.55 74.1274 10.87C74.2394 11.19 74.4134 11.44 74.6494 11.62C74.8894 11.796 75.2034 11.884 75.5914 11.884ZM83.0399 13.18C82.3839 13.18 81.8079 13.038 81.3119 12.754C80.8159 12.47 80.4279 12.076 80.1479 11.572C79.8719 11.068 79.7339 10.488 79.7339 9.832C79.7339 9.124 79.8699 8.51 80.1419 7.99C80.4139 7.466 80.7919 7.06 81.2759 6.772C81.7599 6.484 82.3199 6.34 82.9559 6.34C83.6279 6.34 84.1979 6.498 84.6659 6.814C85.1379 7.126 85.4879 7.568 85.7159 8.14C85.9439 8.712 86.0299 9.386 85.9739 10.162H84.5399V9.634C84.5359 8.93 84.4119 8.416 84.1679 8.092C83.9239 7.768 83.5399 7.606 83.0159 7.606C82.4239 7.606 81.9839 7.79 81.6959 8.158C81.4079 8.522 81.2639 9.056 81.2639 9.76C81.2639 10.416 81.4079 10.924 81.6959 11.284C81.9839 11.644 82.4039 11.824 82.9559 11.824C83.3119 11.824 83.6179 11.746 83.8739 11.59C84.1339 11.43 84.3339 11.2 84.4739 10.9L85.9019 11.332C85.6539 11.916 85.2699 12.37 84.7499 12.694C84.2339 13.018 83.6639 13.18 83.0399 13.18ZM80.8079 10.162V9.07H85.2659V10.162H80.8079ZM91.6189 13V9.88C91.6189 9.676 91.6049 9.45 91.5769 9.202C91.5489 8.954 91.4829 8.716 91.3789 8.488C91.2789 8.256 91.1269 8.066 90.9229 7.918C90.7229 7.77 90.4509 7.696 90.1069 7.696C89.9229 7.696 89.7409 7.726 89.5609 7.786C89.3809 7.846 89.2169 7.95 89.0689 8.098C88.9249 8.242 88.8089 8.442 88.7209 8.698C88.6329 8.95 88.5889 9.274 88.5889 9.67L87.7309 9.304C87.7309 8.752 87.8369 8.252 88.0489 7.804C88.2649 7.356 88.5809 7 88.9969 6.736C89.4129 6.468 89.9249 6.334 90.5329 6.334C91.0129 6.334 91.4089 6.414 91.7209 6.574C92.0329 6.734 92.2809 6.938 92.4649 7.186C92.6489 7.434 92.7849 7.698 92.8729 7.978C92.9609 8.258 93.0169 8.524 93.0409 8.776C93.0689 9.024 93.0829 9.226 93.0829 9.382V13H91.6189ZM87.1249 13V6.52H88.4149V8.53H88.5889V13H87.1249ZM99.1306 13V9.88C99.1306 9.676 99.1166 9.45 99.0886 9.202C99.0606 8.954 98.9946 8.716 98.8906 8.488C98.7906 8.256 98.6386 8.066 98.4346 7.918C98.2346 7.77 97.9626 7.696 97.6186 7.696C97.4346 7.696 97.2526 7.726 97.0726 7.786C96.8926 7.846 96.7286 7.95 96.5806 8.098C96.4366 8.242 96.3206 8.442 96.2326 8.698C96.1446 8.95 96.1006 9.274 96.1006 9.67L95.2426 9.304C95.2426 8.752 95.3486 8.252 95.5606 7.804C95.7766 7.356 96.0926 7 96.5086 6.736C96.9246 6.468 97.4366 6.334 98.0446 6.334C98.5246 6.334 98.9206 6.414 99.2326 6.574C99.5446 6.734 99.7926 6.938 99.9766 7.186C100.161 7.434 100.297 7.698 100.385 7.978C100.473 8.258 100.529 8.524 100.553 8.776C100.581 9.024 100.595 9.226 100.595 9.382V13H99.1306ZM94.6366 13V4.36H95.9266V8.908H96.1006V13H94.6366ZM103.972 13.18C103.504 13.18 103.108 13.092 102.784 12.916C102.46 12.736 102.214 12.498 102.046 12.202C101.882 11.906 101.8 11.58 101.8 11.224C101.8 10.912 101.852 10.632 101.956 10.384C102.06 10.132 102.22 9.916 102.436 9.736C102.652 9.552 102.932 9.402 103.276 9.286C103.536 9.202 103.84 9.126 104.188 9.058C104.54 8.99 104.92 8.928 105.328 8.872C105.74 8.812 106.17 8.748 106.618 8.68L106.102 8.974C106.106 8.526 106.006 8.196 105.802 7.984C105.598 7.772 105.254 7.666 104.77 7.666C104.478 7.666 104.196 7.734 103.924 7.87C103.652 8.006 103.462 8.24 103.354 8.572L102.034 8.158C102.194 7.61 102.498 7.17 102.946 6.838C103.398 6.506 104.006 6.34 104.77 6.34C105.346 6.34 105.852 6.434 106.288 6.622C106.728 6.81 107.054 7.118 107.266 7.546C107.382 7.774 107.452 8.008 107.476 8.248C107.5 8.484 107.512 8.742 107.512 9.022V13H106.246V11.596L106.456 11.824C106.164 12.292 105.822 12.636 105.43 12.856C105.042 13.072 104.556 13.18 103.972 13.18ZM104.26 12.028C104.588 12.028 104.868 11.97 105.1 11.854C105.332 11.738 105.516 11.596 105.652 11.428C105.792 11.26 105.886 11.102 105.934 10.954C106.01 10.77 106.052 10.56 106.06 10.324C106.072 10.084 106.078 9.89 106.078 9.742L106.522 9.874C106.086 9.942 105.712 10.002 105.4 10.054C105.088 10.106 104.82 10.156 104.596 10.204C104.372 10.248 104.174 10.298 104.002 10.354C103.834 10.414 103.692 10.484 103.576 10.564C103.46 10.644 103.37 10.736 103.306 10.84C103.246 10.944 103.216 11.066 103.216 11.206C103.216 11.366 103.256 11.508 103.336 11.632C103.416 11.752 103.532 11.848 103.684 11.92C103.84 11.992 104.032 12.028 104.26 12.028ZM111.798 16.06C111.438 16.06 111.092 16.004 110.76 15.892C110.432 15.78 110.136 15.618 109.872 15.406C109.608 15.198 109.392 14.946 109.224 14.65L110.556 13.99C110.68 14.226 110.854 14.4 111.078 14.512C111.306 14.628 111.548 14.686 111.804 14.686C112.104 14.686 112.372 14.632 112.608 14.524C112.844 14.42 113.026 14.264 113.154 14.056C113.286 13.852 113.348 13.596 113.34 13.288V11.446H113.52V6.52H114.786V13.312C114.786 13.476 114.778 13.632 114.762 13.78C114.75 13.932 114.728 14.08 114.696 14.224C114.6 14.644 114.416 14.988 114.144 15.256C113.872 15.528 113.534 15.73 113.13 15.862C112.73 15.994 112.286 16.06 111.798 16.06ZM111.672 13.18C111.076 13.18 110.556 13.03 110.112 12.73C109.668 12.43 109.324 12.022 109.08 11.506C108.836 10.99 108.714 10.408 108.714 9.76C108.714 9.104 108.836 8.52 109.08 8.008C109.328 7.492 109.678 7.086 110.13 6.79C110.582 6.49 111.114 6.34 111.726 6.34C112.342 6.34 112.858 6.49 113.274 6.79C113.694 7.086 114.012 7.492 114.228 8.008C114.444 8.524 114.552 9.108 114.552 9.76C114.552 10.404 114.444 10.986 114.228 11.506C114.012 12.022 113.69 12.43 113.262 12.73C112.834 13.03 112.304 13.18 111.672 13.18ZM111.894 11.884C112.282 11.884 112.594 11.796 112.83 11.62C113.07 11.44 113.244 11.19 113.352 10.87C113.464 10.55 113.52 10.18 113.52 9.76C113.52 9.336 113.464 8.966 113.352 8.65C113.244 8.33 113.074 8.082 112.842 7.906C112.61 7.726 112.31 7.636 111.942 7.636C111.554 7.636 111.234 7.732 110.982 7.924C110.73 8.112 110.544 8.368 110.424 8.692C110.304 9.012 110.244 9.368 110.244 9.76C110.244 10.156 110.302 10.516 110.418 10.84C110.538 11.16 110.72 11.414 110.964 11.602C111.208 11.79 111.518 11.884 111.894 11.884ZM119.415 13.18C118.759 13.18 118.183 13.038 117.687 12.754C117.191 12.47 116.803 12.076 116.523 11.572C116.247 11.068 116.109 10.488 116.109 9.832C116.109 9.124 116.245 8.51 116.517 7.99C116.789 7.466 117.167 7.06 117.651 6.772C118.135 6.484 118.695 6.34 119.331 6.34C120.003 6.34 120.573 6.498 121.041 6.814C121.513 7.126 121.863 7.568 122.091 8.14C122.319 8.712 122.405 9.386 122.349 10.162H120.915V9.634C120.911 8.93 120.787 8.416 120.543 8.092C120.299 7.768 119.915 7.606 119.391 7.606C118.799 7.606 118.359 7.79 118.071 8.158C117.783 8.522 117.639 9.056 117.639 9.76C117.639 10.416 117.783 10.924 118.071 11.284C118.359 11.644 118.779 11.824 119.331 11.824C119.687 11.824 119.993 11.746 120.249 11.59C120.509 11.43 120.709 11.2 120.849 10.9L122.277 11.332C122.029 11.916 121.645 12.37 121.125 12.694C120.609 13.018 120.039 13.18 119.415 13.18ZM117.183 10.162V9.07H121.641V10.162H117.183ZM127.994 13V9.88C127.994 9.676 127.98 9.45 127.952 9.202C127.924 8.954 127.858 8.716 127.754 8.488C127.654 8.256 127.502 8.066 127.298 7.918C127.098 7.77 126.826 7.696 126.482 7.696C126.298 7.696 126.116 7.726 125.936 7.786C125.756 7.846 125.592 7.95 125.444 8.098C125.3 8.242 125.184 8.442 125.096 8.698C125.008 8.95 124.964 9.274 124.964 9.67L124.106 9.304C124.106 8.752 124.212 8.252 124.424 7.804C124.64 7.356 124.956 7 125.372 6.736C125.788 6.468 126.3 6.334 126.908 6.334C127.388 6.334 127.784 6.414 128.096 6.574C128.408 6.734 128.656 6.938 128.84 7.186C129.024 7.434 129.16 7.698 129.248 7.978C129.336 8.258 129.392 8.524 129.416 8.776C129.444 9.024 129.458 9.226 129.458 9.382V13H127.994ZM123.5 13V6.52H124.79V8.53H124.964V13H123.5ZM131.264 13V11.518H132.746V13H131.264Z" fill="black"/>
</g>
<defs>
<clipPath id="clip0_1_41">
<rect width="134" height="16" fill="white"/>
</clipPath>
</defs>
</svg>
