<svg width="144" height="48" viewBox="0 0 144 48" fill="none" xmlns="http://www.w3.org/2000/svg">
<g filter="url(#filter0_d_101_39)">
<path d="M15.08 29C14.44 29 13.964 28.832 13.652 28.496C13.34 28.16 13.184 27.732 13.184 27.212V24.188H11.504V22.808H12.596C12.86 22.808 13.048 22.756 13.16 22.652C13.272 22.548 13.328 22.356 13.328 22.076V20.624H14.96V22.808H17.372V24.188H14.96V27.62H17.372V29H15.08ZM24.0393 29C23.6713 29 23.3753 28.908 23.1513 28.724C22.9273 28.532 22.7953 28.26 22.7553 27.908H22.6953C22.5833 28.316 22.3593 28.624 22.0233 28.832C21.6953 29.04 21.2913 29.144 20.8113 29.144C20.2113 29.144 19.7273 28.984 19.3593 28.664C18.9993 28.336 18.8193 27.88 18.8193 27.296C18.8193 26.648 19.0553 26.168 19.5273 25.856C19.9993 25.544 20.6913 25.388 21.6033 25.388H22.5993V25.076C22.5993 24.708 22.5113 24.432 22.3353 24.248C22.1673 24.056 21.8793 23.96 21.4713 23.96C21.0953 23.96 20.7913 24.032 20.5593 24.176C20.3273 24.32 20.1273 24.508 19.9593 24.74L18.9873 23.876C19.1953 23.524 19.5193 23.236 19.9593 23.012C20.4073 22.78 20.9793 22.664 21.6753 22.664C22.5233 22.664 23.1833 22.86 23.6553 23.252C24.1353 23.636 24.3753 24.22 24.3753 25.004V27.716H25.0593V29H24.0393ZM21.4833 27.98C21.7953 27.98 22.0593 27.904 22.2753 27.752C22.4913 27.6 22.5993 27.38 22.5993 27.092V26.348H21.6513C20.9233 26.348 20.5593 26.592 20.5593 27.08V27.32C20.5593 27.536 20.6433 27.7 20.8113 27.812C20.9793 27.924 21.2033 27.98 21.4833 27.98ZM31.2346 29C30.8666 29 30.5706 28.908 30.3466 28.724C30.1226 28.532 29.9906 28.26 29.9506 27.908H29.8906C29.7786 28.316 29.5546 28.624 29.2186 28.832C28.8906 29.04 28.4866 29.144 28.0066 29.144C27.4066 29.144 26.9226 28.984 26.5546 28.664C26.1946 28.336 26.0146 27.88 26.0146 27.296C26.0146 26.648 26.2506 26.168 26.7226 25.856C27.1946 25.544 27.8866 25.388 28.7986 25.388H29.7946V25.076C29.7946 24.708 29.7066 24.432 29.5306 24.248C29.3626 24.056 29.0746 23.96 28.6666 23.96C28.2906 23.96 27.9866 24.032 27.7546 24.176C27.5226 24.32 27.3226 24.508 27.1546 24.74L26.1826 23.876C26.3906 23.524 26.7146 23.236 27.1546 23.012C27.6026 22.78 28.1746 22.664 28.8706 22.664C29.7186 22.664 30.3786 22.86 30.8506 23.252C31.3306 23.636 31.5706 24.22 31.5706 25.004V27.716H32.2546V29H31.2346ZM28.6786 27.98C28.9906 27.98 29.2546 27.904 29.4706 27.752C29.6866 27.6 29.7946 27.38 29.7946 27.092V26.348H28.8466C28.1186 26.348 27.7546 26.592 27.7546 27.08V27.32C27.7546 27.536 27.8386 27.7 28.0066 27.812C28.1746 27.924 28.3986 27.98 28.6786 27.98ZM35.1299 29L32.9099 22.808H34.7819L35.5859 25.46L36.1739 27.524H36.2699L36.8579 25.46L37.6619 22.808H39.4619L37.2419 29H35.1299ZM43.7653 22.016C43.3653 22.016 43.0853 21.936 42.9253 21.776C42.7733 21.608 42.6973 21.408 42.6973 21.176V20.828C42.6973 20.588 42.7733 20.388 42.9253 20.228C43.0853 20.068 43.3653 19.988 43.7653 19.988C44.1653 19.988 44.4413 20.068 44.5933 20.228C44.7533 20.388 44.8333 20.588 44.8333 20.828V21.176C44.8333 21.408 44.7533 21.608 44.5933 21.776C44.4413 21.936 44.1653 22.016 43.7653 22.016ZM40.9093 27.62H42.8773V24.188H40.9093V22.808H44.6533V27.62H46.4773V29H40.9093V27.62ZM55.0599 27.62H56.4879V24.188H55.0599V22.808H58.2639V24.56H58.3479C58.4039 24.336 58.4799 24.12 58.5759 23.912C58.6799 23.696 58.8079 23.508 58.9599 23.348C59.1199 23.18 59.3119 23.048 59.5359 22.952C59.7599 22.856 60.0239 22.808 60.3279 22.808H60.9159V24.44H59.5959C59.1559 24.44 58.8239 24.572 58.5999 24.836C58.3759 25.092 58.2639 25.408 58.2639 25.784V27.62H60.3039V29H55.0599V27.62ZM62.0872 31.304V29.852H67.8472V31.304H62.0872ZM69.2705 20.12H71.0465V23.936H71.1305C71.2825 23.568 71.5025 23.264 71.7905 23.024C72.0785 22.784 72.4705 22.664 72.9665 22.664C73.3105 22.664 73.6225 22.728 73.9025 22.856C74.1905 22.984 74.4345 23.18 74.6345 23.444C74.8425 23.708 75.0025 24.044 75.1145 24.452C75.2345 24.86 75.2945 25.344 75.2945 25.904C75.2945 26.464 75.2345 26.948 75.1145 27.356C75.0025 27.764 74.8425 28.1 74.6345 28.364C74.4345 28.628 74.1905 28.824 73.9025 28.952C73.6225 29.08 73.3105 29.144 72.9665 29.144C72.4705 29.144 72.0785 29.028 71.7905 28.796C71.5025 28.556 71.2825 28.248 71.1305 27.872H71.0465V29H69.2705V20.12ZM72.1985 27.764C72.5985 27.764 72.9065 27.644 73.1225 27.404C73.3385 27.156 73.4465 26.816 73.4465 26.384V25.424C73.4465 24.992 73.3385 24.656 73.1225 24.416C72.9065 24.168 72.5985 24.044 72.1985 24.044C71.8865 24.044 71.6145 24.12 71.3825 24.272C71.1585 24.424 71.0465 24.664 71.0465 24.992V26.816C71.0465 27.144 71.1585 27.384 71.3825 27.536C71.6145 27.688 71.8865 27.764 72.1985 27.764ZM79.5258 29.144C78.4858 29.144 77.6978 28.856 77.1618 28.28C76.6258 27.704 76.3578 26.92 76.3578 25.928C76.3578 25.424 76.4258 24.972 76.5618 24.572C76.7058 24.164 76.9058 23.82 77.1618 23.54C77.4258 23.252 77.7418 23.036 78.1098 22.892C78.4858 22.74 78.9058 22.664 79.3698 22.664C79.8338 22.664 80.2498 22.74 80.6178 22.892C80.9858 23.036 81.2978 23.244 81.5538 23.516C81.8098 23.788 82.0058 24.12 82.1418 24.512C82.2858 24.896 82.3578 25.328 82.3578 25.808V26.336H78.1218V26.444C78.1218 26.844 78.2458 27.168 78.4938 27.416C78.7418 27.656 79.1058 27.776 79.5858 27.776C79.9538 27.776 80.2698 27.708 80.5338 27.572C80.7978 27.428 81.0258 27.24 81.2178 27.008L82.1778 28.052C81.9378 28.348 81.6018 28.604 81.1698 28.82C80.7378 29.036 80.1898 29.144 79.5258 29.144ZM79.3818 23.936C78.9978 23.936 78.6898 24.056 78.4578 24.296C78.2338 24.528 78.1218 24.844 78.1218 25.244V25.34H80.6178V25.244C80.6178 24.836 80.5058 24.516 80.2818 24.284C80.0658 24.052 79.7658 23.936 79.3818 23.936ZM83.7331 29V22.808H85.5091V23.936H85.5811C85.6531 23.76 85.7411 23.596 85.8451 23.444C85.9491 23.292 86.0731 23.16 86.2171 23.048C86.3691 22.928 86.5411 22.836 86.7331 22.772C86.9331 22.7 87.1571 22.664 87.4051 22.664C87.7011 22.664 87.9731 22.716 88.2211 22.82C88.4691 22.916 88.6811 23.064 88.8571 23.264C89.0331 23.464 89.1691 23.708 89.2651 23.996C89.3691 24.284 89.4211 24.616 89.4211 24.992V29H87.6451V25.232C87.6451 24.432 87.2971 24.032 86.6011 24.032C86.4651 24.032 86.3291 24.052 86.1931 24.092C86.0651 24.124 85.9491 24.18 85.8451 24.26C85.7411 24.332 85.6571 24.424 85.5931 24.536C85.5371 24.648 85.5091 24.78 85.5091 24.932V29H83.7331ZM90.9284 20.12H92.7044V23.936H92.7764C92.8484 23.76 92.9364 23.596 93.0404 23.444C93.1444 23.292 93.2684 23.16 93.4124 23.048C93.5644 22.928 93.7364 22.836 93.9284 22.772C94.1284 22.7 94.3524 22.664 94.6004 22.664C94.8964 22.664 95.1684 22.716 95.4164 22.82C95.6644 22.916 95.8764 23.064 96.0524 23.264C96.2284 23.464 96.3644 23.708 96.4604 23.996C96.5644 24.284 96.6164 24.616 96.6164 24.992V29H94.8404V25.232C94.8404 24.432 94.4924 24.032 93.7964 24.032C93.6604 24.032 93.5244 24.052 93.3884 24.092C93.2604 24.124 93.1444 24.18 93.0404 24.26C92.9364 24.332 92.8524 24.424 92.7884 24.536C92.7324 24.648 92.7044 24.78 92.7044 24.932V29H90.9284V20.12ZM103.188 29C102.82 29 102.524 28.908 102.3 28.724C102.076 28.532 101.944 28.26 101.904 27.908H101.844C101.732 28.316 101.508 28.624 101.172 28.832C100.844 29.04 100.44 29.144 99.9598 29.144C99.3598 29.144 98.8758 28.984 98.5078 28.664C98.1478 28.336 97.9678 27.88 97.9678 27.296C97.9678 26.648 98.2038 26.168 98.6758 25.856C99.1478 25.544 99.8398 25.388 100.752 25.388H101.748V25.076C101.748 24.708 101.66 24.432 101.484 24.248C101.316 24.056 101.028 23.96 100.62 23.96C100.244 23.96 99.9398 24.032 99.7078 24.176C99.4758 24.32 99.2758 24.508 99.1077 24.74L98.1357 23.876C98.3438 23.524 98.6678 23.236 99.1077 23.012C99.5558 22.78 100.128 22.664 100.824 22.664C101.672 22.664 102.332 22.86 102.804 23.252C103.284 23.636 103.524 24.22 103.524 25.004V27.716H104.208V29H103.188ZM100.632 27.98C100.944 27.98 101.208 27.904 101.424 27.752C101.64 27.6 101.748 27.38 101.748 27.092V26.348H100.8C100.072 26.348 99.7078 26.592 99.7078 27.08V27.32C99.7078 27.536 99.7918 27.7 99.9598 27.812C100.128 27.924 100.352 27.98 100.632 27.98ZM111.535 29.624C111.535 30.28 111.259 30.764 110.707 31.076C110.155 31.388 109.287 31.544 108.103 31.544C107.511 31.544 107.023 31.508 106.639 31.436C106.255 31.372 105.947 31.276 105.715 31.148C105.491 31.02 105.331 30.868 105.235 30.692C105.147 30.516 105.103 30.324 105.103 30.116C105.103 29.764 105.207 29.496 105.415 29.312C105.623 29.136 105.915 29 106.291 28.904V28.832C106.027 28.752 105.815 28.64 105.655 28.496C105.503 28.344 105.427 28.132 105.427 27.86C105.427 27.556 105.527 27.332 105.727 27.188C105.935 27.044 106.207 26.932 106.543 26.852V26.78C106.175 26.604 105.887 26.356 105.679 26.036C105.479 25.716 105.379 25.328 105.379 24.872C105.379 24.512 105.443 24.196 105.571 23.924C105.699 23.644 105.879 23.412 106.111 23.228C106.351 23.044 106.635 22.904 106.963 22.808C107.291 22.712 107.659 22.664 108.067 22.664C108.459 22.664 108.823 22.708 109.159 22.796V22.46C109.159 22.22 109.243 22.02 109.411 21.86C109.579 21.7 109.811 21.62 110.107 21.62H111.199V22.916H109.711V23.024C110.047 23.2 110.307 23.444 110.491 23.756C110.683 24.06 110.779 24.432 110.779 24.872C110.779 25.232 110.715 25.548 110.587 25.82C110.459 26.092 110.275 26.324 110.035 26.516C109.795 26.7 109.507 26.84 109.171 26.936C108.843 27.032 108.475 27.08 108.067 27.08C107.883 27.08 107.707 27.072 107.539 27.056C107.371 27.032 107.211 27 107.059 26.96C106.971 27.008 106.895 27.068 106.831 27.14C106.775 27.212 106.747 27.304 106.747 27.416C106.747 27.512 106.771 27.588 106.819 27.644C106.867 27.7 106.931 27.744 107.011 27.776C107.099 27.8 107.199 27.816 107.311 27.824C107.423 27.832 107.539 27.836 107.659 27.836H109.075C109.515 27.836 109.891 27.88 110.203 27.968C110.515 28.056 110.771 28.18 110.971 28.34C111.171 28.5 111.315 28.688 111.403 28.904C111.491 29.12 111.535 29.36 111.535 29.624ZM109.855 29.756C109.855 29.596 109.791 29.468 109.663 29.372C109.535 29.284 109.291 29.24 108.931 29.24H106.807C106.647 29.376 106.567 29.544 106.567 29.744C106.567 29.936 106.647 30.092 106.807 30.212C106.975 30.34 107.255 30.404 107.647 30.404H108.691C109.099 30.404 109.395 30.348 109.579 30.236C109.763 30.124 109.855 29.964 109.855 29.756ZM108.067 25.952C108.427 25.952 108.687 25.864 108.847 25.688C109.015 25.512 109.099 25.288 109.099 25.016V24.728C109.099 24.456 109.015 24.232 108.847 24.056C108.687 23.88 108.427 23.792 108.067 23.792C107.715 23.792 107.459 23.88 107.299 24.056C107.139 24.232 107.059 24.456 107.059 24.728V25.016C107.059 25.288 107.139 25.512 107.299 25.688C107.459 25.864 107.715 25.952 108.067 25.952ZM115.502 29.144C114.462 29.144 113.674 28.856 113.138 28.28C112.602 27.704 112.334 26.92 112.334 25.928C112.334 25.424 112.402 24.972 112.538 24.572C112.682 24.164 112.882 23.82 113.138 23.54C113.402 23.252 113.718 23.036 114.086 22.892C114.462 22.74 114.882 22.664 115.346 22.664C115.81 22.664 116.226 22.74 116.594 22.892C116.962 23.036 117.274 23.244 117.53 23.516C117.786 23.788 117.982 24.12 118.118 24.512C118.262 24.896 118.334 25.328 118.334 25.808V26.336H114.098V26.444C114.098 26.844 114.222 27.168 114.47 27.416C114.718 27.656 115.082 27.776 115.562 27.776C115.93 27.776 116.246 27.708 116.51 27.572C116.774 27.428 117.002 27.24 117.194 27.008L118.154 28.052C117.914 28.348 117.578 28.604 117.146 28.82C116.714 29.036 116.166 29.144 115.502 29.144ZM115.358 23.936C114.974 23.936 114.666 24.056 114.434 24.296C114.21 24.528 114.098 24.844 114.098 25.244V25.34H116.594V25.244C116.594 24.836 116.482 24.516 116.258 24.284C116.042 24.052 115.742 23.936 115.358 23.936ZM119.71 29V22.808H121.486V23.936H121.558C121.63 23.76 121.718 23.596 121.822 23.444C121.926 23.292 122.05 23.16 122.194 23.048C122.346 22.928 122.518 22.836 122.71 22.772C122.91 22.7 123.134 22.664 123.382 22.664C123.678 22.664 123.95 22.716 124.198 22.82C124.446 22.916 124.658 23.064 124.834 23.264C125.01 23.464 125.146 23.708 125.242 23.996C125.346 24.284 125.398 24.616 125.398 24.992V29H123.622V25.232C123.622 24.432 123.274 24.032 122.578 24.032C122.442 24.032 122.306 24.052 122.17 24.092C122.042 24.124 121.926 24.18 121.822 24.26C121.718 24.332 121.634 24.424 121.57 24.536C121.514 24.648 121.486 24.78 121.486 24.932V29H119.71ZM128.849 26.912H131.129L129.485 30.812H128.165L128.849 26.912ZM129.725 25.076C129.277 25.076 128.953 24.98 128.753 24.788C128.561 24.588 128.465 24.352 128.465 24.08V23.66C128.465 23.388 128.561 23.156 128.753 22.964C128.953 22.764 129.277 22.664 129.725 22.664C130.173 22.664 130.493 22.764 130.685 22.964C130.885 23.156 130.985 23.388 130.985 23.66V24.08C130.985 24.352 130.885 24.588 130.685 24.788C130.493 24.98 130.173 25.076 129.725 25.076Z" fill="black"/>
</g>
<defs>
<filter id="filter0_d_101_39" x="7.504" y="19.988" width="127.625" height="23.556" filterUnits="userSpaceOnUse" color-interpolation-filters="sRGB">
<feFlood flood-opacity="0" result="BackgroundImageFix"/>
<feColorMatrix in="SourceAlpha" type="matrix" values="0 0 0 0 0 0 0 0 0 0 0 0 0 0 0 0 0 0 127 0" result="hardAlpha"/>
<feOffset dy="8"/>
<feGaussianBlur stdDeviation="2"/>
<feComposite in2="hardAlpha" operator="out"/>
<feColorMatrix type="matrix" values="0 0 0 0 0 0 0 0 0 0 0 0 0 0 0 0 0 0 0.5 0"/>
<feBlend mode="normal" in2="BackgroundImageFix" result="effect1_dropShadow_101_39"/>
<feBlend mode="normal" in="SourceGraphic" in2="effect1_dropShadow_101_39" result="shape"/>
</filter>
</defs>
</svg>
