<svg width="24" height="24" viewBox="0 0 24 24" fill="none" xmlns="http://www.w3.org/2000/svg">
<path d="M17.0257 6.00006H16.5257C16.5257 6.2762 16.7495 6.50006 17.0257 6.50006V6.00006ZM17.0257 4.89434H17.5257C17.5257 4.88956 17.5256 4.88478 17.5255 4.88L17.0257 4.89434ZM14 6.00006V6.50006C14.2761 6.50006 14.5 6.2762 14.5 6.00006H14ZM10 6.00006H9.5C9.5 6.2762 9.72386 6.50006 10 6.50006V6.00006ZM7 5.00006H7.5C7.5 4.99059 7.49973 4.98113 7.49919 4.97167L7 5.00006ZM6.5 6.00006C6.5 6.2762 6.72386 6.50006 7 6.50006C7.27614 6.50006 7.5 6.2762 7.5 6.00006H6.5ZM15.6776 8.88215C15.8886 9.06022 16.2041 9.03349 16.3821 8.82243C16.5602 8.61138 16.5335 8.29593 16.3224 8.11785L15.6776 8.88215ZM20.5 9.68417V17.0892H21.5V9.68417H20.5ZM17.0257 20.5001H6.97434V21.5001H17.0257V20.5001ZM3.5 17.0892V11H2.5V17.0892H3.5ZM6.97434 20.5001C5.04789 20.5001 3.5 18.9654 3.5 17.0892H2.5C2.5 19.5328 4.51086 21.5001 6.97434 21.5001V20.5001ZM20.5 17.0892C20.5 18.9654 18.9521 20.5001 17.0257 20.5001V21.5001C19.4891 21.5001 21.5 19.5328 21.5 17.0892H20.5ZM17.0257 6.50006C18.9925 6.50006 20.5 7.84612 20.5 9.68417H21.5C21.5 7.20247 19.4488 5.50006 17.0257 5.50006V6.50006ZM6.97434 7.22877C5.88345 7.22877 4.75029 7.28685 3.89631 7.81389C2.97844 8.38036 2.5 9.39934 2.5 11H3.5C3.5 9.60066 3.90437 8.98403 4.4215 8.66488C5.00251 8.3063 5.85652 8.22877 6.97434 8.22877V7.22877ZM17.5257 6.00006V4.89434H16.5257V6.00006H17.5257ZM17.5255 4.88C17.5117 4.40157 17.4301 3.82115 17.1338 3.34689C16.8131 2.83366 16.2749 2.5 15.5 2.5L15.5 3.5C15.9425 3.5 16.1543 3.66636 16.2857 3.87674C16.4415 4.12608 16.5139 4.49283 16.5259 4.90868L17.5255 4.88ZM15.5 2.5C14.806 2.5 14.2858 2.85744 13.959 3.34769C13.642 3.82312 13.5 4.42589 13.5 5.00006H14.5C14.5 4.57423 14.608 4.17697 14.791 3.90237C14.9642 3.64259 15.194 3.5 15.5 3.5L15.5 2.5ZM13.5 5.00006V6.00006H14.5V5.00006H13.5ZM14 5.50006H10V6.50006H14V5.50006ZM10.5 6.00006V5.00006H9.5V6.00006H10.5ZM10.5 5.00006C10.5 4.47519 10.4355 3.86548 10.1488 3.37335C9.83489 2.83462 9.29214 2.50006 8.5113 2.50006V3.50006C8.96002 3.50006 9.16162 3.66549 9.28471 3.87676C9.43495 4.13463 9.5 4.52492 9.5 5.00006H10.5ZM8.5113 2.50006C7.68376 2.50006 7.14391 2.94562 6.84291 3.48246C6.55659 3.99313 6.47605 4.59301 6.50081 5.02844L7.49919 4.97167C7.48255 4.67892 7.54288 4.2788 7.71517 3.97151C7.87278 3.6904 8.10927 3.50006 8.5113 3.50006V2.50006ZM6.5 5.00006V6.00006H7.5V5.00006H6.5ZM6.97434 8.22877H12.8545V7.22877H6.97434V8.22877ZM12.8545 8.22877C14.0302 8.22877 14.9241 8.24644 15.6776 8.88215L16.3224 8.11785C15.2477 7.21109 13.9698 7.22877 12.8545 7.22877V8.22877Z" fill="black"/>
</svg>
