<svg width="24" height="24" viewBox="0 0 24 24" fill="none" xmlns="http://www.w3.org/2000/svg">
<path d="M14.4518 6.93874L14.8227 6.60339L14.4518 6.93874ZM12.5496 11.7926L12.1905 11.4446C12.1864 11.4489 12.1822 11.4533 12.1782 11.4578L12.5496 11.7926ZM6.81077 18.9051C6.9873 18.6927 6.95827 18.3775 6.74592 18.2009C6.53357 18.0244 6.21833 18.0534 6.04179 18.2658L6.81077 18.9051ZM6.66755 20.6966L6.95174 20.2852H6.95173L6.66755 20.6966ZM8.78807 20.3532L8.40884 20.0273C8.40091 20.0366 8.39331 20.0461 8.38607 20.0559L8.78807 20.3532ZM16.6816 11.1667L17.0609 11.4926C17.0667 11.4857 17.0724 11.4787 17.0779 11.4716L16.6816 11.1667ZM16.4524 4.57845L16.1096 4.94246L16.4524 4.57845ZM9.43216 4.1119L9.14588 3.70197L9.43216 4.1119ZM8.28769 6.738L8.7279 6.50091L8.28769 6.738ZM7.58573 16.5524C7.40084 16.7575 7.41723 17.0737 7.62233 17.2586C7.82744 17.4435 8.1436 17.4271 8.32849 17.222L7.58573 16.5524ZM11.7549 7.14199C12.1738 6.83644 12.4978 6.62375 12.8322 6.58738C13.1089 6.55731 13.5098 6.64248 14.0809 7.2741L14.8227 6.60339C14.1183 5.82451 13.4241 5.51715 12.7242 5.59324C12.082 5.66305 11.5479 6.05523 11.1656 6.33402L11.7549 7.14199ZM14.0809 7.2741C14.2384 7.44828 14.3071 7.68497 14.2696 8.02069C14.2309 8.3664 14.0816 8.77539 13.85 9.21373C13.388 10.0879 12.6666 10.9533 12.1905 11.4446L12.9087 12.1405C13.4223 11.6105 14.2123 10.6685 14.7341 9.68092C14.9944 9.18836 15.2051 8.65284 15.2634 8.13188C15.3228 7.60092 15.2254 7.04877 14.8227 6.60339L14.0809 7.2741ZM6.04179 18.2658C5.76733 18.5959 5.50651 19.0608 5.50012 19.5909C5.49328 20.1582 5.77812 20.6899 6.38337 21.108L6.95173 20.2852C6.56867 20.0206 6.49792 19.7793 6.50005 19.603C6.50262 19.3895 6.61532 19.1402 6.81077 18.9051L6.04179 18.2658ZM6.38337 21.108C7.00931 21.5404 7.62904 21.5745 8.14369 21.4056C8.63115 21.2456 8.9942 20.9153 9.19008 20.6505L8.38607 20.0559C8.2869 20.19 8.08385 20.3727 7.83189 20.4554C7.60712 20.5292 7.3141 20.5355 6.95174 20.2852L6.38337 21.108ZM9.1673 20.679L17.0609 11.4926L16.3024 10.8408L8.40884 20.0273L9.1673 20.679ZM17.0779 11.4716C17.8169 10.5113 18.4185 9.33343 18.4924 8.06085C18.5677 6.76315 18.0899 5.43368 16.7952 4.21445L16.1096 4.94246C17.2097 5.97839 17.5507 7.02783 17.4941 8.00287C17.436 9.00302 16.9548 9.99174 16.2854 10.8618L17.0779 11.4716ZM16.7952 4.21445C15.2003 2.71255 13.5503 2.37662 12.1543 2.53616C10.7827 2.6929 9.68946 3.32236 9.14588 3.70197L9.71844 4.52183C10.1889 4.19328 11.1238 3.66042 12.2678 3.52969C13.3874 3.40175 14.7405 3.65318 16.1096 4.94246L16.7952 4.21445ZM9.14588 3.70197C8.76041 3.97117 8.25643 4.39324 7.932 4.9329C7.59502 5.49342 7.43815 6.21511 7.84748 6.9751L8.7279 6.50091C8.52855 6.13078 8.58238 5.7919 8.78904 5.44814C9.00825 5.08352 9.38085 4.75759 9.71844 4.52183L9.14588 3.70197ZM7.84748 6.9751C8.2915 7.7995 9.14604 7.95623 9.85658 7.87772C10.5685 7.79906 11.2909 7.48035 11.7549 7.14199L11.1656 6.33402C10.8284 6.57999 10.2687 6.8261 9.74675 6.88377C9.22342 6.94159 8.89231 6.80616 8.7279 6.50091L7.84748 6.9751ZM12.1782 11.4578L7.58573 16.5524L8.32849 17.222L12.921 12.1273L12.1782 11.4578Z" fill="black"/>
</svg>
