<svg width="24" height="24" viewBox="0 0 24 24" fill="none" xmlns="http://www.w3.org/2000/svg">
<path d="M12.4838 5.50028C12.2078 5.50916 11.9913 5.7401 12.0001 6.0161C12.009 6.2921 12.24 6.50864 12.516 6.49976L12.4838 5.50028ZM10.555 4.8647L10.6472 5.35613C10.8119 5.32523 10.9502 5.21387 11.0155 5.05952L10.555 4.8647ZM14.0824 4.60865L13.5827 4.62473L13.5827 4.62473L14.0824 4.60865ZM13.5837 4.65679C13.5926 4.93279 13.8236 5.14933 14.0996 5.14045C14.3756 5.13157 14.5921 4.90063 14.5832 4.62463L13.5837 4.65679ZM10.913 4.01867L11.3735 4.21349L11.3735 4.21349L10.913 4.01867ZM19.3985 13.585C19.0737 17.7144 15.4629 20.7986 11.3335 20.4738L11.2551 21.4708C15.935 21.8389 20.0273 18.3434 20.3954 13.6634L19.3985 13.585ZM11.3335 20.4738C7.20411 20.149 4.11988 16.5382 4.44468 12.4088L3.44776 12.3304C3.07966 17.0104 6.57511 21.1026 11.2551 21.4708L11.3335 20.4738ZM12.516 6.49976C16.7493 6.36355 19.7211 9.48325 19.3985 13.585L20.3954 13.6634C20.7657 8.95585 17.3011 5.34528 12.4838 5.50028L12.516 6.49976ZM4.44468 12.4088C4.7171 8.94532 7.40956 5.96343 10.6472 5.35613L10.4629 4.37327C6.77003 5.06595 3.75472 8.42782 3.44776 12.3304L4.44468 12.4088ZM13.5827 4.62473L13.5837 4.65679L14.5832 4.62463L14.5822 4.59257L13.5827 4.62473ZM11.0155 5.05952L11.3735 4.21349L10.4525 3.82384L10.0946 4.66987L11.0155 5.05952ZM12.5231 3.5149C13.1075 3.56086 13.5639 4.03886 13.5827 4.62473L14.5822 4.59257C14.547 3.49742 13.6939 2.60389 12.6015 2.51797L12.5231 3.5149ZM12.6015 2.51797C11.6788 2.4454 10.8132 2.97141 10.4525 3.82384L11.3735 4.21349C11.5664 3.75747 12.0295 3.47607 12.5231 3.5149L12.6015 2.51797Z" fill="black"/>
</svg>
