<svg width="24" height="24" viewBox="0 0 24 24" fill="none" xmlns="http://www.w3.org/2000/svg">
<path d="M13.9999 9.00003L13.9999 9.50003C13.7582 9.50003 13.5511 9.3271 13.508 9.08924C13.4648 8.85139 13.598 8.61674 13.8244 8.53187L13.9999 9.00003ZM16.5 4.50006L16.8999 4.20004L16.5 4.50006ZM12 5.99998L12.4472 6.22359C12.3625 6.39298 12.1894 6.49998 12 6.49998C11.8106 6.49998 11.6375 6.39298 11.5528 6.2236L12 5.99998ZM7.49988 4.50003L7.85342 4.85359L7.49988 4.50003ZM9.99995 9.00003L10.2236 8.55282C10.431 8.65652 10.5398 8.88922 10.4866 9.11491C10.4333 9.34059 10.2318 9.50003 9.99995 9.50003L9.99995 9.00003ZM3.99988 9.00003H3.49988C3.49988 8.86742 3.55256 8.74024 3.64632 8.64647C3.74009 8.5527 3.86727 8.50003 3.99988 8.50003L3.99988 9.00003ZM3.99988 13V13.5C3.72374 13.5 3.49988 13.2762 3.49988 13H3.99988ZM15.4999 12.5C15.776 12.5 15.9999 12.7239 15.9999 13C15.9999 13.2762 15.776 13.5 15.4999 13.5V12.5ZM19.9999 9.00003L19.9999 8.50003C20.1325 8.50003 20.2597 8.5527 20.3534 8.64647C20.4472 8.74024 20.4999 8.86742 20.4999 9.00003H19.9999ZM19.9999 13H20.4999C20.4999 13.2762 20.276 13.5 19.9999 13.5V13ZM17.9999 13H17.4999C17.4999 12.7239 17.7237 12.5 17.9999 12.5V13ZM17.9999 21H18.4999C18.4999 21.2762 18.276 21.5 17.9999 21.5V21ZM5.99988 21V21.5C5.72374 21.5 5.49988 21.2762 5.49988 21H5.99988ZM5.49988 14.5C5.49988 14.2239 5.72374 14 5.99988 14C6.27602 14 6.49988 14.2239 6.49988 14.5H5.49988ZM13.8244 8.53187C14.4193 8.30878 15.3397 7.73276 15.9211 7.0014C16.2084 6.63998 16.3888 6.27089 16.4336 5.91425C16.4765 5.57306 16.4013 5.20183 16.1 4.80008L16.8999 4.20004C17.3487 4.79827 17.5027 5.42703 17.4258 6.03894C17.3508 6.63542 17.0625 7.17257 16.7039 7.62366C15.9936 8.51729 14.9139 9.19129 14.1755 9.4682L13.8244 8.53187ZM16.1 4.80008C15.8631 4.48427 15.264 4.31224 14.4495 4.55496C13.672 4.78668 12.8783 5.36142 12.4472 6.22359L11.5528 5.77637C12.1216 4.63859 13.1536 3.8977 14.1639 3.59661C15.1373 3.30653 16.2882 3.38451 16.8999 4.20004L16.1 4.80008ZM11.5528 6.2236C11.1212 5.36046 10.3657 4.82097 9.61256 4.60581C8.83597 4.38394 8.17738 4.52965 7.85342 4.85359L7.14633 4.14646C7.82238 3.47046 8.91382 3.36617 9.88727 3.64428C10.8842 3.92909 11.8787 4.63955 12.4472 5.77636L11.5528 6.2236ZM7.85342 4.85359C7.51758 5.18941 7.41295 5.4921 7.41347 5.75731C7.41402 6.03723 7.53216 6.35293 7.78487 6.69812C8.29723 7.39797 9.25206 8.06707 10.2236 8.55282L9.77634 9.44724C8.74783 8.93299 7.62798 8.17668 6.97799 7.28883C6.64952 6.84017 6.41457 6.32145 6.41347 5.75926C6.41235 5.18235 6.65753 4.63524 7.14633 4.14646L7.85342 4.85359ZM9.99995 9.50003L3.99988 9.50003L3.99988 8.50003L9.99995 8.50003L9.99995 9.50003ZM4.49988 9.00003V13H3.49988V9.00003H4.49988ZM3.99988 12.5H15.4999V13.5H3.99988V12.5ZM13.9999 8.50003L19.9999 8.50003L19.9999 9.50003L13.9999 9.50003L13.9999 8.50003ZM20.4999 9.00003V13H19.4999V9.00003H20.4999ZM19.9999 13.5H17.9999V12.5H19.9999V13.5ZM18.4999 13V21H17.4999V13H18.4999ZM17.9999 21.5H5.99988V20.5H17.9999V21.5ZM5.49988 21V14.5H6.49988V21H5.49988Z" fill="black"/>
</svg>
