<svg width="24" height="24" viewBox="0 0 24 24" fill="none" xmlns="http://www.w3.org/2000/svg">
<path d="M11.7108 2.58889C11.4837 2.43172 11.1722 2.48836 11.0151 2.71541C10.8579 2.94246 10.9145 3.25393 11.1416 3.41111L11.7108 2.58889ZM11.8941 5.20312L12.3253 5.45632L11.8941 5.20312ZM11.8941 7.89548V8.39548C12.0963 8.39548 12.2786 8.27374 12.356 8.08699C12.4334 7.90024 12.3908 7.68524 12.248 7.54219L11.8941 7.89548ZM6.20988 8.87806L6.47428 9.30243L6.47428 9.30243L6.20988 8.87806ZM16.6312 9.36935L17.1312 9.36935C17.1312 9.18771 17.0327 9.02036 16.8739 8.9322C16.7151 8.84403 16.5209 8.84892 16.3668 8.94497L16.6312 9.36935ZM16.6311 12.8258L16.1311 12.8258C16.1311 12.9584 16.1838 13.0856 16.2776 13.1793C16.3713 13.2731 16.4985 13.3258 16.6311 13.3258V12.8258ZM18.9997 14.791L19.4996 14.7838L18.9997 14.791ZM16.6311 17.2474L16.5459 16.7547C16.3062 16.7962 16.1311 17.0042 16.1311 17.2474L16.6311 17.2474ZM16.6312 19.7038L16.9381 20.0985C17.0599 20.0038 17.1312 19.8581 17.1312 19.7038L16.6312 19.7038ZM6 19.7038H5.5C5.5 19.868 5.5806 20.0217 5.71564 20.1151L6 19.7038ZM6.5 12C6.5 11.7239 6.27614 11.5 6 11.5C5.72386 11.5 5.5 11.7239 5.5 12H6.5ZM11.1416 3.41111C11.3787 3.57524 11.5669 3.6654 11.6792 3.86763C11.7515 3.99775 11.8473 4.29556 11.463 4.94993L12.3253 5.45632C12.8233 4.60822 12.8522 3.92012 12.5534 3.38213C12.2947 2.91623 11.8078 2.65606 11.7108 2.58889L11.1416 3.41111ZM11.463 4.94993C11.2231 5.3584 10.9526 5.88364 10.8866 6.455C10.8166 7.06146 10.9809 7.6885 11.5403 8.24877L12.248 7.54219C11.9132 7.20697 11.8435 6.88628 11.8801 6.56965C11.9206 6.21792 12.0972 5.84472 12.3253 5.45632L11.463 4.94993ZM11.8941 7.39548C11.3211 7.39548 10.2126 7.43373 9.07257 7.57849C7.95902 7.71989 6.71607 7.97359 5.94548 8.45368L6.47428 9.30243C7.04024 8.94982 8.08253 8.71223 9.19854 8.57052C10.2881 8.43217 11.3534 8.39548 11.8941 8.39548V7.39548ZM5.94548 8.45368C5.79965 8.54454 5.63329 8.68344 5.54997 8.89399C5.45416 9.13608 5.50619 9.37119 5.61696 9.54841C5.71572 9.70641 5.86092 9.82299 5.99446 9.90886C6.13422 9.99873 6.29885 10.0787 6.47629 10.1503C7.1763 10.433 8.2706 10.6634 9.48852 10.7919C10.7148 10.9214 12.1054 10.9516 13.4105 10.8145C14.7052 10.6784 15.9663 10.3727 16.8956 9.79372L16.3668 8.94497C15.6253 9.40691 14.5396 9.6903 13.306 9.81993C12.0829 9.94847 10.7637 9.92096 9.59348 9.79745C8.41492 9.67306 7.42599 9.45536 6.85072 9.22306C6.70934 9.16597 6.60565 9.11298 6.53532 9.06775C6.45876 9.01852 6.45209 8.99782 6.46494 9.01838C6.4898 9.05815 6.52188 9.15565 6.47981 9.26196C6.45022 9.33673 6.41128 9.34168 6.47428 9.30243L5.94548 8.45368ZM16.1312 9.36934L16.1311 12.8258L17.1311 12.8258L17.1312 9.36935L16.1312 9.36934ZM16.6311 13.3258C16.9884 13.3258 17.4753 13.4777 17.8709 13.7644C18.2637 14.0489 18.4942 14.4093 18.4997 14.7981L19.4996 14.7838C19.4881 13.9756 19.0081 13.3534 18.4576 12.9546C17.9102 12.5579 17.2213 12.3258 16.6311 12.3258V13.3258ZM18.4997 14.7981C18.5111 15.5976 18.1786 16.0317 17.7918 16.2996C17.3747 16.5885 16.8681 16.699 16.5459 16.7547L16.7164 17.7401C17.0624 17.6802 17.7541 17.5421 18.3612 17.1216C18.9986 16.6801 19.5161 15.9438 19.4996 14.7838L18.4997 14.7981ZM16.1311 17.2474L16.1312 19.7039L17.1312 19.7038L17.1311 17.2474L16.1311 17.2474ZM16.3242 19.3092C15.9273 19.6179 15.2782 19.9031 14.4455 20.1178C13.6219 20.3302 12.6559 20.464 11.656 20.4937C9.63444 20.5538 7.57739 20.1866 6.28436 19.2926L5.71564 20.1151C7.2648 21.1862 9.57593 21.556 11.6857 21.4933C12.7514 21.4616 13.7919 21.319 14.6952 21.0862C15.5893 20.8556 16.3876 20.5268 16.9381 20.0985L16.3242 19.3092ZM6.5 19.7038V12H5.5V19.7038H6.5Z" fill="black"/>
</svg>
