<svg width="24" height="24" viewBox="0 0 24 24" fill="none" xmlns="http://www.w3.org/2000/svg">
<path d="M8.37889 15.4851C8.64679 15.552 8.91826 15.3892 8.98523 15.1213C9.0522 14.8534 8.88932 14.5819 8.62142 14.5149L8.37889 15.4851ZM4.15631 10.074L3.6929 9.88628L4.15631 10.074ZM9.00012 10.5L8.72277 10.916C8.8762 11.0183 9.07347 11.0278 9.23605 10.9408C9.39863 10.8538 9.50012 10.6844 9.50012 10.5H9.00012ZM13.9232 3L13.9232 2.5L13.9232 3ZM18.8066 16.6039L18.3116 16.5334C18.2845 16.7237 18.3689 16.9127 18.5288 17.0195L18.8066 16.6039ZM19.8919 19.3247L19.4174 19.1669L19.8919 19.3247ZM15.0084 20.9571L14.9983 20.4572L15.0084 20.9571ZM7.29669 19.1082L7.78217 18.9885L7.29669 19.1082ZM16.8125 17.1039C17.0887 17.1039 17.3125 16.88 17.3125 16.6039C17.3125 16.3277 17.0887 16.1039 16.8125 16.1039V17.1039ZM8.62142 14.5149C7.70751 14.2865 6.47775 13.6412 5.59241 12.8012C4.68637 11.9416 4.30116 11.0481 4.61972 10.2618L3.6929 9.88628C3.13157 11.2718 3.91826 12.5913 4.90411 13.5266C5.91066 14.4817 7.29277 15.2135 8.37889 15.4851L8.62142 14.5149ZM4.61972 10.2618C4.76833 9.895 4.97463 9.72938 5.1981 9.65206C5.44542 9.56649 5.77835 9.5679 6.19321 9.66863C7.0273 9.87115 7.97954 10.4205 8.72277 10.916L9.27747 10.084C8.5207 9.57946 7.445 8.94351 6.42915 8.69687C5.91905 8.57301 5.37152 8.53389 4.87113 8.70702C4.3469 8.8884 3.93825 9.28071 3.6929 9.88628L4.61972 10.2618ZM9.50012 10.5C9.50012 9.64729 9.72199 7.84406 10.4188 6.27248C11.1178 4.69576 12.2178 3.50002 13.9232 3.5L13.9232 2.5C11.6287 2.50003 10.2671 4.14736 9.50459 5.86717C8.73982 7.5921 8.50012 9.53885 8.50012 10.5H9.50012ZM13.9232 3.5C15.7562 3.49998 16.9756 4.67368 17.7638 6.2199C18.5549 7.77173 18.8493 9.59632 18.8493 10.6182H19.8493C19.8493 9.46336 19.528 7.47886 18.6548 5.76575C17.7786 4.04704 16.2851 2.49997 13.9232 2.5L13.9232 3.5ZM18.8493 10.6182C18.8493 12.6234 18.4931 15.2598 18.3116 16.5334L19.3017 16.6744C19.482 15.4086 19.8493 12.7047 19.8493 10.6182H18.8493ZM18.5288 17.0195C18.7434 17.1631 19.0632 17.4597 19.2768 17.8504C19.4844 18.2303 19.5809 18.6751 19.4174 19.1669L20.3663 19.4824C20.6369 18.6682 20.4621 17.934 20.1543 17.3708C19.8523 16.8183 19.4125 16.4075 19.0845 16.1882L18.5288 17.0195ZM19.4174 19.1669C19.2255 19.7442 18.7523 20.0683 17.9505 20.2489C17.1309 20.4335 16.1101 20.4349 14.9983 20.4572L15.0184 21.457C16.0767 21.4358 17.2263 21.4371 18.1703 21.2245C19.1321 21.0079 20.0156 20.5376 20.3663 19.4824L19.4174 19.1669ZM14.9983 20.4572C13.4696 20.4879 11.7286 20.5675 10.2922 20.3764C9.57605 20.2812 8.98027 20.1233 8.54481 19.8856C8.1215 19.6545 7.8747 19.364 7.78217 18.9885L6.81122 19.2278C6.98705 19.9414 7.46254 20.4341 8.06568 20.7633C8.65667 21.0859 9.3915 21.2655 10.1603 21.3677C11.6939 21.5717 13.5404 21.4867 15.0184 21.457L14.9983 20.4572ZM7.78217 18.9885C7.68151 18.58 7.6991 18.2797 7.76747 18.0598C7.83501 17.8427 7.96218 17.671 8.13765 17.5325C8.5055 17.242 9.08278 17.1039 9.64913 17.1039V16.1039C8.96574 16.1039 8.13156 16.2632 7.518 16.7476C7.20277 16.9964 6.94676 17.3315 6.81259 17.7629C6.67926 18.1916 6.67663 18.6816 6.81122 19.2278L7.78217 18.9885ZM9.64913 17.1039H16.8125V16.1039H9.64913V17.1039Z" fill="black"/>
</svg>
