<svg width="24" height="24" viewBox="0 0 24 24" fill="none" xmlns="http://www.w3.org/2000/svg">
<path d="M10.6529 8.70364C10.3999 8.81438 10.2847 9.10923 10.3954 9.36219C10.5061 9.61515 10.801 9.73045 11.0539 9.61971L10.6529 8.70364ZM14.653 9.45954L14.851 9.00039L14.653 9.45954ZM19.8143 18.7953L19.3416 18.6324L19.8143 18.7953ZM9.10542 8.45418L9.46272 8.80396C9.57917 8.685 9.62879 8.51588 9.59505 8.35286C9.56131 8.18984 9.44866 8.0543 9.29455 7.99133L9.10542 8.45418ZM6.87079 5.30818L7.34352 5.47104L7.34352 5.47104L6.87079 5.30818ZM9.85777 3.86313L10.2695 4.14682L9.85777 3.86313ZM16.2381 4.6023L15.7474 4.69838L16.2381 4.6023ZM15.0524 7.78502C14.8242 7.94045 14.7652 8.25148 14.9206 8.47973C15.076 8.70797 15.3871 8.76699 15.6153 8.61156L15.0524 7.78502ZM11.0539 9.61971C11.4556 9.44386 11.8773 9.34227 12.3992 9.36597C12.9291 9.39003 13.5871 9.54453 14.4551 9.91869L14.851 9.00039C13.9106 8.59499 13.1311 8.39817 12.4445 8.36699C11.7498 8.33545 11.1758 8.47472 10.6529 8.70364L11.0539 9.61971ZM14.4551 9.91869C15.8003 10.4986 17.2697 12.0099 18.2849 13.7722C18.7876 14.6448 19.1644 15.5549 19.3569 16.4071C19.5504 17.2639 19.55 18.0275 19.3416 18.6324L20.2871 18.9582C20.5765 18.1181 20.5502 17.1518 20.3323 16.1868C20.1133 15.2172 19.6931 14.2135 19.1514 13.2731C18.0778 11.4093 16.4687 9.6978 14.851 9.00039L14.4551 9.91869ZM19.3416 18.6324C19.2904 18.781 19.1259 18.9859 18.7507 19.2134C18.3861 19.4345 17.8818 19.6407 17.2622 19.8206C16.0256 20.1795 14.4086 20.411 12.7293 20.479C11.051 20.5471 9.33741 20.4509 7.90899 20.169C6.44916 19.8809 5.4029 19.4205 4.92641 18.8527L4.16037 19.4955C4.87266 20.3443 6.2227 20.8555 7.71536 21.1501C9.23944 21.4509 11.0345 21.5486 12.7698 21.4782C14.5041 21.4079 16.2055 21.1686 17.541 20.7809C18.2075 20.5875 18.8025 20.3515 19.2693 20.0684C19.7255 19.7917 20.1243 19.4305 20.2871 18.9582L19.3416 18.6324ZM4.92641 18.8527C4.48016 18.3209 4.38955 17.5414 4.62828 16.5328C4.86532 15.5313 5.40573 14.407 6.06404 13.313C7.37884 11.128 9.08798 9.18675 9.46272 8.80396L8.74813 8.10441C8.33035 8.53117 6.56969 10.5332 5.20721 12.7974C4.52689 13.928 3.92679 15.1548 3.65517 16.3024C3.38525 17.4429 3.41784 18.6106 4.16037 19.4955L4.92641 18.8527ZM9.29455 7.99133C9.21264 7.95786 9.02355 7.83414 8.76503 7.60454C8.52011 7.38702 8.25064 7.10843 8.01011 6.81111C7.76747 6.51118 7.56806 6.20914 7.44891 5.945C7.32072 5.66083 7.32805 5.51593 7.34352 5.47104L6.39805 5.14532C6.25477 5.56123 6.3795 6.00625 6.53736 6.35619C6.70425 6.72616 6.95951 7.10242 7.23267 7.44006C7.50793 7.78031 7.81537 8.09857 8.10098 8.35222C8.37297 8.59379 8.668 8.81558 8.9163 8.91704L9.29455 7.99133ZM7.34352 5.47104C7.43696 5.19981 7.5597 5.09589 7.67625 5.03811C7.82223 4.96575 8.01638 4.93689 8.30835 4.92026C8.56557 4.90561 8.93451 4.90124 9.26665 4.81997C9.62889 4.73134 9.99567 4.54423 10.2695 4.14682L9.44604 3.57944C9.34369 3.72798 9.21494 3.80313 9.02899 3.84862C8.81294 3.90148 8.58104 3.90311 8.25148 3.92188C7.95667 3.93867 7.5781 3.97065 7.23213 4.14214C6.85674 4.32822 6.5683 4.65114 6.39805 5.14532L7.34352 5.47104ZM10.2695 4.14682C10.6465 3.5997 10.8865 3.51226 10.9911 3.50155C11.1068 3.48969 11.2671 3.54482 11.554 3.76883C11.6921 3.87665 11.8246 3.99424 11.9871 4.13205C12.1414 4.263 12.3155 4.40571 12.5037 4.52858C12.8842 4.77701 13.377 4.97919 13.9641 4.82926L13.7167 3.86036C13.5112 3.91282 13.3124 3.8623 13.0504 3.69127C12.9174 3.60441 12.7827 3.49569 12.6341 3.36956C12.4935 3.2503 12.3289 3.10515 12.1694 2.98062C11.8612 2.73994 11.4242 2.45192 10.8891 2.50676C10.3428 2.56274 9.87846 2.95185 9.44604 3.57944L10.2695 4.14682ZM13.9641 4.82926C14.4211 4.71256 14.7881 4.52807 15.0758 4.36399C15.2111 4.2868 15.3511 4.20075 15.4446 4.14576C15.5519 4.08265 15.6197 4.04712 15.6677 4.02829C15.7168 4.00899 15.6968 4.02721 15.6411 4.01793C15.6104 4.01281 15.581 4.00125 15.557 3.98593C15.5346 3.97164 15.5257 3.95978 15.5275 3.96214C15.5357 3.97245 15.5683 4.0218 15.6125 4.1531C15.6551 4.27973 15.7 4.45616 15.7474 4.69838L16.7288 4.50623C16.6772 4.24249 16.6224 4.01876 16.5602 3.83405C16.4996 3.65402 16.4222 3.48087 16.3109 3.34054C16.1903 3.18854 16.0226 3.06769 15.8054 3.03152C15.6065 2.99839 15.4291 3.04766 15.3024 3.09737C15.1746 3.14754 15.0479 3.21896 14.9376 3.2838C14.8136 3.35674 14.7131 3.41961 14.5803 3.49537C14.3317 3.63719 14.0522 3.77467 13.7167 3.86036L13.9641 4.82926ZM15.7474 4.69838C15.8849 5.4004 15.7766 6.14258 15.5781 6.75124C15.4796 7.0532 15.3627 7.31063 15.2532 7.50141C15.1984 7.59688 15.1485 7.67047 15.1074 7.72247C15.0624 7.77935 15.0425 7.79174 15.0524 7.78502L15.6153 8.61156C15.8133 8.47669 15.9857 8.23423 16.1206 7.99909C16.2673 7.7433 16.4111 7.42218 16.5288 7.06126C16.7627 6.34416 16.9084 5.42328 16.7288 4.50623L15.7474 4.69838Z" fill="black"/>
</svg>
