<svg width="24" height="24" viewBox="0 0 24 24" fill="none" xmlns="http://www.w3.org/2000/svg">
<path d="M18.6103 12.0608L18.1137 12.1192C18.1338 12.2897 18.2399 12.4379 18.3948 12.5119C18.5497 12.5859 18.7317 12.5753 18.8769 12.4837L18.6103 12.0608ZM6.19891 16.2812V16.7812C6.47505 16.7812 6.69891 16.5574 6.69891 16.2812H6.19891ZM19.9514 18.3182L20.4446 18.236L19.9514 18.3182ZM16.875 13.4219L17.3452 13.252L16.875 13.4219ZM14.8536 7.14645C14.6583 6.95118 14.3417 6.95118 14.1464 7.14645C13.9512 7.34171 13.9512 7.65829 14.1464 7.85355L14.8536 7.14645ZM9 15.7812C8.72386 15.7812 8.5 16.0051 8.5 16.2812C8.5 16.5574 8.72386 16.7812 9 16.7812V15.7812ZM19.1069 12.0023C18.9545 10.7074 18.5113 8.38112 17.534 6.3627C16.5654 4.36209 14.984 2.5 12.5 2.5V3.5C14.391 3.5 15.7157 4.9019 16.634 6.79848C17.5436 8.67726 17.9681 10.8813 18.1137 12.1192L19.1069 12.0023ZM12.5 2.5C10.9572 2.5 9.7633 3.33812 8.86317 4.52099C7.96871 5.69639 7.3269 7.25546 6.86572 8.82959C5.94271 11.98 5.69891 15.3488 5.69891 16.2812H6.69891C6.69891 15.4258 6.93378 12.154 7.82538 9.11075C8.2715 7.58805 8.87098 6.16204 9.65895 5.12656C10.4412 4.09855 11.3709 3.5 12.5 3.5V2.5ZM6.19891 15.7812C5.55638 15.7812 4.6695 15.892 3.92344 16.271C3.15276 16.6624 2.5 17.3658 2.5 18.5L3.5 18.5C3.5 17.8373 3.84724 17.4313 4.37629 17.1626C4.92995 16.8813 5.64252 16.7812 6.19891 16.7812V15.7812ZM2.5 18.5C2.5 19.55 2.92322 20.3338 3.64356 20.8344C4.3362 21.3157 5.25156 21.5 6.19891 21.5V20.5C5.35806 20.5 4.67397 20.3327 4.21421 20.0132C3.78214 19.713 3.5 19.2468 3.5 18.5L2.5 18.5ZM6.19891 21.5C6.2017 21.5 6.20451 21.5 6.20735 21.5C6.21018 21.5 6.21303 21.5 6.2159 21.5C6.21877 21.5 6.22166 21.5 6.22457 21.5C6.22748 21.5 6.23041 21.5 6.23336 21.5C6.23631 21.5 6.23928 21.5 6.24226 21.5C6.24525 21.5 6.24825 21.5 6.25128 21.5C6.2543 21.5 6.25735 21.5 6.26041 21.5C6.26347 21.5 6.26655 21.5 6.26965 21.5C6.27275 21.5 6.27587 21.5 6.27901 21.5C6.28215 21.5 6.28531 21.5 6.28848 21.5C6.29166 21.5 6.29485 21.5 6.29806 21.5C6.30128 21.5 6.30451 21.5 6.30776 21.5C6.31101 21.5 6.31428 21.5 6.31757 21.5C6.32085 21.5 6.32416 21.5 6.32749 21.5C6.33081 21.5 6.33415 21.5 6.33752 21.5C6.34088 21.5 6.34426 21.5 6.34766 21.5C6.35106 21.5 6.35447 21.5 6.35791 21.5C6.36134 21.5 6.3648 21.5 6.36827 21.5C6.37174 21.5 6.37523 21.5 6.37874 21.5C6.38225 21.5 6.38578 21.5 6.38932 21.5C6.39287 21.5 6.39643 21.5 6.40001 21.5C6.4036 21.5 6.4072 21.5 6.41081 21.5C6.41443 21.5 6.41807 21.5 6.42172 21.5C6.42537 21.5 6.42905 21.5 6.43274 21.5C6.43643 21.5 6.44013 21.5 6.44386 21.5C6.44759 21.5 6.45133 21.5 6.45509 21.5C6.45885 21.5 6.46263 21.5 6.46643 21.5C6.47022 21.5 6.47404 21.5 6.47787 21.5C6.4817 21.5 6.48555 21.5 6.48942 21.5C6.49329 21.5 6.49717 21.5 6.50108 21.5C6.50498 21.5 6.5089 21.5 6.51284 21.5C6.51678 21.5 6.52073 21.5 6.52471 21.5C6.52868 21.5 6.53267 21.5 6.53668 21.5C6.54069 21.5 6.54471 21.5 6.54875 21.5C6.5528 21.5 6.55686 21.5 6.56093 21.5C6.56501 21.5 6.56911 21.5 6.57322 21.5C6.57733 21.5 6.58146 21.5 6.5856 21.5C6.58975 21.5 6.59391 21.5 6.5981 21.5C6.60228 21.5 6.60647 21.5 6.61069 21.5C6.6149 21.5 6.61913 21.5 6.62338 21.5C6.62763 21.5 6.6319 21.5 6.63618 21.5C6.64046 21.5 6.64476 21.5 6.64908 21.5C6.6534 21.5 6.65773 21.5 6.66208 21.5C6.66643 21.5 6.6708 21.5 6.67518 21.5C6.67956 21.5 6.68396 21.5 6.68838 21.5C6.6928 21.5 6.69723 21.5 6.70168 21.5C6.70613 21.5 6.7106 21.5 6.71508 21.5C6.71957 21.5 6.72407 21.5 6.72858 21.5C6.7331 21.5 6.73763 21.5 6.74218 21.5C6.74673 21.5 6.7513 21.5 6.75588 21.5C6.76047 21.5 6.76506 21.5 6.76968 21.5C6.77429 21.5 6.77893 21.5 6.78357 21.5C6.78822 21.5 6.79289 21.5 6.79757 21.5C6.80225 21.5 6.80694 21.5 6.81166 21.5C6.81637 21.5 6.8211 21.5 6.82584 21.5C6.83059 21.5 6.83535 21.5 6.84013 21.5C6.8449 21.5 6.8497 21.5 6.85451 21.5C6.85931 21.5 6.86414 21.5 6.86898 21.5C6.87382 21.5 6.87868 21.5 6.88355 21.5C6.88842 21.5 6.89331 21.5 6.89822 21.5C6.90312 21.5 6.90804 21.5 6.91298 21.5C6.91791 21.5 6.92287 21.5 6.92783 21.5C6.9328 21.5 6.93778 21.5 6.94278 21.5C6.94778 21.5 6.9528 21.5 6.95782 21.5C6.96285 21.5 6.9679 21.5 6.97296 21.5C6.97802 21.5 6.9831 21.5 6.98819 21.5C6.99328 21.5 6.99839 21.5 7.00351 21.5C7.00863 21.5 7.01377 21.5 7.01893 21.5C7.02408 21.5 7.02925 21.5 7.03443 21.5C7.03962 21.5 7.04482 21.5 7.05003 21.5C7.05524 21.5 7.06047 21.5 7.06572 21.5C7.07096 21.5 7.07622 21.5 7.0815 21.5C7.08677 21.5 7.09206 21.5 7.09737 21.5C7.10267 21.5 7.10799 21.5 7.11333 21.5C7.11866 21.5 7.12401 21.5 7.12938 21.5C7.13474 21.5 7.14012 21.5 7.14552 21.5C7.15091 21.5 7.15632 21.5 7.16174 21.5C7.16717 21.5 7.17261 21.5 7.17806 21.5C7.18352 21.5 7.18898 21.5 7.19447 21.5C7.19995 21.5 7.20545 21.5 7.21096 21.5C7.21647 21.5 7.222 21.5 7.22754 21.5C7.23308 21.5 7.23864 21.5 7.24421 21.5C7.24978 21.5 7.25537 21.5 7.26096 21.5C7.26656 21.5 7.27218 21.5 7.27781 21.5C7.28343 21.5 7.28908 21.5 7.29473 21.5C7.30039 21.5 7.30606 21.5 7.31175 21.5C7.31743 21.5 7.32313 21.5 7.32885 21.5C7.33456 21.5 7.34029 21.5 7.34603 21.5C7.35177 21.5 7.35753 21.5 7.3633 21.5C7.36907 21.5 7.37485 21.5 7.38065 21.5C7.38645 21.5 7.39226 21.5 7.39809 21.5C7.40392 21.5 7.40976 21.5 7.41561 21.5C7.42146 21.5 7.42733 21.5 7.43321 21.5C7.4391 21.5 7.44499 21.5 7.4509 21.5C7.45681 21.5 7.46273 21.5 7.46867 21.5C7.47461 21.5 7.48056 21.5 7.48652 21.5C7.49249 21.5 7.49847 21.5 7.50446 21.5C7.51045 21.5 7.51645 21.5 7.52247 21.5C7.52849 21.5 7.53452 21.5 7.54057 21.5C7.54661 21.5 7.55267 21.5 7.55875 21.5C7.56482 21.5 7.57091 21.5 7.577 21.5C7.5831 21.5 7.58922 21.5 7.59534 21.5C7.60147 21.5 7.60761 21.5 7.61376 21.5C7.61991 21.5 7.62608 21.5 7.63226 21.5C7.63844 21.5 7.64463 21.5 7.65083 21.5C7.65704 21.5 7.66326 21.5 7.66949 21.5C7.67572 21.5 7.68196 21.5 7.68822 21.5C7.69448 21.5 7.70075 21.5 7.70703 21.5C7.71331 21.5 7.71961 21.5 7.72592 21.5C7.73223 21.5 7.73855 21.5 7.74489 21.5C7.75122 21.5 7.75757 21.5 7.76393 21.5C7.77029 21.5 7.77666 21.5 7.78305 21.5C7.78943 21.5 7.79583 21.5 7.80224 21.5C7.80865 21.5 7.81508 21.5 7.82151 21.5C7.82795 21.5 7.8344 21.5 7.84086 21.5C7.84732 21.5 7.85379 21.5 7.86028 21.5C7.86677 21.5 7.87327 21.5 7.87978 21.5C7.88629 21.5 7.89281 21.5 7.89935 21.5C7.90588 21.5 7.91243 21.5 7.91899 21.5C7.92555 21.5 7.93212 21.5 7.93871 21.5C7.94529 21.5 7.95189 21.5 7.9585 21.5C7.96511 21.5 7.97173 21.5 7.97837 21.5C7.985 21.5 7.99164 21.5 7.9983 21.5C8.00496 21.5 8.01163 21.5 8.01831 21.5C8.02499 21.5 8.03169 21.5 8.03839 21.5C8.0451 21.5 8.05182 21.5 8.05854 21.5C8.06527 21.5 8.07202 21.5 8.07877 21.5C8.08552 21.5 8.09229 21.5 8.09906 21.5C8.10584 21.5 8.11263 21.5 8.11943 21.5C8.12623 21.5 8.13304 21.5 8.13986 21.5C8.14669 21.5 8.15352 21.5 8.16037 21.5C8.16721 21.5 8.17407 21.5 8.18094 21.5C8.18781 21.5 8.19469 21.5 8.20158 21.5C8.20848 21.5 8.21538 21.5 8.22229 21.5C8.22921 21.5 8.23614 21.5 8.24307 21.5C8.25001 21.5 8.25696 21.5 8.26392 21.5C8.27088 21.5 8.27785 21.5 8.28484 21.5C8.29182 21.5 8.29881 21.5 8.30582 21.5C8.31282 21.5 8.31984 21.5 8.32687 21.5C8.3339 21.5 8.34093 21.5 8.34798 21.5C8.35503 21.5 8.36209 21.5 8.36917 21.5C8.37624 21.5 8.38332 21.5 8.39041 21.5C8.39751 21.5 8.40461 21.5 8.41173 21.5C8.41884 21.5 8.42597 21.5 8.4331 21.5C8.44024 21.5 8.44739 21.5 8.45455 21.5C8.46171 21.5 8.46887 21.5 8.47605 21.5C8.48323 21.5 8.49042 21.5 8.49762 21.5C8.50483 21.5 8.51204 21.5 8.51926 21.5C8.52648 21.5 8.53371 21.5 8.54096 21.5C8.5482 21.5 8.55545 21.5 8.56272 21.5C8.56998 21.5 8.57726 21.5 8.58454 21.5C8.59183 21.5 8.59912 21.5 8.60643 21.5C8.61373 21.5 8.62105 21.5 8.62837 21.5C8.6357 21.5 8.64304 21.5 8.65038 21.5C8.65773 21.5 8.66508 21.5 8.67245 21.5C8.67982 21.5 8.6872 21.5 8.69458 21.5C8.70197 21.5 8.70937 21.5 8.71677 21.5C8.72418 21.5 8.7316 21.5 8.73902 21.5C8.74645 21.5 8.75389 21.5 8.76133 21.5C8.76878 21.5 8.77624 21.5 8.7837 21.5C8.79117 21.5 8.79865 21.5 8.80613 21.5C8.81362 21.5 8.82111 21.5 8.82862 21.5C8.83613 21.5 8.84364 21.5 8.85117 21.5C8.85869 21.5 8.86623 21.5 8.87377 21.5C8.88131 21.5 8.88887 21.5 8.89643 21.5C8.90399 21.5 8.91157 21.5 8.91915 21.5C8.92673 21.5 8.93432 21.5 8.94192 21.5C8.94952 21.5 8.95713 21.5 8.96475 21.5C8.97237 21.5 8.98 21.5 8.98764 21.5C8.99528 21.5 9.00293 21.5 9.01059 21.5C9.01824 21.5 9.02591 21.5 9.03358 21.5C9.04126 21.5 9.04894 21.5 9.05664 21.5C9.06433 21.5 9.07203 21.5 9.07975 21.5C9.08746 21.5 9.09518 21.5 9.10291 21.5C9.11064 21.5 9.11838 21.5 9.12612 21.5C9.13387 21.5 9.14163 21.5 9.14939 21.5C9.15716 21.5 9.16493 21.5 9.17272 21.5C9.1805 21.5 9.18829 21.5 9.19609 21.5C9.20389 21.5 9.2117 21.5 9.21952 21.5C9.22734 21.5 9.23517 21.5 9.243 21.5C9.25084 21.5 9.25868 21.5 9.26654 21.5C9.27439 21.5 9.28225 21.5 9.29012 21.5C9.29799 21.5 9.30587 21.5 9.31375 21.5C9.32164 21.5 9.32954 21.5 9.33744 21.5C9.34534 21.5 9.35326 21.5 9.36118 21.5C9.3691 21.5 9.37703 21.5 9.38496 21.5C9.3929 21.5 9.40084 21.5 9.4088 21.5C9.41675 21.5 9.42471 21.5 9.43268 21.5C9.44065 21.5 9.44863 21.5 9.45662 21.5C9.4646 21.5 9.4726 21.5 9.4806 21.5C9.4886 21.5 9.49661 21.5 9.50463 21.5C9.51265 21.5 9.52067 21.5 9.52871 21.5C9.53674 21.5 9.54478 21.5 9.55283 21.5C9.56088 21.5 9.56894 21.5 9.57701 21.5C9.58507 21.5 9.59315 21.5 9.60123 21.5C9.60931 21.5 9.6174 21.5 9.62549 21.5C9.63359 21.5 9.64169 21.5 9.64981 21.5C9.65792 21.5 9.66604 21.5 9.67416 21.5C9.68229 21.5 9.69042 21.5 9.69857 21.5C9.70671 21.5 9.71486 21.5 9.72302 21.5C9.73117 21.5 9.73934 21.5 9.74751 21.5C9.75568 21.5 9.76386 21.5 9.77205 21.5C9.78023 21.5 9.78843 21.5 9.79663 21.5C9.80483 21.5 9.81304 21.5 9.82125 21.5C9.82947 21.5 9.83769 21.5 9.84592 21.5C9.85415 21.5 9.86239 21.5 9.87063 21.5C9.87887 21.5 9.88712 21.5 9.89538 21.5C9.90364 21.5 9.91191 21.5 9.92018 21.5C9.92845 21.5 9.93673 21.5 9.94501 21.5C9.9533 21.5 9.96159 21.5 9.96989 21.5C9.97819 21.5 9.9865 21.5 9.99481 21.5C10.0031 21.5 10.0114 21.5 10.0198 21.5C10.0281 21.5 10.0364 21.5 10.0448 21.5C10.0531 21.5 10.0615 21.5 10.0698 21.5C10.0782 21.5 10.0865 21.5 10.0949 21.5C10.1033 21.5 10.1116 21.5 10.12 21.5C10.1284 21.5 10.1368 21.5 10.1452 21.5C10.1536 21.5 10.162 21.5 10.1704 21.5C10.1788 21.5 10.1872 21.5 10.1956 21.5C10.204 21.5 10.2124 21.5 10.2209 21.5C10.2293 21.5 10.2377 21.5 10.2462 21.5C10.2546 21.5 10.2631 21.5 10.2715 21.5C10.28 21.5 10.2884 21.5 10.2969 21.5C10.3054 21.5 10.3139 21.5 10.3223 21.5C10.3308 21.5 10.3393 21.5 10.3478 21.5C10.3563 21.5 10.3648 21.5 10.3733 21.5C10.3818 21.5 10.3903 21.5 10.3988 21.5C10.4073 21.5 10.4158 21.5 10.4244 21.5C10.4329 21.5 10.4414 21.5 10.45 21.5C10.4585 21.5 10.4671 21.5 10.4756 21.5C10.4842 21.5 10.4927 21.5 10.5013 21.5C10.5098 21.5 10.5184 21.5 10.527 21.5C10.5355 21.5 10.5441 21.5 10.5527 21.5C10.5613 21.5 10.5699 21.5 10.5785 21.5C10.5871 21.5 10.5957 21.5 10.6043 21.5C10.6129 21.5 10.6215 21.5 10.6301 21.5C10.6387 21.5 10.6473 21.5 10.6559 21.5C10.6646 21.5 10.6732 21.5 10.6818 21.5C10.6905 21.5 10.6991 21.5 10.7078 21.5C10.7164 21.5 10.7251 21.5 10.7337 21.5C10.7424 21.5 10.751 21.5 10.7597 21.5C10.7684 21.5 10.777 21.5 10.7857 21.5C10.7944 21.5 10.8031 21.5 10.8118 21.5C10.8204 21.5 10.8291 21.5 10.8378 21.5C10.8465 21.5 10.8552 21.5 10.8639 21.5C10.8726 21.5 10.8813 21.5 10.8901 21.5C10.8988 21.5 10.9075 21.5 10.9162 21.5C10.9249 21.5 10.9337 21.5 10.9424 21.5C10.9511 21.5 10.9599 21.5 10.9686 21.5C10.9774 21.5 10.9861 21.5 10.9949 21.5C11.0036 21.5 11.0124 21.5 11.0211 21.5C11.0299 21.5 11.0387 21.5 11.0474 21.5C11.0562 21.5 11.065 21.5 11.0737 21.5C11.0825 21.5 11.0913 21.5 11.1001 21.5C11.1089 21.5 11.1177 21.5 11.1265 21.5C11.1352 21.5 11.144 21.5 11.1528 21.5C11.1617 21.5 11.1705 21.5 11.1793 21.5C11.1881 21.5 11.1969 21.5 11.2057 21.5C11.2145 21.5 11.2234 21.5 11.2322 21.5C11.241 21.5 11.2498 21.5 11.2587 21.5C11.2675 21.5 11.2763 21.5 11.2852 21.5C11.294 21.5 11.3029 21.5 11.3117 21.5C11.3206 21.5 11.3294 21.5 11.3383 21.5C11.3471 21.5 11.356 21.5 11.3649 21.5C11.3737 21.5 11.3826 21.5 11.3915 21.5C11.4003 21.5 11.4092 21.5 11.4181 21.5C11.427 21.5 11.4359 21.5 11.4447 21.5C11.4536 21.5 11.4625 21.5 11.4714 21.5C11.4803 21.5 11.4892 21.5 11.4981 21.5C11.507 21.5 11.5159 21.5 11.5248 21.5C11.5337 21.5 11.5426 21.5 11.5515 21.5C11.5604 21.5 11.5694 21.5 11.5783 21.5C11.5872 21.5 11.5961 21.5 11.605 21.5C11.614 21.5 11.6229 21.5 11.6318 21.5C11.6407 21.5 11.6497 21.5 11.6586 21.5C11.6676 21.5 11.6765 21.5 11.6854 21.5C11.6944 21.5 11.7033 21.5 11.7123 21.5C11.7212 21.5 11.7302 21.5 11.7391 21.5C11.7481 21.5 11.757 21.5 11.766 21.5C11.775 21.5 11.7839 21.5 11.7929 21.5C11.8018 21.5 11.8108 21.5 11.8198 21.5C11.8287 21.5 11.8377 21.5 11.8467 21.5C11.8557 21.5 11.8646 21.5 11.8736 21.5C11.8826 21.5 11.8916 21.5 11.9006 21.5C11.9096 21.5 11.9185 21.5 11.9275 21.5C11.9365 21.5 11.9455 21.5 11.9545 21.5C11.9635 21.5 11.9725 21.5 11.9815 21.5C11.9905 21.5 11.9995 21.5 12.0085 21.5C12.0175 21.5 12.0265 21.5 12.0355 21.5C12.0445 21.5 12.0535 21.5 12.0626 21.5C12.0716 21.5 12.0806 21.5 12.0896 21.5C12.0986 21.5 12.1076 21.5 12.1166 21.5C12.1257 21.5 12.1347 21.5 12.1437 21.5C12.1527 21.5 12.1618 21.5 12.1708 21.5C12.1798 21.5 12.1888 21.5 12.1979 21.5C12.2069 21.5 12.2159 21.5 12.225 21.5C12.234 21.5 12.243 21.5 12.2521 21.5C12.2611 21.5 12.2702 21.5 12.2792 21.5C12.2882 21.5 12.2973 21.5 12.3063 21.5C12.3154 21.5 12.3244 21.5 12.3335 21.5C12.3425 21.5 12.3516 21.5 12.3606 21.5C12.3697 21.5 12.3787 21.5 12.3878 21.5C12.3968 21.5 12.4059 21.5 12.4149 21.5C12.424 21.5 12.433 21.5 12.4421 21.5C12.4512 21.5 12.4602 21.5 12.4693 21.5C12.4783 21.5 12.4874 21.5 12.4965 21.5C12.5055 21.5 12.5146 21.5 12.5237 21.5C12.5327 21.5 12.5418 21.5 12.5508 21.5C12.5599 21.5 12.569 21.5 12.5781 21.5C12.5871 21.5 12.5962 21.5 12.6053 21.5C12.6143 21.5 12.6234 21.5 12.6325 21.5C12.6415 21.5 12.6506 21.5 12.6597 21.5C12.6688 21.5 12.6778 21.5 12.6869 21.5C12.696 21.5 12.7051 21.5 12.7141 21.5C12.7232 21.5 12.7323 21.5 12.7414 21.5C12.7505 21.5 12.7595 21.5 12.7686 21.5C12.7777 21.5 12.7868 21.5 12.7958 21.5C12.8049 21.5 12.814 21.5 12.8231 21.5C12.8322 21.5 12.8412 21.5 12.8503 21.5C12.8594 21.5 12.8685 21.5 12.8776 21.5C12.8867 21.5 12.8957 21.5 12.9048 21.5C12.9139 21.5 12.923 21.5 12.9321 21.5C12.9412 21.5 12.9502 21.5 12.9593 21.5C12.9684 21.5 12.9775 21.5 12.9866 21.5C12.9956 21.5 13.0047 21.5 13.0138 21.5C13.0229 21.5 13.032 21.5 13.0411 21.5C13.0501 21.5 13.0592 21.5 13.0683 21.5C13.0774 21.5 13.0865 21.5 13.0956 21.5C13.1046 21.5 13.1137 21.5 13.1228 21.5C13.1319 21.5 13.141 21.5 13.1501 21.5C13.1591 21.5 13.1682 21.5 13.1773 21.5C13.1864 21.5 13.1955 21.5 13.2045 21.5C13.2136 21.5 13.2227 21.5 13.2318 21.5C13.2409 21.5 13.2499 21.5 13.259 21.5C13.2681 21.5 13.2772 21.5 13.2862 21.5C13.2953 21.5 13.3044 21.5 13.3135 21.5C13.3225 21.5 13.3316 21.5 13.3407 21.5C13.3498 21.5 13.3588 21.5 13.3679 21.5C13.377 21.5 13.3861 21.5 13.3951 21.5C13.4042 21.5 13.4133 21.5 13.4223 21.5C13.4314 21.5 13.4405 21.5 13.4495 21.5C13.4586 21.5 13.4677 21.5 13.4767 21.5C13.4858 21.5 13.4949 21.5 13.5039 21.5C13.513 21.5 13.5221 21.5 13.5311 21.5C13.5402 21.5 13.5492 21.5 13.5583 21.5C13.5673 21.5 13.5764 21.5 13.5855 21.5C13.5945 21.5 13.6036 21.5 13.6126 21.5C13.6217 21.5 13.6307 21.5 13.6398 21.5C13.6488 21.5 13.6579 21.5 13.6669 21.5C13.676 21.5 13.685 21.5 13.6941 21.5C13.7031 21.5 13.7121 21.5 13.7212 21.5C13.7302 21.5 13.7393 21.5 13.7483 21.5C13.7573 21.5 13.7664 21.5 13.7754 21.5C13.7845 21.5 13.7935 21.5 13.8025 21.5C13.8115 21.5 13.8206 21.5 13.8296 21.5C13.8386 21.5 13.8477 21.5 13.8567 21.5C13.8657 21.5 13.8747 21.5 13.8838 21.5C13.8928 21.5 13.9018 21.5 13.9108 21.5C13.9198 21.5 13.9288 21.5 13.9378 21.5C13.9469 21.5 13.9559 21.5 13.9649 21.5C13.9739 21.5 13.9829 21.5 13.9919 21.5C14.0009 21.5 14.0099 21.5 14.0189 21.5C14.0279 21.5 14.0369 21.5 14.0459 21.5C14.0549 21.5 14.0639 21.5 14.0729 21.5C14.0819 21.5 14.0908 21.5 14.0998 21.5C14.1088 21.5 14.1178 21.5 14.1268 21.5C14.1358 21.5 14.1447 21.5 14.1537 21.5C14.1627 21.5 14.1717 21.5 14.1806 21.5C14.1896 21.5 14.1986 21.5 14.2075 21.5C14.2165 21.5 14.2255 21.5 14.2344 21.5C14.2434 21.5 14.2523 21.5 14.2613 21.5C14.2702 21.5 14.2792 21.5 14.2881 21.5C14.2971 21.5 14.306 21.5 14.315 21.5C14.3239 21.5 14.3329 21.5 14.3418 21.5C14.3507 21.5 14.3597 21.5 14.3686 21.5C14.3775 21.5 14.3865 21.5 14.3954 21.5C14.4043 21.5 14.4132 21.5 14.4222 21.5C14.4311 21.5 14.44 21.5 14.4489 21.5C14.4578 21.5 14.4667 21.5 14.4756 21.5C14.4845 21.5 14.4934 21.5 14.5023 21.5C14.5112 21.5 14.5201 21.5 14.529 21.5C14.5379 21.5 14.5468 21.5 14.5557 21.5C14.5646 21.5 14.5735 21.5 14.5823 21.5C14.5912 21.5 14.6001 21.5 14.609 21.5C14.6178 21.5 14.6267 21.5 14.6356 21.5C14.6444 21.5 14.6533 21.5 14.6622 21.5C14.671 21.5 14.6799 21.5 14.6887 21.5C14.6976 21.5 14.7064 21.5 14.7153 21.5C14.7241 21.5 14.7329 21.5 14.7418 21.5C14.7506 21.5 14.7594 21.5 14.7683 21.5C14.7771 21.5 14.7859 21.5 14.7947 21.5C14.8036 21.5 14.8124 21.5 14.8212 21.5C14.83 21.5 14.8388 21.5 14.8476 21.5C14.8564 21.5 14.8652 21.5 14.874 21.5C14.8828 21.5 14.8916 21.5 14.9004 21.5C14.9092 21.5 14.918 21.5 14.9267 21.5C14.9355 21.5 14.9443 21.5 14.9531 21.5C14.9618 21.5 14.9706 21.5 14.9793 21.5C14.9881 21.5 14.9969 21.5 15.0056 21.5C15.0144 21.5 15.0231 21.5 15.0319 21.5C15.0406 21.5 15.0493 21.5 15.0581 21.5C15.0668 21.5 15.0755 21.5 15.0843 21.5C15.093 21.5 15.1017 21.5 15.1104 21.5C15.1191 21.5 15.1279 21.5 15.1366 21.5C15.1453 21.5 15.154 21.5 15.1627 21.5C15.1714 21.5 15.1801 21.5 15.1887 21.5C15.1974 21.5 15.2061 21.5 15.2148 21.5C15.2235 21.5 15.2321 21.5 15.2408 21.5C15.2495 21.5 15.2581 21.5 15.2668 21.5C15.2754 21.5 15.2841 21.5 15.2927 21.5C15.3014 21.5 15.31 21.5 15.3187 21.5C15.3273 21.5 15.3359 21.5 15.3446 21.5C15.3532 21.5 15.3618 21.5 15.3704 21.5C15.379 21.5 15.3877 21.5 15.3963 21.5C15.4049 21.5 15.4135 21.5 15.4221 21.5C15.4307 21.5 15.4392 21.5 15.4478 21.5C15.4564 21.5 15.465 21.5 15.4736 21.5C15.4821 21.5 15.4907 21.5 15.4993 21.5C15.5078 21.5 15.5164 21.5 15.5249 21.5C15.5335 21.5 15.542 21.5 15.5506 21.5C15.5591 21.5 15.5676 21.5 15.5762 21.5C15.5847 21.5 15.5932 21.5 15.6017 21.5C15.6102 21.5 15.6188 21.5 15.6273 21.5C15.6358 21.5 15.6443 21.5 15.6528 21.5C15.6613 21.5 15.6697 21.5 15.6782 21.5C15.6867 21.5 15.6952 21.5 15.7036 21.5C15.7121 21.5 15.7206 21.5 15.729 21.5C15.7375 21.5 15.7459 21.5 15.7544 21.5C15.7628 21.5 15.7713 21.5 15.7797 21.5C15.7881 21.5 15.7965 21.5 15.805 21.5C15.8134 21.5 15.8218 21.5 15.8302 21.5C15.8386 21.5 15.847 21.5 15.8554 21.5C15.8638 21.5 15.8722 21.5 15.8806 21.5C15.889 21.5 15.8973 21.5 15.9057 21.5C15.9141 21.5 15.9224 21.5 15.9308 21.5C15.9391 21.5 15.9475 21.5 15.9558 21.5C15.9642 21.5 15.9725 21.5 15.9808 21.5C15.9892 21.5 15.9975 21.5 16.0058 21.5C16.0141 21.5 16.0224 21.5 16.0307 21.5C16.039 21.5 16.0473 21.5 16.0556 21.5C16.0639 21.5 16.0722 21.5 16.0804 21.5C16.0887 21.5 16.097 21.5 16.1052 21.5C16.1135 21.5 16.1217 21.5 16.13 21.5C16.1382 21.5 16.1465 21.5 16.1547 21.5C16.1629 21.5 16.1712 21.5 16.1794 21.5C16.1876 21.5 16.1958 21.5 16.204 21.5C16.2122 21.5 16.2204 21.5 16.2286 21.5C16.2368 21.5 16.245 21.5 16.2531 21.5C16.2613 21.5 16.2695 21.5 16.2776 21.5C16.2858 21.5 16.2939 21.5 16.3021 21.5C16.3102 21.5 16.3184 21.5 16.3265 21.5C16.3346 21.5 16.3427 21.5 16.3509 21.5C16.359 21.5 16.3671 21.5 16.3752 21.5C16.3833 21.5 16.3914 21.5 16.3994 21.5C16.4075 21.5 16.4156 21.5 16.4237 21.5C16.4317 21.5 16.4398 21.5 16.4478 21.5C16.4559 21.5 16.4639 21.5 16.472 21.5C16.48 21.5 16.488 21.5 16.4961 21.5C16.5041 21.5 16.5121 21.5 16.5201 21.5C16.5281 21.5 16.5361 21.5 16.5441 21.5C16.5521 21.5 16.56 21.5 16.568 21.5C16.576 21.5 16.584 21.5 16.5919 21.5C16.5999 21.5 16.6078 21.5 16.6157 21.5C16.6237 21.5 16.6316 21.5 16.6395 21.5C16.6475 21.5 16.6554 21.5 16.6633 21.5C16.6712 21.5 16.6791 21.5 16.687 21.5C16.6949 21.5 16.7027 21.5 16.7106 21.5C16.7185 21.5 16.7263 21.5 16.7342 21.5C16.7421 21.5 16.7499 21.5 16.7577 21.5C16.7656 21.5 16.7734 21.5 16.7812 21.5C16.789 21.5 16.7969 21.5 16.8047 21.5C16.8125 21.5 16.8202 21.5 16.828 21.5C16.8358 21.5 16.8436 21.5 16.8514 21.5C16.8591 21.5 16.8669 21.5 16.8746 21.5C16.8824 21.5 16.8901 21.5 16.8979 21.5C16.9056 21.5 16.9133 21.5 16.921 21.5C16.9287 21.5 16.9364 21.5 16.9441 21.5C16.9518 21.5 16.9595 21.5 16.9672 21.5C16.9749 21.5 16.9825 21.5 16.9902 21.5C16.9979 21.5 17.0055 21.5 17.0132 21.5C17.0208 21.5 17.0284 21.5 17.036 21.5C17.0437 21.5 17.0513 21.5 17.0589 21.5C17.0665 21.5 17.0741 21.5 17.0817 21.5C17.0892 21.5 17.0968 21.5 17.1044 21.5C17.112 21.5 17.1195 21.5 17.1271 21.5C17.1346 21.5 17.1421 21.5 17.1497 21.5C17.1572 21.5 17.1647 21.5 17.1722 21.5C17.1797 21.5 17.1872 21.5 17.1947 21.5C17.2022 21.5 17.2097 21.5 17.2171 21.5C17.2246 21.5 17.2321 21.5 17.2395 21.5C17.247 21.5 17.2544 21.5 17.2618 21.5C17.2693 21.5 17.2767 21.5 17.2841 21.5C17.2915 21.5 17.2989 21.5 17.3063 21.5C17.3137 21.5 17.3211 21.5 17.3284 21.5C17.3358 21.5 17.3431 21.5 17.3505 21.5C17.3578 21.5 17.3652 21.5 17.3725 21.5C17.3798 21.5 17.3872 21.5 17.3945 21.5C17.4018 21.5 17.4091 21.5 17.4164 21.5C17.4236 21.5 17.4309 21.5 17.4382 21.5C17.4454 21.5 17.4527 21.5 17.4599 21.5C17.4672 21.5 17.4744 21.5 17.4817 21.5C17.4889 21.5 17.4961 21.5 17.5033 21.5C17.5105 21.5 17.5177 21.5 17.5249 21.5C17.5321 21.5 17.5392 21.5 17.5464 21.5C17.5535 21.5 17.5607 21.5 17.5678 21.5C17.575 21.5 17.5821 21.5 17.5892 21.5C17.5963 21.5 17.6034 21.5 17.6105 21.5C17.6176 21.5 17.6247 21.5 17.6318 21.5C17.6389 21.5 17.6459 21.5 17.653 21.5C17.66 21.5 17.6671 21.5 17.6741 21.5C17.6811 21.5 17.6881 21.5 17.6952 21.5C17.7022 21.5 17.7092 21.5 17.7161 21.5V20.5C17.7092 20.5 17.7022 20.5 17.6952 20.5C17.6881 20.5 17.6811 20.5 17.6741 20.5C17.6671 20.5 17.66 20.5 17.653 20.5C17.6459 20.5 17.6389 20.5 17.6318 20.5C17.6247 20.5 17.6176 20.5 17.6105 20.5C17.6034 20.5 17.5963 20.5 17.5892 20.5C17.5821 20.5 17.575 20.5 17.5678 20.5C17.5607 20.5 17.5535 20.5 17.5464 20.5C17.5392 20.5 17.5321 20.5 17.5249 20.5C17.5177 20.5 17.5105 20.5 17.5033 20.5C17.4961 20.5 17.4889 20.5 17.4817 20.5C17.4744 20.5 17.4672 20.5 17.4599 20.5C17.4527 20.5 17.4454 20.5 17.4382 20.5C17.4309 20.5 17.4236 20.5 17.4164 20.5C17.4091 20.5 17.4018 20.5 17.3945 20.5C17.3872 20.5 17.3798 20.5 17.3725 20.5C17.3652 20.5 17.3578 20.5 17.3505 20.5C17.3431 20.5 17.3358 20.5 17.3284 20.5C17.3211 20.5 17.3137 20.5 17.3063 20.5C17.2989 20.5 17.2915 20.5 17.2841 20.5C17.2767 20.5 17.2693 20.5 17.2618 20.5C17.2544 20.5 17.247 20.5 17.2395 20.5C17.2321 20.5 17.2246 20.5 17.2171 20.5C17.2097 20.5 17.2022 20.5 17.1947 20.5C17.1872 20.5 17.1797 20.5 17.1722 20.5C17.1647 20.5 17.1572 20.5 17.1497 20.5C17.1421 20.5 17.1346 20.5 17.1271 20.5C17.1195 20.5 17.112 20.5 17.1044 20.5C17.0968 20.5 17.0892 20.5 17.0817 20.5C17.0741 20.5 17.0665 20.5 17.0589 20.5C17.0513 20.5 17.0437 20.5 17.036 20.5C17.0284 20.5 17.0208 20.5 17.0132 20.5C17.0055 20.5 16.9979 20.5 16.9902 20.5C16.9825 20.5 16.9749 20.5 16.9672 20.5C16.9595 20.5 16.9518 20.5 16.9441 20.5C16.9364 20.5 16.9287 20.5 16.921 20.5C16.9133 20.5 16.9056 20.5 16.8979 20.5C16.8901 20.5 16.8824 20.5 16.8746 20.5C16.8669 20.5 16.8591 20.5 16.8514 20.5C16.8436 20.5 16.8358 20.5 16.828 20.5C16.8202 20.5 16.8125 20.5 16.8047 20.5C16.7969 20.5 16.789 20.5 16.7812 20.5C16.7734 20.5 16.7656 20.5 16.7577 20.5C16.7499 20.5 16.7421 20.5 16.7342 20.5C16.7263 20.5 16.7185 20.5 16.7106 20.5C16.7027 20.5 16.6949 20.5 16.687 20.5C16.6791 20.5 16.6712 20.5 16.6633 20.5C16.6554 20.5 16.6475 20.5 16.6395 20.5C16.6316 20.5 16.6237 20.5 16.6157 20.5C16.6078 20.5 16.5999 20.5 16.5919 20.5C16.584 20.5 16.576 20.5 16.568 20.5C16.56 20.5 16.5521 20.5 16.5441 20.5C16.5361 20.5 16.5281 20.5 16.5201 20.5C16.5121 20.5 16.5041 20.5 16.4961 20.5C16.488 20.5 16.48 20.5 16.472 20.5C16.4639 20.5 16.4559 20.5 16.4478 20.5C16.4398 20.5 16.4317 20.5 16.4237 20.5C16.4156 20.5 16.4075 20.5 16.3994 20.5C16.3914 20.5 16.3833 20.5 16.3752 20.5C16.3671 20.5 16.359 20.5 16.3509 20.5C16.3427 20.5 16.3346 20.5 16.3265 20.5C16.3184 20.5 16.3102 20.5 16.3021 20.5C16.2939 20.5 16.2858 20.5 16.2776 20.5C16.2695 20.5 16.2613 20.5 16.2531 20.5C16.245 20.5 16.2368 20.5 16.2286 20.5C16.2204 20.5 16.2122 20.5 16.204 20.5C16.1958 20.5 16.1876 20.5 16.1794 20.5C16.1712 20.5 16.1629 20.5 16.1547 20.5C16.1465 20.5 16.1382 20.5 16.13 20.5C16.1217 20.5 16.1135 20.5 16.1052 20.5C16.097 20.5 16.0887 20.5 16.0804 20.5C16.0722 20.5 16.0639 20.5 16.0556 20.5C16.0473 20.5 16.039 20.5 16.0307 20.5C16.0224 20.5 16.0141 20.5 16.0058 20.5C15.9975 20.5 15.9892 20.5 15.9808 20.5C15.9725 20.5 15.9642 20.5 15.9558 20.5C15.9475 20.5 15.9391 20.5 15.9308 20.5C15.9224 20.5 15.9141 20.5 15.9057 20.5C15.8973 20.5 15.889 20.5 15.8806 20.5C15.8722 20.5 15.8638 20.5 15.8554 20.5C15.847 20.5 15.8386 20.5 15.8302 20.5C15.8218 20.5 15.8134 20.5 15.805 20.5C15.7965 20.5 15.7881 20.5 15.7797 20.5C15.7713 20.5 15.7628 20.5 15.7544 20.5C15.7459 20.5 15.7375 20.5 15.729 20.5C15.7206 20.5 15.7121 20.5 15.7036 20.5C15.6952 20.5 15.6867 20.5 15.6782 20.5C15.6697 20.5 15.6613 20.5 15.6528 20.5C15.6443 20.5 15.6358 20.5 15.6273 20.5C15.6188 20.5 15.6102 20.5 15.6017 20.5C15.5932 20.5 15.5847 20.5 15.5762 20.5C15.5676 20.5 15.5591 20.5 15.5506 20.5C15.542 20.5 15.5335 20.5 15.5249 20.5C15.5164 20.5 15.5078 20.5 15.4993 20.5C15.4907 20.5 15.4821 20.5 15.4736 20.5C15.465 20.5 15.4564 20.5 15.4478 20.5C15.4392 20.5 15.4307 20.5 15.4221 20.5C15.4135 20.5 15.4049 20.5 15.3963 20.5C15.3877 20.5 15.379 20.5 15.3704 20.5C15.3618 20.5 15.3532 20.5 15.3446 20.5C15.3359 20.5 15.3273 20.5 15.3187 20.5C15.31 20.5 15.3014 20.5 15.2927 20.5C15.2841 20.5 15.2754 20.5 15.2668 20.5C15.2581 20.5 15.2495 20.5 15.2408 20.5C15.2321 20.5 15.2235 20.5 15.2148 20.5C15.2061 20.5 15.1974 20.5 15.1887 20.5C15.1801 20.5 15.1714 20.5 15.1627 20.5C15.154 20.5 15.1453 20.5 15.1366 20.5C15.1279 20.5 15.1191 20.5 15.1104 20.5C15.1017 20.5 15.093 20.5 15.0843 20.5C15.0755 20.5 15.0668 20.5 15.0581 20.5C15.0493 20.5 15.0406 20.5 15.0319 20.5C15.0231 20.5 15.0144 20.5 15.0056 20.5C14.9969 20.5 14.9881 20.5 14.9793 20.5C14.9706 20.5 14.9618 20.5 14.9531 20.5C14.9443 20.5 14.9355 20.5 14.9267 20.5C14.918 20.5 14.9092 20.5 14.9004 20.5C14.8916 20.5 14.8828 20.5 14.874 20.5C14.8652 20.5 14.8564 20.5 14.8476 20.5C14.8388 20.5 14.83 20.5 14.8212 20.5C14.8124 20.5 14.8036 20.5 14.7947 20.5C14.7859 20.5 14.7771 20.5 14.7683 20.5C14.7594 20.5 14.7506 20.5 14.7418 20.5C14.7329 20.5 14.7241 20.5 14.7153 20.5C14.7064 20.5 14.6976 20.5 14.6887 20.5C14.6799 20.5 14.671 20.5 14.6622 20.5C14.6533 20.5 14.6444 20.5 14.6356 20.5C14.6267 20.5 14.6178 20.5 14.609 20.5C14.6001 20.5 14.5912 20.5 14.5823 20.5C14.5735 20.5 14.5646 20.5 14.5557 20.5C14.5468 20.5 14.5379 20.5 14.529 20.5C14.5201 20.5 14.5112 20.5 14.5023 20.5C14.4934 20.5 14.4845 20.5 14.4756 20.5C14.4667 20.5 14.4578 20.5 14.4489 20.5C14.44 20.5 14.4311 20.5 14.4222 20.5C14.4132 20.5 14.4043 20.5 14.3954 20.5C14.3865 20.5 14.3775 20.5 14.3686 20.5C14.3597 20.5 14.3507 20.5 14.3418 20.5C14.3329 20.5 14.3239 20.5 14.315 20.5C14.306 20.5 14.2971 20.5 14.2881 20.5C14.2792 20.5 14.2702 20.5 14.2613 20.5C14.2523 20.5 14.2434 20.5 14.2344 20.5C14.2255 20.5 14.2165 20.5 14.2075 20.5C14.1986 20.5 14.1896 20.5 14.1806 20.5C14.1717 20.5 14.1627 20.5 14.1537 20.5C14.1447 20.5 14.1358 20.5 14.1268 20.5C14.1178 20.5 14.1088 20.5 14.0998 20.5C14.0908 20.5 14.0819 20.5 14.0729 20.5C14.0639 20.5 14.0549 20.5 14.0459 20.5C14.0369 20.5 14.0279 20.5 14.0189 20.5C14.0099 20.5 14.0009 20.5 13.9919 20.5C13.9829 20.5 13.9739 20.5 13.9649 20.5C13.9559 20.5 13.9469 20.5 13.9378 20.5C13.9288 20.5 13.9198 20.5 13.9108 20.5C13.9018 20.5 13.8928 20.5 13.8838 20.5C13.8747 20.5 13.8657 20.5 13.8567 20.5C13.8477 20.5 13.8386 20.5 13.8296 20.5C13.8206 20.5 13.8115 20.5 13.8025 20.5C13.7935 20.5 13.7845 20.5 13.7754 20.5C13.7664 20.5 13.7573 20.5 13.7483 20.5C13.7393 20.5 13.7302 20.5 13.7212 20.5C13.7121 20.5 13.7031 20.5 13.6941 20.5C13.685 20.5 13.676 20.5 13.6669 20.5C13.6579 20.5 13.6488 20.5 13.6398 20.5C13.6307 20.5 13.6217 20.5 13.6126 20.5C13.6036 20.5 13.5945 20.5 13.5855 20.5C13.5764 20.5 13.5673 20.5 13.5583 20.5C13.5492 20.5 13.5402 20.5 13.5311 20.5C13.5221 20.5 13.513 20.5 13.5039 20.5C13.4949 20.5 13.4858 20.5 13.4767 20.5C13.4677 20.5 13.4586 20.5 13.4495 20.5C13.4405 20.5 13.4314 20.5 13.4223 20.5C13.4133 20.5 13.4042 20.5 13.3951 20.5C13.3861 20.5 13.377 20.5 13.3679 20.5C13.3588 20.5 13.3498 20.5 13.3407 20.5C13.3316 20.5 13.3225 20.5 13.3135 20.5C13.3044 20.5 13.2953 20.5 13.2862 20.5C13.2772 20.5 13.2681 20.5 13.259 20.5C13.2499 20.5 13.2409 20.5 13.2318 20.5C13.2227 20.5 13.2136 20.5 13.2045 20.5C13.1955 20.5 13.1864 20.5 13.1773 20.5C13.1682 20.5 13.1591 20.5 13.1501 20.5C13.141 20.5 13.1319 20.5 13.1228 20.5C13.1137 20.5 13.1046 20.5 13.0956 20.5C13.0865 20.5 13.0774 20.5 13.0683 20.5C13.0592 20.5 13.0501 20.5 13.0411 20.5C13.032 20.5 13.0229 20.5 13.0138 20.5C13.0047 20.5 12.9956 20.5 12.9866 20.5C12.9775 20.5 12.9684 20.5 12.9593 20.5C12.9502 20.5 12.9412 20.5 12.9321 20.5C12.923 20.5 12.9139 20.5 12.9048 20.5C12.8957 20.5 12.8867 20.5 12.8776 20.5C12.8685 20.5 12.8594 20.5 12.8503 20.5C12.8412 20.5 12.8322 20.5 12.8231 20.5C12.814 20.5 12.8049 20.5 12.7958 20.5C12.7868 20.5 12.7777 20.5 12.7686 20.5C12.7595 20.5 12.7505 20.5 12.7414 20.5C12.7323 20.5 12.7232 20.5 12.7141 20.5C12.7051 20.5 12.696 20.5 12.6869 20.5C12.6778 20.5 12.6688 20.5 12.6597 20.5C12.6506 20.5 12.6415 20.5 12.6325 20.5C12.6234 20.5 12.6143 20.5 12.6053 20.5C12.5962 20.5 12.5871 20.5 12.5781 20.5C12.569 20.5 12.5599 20.5 12.5508 20.5C12.5418 20.5 12.5327 20.5 12.5237 20.5C12.5146 20.5 12.5055 20.5 12.4965 20.5C12.4874 20.5 12.4783 20.5 12.4693 20.5C12.4602 20.5 12.4512 20.5 12.4421 20.5C12.433 20.5 12.424 20.5 12.4149 20.5C12.4059 20.5 12.3968 20.5 12.3878 20.5C12.3787 20.5 12.3697 20.5 12.3606 20.5C12.3516 20.5 12.3425 20.5 12.3335 20.5C12.3244 20.5 12.3154 20.5 12.3063 20.5C12.2973 20.5 12.2882 20.5 12.2792 20.5C12.2702 20.5 12.2611 20.5 12.2521 20.5C12.243 20.5 12.234 20.5 12.225 20.5C12.2159 20.5 12.2069 20.5 12.1979 20.5C12.1888 20.5 12.1798 20.5 12.1708 20.5C12.1618 20.5 12.1527 20.5 12.1437 20.5C12.1347 20.5 12.1257 20.5 12.1166 20.5C12.1076 20.5 12.0986 20.5 12.0896 20.5C12.0806 20.5 12.0716 20.5 12.0626 20.5C12.0535 20.5 12.0445 20.5 12.0355 20.5C12.0265 20.5 12.0175 20.5 12.0085 20.5C11.9995 20.5 11.9905 20.5 11.9815 20.5C11.9725 20.5 11.9635 20.5 11.9545 20.5C11.9455 20.5 11.9365 20.5 11.9275 20.5C11.9185 20.5 11.9096 20.5 11.9006 20.5C11.8916 20.5 11.8826 20.5 11.8736 20.5C11.8646 20.5 11.8557 20.5 11.8467 20.5C11.8377 20.5 11.8287 20.5 11.8198 20.5C11.8108 20.5 11.8018 20.5 11.7929 20.5C11.7839 20.5 11.775 20.5 11.766 20.5C11.757 20.5 11.7481 20.5 11.7391 20.5C11.7302 20.5 11.7212 20.5 11.7123 20.5C11.7033 20.5 11.6944 20.5 11.6854 20.5C11.6765 20.5 11.6676 20.5 11.6586 20.5C11.6497 20.5 11.6407 20.5 11.6318 20.5C11.6229 20.5 11.614 20.5 11.605 20.5C11.5961 20.5 11.5872 20.5 11.5783 20.5C11.5694 20.5 11.5604 20.5 11.5515 20.5C11.5426 20.5 11.5337 20.5 11.5248 20.5C11.5159 20.5 11.507 20.5 11.4981 20.5C11.4892 20.5 11.4803 20.5 11.4714 20.5C11.4625 20.5 11.4536 20.5 11.4447 20.5C11.4359 20.5 11.427 20.5 11.4181 20.5C11.4092 20.5 11.4003 20.5 11.3915 20.5C11.3826 20.5 11.3737 20.5 11.3649 20.5C11.356 20.5 11.3471 20.5 11.3383 20.5C11.3294 20.5 11.3206 20.5 11.3117 20.5C11.3029 20.5 11.294 20.5 11.2852 20.5C11.2763 20.5 11.2675 20.5 11.2587 20.5C11.2498 20.5 11.241 20.5 11.2322 20.5C11.2234 20.5 11.2145 20.5 11.2057 20.5C11.1969 20.5 11.1881 20.5 11.1793 20.5C11.1705 20.5 11.1617 20.5 11.1528 20.5C11.144 20.5 11.1352 20.5 11.1265 20.5C11.1177 20.5 11.1089 20.5 11.1001 20.5C11.0913 20.5 11.0825 20.5 11.0737 20.5C11.065 20.5 11.0562 20.5 11.0474 20.5C11.0387 20.5 11.0299 20.5 11.0211 20.5C11.0124 20.5 11.0036 20.5 10.9949 20.5C10.9861 20.5 10.9774 20.5 10.9686 20.5C10.9599 20.5 10.9511 20.5 10.9424 20.5C10.9337 20.5 10.9249 20.5 10.9162 20.5C10.9075 20.5 10.8988 20.5 10.8901 20.5C10.8813 20.5 10.8726 20.5 10.8639 20.5C10.8552 20.5 10.8465 20.5 10.8378 20.5C10.8291 20.5 10.8204 20.5 10.8118 20.5C10.8031 20.5 10.7944 20.5 10.7857 20.5C10.777 20.5 10.7684 20.5 10.7597 20.5C10.751 20.5 10.7424 20.5 10.7337 20.5C10.7251 20.5 10.7164 20.5 10.7078 20.5C10.6991 20.5 10.6905 20.5 10.6818 20.5C10.6732 20.5 10.6646 20.5 10.6559 20.5C10.6473 20.5 10.6387 20.5 10.6301 20.5C10.6215 20.5 10.6129 20.5 10.6043 20.5C10.5957 20.5 10.5871 20.5 10.5785 20.5C10.5699 20.5 10.5613 20.5 10.5527 20.5C10.5441 20.5 10.5355 20.5 10.527 20.5C10.5184 20.5 10.5098 20.5 10.5013 20.5C10.4927 20.5 10.4842 20.5 10.4756 20.5C10.4671 20.5 10.4585 20.5 10.45 20.5C10.4414 20.5 10.4329 20.5 10.4244 20.5C10.4158 20.5 10.4073 20.5 10.3988 20.5C10.3903 20.5 10.3818 20.5 10.3733 20.5C10.3648 20.5 10.3563 20.5 10.3478 20.5C10.3393 20.5 10.3308 20.5 10.3223 20.5C10.3139 20.5 10.3054 20.5 10.2969 20.5C10.2884 20.5 10.28 20.5 10.2715 20.5C10.2631 20.5 10.2546 20.5 10.2462 20.5C10.2377 20.5 10.2293 20.5 10.2209 20.5C10.2124 20.5 10.204 20.5 10.1956 20.5C10.1872 20.5 10.1788 20.5 10.1704 20.5C10.162 20.5 10.1536 20.5 10.1452 20.5C10.1368 20.5 10.1284 20.5 10.12 20.5C10.1116 20.5 10.1033 20.5 10.0949 20.5C10.0865 20.5 10.0782 20.5 10.0698 20.5C10.0615 20.5 10.0531 20.5 10.0448 20.5C10.0364 20.5 10.0281 20.5 10.0198 20.5C10.0114 20.5 10.0031 20.5 9.99481 20.5C9.9865 20.5 9.97819 20.5 9.96989 20.5C9.96159 20.5 9.9533 20.5 9.94501 20.5C9.93673 20.5 9.92845 20.5 9.92018 20.5C9.91191 20.5 9.90364 20.5 9.89538 20.5C9.88712 20.5 9.87887 20.5 9.87063 20.5C9.86239 20.5 9.85415 20.5 9.84592 20.5C9.83769 20.5 9.82947 20.5 9.82125 20.5C9.81304 20.5 9.80483 20.5 9.79663 20.5C9.78843 20.5 9.78023 20.5 9.77205 20.5C9.76386 20.5 9.75568 20.5 9.74751 20.5C9.73934 20.5 9.73117 20.5 9.72302 20.5C9.71486 20.5 9.70671 20.5 9.69857 20.5C9.69042 20.5 9.68229 20.5 9.67416 20.5C9.66604 20.5 9.65792 20.5 9.64981 20.5C9.64169 20.5 9.63359 20.5 9.62549 20.5C9.6174 20.5 9.60931 20.5 9.60123 20.5C9.59315 20.5 9.58507 20.5 9.57701 20.5C9.56894 20.5 9.56088 20.5 9.55283 20.5C9.54478 20.5 9.53674 20.5 9.52871 20.5C9.52067 20.5 9.51265 20.5 9.50463 20.5C9.49661 20.5 9.4886 20.5 9.4806 20.5C9.4726 20.5 9.4646 20.5 9.45662 20.5C9.44863 20.5 9.44065 20.5 9.43268 20.5C9.42471 20.5 9.41675 20.5 9.4088 20.5C9.40084 20.5 9.3929 20.5 9.38496 20.5C9.37703 20.5 9.3691 20.5 9.36118 20.5C9.35326 20.5 9.34534 20.5 9.33744 20.5C9.32954 20.5 9.32164 20.5 9.31375 20.5C9.30587 20.5 9.29799 20.5 9.29012 20.5C9.28225 20.5 9.27439 20.5 9.26654 20.5C9.25868 20.5 9.25084 20.5 9.243 20.5C9.23517 20.5 9.22734 20.5 9.21952 20.5C9.2117 20.5 9.20389 20.5 9.19609 20.5C9.18829 20.5 9.1805 20.5 9.17272 20.5C9.16493 20.5 9.15716 20.5 9.14939 20.5C9.14163 20.5 9.13387 20.5 9.12612 20.5C9.11838 20.5 9.11064 20.5 9.10291 20.5C9.09518 20.5 9.08746 20.5 9.07975 20.5C9.07203 20.5 9.06433 20.5 9.05664 20.5C9.04894 20.5 9.04126 20.5 9.03358 20.5C9.02591 20.5 9.01824 20.5 9.01059 20.5C9.00293 20.5 8.99528 20.5 8.98764 20.5C8.98 20.5 8.97237 20.5 8.96475 20.5C8.95713 20.5 8.94952 20.5 8.94192 20.5C8.93432 20.5 8.92673 20.5 8.91915 20.5C8.91157 20.5 8.90399 20.5 8.89643 20.5C8.88887 20.5 8.88131 20.5 8.87377 20.5C8.86623 20.5 8.85869 20.5 8.85117 20.5C8.84364 20.5 8.83613 20.5 8.82862 20.5C8.82111 20.5 8.81362 20.5 8.80613 20.5C8.79865 20.5 8.79117 20.5 8.7837 20.5C8.77624 20.5 8.76878 20.5 8.76133 20.5C8.75389 20.5 8.74645 20.5 8.73902 20.5C8.7316 20.5 8.72418 20.5 8.71677 20.5C8.70937 20.5 8.70197 20.5 8.69458 20.5C8.6872 20.5 8.67982 20.5 8.67245 20.5C8.66508 20.5 8.65773 20.5 8.65038 20.5C8.64304 20.5 8.6357 20.5 8.62837 20.5C8.62105 20.5 8.61373 20.5 8.60643 20.5C8.59912 20.5 8.59183 20.5 8.58454 20.5C8.57726 20.5 8.56998 20.5 8.56272 20.5C8.55545 20.5 8.5482 20.5 8.54096 20.5C8.53371 20.5 8.52648 20.5 8.51926 20.5C8.51204 20.5 8.50483 20.5 8.49762 20.5C8.49042 20.5 8.48323 20.5 8.47605 20.5C8.46887 20.5 8.46171 20.5 8.45455 20.5C8.44739 20.5 8.44024 20.5 8.4331 20.5C8.42597 20.5 8.41884 20.5 8.41173 20.5C8.40461 20.5 8.39751 20.5 8.39041 20.5C8.38332 20.5 8.37624 20.5 8.36917 20.5C8.36209 20.5 8.35503 20.5 8.34798 20.5C8.34093 20.5 8.3339 20.5 8.32687 20.5C8.31984 20.5 8.31282 20.5 8.30582 20.5C8.29881 20.5 8.29182 20.5 8.28484 20.5C8.27785 20.5 8.27088 20.5 8.26392 20.5C8.25696 20.5 8.25001 20.5 8.24307 20.5C8.23614 20.5 8.22921 20.5 8.22229 20.5C8.21538 20.5 8.20848 20.5 8.20158 20.5C8.19469 20.5 8.18781 20.5 8.18094 20.5C8.17407 20.5 8.16721 20.5 8.16037 20.5C8.15352 20.5 8.14669 20.5 8.13986 20.5C8.13304 20.5 8.12623 20.5 8.11943 20.5C8.11263 20.5 8.10584 20.5 8.09906 20.5C8.09229 20.5 8.08552 20.5 8.07877 20.5C8.07202 20.5 8.06527 20.5 8.05854 20.5C8.05182 20.5 8.0451 20.5 8.03839 20.5C8.03169 20.5 8.02499 20.5 8.01831 20.5C8.01163 20.5 8.00496 20.5 7.9983 20.5C7.99164 20.5 7.985 20.5 7.97837 20.5C7.97173 20.5 7.96511 20.5 7.9585 20.5C7.95189 20.5 7.94529 20.5 7.93871 20.5C7.93212 20.5 7.92555 20.5 7.91899 20.5C7.91243 20.5 7.90588 20.5 7.89935 20.5C7.89281 20.5 7.88629 20.5 7.87978 20.5C7.87327 20.5 7.86677 20.5 7.86028 20.5C7.85379 20.5 7.84732 20.5 7.84086 20.5C7.8344 20.5 7.82795 20.5 7.82151 20.5C7.81508 20.5 7.80865 20.5 7.80224 20.5C7.79583 20.5 7.78943 20.5 7.78305 20.5C7.77666 20.5 7.77029 20.5 7.76393 20.5C7.75757 20.5 7.75122 20.5 7.74489 20.5C7.73855 20.5 7.73223 20.5 7.72592 20.5C7.71961 20.5 7.71331 20.5 7.70703 20.5C7.70075 20.5 7.69448 20.5 7.68822 20.5C7.68196 20.5 7.67572 20.5 7.66949 20.5C7.66326 20.5 7.65704 20.5 7.65083 20.5C7.64463 20.5 7.63844 20.5 7.63226 20.5C7.62608 20.5 7.61991 20.5 7.61376 20.5C7.60761 20.5 7.60147 20.5 7.59534 20.5C7.58922 20.5 7.5831 20.5 7.577 20.5C7.57091 20.5 7.56482 20.5 7.55875 20.5C7.55267 20.5 7.54661 20.5 7.54057 20.5C7.53452 20.5 7.52849 20.5 7.52247 20.5C7.51645 20.5 7.51045 20.5 7.50446 20.5C7.49847 20.5 7.49249 20.5 7.48652 20.5C7.48056 20.5 7.47461 20.5 7.46867 20.5C7.46273 20.5 7.45681 20.5 7.4509 20.5C7.44499 20.5 7.4391 20.5 7.43321 20.5C7.42733 20.5 7.42146 20.5 7.41561 20.5C7.40976 20.5 7.40392 20.5 7.39809 20.5C7.39226 20.5 7.38645 20.5 7.38065 20.5C7.37485 20.5 7.36907 20.5 7.3633 20.5C7.35753 20.5 7.35177 20.5 7.34603 20.5C7.34029 20.5 7.33456 20.5 7.32885 20.5C7.32313 20.5 7.31743 20.5 7.31175 20.5C7.30606 20.5 7.30039 20.5 7.29473 20.5C7.28908 20.5 7.28343 20.5 7.27781 20.5C7.27218 20.5 7.26656 20.5 7.26096 20.5C7.25537 20.5 7.24978 20.5 7.24421 20.5C7.23864 20.5 7.23308 20.5 7.22754 20.5C7.222 20.5 7.21647 20.5 7.21096 20.5C7.20545 20.5 7.19995 20.5 7.19447 20.5C7.18898 20.5 7.18352 20.5 7.17806 20.5C7.17261 20.5 7.16717 20.5 7.16174 20.5C7.15632 20.5 7.15091 20.5 7.14552 20.5C7.14012 20.5 7.13474 20.5 7.12938 20.5C7.12401 20.5 7.11866 20.5 7.11333 20.5C7.10799 20.5 7.10267 20.5 7.09737 20.5C7.09206 20.5 7.08677 20.5 7.0815 20.5C7.07622 20.5 7.07096 20.5 7.06572 20.5C7.06047 20.5 7.05524 20.5 7.05003 20.5C7.04482 20.5 7.03962 20.5 7.03443 20.5C7.02925 20.5 7.02408 20.5 7.01893 20.5C7.01377 20.5 7.00863 20.5 7.00351 20.5C6.99839 20.5 6.99328 20.5 6.98819 20.5C6.9831 20.5 6.97802 20.5 6.97296 20.5C6.9679 20.5 6.96285 20.5 6.95782 20.5C6.9528 20.5 6.94778 20.5 6.94278 20.5C6.93778 20.5 6.9328 20.5 6.92783 20.5C6.92287 20.5 6.91791 20.5 6.91298 20.5C6.90804 20.5 6.90312 20.5 6.89822 20.5C6.89331 20.5 6.88842 20.5 6.88355 20.5C6.87868 20.5 6.87382 20.5 6.86898 20.5C6.86414 20.5 6.85931 20.5 6.85451 20.5C6.8497 20.5 6.8449 20.5 6.84013 20.5C6.83535 20.5 6.83059 20.5 6.82584 20.5C6.8211 20.5 6.81637 20.5 6.81166 20.5C6.80694 20.5 6.80225 20.5 6.79757 20.5C6.79289 20.5 6.78822 20.5 6.78357 20.5C6.77893 20.5 6.77429 20.5 6.76968 20.5C6.76506 20.5 6.76047 20.5 6.75588 20.5C6.7513 20.5 6.74673 20.5 6.74218 20.5C6.73763 20.5 6.7331 20.5 6.72858 20.5C6.72407 20.5 6.71957 20.5 6.71508 20.5C6.7106 20.5 6.70613 20.5 6.70168 20.5C6.69723 20.5 6.6928 20.5 6.68838 20.5C6.68396 20.5 6.67956 20.5 6.67518 20.5C6.6708 20.5 6.66643 20.5 6.66208 20.5C6.65773 20.5 6.6534 20.5 6.64908 20.5C6.64476 20.5 6.64046 20.5 6.63618 20.5C6.6319 20.5 6.62763 20.5 6.62338 20.5C6.61913 20.5 6.6149 20.5 6.61069 20.5C6.60647 20.5 6.60228 20.5 6.5981 20.5C6.59391 20.5 6.58975 20.5 6.5856 20.5C6.58146 20.5 6.57733 20.5 6.57322 20.5C6.56911 20.5 6.56501 20.5 6.56093 20.5C6.55686 20.5 6.5528 20.5 6.54875 20.5C6.54471 20.5 6.54069 20.5 6.53668 20.5C6.53267 20.5 6.52868 20.5 6.52471 20.5C6.52073 20.5 6.51678 20.5 6.51284 20.5C6.5089 20.5 6.50498 20.5 6.50108 20.5C6.49717 20.5 6.49329 20.5 6.48942 20.5C6.48555 20.5 6.4817 20.5 6.47787 20.5C6.47404 20.5 6.47022 20.5 6.46643 20.5C6.46263 20.5 6.45885 20.5 6.45509 20.5C6.45133 20.5 6.44759 20.5 6.44386 20.5C6.44013 20.5 6.43643 20.5 6.43274 20.5C6.42905 20.5 6.42537 20.5 6.42172 20.5C6.41807 20.5 6.41443 20.5 6.41081 20.5C6.4072 20.5 6.4036 20.5 6.40001 20.5C6.39643 20.5 6.39287 20.5 6.38932 20.5C6.38578 20.5 6.38225 20.5 6.37874 20.5C6.37523 20.5 6.37174 20.5 6.36827 20.5C6.3648 20.5 6.36134 20.5 6.35791 20.5C6.35447 20.5 6.35106 20.5 6.34766 20.5C6.34426 20.5 6.34088 20.5 6.33752 20.5C6.33415 20.5 6.33081 20.5 6.32749 20.5C6.32416 20.5 6.32085 20.5 6.31757 20.5C6.31428 20.5 6.31101 20.5 6.30776 20.5C6.30451 20.5 6.30128 20.5 6.29806 20.5C6.29485 20.5 6.29166 20.5 6.28848 20.5C6.28531 20.5 6.28215 20.5 6.27901 20.5C6.27587 20.5 6.27275 20.5 6.26965 20.5C6.26655 20.5 6.26347 20.5 6.26041 20.5C6.25735 20.5 6.2543 20.5 6.25128 20.5C6.24825 20.5 6.24525 20.5 6.24226 20.5C6.23928 20.5 6.23631 20.5 6.23336 20.5C6.23041 20.5 6.22748 20.5 6.22457 20.5C6.22166 20.5 6.21877 20.5 6.2159 20.5C6.21303 20.5 6.21018 20.5 6.20735 20.5C6.20451 20.5 6.2017 20.5 6.19891 20.5V21.5ZM17.7161 21.5C18.2396 21.5 19.0125 21.3474 19.6197 20.8507C20.2642 20.3235 20.6498 19.4669 20.4446 18.236L19.4582 18.4005C19.6106 19.315 19.3256 19.7993 18.9866 20.0766C18.6103 20.3845 18.0868 20.5 17.7161 20.5V21.5ZM20.4446 18.236C20.2628 17.1456 19.6342 16.5083 18.9031 16.1652C18.2017 15.836 17.4194 15.7812 16.875 15.7812V16.7812C17.3737 16.7812 17.9781 16.8358 18.4783 17.0705C18.9488 17.2914 19.3369 17.6726 19.4582 18.4005L20.4446 18.236ZM18.8769 12.4837C19.1779 12.2941 19.5942 12.2656 19.9251 12.4221C20.2241 12.5635 20.5 12.8793 20.5 13.5H21.5C21.5 12.5207 21.0259 11.8364 20.3525 11.5181C19.711 11.2147 18.9324 11.2667 18.3437 11.6378L18.8769 12.4837ZM20.5 13.5C20.5 14.1516 19.9874 14.5928 19.2476 14.6194C18.5268 14.6454 17.7036 14.2439 17.3452 13.252L16.4048 13.5917C16.9214 15.0217 18.1607 15.6592 19.2836 15.6188C20.3876 15.579 21.5 14.8483 21.5 13.5H20.5ZM17.3452 13.252C17.1983 12.8452 17.0525 12.3533 16.8942 11.8098C16.7374 11.2721 16.5695 10.6879 16.3827 10.1189C16.0175 9.0063 15.5477 7.84061 14.8536 7.14645L14.1464 7.85355C14.6523 8.35939 15.0636 9.30651 15.4326 10.4308C15.613 10.9802 15.7755 11.5455 15.9341 12.0896C16.091 12.628 16.2453 13.1504 16.4048 13.5917L17.3452 13.252ZM16.875 15.7812H9V16.7812H16.875V15.7812Z" fill="black"/>
</svg>
