<svg width="64" height="64" viewBox="0 0 64 64" fill="none" xmlns="http://www.w3.org/2000/svg">
<path d="M60 26V46C60 50.4183 56.4183 54 52 54H12C7.58172 54 4 50.4183 4 46V26C4 21.5817 7.58172 18 12 18H15.2513C18.7022 18 21.7103 15.6514 22.5472 12.3035C22.8857 10.9497 24.102 10 25.4975 10H38.5025C39.898 10 41.1143 10.9497 41.4528 12.3035C42.2897 15.6514 45.2978 18 48.7487 18H52C56.4183 18 60 21.5817 60 26Z" stroke="black" stroke-width="8"/>
<path d="M40 34C40 38.4183 36.4183 42 32 42C27.5817 42 24 38.4183 24 34C24 29.5817 27.5817 26 32 26C36.4183 26 40 29.5817 40 34Z" stroke="black" stroke-width="8"/>
</svg>
