<svg width="64" height="64" viewBox="0 0 64 64" fill="none" xmlns="http://www.w3.org/2000/svg">
<g clip-path="url(#clip0_25_64)">
<path d="M27.25 41.6292C30.1893 39.9322 33.8107 39.9322 36.75 41.6292L52.4628 50.701C55.4021 52.398 57.2128 55.5342 57.2128 58.9282V77.0718C57.2128 80.4658 55.4021 83.602 52.4628 85.299L36.75 94.3708C33.8107 96.0678 30.1893 96.0678 27.25 94.3708L11.5372 85.299C8.59789 83.602 6.7872 80.4658 6.7872 77.0718V58.9282C6.7872 55.5342 8.59789 52.398 11.5372 50.701L27.25 41.6292Z" stroke="black" stroke-width="5"/>
<path d="M32 30.5C37.799 30.5 42.5 25.799 42.5 20C42.5 14.201 37.799 9.5 32 9.5C26.201 9.5 21.5 14.201 21.5 20C21.5 25.799 26.201 30.5 32 30.5Z" stroke="black" stroke-width="5"/>
</g>
<defs>
<clipPath id="clip0_25_64">
<rect width="64" height="64" fill="white"/>
</clipPath>
</defs>
</svg>
