<svg xmlns="http://www.w3.org/2000/svg" viewBox="0 0 129.08 150.25"><g id="Layer_2" data-name="Layer 2"><g id="Layer_1-2" data-name="Layer 1"><path d="M68.89,106,30.12,150.25c-4.4-1.76-8.24-4.76-12-7.64A148.93,148.93,0,0,1,3.49,129.4c-4.41-4.44-4.64-7.86-.69-12.93,7.57-9.7,15.5-19.11,23.21-28.7,2.84-3.54,5.47-7.25,8.35-11.08-4.3-4.92-8-9.57-12.92-13.12a80.09,80.09,0,0,1-7.1-6.21,6.11,6.11,0,0,1-1.76-6.6c3.31-2.88,7.81-4,12-5.84,8.64-3.8,17.27-7.63,25.94-11.39C60.19,29.32,70,25.26,79.64,21q15.7-7,31.24-14.27c3.86-1.82,7.44-4.24,11.29-6.07,3.44-1.63,6.47.06,6.74,3.83a37.29,37.29,0,0,1-.39,10.24,304.84,304.84,0,0,1-12.66,43.64c-4.14,11-7.76,22.18-10.93,33.47-1.84,6.55-2.36,13.49-3.44,20.26-.18,1.12-.24,2.27-.32,3.41-.43,6.61-5.38,8.85-10.8,5.41-4.82-3.06-9.55-6.28-14.27-9.51C73.79,109.78,71.6,108,68.89,106ZM23.8,55c2.07,1.84,3.34,2.92,4.56,4.06,4.38,4.1,8.81,8.16,13.09,12.36,2.51,2.46,2.83,4,1.13,6.87a135.64,135.64,0,0,1-8,12.12c-7.08,9.34-14.4,18.49-21.53,27.79a52.38,52.38,0,0,0-3.42,6,57.11,57.11,0,0,0,17.73,15.21c7.84-8.36,15.57-16.36,23-24.64,4.19-4.68,7.8-9.87,11.8-14.73,2.62-3.17,4.71-3.81,8.25-2.13a31.37,31.37,0,0,1,7,4.79A57.49,57.49,0,0,0,91.16,112c.58-2.28,1.22-4.14,1.52-6C94.22,96,97.16,86.48,100.41,77,106.05,60.5,113,44.46,117.27,27.51a75.94,75.94,0,0,0,2.81-15.86C88.46,27.53,55.73,38.75,23.8,55Z"/></g></g></svg>