<svg xmlns="http://www.w3.org/2000/svg" viewBox="0 0 145.37 175.78"><g id="Layer_2" data-name="Layer 2"><g id="Layer_1-2" data-name="Layer 1"><path d="M1.12,171.07c-2.06-6.34-.78-11.46-.08-16.5,2-14.16,3.86-28.36,6.46-42.41,2.66-14.39,3.11-29,5.12-43.43.44-3.12.93-6.23,1.42-9.34,1.08-6.89,4.55-11.52,11.88-12.5a20.06,20.06,0,0,0,2.51-.54c.24-.07.42-.35,1.14-1,0-2,.2-4.57,0-7C28,21.24,36.6,8.07,53.07,3.05,58,1.56,62.79-.19,68.13,0,86.86.73,103.85,15,106,34.6c.15,1.41.39,2.82.65,4.69a25.54,25.54,0,0,0,10.66,1.18c2.73-.34,4.38.88,5.2,3.36.63,1.9,1.63,3.82,1.65,5.74.09,6.15,2.48,11.7,4,17.48,3.51,13.26,6.72,26.6,10.25,39.86a224.64,224.64,0,0,1,6.16,32,103,103,0,0,1,.33,22.94,16.81,16.81,0,0,1-9.14,5c-15.37,3.48-30.82,6.42-46.63,7-7.44.26-14.87.79-22.31,1-11.14.39-22.3,1-33.44.87C22.47,175.65,11.78,173.68,1.12,171.07Zm135.23-12.54a100.47,100.47,0,0,0-2.45-33.34C129.6,107.11,125.38,89,120.77,71c-1.83-7.13-4.59-14-6.89-20.88a47.18,47.18,0,0,0-6.39-1.27c-3.14-.18-6.3-.09-9.44,0-8.58.34-17.16.75-25.74,1.15-2.28.1-4.58.14-6.86.35-10.25,1-20.5,2-30.76,2.93a37.82,37.82,0,0,0-13.38,3.41,241.88,241.88,0,0,0-3.51,30.7c-.25,4.54-.19,9.13-.79,13.62-1.22,9.07-2.83,18.08-4.2,27.13q-2.38,15.69-4.6,31.41a12.37,12.37,0,0,0,.31,2.84,18.29,18.29,0,0,0,3.73,1.64c4.48.91,9,2.07,13.51,2.3,11.1.56,22.23.87,33.34.85,6.85,0,13.71-.73,20.55-1.26,10-.78,20-1.35,29.91-2.63C118.33,162.22,127,160.25,136.35,158.53ZM98.83,39.68c-.76-3.51-1.15-6-1.86-8.47-6-20.57-20.88-28.2-41-21a31.93,31.93,0,0,0-8.33,4.24c-4.15,3.09-7.74,6.87-9,12.12C37,32.64,36,38.75,38.52,45.06a25.74,25.74,0,0,0,3.8,0,9.31,9.31,0,0,0,2.26-1c0-1.82.15-3.52,0-5.2a22.21,22.21,0,0,1,16-23.49c9.63-2.93,20.12.84,24.88,9.63,2.68,4.95,4.9,10.15,7.46,15.52ZM82.71,41.55a25.71,25.71,0,0,0-4.88-15.21,11.84,11.84,0,0,0-12-5c-5.36.84-9,4.61-11.78,9.21a14.63,14.63,0,0,0-1.26,13.28Z"/></g></g></svg>