<svg xmlns="http://www.w3.org/2000/svg" viewBox="0 0 140.43 134.56"><g id="Layer_2" data-name="Layer 2"><g id="Layer_1-2" data-name="Layer 1"><path d="M0,74.91C.06,58.62,2.91,45.6,9.12,33.38a19.16,19.16,0,0,1,2.16-3.7C21.16,17.88,32.27,7.93,47.8,4c8.36-2.12,16.61-4.2,25.33-4C78.6.17,84,.48,89.22,2.22a80.38,80.38,0,0,0,11.64,3c9.34,1.62,16,7.09,21.76,14.18C133.4,32.7,139.08,48.07,140.32,65a45,45,0,0,1-1.17,13.62c-5.33,22.11-18.26,38.41-38.29,49.21a57.45,57.45,0,0,1-22.14,6.28c-17.56,1.69-34.2-1.85-50-9.32-14.75-7-23.65-18.6-26.53-34.67C1.1,84.26.47,78.29,0,74.91Zm38.31-58.1C12.07,28.73-1.18,60.61,8.39,89.62c1.29-.56,2.58-1,3.77-1.67,3.76-2.06,7.54-2.06,11.6-.8a24.37,24.37,0,0,1,9,4.76c3.67,3.2,7.47,6.26,11.06,9.55a35.1,35.1,0,0,0,11,6.48c6.87,2.74,14,2.41,21.2,2.54,12.39.24,21.43-5.16,27.28-16,2.44-4.53,5.22-8.93,7.21-13.66,3.37-8,5.27-16.51,3.47-25.17-2.79-13.47-7.68-20.92-22.44-23.43-7.32-1.25-14.84-1.29-22-3.65a9.92,9.92,0,0,0-2.57-.11c-3.72-.19-7.43-.53-11.15-.55C48,27.84,42.17,24.64,39,17.15,38.94,17,38.55,16.92,38.31,16.81Zm-27.2,82a32.4,32.4,0,0,0,14.26,17.08c14.12,8.27,29,13,45.74,12.31,18.07-.78,33.48-6.35,45.77-20.08,10.52-11.76,17.5-25.18,17.37-40.94-.16-18.69-6.74-35.23-20.72-48.39a24.68,24.68,0,0,0-11.89-6.45c-4.19-.91-8.52-1.41-12.57-2.75C78,6,67,6.93,56,9.23a31.56,31.56,0,0,0-7.15,2.82c-1.68.82-2,2.71-1.17,4.43a10.7,10.7,0,0,0,8.87,6c4,.41,8,.43,12,.49,10.07.17,19.93,1.32,29.57,4.61,10.79,3.67,17,11.15,19.88,21.82A44.67,44.67,0,0,1,118.51,69a88.06,88.06,0,0,1-13.64,33.16c-5.42,8.25-12.81,13.82-23.35,13.88-3.15,0-6.29.58-9.43.63-12.11.2-23.28-2.38-32.27-11.23-2.24-2.21-4.56-4.35-7-6.37a38.08,38.08,0,0,0-6.22-4.54C19.74,90.73,16.59,91.61,11.11,98.8Z"/></g></g></svg>