<svg xmlns="http://www.w3.org/2000/svg" viewBox="0 0 205.87 198.84"><g id="Layer_2" data-name="Layer 2"><g id="Layer_1-2" data-name="Layer 1"><path d="M107.33,198.82a58.92,58.92,0,0,1-17.8-2.59c-6.88-1.94-13.77-3.9-20.69-5.69C59,188,50,183.75,42.71,176.46c-6.29-6.26-12.72-12.38-19-18.63a92.79,92.79,0,0,1-13.64-17.62C1.66,126.52-1.79,111.84.89,95.83,3.51,80.22,7.49,65,15.55,51.28c9.76-16.61,22.7-30.16,40.5-38.41C62.28,10,68.45,6.93,74.86,4.5c13.16-5,27-4.87,40.71-4.11,19.16,1,36.18,8.37,51.59,19.32,10.35,7.35,19.23,16.25,24.5,28.18,2.31,5.22,5.07,10.25,7.19,15.54a111.53,111.53,0,0,1,3.64,12.3c.59,2.21.66,4.58,1.47,6.69,2.45,6.4,2.09,13,1.4,19.53a243.48,243.48,0,0,1-8.21,41.23,47.47,47.47,0,0,1-12.68,21.12c-3.27,3.2-6.38,6.57-9.74,9.66a94.22,94.22,0,0,1-8,6.46c-4.81,3.53-10.75,5.23-15.1,9.63-1.49,1.52-4,2.29-6.2,2.81C132.88,195.83,120.24,198.25,107.33,198.82ZM19.35,68c-1.56,4.6-3,8.63-4.31,12.7a78.74,78.74,0,0,0-4.1,27c.51,15.83,7.29,29.16,17.6,40.88A12.52,12.52,0,0,0,35,152.48a120.26,120.26,0,0,1,15.41,5.19,11.6,11.6,0,0,0,11.37-.76c6.68-4,14.07-6.2,21.42-8.55,4-1.28,8.4-1.76,12.25-4.62,1.43-9.53,2.59-19.16,4.37-28.67s4.64-18.85,4.36-28.82a162,162,0,0,0-19.86-20Q76.52,59.57,68.62,53c-3.45-2.89-7.1-3-11.18-1.13A82.18,82.18,0,0,1,43.9,57.21,94.36,94.36,0,0,0,19.35,68Zm96,21.58c-2.71,19.44-9,37.75-8.77,56.8l23,27.36a9.21,9.21,0,0,0,2.25.36c9.59-1.58,19.16-3.36,28.95-3a8.66,8.66,0,0,0,6.82-3c3-3.11,5.72-6.42,8.89-9.28a35.5,35.5,0,0,0,10.59-18.29c2.56-10.25,4.55-20.65,6.75-31a6.65,6.65,0,0,0-1.85-6.26c-3.86-4.21-7.37-8.74-11.32-12.86s-8.19-7.85-12.22-11.67C150.6,82.09,132.89,83.59,115.37,89.6ZM71.84,41.66c3.56,3,6.9,5.66,10,8.56,8.73,8.26,17.45,16.53,26,25,2.75,2.74,5.6,3.76,9.25,3,1.68-.35,3.34-.79,5-1.15,6.43-1.37,12.87-2.75,19.32-4.06,8.66-1.76,17.34-3.45,25.91-5.15,1.83-10.34,3.62-20.38,5.38-30.32C149.33,13.74,121.4,5.26,88.88,11.32Zm-11,135.06a25.31,25.31,0,0,0,9.72,4.79c6.09,1.54,12.25,2.93,18.22,4.87,8.38,2.73,16.84,2.66,25.85,1.78l3.54-10c-3.38-6.73-15.53-20.94-20.2-24-5.88,1.92-11.62,3.61-17.21,5.68-4.54,1.69-8.91,3.83-13.34,5.79C62.74,167.7,60.52,171.28,60.86,176.72ZM28.72,50.54c1.92,0,3.12.3,4.07,0q13.67-5,27.25-10.23A5.45,5.45,0,0,0,62.54,38c2-3.47,3.91-7,5.63-10.6,1.65-3.44,4.12-6.51,5.65-11.18C54.08,22.31,39.68,33.44,28.72,50.54Zm165,39.3c-1.32-14.85-6.4-30-12.32-36.85-2.9,6.55-2.82,13.28-3.34,19.44Z"/></g></g></svg>