<svg xmlns="http://www.w3.org/2000/svg" viewBox="0 0 203.95 148.96"><g id="Layer_2" data-name="Layer 2"><g id="Layer_1-2" data-name="Layer 1"><path d="M54.5,148.9c-11.74.53-26.83-2.45-41.59-7.56-2.68-.93-5.57-1.26-8.29-2.12C1.25,138.15,0,136.45,0,132.91c-.08-17,1.69-33.84,8.68-49.55a103.33,103.33,0,0,1,16.8-25.83C32.27,49.73,39.36,42.31,48,36.41c5.9-4,11.42-8.66,17.19-12.91a60.85,60.85,0,0,1,8.63-5.63A187.67,187.67,0,0,1,117.35,2.35c14.12-3.14,28.45-2.79,42.76-1,6.52.84,13.08,1.49,19.55,2.63a43.39,43.39,0,0,1,18.71,8.2c4.7,3.52,6.41,7.88,5.21,13.5-1,4.48-1.66,9.05-3,13.41-2.3,7.37-5,14.63-7.63,21.89a44.82,44.82,0,0,1-2.59,5.42c-2.37,4.55-5,9-7.13,13.64a84.16,84.16,0,0,1-16.31,24,133.52,133.52,0,0,1-44.67,29.61c-9.55,3.94-19.16,7.51-29,10.58C81.84,147.81,70.25,148.91,54.5,148.9ZM92.57,52.21A5.44,5.44,0,0,0,92.2,50c-.3-.43-1.21-.45-1.84-.65.11.65,0,1.51.4,1.91s1.3.54,2,.78c2.48,9.77,2.48,9.77-6.13,15.88-.23.16-.44.37-.68.53-4.66,3.08-8.27,2.59-12.09-1.68-1.42-1.59-2.79-3.23-4.19-4.84l-.85.46c1.15,4.23,2.31,8.46,3.58,13.09-3,2.88-5.82,5.75-8.85,8.32-4,3.43-6.54,3.23-10.41-.39-1-.91-1.88-1.84-2.85-2.79a28.08,28.08,0,0,0-2.45,1.92,143.38,143.38,0,0,0-22.11,29.32c-3,5.2-6.07,10.36-9,15.61-.61,1.11-.59,2.55-.89,4a120.31,120.31,0,0,0,22.8,6.08c14.52,2.46,29.2,3.55,43.52-.25,20-5.31,39.18-12.73,56.92-23.56a81.71,81.71,0,0,0,32.32-35.78,86.59,86.59,0,0,1,5.18-9.87,87.88,87.88,0,0,0,8.73-18.6,150.47,150.47,0,0,0,6.87-26.16c-9.63-.4-18.53,2-27.54,3a118.32,118.32,0,0,0-27.58,6.22,8.37,8.37,0,0,0-.08,2.65c1.13,3.31-.25,5.57-2.95,7.22a27.51,27.51,0,0,1-5.34,2.68c-4.13,1.37-7.07.18-9.47-3.61-.61-.95-.93-2.09-1.51-3.07-1.41-2.37-2.44-2.21-5,.88l5.57,8.54c-3,4.45-7.64,6.21-12,8.24-6.27,2.93-7,2.68-11.69-2.45A10.46,10.46,0,0,0,92.57,52.21Zm40.28-30.32c2.69-.28,5.3-.23,7.73-.86a199.55,199.55,0,0,1,31.26-5.48A10.83,10.83,0,0,0,178,13.26,152.43,152.43,0,0,0,144.23,9.2,115.35,115.35,0,0,0,117,11.57C106.4,13.94,96.16,17.89,86,21.77a77.14,77.14,0,0,0-15,8.21c-7.12,4.79-13.86,10.16-20.82,15.18C36.69,54.91,26.63,67.61,19,82.24a79.93,79.93,0,0,0-9,28.45,37.78,37.78,0,0,0,.14,5.43c.89,0,1.33.11,1.4,0,2.74-4.36,5.29-8.85,8.19-13.1,6.61-9.65,12.5-19.89,21.84-27.39a24.72,24.72,0,0,0,2.9-3.46c-2.44-2.1-4.65-3.85-6.7-5.78-2.25-2.11-2.16-4.58.24-6.63a36.91,36.91,0,0,1,5.51-4.09c6.17-3.56,6.75-7.26,15.75,0a5.82,5.82,0,0,0,.71.47c2.16,1.22,3.77.81,4.88-1.87-1.52-1.54-3.16-3.12-4.7-4.78-2.62-2.82-2.48-5,.48-7.08,1.86-1.33,3.85-2.48,5.72-3.79,3.86-2.69,7.87-4.7,12.65-2.86,2-7.4,3-8.71,9.41-11.43a36,36,0,0,1,6.55-1.92c4.13-.86,7.29.58,9.3,4.35.91,1.72,1.85,3.43,3,5.49,1.32-.63,2.31-1.06,3.25-1.57.13-.07,0-.52.11-1.37a22.05,22.05,0,0,1-2.69-2.6c-2.64-3.43-2-6.66,1.62-8.45,3.08-1.51,6.23-2.9,9.44-4.1,5.21-1.94,9.21-.31,12.08,4.69C131.55,19.77,132.14,20.71,132.85,21.89ZM106.7,46C102.77,40.76,99,35.82,95.06,30.54l-4.29,2.73c3.48,4.72,6.57,9,9.81,13.26C102.1,48.51,104,48.13,106.7,46ZM84.62,57.85c-3.84-4.66-7.05-8.63-10.39-12.49A2.59,2.59,0,0,0,72,45a1.79,1.79,0,0,0-.89,2.79c2.78,4,5.7,7.85,8.62,11.71.29.39,1,.46,1.78.79ZM63.27,71.67A34.09,34.09,0,0,0,61,69.12c-2.3-2.11-4.61-4.2-7-6.2-1.17-1-2.74-1.34-3.7.08a3.19,3.19,0,0,0,.2,3c2.62,3.3,5.46,6.42,8.35,9.76a22.72,22.72,0,0,0,2.94-1.88A10.48,10.48,0,0,0,63.27,71.67ZM125.58,35a20.49,20.49,0,0,0-3.15-11,2.21,2.21,0,0,0-2.16-.21,2.21,2.21,0,0,0-.59,2.1C121.54,29,123.59,32,125.58,35ZM85.06,41.12c-.31-.42-.55-1-1-1.19s-.83.16-1.26.26c.25.44.4,1.11.77,1.25S84.57,41.25,85.06,41.12Z"/></g></g></svg>