<svg xmlns="http://www.w3.org/2000/svg" viewBox="0 0 122.27 183.33"><g id="Layer_2" data-name="Layer 2"><g id="Layer_1-2" data-name="Layer 1"><path d="M99.79,91.33a16.71,16.71,0,0,1-14,.12c-4.71-1.89-9.5-3.61-14.3-5.41-2.92,3.44-3.34,7.32-3.71,10.86-.9,8.59-3.08,16.86-5.06,25.21-1.19,5-2,10.07-2.89,15.13-.61,3.64-2,6.49-5.8,7.73-1.7.54-3.24.92-5,.15-2.61-1.16-5.3-2.16-7.9-3.34-3.89-1.76-7.74-3.61-12-5.62a26.71,26.71,0,0,0-3,4.14,111,111,0,0,0-7.31,20.12c-1.39,5.54-3.2,11-4.88,16.44a17.78,17.78,0,0,1-1.66,3.94,4.9,4.9,0,0,1-5,2.47,4.91,4.91,0,0,1-4.16-3.86,15.77,15.77,0,0,1-.47-2.54c-1-12.26-2.95-24.45-2.56-36.82.3-9.45.13-18.89,1.46-28.3C2.43,105.24,2.44,98.61,3,92c.26-3.09.09-6.33,2-9,2.92-1.81,5.71-1.09,8.3.26,4.06,2.1,8,4.52,12,6.67,3.22,1.72,6.11,4.27,10.63,4.57,1.5-6.12,2.93-12.18,4.47-18.21s3.24-12.17,4.81-18.27S48.21,46,49.74,39.94c5.07-1,8.83,1.26,12.59,3.15,4.61,2.31,9.06,4.92,13.6,7.36,1,.51,2,.84,3.44,1.41,1.47-2.35,2.75-4.51,4.16-6.59s3.1-4.12,4.53-6.27C96,27.11,104.93,15.87,112,3.35a12.75,12.75,0,0,1,1.51-2.07,4,4,0,0,1,5.44-.39c2,1.7,3.69,3.76,3.31,6.61-.79,5.94-1.21,12-2.76,17.77-2.6,9.66-6.1,19.08-8.95,28.68-3,10.15-5.7,20.4-8.57,30.6C101.26,87,100.41,89.38,99.79,91.33Zm6-59.88a16.22,16.22,0,0,0-2.34,2.35c-4.41,6.68-9,13.28-13,20.17C88,58.12,85.05,61.21,80.07,62.7c-3.4-1.91-6.85-3.92-10.37-5.8-3.9-2.08-7.61-4.66-12.28-5.81-.75,2.12-1.44,3.69-1.86,5.32-1.92,7.48-3.82,15-5.61,22.46-1.6,6.68-2.87,13.43-4.58,20.07-1.49,5.75-4.83,7.48-10.25,5.19-5-2.12-9.76-4.78-14.6-7.24-2.48-1.26-4.64-3.28-8.34-3.31-.13,3.88-.23,7.53-.38,11.18-.16,4,0,8-.63,12-1.69,10-1.14,19.94-.85,29.94,0,.88-.61,2.42,1.45,2.5,4.12-7.33,4.65-16.42,10.75-23.2,9.69.91,17.29,7.42,26.46,9.78A15.59,15.59,0,0,0,50,133.28c3.31-15.37,7.51-30.54,10.18-46.06A21.22,21.22,0,0,1,62.71,80a8.9,8.9,0,0,1,4.53-3.51c1.41-.49,3.36,0,4.89.57C78.26,79.32,84.32,81.75,90.2,84c.77-.81,1.36-1.15,1.51-1.63q7.5-24.15,14.9-48.34a3.87,3.87,0,0,0-.15-1.67C106.41,32.16,106.19,32,105.82,31.45Z"/></g></g></svg>