<svg xmlns="http://www.w3.org/2000/svg" viewBox="0 0 114.43 172.38"><g id="Layer_2" data-name="Layer 2"><g id="Layer_1-2" data-name="Layer 1"><path d="M47.68,100.66c-3-2.47-6-2.34-8.73-2.7C27.21,96.42,16.23,92.4,5.37,87.88A7.13,7.13,0,0,1,.7,81.32a87.35,87.35,0,0,1-.65-12C.44,61.66,1.22,54,2,46.31,2.6,39.77,3.14,33.2,4.22,26.72,5.15,21.09,6.82,15.59,8.08,10,9.51,3.73,13.69,1.1,19.82.83,25.25.6,30.7-.18,36.1,0,47,.48,57.79,1.43,68.62,2.2a13.5,13.5,0,0,1,8.92,3.68c-1.7,5.9-3.23,11.93-5.19,17.82C70.48,29.33,67,34.41,66.13,40.91a84.24,84.24,0,0,0,16.14,2c6.3.13,12.6.23,18.89.4a18.58,18.58,0,0,1,13.27,5.85,68.77,68.77,0,0,1-7.86,32.9,314.09,314.09,0,0,1-32.15,48.57c-8.79,10.91-18,21.49-27,32.24-3.38,4-7.81,6.67-12.36,9.08a3.17,3.17,0,0,1-4.76-3A123.92,123.92,0,0,1,33,151.2c2.75-10.79,6.09-21.43,9.21-32.13C44,113,45.79,107,47.68,100.66ZM11.48,79.72a81.27,81.27,0,0,0,23,7.82C40.9,88.82,47.38,90,53.8,91.4,58,92.35,59.47,95.21,58,99c-6,15.5-9.9,31.59-14,47.66a9.55,9.55,0,0,0,.34,2.77,19.82,19.82,0,0,0,2.94-2.32c7.51-9,15.53-17.53,22.49-27a337.2,337.2,0,0,0,24.43-38.3A115.16,115.16,0,0,0,101.11,66a32.43,32.43,0,0,0,1.94-13c-3.17-.39-6-.91-8.74-1-4.58-.21-9.19.17-13.73-.28C73.19,51,65.83,50,58.51,48.72c-3.4-.58-5-2.86-4.42-6.21a53.65,53.65,0,0,1,2.65-9c1.62-4.58,3.5-9.07,5.13-13.65,1-2.73,1.34-5.53-.47-8C48,8.9,28.88,8.8,17.91,11.59,12.16,25,8.23,65.45,11.48,79.72Z"/></g></g></svg>