<svg xmlns="http://www.w3.org/2000/svg" viewBox="0 0 142.86 165.22"><g id="Layer_2" data-name="Layer 2"><g id="Layer_1-2" data-name="Layer 1"><path d="M48.05,42.2c4.74-2.45,9.05-1.72,13.37,1.68,4.92,3.88,10.19,7.32,15.8,11.3l12.06-12c6.28-6.26,12.53-12.55,18.84-18.77C114,18.59,120,12.83,126,7c1-1,2-2,3-3,4.3-4.22,7.1-6.48,13.78.34.52,3.11-.94,6-2.4,8.68-6.8,12.56-13.29,25.27-21,37.36-8.27,13-15.59,26.6-23,40.11a131.64,131.64,0,0,0-8,18c-1,2.63-2.68,3.36-5,4.32-6.57-2.62-8-10.91-14.63-14.26-1.25,1.35-2.41,2.53-3.48,3.8-8.12,9.6-16.09,19.33-24.37,28.79C32.09,141.22,23.67,151.72,13.84,161c-2.16,2-4.35,3.66-7.28,4.14-4.95.82-7.84-2.46-6-7.18,3-7.73,6.07-15.44,9.51-23,5.83-12.75,12.27-25.21,17.87-38,4.58-10.47,8.4-21.27,12.36-32C43,57.68,45.28,50.34,48.05,42.2ZM21,134.52l1.25,1.22c2.41-2.37,5-4.58,7.19-7.15,10.56-12.41,21-24.92,31.49-37.38a35.65,35.65,0,0,1,3.5-3.76,4.62,4.62,0,0,1,6.28-.17c.87.69,1.43,1.75,2.26,2.5,2.91,2.63,5.46,5.73,9.39,7.68,7.76-16.62,17-32.08,26.48-47.37,3.92-6.3,7.57-12.77,11.23-19.23.52-.93,2-2.07.23-3.65a43.14,43.14,0,0,0-4.74,3.61c-9.49,9.5-19,19-28.31,28.68-2.63,2.72-5.22,5.22-9.09,6.29C69.83,62.91,65.2,54,56,51.52A610.46,610.46,0,0,1,21,134.52Z"/></g></g></svg>