<svg xmlns="http://www.w3.org/2000/svg" viewBox="0 0 174.33 167.06"><g id="Layer_2" data-name="Layer 2"><g id="Layer_1-2" data-name="Layer 1"><path d="M0,95.83c-.31-14,3.42-27.2,7.47-40.35a27.72,27.72,0,0,1,3.72-7.68c8.56-12.28,18.43-23.46,31.18-31.43C50.31,11.43,58,5.65,67.69,4.13,71.61,3.52,75.37,2,79.27,1.21c14.8-2.94,28.8-.22,42.88,4.9,20.64,7.52,36.22,20.59,46.57,39.65,8.7,16,6.82,32.3-2.39,47.41-5.17,8.48-13.71,13.69-23,17.27a87.69,87.69,0,0,1-24.26,5.35c-6.84.58-13.69,1.08-20.54,1.62-6.64.51-13,1.92-18.84,5.3a23.7,23.7,0,0,0-9.6,9.54c-4.27,8.18-2.43,15.52,2.73,22.4,1.7,2.26,2.45,4.32,1.41,7.07a6.61,6.61,0,0,1-4,4.15,16,16,0,0,1-9.25.86c-18.82-4-35-12.77-47.14-27.8C5.4,128.49.15,116.49,0,102.7,0,100.41,0,98.12,0,95.83ZM61.58,156.5c-.76-1.87-1-2.68-1.41-3.44-7.24-14.41-2-31.59,12.13-39.12A55.29,55.29,0,0,1,96,107.11a247.77,247.77,0,0,0,24.79-2.36,71.8,71.8,0,0,0,15.72-4.18c15.24-6,25.75-15.89,26-33.61,0-1.72.22-3.44.2-5.15a28.38,28.38,0,0,0-3.79-13.92,75.81,75.81,0,0,0-28-28.4c-6.73-4-14-6.44-21.46-8.54C94.37,6.74,79.8,9.06,65.84,15A91.88,91.88,0,0,0,34,37.86c-6.4,7-12.41,14.24-15.35,23.56-4,12.62-6.94,25.32-6.75,38.72a62.08,62.08,0,0,0,5.06,24.18A54.54,54.54,0,0,0,33.14,145C41.2,151.57,50.65,154.21,61.58,156.5Z"/></g></g></svg>