<svg xmlns="http://www.w3.org/2000/svg" viewBox="0 0 122.71 151.99"><g id="Layer_2" data-name="Layer 2"><g id="Layer_1-2" data-name="Layer 1"><path d="M120.38,3.34c1.63,7.34,1,15,1.24,22.33a8.28,8.28,0,0,1-7.07,3.21c-4.29,0-8.57.17-12.86.34-12.26.5-24.57.53-36.76,1.78-6,.61-11.92.41-17.84,1.09-9.34,1.07-18.66,2.3-28,3.3-5.92.64-12,2-17.4-2A35.1,35.1,0,0,1,2.76,9c15.1.86,29.77-3.37,44.75-5.11C60,2.4,72.55,1.79,85.09,1c8.55-.53,17.12-.66,25.69-1C114.31-.12,117.62.34,120.38,3.34ZM8.71,17.09C7.46,20.51,6.91,23.37,9,26c4.63,0,8.92.25,13.17-.06,6.82-.49,13.61-1.51,20.43-2,8.54-.63,17.11-1.32,25.67-1.33,12.92,0,25.67-1.43,38.42-3.23,1.93-.27,3.85-.57,6-.88.88-3.44,1-6.41-1.06-9.53-7-1-14.15-.14-21.21.2-10.55.51-21.07,1.49-31.6,2.34-3.11.25-6.2.77-9.31,1.09-8.79.92-17.39,3.33-26.35,3.17C18.4,15.67,13.6,16.6,8.71,17.09Z"/><path d="M.84,125.37c7.06-1.11,14-2.44,21.08-3.26,13.89-1.63,27.8-3.19,41.74-4.4,12.79-1.11,25.46-3.66,38.39-3.2,4.57.16,9.08.11,13.3,2.5,2.19,1.24,3.77,2.66,4,5.1.64,6,1.37,11.93-1.65,17.59-9.82,3.7-20,5.2-30.18,6.27-13.92,1.46-27.89,2.49-41.83,3.71-8.25.72-16.49,1.55-24.75,2.11a118.07,118.07,0,0,1-12.76.05,6.93,6.93,0,0,1-6.64-5.64C.13,139.49-.73,132.72.84,125.37ZM110.14,124a139.44,139.44,0,0,0-29.59-.07q-16.18,1.74-32.35,3.69-18.27,2.18-36.53,4.51c-1.29.17-2.5,1-4.09,1.68.28,1.69.45,3.07.74,4.41.34,1.62.78,3.23,1.19,4.93a22.09,22.09,0,0,0,3.66.47c10.28-.49,20.57-.9,30.83-1.63s20.5-1.71,30.72-2.77c8-.83,15.88-1.85,23.79-3a36.77,36.77,0,0,0,11.63-3.73Z"/><path d="M.78,67.24C4.91,66.7,8.59,66,12.29,65.75c13.13-1,26.28-1.88,39.42-2.78C66.55,62,81.39,60.85,96.25,60a138.75,138.75,0,0,1,16.31.24c6,.37,9.28,4,9.65,9.94.2,3.13.37,6.26.49,9.39.12,2.8-.81,4.09-3.89,4.64a85.93,85.93,0,0,1-11.06,1.39c-13.15.63-26.23,1.81-39.32,3.25C51.94,90.68,35.35,91.55,18.82,93A25.2,25.2,0,0,1,4.73,90.12a9,9,0,0,1-3.45-3.53C.32,84.83.2,71.42.78,67.24Zm112.69,1.88c-2-.44-3.6-1.17-5.22-1.13-31.12.92-62.23,2.14-93.19,5.75a49.38,49.38,0,0,0-6,1.45v7.94c2.34.44,4.26,1.13,6.17,1.11,5.15-.06,10.3-.26,15.43-.68,13.66-1.09,27.31-2.32,41-3.51,2-.18,4-.47,6-.61,6.82-.46,13.66-.76,20.47-1.35,5.07-.43,10.29,0,15.37-2Z"/></g></g></svg>