<svg xmlns="http://www.w3.org/2000/svg" viewBox="0 0 165.22 169.02"><g id="Layer_2" data-name="Layer 2"><g id="Layer_1-2" data-name="Layer 1"><path d="M164.93,72.05c-7,7.75-17.49,7.78-26.56,11.39v11c8.53,2.48,17.54,4.12,25.63,8.64,1,3.33.09,6.35-1,9.26-2.42,6.42-5,12.79-7.5,19.17-1,2.61-2.12,5.2-3.19,7.81a10,10,0,0,1-9.81-.74c-4.19-2.47-8.46-4.8-12.76-7.06-2.76-1.46-5.54-3-8.53-2.95l-11.43,10.65c.12,2.57.3,6.23.46,9.89.1,2.57.3,5.15.23,7.72-.18,7.18-2.43,9.9-9.53,10.65-7.39.78-14.83,1.27-22.26,1.52-4.69.16-6-1.29-6.29-6.14-.3-5.7-.24-11.42-.45-17.12-.07-2-.49-3.9-.77-6l-14.49-7L41.4,146.13a37.22,37.22,0,0,1-3.22,2.81C34,151.81,30,151.6,26.71,147.77c-6.86-8-15.41-14.58-20.36-24.83A75.44,75.44,0,0,1,29,102.51c.51-8.18,1-16.66,1.59-25.5-1.51-2.25-4.33-3.05-6.93-4.11C17,70.2,10.44,67.44,3.71,65.06.4,63.89-.88,61.64.62,58.53c4-8.24,7.9-16.5,12-24.68a19.3,19.3,0,0,1,3.16-4c2.3-2.55,5.11-3.63,8.51-2.55s7.13,2.13,10.55,3.55a92,92,0,0,1,10,5c3.12,1.76,5.73,1.76,8.56-.78a31.15,31.15,0,0,1,16.34-7.73c.42-4.5.9-8.73,1.19-13,.54-8,3.82-11.93,11.59-13.62,7.17-1.56,14.25-.28,21.28,1,3.3.6,6.46,2,9.78,3,1.32,5.45,1.36,10.59,1.48,15.69.12,4.83,0,9.67,0,14.29l15.37,10.4c1.65-.77,3.94-1.8,6.19-2.9a31.2,31.2,0,0,1,14-3.55c2.7,0,5.51.65,6.55,3.25,3.77,9.5,8.42,18.8,8,29.44A2.53,2.53,0,0,1,164.93,72.05ZM33.75,141.25c7.56-7.86,14-15.64,24-19.62,6.14,5.92,12.86,11,21.73,12.83,2.94,8.6-.93,17.84,2.73,26,8.77,1.25,11.94.91,18-2,.12-7.42.23-15.09.35-22.62,4.75-3.44,9.84-5.87,12.58-10.78,3-5.36,7.26-5.81,12.39-3.87,4,1.51,8,3,12,4.58,2.63,1.06,5.16,2.36,7.66,3.52,5.26-5.49,8.06-12.42,8.53-21.08-1.49-.58-3-1.29-4.63-1.78-5.2-1.57-10.45-3-15.63-4.61-4.52-1.43-5.4-2.92-5-7.58.27-2.85.55-5.69.8-8.54s-.64-5.75,1.34-8.58c7.6-4,16.68-5,24.46-9A38.51,38.51,0,0,0,148.24,48c-5.23.37-9.64,3.08-14.09,5.63-5,2.84-10.41,2.36-13.27-3a16.57,16.57,0,0,0-9.71-8,21.46,21.46,0,0,1-3.1-1.48c-2.44-1.3-4-3.19-4-6.11,0-3.72.26-7.45,0-11.15-.31-4.46,1.7-9.1-.93-13.39C98.45,9.66,93.74,8.56,89,8c-3.06-.36-6.25-.08-9,2-1,8-.2,16.07-2.64,23.44a8.87,8.87,0,0,1-1.86,1.11c-7.67,1.79-14.78,4.53-19.85,11a5.23,5.23,0,0,1-5.49,1.62,36.63,36.63,0,0,1-7.29-2.33c-4.43-2-8.71-4.33-13.13-6.38C27.44,37.47,25,36.74,22.88,36A51.21,51.21,0,0,0,11.4,59.44c2.74,1.11,5.61,2.29,8.5,3.43,4,1.58,8,3,12,4.72,7.26,3.12,8.31,4.72,7.93,12.25-.45,8.57-1.09,17.13-.19,25.7a8.65,8.65,0,0,1-.65,2.7c-4.41,2.43-8.87,4.94-13.39,7.34-3.62,1.92-6.8,4.19-8.2,8.61C21.75,130.47,27.21,135.78,33.75,141.25Z"/><path d="M88.71,64.63c15.89-.44,20.87,13.17,16.87,23.67-1,2.66-2.17,5.27-3.42,7.83-5.8,11.9-21.91,15.47-32,7A16.57,16.57,0,0,1,64,91.38,24.46,24.46,0,0,1,88.71,64.63Zm6.87,17.09A39.39,39.39,0,0,0,94.4,76.4a4.72,4.72,0,0,0-3.72-3.21c-7-1.41-11.51.8-14.8,7.18a17,17,0,0,0-1,12.55c1.46,5.32,8.16,9.58,14.4,4.6C93.86,93.83,95.45,88.78,95.58,81.72Z"/></g></g></svg>