<svg xmlns="http://www.w3.org/2000/svg" viewBox="0 0 128.98 208.94"><g id="Layer_2" data-name="Layer 2"><g id="Layer_1-2" data-name="Layer 1"><path d="M1.52,12.06c2.87-3.53,7-4.23,10.86-4.83C22.55,5.67,32.76,4.15,43,3.27,59,1.9,75,.79,91,.12A206.38,206.38,0,0,1,116.69,1c7.17.6,9.82,4.12,9.92,11.36,0,3.43.09,6.87.24,10.29.32,7,2.89,13.81,1.91,21.1a155,155,0,0,0-1,20.57c0,14,.26,28,.37,42,.13,16,.26,32,.29,48,0,12.88-.18,25.76-.14,38.64,0,7.92-3,11.7-10.83,12.45-6.26.59-12.57.83-18.86,1-11.73.36-23.47.48-35.2.85-7.15.23-14.3.57-21.42,1.2a156.17,156.17,0,0,1-24.85-.16c-4.6-.33-7.5-2.35-8.09-7.16-.39-3.13-1.17-6.21-1.37-9.34C6.53,174.44,5.52,157,4.4,139.61c-.92-14.27-2.13-28.53-2.82-42.81C.81,81.08.43,65.33,0,49.6c-.09-3.71.38-7.42.53-11.14C.89,29.63,1.2,20.79,1.52,12.06Zm9.37,6c0,5.42.07,10.55,0,15.68-.15,8.86-.68,17.73-.53,26.59.27,15.46,1,30.92,1.38,46.38.26,11.46.25,22.91,2.63,34.21a32.42,32.42,0,0,1,.28,5.14c.7,14,1.32,28,2.14,42,.25,4.22.77,8.49,3,12.41a44.77,44.77,0,0,0,6.15.42c6.28-.4,12.54-1.22,18.82-1.47,18-.75,36.08-1.24,54.12-1.94,4.86-.19,9.71-.65,14.55-1.2a22.5,22.5,0,0,0,4.55-1.51c.27-13.36.66-26.23.76-39.11.14-16.61,0-33.22,0-49.84,0-15.76,0-31.51,0-47.27,0-9.69-.07-19.38-.24-29.07-.08-4.58-.43-9.16-.73-13.73-.1-1.65-.39-3.29-.63-5.22a35.29,35.29,0,0,0-4.48-.65c-6.3-.11-12.61-.33-18.9-.1-10.88.39-21.75,1-32.61,1.67-8.86.53-17.74.92-26.55,2C27,14.34,19.16,14.32,10.89,18Z"/><path d="M26,192.31c-2.42-2.64-2.44-5.29-2.45-7.84,0-13.49-1.87-26.81-3.26-40.19-1.5-14.51-2.24-29.12-2.73-43.71C16.8,77.71,16.5,54.83,16.05,32a44.81,44.81,0,0,1,.37-6.85A4.54,4.54,0,0,1,21,20.77a136.38,136.38,0,0,1,14.58-.05c3.91.24,6.06,2.64,6.72,6.61.42,2.5.69,5,1.08,7.93,7.18,1.15,13.83-1,20.55-1.32s13.63-1.1,20.93-1.71c.19-2.11.41-3.71.48-5.33C85.67,19,87.87,16.86,96,17a45,45,0,0,1,9.31,1.18c4.24,1,5.26,2.27,5.39,6.51.36,11.73.87,23.47.74,35.2C111.07,90,111.15,120,113.7,150c.94,11.1.69,22.3,1,33.23-3.75,5.46-8.28,7.46-14.72,7.45-15.73,0-31.46.8-47.19,1.28-6.87.22-13.73.5-20.6.65C29.93,192.69,27.7,192.41,26,192.31Zm77.64-11.16a15.1,15.1,0,0,0,.7-3c-.15-12.6.09-25.22-.62-37.79-1.4-24.89-1.67-49.78-1.26-74.7.18-11.16-.1-22.33-.22-33.5a17.81,17.81,0,0,0-.56-4.24c-.42-1.59-3.06-2.79-5-2.39-1.71.35-2.18,1.68-2.2,3.2,0,3.12,0,6.24,0,9.47a12.93,12.93,0,0,1-9.05,3.71c-11.14.34-22.27,1.52-33.36,2.74a26.46,26.46,0,0,1-17.53-3.87c-.44-3.14-.91-6.48-1.35-9.6a6.78,6.78,0,0,0-7.77-1,23,23,0,0,0-.32,4c1.38,16.84,1.49,33.71,1.65,50.58.16,15.75.61,31.48,2.21,47.17,1.27,12.53,2.34,25.08,3.3,37.63.37,4.83,1.19,9.52,1.93,13.77.81.54,1.06.86,1.27.83,21.67-2.46,43.44-1.83,65.18-2.43A20.14,20.14,0,0,0,103.64,181.15Z"/></g></g></svg>