<svg xmlns="http://www.w3.org/2000/svg" viewBox="0 0 119.43 179.14"><g id="Layer_2" data-name="Layer 2"><g id="Layer_1-2" data-name="Layer 1"><path d="M119.43,142.17c-8.17,10.09-16.35,20.39-24.74,30.52-5.4,6.5-10.86,7.92-19.06,5-5.12-1.81-10.11-4-15.11-6.15-8.44-3.57-16.78-7.38-25.28-10.78-5.57-2.23-11.36-3.91-17-5.86-1.06-.36-2.07-.85-3.66-1.5-1.14-4.83-2.62-9.75-3.45-14.78-2.7-16.39-4-32.93-5.31-49.48C5,79.75,3.8,70.37,2.51,61A101.74,101.74,0,0,0,0,50.31c7.13-8.67,13.7-16.53,20.13-24.5,5.21-6.46,10.24-13.06,15.39-19.56a33.92,33.92,0,0,1,4-4.43,6.52,6.52,0,0,1,8-.83,44.88,44.88,0,0,1,4.25,2.9C59.86,9.77,67.89,15.72,76,21.55c3.72,2.67,7.68,5,11.38,7.69,4.86,3.51,9.7,7.05,14.27,10.9a9.63,9.63,0,0,1,2.73,5.19C106,52.88,108.64,60.2,109.1,68a41.42,41.42,0,0,0,1,5.91c3.56,17.41,4.79,35.13,6.93,52.73C117.61,131.44,118.5,136.22,119.43,142.17ZM65.28,121.9c-1.28-19.59-4.5-38.36-8.25-57a15.85,15.85,0,0,0-2.65-1.12c-9-1.87-17.9-3.76-26.87-5.49a56.87,56.87,0,0,0-9.37-1.08c-1.85-.05-3.71.71-5.58,1.12a62.1,62.1,0,0,0,0,6.45c1.6,14.48,3.9,28.9,4.73,43.41.63,10.9,2.46,21.53,4.24,32.21.08.46.73.83,1.57,1.73,2.09-.67,4.5-1.33,6.85-2.2,11.28-4.21,21.81-10,32.42-15.61A14.85,14.85,0,0,0,65.28,121.9Zm40.82,9.15a9.94,9.94,0,0,0,.61-2.67c-.72-8.28-1.24-16.58-2.35-24.81-1.83-13.61-4-27.17-6.13-40.75a80,80,0,0,0-1.76-8.41,33,33,0,0,0-2.14-4.71c-4.75,2.47-9.19,4.46-13.29,7-4.33,2.68-9.57,3.82-13.74,8.07.34,3.42.16,7.24,1.17,10.72,3.12,10.82,4,21.94,5.42,33,.35,2.79,1,5.53,1.53,8,5.41,2.67,10.22,5.14,15.12,7.43C95.64,126.26,100.13,130.05,106.1,131.05ZM53.28,53c-.71-2.73-1.28-5.19-2-7.61S49.63,40.49,49,38s-1-5-1.51-7.55-1-5-1.72-7.52,0-5.28-3.21-7.12C34.08,25.31,26,35.23,18.23,45.39c-.37.5-.05,1.53-.05,2.31,5.89,1.1,11.49,2.24,17.12,3.16C41.1,51.81,46.69,54.68,53.28,53Zm-20.4,96.58c14,6.81,26.84,10.61,40.3,14.88-1.05-10.71-1.93-20.57-4.85-31C56.73,138.22,46.14,144.29,32.88,149.56ZM78.19,130.2c1.18,6.45,2.07,12.39,3.37,18.23s.83,11.84,3.83,17.82c9.25-6.41,13.46-16,20-24.09-7.72-4.06-15-7.9-22.33-11.7a7.74,7.74,0,0,0-2.46-.71A10.3,10.3,0,0,0,78.19,130.2ZM56,20c.56,10.76,4.49,25.4,8.9,33.4a39.4,39.4,0,0,0,10.4-5.44C78.44,45.79,82.63,45,85,41.25,76.09,34.43,67.58,27.89,59,21.38A19.78,19.78,0,0,0,56,20Z"/></g></g></svg>