<svg xmlns="http://www.w3.org/2000/svg" viewBox="0 0 136.42 125.85"><g id="Layer_2" data-name="Layer 2"><g id="Layer_1-2" data-name="Layer 1"><path d="M106.21,125c-6.68,2.08-11.63.16-16.16-3.22C69.84,106.68,48.7,93,27.61,79.19c-8.61-5.63-17-11.6-25.52-17.37a4.23,4.23,0,0,1-2-4.39,41.59,41.59,0,0,1,2.25-8.25c3.56-8.72,7.27-17.38,11-26,1.64-3.76,4.91-5.32,8.83-5.91,4.24-.65,8.43-1.56,12.67-2.22C44,13.6,52.56,10.44,61.3,7.77,70.9,4.84,80.58,2.3,90.69,1.9a10.62,10.62,0,0,0,4.17-.82c4.17-2.06,8-1,11.25,1.56,9.32,7.12,18.45,14.5,27.66,21.76,2.57,2,3.13,4.66,2.28,7.69-3.5,12.38-6.78,24.83-10.58,37.11C122,80.37,118,91.35,114.26,102.43c-2.08,6.23-4,12.52-6.05,18.74A26.31,26.31,0,0,1,106.21,125ZM17.69,60.29l67.08,44.58c.19-1.05.53-1.71.34-2Q71.25,79.66,57.27,56.56a43.2,43.2,0,0,0-3.88-4.73C41.88,53.87,30.31,54.81,17.69,60.29Zm47.19-9.76a31.18,31.18,0,0,0,1.83,4c7.74,12,16.07,23.55,22.41,36.37.43.86,1.17,2.06,3.19.95-.31-7.33-.52-14.95-1-22.55-.51-7.84.93-15.8-1.15-24.18C81.68,47.75,72.79,45.91,64.88,50.53Zm38.5,47.67c.58-.31,1.34-.45,1.48-.83,6.71-17.88,11.83-36.27,17.23-54.58.21-.71-.09-1.58-.2-2.94a47.61,47.61,0,0,0-20,4.9C100.53,62.68,101.88,80.41,103.38,98.2ZM22.8,29c-3.24,7.07-6.48,13.21-8.21,20.2,6.23-.35,23.18-4.36,29.61-7A179.17,179.17,0,0,0,22.8,29Zm65.72,6.86c-4.69-7.56-11.08-11.79-16.35-17.06-.79.58-1.43.81-1.66,1.26-2.82,5.53-5.63,11.08-8.27,16.7-.37.78.24,2,.45,3.39C71.4,39.52,79.4,37.84,88.52,35.88Zm14-3.13c8.66-.57,14.29-2.13,18.5-5C114.9,21.24,110,17.64,104.88,16,102.92,21.19,100.83,26.33,102.57,32.75ZM58.17,20.68c-8.32,1.52-15.72,2.77-23.88,5.42,6,4.37,11.24,8,17.82,10.64Zm37.35-8.76c-5.43.8-10-.61-14.48,2.82,2,2.17,3.46,4.23,5.37,5.77s3,4.38,6.36,3.38C93.59,20.33,94.41,16.78,95.52,11.92Z"/></g></g></svg>