<svg xmlns="http://www.w3.org/2000/svg" viewBox="0 0 186.83 209.43"><g id="Layer_2" data-name="Layer 2"><g id="Layer_1-2" data-name="Layer 1"><path d="M2.78,58.53c1.83-1.7,2.94-2.61,3.91-3.65,21.6-23.37,48.39-39,77.1-51.79,1.57-.7,3.21-1.22,4.8-1.86A15,15,0,0,1,99.4.81a211.33,211.33,0,0,1,29.3,12.07c14.6,7.3,28.94,15,41.87,25.13,5.84,4.57,9.94,9.92,11,17.5,1.27,9,3,18,4.42,27.05a32.68,32.68,0,0,1,.43,5.13q0,24.45-.12,48.9c0,.57-.28,1.2-.12,1.7,2.12,6.38-1.36,10.92-4.92,15.52-7.08,9.14-16.1,16.25-24.76,23.71-9.09,7.85-18.49,15.33-27.78,22.95-2,1.63-4,3.2-6.1,4.73a21.12,21.12,0,0,1-17,3.84c-18.07-3.15-35.86-7.27-53-14q-7.59-3-15.28-5.7c-8.42-2.95-15.92-7.68-23.73-11.84-7.19-3.83-11.09-9.5-11.2-17.86-.11-7.72-.76-15.44-1.13-23.16-.47-10-1.08-20-1.28-30-.13-6.27.38-12.55.65-18.83.07-1.71.3-3.42.42-5.13Q1.94,70.53,2.78,58.53Zm7.31,6.06C9.53,67.77,9,70,8.77,72.24,8.2,79.37,7.41,86.52,7.4,93.65c0,8.86.71,17.72,1.08,26.58.57,13.74,1.21,27.48,1.59,41.23.11,3.89,1.53,6.6,4.91,8.32,6.38,3.24,12.65,6.72,19.2,9.56,6,2.61,12.36,4.54,18.57,6.72,7.56,2.65,14.92,6,23,6.92a67.37,67.37,0,0,1,17.37,4.56c4.19,1.69,8.57,3.23,13.82,2.27.11-2.27.34-4.48.29-6.7-.33-15.46-.79-30.92-1.08-46.39-.18-9.17,0-18.34-.23-27.51-.12-5.4.2-10.88-1.57-16.73-7-.39-12.66-4.45-18.64-7.75-3-1.66-6-3.38-9-5C60.52,80.85,42.92,75.59,25.64,69.54,20.79,67.84,15.84,66.42,10.09,64.59Zm155.4-19a55.61,55.61,0,0,0-5.36-4.68A342,342,0,0,0,105,11.53c-6.87-2.89-13-2.75-19.78-.08C68.89,17.85,54,26.72,39.83,36.9A163.43,163.43,0,0,0,19.31,53.75c-1.3,1.3-3.26,2.55-2.15,5.11a15.57,15.57,0,0,0,2.31.89c14,3.11,27.36,8.3,40.78,13.2,7,2.53,13.64,5.86,20.34,9,9.24,4.38,17.81,10.16,27.9,13.58ZM113,102.45c-.13,1.63-.31,2.77-.28,3.91q.69,31.33,1.42,62.68.28,11.16.78,22.33c.11,2.43.1,5,2.32,7.13a22.92,22.92,0,0,0,3.15-1.83c12.06-10.13,24.19-20.19,36.08-30.51,4.74-4.12,9.25-8.45,14.27-12.31s9.82-8.86,7.68-16.72c-.57-2.09.23-4.54.34-6.83.23-5.14.61-10.29.6-15.44,0-8.3-.25-16.61-.48-24.91a132.42,132.42,0,0,0-6.33-37.6,52.08,52.08,0,0,0-5.28,3.28c-8.9,7.2-17.73,14.5-26.58,21.77a20.71,20.71,0,0,0-1.87,1.76A135.87,135.87,0,0,1,119.07,96.9,59.54,59.54,0,0,0,113,102.45Z"/><path d="M29.32,81.22a12.71,12.71,0,0,1,10.93,8,19.52,19.52,0,0,1,1.94,9.06C41.62,106,36.62,110.35,29,109c-9.84-1.69-14.09-7.11-11.69-17.75a24,24,0,0,1,2.41-5.43C21.5,82.45,24.49,81.14,29.32,81.22Zm5.24,15.94c-1.54-2.48-2.69-4.69-4.18-6.63-.93-1.2-3.59-.94-4.65.12a6.13,6.13,0,0,0-1.12,7,5.19,5.19,0,0,0,6.27,3C32.19,100.21,33.1,98.6,34.56,97.16Z"/><path d="M86.72,132c-1.14-.12-2-.19-2.83-.3-7.26-1-9.86-3.9-9.82-11.32,0-4.33.89-8.42,3.83-11.9,2.17-2.58,4.45-3.51,7.4-2.14,7.58,3.52,10.75,7.61,11.48,17.35.35,4.56-1.73,6.89-6.12,7.8C89.28,131.73,87.85,131.81,86.72,132Zm-4.91-14.12c0,.66-.19,1.32,0,1.75.59,1.15,1.15,2.69,2.14,3.15a4.05,4.05,0,0,0,3.69-.51c.71-.74.75-2.55.46-3.74a9.74,9.74,0,0,0-2.09-3.5,2.15,2.15,0,0,0-3.45.6C82.29,116.34,82.05,117.13,81.81,117.83Z"/><path d="M40.25,154.67a51.81,51.81,0,0,1-1.89,7c-1.19,2.88-3.91,4-6.82,4.41-8.26,1.21-14.47-3.83-15.06-12.19a28.71,28.71,0,0,1,0-4.25c.55-7.43,5.84-11.17,12.94-9.19C35.21,142,40.39,148.64,40.25,154.67ZM27.08,147.1a6.1,6.1,0,0,0-2,1c-2.79,3.09-1.66,8.49,2.18,9.78a4.61,4.61,0,0,0,3.72-1c1.66-1.37,1.66-3.51,1.06-5.46A6.2,6.2,0,0,0,27.08,147.1Z"/><path d="M97.59,174.38c.15,5.54-2.2,8.34-7.89,9.08a22.57,22.57,0,0,1-5.92-.07c-7.55-1-10.65-4.34-11.06-11.67-.35-6.39,2.37-9.28,8.47-12.4a5.48,5.48,0,0,1,3.34-.2C90.87,160.44,97.43,168.18,97.59,174.38Zm-14.75-8.1a10.9,10.9,0,0,0-2.07,2.31c-1.91,4,.25,7.27,4.69,7.31a3.48,3.48,0,0,0,3.32-5.15A7.73,7.73,0,0,0,82.84,166.28Z"/><path d="M91.05,37.37a48.27,48.27,0,0,1,5.24.27c3.81.75,7.78.75,9.8,5.41,2.07,4.82,2.66,9-.4,13.68-4.17,6.32-9,8.63-15.84,6.9C81.3,61.47,77.19,53.07,80.9,44.91,83.19,39.88,86.6,36.26,91.05,37.37Zm.07,6.6a29.37,29.37,0,0,0-2.46,3.26,12.65,12.65,0,0,0-1.13,3.23c-.38,1.82,1.06,4.39,2.84,4.72a14.16,14.16,0,0,0,5.07,0c2.37-.48,4-3,4.06-5.94.07-2.46-1.58-3.46-3.69-4C94.44,44.92,93.09,44.52,91.12,44Z"/><path d="M118.67,160.56c.84-5,2.22-9.25,5.45-12.76,2.64-2.88,5.95-3.8,9.24-2.2C142,149.78,146,162.28,138,171c-3.36,3.63-8.32,3.24-12.87,1.85-3.65-1.12-5.53-3.77-5.89-7.55C119.08,163.56,118.83,161.87,118.67,160.56Zm12.75-6.43a10,10,0,0,0-2.42,1.12,7.52,7.52,0,0,0-2.27,8.39,2.52,2.52,0,0,0,3.26,1.83c3.46-.81,5.93-6.42,4.1-9.5C133.59,155.12,132.33,154.73,131.42,154.13Z"/><path d="M149.29,80.81a22.33,22.33,0,0,1,1.09-4.52c2.18-5.19,8.64-8.1,13.45-6.25,5.11,2,8.73,9,6.78,14a35.83,35.83,0,0,1-5.12,8.78,5.91,5.91,0,0,1-4.5,1.8C154.53,94.2,149.37,88.46,149.29,80.81Zm13.78.23c0-.22.21-.89,0-1.31-.51-.88-1.14-2.1-1.93-2.29a3.61,3.61,0,0,0-2.85,1.08,5.51,5.51,0,0,0-1.22,3c-.27,2.08,1.43,4.4,3.07,4.25,2.07-.19,2.46-1.92,2.82-3.57C163,81.94,163,81.65,163.07,81Z"/></g></g></svg>