<svg xmlns="http://www.w3.org/2000/svg" viewBox="0 0 69.6 124.21"><g id="Layer_2" data-name="Layer 2"><g id="Layer_1-2" data-name="Layer 1"><path d="M12.09,4.43C16.5-.24,18.84-1.09,23.75,1.27A63.91,63.91,0,0,1,34,7.51c7.62,5.65,14,12.66,20,19.91a40.37,40.37,0,0,1,5.9,10.37c6.64,16,11.27,32.36,9.23,50-1.25,10.87-4.63,20.79-13.42,27.78-12.64,10.06-26.32,11.1-40.17,4.37-6.79-3.3-10.65-9.54-12.72-16.56A63.14,63.14,0,0,1,4.18,62.15a77.21,77.21,0,0,1,3.36-7.89C13.78,42.2,14.93,29.17,14.63,16,14.54,12.39,13.11,8.86,12.09,4.43ZM26.47,17.72c-.7,5.31-1.25,9.21-1.71,13.12-1.16,9.73-3.25,19.34-8.22,27.78C10.7,68.51,9.44,79,10.35,90c.89,10.74,6.85,18,16.72,21.87,7.58,3,19.54-.09,24.29-6.42,4-5.3,6.79-11.22,7.3-18a91.09,91.09,0,0,0-2.17-26.36C52.59,43,41.94,29.89,26.47,17.72Z"/></g></g></svg>