<svg xmlns="http://www.w3.org/2000/svg" viewBox="0 0 241.35 240.96"><g id="Layer_2" data-name="Layer 2"><g id="Layer_1-2" data-name="Layer 1"><path d="M173.91,100.53c3.37.27,6.73.5,10.09.82a109.7,109.7,0,0,1,41.79,12.12,34.79,34.79,0,0,1,12.38,10.41c5.25,7.39,4,15-3.67,19.92-4.33,2.82-9,5-14.35,5.31-6.28.4-12.54,1.18-18.83,1.35a50.9,50.9,0,0,1-17.73-2.75c-4.6-1.55-9.2-3.15-13.85-4.57-2.41-.74-4.92-1.4-8.11-.49.83,1.44,1.25,2.82,2.16,3.68,12.54,11.81,20.73,26.55,28.34,41.68a54.35,54.35,0,0,1,5.8,17.89,53.56,53.56,0,0,1-.27,13.62c-.64,4.55-3.94,7.44-8,9.35-7.49,3.48-15.07,2.81-22.61.4-6.94-2.22-12.8-6.31-18.06-11.26-10.12-9.54-18.21-20.52-23.33-33.55a25.8,25.8,0,0,0-2.19-3.45,32,32,0,0,0-2.54,9.53,139.13,139.13,0,0,1-5.47,25.12c-3,8.85-7.39,16.68-15.2,22.27C95,241.66,89.45,241.79,84,239.19a23.43,23.43,0,0,1-13.2-16c-1.63-6.48-1.51-13-.76-19.64A128.07,128.07,0,0,1,78.08,172c.58-1.51.93-3.11,1.57-5.28-3.46.05-5.36,1.73-7.39,3.07A133.58,133.58,0,0,1,47,182.61c-7.27,2.81-14.73,4.73-22.62,2.82a34.7,34.7,0,0,1-5.73-1.7c-9.56-4.16-12.62-11.07-9.1-20.91a23.33,23.33,0,0,1,4.07-7.48c4.69-5.36,9.65-10.51,14.73-15.51,4.12-4.06,9.45-6.23,14.67-8.53,2-.88,4.55-1.09,5.61-4.09-3-.67-6-1.42-9-2-13.73-2.67-25.12-9.91-34.5-19.72C-3.61,96.3-.08,84.64,7.38,80.12A23,23,0,0,1,18.91,77.2a102.54,102.54,0,0,1,39.5,7c2.59,1,5,2.52,9.16,2.56-5.48-6.1-10.09-11.51-15-16.62A62.08,62.08,0,0,1,35.91,38.72a21.74,21.74,0,0,1-.48-3.4C34.78,21.18,44.88,10.23,61,13.87c10.49,2.36,18.57,8.91,24.9,17.27,4.46,5.91,7.91,12.57,11.82,18.9,1.16,1.89,2.31,3.79,3.38,5.54,2.3-.58,2.18-2.17,2.4-3.51,1.16-7,2.2-14.13,3.47-21.16,1.47-8.06,5.21-15.13,10-21.66,5.91-8.07,14.24-10.36,23.6-8.78,8.27,1.4,15.86,10.25,16.7,18.61a42.56,42.56,0,0,1-1.83,18.62c-2.46,7-4.52,14.16-6.7,21.26-.14.47.15,1.08.3,2,3.06-2.37,6.06-4.49,8.82-6.89,11.16-9.66,24.27-13.63,38.81-13.63a25,25,0,0,1,15.14,5.3c5.92,4.38,7.15,9.76,4.3,16.64-4.71,11.41-13.44,19-23.76,25-6.36,3.74-12.7,7.54-19,11.31C173.52,99.36,173.72,99.94,173.91,100.53Zm-85,4.45c-8.94-1-16.81-4.08-24.5-7.85a95.73,95.73,0,0,0-37.2-9.54c-4.89-.28-9.7-.16-14.41,2.54-2.19,5.58-1.31,10.68,3.6,14.42a137.45,137.45,0,0,0,14.39,9.3,27.27,27.27,0,0,0,8.68,3.44c5.62,1,11.36,1.21,17,1.92,6.8.86,13.61,1.73,20.35,3,3.52.64,5.85,3,5.42,4.64-.73,2.82-3.11,3.91-5.66,4.58-5,1.3-9.94,2.73-15,3.76-16.57,3.4-29.18,12.66-39,26a20.24,20.24,0,0,0-3,6.13c-2,6.69,2.3,11.27,9.28,10.06A32.19,32.19,0,0,0,33,176.26a134.9,134.9,0,0,0,34.74-16.6c6.63-4.44,13.85-8,20.84-11.91a4.11,4.11,0,0,1,4.84.4A4.85,4.85,0,0,1,95,153.59c-1.27,4.09-2.54,8.18-3.78,12.28-3.06,10.13-6.34,20.21-9.07,30.43a57.23,57.23,0,0,0-1.86,22.12A21.13,21.13,0,0,0,85.53,230c1.81,2.06,4,2.59,6,.88a54.23,54.23,0,0,0,8.5-8.36c4.81-6.27,6.82-13.84,8.38-21.41,1.9-9.25,3.7-18.56,4.85-27.92.61-5,2.24-10.12.54-15.29-.62-1.91.4-3.28,1.94-4.33a4.19,4.19,0,0,1,4.84,0,11.87,11.87,0,0,1,5,6.76c4.11,12.25,10,23.75,16.29,34.94a69.09,69.09,0,0,0,18.73,21.06c3.93,3,8.07,5.34,13.11,6,11.3,1.48,15.66-4,14.19-13.36a56.85,56.85,0,0,0-3.68-14c-3.46-7.84-7.6-15.38-11.67-22.94a76.71,76.71,0,0,0-15.18-19.62c-3.34-3.14-6.59-6.38-9.7-9.73a20,20,0,0,1-3.3-5c-1.58-3.26.19-6.79,3.73-6.86a37.94,37.94,0,0,1,11,1.12c9.08,2.57,18,5.71,27,8.46a43.56,43.56,0,0,0,10,2.16c5.71.33,11.46.1,17.18,0A27.15,27.15,0,0,0,227.07,138c4.61-2.86,5.08-8.71,1.14-12.46a39.5,39.5,0,0,0-11.51-7.39c-9.84-4.33-20.3-5.85-30.84-6.7-10.84-.86-21.73-1-32.59-1.69a28,28,0,0,1-7.48-1.67,8.35,8.35,0,0,1-3.16-2.7,2.91,2.91,0,0,1,.93-4.41c.75-.4,1.59-.63,2.37-1,14.4-6.37,28.52-13.3,41.77-21.85a90.66,90.66,0,0,0,11-8.14c3.71-3.26,5.94-7.7,7.61-12.28,1.31-3.58-.55-6.17-4.38-6.69-1.12-.15-2.28-.14-3.42-.18C186.25,50.5,175.46,54.5,166,62.2a238.39,238.39,0,0,0-29.69,28.54,6.17,6.17,0,0,1-6.78,2.18,5.68,5.68,0,0,1-4.84-5.15c8.32-15.64,16.09-36.52,21-54.44A38.25,38.25,0,0,0,146.35,18a17.8,17.8,0,0,0-2.25-5.49,5.46,5.46,0,0,0-5.74-2.94c-4.74.41-8.86,2-11.86,6a50.6,50.6,0,0,0-8.08,16c-3.22,10.75-4.7,21.83-6,32.91-.7,5.91-2.37,11.85-.7,17.89a4.15,4.15,0,0,1-.12,1.7c-.45,2.6-4.17,4.28-6,2.49a20.44,20.44,0,0,1-4.62-6c-2.47-5.45-4.1-11.31-6.78-16.65-4.86-9.71-9.82-19.43-15.55-28.64-3.8-6.1-9.37-10.67-17-12.16C53.57,21.53,48.15,25,46.71,33c-.78,4.37,0,8.55,1.34,12.69A56.11,56.11,0,0,0,60.58,67Q76,83.77,91.36,100.54c.31.34.21,1,.34,1.86Z"/></g></g></svg>