<svg xmlns="http://www.w3.org/2000/svg" viewBox="0 0 100.37 180.11"><g id="Layer_2" data-name="Layer 2"><g id="Layer_1-2" data-name="Layer 1"><path d="M20.46,151.71c-.29-4.69-.3-8.12-.74-11.49-1.52-11.61-2.94-23.24-4.9-34.77-1-5.64-3.56-10.85-6.63-15.74-1.52-2.42-2.81-5-4.43-7.34C-.45,76.23-.65,69.57.86,62.63a4.91,4.91,0,0,1,.24-.83c2.58-6.67,2.16-13.38.6-20.22a70.16,70.16,0,0,1-1.47-11C0,26.71,1.42,23.42,4,20.41A40.79,40.79,0,0,1,18.18,9.52C33.5,2.48,49.56-1.07,66.53.28a45.33,45.33,0,0,1,15.64,4.3c6.42,3,10.38,7.51,10.85,15.06.38,6,1.77,11.86,2.78,17.77a10.49,10.49,0,0,0,1.11,3.23c4.91,9,4.17,18.13.42,27.18-3,7.18-5.89,14.43-5.74,22.26a198.41,198.41,0,0,0,2,21.31c1.67,13,3.62,26.05,5.36,39.09.78,5.83-2.13,10.72-5.24,15.05-3.84,5.36-8.73,9.6-16,10.43-7.09.81-14,2.67-21.13,3.66a59.12,59.12,0,0,1-21.32-1.18,26.15,26.15,0,0,1-12.42-7.28,7.22,7.22,0,0,1-2.42-5.3C20.47,160.72,20.46,155.59,20.46,151.71Zm69.18,6.92c-.21-4.84-.09-10-.73-15.08-1.88-15-4.15-30-6.08-45.06a43,43,0,0,1,.88-16.15,91.73,91.73,0,0,1,7-19.29,17.77,17.77,0,0,0,1.49-12.5c-.58-2.47-1.94-4.75-2.77-7.18s-1.55-5.19-2.36-8C68.3,49.17,36.09,53.24,12.11,45.5A58.37,58.37,0,0,1,9.73,64.11,18.42,18.42,0,0,0,12.17,79.7c1.86,2.88,3.38,6,5.26,8.86a46.4,46.4,0,0,1,6.48,15.79,190.28,190.28,0,0,1,3.53,22.87c.9,10.54,1.24,21.14,1.5,31.72a8.84,8.84,0,0,0,4.23,7.87,23.89,23.89,0,0,0,6.12,3A40.79,40.79,0,0,0,58,171.08c3.94-.69,7.81-1.84,11.78-2.31C77.17,167.9,83.43,164.9,89.64,158.63ZM9.11,28.4l1,1.75C14.38,38,21.33,41,29.94,40.83c5.71-.09,11.45.13,17.13-.36,10-.85,19.77-3.1,28.51-8.43a36.83,36.83,0,0,0,6.28-4.44c5.37-5.12,4.34-12.39-2.35-15.42A41.22,41.22,0,0,0,68.05,8.9c-12.07-1.6-23.9.33-35.68,3a42.51,42.51,0,0,0-17.54,8.56C12.14,22.59,9.87,25.09,9.11,28.4Z"/></g></g></svg>