<svg xmlns="http://www.w3.org/2000/svg" viewBox="0 0 117.76 116.44"><g id="Layer_2" data-name="Layer 2"><g id="Layer_1-2" data-name="Layer 1"><path d="M66.2,20.18c2.38-.71,4.49-1.51,6.68-2C76.22,17.5,79.61,17,83,16.47c15.43-2.34,33.48,14.25,34.55,30.41.63,9.6,0,18.89-3.33,27.9a42.22,42.22,0,0,1-13.79,18.29,107.48,107.48,0,0,1-28.12,16.3c-5.3,2-10.9,3.3-16.39,4.83-1.92.54-4,.57-5.85,1.29-5.13,2-9.55.64-13.66-2.45C28.78,107.34,21.9,101,17.5,92.3,14,85.42,10.11,78.73,6.8,71.76,3,63.67,1.34,54.91.47,46.05.13,42.63.07,39.19,0,35.75-.42,11.78,21.7-2.7,40.29.42A31.53,31.53,0,0,1,61.06,13C62.75,15.26,64.35,17.6,66.2,20.18ZM10.5,40.44c.42,4.79.41,7.69,1,10.47,3,14.83,9,28.34,18.66,40,3.08,3.69,7.07,6.61,10.58,9.95,3.74,3.57,7.85,3.81,12.69,2.43A116.39,116.39,0,0,0,96.25,80.47c3.29-2.74,6.5-5.77,8-9.91C107.12,63,108.91,55,107.11,47c-2-8.84-6.89-15.9-16.21-18.16-6-1.46-12.38-2.19-18.46.57-1.82.82-3.7,1.53-5.59,2.17-2.66.9-4.39.45-6-1.83-1.48-2.1-2.56-4.47-4-6.59-5.92-8.65-13.6-13-25.92-11.08-10.36,1.61-17.8,9.43-19.63,20.07C10.73,35.51,10.64,38.94,10.5,40.44Z"/></g></g></svg>