<svg xmlns="http://www.w3.org/2000/svg" viewBox="0 0 181.62 102.39"><g id="Layer_2" data-name="Layer 2"><g id="Layer_1-2" data-name="Layer 1"><path d="M83.52,21.48c1.5-2.79,2.72-5,3.91-7.27C91,7.51,96.63,3.44,103.64,1c6.41-2.24,12.45-.23,18.37,1.8,7,2.41,13.81,5.5,20.83,7.89,9.51,3.24,19.22,5.68,29.43,4.58a6.5,6.5,0,0,1,6.55,3.06,14.16,14.16,0,0,1,2.67,10.45A52,52,0,0,1,171,54.62c-8.25,10.78-18.66,19.18-29.59,27.1a103.24,103.24,0,0,1-41.34,17.92,141.59,141.59,0,0,1-21.24,2.46c-11.14.44-22.31.66-33.36-1.51-15.24-3-28.78-9.2-39.88-20.34A19,19,0,0,1,0,65.51a7,7,0,0,1,3.54-6.43,73.93,73.93,0,0,1,7.59-4,27.36,27.36,0,0,0,11.31-8.93C25,42.76,27.72,39.42,30.29,36A63.45,63.45,0,0,1,50.11,18.54a25.32,25.32,0,0,1,22.3-1.76C75.87,18.05,79.22,19.64,83.52,21.48Zm75.58,7.41c-12.66-2.5-23.62-7.53-34.79-11.89a56.54,56.54,0,0,0-8.1-2.78,34.62,34.62,0,0,0-8.48-.88,13.65,13.65,0,0,0-11.46,6.47c-2.38,3.63-4.12,7.47-4.1,12a28.11,28.11,0,0,1-.81,7.61,4.52,4.52,0,0,1-7.6,1.82c-2.18-2.25-4.22-4.66-6.22-7.08-5.9-7.18-19.16-9.14-28-2a61.9,61.9,0,0,0-12,12.19c-3.92,5.53-8.18,10.82-12.93,17,4.93.22,8.89.7,12.81.5,9.42-.5,18.8-1.44,28.22-2A101.12,101.12,0,0,0,91,55.45c13.33-4.27,26.75-8.33,39.94-13,7.79-2.77,15.25-6.47,22.79-9.92A38.13,38.13,0,0,0,159.1,28.89Zm8.11,10c-2.22,1-3.49,1.46-4.71,2.06-6.92,3.4-13.77,7-20.76,10.2C129,57.08,115.51,61,102.17,65.22c-7.62,2.42-15.35,5-23.22,6-11.61,1.46-23.38,1.74-35.1,2.2-6.57.26-13.16-.16-19.74-.17-1.87,0-3.95-.68-5.53,1,.18.6.18,1.28.51,1.55,6,5,12.6,8.88,20.36,10.57,6.71,1.46,13.4,2.94,20.34,2.85,7.72-.12,15.48.25,23.18-.25,12-.77,24-2.54,35.07-7.52,17.52-7.85,32-19.83,44.85-33.9C164.74,45.49,166.86,43.35,167.21,38.9Z"/></g></g></svg>