<svg xmlns="http://www.w3.org/2000/svg" viewBox="0 0 131.1 130"><g id="Layer_2" data-name="Layer 2"><g id="Layer_1-2" data-name="Layer 1"><path d="M130.68,112.78c-4.38,2.18-8.49,4.09-13,5-14,2.83-28.08,5.42-42,8.47-18.64,4.08-37.51,3.87-56.4,3.66A22.53,22.53,0,0,1,15,129.4c-2.73-.57-4.06-1.92-4.34-4.58-.71-6.54-1.42-13.08-1.92-19.64A198,198,0,0,0,5.57,81.42c1.63-2.14,3.95-3,6.58-3.26,12.79-1.44,25.54-3.32,38.47-3.22,12.63.1,25.12-1.55,37.65-2.87,9.36-1,18.57-3.64,28.11-2.73,2.28.21,4.55.46,6.84.64a4.75,4.75,0,0,1,4.58,4.36c1.2,8.49,2.39,17,3.16,25.54C131.34,104.08,130.81,108.37,130.68,112.78ZM118.27,76.62a10,10,0,0,0-2.39-.28c-8.78,1.13-17.52,2.59-26.33,3.44C77,81,64.48,82.23,51.91,82.6c-11.47.34-22.84,1.44-34.22,2.72A12.16,12.16,0,0,0,14.6,86.6c1,6,1.91,11.55,2.75,17.16.88,5.86,1.66,11.73,2.52,17.89,1.73.18,3.09.42,4.46.44,3.43,0,6.87-.17,10.29,0a138.93,138.93,0,0,0,35.82-2.9c14-2.85,28-5.88,41.93-9,3.23-.73,6.89-.84,9.09-3.78C122,96.7,120.45,82.14,118.27,76.62Z"/><path d="M0,16.5c7.19-7.58,15.74-9,24.22-10.36,4.23-.69,8.56-.81,12.83-1.25,9.4-1,18.78-2.25,28.21-2.87C79.54,1.08,93.85.3,108.15,0c10-.2,11.77,1.78,13.41,11.59,1.69,10.19,2.18,20.48,2.83,30.75a24.63,24.63,0,0,1-.53,4.42c-3.42,1-6.65,2.15-10,2.92C97.72,53.44,81.51,57,64.83,57.82c-16,.82-32,1.84-48,2.74a47.6,47.6,0,0,1-6.86,0c-4.46-.42-7.43-2.78-8.35-7.3a34.47,34.47,0,0,1-.92-5.93C.41,37,.22,26.75,0,16.5ZM12.42,52.36c3.22,0,6.07.11,8.9,0,11.72-.55,23.43-1,35.13-1.81,9.11-.62,18.25-1.35,27.28-2.66,8.74-1.27,17.37-3.31,26-5.11a20.45,20.45,0,0,0,3.77-1.59c.76-11.3.84-22.06-2-33a60.23,60.23,0,0,0-6.94-.37c-15.71.93-31.42,1.81-47.1,3C46.61,11.62,35.8,12.84,25,14.08c-5.93.69-11.84,1.73-16.72,5.21C7.79,33,9.13,44.06,12.42,52.36Z"/></g></g></svg>