<svg xmlns="http://www.w3.org/2000/svg" viewBox="0 0 120.08 113.48"><g id="Layer_2" data-name="Layer 2"><g id="Layer_1-2" data-name="Layer 1"><path d="M120.08,18.13c-7.77,6.46-15.7,12.89-23.45,19.53-8.23,7.05-16.48,14.1-24.39,21.5-10.83,10.15-21.38,20.61-32,31-5.11,5-10.06,10.14-15.14,15.16A69,69,0,0,1,18.74,111c-3.34,2.57-6.09,2.39-9.16-.51s-6-6-8.79-8.75c-.07-4,1.8-6.48,3.92-8.83,14-15.48,27.68-31.19,42-46.35A405.21,405.21,0,0,1,85.89,9.52c2.66-2.16,5.22-4.54,8.18-6.2a30.94,30.94,0,0,1,8.79-3,6.61,6.61,0,0,1,4.84,1.05,64.09,64.09,0,0,1,8.83,8A12.7,12.7,0,0,1,120.08,18.13ZM10.29,98.91c2.67,4.09,4,4.83,6.57,3a75.48,75.48,0,0,0,8.49-7.18c14.36-14,28.55-28.07,43-41.94,7.17-6.89,14.77-13.32,22.1-20.05,6.3-5.78,12.5-11.67,19.18-17.93l-5.91-5.9a17.35,17.35,0,0,0-9,3.95C88.93,18,83,22.89,77.48,28.31c-14,13.88-27.84,28-41.72,42-.6.6-1.14,1.27-1.69,1.93-2.9,3.5-5.68,7.12-8.72,10.5C20.4,88.22,15.29,93.56,10.29,98.91Z"/><path d="M103.07,113.37c.46.09-.94-.15-2.33-.44-9-1.89-12.21-6-11.25-15a26.47,26.47,0,0,1,3-8.79c1.74-3.43,4.73-4.7,8.65-3.6,2.18.61,4.47.78,6.71,1.2C117.65,88.54,122.15,98.05,118,107,116.08,111.05,109.38,114.11,103.07,113.37Zm-2.92-20.59a10.29,10.29,0,0,0-2.39,7.09c0,5.42,3.53,7.74,8.63,5.66a6.35,6.35,0,0,0,1.11-11.11C105.29,93.09,103,92,100.15,92.78Z"/><path d="M28.56,20.75c-7,5.21-13.86,5.41-20.91,2.38a14.09,14.09,0,0,1-4.8-3.43A11.18,11.18,0,0,1,6.2,2.26,20,20,0,0,1,22.05,1.11c4.9,1.54,9,8.35,8.24,13.74A42.13,42.13,0,0,1,28.56,20.75Zm-6.25-7.1c-1.64-2.38-2.39-4.53-3.87-5.33s-3.8-.61-5.7-.39a4,4,0,0,0-2.48,2,6,6,0,0,0,1,7,5,5,0,0,0,5.54.63C18.49,16.72,19.92,15.35,22.31,13.65Z"/></g></g></svg>