<svg xmlns="http://www.w3.org/2000/svg" viewBox="0 0 159.58 164.03"><g id="Layer_2" data-name="Layer 2"><g id="Layer_1-2" data-name="Layer 1"><path d="M151.2,75.56c7,2.35,8.75,7.06,8.31,12.55a56.62,56.62,0,0,1-6.37,23,140.87,140.87,0,0,1-32.95,40.28A49.78,49.78,0,0,1,77.08,163a138.72,138.72,0,0,1-40.6-15.93c-14.82-8.56-25.88-20.43-31.9-36.82C-.08,97.6-.81,84.82.73,71.51c1.36-11.86,5.82-22.69,9.36-33.84a28.55,28.55,0,0,1,4.8-9.07C26.31,14.41,40,3.66,58.64.59A37.39,37.39,0,0,1,76.46,1.68a67.69,67.69,0,0,1,17.76,8.5,21.83,21.83,0,0,1,3.4,2.6c4.44,4.58,3.15,6.94-1.28,9.26-10,5.26-16.29,14.09-21.43,23.84a47.63,47.63,0,0,0-5.12,20.66,38.89,38.89,0,0,0,7.55,25,19.71,19.71,0,0,0,10.1,7.66c12.39,3.88,24.69,4.16,36.82-1.31,8-3.6,14.86-8.47,20.23-15.49C146.35,80,148.81,78,151.2,75.56ZM86.33,15.44c-.67-.93-.89-1.57-1.32-1.8-8-4.1-16.48-4.81-25.07-3.14C45.48,13.32,34.83,22.44,25,32.69a18.85,18.85,0,0,0-3.29,6c-1.7,4.24-3.08,8.6-4.73,12.86a95.57,95.57,0,0,0-6.33,36c.21,20.87,8.8,37,25.66,48.72,6.07,4.22,12.84,7.49,19.46,10.85a67.72,67.72,0,0,0,22.12,6.55c5.94.77,12.16,1.74,17.82-.63a69.6,69.6,0,0,0,15.69-8.69c14.23-11,24.95-25.07,33.63-40.73.57-1,.31-2.52.45-4a6.91,6.91,0,0,0-1.42.27c-1.48.86-2.91,1.79-4.4,2.64-12.13,7-24.72,11.14-39.18,9.28C91,110.62,82.73,108,76,101.11c-2.61-2.65-5.38-5.16-7.81-8a24.93,24.93,0,0,1-4.23-6.41A49.8,49.8,0,0,1,60.4,58.21,66.52,66.52,0,0,1,81,20.48C82.84,18.79,84.61,17.08,86.33,15.44Z"/></g></g></svg>