<svg xmlns="http://www.w3.org/2000/svg" viewBox="0 0 167.58 164.39"><g id="Layer_2" data-name="Layer 2"><g id="Layer_1-2" data-name="Layer 1"><path d="M62.81,163.36c-8.91,2.69-15.42-.07-20.85-6-7.87-8.59-17.37-14.77-28-19.48a79.11,79.11,0,0,1-9.69-5.47C.43,130-.54,126.15.26,122a56.79,56.79,0,0,1,2.66-9c6.19-16.6,12.3-33.28,21-48.75C36.63,41.77,53.66,23.7,76.86,11.81a205.94,205.94,0,0,1,22-9.63c6.09-2.27,12.31-2.43,18.61-2A14,14,0,0,1,128.16,6.3,408.88,408.88,0,0,1,153.65,45Q160.13,56,166.42,67.24c2.64,4.72.63,8.61-4.76,8.77-8.57.25-16.13,3.61-23.62,7.17-10.7,5.07-19.73,12.59-28.5,20.37-13.1,11.62-25,24.4-34.6,39.07-3.6,5.49-6.54,11.41-9.8,17.11C64.43,161,63.61,162.12,62.81,163.36Zm90.33-98a24.46,24.46,0,0,0-1.13-3,536.34,536.34,0,0,0-29.63-47.25c-2.71-3.88-5.75-5.28-10.14-4.41-1.95.39-3.9.83-5.83,1.32C96.61,14.5,87.78,19.13,79,24c-18.66,10.2-32.3,25.4-43.2,43.19-4.16,6.79-7.33,14.24-10.48,21.58q-6.45,15-12.12,30.26c-2.82,7.57-1,8.19,4.44,10.58a102.16,102.16,0,0,1,32.16,22.52,48.28,48.28,0,0,0,4.12,3.34c1.07-2,1.84-3.45,2.7-4.91,3.33-5.67,6.4-11.52,10.1-16.94,11.88-17.39,26.71-32.12,42.8-45.52,8.78-7.3,18.34-13.7,29.29-17.58C143.36,68.86,147.92,67.22,153.14,65.35Z"/></g></g></svg>