<svg xmlns="http://www.w3.org/2000/svg" viewBox="0 0 219.03 115.14"><g id="Layer_2" data-name="Layer 2"><g id="Layer_1-2" data-name="Layer 1"><path d="M146.37,93.65A111.2,111.2,0,0,1,120,90.29c-9.72-2.44-19.47-5-29.62-3.81-18,2.16-34.49,8-48.13,20.43-1.88,1.72-3.38,3.87-5.17,5.7-3.09,3.17-5.19,3.24-9.11.9-3.1-1.86-5-4.74-6.68-7.7-4.71-8.17-9.24-16.44-13.86-24.66a58.65,58.65,0,0,0-4.34-7.37C1.31,71.45-.27,69.34,0,66.13c.39-4,.65-7.88,3.58-11.16,2.25-2.54,4-5.57,6-8.33,1.69-2.3,3.35-4.64,5.25-6.77,12.88-14.45,27.52-26.54,45.63-34A78.22,78.22,0,0,1,83.73.21a41.84,41.84,0,0,1,17.76,1.93C111.22,5.52,121,8.78,130.31,13.2c5.93,2.81,12.17,5,18.3,7.36,8.06,3.15,16.37,2.79,24.53.88A99.74,99.74,0,0,0,191,15.55c10.11-4.53,15.83-2.37,20.68,7.82a43.21,43.21,0,0,1,2,4.72c1.37,4.05,2.38,8.26,4.05,12.18A13.73,13.73,0,0,1,216,54.74a123,123,0,0,1-23,24.09A65,65,0,0,1,160,92.51C155.5,93,150.93,93.28,146.37,93.65ZM201,23.88c-9,5.16-18.44,7.39-27.95,9.43A41.39,41.39,0,0,1,148.65,31c-6.91-2.73-13.66-5.86-20.52-8.72-8.43-3.52-16.85-7.1-25.4-10.33-2.86-1.08-6.1-1.21-9.19-1.65-11.92-1.7-22.83,2.4-33.06,7.35A107,107,0,0,0,26,44C19.73,51.27,14.76,59.15,12.49,68.3,17.56,79.8,28.05,97.91,32,101.84c1.65-1.49,3.28-3,5-4.5,2.63-2.2,5.1-4.69,8-6.41,21.85-12.8,45-17.66,70.07-11.54a187.91,187.91,0,0,0,20.21,3.84,67.29,67.29,0,0,0,42.29-7.75C188.84,69.27,201.51,57.29,209,45Z"/></g></g></svg>