<svg xmlns="http://www.w3.org/2000/svg" viewBox="0 0 233.47 128.34"><g id="Layer_2" data-name="Layer 2"><g id="Layer_1-2" data-name="Layer 1"><path d="M227.87,106.73c-13.9,1.37-26.73,2.41-39.49,4-10.49,1.29-20.88,3.37-31.35,4.82-17.29,2.4-34.6,4.6-51.91,6.84-6,.77-11.94,1.31-17.9,2.09a507.47,507.47,0,0,1-51.37,3.83c-6.85.2-13.73-.34-20.59-.61A16.73,16.73,0,0,1,11,127c-2.29-.71-4.11-2-4.61-4.6-1.76-9-3.89-17.88-5.13-26.91A136.81,136.81,0,0,1,.05,73.2C.5,56.4,6.56,41.38,16,27.63a33.14,33.14,0,0,1,4.6-5.1c9.26-8.81,21.22-8.89,30.83-.45,4.13,3.63,7.75,7.55,10.13,12.61a50.71,50.71,0,0,0,4.92,8.05c3.92,5.44,10.82,6.37,15.6,1.73a44.36,44.36,0,0,0,7.08-9.57c1.56-2.68,2.19-5.9,3.46-8.78a53.06,53.06,0,0,1,17.31-22c9.05-6.63,24.79-6,32,6.73,2.25,4,4.11,8.19,6.3,12.21,2.31,4.28,4.6,8.59,7.26,12.65,2.79,4.25,4.94,4.57,9.3,1.74a37.85,37.85,0,0,0,10.8-9.67A89,89,0,0,1,185.43,16C194,7.63,208,7.2,217.67,14.32c7.87,5.82,12.56,12.94,12.34,23.16-.08,4.2,1.44,8.43,2.22,12.65,1.73,9.39,1.43,18.83.43,28.25-.67,6.27-1.45,12.53-2.41,18.75C229.78,100.18,228.78,103.15,227.87,106.73Zm-8-9.15a204.41,204.41,0,0,0,3-28.34c.46-12.66-2-25.07-4.57-37.41-.91-4.42-3.84-7.63-7-10.58-4.42-4.12-9.81-4.63-15-1.43a18.32,18.32,0,0,0-4,3.25,111.84,111.84,0,0,0-9.36,11.19,32.72,32.72,0,0,1-9.82,9.33c-11.31,7.26-22.11,5.06-29.35-6.35-2-3.13-3.56-6.52-5.3-9.8C136.7,23.9,135,20.27,133,16.82a24.63,24.63,0,0,0-4.15-5.41c-4.39-4.18-9.3-4.22-13.72-.08-5.26,4.94-9.73,10.49-12.2,17.42a86.3,86.3,0,0,1-3.64,9.63C91.53,53.93,84.86,59.05,66.35,53.9a16.12,16.12,0,0,1-10.7-9.18c-1.83-3.87-3.78-7.7-5.53-11.61a16.44,16.44,0,0,0-6.94-7.39C38.61,23,34.4,23,30.54,26.52a44.61,44.61,0,0,0-8.34,9.72C14.35,49.51,9.33,63.76,10.07,79.45c.61,12.85,1.63,25.69,2.52,38.53a9.49,9.49,0,0,0,1.12,2.54c1.95.13,3.92.28,5.89.4,8,.48,16-.93,23.94-1.65,15.12-1.36,30.25-2.46,45.36-3.83,5.69-.52,11.34-1.54,17-2.24,11.63-1.43,23.33-2.46,34.88-4.33,8.74-1.42,17.69-1.73,26.17-4.7,1.57-.55,3.4-.32,5.11-.5,4-.42,8-.79,11.93-1.31C195.62,100.85,207.23,99.27,219.87,97.58Z"/></g></g></svg>