<svg xmlns="http://www.w3.org/2000/svg" viewBox="0 0 91.44 151.05"><g id="Layer_2" data-name="Layer 2"><g id="Layer_1-2" data-name="Layer 1"><path d="M91.44,54.89c-.29,10.89-4.84,20-10.16,29-5,8.37-12.74,13.82-20,19.76-4.65,3.78-9.63,7.15-14.37,10.82a16.1,16.1,0,0,0-3.47,3.71c-5.94,8.8-11.26,17.89-13.16,28.6-.74,4.16-4,5.42-7.57,3.23a5.36,5.36,0,0,1-1.36-1c-3.58-4.43-7.53-8.63-10.56-13.41s-5.22-10.16-7.69-15.32c-3.75-7.87-3.72-16-1.7-24.31,2.91-12,9.24-22,17.45-31,3.67-4,7.55-7.82,11.19-11.86,2.29-2.53,4.15-5.44,6.46-8,5.18-5.6,6.29-12.68,7.46-19.74.87-5.2-1.24-9.52-4.54-13.35-1.49-1.74-3.16-3.32-4.52-5.14A4.19,4.19,0,0,1,34.34,2,4.1,4.1,0,0,1,38.76.07C50.18,1.87,61,5.23,70.52,12.13A33.83,33.83,0,0,1,81.65,25a130.22,130.22,0,0,1,6.52,14.91C89.76,44.73,90.39,49.88,91.44,54.89ZM52.92,14c2.4,5.58,2.16,11,1.4,16.39C53.24,38.05,51,45.2,46,51.58a123.66,123.66,0,0,1-14.3,16,68.2,68.2,0,0,0-15.5,20.37,64.24,64.24,0,0,0-5.06,15.4c-1.93,9,2.2,16.75,6.44,24.3,1.21,2.16,2.24,4.54,5,5.24,8.13-17.28,15.43-25.5,28.77-34.7A135.93,135.93,0,0,0,62.23,89.7,52.62,52.62,0,0,0,78.62,64c4.23-14.39-.5-27.07-8.6-38.85A26.32,26.32,0,0,0,52.92,14Z"/></g></g></svg>