<svg xmlns="http://www.w3.org/2000/svg" viewBox="0 0 139.1 188.5"><g id="Layer_2" data-name="Layer 2"><g id="Layer_1-2" data-name="Layer 1"><path d="M.44,53.13c0-10,.25-20.07-.1-30.08C.18,18.61,1.82,16,5.59,14.28,16.3,9.47,27.09,4.89,38.8,3.05a230.44,230.44,0,0,1,71.88-.44c1.13.18,2.3.21,3.4.48,9.89,2.4,13,6.52,14,16.7,1,11.4,2.2,22.81,3.84,34.13,3.54,24.4,6.31,48.85,7.22,73.49.09,2.56-.28,5.14-.27,7.71,0,5.43.2,10.85.21,16.28,0,4.28-.13,8.55-.23,12.83-.1,4.87-2.83,7.93-7,9.83a22.69,22.69,0,0,1-4.91,1.51c-21.62,4.29-43.25,8.49-65.18,10.87-8.25.89-16.55,1.22-24.82,1.94-7.65.66-14.73-1.63-21.84-3.84a6,6,0,0,1-4.09-4.09,39.73,39.73,0,0,1-1.71-6.64q-2.06-15.74-3.84-31.52c-.9-8-1.61-16-2.42-23.93-.17-1.71-.46-3.42-.53-5.13Q1.19,83.19,0,53.14ZM128.76,166.21c1.5-9,.69-17.05.56-25-.35-22.6-1.66-45.1-5.33-67.48-3-18-5.53-36.18-6.91-54.45a21.39,21.39,0,0,0-.63-4.23,4.29,4.29,0,0,0-3.55-3.3c-2-.31-4-.54-6-.75A301.51,301.51,0,0,0,66.62,9.87,160,160,0,0,0,31,14.71a94.7,94.7,0,0,0-19.84,8.05,28.23,28.23,0,0,0-.38,3.53c.43,23.45.33,46.92,1.49,70.34,1,20.84,3.29,41.63,5.31,62.41a77.37,77.37,0,0,0,3.48,17.9c5.42,2.86,10.47,3.05,15.67,2.34,3.69-.51,7.39-.88,11.09-1.28,10.22-1.11,20.48-2,30.66-3.35,11.61-1.58,23.16-3.59,34.72-5.51C118.26,168.31,123.28,167.25,128.76,166.21Z"/><path d="M70.56,169.94c-14.49-.26-27.62-4.09-38-14.86-5.15-5.36-7.65-12-8.38-19.31-1.9-19.13,6.14-34,20.4-45.75A28.28,28.28,0,0,1,60.3,83.65c13.86-1.13,26.6,2.2,38.55,9.28,8.92,5.28,12.68,13.55,14.79,23.06,2.32,10.46.48,20.27-3.35,30.16C105,159.9,94.88,167,80.82,169.13,77.44,169.66,74,169.68,70.56,169.94Zm34.57-46.33c0-8-.55-10-3.54-16.63-1.36-3-3.26-5.53-6.18-6.87a115.66,115.66,0,0,0-15.07-6.06C66,89.79,53.9,93.33,44.41,105.28c-7.08,8.92-10.79,18.85-9.57,30.24,1.19,11,10.44,22.86,22.83,24.89a53.65,53.65,0,0,0,28.63-3.24,17.44,17.44,0,0,0,7-4.88C100.05,144,105.05,134.76,105.13,123.61Z"/><path d="M66.56,73.71c-9,.32-15.35-3.13-21-7.53-4.63-3.61-5.7-9.34-5.16-14.85a38.12,38.12,0,0,1,6.4-18.43c2.91-4.22,6.66-6.6,11.37-6.54,9.29.11,18.18,1.85,25.18,8.9,8,8.09,8.82,21.31,1.91,30.69C82,70.33,77.17,72.21,72,73.18A46.39,46.39,0,0,1,66.56,73.71Zm-8.16-38c-5.07,5-7,10.83-7.44,17.25-.51,6.79,4.31,12.33,11.09,12.17a31.52,31.52,0,0,0,8.26-1.81c5.88-1.79,8.63-6.18,9.25-12,.93-8.84-5-15.47-14-15.57C63.37,35.69,61.12,35.71,58.4,35.71Z"/><path d="M44.84,127.93A36.92,36.92,0,0,1,51,109.54a14.71,14.71,0,0,1,10.51-6.67c6.15-1.09,12,.28,17.71,2.23,1.88.64,3.6,1.74,5.43,2.57,15.6,7.12,13.88,26.29,5.45,34.85s-21.06,11.82-31.49,7.83C49.37,146.81,44.6,139.4,44.84,127.93Zm40.72-4.43a23.43,23.43,0,0,0-1.44-4.32c-3.34-6.24-13.91-9.57-20.19-6.28a12.26,12.26,0,0,0-4.34,3.91,28.64,28.64,0,0,0-4.48,13.64,14.8,14.8,0,0,0,2.41,8.91c2,3.25,4.89,4.76,8.67,4a28.88,28.88,0,0,0,13.12-5.8C83.64,134,85.05,129.3,85.56,123.5Z"/><path d="M65.53,38.54c5.25,0,8.73,2,10.31,6,1.94,4.89,1.66,9.52-1.87,13.61-2.47,2.85-5.58,3.9-9.22,2.3-1.82-.79-3.62-1.66-5.39-2.58-2.77-1.43-4-3.81-4.48-6.84C53.64,42.9,57.31,38.53,65.53,38.54ZM67.7,48.69c-.73-.88-1-1.53-1.4-1.63-1.1-.28-2.39,1.54-2.1,3,.08.42.66.75,1,1.13Z"/></g></g></svg>