<svg xmlns="http://www.w3.org/2000/svg" viewBox="0 0 164.58 177.85"><g id="Layer_2" data-name="Layer 2"><g id="Layer_1-2" data-name="Layer 1"><path d="M92.25,48.13c1.79-.27,3.49-.41,5.12-.79,18-4.28,36.25-4.94,54.6-5,5.2,0,9.59,1.26,12.48,5.75.64,3.34-1.08,5.75-2.91,7.91-5.17,6.09-10.35,12.2-15.87,18-6.53,6.82-13.43,13.29-20.13,20a21.94,21.94,0,0,0-2,2.6c4.07,12.74,6.68,25.57,9,38.5a175.63,175.63,0,0,1,2.65,34.16,8.29,8.29,0,0,1-3.72,7.24c-2.12,1.5-4.26,1.93-6.35.44-3.94-2.82-8.11-5.48-11.49-8.89-4.41-4.45-8.22-9.52-12.18-14.41-7.19-8.86-14.3-17.79-21.66-27-10.07,1.94-20.13,3.93-30.21,5.79-6.46,1.19-13,2.2-19.45,3.25-4.8.78-9.59,1.61-14.42,2.17a54.8,54.8,0,0,1-9.41.35c-5-.3-8.29-3.75-4.92-9.51a191.91,191.91,0,0,1,18.39-25.82c7.69-9.23,15.2-18.6,23.1-28.31-.5-4.28-.85-8.84-1.57-13.33C39.24,48.55,36.91,35.88,35,23.16c-.83-5.35-1.1-10.8-1.4-16.23-.09-1.63.55-3.3.86-5C42.28-1.62,48.89-.13,55.19,5.22c7.3,6.2,12.45,14.16,18.39,21.46S85.51,41.26,92.25,48.13ZM113,92.34a57.9,57.9,0,0,1,3.78-5.14c2.73-2.93,5.61-5.72,8.44-8.54q10.95-10.92,21.9-21.83c1-1,1.93-2.16.4-4-16.34,0-32.88,1-49,5.11-6.28,1.61-11.16-.26-15.78-4a23.6,23.6,0,0,1-3-3c-3.35-3.91-6.76-7.78-10-11.81C64,31.9,58.4,24.63,52.8,17.38c-1.95-2.52-3.92-5-8-4.65a28.76,28.76,0,0,0,.5,11.76c2.84,13.11,5.22,26.31,6.81,39.63.47,4,.42,8,.52,12a9.26,9.26,0,0,1-2.2,6.34q-12,14.54-24,29.07c-2.74,3.31-5.6,6.52-8.15,10-.87,1.19-.93,3-1.6,5.32,22.27-1.72,42.95-7.59,64.73-11.2a17.16,17.16,0,0,1,8.37,5.85c6.84,8.78,13.83,17.45,20.82,26.12,3.23,4,6.55,7.94,9.9,11.85.86,1,1.82,2.31,3.55,1a97.06,97.06,0,0,0-2-22.06C118.86,123.05,116,107.62,113,92.34Z"/></g></g></svg>