<svg xmlns="http://www.w3.org/2000/svg" viewBox="0 0 188.74 175.04"><g id="Layer_2" data-name="Layer 2"><g id="Layer_1-2" data-name="Layer 1"><path d="M130.69,47c4.63.1,9.18.35,13.72.27a127.42,127.42,0,0,1,35.66,4.17c4.53,1.21,6.82,4,8.36,7.71A6.15,6.15,0,0,1,188,64c-2.15,3.68-4.36,7.47-7.29,10.51-5.75,6-12,11.45-18.06,17.09-1.44,1.34-3.07,2.5-4.56,3.7.89,1.82,1.34,2.84,1.89,3.81a49.18,49.18,0,0,1,6,16c.62,3.66,2.1,7.17,2.71,10.82a109.73,109.73,0,0,1,1.73,15.3c.13,4.9-1.84,6.43-6.53,7.35-14.15,2.76-27.23-.72-40-6.49-3.9-1.77-7.71-3.75-11.6-5.56-1.52-.7-3.14-1.17-5-1.86-1.88,2.5-3.59,4.73-5.26,7A114.56,114.56,0,0,1,77,167.21a39.77,39.77,0,0,1-18,7.64c-7.26,1-11.4-1.77-13.14-8.9-2.35-9.58-2-19.27-1.53-29,.36-7.1.07-14.22.07-21.53-7.51-4.61-15-9.3-22.59-13.85a87.28,87.28,0,0,1-16.4-12.4,29.07,29.07,0,0,1-4-4.48c-2.27-3.4-1.87-6.43,1.25-9.11a26.25,26.25,0,0,1,5.68-3.78,125,125,0,0,1,34.1-11.15c4.18-.68,8.2-2.26,12.45-3.47,3-7.42,5.79-14.6,8.81-21.69A176.55,176.55,0,0,1,72,17.59,58.3,58.3,0,0,1,81.25,5.32c7.06-7.09,16.63-7.11,23.69,0,5,5.06,9.84,10.4,13.11,16.9C122,30.18,126.11,38.05,130.69,47Zm27.85,92.64a19,19,0,0,0-.37-10.87c-1.49-4.93-3.2-9.8-4.42-14.79-1.53-6.23-3.34-12.09-9.26-15.77-1.86-1.15-1.85-3.64-.4-5.28a15.89,15.89,0,0,1,3.16-2.86c8.94-5.88,15.8-14,23.49-21.3a16.51,16.51,0,0,0,5.38-8.61c-6.2-2.08-11.94-3.6-18-3.69-9.44-.13-18.88-.37-28.31-.21-4.6.08-7.68-1.56-9.58-5.66-1.08-2.34-2.2-4.66-3.39-6.94-3.72-7.1-7.31-14.26-11.28-21.21-2.66-4.66-5.81-9.07-10.49-12.39-6,1.93-9.83,6.1-12.57,11.22-3.76,7.05-7.29,14.24-10.68,21.48-3.62,7.73-6.94,15.61-11.57,22.37C54.71,68.54,48.9,70,43,71.24c-9.57,2-18.62,5.53-27.57,9.35-1.24.53-2.79,1-2.36,3.69,4.52,3,9.44,6.4,14.54,9.51,6.6,4,13.35,7.79,20,11.67,5.32,3.11,8.43,7.39,8.13,13.91-.28,6.29-.23,12.59-.13,18.88.11,7.14.34,14.29.74,21.42.1,1.84,1,3.64,1.61,5.59,5.15-.15,8.43-3.11,11.77-5.62C80,152,88.13,142.46,95.36,132.07c1.47-2.11,2.8-4.33,4.43-6.31,3.33-4.06,4.84-4.09,9.45-1.47,8.45,4.79,16.92,9.57,26.18,12.7C142.76,139.48,150.21,141.21,158.54,139.65Z"/></g></g></svg>