<svg xmlns="http://www.w3.org/2000/svg" viewBox="0 0 164.46 170.12"><g id="Layer_2" data-name="Layer 2"><g id="Layer_1-2" data-name="Layer 1"><path d="M67,107.82c-13.61-.49-26.35-3.95-39.12-7.11-6.65-1.65-13.11-4-19.64-6.14a10.83,10.83,0,0,1-2.31-1.15C-1.62,88.79-2,83.38,5,77.9a23.28,23.28,0,0,1,5.95-3.36c8-3.1,16.23-5.58,24.87-6.37,8.28-.76,16.28-3,24-4.34C62,60.74,61.37,57.76,61.62,55c1.05-12,1.94-24,3-35.95A45.55,45.55,0,0,1,66,11.41c.88-3.3,2-6.53,3-9.5,8.14-3.3,11.11-2.59,14.2,4.21A155.38,155.38,0,0,1,89.74,23.8c3.08,9.82,6.1,19.65,10.28,29.58a54.1,54.1,0,0,0,5.79.51,77.6,77.6,0,0,1,23.73,3.44c7.65,2.29,15.71,3.27,22.9,7,3,1.59,6.09,3.14,9,5a6.06,6.06,0,0,1,.64,10.1,31.14,31.14,0,0,1-6.52,4,196,196,0,0,1-37.19,13.09,65.38,65.38,0,0,0-6.57,2,4.15,4.15,0,0,0-2.79,3.94c-.57,8.24-1.24,16.48-1.71,24.73-.71,12.38-3.87,24.24-7.28,36.07a7.56,7.56,0,0,1-3.25,4.81c-5.61,3.46-7.68,2.71-10.39-3.32-7.3-16.24-12.09-33.31-17.12-50.31C68.59,112.29,67.78,110.19,67,107.82ZM67,72.29c-9,2-17.82,4.32-26.82,5.93a135.42,135.42,0,0,0-20.78,5.16c-1.09.39-1.95,1.43-3.43,2.56,11.52,5.47,23.34,6.54,34.75,8.9,6,1.25,12.27,2.85,19.21,1.61a24.64,24.64,0,0,1,.07-5c.41-1.95,1.25-3.85,4.37-3.48.33,1.19.8,2.5,1.06,3.84,1.37,7,2.19,14.14,4.12,21,3.1,11,6.89,21.81,10.49,32.67.3.91,1.29,1.59,2.31,2.79.81-2.22,1.66-3.78,1.91-5.43.91-5.94,1.85-11.9,2.36-17.88.76-8.85,1.49-17.72,1.59-26.58,0-5.29,2.36-7.91,7-9.27,6.6-1.92,13.21-3.8,19.74-5.94,6.79-2.22,13.5-4.69,20.21-7.14.71-.25,1.2-1.08,2.2-2a29.44,29.44,0,0,0-10.2-4.31c-12-3.06-23.87-6.24-36.38-5.53a8.24,8.24,0,0,1-1.72-.1c-4.51-.76-8.1-2.65-9.57-7.42-.84-2.74-2.06-5.35-3-8.06-2.76-8.13-5.41-16.29-8.22-24.4-.36-1-.27-2.95-2.5-2.61A19.58,19.58,0,0,0,75.14,24c-1.87,11.88-3.43,23.8-3.32,35.87C71.86,64.34,70.94,68.39,67,72.29Z"/></g></g></svg>