<svg xmlns="http://www.w3.org/2000/svg" viewBox="0 0 135.66 137.28"><g id="Layer_2" data-name="Layer 2"><g id="Layer_1-2" data-name="Layer 1"><path d="M135.66,104.37c-8.38,2.75-16,3.57-23.66,4.15-1.42.11-2.87,0-4.29.08-4.27.37-8.93-.12-12.68,1.49s-6.46,5.42-9.75,8.11c-5.54,4.52-11.09,9-16.81,13.31a40.91,40.91,0,0,1-8.16,4.66c-5.32,2.33-8.88,1-11.23-4.14-1.65-3.63-2.71-7.53-4.1-11.28-1.68-4.55-3.85-9-5-13.65-1.4-5.53-5.24-8.55-9.53-11.52C20.51,88.71,11.92,80.27,3,72.24c-2.57-2.32-3.6-5-2.63-8.46a6.92,6.92,0,0,1,3.31-4.72c5.77-3.17,11.46-6.47,17.18-9.7,3.22-1.82,6.45-3.62,9.34-5.25,3.9-11.92,7.62-23.33,11.34-34.73.36-1.08.73-2.17,1.14-3.24,2.62-6.76,8.81-8.21,14.09-3C65.74,12,76.23,19,85.47,27.63c2.67-.76,4.81-1.5,7-2Q104.24,23.2,116,20.91a15.57,15.57,0,0,1,4.26-.16c3.89.33,5.68,2.11,5.73,6.06a37.35,37.35,0,0,1-.74,7.67c-1.49,7.57-3.17,15.11-4.75,22.66-1.07,5.13-.88,9.84,1.76,14.81,4.15,7.8,7.38,16.1,10.86,24.25C134.13,98.52,134.65,101,135.66,104.37Zm-13.91-6.91c-1.64-3.89-2.78-6.8-4.08-9.64-2.26-4.95-4.5-9.91-7-14.75a21.17,21.17,0,0,1-1.45-15.81c1.62-6.09,2.9-12.27,4.11-18.45.42-2.1,1.36-4.41-.42-6.89-3.32,0-6.63-.09-10,1-4.33,1.44-8.8,2.48-13.19,3.79A11.46,11.46,0,0,1,79.13,35.1c-3.44-2.55-6.74-5.3-10.07-8C63.6,22.62,58.28,18,52.31,14.37c-.83.83-1.43,1.16-1.59,1.64-2.8,8.4-5.63,16.78-8.27,25.23C39.06,52.14,41.24,48.31,32.14,55c-2.51,1.83-5.56,2.95-8.36,4.39s-5.64,2.77-8.34,4.37c-1.09.65-1.84,1.86-3,3.13l7.4,6.69A207.1,207.1,0,0,0,43.36,92.16a10.18,10.18,0,0,1,4.27,5.12q4.47,12.07,9.1,24.1c.47,1.25,1.18,2.4,2,4a57.39,57.39,0,0,0,6.1-4c6.07-5.25,12.11-10.52,17.94-16,2.82-2.67,5.66-4.42,9.74-4.56,6-.19,12-.9,18-1.56C113.84,98.93,117.19,98.22,121.75,97.46Z"/></g></g></svg>