<svg xmlns="http://www.w3.org/2000/svg" viewBox="0 0 187.2 178.12"><g id="Layer_2" data-name="Layer 2"><g id="Layer_1-2" data-name="Layer 1"><path d="M22.21,26.7c1.1-1.45,1.58-2.15,2.14-2.8,2.18-2.48,4.77-3.27,7.6-1.31,6.71,4.63,14.18,3.88,21.55,3,3.34-.41,6.75-1.46,9.1-4.36a7.87,7.87,0,0,1,1.32-1.1C69.77,15.35,75,10.14,76,2.52c2.45-2,4.71-3,7.44-2.32s4.28,2.64,5.71,4.87,2.93,4.24,4.47,6.3C98.91,18.46,106.1,22,114.83,22.8c6.34.58,12.5.45,18.56-2a59.15,59.15,0,0,1,10.72-3.06c5.42-1.05,8.62,1.57,9.24,7.22.41,3.7.33,7.49,1.18,11.08a68.76,68.76,0,0,0,4.5,13.8,18.1,18.1,0,0,0,16.24,10.91c2.28.12,4.63-.1,6.83.36,1.8.38,3.44,1.56,5.1,2.36.05,4.67-2.67,7.47-4.88,10.29-4.66,5.93-4.19,12.2-1.83,18.63.67,1.81,2.2,3.3,3.3,5,.62.92,1.17,1.88,2.05,3.31-1.15,1-2,2.24-3.18,2.64-16.59,5.82-23,17.58-18.8,34.83a43,43,0,0,1,1.27,6.72c.28,3.74-2,5.89-5.83,5.57-1.42-.12-2.79-.69-4.2-.87-11.72-1.56-22.2,1-30.2,10.16-3.34,3.86-6,8.31-8.92,12.54-.81,1.16-1.25,2.59-2.1,3.71a5.29,5.29,0,0,1-6.91,1.43,36.06,36.06,0,0,1-4.9-3.45c-.88-.7-1.5-1.73-2.33-2.52-9.92-9.51-20.61-12.11-34.72-6-6.8,3-13.24,6.71-19.83,10.11-.51.26-.94.67-1.44.93-5.67,2.93-11.45-.3-11.55-6.6-.07-4.29.23-8.59.42-12.88.5-11.2-5.64-18.18-14.85-23-2.76-1.45-6-2-8.82-3.33a34.44,34.44,0,0,1-6.53-4c-1-.79-1.55-2.25-2.42-3.6a44.83,44.83,0,0,1,2.65-3.63c3.93-4.34,6.13-9.59,8-15,3.56-10.27,2-19.73-4.53-28.41-1.36-1.83-2.81-3.62-4-5.54a4,4,0,0,1,1.7-5.78c.76-.37,1.63-.52,2.42-.85C17.55,59.12,23.51,50.44,24.85,38.4A16.34,16.34,0,0,0,22.21,26.7Zm120.25-.15c-5.74,1.25-10.68,2.82-15.72,3.3a65,65,0,0,1-16.26-.22c-5-.79-9.73-3.23-14.68-4.58-5.47-1.5-8.26-6.79-13-9.31-4.43,4.28-8.57,8.19-12.61,12.2-4.74,4.69-10.62,6.59-17.05,7-3.71.24-7.44,0-11.16.06-1.93,0-3.85.21-6.1.34-1.55,15-7.82,27.06-20.8,35.37,4.6,8.37,9.17,16.18,8,26a66,66,0,0,1-8.88,26.66l3.58,1.54c1.06.45,2.14.85,3.17,1.35,13.43,6.49,23.28,15.56,23.1,32a8.09,8.09,0,0,0,1.05,3c8-2.47,15.29-4.87,22.7-7,9.57-2.73,18.67-.84,27.36,3.49,4,2,7.89,4.28,11.95,6.5,1.59-2.27,2.8-4.21,4.23-6,6-7.43,12.39-14.44,22.24-16.55,4.45-.95,9.05-1.16,13.58-1.72,1.83-.22,3.65-.49,5.5-.74-3.19-18.29,1.71-32.74,17.47-42.76-.46-2.14-1-4-1.27-6C168,83.41,167.44,76.3,172,70c.21-.3-.16-1-.34-2-1.52-.21-3.2-.36-4.84-.68a22.26,22.26,0,0,1-10.71-5.19c-6.41-5.68-10.64-12.65-11.84-21.26C143.61,36.34,143.1,31.81,142.46,26.55Z"/><path d="M141.12,96.5c-.76,8.33-3.47,19.49-12.09,27.83-8.41,8.14-17.71,15-29.85,17.41-7.48,1.45-14.44,1.86-21.88-.37-6.28-1.88-12.74-2.9-18.28-6.79-4.49-3.15-8.64-6.62-11.39-11.44-6-10.58-10.56-21.64-9.16-34.16,1.7-15.12,7.59-28.06,20.71-36.73,6.56-4.33,14.18-5.86,21.85-6.82a71.39,71.39,0,0,1,11.14-.37c16.08.56,29.14,7.72,39.69,19.38C139.12,72.47,141.16,82.57,141.12,96.5ZM87.26,55.25a61.11,61.11,0,0,0-18.86,4.1,21.5,21.5,0,0,0-11.05,9.07,57.25,57.25,0,0,0-5.91,13.23c-4.37,15.08-.09,28.76,7.86,41.59A16.07,16.07,0,0,0,64.14,128a38.7,38.7,0,0,0,24.5,6.16c8.76-.77,17.43-3.58,24.18-9.91,5.18-4.86,10.62-9.6,13.65-16.27,3.53-7.77,3.89-15.89,2.92-24.28-.87-7.64-4.89-13.21-10.4-18-1.51-1.31-3.18-2.42-4.74-3.68C107.19,56.33,99.08,54.35,87.26,55.25Z"/></g></g></svg>