<svg xmlns="http://www.w3.org/2000/svg" viewBox="0 0 147.67 127.62"><g id="Layer_2" data-name="Layer 2"><g id="Layer_1-2" data-name="Layer 1"><path d="M128.39,125.61c-24.34,3.08-48.4,1.68-72.44,1.75-10.68,0-21.12-1.48-31.53-3.49-4.5-.87-9-1.84-13.42-2.94a52.41,52.41,0,0,1-7.34-2.39A5.61,5.61,0,0,1,0,112.35a28.29,28.29,0,0,1,1.24-5.83,27.42,27.42,0,0,1,2.26-4.62C12.06,86.67,20.7,71.5,29.11,56.2c5.55-10.08,12.62-19.09,19.68-28.08,6.71-8.53,14-16.65,21.11-24.84,3.56-4.09,6-4.28,10.26-1A96.74,96.74,0,0,1,103.9,29.19,515.7,515.7,0,0,1,131.06,81.8a46,46,0,0,0,3.48,6.86c6.51,9.66,9.63,20.68,12.82,31.65,1.13,3.87-.86,6.14-4.79,6C137.73,126.14,132.9,125.84,128.39,125.61ZM76.45,10.83c-3.11,3.71-6,7.25-9,10.66-13.83,15.76-26,32.62-35.75,51.26-5,9.63-10.81,18.86-16.15,28.33-1.81,3.2-3.29,6.57-5.13,10.29a55.08,55.08,0,0,0,6,2.24c15.66,3.68,31.48,6,47.62,6,12.89-.08,25.78,0,38.67,0a294.11,294.11,0,0,0,33.15-1.93c.23-.93.59-1.52.45-2-2.21-7.1-4.3-14.23-8.57-20.48a50.35,50.35,0,0,1-3.73-6.75c-5.45-11.35-10.7-22.8-16.29-34.09-6.1-12.31-12.89-24.22-21.56-35A41.83,41.83,0,0,0,76.45,10.83Z"/></g></g></svg>