<svg xmlns="http://www.w3.org/2000/svg" viewBox="0 0 111.6 146.36"><g id="Layer_2" data-name="Layer 2"><g id="Layer_1-2" data-name="Layer 1"><path d="M16,62.84c-3-3.79-5.5-7.28-8.36-10.43C.06,44.05.34,25.87,6.94,17c3.63-4.89,7.69-9.69,13-12.31C33.87-2.25,48.85-2.29,61,10.13a28.3,28.3,0,0,1,7.31,15.3c1.36,8.18,2.24,16.47-1.16,24.49a10,10,0,0,0-.44,2.36c.48.52.77,1.1,1.24,1.32,10.42,5,17.74,13.35,24.68,22.15,4.07,5.17,8,10.45,12,15.69,3.13,4.12,5.8,8.48,7,14.3-3.92,7.05-7.33,14.8-15.46,19.26-3.68,2-6.65,5.32-10,7.91a38.45,38.45,0,0,1-13.79,6.69c-6.91,1.8-13.74,3.93-20.71,5.45a63.87,63.87,0,0,1-25.58,0c-6.18-1.16-12.41-2.13-18.53-3.59-7.32-1.73-7.62-2.2-7.46-10A96.25,96.25,0,0,1,1.19,117c2-11.53,4.36-23,6.7-34.47a34.13,34.13,0,0,1,2.28-6.45C12,71.85,13.87,67.7,16,62.84Zm8.18,5.94A53.39,53.39,0,0,0,17.27,87c-1,5-2.19,10.06-3,15.13q-2,11.84-3.53,23.74c-.31,2.46-.87,5.15,1.24,7.82,7.88,2.26,16.2,4.21,24.79,4.61A39.87,39.87,0,0,0,47,137.71c16.61-3.68,32.64-8.66,45.17-21.18,3.68-3.68,6.89-7.52,8.51-12.46a34.62,34.62,0,0,0-2.42-4.8C90.5,88.65,83.19,77.66,73.68,68.46c-2.64-2.55-5.85-4.52-8.79-6.78s-5.65-2-8.42.56c-5.37,4.86-11.9,6.59-19,6.54C33.19,68.76,28.9,68.78,24.22,68.78ZM40.91,8.37c-11.14.09-18.73,3.73-24.16,11.72-4.79,7-6.16,14.6-2.49,22.67A48.8,48.8,0,0,0,25.39,57.82a10.87,10.87,0,0,0,5.26,2.61c6.45,1.2,12.54.14,17.73-4.19C62.05,44.83,63,28.18,52.81,14.17,49.84,10.07,45.63,7.62,40.91,8.37Z"/></g></g></svg>