<svg xmlns="http://www.w3.org/2000/svg" viewBox="0 0 163.19 152.85"><defs><style>.cls-1{fill:#fff;}</style></defs><g id="Layer_2" data-name="Layer 2"><g id="Layer_1-2" data-name="Layer 1"><path d="M163.19,63.21c-.19,7-2.69,13-6.5,18.52a22.62,22.62,0,0,1-13,9.35c-9.11,2.43-18.22,4.92-27.44,6.86-5.57,1.18-11.33,1.48-17,2a162.63,162.63,0,0,0-29.48,5.58,20.52,20.52,0,0,0-7.92,4.87,63.42,63.42,0,0,0-7.72,9.17q-7.8,10.78-15.26,21.83a42.38,42.38,0,0,1-10.24,10.24,5.36,5.36,0,0,1-5.63.75c-4.67-2-8.47-5-9.54-10.24-2.72-13.45-5.73-26.87-6.69-40.6a119.46,119.46,0,0,0-3.49-21A117.3,117.3,0,0,1,.2,62.8C-.89,51,2.57,40.16,8.81,30.19c2.5-4,5.68-7.1,10.49-8.28s9.35-2.64,14.06-3.84C44.71,15.18,56,12,67.48,9.62c16.26-3.36,32.63-6.11,49-9.09,7.87-1.44,15.4.23,22.76,2.82,9.23,3.24,14.29,10.48,16.64,19.42,2.17,8.28,3.39,16.81,4.92,25.26C161.68,53.07,162.39,58.15,163.19,63.21ZM25.44,137.45a16.62,16.62,0,0,0,2.62-2.12c3.39-4.62,6.64-9.34,10.08-13.92,5-6.64,10.08-13.18,15.14-19.76A18.7,18.7,0,0,1,64,94.94c6.1-1.49,12.26-2.89,18.47-3.84,8.47-1.3,17-1.95,25.53-3.25a159.5,159.5,0,0,0,31.55-8.12c5.9-2.19,9.39-6.6,10.86-12.4a26.53,26.53,0,0,0,.44-10.2q-2.4-15.69-5.58-31.28c-1.64-8-6.37-13.16-15-14.29-3.72-.48-7.27-1-11-.15-5,1.08-10.18,1.55-15.26,2.42C79.45,18.05,55,22.49,30.93,29.26c-6.46,1.82-11.21,5.25-14.11,11.44a45.42,45.42,0,0,0-3.35,31c2.21,9.18,4.08,18.45,5.69,27.75,1.16,6.75,1.49,13.64,2.5,20.42C22.5,125.45,23,131.18,25.44,137.45Z"/><path class="cls-1" d="M25.44,137.45c-2.4-6.27-2.94-12-3.78-17.63-1-6.78-1.34-13.67-2.5-20.42-1.61-9.3-3.48-18.57-5.69-27.75A45.42,45.42,0,0,1,16.82,40.7c2.9-6.19,7.65-9.62,14.11-11.44C55,22.49,79.45,18.05,104,13.83c5.08-.87,10.23-1.34,15.26-2.42,3.77-.82,7.32-.33,11,.15,8.62,1.13,13.35,6.25,15,14.29q3.19,15.57,5.58,31.28a26.53,26.53,0,0,1-.44,10.2c-1.47,5.8-5,10.21-10.86,12.4A159.5,159.5,0,0,1,108,87.85c-8.48,1.3-17.06,2-25.53,3.25-6.21,1-12.37,2.35-18.47,3.84a18.7,18.7,0,0,0-10.75,6.71c-5.06,6.58-10.16,13.12-15.14,19.76-3.44,4.58-6.69,9.3-10.08,13.92A16.62,16.62,0,0,1,25.44,137.45Z"/></g></g></svg>