<svg xmlns="http://www.w3.org/2000/svg" viewBox="0 0 128.98 208.95"><defs><style>.cls-1{fill:#fff;}</style></defs><g id="Layer_2" data-name="Layer 2"><g id="Layer_1-2" data-name="Layer 1"><path d="M1.51,12.07c2.88-3.52,7-4.22,10.86-4.82C22.55,5.68,32.75,4.17,43,3.28,59,1.91,75,.8,91,.12a208.32,208.32,0,0,1,25.71.82c7.17.61,9.82,4.12,9.92,11.36.05,3.44.09,6.87.25,10.3.32,7,2.89,13.8,1.91,21.09a155,155,0,0,0-1,20.57c0,14,.27,28,.38,42.05.13,16,.26,32,.29,48,0,12.88-.17,25.76-.13,38.64,0,7.91-3,11.69-10.82,12.44-6.27.6-12.57.84-18.87,1-11.73.36-23.47.48-35.2.86-7.14.23-14.3.57-21.42,1.2a155,155,0,0,1-24.85-.16c-4.6-.32-7.5-2.34-8.09-7.16-.38-3.12-1.16-6.21-1.37-9.33C6.55,174.46,5.54,157,4.41,139.63c-.92-14.28-2.13-28.54-2.83-42.82C.82,81.09.43,65.35,0,49.62c-.1-3.71.38-7.43.53-11.14C.89,29.64,1.19,20.81,1.51,12.07Zm9.38,6c0,5.41.07,10.54,0,15.67-.14,8.87-.67,17.74-.51,26.6.26,15.46,1,30.91,1.38,46.37.26,11.46.26,22.92,2.64,34.21a32.49,32.49,0,0,1,.28,5.14c.7,14,1.32,28,2.14,42.05.25,4.22.78,8.48,3,12.4a46.37,46.37,0,0,0,6.15.43c6.27-.41,12.53-1.23,18.81-1.49,18-.74,36.08-1.24,54.12-1.94,4.86-.19,9.72-.66,14.55-1.2a22.29,22.29,0,0,0,4.55-1.51c.27-13.36.66-26.23.76-39.11.13-16.61,0-33.23,0-49.84,0-15.76,0-31.52,0-47.27,0-9.69-.07-19.39-.24-29.08-.08-4.58-.44-9.15-.73-13.72-.11-1.65-.4-3.29-.64-5.22a35.35,35.35,0,0,0-4.47-.66c-6.31-.1-12.62-.32-18.91-.09-10.88.39-21.75,1-32.61,1.68-8.86.53-17.74.92-26.54,2C27,14.35,19.16,14.33,10.89,18.05Z"/><path class="cls-1" d="M10.89,18.05c8.27-3.72,16.12-3.7,23.74-4.61,8.8-1,17.68-1.44,26.54-2C72,10.81,82.9,10.18,93.78,9.79c6.29-.23,12.6,0,18.91.09a35.35,35.35,0,0,1,4.47.66c.24,1.93.53,3.57.64,5.22.29,4.57.65,9.14.73,13.72.17,9.69.22,19.39.24,29.08,0,15.75,0,31.51,0,47.27,0,16.61.09,33.23,0,49.84-.1,12.88-.49,25.75-.76,39.11a22.29,22.29,0,0,1-4.55,1.51c-4.83.54-9.69,1-14.55,1.2-18,.7-36.08,1.2-54.12,1.94-6.28.26-12.54,1.08-18.81,1.49a46.37,46.37,0,0,1-6.15-.43c-2.23-3.92-2.76-8.18-3-12.4-.82-14-1.44-28-2.14-42.05a32.49,32.49,0,0,0-.28-5.14C12,129.61,12,118.15,11.74,106.69c-.35-15.46-1.12-30.91-1.38-46.37-.16-8.86.37-17.73.51-26.6C11,28.59,10.89,23.46,10.89,18.05ZM26,192.32c1.7.1,3.94.39,6.17.34,6.86-.15,13.73-.43,20.59-.65,15.73-.49,31.46-1.32,47.19-1.29,6.44,0,11-2,14.73-7.45-.29-10.93,0-22.13-1-33.23-2.54-30-2.63-60-2.3-90.12.13-11.73-.38-23.47-.74-35.2-.13-4.25-1.16-5.5-5.4-6.51A44.86,44.86,0,0,0,96,17c-8.09-.17-10.3,2-10.66,9.88-.07,1.61-.29,3.21-.48,5.32-7.3.62-14.11,1.38-20.93,1.71s-13.38,2.47-20.55,1.33c-.39-2.9-.66-5.43-1.08-7.93-.67-4-2.81-6.37-6.72-6.61A136.56,136.56,0,0,0,21,20.78c-2.64.13-4.18,1.76-4.54,4.34A44.8,44.8,0,0,0,16.05,32c.45,22.87.75,45.75,1.52,68.61.49,14.59,1.23,29.2,2.74,43.71,1.39,13.38,3.22,26.7,3.26,40.19C23.58,187,23.61,189.68,26,192.32Z"/><path d="M26,192.32c-2.41-2.64-2.44-5.28-2.45-7.84,0-13.49-1.87-26.81-3.26-40.19-1.51-14.51-2.25-29.12-2.74-43.71C16.8,77.72,16.5,54.84,16.05,32a44.8,44.8,0,0,1,.36-6.85c.36-2.58,1.9-4.21,4.54-4.34a136.56,136.56,0,0,1,14.59-.05c3.91.24,6.05,2.64,6.72,6.61.42,2.5.69,5,1.08,7.93,7.17,1.14,13.83-1,20.55-1.33s13.63-1.09,20.93-1.71c.19-2.11.41-3.71.48-5.32C85.66,19,87.87,16.86,96,17a44.86,44.86,0,0,1,9.31,1.18c4.24,1,5.27,2.26,5.4,6.51.36,11.73.87,23.47.74,35.2-.33,30.07-.24,60.11,2.3,90.12,1,11.1.7,22.3,1,33.23-3.76,5.46-8.29,7.46-14.73,7.45-15.73,0-31.46.8-47.19,1.29-6.86.22-13.73.5-20.59.65C30,192.71,27.72,192.42,26,192.32Zm77.65-11.17a14.94,14.94,0,0,0,.69-3c-.15-12.6.09-25.22-.62-37.79-1.41-24.89-1.68-49.78-1.28-74.7.18-11.16-.1-22.33-.22-33.5a17.82,17.82,0,0,0-.57-4.24c-.41-1.59-3.06-2.79-5-2.39-1.7.35-2.17,1.68-2.19,3.2,0,3.12,0,6.24,0,9.47a12.93,12.93,0,0,1-9.05,3.71c-11.14.34-22.27,1.52-33.36,2.75a26.51,26.51,0,0,1-17.53-3.87c-.44-3.14-.91-6.48-1.35-9.6a6.78,6.78,0,0,0-7.77-1,24,24,0,0,0-.33,4c1.4,16.84,1.5,33.71,1.67,50.58.16,15.75.61,31.48,2.21,47.17,1.27,12.53,2.34,25.08,3.31,37.63.37,4.83,1.19,9.52,1.93,13.77.81.54,1.06.86,1.27.83,21.67-2.47,43.45-1.84,65.18-2.44A20.46,20.46,0,0,0,103.67,181.15Z"/><path class="cls-1" d="M103.67,181.15a20.46,20.46,0,0,1-3.06.62c-21.73.6-43.51,0-65.18,2.44-.21,0-.46-.29-1.27-.83-.74-4.25-1.56-8.94-1.93-13.77-1-12.55-2-25.1-3.31-37.63-1.6-15.69-2.05-31.42-2.21-47.17-.17-16.87-.27-33.74-1.67-50.58a24,24,0,0,1,.33-4,6.78,6.78,0,0,1,7.77,1c.44,3.12.91,6.46,1.35,9.6A26.51,26.51,0,0,0,52,44.69c11.09-1.23,22.22-2.41,33.36-2.75a12.93,12.93,0,0,0,9.05-3.71c0-3.23,0-6.35,0-9.47,0-1.52.49-2.85,2.19-3.2,2-.4,4.63.8,5,2.39a17.82,17.82,0,0,1,.57,4.24c.12,11.17.4,22.34.22,33.5-.4,24.92-.13,49.81,1.28,74.7.71,12.57.47,25.19.62,37.79A14.94,14.94,0,0,1,103.67,181.15Z"/></g></g></svg>