<svg xmlns="http://www.w3.org/2000/svg" viewBox="0 0 69.6 124.2"><defs><style>.cls-1{fill:#fff;}</style></defs><g id="Layer_2" data-name="Layer 2"><g id="Layer_1-2" data-name="Layer 1"><path d="M12.08,4.43c4.41-4.67,6.75-5.52,11.66-3.16A62.92,62.92,0,0,1,34,7.51c7.62,5.65,14,12.66,20,19.9a40.7,40.7,0,0,1,5.9,10.37c6.65,16,11.28,32.36,9.25,50-1.26,10.87-4.63,20.79-13.43,27.79-12.64,10.06-26.31,11.1-40.16,4.37-6.8-3.29-10.65-9.54-12.73-16.55A63.17,63.17,0,0,1,4.18,62.15a76,76,0,0,1,3.35-7.88c6.24-12.07,7.4-25.1,7.08-38.32C14.53,12.39,13.1,8.86,12.08,4.43ZM26.46,17.72c-.7,5.31-1.25,9.21-1.71,13.12-1.16,9.73-3.24,19.34-8.22,27.78C10.7,68.52,9.44,79,10.35,90c.89,10.75,6.86,18,16.72,21.87,7.59,3,19.55-.1,24.3-6.42,4-5.3,6.78-11.23,7.3-18a91.1,91.1,0,0,0-2.19-26.36C52.58,43,41.93,29.89,26.46,17.72Z"/><path class="cls-1" d="M26.46,17.72C41.93,29.89,52.58,43,56.48,61.07a91.1,91.1,0,0,1,2.19,26.36c-.52,6.81-3.32,12.74-7.3,18-4.75,6.32-16.71,9.43-24.3,6.42C17.21,108,11.24,100.77,10.35,90c-.91-11,.35-21.5,6.18-31.4,5-8.44,7.06-18,8.22-27.78C25.21,26.93,25.76,23,26.46,17.72Z"/></g></g></svg>