<svg xmlns="http://www.w3.org/2000/svg" viewBox="0 0 154.05 177.16"><defs><style>.cls-1{fill:#fff;}</style></defs><g id="Layer_2" data-name="Layer 2"><g id="Layer_1-2" data-name="Layer 1"><path d="M115.82,139.08c-.59,5.89-1,11.85-1.87,17.75a31.25,31.25,0,0,1-2.63,8.07A18.79,18.79,0,0,1,100.07,175c-9.31,3.29-18.38,3.21-27.14-2.35C65.71,168,61,162.13,60,153.45c-.31-2.79-1.06-5.52-1.72-8.84-4.82,1-9.2,2-13.61,2.86-7.32,1.42-14.16,0-20.73-3.39-8.4-4.39-11.35-11.76-11.34-20.6,0-5.82,1.47-11.3,5.29-16,2.12-2.62,4-5.47,6.2-8.59-2.77-1.44-5-2.62-7.29-3.78C-1,86-5.45,64.87,7.25,49.44a14.24,14.24,0,0,1,5.2-4.29c7.52-3,15.27-4.91,23.42-2.49a36.84,36.84,0,0,0,4.18.85c.24.05.52-.11,1.14-.27a53.18,53.18,0,0,0,0-5.64,45.63,45.63,0,0,1,1.19-16.16,21.33,21.33,0,0,1,8.52-12.5A47.1,47.1,0,0,1,78.17,0C89.9-.09,101.7,8.55,105.78,19.79,108,25.8,109,32,107.89,38.34c-.23,1.32-.37,2.65-.68,4.89,3.54-.9,6.2-1.6,8.88-2.26,8.6-2.1,17-1.95,25,2.26,11.69,6.13,16.45,20.81,10.08,32.32-2.18,4-5.23,7.46-8,11.06a47.85,47.85,0,0,1-4.1,4.2c.4,2.93,2.85,3.75,4.43,5.22a22.5,22.5,0,0,1,.78,32.2c-7.35,7.54-15.83,12.15-26.8,10.38C117,138.53,116.45,138.89,115.82,139.08Zm-5.95-49.92c1.35-7.4-1.83-14-6.62-20-2.32-2.93-4.7-5.79-9.22-5.06a5.76,5.76,0,0,1-3.9-1.37c-6.18-5-13.33-4.48-20.39-3.48a11.75,11.75,0,0,0-8.46,5.38C58.55,69,55.6,73.17,52.92,77.54a16,16,0,0,0-1.76,4.79C48,96,56.2,114.8,68.33,121.73a29.58,29.58,0,0,0,11.29,3.89c11,1.31,24.12-7.82,27-17.35C108.52,102.23,110.22,96.18,109.87,89.16ZM91.49,51c4.81-5.14,5.21-11.65,4.91-18.24-.32-6.83-3.3-12.51-8-17.47-6.07-6.38-12.81-8.11-20.8-4-1.52.79-3.09,1.48-4.66,2.15-5.39,2.33-8.38,6.65-10.09,12C49.56,35.88,52.56,45,58.12,53.58,79.62,47.66,77.31,49.77,91.49,51ZM51.67,63c-4.73-4.27-9.57-6.7-14.33-9.29a20.4,20.4,0,0,0-12.5-2,14.25,14.25,0,0,0-12.79,12c-1.12,7.48.62,14.14,6.32,19.57a38.52,38.52,0,0,0,16.42,8.92c1.15.34,2.59-.34,4.07-.57C39.44,80.34,45.44,71.92,51.67,63ZM71,134.57c-1.41,5.84-.85,10.66.06,15.44,1.9,9.92,8.72,15,17.77,17.81a9.07,9.07,0,0,0,4.18.06c5.13-1,7.85-4.54,9-9.27,1.33-5.3,2.08-10.79.84-16.16-.86-3.73-1-8-4.5-11C89.79,135.85,80.58,134.84,71,134.57Zm52.31-46.14c2.53-.71,4.65-.83,6.23-1.82a27,27,0,0,0,12-15c2.88-9.22-.49-15.26-8.28-20.31a16.73,16.73,0,0,0-14.78-2,68.2,68.2,0,0,0-8.63,3.68c-1.45.71-3.06,1.59-2.93,3.67C122.11,72.07,120.47,73.76,123.28,88.43ZM39.35,102.38c-5.52,1.06-10.25,3.21-13.23,8.25-3.47,5.89-3.21,11.93-.69,18.05,3,7.33,11.87,12.13,19.48,10.12A135.16,135.16,0,0,0,58.57,134c1.19-.46,2.69-1,2.59-2.36-4.55-4.43-9.38-8.12-12.85-12.82C44.68,113.89,42.35,108,39.35,102.38Zm70.27,21.24c4.32,4.45,4.92,5,8.09,5.43a48.22,48.22,0,0,0,7.68.62,13.19,13.19,0,0,0,12.77-11.58,31.8,31.8,0,0,0-.18-6.82,14.09,14.09,0,0,0-11.2-12.4c-3.15-.64-5.2.24-6,3.26A51.3,51.3,0,0,1,109.62,123.62Z"/><path class="cls-1" d="M109.87,89.16c.35,7-1.35,13.07-3.21,19.11-2.92,9.53-16,18.66-27,17.35a29.58,29.58,0,0,1-11.29-3.89C56.2,114.8,48,96,51.16,82.33a16,16,0,0,1,1.76-4.79c2.68-4.37,5.63-8.57,8.36-12.92a11.75,11.75,0,0,1,8.46-5.38c7.06-1,14.21-1.5,20.39,3.48A5.76,5.76,0,0,0,94,64.09c4.52-.73,6.9,2.13,9.22,5.06C108,75.17,111.22,81.76,109.87,89.16Z"/><path class="cls-1" d="M91.49,51c-14.18-1.23-11.87-3.34-33.37,2.58-5.56-8.6-8.56-17.7-5.28-28.09,1.71-5.39,4.7-9.71,10.09-12,1.57-.67,3.14-1.36,4.66-2.15,8-4.12,14.73-2.39,20.8,4,4.71,5,7.69,10.64,8,17.47C96.7,39.35,96.3,45.86,91.49,51Z"/><path class="cls-1" d="M51.67,63c-6.23,9-12.23,17.39-12.81,28.63-1.48.23-2.92.91-4.07.57a38.52,38.52,0,0,1-16.42-8.92c-5.7-5.43-7.44-12.09-6.32-19.57a14.25,14.25,0,0,1,12.79-12,20.4,20.4,0,0,1,12.5,2C42.1,56.25,46.94,58.68,51.67,63Z"/><path class="cls-1" d="M71,134.57c9.61.27,18.82,1.28,27.38-3.17,3.51,3.08,3.64,7.32,4.5,11,1.24,5.37.49,10.86-.84,16.16-1.18,4.73-3.9,8.31-9,9.27a9.07,9.07,0,0,1-4.18-.06c-9-2.77-15.87-7.89-17.77-17.81C70.12,145.23,69.56,140.41,71,134.57Z"/><path class="cls-1" d="M123.28,88.43c-2.81-14.67-1.17-16.36-16.39-31.83-.13-2.08,1.48-3,2.93-3.67a68.2,68.2,0,0,1,8.63-3.68,16.73,16.73,0,0,1,14.78,2c7.79,5,11.16,11.09,8.28,20.31a27,27,0,0,1-12,15C127.93,87.6,125.81,87.72,123.28,88.43Z"/><path class="cls-1" d="M39.35,102.38c3,5.63,5.33,11.51,9,16.41,3.47,4.7,8.3,8.39,12.85,12.82.1,1.33-1.4,1.9-2.59,2.36a135.16,135.16,0,0,1-13.66,4.83c-7.61,2-16.47-2.79-19.48-10.12-2.52-6.12-2.78-12.16.69-18.05C29.1,105.59,33.83,103.44,39.35,102.38Z"/><path class="cls-1" d="M109.62,123.62a51.3,51.3,0,0,0,11.2-21.49c.76-3,2.81-3.9,6-3.26a14.09,14.09,0,0,1,11.2,12.4,31.8,31.8,0,0,1,.18,6.82,13.19,13.19,0,0,1-12.77,11.58,48.22,48.22,0,0,1-7.68-.62C114.54,128.58,113.94,128.07,109.62,123.62Z"/></g></g></svg>