<svg xmlns="http://www.w3.org/2000/svg" viewBox="0 0 70.77 245.07"><defs><style>.cls-1{fill:#fff;}</style></defs><g id="Layer_2" data-name="Layer 2"><g id="Layer_1-2" data-name="Layer 1"><path d="M49,205.81c4.56,1.45,8.34,2.78,12.19,3.82s6.3,3.61,7.87,7.26a19.63,19.63,0,0,1,1.46,10.93c-.68,4.4-2.5,8.35-6.66,10.48-3.79,1.94-7.67,4.13-11.77,5-13.41,2.87-26.73,2.46-39.64-2.82a21.88,21.88,0,0,1-8.33-5.92,16.21,16.21,0,0,1,5.75-25.78c4.4-1.84,9.13-2.88,14.38-4.49.26-1.65.71-3.84.93-6.05,1.6-16.17-.43-32-4.33-47.68-2.22-8.89-5.09-17.61-7.42-26.47C11,114.7,8.54,105.27,6.56,95.76A122.55,122.55,0,0,1,5.88,50.5c1.82-11,3.79-22,5.13-33.07,1.09-9,6.4-13.77,14.5-16A40.39,40.39,0,0,1,44.25.82a24.37,24.37,0,0,1,7.06,3,9.6,9.6,0,0,1,5.06,8.44c.53,15.21,4.49,30,5.9,45.06,1.22,13.15,2.19,26.4.42,39.46-1.54,11.29-4.7,22.38-7.33,33.51-2.76,11.71-5.25,23.47-5.85,35.5-.58,11.44-.64,22.9-.88,34.35C48.59,201.85,48.85,203.54,49,205.81ZM18.94,19.32a35.29,35.29,0,0,0-1.37,4.89c-1.62,12.49-3.41,25-4.63,37.48A121.47,121.47,0,0,0,15.25,101c2.64,11.42,6.12,22.64,9.1,34,2.26,8.56,4.94,17.08,6.3,25.79S35.06,178,32.56,187c1.9,5.68.14,11.36,0,17-.12,5.87-.32,8.12-8,7.89a16.91,16.91,0,0,0-9.89,2.34c-7.12,4.56-7.76,11.31-1.64,16.8a16.56,16.56,0,0,0,7.5,3.9c10.86,2.56,21.62,1.91,32.26-1a28.08,28.08,0,0,0,7.6-3.9c3-2,3.84-4.94,2.71-8.26-1-2.89-2.8-5.08-5.89-5.69-2.5-.5-5.08-.64-7.63-.89-4.39-.42-7.52-3-8.34-7.23a22.59,22.59,0,0,1-.25-4.28c0-11.45-.25-22.91.08-34.36.37-13.18,1.66-26.35,5.26-39.06,3.2-11.29,6.05-22.62,8.45-34.11A64.68,64.68,0,0,0,56,77.47c-1.12-13.39-2.22-26.8-3.64-40.17a75.29,75.29,0,0,0-3.79-17.55c-5.21.35-10,1-14.87.9S24.14,19.82,18.94,19.32Zm2.95-8.89c9.27,4,10.76,4.15,21.21,2,1.18-.25,2.18-1.32,3.8-2.35C40.11,6.25,33.49,7.4,27.07,7.49,25.7,7.5,24.35,9,21.89,10.43Z"/><path class="cls-1" d="M18.65,19.37c5.21.48,10,1.23,14.75,1.29s9.65-.59,14.87-.95A75.28,75.28,0,0,1,52.1,37.26C53.56,50.62,54.69,64,55.85,77.41a64.39,64.39,0,0,1-1.11,18.76c-2.36,11.49-5.18,22.83-8.35,34.13-3.56,12.72-4.81,25.89-5.15,39.08-.3,11.44,0,22.9,0,34.35a21.79,21.79,0,0,0,.26,4.28c.83,4.19,4,6.8,8.36,7.21,2.55.24,5.13.38,7.63.86,3.09.61,4.91,2.8,5.9,5.68,1.15,3.32.32,6.29-2.68,8.26a27.76,27.76,0,0,1-7.6,3.93c-10.62,2.91-21.39,3.59-32.25,1.06a16.57,16.57,0,0,1-7.5-3.88c-6.14-5.47-5.52-12.22,1.58-16.8A16.93,16.93,0,0,1,24.85,212c7.67.21,7.86-2.05,8-7.91.1-5.69,1.85-11.37-.07-17,2.47-9-.62-17.62-2-26.26S26.67,143.54,24.39,135c-3-11.32-6.53-22.53-9.2-33.94a121.46,121.46,0,0,1-2.42-39.28c1.19-12.53,2.94-25,4.53-37.5A34.77,34.77,0,0,1,18.65,19.37Z"/><path class="cls-1" d="M22.12,10.41C24.58,9,25.93,7.49,27.3,7.47c6.42-.07,13.05-1.2,19.83,2.6-1.63,1-2.63,2.1-3.81,2.35C32.87,14.58,31.37,14.43,22.12,10.41Z"/></g></g></svg>