<svg xmlns="http://www.w3.org/2000/svg" viewBox="0 0 218.46 90.07"><defs><style>.cls-1{fill:#fff;}</style></defs><g id="Layer_2" data-name="Layer 2"><g id="Layer_1-2" data-name="Layer 1"><path d="M104.4,25.51c1.33-2.25,2.49-4.54,3.94-6.62C114.94,9.4,123.25,2.07,135.16.68a76.42,76.42,0,0,1,19.7-.07,285.47,285.47,0,0,1,58.88,15.17,29.62,29.62,0,0,1,3.57,1.82c2.71,5.85.23,10.07-3.34,14.23-14.21,16.56-31.53,29-51,38.61-14.26,7.09-29.58,10.69-45,13.78A294.56,294.56,0,0,1,72,90a132.88,132.88,0,0,1-53-8.43c-4-1.52-8-3-12.13-4.29S.51,73.6,0,69.47c1.12-3,1.86-6.06,3.41-8.71a70.23,70.23,0,0,1,7.82-11.18A177.45,177.45,0,0,1,42.87,22a47.77,47.77,0,0,1,21.29-8.27c14.39-2,26.55,2,37.65,10.66A12.08,12.08,0,0,0,104.4,25.51ZM189.81,20l-.12-1.76c-4.33-1.21-8.6-2.68-13-3.57-9.53-1.94-19-4-28.87-4.18-13.46-.21-22.71,6.75-29.78,17.19-2.35,3.48-3.44,7.81-5.16,11.72-1.57,3.57-4.59,4.56-7.6,2.21a79.19,79.19,0,0,1-8.94-8c-8-8.47-17.76-11.34-28.93-9.08a40.21,40.21,0,0,0-17.8,8.09q-11.3,9.24-22.56,18.53c-2,1.61-4,3.22-4.54,5.91.55.24,1,.67,1.48.63,19.38-1.91,38.85-3,58-7.19,4.19-.92,8.5-1.27,12.73-2,13.83-2.39,27.6-5,41-9.52,11.39-3.83,22.81-7.57,34.17-11.5C176.51,25.11,183.14,22.49,189.81,20Zm8.32,10a71.31,71.31,0,0,0-7,1.57c-9.72,3.42-19.36,7-29.09,10.39-13.24,4.58-26.29,9.72-40.1,12.51C110.4,56.77,99,59.59,87.34,61,72,62.89,56.73,65.21,41.42,67.3c-3.68.51-7.38.93-11.08,1.31s-7.15.65-10.74,1c.14.81.12,1.27.24,1.31,6.45,2.25,12.77,5,19.38,6.55C51.6,80.38,64.3,80.15,76.85,79a323.12,323.12,0,0,0,43.27-6.47c11.43-2.62,22.81-5.29,33.48-10.48,15-7.31,29.09-16,41.12-27.67A49.38,49.38,0,0,0,198.13,30Z"/><path class="cls-1" d="M189.81,20c-6.67,2.49-13.3,5.11-20,7.44-11.36,3.93-22.78,7.67-34.17,11.5-13.35,4.49-27.12,7.13-40.95,9.52-4.23.74-8.54,1.09-12.73,2C62.84,54.66,43.37,55.75,24,57.66c-.44,0-.93-.39-1.48-.63.57-2.69,2.58-4.3,4.54-5.91q11.27-9.28,22.56-18.53a40.21,40.21,0,0,1,17.8-8.09c11.17-2.26,20.94.61,28.93,9.08a79.19,79.19,0,0,0,8.94,8c3,2.35,6,1.36,7.6-2.21,1.72-3.91,2.81-8.24,5.16-11.72,7.07-10.44,16.32-17.4,29.78-17.19,9.84.16,19.34,2.24,28.87,4.18,4.4.89,8.67,2.36,13,3.57Z"/><path class="cls-1" d="M198.13,30a49.38,49.38,0,0,1-3.41,4.43c-12,11.7-26.09,20.36-41.12,27.67-10.67,5.19-22,7.86-33.48,10.48A323.12,323.12,0,0,1,76.85,79C64.3,80.15,51.6,80.38,39.22,77.45c-6.61-1.56-12.93-4.3-19.38-6.55-.12,0-.1-.5-.24-1.31,3.59-.33,7.17-.61,10.74-1s7.4-.8,11.08-1.31C56.73,65.21,72,62.89,87.34,61c11.68-1.42,23.06-4.24,34.55-6.57,13.81-2.79,26.86-7.93,40.1-12.51,9.73-3.37,19.37-7,29.09-10.39A71.31,71.31,0,0,1,198.13,30Z"/></g></g></svg>