<svg xmlns="http://www.w3.org/2000/svg" viewBox="0 0 119.44 113.94"><defs><style>.cls-1{fill:#fff;}</style></defs><g id="Layer_2" data-name="Layer 2"><g id="Layer_1-2" data-name="Layer 1"><path d="M63.47,113.73c-3.44,0-6.88,0-10.31,0-7.68.13-14.71-2.23-21.27-5.87C18.1,100.21,8.65,88.62,2.59,74.21A31.66,31.66,0,0,1,.36,65.1a70.7,70.7,0,0,1,5.78-36C11.73,16.5,21.48,7.82,34.23,2.68A38.52,38.52,0,0,1,55.35.62,27.41,27.41,0,0,1,65.51,4.84c5.23,3.46,4.42,10.34-1.35,13-3.95,1.81-7.48,3.8-10.18,7.48-8.14,11.07-7,22.59,2.51,32.45,9.28,9.57,27,7.92,34.18-2.23.82-1.17,1.59-2.37,2.4-3.55,5.09-7.44,12.81-8.25,19.64-2.26,4.6,4,7,8.88,6.7,15.08C118.53,82.22,111,96.29,97,106.33c-6.64,4.76-14.34,8.38-23.21,7.47a101.06,101.06,0,0,0-10.3-.06Zm41.24-56.11c-2.06,2.14-4.11,4.43-6.32,6.55-9.69,9.34-21,12-34,8.49-8.4-2.27-14.62-7.61-20.09-14-6.89-8.06-8.38-17.28-5.39-27.32C41,24.23,45.6,18.82,51.07,14c1.14-1,3.38-1.31,2.8-3.78C51.58,8.71,49,9,46.54,9.47A40.64,40.64,0,0,0,24.43,21.86c-12.06,13-13.87,28.91-11.88,45.67a17.53,17.53,0,0,0,1.46,4c3,7.59,7.94,14,13.29,19.87,5.18,5.68,11.37,10.52,19.34,12.08,9.64,1.88,19.36,1.26,29.06.85a12.85,12.85,0,0,0,3.32-.88c7.79-2.62,14.17-6.86,18.88-14A55.44,55.44,0,0,0,107.06,64C107.27,61.79,107.57,59.31,104.71,57.62Z"/><path class="cls-1" d="M104.71,57.62c2.86,1.69,2.56,4.17,2.35,6.35A55.44,55.44,0,0,1,97.9,89.48c-4.71,7.11-11.09,11.35-18.88,14a12.85,12.85,0,0,1-3.32.88c-9.7.41-19.42,1-29.06-.85-8-1.56-14.16-6.4-19.34-12.08C22,85.53,17,79.12,14,71.53a17.53,17.53,0,0,1-1.46-4c-2-16.76-.18-32.64,11.88-45.67A40.64,40.64,0,0,1,46.54,9.47c2.47-.5,5-.76,7.33.77.58,2.47-1.66,2.79-2.8,3.78-5.47,4.8-10,10.21-12.15,17.32-3,10-1.5,19.26,5.39,27.32,5.47,6.39,11.69,11.73,20.09,14,12.94,3.5,24.3.85,34-8.49C100.6,62.05,102.65,59.76,104.71,57.62Z"/></g></g></svg>