<svg xmlns="http://www.w3.org/2000/svg" viewBox="0 0 149.42 135.62"><defs><style>.cls-1{fill:#fff;}</style></defs><g id="Layer_2" data-name="Layer 2"><g id="Layer_1-2" data-name="Layer 1"><path d="M106.27,32.35c6.92,1.34,13.07,2.5,19.22,3.71,9.2,1.8,15.1,7.77,19.18,15.73,3,5.9,5,12.13,4.73,18.95a25.91,25.91,0,0,1-9.1,19.61,41.23,41.23,0,0,1-20,9.36c-4.46.84-9,1.2-14,1.84a46.38,46.38,0,0,0-1.89,13.22,9.64,9.64,0,0,1-4.48,8.75c-4,2.67-8.1,5.62-12.59,7.18-13.72,4.77-27.95,5.72-42.38,4.35a71.74,71.74,0,0,1-18.33-4.3,26.55,26.55,0,0,1-12.08-9.24c-6.34-8.28-8.72-18-9.88-28a190.76,190.76,0,0,1-1-36c.46-6.25-.11-12.6-.5-18.88A26.17,26.17,0,0,0,1.41,32.1c-2.51-7.43-2-10,4-15.09A50.7,50.7,0,0,1,20.33,8.64C29.73,5,39.56,3.12,49.42,1.3A80,80,0,0,1,75.94.93C86,2.44,93.86,8.11,100.77,15.16a13.72,13.72,0,0,1,3.83,8.45C104.89,26.44,105.65,29.23,106.27,32.35Zm22.16,50.24c-5.68,1.6-11.23,3.75-17.21,4.16-.47,0-.87,1-1.8,2.14,6.75-.41,12.44-1.62,17.7-4.49.57-.31.76-1.31,1.14-2,4.14-.92,4.67-1.54,4.91-5.75a3,3,0,0,0,3.27-2.14c1.86-4.68,1.46-9.46.78-14.33a12.14,12.14,0,0,0-8-10.24,51.94,51.94,0,0,0-16.58-3.86,5.53,5.53,0,0,0-2.51.31c-.66.31-1.59,1.13-1.54,1.65a4.19,4.19,0,0,0,1.29,2.79c.83.6,2.15.59,3.27.71,2.55.26,5.12.35,7.67.65,7,.81,10.94,5.54,13.86,11.37a6,6,0,0,1,.43,3.3c-.49,3.36-1.19,6.68-1.75,10.07ZM92.06,23.48c-.18,2.26-.52,4.41-.5,6.56,0,6.63-3.51,10.54-9.35,12.91a66.39,66.39,0,0,1-28.46,5c-6.28-.3-12.56-.93-18.78-1.83-10.15-1.49-15.89-8-17.44-19.28-.16-1.21,1.38-2.67-.6-3.59-3.26,2.3-3.3,2.3-3.24,5.11.31,15.43.61,30.86,1,46.29.16,6.57.22,13.17.89,19.7a73.54,73.54,0,0,0,2.87,12.47,14.94,14.94,0,0,0,8.3,9.37,58.32,58.32,0,0,0,15.31,5.29,103.7,103.7,0,0,0,27.36.74c8.89-.82,17.44-3.11,24.51-9.41.18-1.07.44-2.18.53-3.31,1-12.54,1.77-25.09,2.89-37.62a155,155,0,0,0-2-43.53C95,26.49,95.24,24.24,92.06,23.48Zm-63.31,7c1.9,1.15,3,2.23,4.19,2.45,5,.9,10.14,1.42,15.19,2.3A63.84,63.84,0,0,0,72,34.45a40.19,40.19,0,0,0,6.5-2.05,4.09,4.09,0,0,0,1.68-1.78,3.47,3.47,0,0,0-2.61-5.14C63,23.14,48.58,22.64,34.37,27.14,32.61,27.69,31.11,29.06,28.75,30.51ZM125,66.8a44.79,44.79,0,0,0-5.89-2.56,17.64,17.64,0,0,0-5-.43c-1.85.06-3.7.41-5.85.67.08,3.5-1,6.52.75,9.36,4.36.93,8-.82,11.47-2.59C122,70.46,123.09,68.71,125,66.8Z"/><path class="cls-1" d="M92.06,23.48c3.18.76,2.93,3,3.29,4.9a155,155,0,0,1,2,43.53C96.22,84.44,95.42,97,94.45,109.53c-.09,1.13-.35,2.24-.53,3.31-7.07,6.3-15.62,8.59-24.51,9.41a103.7,103.7,0,0,1-27.36-.74,58.32,58.32,0,0,1-15.31-5.29,14.94,14.94,0,0,1-8.3-9.37,73.54,73.54,0,0,1-2.87-12.47c-.67-6.53-.73-13.13-.89-19.7-.38-15.43-.68-30.86-1-46.29-.06-2.81,0-2.81,3.24-5.11,2,.92.44,2.38.6,3.59C19.08,38.15,24.82,44.66,35,46.15c6.22.9,12.5,1.53,18.78,1.83a66.39,66.39,0,0,0,28.46-5c5.84-2.37,9.39-6.28,9.35-12.91C91.54,27.89,91.88,25.74,92.06,23.48Z"/><path class="cls-1" d="M28.75,30.51c2.36-1.45,3.86-2.82,5.62-3.37,14.21-4.5,28.67-4,43.15-1.66a3.47,3.47,0,0,1,2.61,5.14,4.09,4.09,0,0,1-1.68,1.78A40.19,40.19,0,0,1,72,34.45a63.84,63.84,0,0,1-23.82.81C43.08,34.38,38,33.86,32.94,33,31.72,32.74,30.65,31.66,28.75,30.51Z"/><path class="cls-1" d="M133.33,76.89c.61-3.33,1.31-6.65,1.8-10a6,6,0,0,0-.43-3.3c-2.92-5.83-6.82-10.56-13.86-11.37-2.55-.3-5.12-.39-7.67-.65-1.12-.12-2.44-.11-3.27-.71a4.19,4.19,0,0,1-1.29-2.79c0-.52.88-1.34,1.54-1.65a5.53,5.53,0,0,1,2.51-.31A51.94,51.94,0,0,1,129.24,50a12.14,12.14,0,0,1,8,10.24c.68,4.87,1.08,9.65-.78,14.33a3,3,0,0,1-3.27,2.14Z"/><path class="cls-1" d="M128.25,82.41c-.37.68-.56,1.68-1.13,2-5.26,2.87-11,4.08-17.7,4.49.93-1.15,1.33-2.1,1.8-2.14,6-.41,11.53-2.56,17.22-4.16Z"/><path class="cls-1" d="M133.17,76.67c-.24,4.21-.77,4.83-4.91,5.74l.18.18c1.64-1.88,3.29-3.76,4.91-5.67Z"/></g></g></svg>