<svg xmlns="http://www.w3.org/2000/svg" viewBox="0 0 172.64 139.49"><defs><style>.cls-1{fill:#fff;}</style></defs><g id="Layer_2" data-name="Layer 2"><g id="Layer_1-2" data-name="Layer 1"><path d="M63.12,103.47a251.1,251.1,0,0,0-40.24,36c-5,0-6.94-3.61-7.81-7.57-1.53-7-2.68-14.06-3.66-21.14C9.12,94.34,6.63,77.92,5,61.41,3.74,48.86,1.82,36.44.07,24a23.45,23.45,0,0,1,0-3.24c1.35-2.06,3.09-2.51,5.28-2.19,4.57.66,9,1.7,12.94,4.23q11.6,7.38,23.24,14.67c1.88,1.18,3.91,2.12,5.94,3.2a45.16,45.16,0,0,0,8.39-10.22c5.49-8.57,13.18-15,20.94-21.37a5.11,5.11,0,0,1,6.38-.45,81.66,81.66,0,0,1,9.74,6.92c4.54,3.92,8.74,8.24,13.13,12.35a43.5,43.5,0,0,0,3.52,2.66c2.69-2.58,5.14-4.94,7.6-7.28,6.65-6.3,13.32-12.57,19.93-18.91,3.29-3.16,7-4.83,11.66-4.23,2.57.33,4.27,1.58,4.83,4.12.73,3.36,1,6.83,2.06,10.09,4,13,5.07,26.38,6.67,39.73,1.23,10.22,2.27,20.47,3.83,30.64,1.83,11.88,4.08,23.68,6.26,35.5.72,3.85,0,6.79-4,8.22-12.1-4.29-22.18-11.69-31.69-20a29.67,29.67,0,0,0-4.77-3.62c-3.21-1.83-6.57-3.4-10.18-5.24a44.74,44.74,0,0,0-4.49,4c-4.82,5.66-9.54,11.41-14.25,17.18-2.54,3.12-5.23,6-9,7.91-4-.37-6.51-3.31-9.19-5.83-5-4.7-9.88-9.53-14.93-14.19C68.12,106.92,65.92,105.56,63.12,103.47ZM23.17,124.68c5.74-5.15,10.06-8.83,14.16-12.75,6.22-5.94,12.5-11.76,19.81-16.37A8,8,0,0,1,66,95.28a81.77,81.77,0,0,1,17.76,13.39c2.83,2.78,5.68,5.55,8.81,8.6,1.86-2,3.45-3.66,4.89-5.4,4.74-5.72,9.42-11.49,14.14-17.25,3.06-3.74,7-4.83,11.53-3.47A24.89,24.89,0,0,1,127.87,93c7,3.82,14.06,7.64,20,13.12a68.36,68.36,0,0,0,8.31,6.08c1,.69,2.37.94,4.36,1.69-1-6.5-1.77-12.12-2.62-17.74-2.1-13.84-4.48-27.62-5.11-41.67-.56-12.58-3-24.95-6.1-37.16A24,24,0,0,0,144.57,13c-12.23,9.55-22.48,20.24-32.43,30.51-3.53,0-5.35-1.71-7.23-3.6q-9.36-9.45-19-18.64c-2.84-2.72-4.77-2.86-7.4-.25A164.76,164.76,0,0,0,66.86,33.55C62,39.48,57.55,45.73,53.05,51.66a32.73,32.73,0,0,1-14.68-5.74C32.67,42.1,27,38.28,21.2,34.55c-3.06-2-5.9-4.43-10.39-5.35C13.39,61,18.26,91.88,23.17,124.68Z"/><path class="cls-1" d="M23.17,124.68C18.26,91.88,13.39,61,10.81,29.2c4.49.92,7.33,3.37,10.39,5.35C27,38.28,32.67,42.1,38.37,45.92a32.73,32.73,0,0,0,14.68,5.74c4.5-5.93,9-12.18,13.81-18.11A164.76,164.76,0,0,1,78.52,21c2.63-2.61,4.56-2.47,7.4.25q9.6,9.21,19,18.64c1.88,1.89,3.7,3.56,7.23,3.6,10-10.27,20.2-21,32.43-30.51a24,24,0,0,1,2.18,4.38c3.08,12.21,5.54,24.58,6.1,37.16.63,14.05,3,27.83,5.11,41.67.85,5.62,1.66,11.24,2.62,17.74-2-.75-3.33-1-4.36-1.69a68.36,68.36,0,0,1-8.31-6.08c-6-5.48-13-9.3-20-13.12a24.89,24.89,0,0,0-4.74-1.88c-4.58-1.36-8.47-.27-11.53,3.47-4.72,5.76-9.4,11.53-14.14,17.25-1.44,1.74-3,3.35-4.89,5.4-3.13-3-6-5.82-8.81-8.6A81.77,81.77,0,0,0,66,95.28a8,8,0,0,0-8.86.28c-7.31,4.61-13.59,10.43-19.81,16.37C33.23,115.85,28.91,119.53,23.17,124.68Z"/></g></g></svg>