<svg xmlns="http://www.w3.org/2000/svg" viewBox="0 0 112.61 168.49"><defs><style>.cls-1{fill:#fff;}</style></defs><g id="Layer_2" data-name="Layer 2"><g id="Layer_1-2" data-name="Layer 1"><path d="M0,100.28C1.56,74.37,7.63,50.94,23.7,30.84A59.56,59.56,0,0,1,38.9,17.1,134.39,134.39,0,0,1,77.41.65c7.13-1.73,12.43-.1,16.27,6q6.61,10.53,12.9,21.26c1.87,3.18,3.43,6.56,5,9.91,2,4.21,1.07,7.84-2.62,10.64C102.71,53.21,98,59.35,93.72,65.77c-7,10.42-11.31,21.71-11.41,34.5-.07,8.6-.43,17.18,1.65,25.62.88,3.6,2,7.15,3,10.71.64,2.2,1.58,4.32,2,6.55.83,4.06-.4,6.6-4.26,8.3-4.44,2-9.06,3.5-13.56,5.33-10.6,4.3-21.19,8.57-32.37,11.27a11.12,11.12,0,0,1-9.59-1.6,42.76,42.76,0,0,1-15.57-17.84c-5.44-11.39-10.8-22.76-12.26-35.5C.89,108.58.41,104.05,0,100.28ZM85.33,10.73a116.35,116.35,0,0,0-31.8,10.93c-15.77,8.27-27.42,20.28-34.3,36.88a126.29,126.29,0,0,0-6,17.88c-6.44,26-3.14,50.53,11,73.42A24.48,24.48,0,0,0,33,158.7c14.39-3.12,32.61-10.47,45.95-17.43-1-3.2-2-6.48-3.11-9.69a66,66,0,0,1-3.61-21.92c0-3.44,0-6.87,0-10.31.15-15.67,5.19-29.7,14.12-42.47A86.42,86.42,0,0,1,103,39C96.7,29.46,92.83,18.9,85.33,10.73Z"/><path class="cls-1" d="M85.33,10.73C92.83,18.9,96.7,29.46,103,39A86.42,86.42,0,0,0,86.44,56.88c-8.93,12.77-14,26.8-14.12,42.47,0,3.44-.06,6.87,0,10.31a66,66,0,0,0,3.61,21.92C77,134.79,78,138.07,79,141.27c-13.34,7-31.56,14.31-45.95,17.43a24.48,24.48,0,0,1-8.79-8.86C10.12,127,6.82,102.4,13.26,76.42a126.29,126.29,0,0,1,6-17.88c6.88-16.6,18.53-28.61,34.3-36.88A116.35,116.35,0,0,1,85.33,10.73Z"/></g></g></svg>