<svg xmlns="http://www.w3.org/2000/svg" viewBox="0 0 142.72 149.56"><defs><style>.cls-1{fill:#fff;}</style></defs><g id="Layer_2" data-name="Layer 2"><g id="Layer_1-2" data-name="Layer 1"><path d="M141.81,113.71a39.59,39.59,0,0,1-4.06,1.81c-18.59,5.77-37.3,11.06-56.23,15.61-6.37,1.53-12.51,4-18.83,5.8q-12.39,3.47-24.9,6.43c-9.16,2.15-18.4,4-27.59,6A8.35,8.35,0,0,1,.09,141.76a82.42,82.42,0,0,1,.44-12.85c.69-6.82,1.48-13.65,2.67-20.4,1.23-7,2.65-14.05,4.57-20.9C11.47,74.46,18.61,63,26.88,52.35a141.8,141.8,0,0,1,57.28-44c9.25-3.94,19-6.28,28.88-8.07,4.38-.79,8.46-.26,11.82,3.32a10.11,10.11,0,0,1,2.85,5c2,9.51,4.58,18.92,5,28.72a6.09,6.09,0,0,0,.07.85c3.6,17.69,5.48,35.62,7.64,53.51.71,5.94,1.66,11.86,2.3,17.81C142.85,110.89,142.14,112.3,141.81,113.71Zm-10.33-8.61c-1-7.94-1.77-15-2.78-22.06-2.51-17.56-5.12-35.1-7.68-52.64-.7-4.81-1.25-9.65-2.16-14.42-.36-1.83-1.52-3.52-2.52-5.72-13.47,3.18-26.45,6.52-38.25,13.24A137.48,137.48,0,0,0,38.76,56.33c-8.89,11-16.53,22.73-20.65,36.34a165.08,165.08,0,0,0-6.17,33.7c-.28,3.3-.66,6.6-1,10.25a37.25,37.25,0,0,0,12.4-1.22c5.24-1.47,10.56-2.62,15.83-3.94,6.38-1.6,12.79-3.11,19.12-4.87,12.94-3.6,25.81-7.45,38.77-11C108.61,112.48,120.18,109.36,131.48,105.1Z"/><path class="cls-1" d="M131.48,105.1c-11.3,4.26-22.87,7.38-34.45,10.52-13,3.52-25.83,7.37-38.77,11-6.33,1.76-12.74,3.27-19.12,4.87-5.27,1.32-10.59,2.47-15.83,3.94a37.25,37.25,0,0,1-12.4,1.22c.37-3.65.75-7,1-10.25a165.08,165.08,0,0,1,6.17-33.7c4.12-13.61,11.76-25.38,20.65-36.34A137.48,137.48,0,0,1,78.09,23.5c11.8-6.72,24.78-10.06,38.25-13.24,1,2.2,2.16,3.89,2.52,5.72.91,4.77,1.46,9.61,2.16,14.42,2.56,17.54,5.17,35.08,7.68,52.64C129.71,90.09,130.49,97.16,131.48,105.1Z"/></g></g></svg>