<svg xmlns="http://www.w3.org/2000/svg" viewBox="0 0 225.5 153.57"><defs><style>.cls-1{fill:#fff;}</style></defs><g id="Layer_2" data-name="Layer 2"><g id="Layer_1-2" data-name="Layer 1"><path d="M58.41,55.86c8.4-5.62,15.68-10.7,23.18-15.44,4.33-2.73,9-5,13.55-7.34,6.09-3.14,12.25-6.12,18.35-9.23,4.58-2.33,8.12-1.2,10.34,3.54a196.16,196.16,0,0,0,15.31,27.78c3.7,5.41,6.51,11.43,9.73,17.17,1.24,2.22,2.52,4.43,4.06,7.14,1.44-.83,2.66-1.41,3.73-2.18,11.43-8.22,23.34-15.52,36.51-20.7,7.18-2.83,14.07-6.4,21.09-9.63,3.76-1.72,3.76-1.71,9.34-1.6,2.77,3.1,2,6.5.78,10.2-3.32,9.76-6.56,19.54-9.57,29.4-4.58,15-8.93,30.14-13.4,45.2-1.78,6-3.49,12.07-5.47,18-1.64,4.93-2.88,5.61-8.3,5.31a42,42,0,0,1-6.83-.76c-19.54-4.37-39-9.25-58.63-13.15-19.92-4-39.84-8.07-60.13-9.86-14-1.24-27.93-2.69-41.89-4.11-4.55-.46-9.09-1.1-13.64-1.65a5.71,5.71,0,0,1-5.34-4.78,38.39,38.39,0,0,1-.88-5.93,119.53,119.53,0,0,1,.85-25.7C3.34,74,5,60.37,7.14,46.79,8,41.14,9.33,35.56,10.54,30c2.05-9.49,4.18-19,6.39-28.9,2.73-1.74,5.72-1.34,8.19,1.06a39.17,39.17,0,0,1,6,7.26c5.72,9.23,11.79,18.24,16.46,28.12C50.46,43.64,54.46,49.26,58.41,55.86Zm-34-38.53c-.79,1.42-1.79,2.49-2,3.71C19.11,39.33,15.83,57.63,12.71,76c-1.06,6.2-1.34,12.54-2.57,18.7-1.43,7.21.33,14.07.78,21.12,1.85.33,3.24.68,4.65.82,15.38,1.5,30.74,3.31,46.16,4.32,10.62.7,21,2.59,31.45,4.27,22.9,3.68,45.56,8.58,68.17,13.75,8,1.83,16,3.72,24.56,5.7,9.48-27.88,17.76-55.76,26.26-83.56.13-.41-.33-1-.71-2-3.35,1.48-6.67,3-10,4.44C185.82,70.15,171,78.19,158,89.14a24,24,0,0,1-2.07,1.53,5.41,5.41,0,0,1-6.44-.07A11.93,11.93,0,0,1,146,87c-3.81-6.38-7.47-12.84-11.14-19.3-1.69-3-3.14-6.1-4.88-9.06q-5.9-10-12-19.83a39.79,39.79,0,0,0-3.07-3.88c-13.21,5.94-26.11,11.33-37.34,20-5.18,4-10.88,7.39-16.42,11-3.16,2-6,1.66-8.43-1a12.33,12.33,0,0,1-1.51-2.07c-2.94-4.91-6-9.79-8.76-14.77-5.35-9.47-10.57-19-15.89-28.49A15.27,15.27,0,0,0,24.42,17.33Z"/><path class="cls-1" d="M24.42,17.33a15.27,15.27,0,0,1,2.13,2.28c5.32,9.49,10.54,19,15.89,28.49,2.81,5,5.82,9.86,8.76,14.77a12.33,12.33,0,0,0,1.51,2.07c2.47,2.61,5.27,3,8.43,1,5.54-3.57,11.24-6.93,16.42-11,11.23-8.71,24.13-14.1,37.34-20A39.79,39.79,0,0,1,118,38.77Q124,48.64,130,58.6c1.74,3,3.19,6.07,4.88,9.06,3.67,6.46,7.33,12.92,11.14,19.3a11.93,11.93,0,0,0,3.47,3.64,5.41,5.41,0,0,0,6.44.07A24,24,0,0,0,158,89.14c13.08-11,27.86-19,43.47-25.66,3.36-1.44,6.68-3,10-4.44.38,1,.84,1.62.71,2-8.5,27.8-16.78,55.68-26.26,83.56-8.52-2-16.54-3.87-24.56-5.7-22.61-5.17-45.27-10.07-68.17-13.75-10.44-1.68-20.83-3.57-31.45-4.27-15.42-1-30.78-2.82-46.16-4.32-1.41-.14-2.8-.49-4.65-.82-.45-7-2.21-13.91-.78-21.12,1.23-6.16,1.51-12.5,2.57-18.7,3.12-18.32,6.4-36.62,9.71-54.91C22.63,19.82,23.63,18.75,24.42,17.33Z"/></g></g></svg>