<svg xmlns="http://www.w3.org/2000/svg" viewBox="0 0 201.61 106.22"><defs><style>.cls-1{fill:#fff;}</style></defs><g id="Layer_2" data-name="Layer 2"><g id="Layer_1-2" data-name="Layer 1"><path d="M108,31.79c6.3-6.58,12-12.61,17.78-18.53a61.73,61.73,0,0,1,7.62-6.86c3.31-2.41,6.36-2.32,9.33.54A79,79,0,0,1,151,16.71c2.87,3.86,5.25,8.1,9.31,11.67C165.51,23,170.78,18.26,175.53,13a87.46,87.46,0,0,1,9.17-9A20.66,20.66,0,0,1,191.49.53c5.06-1.62,8.16.54,8.94,5.94a40.23,40.23,0,0,1,.35,5.14c.2,11.44.42,22.87.53,34.31.14,14,.18,28,.25,42,0,3.72.14,7.45-.08,11.16-.29,5-2.74,7.3-7.73,7.12-4.56-.15-9.11-.81-13.67-1.27-2-.2-4-.61-6-.7-30.31-1.4-60.61-2.89-90.92-4.06-10.58-.41-21.19-.12-31.77.07a111.78,111.78,0,0,0-12,1.16c-9.07,1.15-18.12,2.46-27.2,3.56-5.26.65-7.82-1.81-8.1-7.25-.27-5.14-.87-10.26-1-15.4-.29-16.59-.53-33.18-.56-49.77A107,107,0,0,0,0,8.74c3.74-3.8,5.09-4.3,8.6-2,4.75,3.16,9.31,6.62,13.86,10.08,4.78,3.63,9.42,7.44,14.18,11.1a37.31,37.31,0,0,0,4,2.33c2.14-1.7,4.16-3.21,6.09-4.84C53.86,19.33,60.89,13,68.22,7.1,74.16,2.31,81.29,3,86.54,8.65c6.26,6.69,12.35,13.52,18.52,20.28C105.81,29.75,106.67,30.48,108,31.79Zm83.06,65c.72-27.46,1.33-54,.66-80.59,0-1-.53-2-1.17-4.32a144.54,144.54,0,0,0-12.67,12.43c-3.91,4.14-7.8,8.29-11.3,12-8.2,1.56-11.76.87-18.23-7.54-2.44-3.17-4.43-6.67-6.74-10a47.11,47.11,0,0,0-3.51-4L112.86,41c-7.92,1.4-13.13-2.62-17.45-8.43a55.58,55.58,0,0,0-3.63-4.78c-4.64-5-8.81-10.43-14.33-14.64-8.7,5.19-15.88,11.71-22.89,18.47-2.46,2.37-5.24,4.4-7.86,6.61-3,2.54-6.43,2.28-9.73,1a24.06,24.06,0,0,1-5.8-3.54C26,31.55,21,27.31,15.79,23.25c-1-.76-2.35-1-4.07-1.7,0,3.06-.05,5.31,0,7.57.25,10,.55,20,.79,30,.17,7.44.14,14.88.43,22.31.16,4,.73,8,1.28,11.94a3.17,3.17,0,0,0,3.64,2.84,24.3,24.3,0,0,0,2.53-.43,361.58,361.58,0,0,1,63.32-3.69c12.3.33,24.58.88,36.87,1.37,21.73.86,43.46,1.76,65.15,3.33C187.14,96.89,188.55,96.8,191.09,96.8Z"/><path class="cls-1" d="M191.09,96.8c-2.54,0-4,.09-5.35,0-21.69-1.57-43.42-2.47-65.15-3.33C108.3,93,96,92.42,83.72,92.09A361.58,361.58,0,0,0,20.4,95.78a24.3,24.3,0,0,1-2.53.43,3.17,3.17,0,0,1-3.64-2.84c-.55-4-1.12-8-1.28-11.94-.29-7.43-.26-14.87-.43-22.31-.24-10-.54-20-.79-30-.06-2.26,0-4.51,0-7.57,1.72.69,3.09.94,4.07,1.7C21,27.31,26,31.55,31.17,35.61A24.06,24.06,0,0,0,37,39.15c3.3,1.31,6.71,1.57,9.73-1,2.62-2.21,5.4-4.24,7.86-6.61,7-6.76,14.19-13.28,22.89-18.47,5.52,4.21,9.69,9.66,14.33,14.64a55.58,55.58,0,0,1,3.63,4.78c4.32,5.81,9.53,9.83,17.45,8.43l25.27-26.08a47.11,47.11,0,0,1,3.51,4c2.31,3.28,4.3,6.78,6.74,10,6.47,8.41,10,9.1,18.23,7.54,3.5-3.71,7.39-7.86,11.3-12a144.54,144.54,0,0,1,12.67-12.43c.64,2.3,1.14,3.3,1.17,4.32C192.42,42.78,191.81,69.34,191.09,96.8Z"/></g></g></svg>