<svg xmlns="http://www.w3.org/2000/svg" viewBox="0 0 123.96 133.32"><defs><style>.cls-1{fill:#fff;}</style></defs><g id="Layer_2" data-name="Layer 2"><g id="Layer_1-2" data-name="Layer 1"><path d="M57.48,21.35a9.41,9.41,0,0,0-5.1-5.46,21.2,21.2,0,0,1-4.92-3.33C43.36,8.72,44.4,3.4,49.64,1.87,55.16.25,60.86-.61,66.6.5c17.63,3.38,33.15,11,45.45,24.18,11.23,12,14.8,26.12,9.49,42.09-2,5.86-6.1,10.31-9.72,15A58.42,58.42,0,0,1,96.46,95.35a37.05,37.05,0,0,1-15.08,5.81c-7.09.9-14.14,2.11-21.2,3.23-6.83,1.07-13.45,2.74-19.26,6.78-4.59,3.2-7.25,7.25-6.1,13.11a17,17,0,0,1,.39,2.54c.13,3.12-.75,4.38-4,5.65a26.31,26.31,0,0,1-3.34.85c-5.81-2.25-10-6.3-13.19-11.64-2.78-4.66-6.11-9-8.91-13.64A38.53,38.53,0,0,1,1,79.09,47.56,47.56,0,0,1,14.28,55.54C24,45.93,34.68,38.16,47.42,33.08,54,30.47,55.06,28.61,57.48,21.35ZM23,116.48c1.44-2.74,2.35-5.08,3.79-7a39.92,39.92,0,0,1,5.38-5.5c6.4-5.82,14.26-8.24,22.58-9.58,7.62-1.22,15.21-2.61,22.85-3.72,8.92-1.29,16.11-5.78,22.1-12.15a92.35,92.35,0,0,0,8.81-11.59c5.4-7.93,6.64-24.26-2-33.62C96,21.93,83.21,15.07,68.43,11.49c-1.18-.29-2.58.31-4.18.53a29.72,29.72,0,0,0,.93,2.89c4.29,9.54,2.23,18.21-6.18,24a60.05,60.05,0,0,1-11.38,5.87A69.42,69.42,0,0,0,20.75,64.17c-8,9.37-12,20.07-8.13,32.56.34,1.1.46,2.25.8,3.34A44.61,44.61,0,0,0,23,116.48Z"/><path class="cls-1" d="M23,116.48a44.61,44.61,0,0,1-9.54-16.41c-.34-1.09-.46-2.24-.8-3.34-3.83-12.49.1-23.19,8.13-32.56A69.42,69.42,0,0,1,47.62,44.73,60.05,60.05,0,0,0,59,38.86c8.41-5.74,10.47-14.41,6.18-23.95A29.72,29.72,0,0,1,64.25,12c1.6-.22,3-.82,4.18-.53C83.21,15.07,96,21.93,106.49,33.3c8.62,9.36,7.38,25.69,2,33.62a92.35,92.35,0,0,1-8.81,11.59c-6,6.37-13.18,10.86-22.1,12.15-7.64,1.11-15.23,2.5-22.85,3.72-8.32,1.34-16.18,3.76-22.58,9.58a39.92,39.92,0,0,0-5.38,5.5C25.31,111.4,24.4,113.74,23,116.48Z"/></g></g></svg>