<svg xmlns="http://www.w3.org/2000/svg" viewBox="0 0 79.67 119.59"><defs><style>.cls-1{fill:#fff;}</style></defs><g id="Layer_2" data-name="Layer 2"><g id="Layer_1-2" data-name="Layer 1"><path d="M44.64,73.07C47,85.09,55.07,91.3,63.49,96.66c1,3-.37,4.88-1.87,6.66-4.72,5.61-16.76,13.46-25.07,16.27-4.46-2.44-8-6.22-11.27-10.15C20.71,104,16.56,98.12,12.12,92.53,2.31,80.21-.73,65.85.14,50.62,1.44,27.93,15.07,13.32,34,3.54c10.37-5.36,21.48-4.8,31.54,2.83,10.74,8.15,15.49,18.3,13.8,32C77.46,53.62,67.81,62,55.25,68.24,52,69.88,48.56,71.29,44.64,73.07Zm7.83,28.21c-4.12-4.62-8.71-8.93-12.26-14a23,23,0,0,1-3.76-19.14C41,66,45.54,63.62,50.22,61.56c5.28-2.34,10.41-5,14.35-9.21,6.64-7.14,8.08-24,3.1-32.44-7-11.77-21.47-15.59-33.53-8.86C26.73,15.19,21.33,21.48,16,27.89A34.27,34.27,0,0,0,8.27,46.67c-1.59,16.78.89,32.59,12.5,45.81,5.43,6.2,9.71,13.39,15.89,18.77C43.55,109.58,43.55,109.58,52.47,101.28Z"/><path class="cls-1" d="M52.47,101.28c-8.92,8.3-8.92,8.3-15.81,10-6.18-5.38-10.46-12.57-15.89-18.77C9.16,79.26,6.68,63.45,8.27,46.67A34.27,34.27,0,0,1,16,27.89c5.29-6.41,10.69-12.7,18.1-16.84C46.2,4.32,60.72,8.14,67.67,19.91c5,8.43,3.54,25.3-3.1,32.44-3.94,4.23-9.07,6.87-14.35,9.21C45.54,63.62,41,66,36.45,68.17a23,23,0,0,0,3.76,19.14C43.76,92.35,48.35,96.66,52.47,101.28Z"/></g></g></svg>