<svg xmlns="http://www.w3.org/2000/svg" viewBox="0 0 164.46 170.12"><defs><style>.cls-1{fill:#fff;}</style></defs><g id="Layer_2" data-name="Layer 2"><g id="Layer_1-2" data-name="Layer 1"><path d="M67,107.82c-13.61-.49-26.35-3.94-39.12-7.1-6.64-1.65-13.11-4-19.64-6.14a10.53,10.53,0,0,1-2.3-1.15C-1.62,88.8-2,83.4,5,77.91a23.39,23.39,0,0,1,5.94-3.36c8-3.1,16.23-5.58,24.88-6.37,8.27-.76,16.28-3,24-4.35C62,60.74,61.37,57.76,61.61,55c1-12,2-24,3-36A44.91,44.91,0,0,1,66,11.41c.88-3.3,2-6.53,3-9.5,8.15-3.3,11.12-2.59,14.2,4.21A153.55,153.55,0,0,1,89.73,23.8c3.08,9.82,6.1,19.65,10.28,29.58a54.33,54.33,0,0,0,5.79.51,77.28,77.28,0,0,1,23.73,3.43c7.65,2.29,15.72,3.27,22.91,7.05,3,1.59,6.09,3.14,9,5a6.06,6.06,0,0,1,.65,10.1,32,32,0,0,1-6.52,4,196,196,0,0,1-37.19,13.09c-2.22.56-4.42,1.22-6.57,2a4.16,4.16,0,0,0-2.79,4c-.57,8.24-1.24,16.48-1.71,24.72-.7,12.38-3.86,24.25-7.27,36.07a7.58,7.58,0,0,1-3.25,4.82c-5.6,3.46-7.67,2.71-10.38-3.32-7.31-16.24-12.1-33.31-17.14-50.3C68.6,112.29,67.78,110.19,67,107.82ZM67,72.29c-9,2-17.82,4.32-26.82,5.94a134.27,134.27,0,0,0-20.78,5.16c-1.09.38-1.95,1.43-3.43,2.56,11.52,5.47,23.34,6.54,34.75,8.9,6,1.24,12.28,2.84,19.21,1.6a24.66,24.66,0,0,1,.07-5c.41-1.94,1.25-3.85,4.37-3.48.33,1.19.8,2.5,1.06,3.84,1.37,7,2.2,14.14,4.12,21,3.11,11,6.9,21.81,10.5,32.67.3.91,1.29,1.59,2.31,2.79.81-2.23,1.66-3.79,1.91-5.43.91-6,1.85-11.9,2.36-17.88.75-8.85,1.49-17.72,1.58-26.59,0-5.28,2.37-7.9,7-9.27,6.6-1.91,13.21-3.8,19.74-5.93,6.79-2.22,13.5-4.7,20.21-7.15.71-.25,1.2-1.09,2.19-2a29.4,29.4,0,0,0-10.19-4.31c-12-3-23.87-6.23-36.39-5.52a7.53,7.53,0,0,1-1.71-.11c-4.52-.76-8.1-2.64-9.58-7.42-.84-2.73-2.06-5.34-3-8-2.76-8.13-5.41-16.29-8.22-24.4-.36-1-.27-2.95-2.5-2.61A19.58,19.58,0,0,0,75.13,24c-1.87,11.88-3.42,23.8-3.32,35.87C71.85,64.34,70.94,68.39,67,72.29Z"/><path class="cls-1" d="M67,72.29c3.93-3.9,4.84-8,4.8-12.41-.1-12.07,1.45-24,3.32-35.87a19.58,19.58,0,0,1,.71-2.42c2.23-.34,2.14,1.57,2.5,2.61,2.81,8.11,5.46,16.27,8.22,24.4.92,2.71,2.14,5.32,3,8,1.48,4.78,5.06,6.66,9.58,7.42a7.53,7.53,0,0,0,1.71.11c12.52-.71,24.44,2.47,36.39,5.52A29.4,29.4,0,0,1,147.41,74c-1,.94-1.48,1.78-2.19,2C138.51,78.49,131.8,81,125,83.19c-6.53,2.13-13.14,4-19.74,5.93-4.68,1.37-7,4-7,9.27-.09,8.87-.83,17.74-1.58,26.59-.51,6-1.45,11.93-2.36,17.88-.25,1.64-1.1,3.2-1.91,5.43-1-1.2-2-1.88-2.31-2.79-3.6-10.86-7.39-21.67-10.5-32.67-1.92-6.84-2.75-14-4.12-21-.26-1.34-.73-2.65-1.06-3.84-3.12-.37-4,1.54-4.37,3.48a24.66,24.66,0,0,0-.07,5c-6.93,1.24-13.19-.36-19.21-1.6C39.32,92.49,27.5,91.42,16,86c1.48-1.13,2.34-2.18,3.43-2.56a134.27,134.27,0,0,1,20.78-5.16C49.19,76.61,58.06,74.31,67,72.29Z"/></g></g></svg>