<svg xmlns="http://www.w3.org/2000/svg" viewBox="0 0 164.57 177.83"><defs><style>.cls-1{fill:#fff;}</style></defs><g id="Layer_2" data-name="Layer 2"><g id="Layer_1-2" data-name="Layer 1"><path d="M92.23,48.12c1.79-.27,3.49-.4,5.13-.79,18-4.28,36.25-4.94,54.6-4.95,5.2,0,9.59,1.25,12.47,5.74.64,3.34-1.08,5.75-2.9,7.91-5.17,6.1-10.35,12.21-15.87,18-6.53,6.83-13.42,13.3-20.13,19.95a24.86,24.86,0,0,0-2,2.6c4.06,12.75,6.68,25.57,9,38.5a176.48,176.48,0,0,1,2.66,34.16,8.32,8.32,0,0,1-3.72,7.24c-2.12,1.51-4.26,1.94-6.35.44-3.95-2.81-8.11-5.47-11.49-8.88-4.42-4.45-8.22-9.52-12.18-14.41-7.19-8.86-14.31-17.79-21.67-27-10.07,1.94-20.13,3.93-30.21,5.79-6.46,1.19-13,2.2-19.45,3.25-4.8.78-9.59,1.61-14.42,2.18a54.71,54.71,0,0,1-9.4.34c-5.06-.29-8.3-3.74-4.93-9.51A192.45,192.45,0,0,1,19.77,102.9C27.45,93.66,35,84.29,42.86,74.58c-.5-4.28-.85-8.84-1.58-13.33-2.05-12.7-4.39-25.36-6.35-38.08-.83-5.36-1.1-10.81-1.4-16.23-.09-1.64.55-3.31.86-5C42.26-1.62,48.87-.13,55.17,5.22c7.3,6.19,12.45,14.16,18.39,21.46S85.5,41.25,92.23,48.12ZM113,92.33a57.88,57.88,0,0,1,3.79-5.14c2.72-2.93,5.6-5.72,8.43-8.55q11-10.92,21.9-21.83c1-1,1.93-2.16.4-4-16.34,0-32.88,1-49,5.11-6.28,1.61-11.15-.25-15.78-4a24.78,24.78,0,0,1-3-3c-3.36-3.91-6.76-7.78-10-11.82C64,31.89,58.38,24.62,52.78,17.38c-2-2.52-3.92-5-8-4.65a28.58,28.58,0,0,0,.51,11.76c2.83,13.11,5.21,26.31,6.81,39.63.47,4,.42,8,.52,12a9.26,9.26,0,0,1-2.2,6.34l-24,29.08c-2.73,3.3-5.6,6.51-8.14,10-.87,1.19-.93,3-1.61,5.33,22.28-1.73,43-7.6,64.74-11.22a17.16,17.16,0,0,1,8.37,5.85c6.84,8.78,13.83,17.45,20.82,26.12,3.23,4,6.56,7.94,9.9,11.85.87,1,1.82,2.31,3.56,1a97.73,97.73,0,0,0-2-22.07C118.86,123,116,107.61,113,92.33Z"/><path class="cls-1" d="M113,92.33c3,15.28,5.91,30.7,9.1,46.06a97.73,97.73,0,0,1,2,22.07c-1.74,1.28-2.69,0-3.56-1-3.34-3.91-6.67-7.84-9.9-11.85-7-8.67-14-17.34-20.82-26.12a17.16,17.16,0,0,0-8.37-5.85c-21.78,3.62-42.46,9.49-64.74,11.22.68-2.35.74-4.14,1.61-5.33,2.54-3.45,5.41-6.66,8.14-10L50.46,82.46a9.26,9.26,0,0,0,2.2-6.34c-.1-4,0-8-.52-12-1.6-13.32-4-26.52-6.81-39.63a28.58,28.58,0,0,1-.51-11.76c4-.31,6,2.13,8,4.65C58.38,24.62,64,31.89,69.66,39.06c3.2,4,6.6,7.91,10,11.82a24.78,24.78,0,0,0,3,3c4.63,3.76,9.5,5.62,15.78,4,16.17-4.12,32.71-5.15,49.05-5.11,1.53,1.83.63,3-.4,4q-10.94,10.93-21.9,21.83c-2.83,2.83-5.71,5.62-8.43,8.55A57.88,57.88,0,0,0,113,92.33Z"/></g></g></svg>