<svg xmlns="http://www.w3.org/2000/svg" viewBox="0 0 188.74 175.05"><defs><style>.cls-1{fill:#fff;}</style></defs><g id="Layer_2" data-name="Layer 2"><g id="Layer_1-2" data-name="Layer 1"><path d="M130.69,47c4.62.1,9.17.35,13.72.27a127.87,127.87,0,0,1,35.66,4.16c4.53,1.22,6.82,4,8.36,7.71A6.18,6.18,0,0,1,188,64c-2.16,3.67-4.36,7.47-7.29,10.5-5.75,6-12,11.46-18.06,17.1-1.44,1.34-3.06,2.49-4.56,3.7.9,1.82,1.35,2.84,1.89,3.81a49.12,49.12,0,0,1,6,16c.62,3.66,2.1,7.17,2.71,10.82a109.73,109.73,0,0,1,1.73,15.3c.13,4.9-1.84,6.42-6.53,7.34-14.15,2.77-27.23-.71-40-6.47-3.9-1.77-7.71-3.76-11.61-5.56-1.51-.7-3.13-1.18-5-1.87-1.88,2.5-3.59,4.74-5.26,7A114.35,114.35,0,0,1,77,167.21a39.66,39.66,0,0,1-18,7.64c-7.25,1-11.39-1.76-13.14-8.89-2.35-9.58-2-19.27-1.53-29,.35-7.1.07-14.22.07-21.53-7.52-4.62-15-9.3-22.59-13.85A87.4,87.4,0,0,1,5.41,89.17a29.41,29.41,0,0,1-4-4.48c-2.28-3.41-1.88-6.43,1.24-9.12A26.21,26.21,0,0,1,8.37,71.8a124.94,124.94,0,0,1,34.1-11.17c4.17-.67,8.2-2.25,12.45-3.46,3-7.43,5.78-14.61,8.8-21.69A175.55,175.55,0,0,1,72,17.6,57.79,57.79,0,0,1,81.24,5.33c7.06-7.1,16.63-7.12,23.69,0,5,5.06,9.84,10.39,13.11,16.89C122,30.17,126.11,38.05,130.69,47Zm27.86,92.63a19,19,0,0,0-.37-10.86c-1.49-4.93-3.2-9.8-4.43-14.79-1.53-6.23-3.34-12.09-9.26-15.77-1.85-1.15-1.84-3.64-.4-5.28a16.49,16.49,0,0,1,3.16-2.86c8.94-5.88,15.8-14,23.49-21.3a16.57,16.57,0,0,0,5.37-8.61c-6.19-2.08-11.93-3.6-18-3.69-9.43-.13-18.87-.37-28.3-.2-4.6.08-7.68-1.57-9.58-5.67-1.09-2.33-2.2-4.66-3.4-6.94-3.72-7.09-7.31-14.25-11.28-21.2-2.66-4.67-5.81-9.07-10.49-12.39-6,1.93-9.83,6.1-12.57,11.22-3.76,7.05-7.28,14.24-10.67,21.48-3.63,7.74-6.94,15.62-11.57,22.37C54.71,68.55,48.89,70,43,71.24c-9.57,2-18.62,5.54-27.57,9.36-1.24.53-2.79,1-2.36,3.7,4.53,3,9.44,6.39,14.55,9.5,6.59,4,13.34,7.78,20,11.67,5.33,3.1,8.43,7.39,8.14,13.91-.29,6.28-.23,12.59-.13,18.88.11,7.14.34,14.28.74,21.41.11,1.85,1,3.64,1.62,5.59,5.14-.15,8.42-3.11,11.77-5.62C80,152,88.14,142.46,95.37,132.07c1.47-2.11,2.8-4.33,4.42-6.31,3.34-4.06,4.84-4.09,9.46-1.48,8.45,4.79,16.92,9.58,26.18,12.71C142.77,139.47,150.22,141.2,158.55,139.63Z"/><path class="cls-1" d="M158.55,139.63c-8.33,1.57-15.78-.16-23.12-2.64-9.26-3.13-17.73-7.92-26.18-12.71-4.62-2.61-6.12-2.58-9.46,1.48-1.62,2-3,4.2-4.42,6.31C88.14,142.46,80,152,69.8,159.64c-3.35,2.51-6.63,5.47-11.77,5.62-.59-1.95-1.51-3.74-1.62-5.59-.4-7.13-.63-14.27-.74-21.41-.1-6.29-.16-12.6.13-18.88.29-6.52-2.81-10.81-8.14-13.91-6.67-3.89-13.42-7.65-20-11.67-5.11-3.11-10-6.53-14.55-9.5-.43-2.73,1.12-3.17,2.36-3.7,9-3.82,18-7.33,27.57-9.36,5.86-1.24,11.68-2.69,17.25-6.1,4.63-6.75,7.94-14.63,11.57-22.37,3.39-7.24,6.91-14.43,10.67-21.48,2.74-5.12,6.55-9.29,12.57-11.22,4.68,3.32,7.83,7.72,10.49,12.39,4,7,7.56,14.11,11.28,21.2,1.2,2.28,2.31,4.61,3.4,6.94,1.9,4.1,5,5.75,9.58,5.67,9.43-.17,18.87.07,28.3.2,6,.09,11.78,1.61,18,3.69a16.57,16.57,0,0,1-5.37,8.61c-7.69,7.25-14.55,15.42-23.49,21.3a16.49,16.49,0,0,0-3.16,2.86c-1.44,1.64-1.45,4.13.4,5.28,5.92,3.68,7.73,9.54,9.26,15.77,1.23,5,2.94,9.86,4.43,14.79A19,19,0,0,1,158.55,139.63Z"/></g></g></svg>