<svg xmlns="http://www.w3.org/2000/svg" viewBox="0 0 135.67 137.28"><defs><style>.cls-1{fill:#fff;}</style></defs><g id="Layer_2" data-name="Layer 2"><g id="Layer_1-2" data-name="Layer 1"><path d="M135.67,104.35c-8.39,2.75-16,3.58-23.66,4.16-1.42.11-2.87,0-4.29.08-4.27.37-8.93-.11-12.69,1.5s-6.45,5.42-9.74,8.11c-5.54,4.52-11.09,9-16.8,13.31a41.77,41.77,0,0,1-8.17,4.66c-5.32,2.32-8.88,1-11.23-4.14-1.65-3.63-2.71-7.52-4.1-11.28-1.68-4.55-3.85-9-5-13.65-1.4-5.53-5.25-8.55-9.54-11.52C20.51,88.72,11.92,80.28,3,72.25c-2.58-2.32-3.61-5-2.64-8.46a6.92,6.92,0,0,1,3.31-4.72c5.76-3.17,11.46-6.47,17.18-9.71,3.22-1.82,6.45-3.62,9.34-5.24L41.52,9.38c.36-1.08.73-2.17,1.14-3.23,2.62-6.77,8.81-8.22,14.09-3C65.74,12,76.22,19,85.46,27.62c2.67-.75,4.81-1.5,7-2Q104.23,23.19,116,20.9a15.57,15.57,0,0,1,4.26-.16c3.9.33,5.69,2.11,5.74,6.06a38,38,0,0,1-.74,7.66c-1.49,7.58-3.17,15.11-4.75,22.67-1.07,5.12-.88,9.84,1.76,14.81,4.15,7.8,7.38,16.1,10.86,24.25C134.13,98.5,134.65,101,135.67,104.35Zm-13.92-6.9c-1.63-3.89-2.77-6.81-4.07-9.64-2.27-5-4.51-9.91-7-14.75a21.17,21.17,0,0,1-1.45-15.81c1.62-6.09,2.89-12.27,4.11-18.45.41-2.1,1.36-4.41-.43-6.89-3.32,0-6.63-.09-10,1-4.34,1.45-8.81,2.49-13.19,3.79A11.48,11.48,0,0,1,79.13,35.1c-3.45-2.56-6.75-5.31-10.07-8C63.59,22.62,58.28,18,52.3,14.37c-.83.83-1.43,1.16-1.59,1.64-2.8,8.4-5.63,16.79-8.26,25.24C39.06,52.14,41.24,48.31,32.14,55c-2.52,1.84-5.56,2.95-8.36,4.39s-5.64,2.78-8.34,4.37c-1.09.65-1.85,1.87-3,3.14l7.4,6.69A207.36,207.36,0,0,0,43.37,92.16a10.23,10.23,0,0,1,4.27,5.12c3,8,6,16.08,9.09,24.1.48,1.24,1.19,2.4,2,4a54.43,54.43,0,0,0,6.1-4c6.07-5.24,12.11-10.52,17.93-16,2.83-2.67,5.67-4.42,9.74-4.55,6-.2,12-.91,18-1.57C113.85,98.92,117.2,98.21,121.75,97.45Z"/><path class="cls-1" d="M121.75,97.45c-4.55.76-7.9,1.47-11.29,1.84-6,.66-12,1.37-18,1.57-4.07.13-6.91,1.88-9.74,4.55-5.82,5.5-11.86,10.78-17.93,16a54.43,54.43,0,0,1-6.1,4c-.81-1.63-1.52-2.79-2-4-3.06-8-6.11-16-9.09-24.1a10.23,10.23,0,0,0-4.27-5.12A207.36,207.36,0,0,1,19.79,73.55l-7.4-6.69c1.2-1.27,2-2.49,3-3.14,2.7-1.59,5.55-2.93,8.34-4.37S29.62,56.8,32.14,55c9.1-6.65,6.92-2.82,10.31-13.71C45.08,32.8,47.91,24.41,50.71,16c.16-.48.76-.81,1.59-1.64,6,3.58,11.29,8.25,16.76,12.71,3.32,2.71,6.62,5.46,10.07,8a11.48,11.48,0,0,0,10.63,1.63c4.38-1.3,8.85-2.34,13.19-3.79,3.35-1.12,6.66-1,10-1,1.79,2.48.84,4.79.43,6.89-1.22,6.18-2.49,12.36-4.11,18.45a21.17,21.17,0,0,0,1.45,15.81c2.47,4.84,4.71,9.8,7,14.75C119,90.64,120.12,93.56,121.75,97.45Z"/></g></g></svg>