<svg xmlns="http://www.w3.org/2000/svg" viewBox="0 0 187.19 178.11"><defs><style>.cls-1{fill:#fff;}</style></defs><g id="Layer_2" data-name="Layer 2"><g id="Layer_1-2" data-name="Layer 1"><path d="M22.19,26.71c1.11-1.45,1.59-2.16,2.15-2.8,2.17-2.48,4.76-3.27,7.6-1.31,6.7,4.62,14.17,3.88,21.54,3,3.35-.41,6.76-1.47,9.1-4.37a8.23,8.23,0,0,1,1.32-1.09C69.76,15.35,75,10.14,76,2.52c2.45-2,4.71-3,7.44-2.32s4.28,2.64,5.71,4.87,2.93,4.24,4.47,6.3C98.9,18.46,106.08,22,114.82,22.8c6.34.57,12.5.45,18.55-2a59,59,0,0,1,10.73-3.06c5.42-1.06,8.61,1.57,9.23,7.22.41,3.69.34,7.49,1.18,11.08A69.42,69.42,0,0,0,159,49.85a18.1,18.1,0,0,0,16.24,10.91c2.28.11,4.63-.11,6.83.36,1.8.38,3.44,1.55,5.1,2.35.05,4.68-2.67,7.48-4.88,10.3-4.65,5.92-4.19,12.19-1.82,18.63.67,1.81,2.19,3.3,3.3,4.95.61.92,1.17,1.88,2.05,3.31-1.16,1-2,2.24-3.18,2.65-16.59,5.82-23,17.58-18.8,34.82a43.39,43.39,0,0,1,1.28,6.73c.28,3.74-2,5.88-5.84,5.57-1.41-.12-2.78-.69-4.2-.88-11.72-1.55-22.2,1-30.19,10.17-3.35,3.86-6,8.31-8.92,12.54-.81,1.17-1.25,2.59-2.1,3.72A5.29,5.29,0,0,1,107,177.4a36,36,0,0,1-4.9-3.44c-.88-.71-1.5-1.73-2.33-2.52-9.93-9.51-20.61-12.11-34.73-6-6.79,3-13.23,6.71-19.82,10.12-.51.26-.94.67-1.44.93-5.67,2.92-11.45-.31-11.55-6.61-.07-4.28.23-8.58.42-12.87.5-11.2-5.65-18.18-14.86-23-2.76-1.45-6-2-8.82-3.33a33.94,33.94,0,0,1-6.53-4c-1-.79-1.55-2.25-2.42-3.6a44.83,44.83,0,0,1,2.65-3.63c3.92-4.34,6.13-9.59,8-15,3.56-10.27,2-19.73-4.52-28.41-1.37-1.83-2.81-3.62-4.06-5.54a4,4,0,0,1,1.7-5.77c.76-.38,1.63-.53,2.42-.86C17.54,59.13,23.5,50.45,24.84,38.41A16.33,16.33,0,0,0,22.19,26.71Zm120.25-.17c-5.73,1.25-10.67,2.82-15.72,3.31a65.91,65.91,0,0,1-16.25-.22c-5-.79-9.74-3.23-14.69-4.59-5.47-1.49-8.26-6.78-13-9.3-4.44,4.28-8.57,8.19-12.62,12.2-4.73,4.69-10.62,6.6-17,7-3.71.24-7.45,0-11.17.07-1.92,0-3.85.21-6.1.34-1.54,15-7.81,27.06-20.78,35.37,4.59,8.37,9.17,16.18,8,26a66.19,66.19,0,0,1-8.88,26.66L17.75,125c1.05.45,2.13.85,3.16,1.35,13.43,6.49,23.28,15.56,23.1,31.94a8.31,8.31,0,0,0,1.05,3c8-2.46,15.3-4.87,22.7-7,9.57-2.73,18.67-.84,27.36,3.49,4,2,7.89,4.27,11.95,6.49,1.6-2.26,2.81-4.21,4.23-6,6-7.43,12.39-14.43,22.25-16.55,4.44-.95,9-1.16,13.57-1.72,1.83-.23,3.66-.49,5.5-.74-3.19-18.29,1.71-32.74,17.46-42.77-.46-2.13-1-4-1.26-6-.87-7.15-1.39-14.26,3.13-20.61.21-.29-.16-1-.34-2-1.52-.21-3.19-.37-4.84-.68a22.35,22.35,0,0,1-10.71-5.19c-6.41-5.68-10.65-12.65-11.84-21.26C143.59,36.33,143.09,31.8,142.44,26.54Z"/><path class="cls-1" d="M142.44,26.54c.65,5.26,1.15,9.79,1.78,14.3,1.19,8.61,5.43,15.58,11.84,21.26a22.35,22.35,0,0,0,10.71,5.19c1.65.31,3.32.47,4.84.68.18,1,.55,1.67.34,2-4.52,6.35-4,13.46-3.13,20.61.23,1.94.8,3.85,1.26,6-15.75,10-20.65,24.48-17.46,42.77-1.84.25-3.67.51-5.5.74-4.53.56-9.13.77-13.57,1.72-9.86,2.12-16.26,9.12-22.25,16.55-1.42,1.77-2.63,3.72-4.23,6-4.06-2.22-7.93-4.5-11.95-6.49-8.69-4.33-17.79-6.22-27.36-3.49-7.4,2.11-14.73,4.52-22.7,7a8.31,8.31,0,0,1-1.05-3c.18-16.38-9.67-25.45-23.1-31.94-1-.5-2.11-.9-3.16-1.35l-3.59-1.54A66.19,66.19,0,0,0,23,96.75c1.2-9.84-3.38-17.65-8-26,13-8.31,19.24-20.36,20.78-35.37C38.1,35.23,40,35.05,42,35c3.72-.05,7.46.17,11.17-.07,6.42-.41,12.31-2.32,17-7,4-4,8.18-7.92,12.62-12.2,4.74,2.52,7.53,7.81,13,9.3,5,1.36,9.68,3.8,14.69,4.59a65.91,65.91,0,0,0,16.25.22C131.77,29.36,136.71,27.79,142.44,26.54Zm-1.33,69.95c0-13.93-2-24-9.26-32-10.55-11.66-23.61-18.82-39.7-19.38A70.1,70.1,0,0,0,81,45.43c-7.67,1-15.29,2.49-21.85,6.83C46.05,60.93,40.16,73.87,38.46,89c-1.4,12.52,3.14,23.58,9.17,34.15,2.75,4.83,6.9,8.29,11.39,11.45,5.54,3.88,12,4.9,18.28,6.78,7.44,2.23,14.4,1.82,21.88.36,12.15-2.36,21.45-9.26,29.85-17.41C137.65,116,140.36,104.82,141.11,96.49Z"/><path d="M141.11,96.49c-.75,8.33-3.46,19.49-12.08,27.83-8.4,8.15-17.7,15.05-29.85,17.41-7.48,1.46-14.44,1.87-21.88-.36-6.28-1.88-12.74-2.9-18.28-6.78-4.49-3.16-8.64-6.62-11.39-11.45-6-10.57-10.57-21.63-9.17-34.15,1.7-15.12,7.59-28.06,20.71-36.73,6.56-4.34,14.18-5.87,21.85-6.83a70.1,70.1,0,0,1,11.13-.37c16.09.56,29.15,7.72,39.7,19.38C139.11,72.46,141.16,82.56,141.11,96.49ZM87.25,55.25a61.11,61.11,0,0,0-18.86,4.1,21.57,21.57,0,0,0-11,9.08,57.17,57.17,0,0,0-5.91,13.22c-4.36,15.09-.08,28.77,7.87,41.59A15.91,15.91,0,0,0,64.15,128a38.71,38.71,0,0,0,24.49,6.15c8.76-.77,17.43-3.59,24.18-9.91,5.18-4.87,10.62-9.61,13.65-16.28,3.53-7.77,3.88-15.88,2.92-24.27-.88-7.65-4.9-13.22-10.41-18-1.51-1.32-3.18-2.43-4.74-3.68C107.18,56.33,99.07,54.34,87.25,55.25Z"/><path class="cls-1" d="M87.25,55.25c11.82-.91,19.93,1.08,27,6.75,1.56,1.25,3.23,2.36,4.74,3.68,5.51,4.81,9.53,10.38,10.41,18,1,8.39.61,16.5-2.92,24.27-3,6.67-8.47,11.41-13.65,16.28-6.75,6.32-15.42,9.14-24.18,9.91A38.71,38.71,0,0,1,64.15,128a15.91,15.91,0,0,1-4.85-4.78c-7.95-12.82-12.23-26.5-7.87-41.59a57.17,57.17,0,0,1,5.91-13.22,21.57,21.57,0,0,1,11-9.08A61.11,61.11,0,0,1,87.25,55.25Z"/></g></g></svg>