<svg xmlns="http://www.w3.org/2000/svg" viewBox="0 0 90.31 152.33"><defs><style>.cls-1{fill:#fff;}</style></defs><g id="Layer_2" data-name="Layer 2"><g id="Layer_1-2" data-name="Layer 1"><path d="M11.11,2.28A23.33,23.33,0,0,1,13.78,1c4.74-1.6,6.06-1.41,8.8,2.42a126.83,126.83,0,0,1,9.31,14.37c12.1,23,25,45.58,36.2,69,3.58,7.47,7.25,14.89,10.8,22.36a49.28,49.28,0,0,0,9.58,14.1c2.56,2.55,2.44,4.62-.31,6.2-5.43,3.14-10.75,6.51-17,8-18.61,4.47-37.2,9-55.82,13.47a63.59,63.59,0,0,1-8.45,1.38C3.25,152.64,1.1,150.7.65,147a24.56,24.56,0,0,1-.12-2.57c-.2-18-.67-36-.49-54A216.15,216.15,0,0,1,2.23,64.72c2.55-19.83,5.4-39.63,8.14-59.43C10.49,4.45,10.77,3.63,11.11,2.28Zm66.49,123c-3.37-6.14-6.87-11.74-9.64-17.67C54.77,79.34,40.36,51.71,25.9,24.12,24.26,21,22.69,17.63,19,15c-.53,2-1,3.26-1.23,4.61-1.28,8.47-2.57,17-3.72,25.45-1.19,8.78-2.49,17.57-3.28,26.4a329.42,329.42,0,0,0-1.18,45.42c.36,7.13.36,14.29.65,21.43a24.52,24.52,0,0,0,1.08,4.59C26.74,141.25,68.25,130.26,77.6,125.25Z"/><path class="cls-1" d="M77.6,125.25c-9.35,5-50.86,16-66.24,17.62a24.52,24.52,0,0,1-1.08-4.59C10,131.14,10,124,9.63,116.85a329.42,329.42,0,0,1,1.18-45.42C11.6,62.6,12.9,53.81,14.09,45c1.15-8.5,2.44-17,3.72-25.45.21-1.35.7-2.65,1.23-4.61,3.65,2.66,5.22,6,6.86,9.15C40.36,51.71,54.77,79.34,68,107.58,70.73,113.51,74.23,119.11,77.6,125.25Z"/></g></g></svg>