<svg xmlns="http://www.w3.org/2000/svg" viewBox="0 0 209.44 165.09"><defs><style>.cls-1{fill:#fff;}</style></defs><g id="Layer_2" data-name="Layer 2"><g id="Layer_1-2" data-name="Layer 1"><path d="M33.12,62.39c-3-6.49-5.5-11.9-7.88-17.39a17.46,17.46,0,0,1-.89-10.12A43.81,43.81,0,0,1,41.68,6.23C48.12,1.36,55.17-.94,63.39.36a56.19,56.19,0,0,1,18.54,6.5,26.8,26.8,0,0,1,7.64,6.77c11.5,14.3,12.69,33.64,3.32,49.79-.29.49-.52,1-1,2.07,2.89,7.26,7.34,14.05,11.78,21.07,3.12-5.35,5.79-10.39,8.89-15.14,2.95-4.53,6.36-8.76,9.82-13.46-.21-3.68-1.58-7.47-2.7-11.27a22.42,22.42,0,0,1,.44-15.14c2.62-6.63,4.86-13.39,9.31-19.19,6-7.86,13.58-10.77,23.34-8.74a54.27,54.27,0,0,1,21.1,9.1,35.23,35.23,0,0,1,12.3,16.18c3.67,9.44,2,18.55-2.19,27.35-1.59,3.31-3.57,6.42-5.3,9.47,16.2,20.17,30.87,65.06,30.81,81.32-2.92,3.88-6.93,6.34-11.56,8.22-17.69,7.22-35.92,9-54.77,6.4-7.64-1-15.38-1.25-23.07-1.88-1.71-.14-3.59-.06-5.08-.75-4.78-2.22-9.24-1.31-14,.22-15.72,5-31.95,6.37-48.35,5.67a68.86,68.86,0,0,1-13.51-2.13c-9.44-2.35-18.93-4.59-27.84-8.67-1-.47-2.12-.87-3.15-1.37-7.58-3.67-9-6.2-7.66-14.34,2.38-15,5.94-29.75,13.16-43.32,4.16-7.82,8.32-15.65,12.75-23.32C28.32,68.34,31,65.31,33.12,62.39Zm51.75,9.87c-7,2.94-14.35,3.22-21.82,2.87-7.89-.37-14.82-3.7-21.75-6.65a54.57,54.57,0,0,0-10.53,14.1Q26.89,89.73,23.19,97a142.77,142.77,0,0,0-12.58,36.38c-.8,3.84-1.43,7.86.16,11.78,1.41.71,2.65,1.42,4,2,10.6,4.49,21.79,7,33,9.44,3,.66,6.26.31,9.39.2,2.56-.1,5.11-.6,7.68-.81a150.64,150.64,0,0,0,39.27-8.8c2-.73,3.84-2.17,5.72-3.26a28.17,28.17,0,0,0-.34-3.94c-3-11.64-5.87-23.3-9-34.9A103.86,103.86,0,0,0,84.87,72.26Zm42.76-4.89c-7.17,7.6-12.95,16.06-15.29,26.32-1.38,6-2.52,12.2-.78,18.62,2.76,10.21,4.92,20.59,7.33,30.9.51,2.2,1,4.4,1.47,6.5a13.49,13.49,0,0,0,2.66,1.07c7.93,1.16,15.86,2.46,23.83,3.3,5.94.63,11.81,1.78,18,1.06,11.26-1.33,21.72-5,31.93-9.62a25.69,25.69,0,0,0,3.92-2.7c-2.38-8.46-4.55-16.46-6.88-24.41-4-13.78-9-27.18-16.44-39.52-1.43-2.38-2.27-5.33-5.21-6.48C156,79.35,140,78.61,127.63,67.37ZM61.8,9.24c-3.65.28-7.49-.43-10.74,2-6,4.49-11.28,9.6-14.37,16.64-5.29,12-.74,26.89,10.54,33.61a44.86,44.86,0,0,0,16.85,5.89,19.49,19.49,0,0,0,13.19-2.48A25.59,25.59,0,0,0,89.8,44.55c.84-10.12-2.38-19.12-8.11-27.25A15.79,15.79,0,0,0,76.51,13C72,10.43,67.15,8.7,61.8,9.24Zm89.92,59.44c8.2.48,14.74-4.07,20.31-10.79,11.51-13.88,8.56-32.68-6.67-41.11-1.25-.7-2.45-1.5-3.75-2.08-6.36-2.88-12.53-3.67-18.12,1.76-1.22,1.19-2.69,2.14-3.9,3.34-9,8.88-13.35,19.1-9.15,31.76.63,1.89,1.48,3.7,2.21,5.56C135.89,65.37,142.16,68.86,151.72,68.68Z"/><path class="cls-1" d="M84.87,72.26a103.86,103.86,0,0,1,15.52,32.82c3.16,11.6,6.06,23.26,9,34.9a28.17,28.17,0,0,1,.34,3.94c-1.88,1.09-3.67,2.53-5.72,3.26A150.64,150.64,0,0,1,64.77,156c-2.57.21-5.12.71-7.68.81-3.13.11-6.39.46-9.39-.2-11.18-2.45-22.37-5-33-9.44-1.31-.56-2.55-1.27-4-2-1.59-3.92-1-7.94-.16-11.78A142.77,142.77,0,0,1,23.19,97q3.7-7.26,7.58-14.43A54.57,54.57,0,0,1,41.3,68.48c6.93,3,13.86,6.28,21.75,6.65C70.52,75.48,77.85,75.2,84.87,72.26Z"/><path class="cls-1" d="M127.63,67.37c12.35,11.24,28.38,12,44.49,5,2.94,1.15,3.78,4.1,5.21,6.48,7.46,12.34,12.42,25.74,16.44,39.52,2.33,8,4.5,16,6.88,24.41a25.69,25.69,0,0,1-3.92,2.7c-10.21,4.63-20.67,8.29-31.93,9.62-6.14.72-12-.43-18-1.06-8-.84-15.9-2.14-23.83-3.3a13.49,13.49,0,0,1-2.66-1.07c-.48-2.1-1-4.3-1.47-6.5-2.41-10.31-4.57-20.69-7.33-30.9-1.74-6.42-.6-12.58.78-18.62C114.68,83.43,120.46,75,127.63,67.37Z"/><path class="cls-1" d="M61.8,9.24C67.15,8.7,72,10.43,76.51,13a15.79,15.79,0,0,1,5.18,4.33c5.73,8.13,9,17.13,8.11,27.25A25.59,25.59,0,0,1,77.27,64.89a19.49,19.49,0,0,1-13.19,2.48,44.86,44.86,0,0,1-16.85-5.89C36,54.76,31.4,39.91,36.69,27.87c3.09-7,8.35-12.15,14.37-16.64C54.31,8.81,58.15,9.52,61.8,9.24Z"/><path class="cls-1" d="M151.72,68.68c-9.56.18-15.83-3.31-19.07-11.56-.73-1.86-1.58-3.67-2.21-5.56-4.2-12.66.2-22.88,9.15-31.76,1.21-1.2,2.68-2.15,3.9-3.34,5.59-5.43,11.76-4.64,18.12-1.76,1.3.58,2.5,1.38,3.75,2.08C180.59,25.21,183.54,44,172,57.89,166.46,64.61,159.92,69.16,151.72,68.68Z"/></g></g></svg>