<svg width="24" height="24" viewBox="0 0 24 24" fill="none" xmlns="http://www.w3.org/2000/svg">
<path fill-rule="evenodd" clip-rule="evenodd" d="M5.56158 20.5L18.5068 20.5C19.4664 20.5 20.1792 19.6114 19.9711 18.6746L16.686 3.89153C16.6351 3.66277 16.4322 3.5 16.1979 3.5L7.79826 3.5C7.56481 3.5 7.36243 3.66154 7.31069 3.88919L4.9876 14.1108C4.9264 14.3801 4.65849 14.5488 4.38922 14.4876C4.11994 14.4264 3.95126 14.1585 4.01246 13.8892L6.33556 3.66757C6.49077 2.98463 7.09791 2.5 7.79826 2.5L16.1979 2.5C16.9009 2.5 17.5096 2.9883 17.6621 3.6746L20.9473 18.4577C21.2942 20.019 20.1062 21.5 18.5068 21.5L5.56158 21.5C3.93515 21.5 2.74176 19.9715 3.13623 18.3937L3.32559 17.6362C3.49253 16.9684 4.0925 16.5 4.78081 16.5L16.5 16.5C16.7762 16.5 17 16.7239 17 17C17 17.2761 16.7762 17.5 16.5 17.5L4.78081 17.5C4.55137 17.5 4.35138 17.6561 4.29573 17.8787L4.10637 18.6362C3.86969 19.5829 4.58572 20.5 5.56158 20.5Z" fill="black"/>
</svg>
