<svg width="24" height="24" viewBox="0 0 24 24" fill="none" xmlns="http://www.w3.org/2000/svg">
<path fill-rule="evenodd" clip-rule="evenodd" d="M12.1543 2.53616C13.5503 2.37662 15.2003 2.71255 16.7952 4.21445C18.0899 5.43368 18.5678 6.76315 18.4924 8.06085C18.4185 9.33343 17.8169 10.5113 17.0779 11.4716C17.075 11.4753 17.0721 11.4791 17.0691 11.4827C17.0664 11.486 17.0637 11.4893 17.0609 11.4926L9.1782 20.6664C8.97972 20.9284 8.62146 21.2488 8.14369 21.4056C7.62904 21.5745 7.00932 21.5404 6.38337 21.108C5.77812 20.6899 5.49328 20.1582 5.50012 19.5909C5.50651 19.0608 5.76734 18.5959 6.0418 18.2658C6.21833 18.0534 6.53358 18.0244 6.74592 18.2009C6.95827 18.3775 6.9873 18.6927 6.81077 18.9051C6.61532 19.1402 6.50262 19.3895 6.50005 19.603C6.49792 19.7793 6.56867 20.0206 6.95174 20.2852C7.31411 20.5355 7.60712 20.5292 7.83189 20.4554C8.08385 20.3727 8.28691 20.19 8.38607 20.0559C8.39331 20.0461 8.40091 20.0366 8.40884 20.0273L16.2935 10.8512C16.9587 9.98375 17.4362 8.99898 17.4941 8.00287C17.5507 7.02783 17.2097 5.97839 16.1096 4.94246C14.7405 3.65318 13.3874 3.40174 12.2678 3.52969C11.1238 3.66042 10.1889 4.19328 9.71844 4.52183C9.38085 4.75759 9.00825 5.08352 8.78904 5.44814C8.58238 5.7919 8.52855 6.13078 8.7279 6.50091C8.89231 6.80616 9.22342 6.94159 9.74676 6.88377C10.2687 6.8261 10.8284 6.57999 11.1656 6.33402L11.1732 6.32848C11.555 6.05007 12.0863 5.66259 12.7242 5.59324C13.4241 5.51714 14.1183 5.82451 14.8227 6.60339C15.2254 7.04877 15.3228 7.60092 15.2634 8.13188C15.2051 8.65284 14.9944 9.18836 14.7341 9.68092C14.2144 10.6644 13.4288 11.6027 12.915 12.1339L8.32849 17.222C8.1436 17.4271 7.82745 17.4435 7.62234 17.2586C7.41723 17.0737 7.40084 16.7575 7.58573 16.5524L12.1782 11.4578C12.1822 11.4533 12.1864 11.4489 12.1905 11.4446C12.6666 10.9533 13.388 10.0879 13.85 9.21373C14.0816 8.77539 14.2309 8.3664 14.2696 8.02069C14.3071 7.68497 14.2384 7.44828 14.0809 7.2741C13.5098 6.64248 13.1089 6.55731 12.8322 6.58738C12.4978 6.62375 12.1738 6.83644 11.7549 7.14199C11.2909 7.48035 10.5685 7.79906 9.85658 7.87772C9.14605 7.95623 8.2915 7.7995 7.84748 6.9751C7.43815 6.21511 7.59503 5.49342 7.932 4.9329C8.25643 4.39324 8.76041 3.97117 9.14588 3.70197C9.68946 3.32236 10.7827 2.6929 12.1543 2.53616Z" fill="black"/>
</svg>
