<svg width="24" height="24" viewBox="0 0 24 24" fill="none" xmlns="http://www.w3.org/2000/svg">
<path fill-rule="evenodd" clip-rule="evenodd" d="M10.4525 3.82385C10.8132 2.97141 11.6788 2.4454 12.6016 2.51797C13.6939 2.60389 14.547 3.49742 14.5822 4.59257L14.5832 4.62463C14.5921 4.90063 14.3756 5.13157 14.0996 5.14045C13.8236 5.14933 13.5926 4.93279 13.5838 4.65679L13.5827 4.62473C13.5639 4.03886 13.1075 3.56086 12.5232 3.5149C12.0295 3.47607 11.5664 3.75747 11.3735 4.21349L11.3735 4.21349L11.0156 5.05952C10.9503 5.21387 10.812 5.32523 10.6473 5.35613C7.40958 5.96343 4.71713 8.94532 4.44471 12.4088C4.11991 16.5382 7.20414 20.149 11.3335 20.4738C15.4629 20.7986 19.0737 17.7144 19.3985 13.585C19.7211 9.48325 16.7493 6.36355 12.516 6.49976C12.24 6.50864 12.009 6.2921 12.0002 6.0161C11.9913 5.7401 12.2078 5.50916 12.4838 5.50028C17.3012 5.34528 20.7657 8.95585 20.3954 13.6634C20.0273 18.3434 15.9351 21.8389 11.2551 21.4708C6.57514 21.1026 3.07968 17.0104 3.44778 12.3304C3.74734 8.52194 6.62619 5.22842 10.1969 4.42801L10.4525 3.82385Z" fill="black"/>
</svg>
