<svg width="24" height="24" viewBox="0 0 24 24" fill="none" xmlns="http://www.w3.org/2000/svg">
<path fill-rule="evenodd" clip-rule="evenodd" d="M11.015 2.71541C11.1722 2.48836 11.4837 2.43172 11.7107 2.58889C11.7231 2.59745 11.7417 2.60914 11.7655 2.62398C11.9281 2.72569 12.3276 2.97558 12.5534 3.38213C12.8522 3.92012 12.8233 4.60822 12.3252 5.45632C12.0971 5.84472 11.9206 6.21792 11.88 6.56965C11.8434 6.88628 11.9132 7.20697 12.2479 7.54219C12.3907 7.68524 12.4334 7.90024 12.3559 8.08699C12.2785 8.27374 12.0962 8.39548 11.8941 8.39548C11.3534 8.39548 10.288 8.43216 9.19848 8.57052C8.23037 8.69345 7.31774 8.88853 6.72339 9.16826C6.76185 9.186 6.80423 9.20431 6.85067 9.22306C7.42593 9.45536 8.41486 9.67306 9.59342 9.79745C10.7636 9.92096 12.0828 9.94847 13.3059 9.81993C14.5396 9.6903 15.6253 9.40691 16.3667 8.94497C16.5209 8.84892 16.715 8.84403 16.8738 8.9322C17.0326 9.02036 17.1311 9.18771 17.1311 9.36935L17.1311 12.3762C17.5865 12.4647 18.0594 12.6661 18.4576 12.9546C19.008 13.3534 19.488 13.9756 19.4996 14.7838C19.5161 15.9438 18.9985 16.6801 18.3611 17.1216C17.9446 17.4101 17.4883 17.5657 17.1311 17.6543L17.1311 19.7038C17.1311 19.8581 17.0599 20.0038 16.9381 20.0985C16.3875 20.5268 15.5893 20.8556 14.6951 21.0862C13.7918 21.319 12.7514 21.4616 11.6857 21.4933C9.57587 21.556 7.26474 21.1862 5.71558 20.1151C5.58054 20.0217 5.49994 19.868 5.49994 19.7038V12C5.49994 11.7239 5.7238 11.5 5.99994 11.5C6.27608 11.5 6.49994 11.7239 6.49994 12V19.4326C7.79901 20.225 9.74336 20.5506 11.6559 20.4937C12.6559 20.464 13.6219 20.3302 14.4455 20.1178C15.1547 19.935 15.7307 19.7009 16.1311 19.4448L16.1311 17.2474C16.1311 17.0042 16.3061 16.7962 16.5458 16.7547C16.8681 16.699 17.3746 16.5885 17.7917 16.2996C18.1785 16.0317 18.5111 15.5976 18.4997 14.7981C18.4941 14.4093 18.2636 14.0489 17.8709 13.7644C17.4752 13.4777 16.9884 13.3258 16.6311 13.3258C16.4985 13.3258 16.3713 13.2731 16.2775 13.1793C16.1838 13.0856 16.1311 12.9584 16.1311 12.8258L16.1311 10.1824C15.3258 10.5165 14.3775 10.7128 13.4105 10.8145C12.1053 10.9516 10.7148 10.9214 9.48846 10.7919C8.27054 10.6634 7.17624 10.433 6.47623 10.1503C6.29879 10.0787 6.13416 9.99873 5.9944 9.90886C5.86086 9.82299 5.71566 9.70641 5.61691 9.54841C5.50613 9.37119 5.45411 9.13608 5.54991 8.89399C5.63323 8.68343 5.79959 8.54454 5.94543 8.45368C6.71601 7.97359 7.95896 7.71989 9.07251 7.57849C9.7618 7.49096 10.4396 7.44237 10.9944 7.41763C10.8778 7.09955 10.8497 6.77442 10.8866 6.455C10.9525 5.88364 11.2231 5.3584 11.4629 4.94993C11.8472 4.29556 11.7514 3.99775 11.6792 3.86763C11.59 3.707 11.4528 3.61707 11.2814 3.50462C11.237 3.4755 11.1903 3.44487 11.1415 3.41111C10.9145 3.25393 10.8578 2.94246 11.015 2.71541ZM6.44042 9.32668C6.44038 9.32667 6.44099 9.32604 6.44239 9.32482C6.44117 9.32608 6.44047 9.32669 6.44042 9.32668Z" fill="black"/>
</svg>
