<svg xmlns="http://www.w3.org/2000/svg" viewBox="0 0 147.25 90.12"><g id="Layer_2" data-name="Layer 2"><g id="Layer_1-2" data-name="Layer 1"><path d="M79.34,22.4A36.22,36.22,0,0,0,89.9,21c14.43-3.81,29.16-5.94,43.94-7.75,6.8-.83,10.07,1.75,11.64,8.3,2.16,9,2.06,18.11,1.22,27.28-.37,4-2.36,6.44-6.08,7.29-4.45,1-9,1.69-13.48,2.44-12.12,2-24.25,4-36.37,6a13,13,0,0,0-2.46,1c-3.4,7,1.1,14.83-1.93,21.79-4.07,3.44-8.33,3.5-12.87,1.29-3.09-1.5-6.33-2.7-9.37-4.27A443.59,443.59,0,0,0,14.7,62.47,117.42,117.42,0,0,1,2.28,56.7a4,4,0,0,1-2-5.12c.94-3,1.9-6,4.8-7.88,2.38-1.57,4.46-3.57,6.75-5.28,9.38-7,18.66-14.25,28.23-21C47.72,11.92,55.78,7,63.7,1.83A13.93,13.93,0,0,1,66.85.5C70.57-.75,73.76.34,75.42,4a37.9,37.9,0,0,1,2.34,8.19C78.43,15.45,78.8,18.81,79.34,22.4ZM67.21,12.82a18.73,18.73,0,0,0-9,3.8c-5.5,4.09-11.09,8.07-16.63,12.11C33.07,35,24.51,41.19,16,47.52c-1.26.94-2.13,2.41-3.44,3.93C23.79,55.89,34.45,60,45,64.32S65.09,74.94,76.54,78.93a32.15,32.15,0,0,0,.8-5.41c-.08-2.85-.6-5.69-.72-8.55-.2-5.19.91-6.85,5.8-7.83Q103,53,123.7,49.24c4.17-.78,8.41-1.21,12.43-3.24,1-7.62-.68-14.79-2.16-22a12.77,12.77,0,0,0-2.85-.26C115,26.44,98.94,29.1,82.9,32.05a11.59,11.59,0,0,1-9.62-2A12,12,0,0,1,68,20.69C67.78,18.21,67.5,15.73,67.21,12.82Z"/></g></g></svg>