<svg xmlns="http://www.w3.org/2000/svg" viewBox="0 0 149.74 69.97"><g id="Layer_2" data-name="Layer 2"><g id="Layer_1-2" data-name="Layer 1"><path d="M149.74,42c-2,2.78-4.75,3.6-7.66,3.88-8.24.8-16.53,1.25-24.73,2.36A193.17,193.17,0,0,1,90.8,49.5c-2.23,0-4.46.29-6.9.46-2.11,5.46.22,10.43.41,15.43-2.5,4.64-6.35,5.31-11,4C59.08,65.15,44.81,61,30.56,56.78c-6-1.79-12-3.65-18-5.65-3-1-5.85-2.29-8.73-3.56A6.18,6.18,0,0,1,0,41.45a6.16,6.16,0,0,1,3.76-6.09c15.19-8,30.35-16,45.43-24.15,5.52-3,10.86-6.35,16.14-9.76a8.23,8.23,0,0,1,8.9-.28,6.46,6.46,0,0,1,3.86,5.24c.53,4.22,1.35,8.41,2.1,12.94,2.22.39,4.14,1,6,1,10.86-.33,21.71-.86,32.57-1.25,7.13-.26,14.28-.71,21.4-.48,6.17.2,8.06,2.51,8.46,8.43C149,31.86,149.35,36.67,149.74,42ZM137.31,28a12.58,12.58,0,0,0-2.38-.5,32.32,32.32,0,0,0-4.28.24,351.67,351.67,0,0,1-48.77,2.4,30.41,30.41,0,0,1-5.94-.71c-5.63-1.22-6.47-2.25-7-7.93-.3-3,0-6.16-2.37-8.91C60.73,16,55.38,19.19,49.91,22.21c-5.75,3.17-11.7,6-17.41,9.26-5.41,3.08-11.89,4.06-17.37,8.9,3.17,1.28,5.7,2.45,8.33,3.33,11.75,4,43.77,12.41,49.16,13,.09-3.4.39-6.79.21-10.15-.2-3.77,2.7-6.27,6.38-6.69a30.15,30.15,0,0,1,3.42.08c5.14,0,10.3.29,15.41-.11,8.26-.64,16.46-2,24.73-2.56a77.17,77.17,0,0,0,14-2.58C138.33,32.4,138.87,30.36,137.31,28Z"/></g></g></svg>