<svg xmlns="http://www.w3.org/2000/svg" viewBox="0 0 136.41 129.14"><g id="Layer_2" data-name="Layer 2"><g id="Layer_1-2" data-name="Layer 1"><path d="M3.66,103.46c2.1-2,3.35-3.6,5-4.56,3.69-2.17,7.54-4.08,11.38-6,6.15-3,12.4-5.86,18.51-9C52.28,76.93,66,69.8,79.67,62.7c1.19-.61,2.33-1.33,3.46-2-.44-.92-.54-1.63-.88-1.78C68.6,53.07,55,47.12,41.22,41.46c-9.51-3.93-19-8-29.38-9.26a17,17,0,0,1-5.69-1.85c-4.76-2.5-8-7.08-5-13.58C3.62,11.63,5.73,6.33,7.88,1.31a17.06,17.06,0,0,1,13.78.3c6,2.62,12.11,5.19,18,8.1C52,15.8,64.32,21.83,76.39,28.38q15.49,8.42,31.69,15.27c5.26,2.22,10.32,4.93,15.47,7.42,2.57,1.24,5.18,2.4,7.68,3.75,1.67.91,3.19,2.1,5.18,3.45-2,3.38-3.7,6.23-6.47,8.35-13.84,10.6-27.7,21.22-42.86,29.9C77.42,102.06,67.39,107,57.5,112.11q-12.55,6.52-25.15,13a75,75,0,0,1-7,3.3c-4,1.56-6.76.83-8.86-2.67C12.28,118.61,8.24,111.4,3.66,103.46ZM9,23.33c2.9.79,4.78,1.44,6.7,1.79,11.91,2.18,23.12,6.45,34.21,11.13q20.14,8.52,40.25,17.14c3.9,1.67,7.7,3.56,10.43,7.64-1.3,1.41-2.2,2.91-3.53,3.75a79.43,79.43,0,0,1-7.61,4C77.17,74.81,64.78,80.7,52.61,87c-10.16,5.25-20,11-30.78,15.09-2.34.88-4.83,1.84-6.13,5,1.9,4.39,3.95,9,8.32,12.28,2.73-1.38,5.31-2.6,7.82-4C45.44,108.1,59,100.7,72.63,93.48A258.08,258.08,0,0,0,119.52,62a23.28,23.28,0,0,0,2.24-2.61c-.86-.76-1.38-1.52-2.1-1.82A587.4,587.4,0,0,1,62.48,30c-13-7.11-26.68-13.13-40.13-19.47-2.19-1-4.49-2.81-7.78-1.09-.86,1.9-2,4.19-2.93,6.54C10.79,18.09,10.11,20.23,9,23.33Z"/></g></g></svg>