<svg xmlns="http://www.w3.org/2000/svg" viewBox="0 0 154.94 289.95"><g id="Layer_2" data-name="Layer 2"><g id="Layer_1-2" data-name="Layer 1"><path d="M12.5,94.74,0,83.91c.65-4.85,3.6-7.69,6.14-10.7,2.38-2.82,5-5.45,7.9-8.57-2.34-7.4-4.72-15-7-22.26A5.56,5.56,0,0,1,12,37.82c3.37-.61,6.77-1,10.16-1.46,2-.24,3.94-.31,6.14-.47l8.51-23.26c8.7-2.22,15.37,3.16,23.51,4.41,1.36-1.2,3-2.66,4.68-4.17C68.53,9.58,71.88,6,75.69,3,81.93-1.9,86.4-.8,90.22,6.32c1.35,2.51,2.28,5.24,3.38,7.89.87,2.09,1.71,4.2,2.59,6.39,8.84,1.43,17.2-3,25.85-1.12,5.73,6.39,2.86,14.3,4,21.85,3.71,1.91,7.58,3.73,11.26,5.87a33.36,33.36,0,0,1,6.85,5c2.62,2.64,2.65,5.36.62,8.6a14.38,14.38,0,0,1-2.71,3.3c-3.91,3.39-3.89,7.2-1.81,11.59,1.69,3.57,2.95,7.36,4.52,11.37L133,98.23c-1.13,7.23,4.06,13.55,1.79,20.59-5.78,2.81-12.07.8-18.21,2.55a23.11,23.11,0,0,0,.54,4.92c4.31,12.8,6.68,26,8.6,39.34,1.79,12.44,4,24.87,7,37.08,2.29,9.41,6.07,18.46,9.16,27.69,3.46,10.33,7.42,20.45,12.86,29.93a4.46,4.46,0,0,1,.17,1.67,4,4,0,0,1-5,2.24,110.53,110.53,0,0,1-12.22-3.89c-4.74-1.87-9.32-4.15-14.54-6.51-.86,2.3-1.61,4-2.17,5.84-2.69,8.73-5.65,17.4-5.87,26.7,0,1.1-1.27,2.55-2.34,3.17-1.79,1-3.47-.07-4.3-1.66-4.1-7.86-8.07-15.8-12.08-23.71-1.39-2.74-2.26-5.8-4.56-8.33-2.66,6.52-3.42,19.27-1.92,29.56-5.58,3.09-7.57,3.14-11-1-4.37-5.29-8.24-11-12.44-16.41-2.25-2.93-4.74-5.67-7.39-8.81a33.89,33.89,0,0,0-4.42,3A73.79,73.79,0,0,0,42.4,278.66c-2.38,4.13-5.9,5.92-11.11,5.29a57.15,57.15,0,0,1-.73-5.9,223.66,223.66,0,0,1,2.31-36.84c1.79-12.47,4.05-24.87,5.71-37.35,1.55-11.63,2.77-23.31,3.77-35,.39-4.53-.11-9.16-.44-13.72a79.62,79.62,0,0,0-1.37-7.95l-6.33-1.45a29,29,0,0,1-3.68-13.47c0-6.62-3.76-9.82-9.64-11.33-1.11-.29-2.24-.48-3.34-.8C10.48,118,9.44,116.5,10.2,109c.23-2.27.82-4.5,1.19-6.76S12.06,97.7,12.5,94.74ZM56.05,250.48a18.17,18.17,0,0,1,10.27,6.26c4.2,5.06,8.26,10.23,12.38,15.35.86,1.06,1.54,2.48,3.67,1.73.15-1.82.41-3.79.44-5.75.23-15.18,2.15-30.21,4.37-45.19,1.88-12.7,4.42-25.31,6.21-38,1.67-11.92,2.18-23.94.18-35.91a41.34,41.34,0,0,0-1.77-7.5,6.82,6.82,0,0,0-3-3.76c-1.83-.79-3,1.09-4,2.5s-1.63,3-2.64,4.41c-3.75,5.16-8.63,5.9-13.93,2.11-2.56-1.82-5.09-3.7-7.51-5.7a5.52,5.52,0,0,0-6.36-.9c-2,.95-3.91,2.12-6,3.28C49,148,49.79,152.22,50,156.47c.34,7.12.38,14.27.35,21.4,0,2.55-.78,5.09-.87,7.65A128.76,128.76,0,0,1,44.88,216c-4.5,16.11-5,32.71-6.93,49.15a25.23,25.23,0,0,0,.43,4.31c3.39-4,5.81-7,8.48-9.88C49.76,256.48,52.9,253.58,56.05,250.48Zm-21-210c-5,4.71-11.84,1.27-17.38,4.11-1,4.14.42,7.93,1.71,11.67.73,2.16,1.88,4.16,2.75,6.28a5.94,5.94,0,0,1-1.35,7.08c-1.44,1.39-2.85,2.82-4.2,4.3C14.28,76.4,12.07,79,10,81.31c.46,1.11.55,1.77.93,2.13a87,87,0,0,0,7,6.34c3.35,2.56,4.82,5.4,3.18,9.64a39.32,39.32,0,0,0-1.74,7.5c-.32,1.89-.32,3.83-.47,5.85L31.09,118c3.67,1.57,6.13,4.06,6.72,8.21.37,2.54.92,5.06,1.53,7.55a37.83,37.83,0,0,0,1.59,4.16c3.41-1.3,6.39-2.21,9.16-3.55,5.78-2.79,10.85-2.35,15.85,2,2.47,2.14,4.82,4.9,8.73,5.41,1.6-2.83,3-5.65,4.71-8.24,2.92-4.38,5.23-5.23,10.14-3.07,3.58,1.58,7,3.8,11.16,4.08,3.07-2.91,3.41-6.78,4.65-10.2,3.25-9,3.69-11.37,14.46-10.94,2.21.09,4.69.38,6.17-2.31,0-3-.08-6.1-1.87-8.91-1.45-2.26-.61-4.52.63-6.44a24.84,24.84,0,0,1,4.06-4.4c2.29-2.11,4.76-4,6.4-7.13-.59-1.26-1.16-2.54-1.77-3.81-4.88-10.27-4.88-10.27,1-20.22,2.5-4.24,2.23-6.19-2-8.31A74.91,74.91,0,0,0,122,48.09c-4.06-1.3-5.24-2.49-5.4-6.63-.14-3.43.2-6.87.08-10.3a26.8,26.8,0,0,0-1.15-5c-2.41.19-4.4.19-6.33.53-3.09.55-6.13,1.48-9.23,2-4.17.68-7.65,0-10.4-4a49,49,0,0,1-5-9.88c-.79-2-.56-4.67-3.56-5.88a39.57,39.57,0,0,0-9.89,9c-4.23,5.85-9.69,6.39-15.92,4.72-2.2-.59-4.3-1.53-6.48-2.22-1.58-.5-3.22-.86-5.11-1.36C39,25.75,37.72,33.45,35,40.45Zm65.48,103.61c.15,1.29.25,2.69.48,4.07,2.65,15.75,1.29,31.37-1.54,47-1.59,8.73-3.29,17.45-4.8,26.19-1.21,7-3.06,14,.73,20.84,1.61,9.82,6.54,18.28,11.09,26.88a19.42,19.42,0,0,0,2.61,2.94c1.55-4.55,2.28-8.92,4.42-12.44,2.46-4,2.73-8.65,4.38-12.52,2.65-1.66,4.74-.6,6.81.42,5.4,2.64,10.77,5.33,16.18,8,.94.46,2,1.24,3.34-.62-.77-2-1.69-4.35-2.54-6.71-4.31-11.83-8.75-23.61-12.86-35.51-5.46-15.79-6.46-32.54-10.17-48.71-1.85-8.08-2.9-16.33-4.47-24.48-.28-1.45-.26-3.42-2.33-3.95C106.59,141.59,106.59,141.59,100.51,144.06Z"/><path d="M67.38,123.22c-3.84.23-9.68-1.15-15.47-2.8a6.68,6.68,0,0,1-2.34-1c-7.39-5.86-14.81-11.6-19.21-20.4C22,82.38,23.61,66.5,33.27,51a163.23,163.23,0,0,1,10.62-14.5c4.29-5.42,9.85-7.7,16-9,15.69-3.26,30.33.14,43.31,9C120.9,48.64,128.45,67.28,123,88.13c-3.56,13.57-12.33,22.31-24.35,28.2C89.56,120.79,79.79,123,67.38,123.22Zm49-51.59c.12-11.95-7.06-24.34-21.42-32.71-4.81-2.8-10.12-3.8-15.41-4.93-12.67-2.71-23.06.88-30.89,11.39-5.32,7.16-9.15,15.13-12.42,23.37a27.49,27.49,0,0,0-.52,18.49C36.73,90.51,38,93.71,39,97c3.21,9.92,10.79,15.46,20.11,18,12.66,3.52,25.37.91,36.61-4.83C109,103.42,116.67,91.92,116.41,71.63Z"/></g></g></svg>