<svg xmlns="http://www.w3.org/2000/svg" viewBox="0 0 167.32 135.66"><g id="Layer_2" data-name="Layer 2"><g id="Layer_1-2" data-name="Layer 1"><path d="M72.31,26.28C83.55,20.16,93.76,14.4,104.16,9c9-4.65,18.68-7.16,28.64-8.62A26.25,26.25,0,0,1,144.68,1c4.58,1.45,6.31,3.55,5.5,8.21-.72,4.13,0,7.89.92,11.82,1.52,6.39,2.75,12.84,4,19.29,2.22,11.5,4.26,23,6.59,34.5.67,3.34,2.13,6.52,3.18,9.78A71,71,0,0,1,167.07,92c1.16,5.66-1.78,10.23-7.43,11.54-5,1.17-10.09,2-15.09,3.19a74,74,0,0,0-38.94,23.64,15.57,15.57,0,0,1-9.52,5.12A10.57,10.57,0,0,1,88,133.69c-10.83-7.23-23.18-11.06-35.32-15.25-8.79-3-18-3.06-27.2-2.3a98.35,98.35,0,0,1-10.28.56c-4.72-.12-6.15-1.5-6.57-6.11q-1-11.1-1.76-22.24c-1.34-20-3-39.93-6.54-59.68-.78-4.37-.25-5.76,3.58-7.54A55.47,55.47,0,0,1,12.78,18c18.84-5.14,36.84-2,54.32,5.77C68.92,24.58,70.69,25.49,72.31,26.28Zm26.52,94.56c3.21-2.68,6-5.07,8.83-7.34a88.66,88.66,0,0,1,41.07-18.26c2.18-.37,4.58-.51,6-2.81a649.09,649.09,0,0,1-16.68-81.56C125.87,8,92,24.72,80.65,36c-.67,7.56,1.23,15.08,2.54,22.63,1.26,7.3,3.4,14.49,4.15,21.83.88,8.59,3.51,16.67,5.79,24.87C94.5,110.24,96.64,115,98.83,120.84ZM12.32,29.39c.12,2.09.08,3.52.29,4.92,3.09,21,5.94,41.94,6.15,63.18a17,17,0,0,0,2.16,8.25c2.17,0,4.14.13,6.09,0a88,88,0,0,1,39.63,5.64c4.52,1.78,9,3.66,13.54,5.41a41.85,41.85,0,0,0,4.68,1.14,47.2,47.2,0,0,0-1-4.82c-5.6-16-7.87-32.78-11.17-49.31-1.34-6.71-1.75-13.61-2.42-20.44a9.47,9.47,0,0,0-5.38-8.05,76.67,76.67,0,0,0-30.95-9.56A42.58,42.58,0,0,0,12.32,29.39Z"/></g></g></svg>