<svg xmlns="http://www.w3.org/2000/svg" viewBox="0 0 240.29 199.83"><g id="Layer_2" data-name="Layer 2"><g id="Layer_1-2" data-name="Layer 1"><path d="M90,45.74a10.8,10.8,0,0,0,2-1.67c5.74-8,14.65-10.73,23.34-13.53,2.55-.82,5.68-.16,8.49.23a46.18,46.18,0,0,1,6.61,1.9c2.84-.56,4.15-3,5.53-5a24.41,24.41,0,0,1,7.41-7c5-3.25,10-6.66,15-10C170.34,2.44,183.78-.51,198.18.07c5.89.24,11,2.49,16.21,5.06,6.53,3.22,9.7,7.6,10.78,15,1.21,8.22,2.66,16.37,2.83,24.68a52.84,52.84,0,0,0,6.45,24.68,69.81,69.81,0,0,1,4.83,11c.79,2.31.7,4.92,1,7.36-4.85,2.93-9,5.87-13.58,8.14-14.7,7.34-30.28,7.9-46.16,5.34-3.39-.54-6.74-1.37-10.13-1.9-1.9-.3-3.86-.27-6.9-.46,1.41,1.92,2,3.18,3,4,7.23,6.26,12.34,14.28,18.18,21.69a95.55,95.55,0,0,1,7,9.8,32.41,32.41,0,0,1,3.78,8.54c.91,3.52-2.19,6.05-5.68,4.93-3.81-1.24-7.53-2.77-11.33-4-2.4-.81-4.88-1.37-7.51-2.1-2.29,3.73-2,7.48-2.33,11.07-.72,6.82-1.39,13.66-2.13,20.49-.39,3.65-2.25,6.33-5.92,8.46-4.37-6.13-8.5-12.17-12.88-18-4.24-5.66-8.31-11.5-14.47-16.77a28.67,28.67,0,0,0-1,4.59c-.32,12.3-1.27,24.6.36,36.89a11.36,11.36,0,0,1,.06,2.54c-.3,2.88-3.31,4.77-5.6,3.21a43.49,43.49,0,0,1-7.72-6.67c-2.48-2.75-4.38-6-6.6-9-1-1.33-2.15-2.54-3.43-4-5,4.44-7.29,9.94-9.89,15.28-1.24,2.57-2.34,5.24-3.82,7.67-1.93,3.17-5.06,3-6.58-.17a44.88,44.88,0,0,1-3.26-7.93c-3.63-14.45-6.94-28.91-5.9-44.06.6-8.82.11-17.71.1-26.46-1.64-1.21-2.75-.28-3.89.62-6.74,5.3-13.32,10.84-20.29,15.82a43.75,43.75,0,0,1-32.55,7.95,15,15,0,0,1-8.09-3.3c-2-5.56-2-11.6-2.32-17.58-.24-4-.56-8-.61-12-.13-9.36-3.09-18-6.59-26.49-1.31-3.18-2.74-6.31-4-9.51-4.32-11.18.14-23.15,11-28.23,11.55-5.4,23.51-8.7,36.6-6.34,8.72,1.57,17.63,2,26.42,3.2C80.2,43.62,84.66,44.71,90,45.74Zm51.16.39a22.5,22.5,0,0,0-.43,3.69,18.49,18.49,0,0,0,.74,4.2c3.88,11.47,6.24,23.12,4.38,35.73,2.5.38,4.7.79,6.92,1,7.95.89,15.91,1.66,23.84,2.62,8.22,1,16.35,2.64,24.73,2.17,11.75-.66,24.25-4.86,32.89-11.66-1.58-3.52-3-7.25-4.87-10.74a65,65,0,0,1-7.61-26.12c-.3-4-.23-8-.51-12-.22-3.27-.19-6.66-2.51-10.25-10.74,9.41-21.48,17.66-35.37,20.8S155.74,50.33,141.13,46.13ZM88.66,57.46a17.92,17.92,0,0,0-3,1.24c-17.56,12.41-37.46,18-58.58,19.73-4.2.34-8.5-.57-12.75-.94-1-.09-2.08-.32-3.15-.48a8.31,8.31,0,0,0-.2,2.08,21.22,21.22,0,0,0,1.11,4.12c4.93,11.2,6.83,23,6.78,35.1a46.18,46.18,0,0,0,.7,7.68c.45,2.73-.32,5.75,1.81,8.49a36.53,36.53,0,0,0,20.82-2.06c8.4-3.19,15.53-8.39,22.45-14,9.12-7.34,17.84-15.2,27.95-21.28,2.33-1.41,5.05-2.7,6.18-5.33-1.7-5.78-3.18-11.29-4.94-16.7C92,69.51,92.57,63.19,88.66,57.46Zm9.89,44.76c-2.28,1.86-4.06,3.86-6.29,5-4.46,2.32-5.77,6.07-5.78,10.63,0,6,.56,12.06-.07,18-1.39,13,.69,25.69,2.68,38.41a31.22,31.22,0,0,0,4,11.58l2.19-3.14c3.81-5.35,7.56-10.74,11.46-16,1.2-1.63,2.8-2.9,5.45-2.25,4,4,6.24,9.79,11.31,14.76.4-2.91.8-4.78.9-6.67.5-10.29.85-20.58,1.42-30.86a10.94,10.94,0,0,0-2.41-7.91,79.54,79.54,0,0,1-12.78-24.16c-.62-1.85-1.35-3.67-2-5.36-2.88-.73-5.37-1.39-7.87-2A12,12,0,0,0,98.55,102.22Zm22.1-5.3a39.72,39.72,0,0,0,5.12,0c8.81-1.17,13.12-5.45,14.27-14.2a19.22,19.22,0,0,0,0-6c-1.55-8.12-3-16.27-5.09-24.28-.89-3.51-2.94-6.76-4.64-10-1.1-2.12-3-3.21-5.38-3.86-4.35-1.2-8.49-.54-12.56,1-1.86.7-3.53,2-5.42,2.51-4.42,1.3-7.14,4.5-9.78,7.93a7.83,7.83,0,0,0-1.3,7.25c1.3,5,2.3,10,3.8,14.91a116.32,116.32,0,0,0,5.48,15.25C109.67,97.05,109.86,97,120.65,96.92Zm-3,9.23a32,32,0,0,0,1,4.76,70,70,0,0,0,11.94,19.72c2.42,2.82,4.75,5.71,7.07,8.61,6.43,8,12.82,16.1,19.26,24.14.88,1.09,1.84,2.27,4,.83.15-4.19.28-8.74.48-13.27.17-4,.31-8,.68-12s2.5-5.56,6.33-5c3.39.47,6.73,1.24,10.1,1.84,1.21.22,2.55,1.41,3.81-.66C176.08,125,169.06,115.25,160,107.24c-4.66-4.13-9.46-8.29-15.67-9.76-4.23,2.25-8.06,5-12.31,6.37S123.08,105.34,117.65,106.15Zm20.8-68.27c8.06,5.64,16.3,5.65,24.57,4.86,9.44-.89,18.28-4,27.21-7.16,7.07-2.48,12.51-6.75,17.7-11.61a18.34,18.34,0,0,0,5.16-9.14c-.66-.93-.88-1.61-1.32-1.81-7.64-3.43-15.54-6.08-24-4.51-18.55,3.43-34.19,12.37-47.3,25.82C139.71,35.09,139.36,36.23,138.45,37.88Zm-56.4,13.6C71.9,50.24,63.41,49.38,55,48.12,45.16,46.66,35.55,47,26.24,50.6c-6.65,2.6-13.6,4.86-17.12,12,.07,4.45,2.43,6.56,6.74,7.4a30.57,30.57,0,0,0,11.07.4c4.8-.79,9.59-1.66,14.41-2.36,13.25-1.9,25.36-6.9,36.91-13.43A38.84,38.84,0,0,0,82.05,51.48Z"/></g></g></svg>