<svg xmlns="http://www.w3.org/2000/svg" viewBox="0 0 163.19 152.84"><g id="Layer_2" data-name="Layer 2"><g id="Layer_1-2" data-name="Layer 1"><path d="M163.19,63.22c-.19,7-2.69,13-6.5,18.52a22.71,22.71,0,0,1-13,9.34c-9.12,2.43-18.23,4.92-27.45,6.86-5.57,1.18-11.33,1.48-17,2a162.61,162.61,0,0,0-29.48,5.57,20.41,20.41,0,0,0-7.91,4.87,62.34,62.34,0,0,0-7.73,9.17q-7.82,10.78-15.27,21.82A42.2,42.2,0,0,1,28.6,151.61a5.36,5.36,0,0,1-5.63.74c-4.68-2-8.48-4.95-9.54-10.24-2.72-13.45-5.73-26.87-6.69-40.6a120.38,120.38,0,0,0-3.48-21A116.07,116.07,0,0,1,.2,62.78C-.89,50.94,2.58,40.14,8.82,30.17c2.49-4,5.68-7.1,10.49-8.28s9.35-2.64,14.05-3.84C44.72,15.17,56,12,67.49,9.62c16.25-3.36,32.63-6.11,49-9.09,7.87-1.44,15.4.24,22.76,2.82,9.23,3.24,14.28,10.48,16.63,19.42,2.18,8.28,3.39,16.82,4.92,25.26C161.68,53.07,162.39,58.15,163.19,63.22ZM25.42,137.44a17.34,17.34,0,0,0,2.63-2.13c3.39-4.62,6.64-9.34,10.08-13.92,5-6.63,10.09-13.17,15.15-19.75A18.68,18.68,0,0,1,64,94.93c6.11-1.49,12.26-2.88,18.47-3.84,8.48-1.3,17.05-2,25.53-3.24a159.77,159.77,0,0,0,31.56-8.12c5.9-2.18,9.39-6.6,10.85-12.39a26.35,26.35,0,0,0,.45-10.2q-2.38-15.7-5.57-31.28c-1.65-8-6.37-13.17-15-14.3-3.72-.48-7.27-1-11-.15-5,1.08-10.19,1.54-15.26,2.42C79.46,18,55,22.48,30.93,29.24c-6.45,1.82-11.2,5.25-14.11,11.45a45.44,45.44,0,0,0-3.35,30.94c2.21,9.18,4.07,18.45,5.68,27.76,1.17,6.75,1.49,13.64,2.5,20.42C22.49,125.43,23,131.16,25.42,137.44Z"/></g></g></svg>