<svg xmlns="http://www.w3.org/2000/svg" viewBox="0 0 201.3 181.54"><g id="Layer_2" data-name="Layer 2"><g id="Layer_1-2" data-name="Layer 1"><path d="M111.12,18c2.57-.91,5-1.75,7.36-2.62,9.3-3.38,18.85-5.25,28.6-2.86,15.66,3.83,27.21,12.86,33.49,28.07,2.82,6.83,1.69,13.47-.77,20.05-.78,2.1-1.89,4.07-3,6.43a27.77,27.77,0,0,0,3.18,3c6.06,4.09,10.52,9.68,14.56,15.62a37.46,37.46,0,0,1,6.78,21.77c0,7.78-.37,15.35-3.08,22.82a44.84,44.84,0,0,1-20.64,24.3,68.74,68.74,0,0,1-30.93,9.32c-1.13.07-2.24.35-3.68.59a48.18,48.18,0,0,0-2.85,5.07c-2.14,5.15-6.15,8.24-11.16,10-8.84,3.15-17.43,2.73-25.32-2.81-4.42-3.1-8.68-6.43-13.06-9.69a15.64,15.64,0,0,0-2,1.75c-6,7.12-13.52,9.9-22.85,9.2-13.21-1-25.43-5-36.07-12.53-9-6.41-15.49-15.18-17.82-26.41-.7-3.36-1.34-6.74-2-10.11-1.45-7.46-1.48-14.81,2.21-22-1.38-1.32-2.62-2.43-3.76-3.62C3,97.87,1.49,90.88.27,83.81a33.44,33.44,0,0,1-.25-6c.14-17.92,7-24,20.61-30.3,4.12-1.9,8.61-3,12.55-4.32,2.3-6.32,4.32-12.25,6.64-18.06a56.8,56.8,0,0,1,4.61-9.19C53.29,1.8,65.79-1.82,79.84.78a48.93,48.93,0,0,1,25.1,12.35C106.79,14.87,108.94,16.29,111.12,18ZM42.18,51.26c-3.29,1-6,1.79-8.71,2.78-4.56,1.69-9.16,3.33-13.58,5.34-5.26,2.41-9.09,6.7-9.76,12.31-1.16,9.74,1,18.82,8.74,25.74,2.12,1.9,4.59,3.46,5.41,7-2.42,4.77-4.89,9.92-4.59,15.86s1,12,3.17,17.69,5.05,10.94,9.74,14.94c6.85,5.83,14.51,10.17,23.42,12,2.24.47,4.51.84,6.73,1.39,8.51,2.08,15.13-1.13,20.63-7.37.93-1.06,1.41-2.5,2.31-3.6,2.5-3.07,5.68-3.71,9-1.41a30.06,30.06,0,0,1,5.41,5.4c4.81,5.6,10.43,9.89,18,10.64,6,.6,11.48-.55,14.42-6.81a31.89,31.89,0,0,1,2.06-3.76c2.27-3.46,5-6.09,9.58-6.21,3.12-.08,6.19-1.14,9.32-1.45,6.39-.65,12.2-2.89,17.87-5.75,17.87-9,23.67-30.76,17.87-48.05-2.63-7.83-8.29-13.62-14.32-19-1.91-1.72-3.94-3.32-5.79-5.11a5,5,0,0,1-1-6.28,33.73,33.73,0,0,0,2.5-5.44c2.05-7,2.82-14.17-.57-20.82-6.7-13.12-18.46-18.24-32.48-18.57-7.82-.18-15.33,2.2-22.25,5.83-4.3,2.25-7.63,1.56-10.69-1.91a14.29,14.29,0,0,0-1.76-1.88c-7.61-6.18-15.55-11.48-25.6-13.25s-21,3.36-25.11,10.93A80.45,80.45,0,0,0,45,41.64C44.18,44.92,43.11,48.14,42.18,51.26Z"/></g></g></svg>