<svg xmlns="http://www.w3.org/2000/svg" viewBox="0 0 213.12 183.91"><g id="Layer_2" data-name="Layer 2"><g id="Layer_1-2" data-name="Layer 1"><path d="M61.94,15.94c4.86-5,9.49-9.22,15.34-11.9C84.22.88,91.43-.68,99,.28a34.49,34.49,0,0,1,9,2.41,76.87,76.87,0,0,1,22.31,14.88c13.19-8.54,27-8.48,39.81-.89,12.46,7.42,21.49,18.22,20.36,34.47,2.75,1.44,5.23,2.83,7.77,4.06,5.66,2.74,9.58,7.23,12.49,12.61,3.07,5.67,3,11.66.55,17.45-1.59,3.84-2.94,7.45-.87,11.48a3.54,3.54,0,0,1,.4,1.66c-.21,8.61-.81,17.14-4.84,25A29.22,29.22,0,0,1,189.32,138c-.15,1.71-.37,3.35-.43,5-.34,8.28-3.44,15.58-7.95,22.37a27,27,0,0,1-19,12.07c-9.19,1.42-18.3,1.12-26.83-3.32-1.26-.66-2.53-1.29-4.17-2.13a54.31,54.31,0,0,0-4.74,3.3c-8.56,7.39-18.09,10.35-29.43,7.74-8.33-1.91-15.81-5-21.65-11.09-6.23-.36-12.2-.69-18.17-1.06-6.8-.43-12.67-3.37-18.33-6.83-6.27-3.83-9.17-10.07-11.47-16.61a73.75,73.75,0,0,1-4.4-25.79,61,61,0,0,0-7.34-4,17.1,17.1,0,0,1-8.45-7C2.46,103.38-.49,95.68.07,87A16.35,16.35,0,0,1,1.52,80.4c3.58-6.48,6.3-13.59,12.2-18.53C16,60,16.27,57.84,15.91,55,14.2,41.4,20.33,31.05,30.56,23.07a34.57,34.57,0,0,1,25-7.44C57.51,15.82,59.51,15.83,61.94,15.94Zm67,11.14c-1.41-.79-2.66-1.45-3.87-2.18-5.87-3.55-11.55-7.47-17.63-10.61a30.11,30.11,0,0,0-38.34,8.86c-2.86,3.83-5.9,5.15-10.22,4.08a27.29,27.29,0,0,0-13.59.46c-12.07,3.13-20.58,11.42-19,24.56a46.34,46.34,0,0,1,.28,8.57c-.21,3.17-1,6.15-4.47,7.63-5.48,2.36-8.08,7.34-9.78,12.46-3.14,9.47.32,22.36,9.54,27a42.92,42.92,0,0,1,6.67,3.87c2.3,1.71,4.78,3.93,3.93,7.06-1.76,6.49.42,12.54,1.73,18.59a26.5,26.5,0,0,0,11.61,17.34,33.17,33.17,0,0,0,25.41,4.95c5-1,8.68.13,12,4.22a20.52,20.52,0,0,0,8.16,6c10.87,4.14,21.33,3.84,30.39-4.68.83-.78,1.7-1.53,2.58-2.26,4.74-3.92,6.1-4.06,11.5-1.17,1.26.68,2.46,1.47,3.73,2.11,8.52,4.3,17.17,3.71,25.8.47a17,17,0,0,0,10-10.07c2.4-5.9,4-11.93,3.46-18.38-.33-3.91,1.62-6.56,5-8.24,2-1,4.21-1.81,6.27-2.79,6.8-3.25,10.58-8.62,10.85-16.18.17-4.84.47-9.69-.94-14.49-1-3.32-1.15-6.87.83-10,3.56-5.59,1.51-10.28-2-14.93A34,34,0,0,0,189.11,61c-5.26-3.25-8.14-7.83-8.33-14.1-.28-9.65-6.28-16.21-13.63-20.63-10.54-6.33-22.05-7.55-33.43-1.14A43.13,43.13,0,0,1,129,27.08Z"/></g></g></svg>