<svg xmlns="http://www.w3.org/2000/svg" viewBox="0 0 259.31 145.53"><g id="Layer_2" data-name="Layer 2"><g id="Layer_1-2" data-name="Layer 1"><path d="M45.16,79.61c-.45-2.41-.6-4.08-1.07-5.65-4.17-13.68-.83-26.31,6.69-37.61A89.24,89.24,0,0,1,75.5,11.55c8.08-5.41,17-8,26.29-10,18.31-3.93,35.24-.27,50.76,10C160.62,16.9,166.4,24.4,170.9,32.8c3.79,7.05,6.8,14.46,7.84,22.25,1.81,1.63,3.45.74,5.06.34a34.38,34.38,0,0,1,26.47,3.71,30.35,30.35,0,0,1,12.79,13.46c1.72,3.58,3.15,7.3,4.91,11.42a45.45,45.45,0,0,0,6.6-.06c4.85-.7,8.85.92,13,3.36,11.12,6.61,13,16.49,11.15,26.5-2,10.67-7.72,18.76-17.91,23.69-12.21,5.92-25.17,7.69-38.4,7.61-12.87-.08-25.75-1-38.61-1.67-14.28-.77-28.53-2.13-42.82-2.48a196.89,196.89,0,0,0-29.13,1.46c-18.8,2.38-37.6,3.91-56.53,2.73a85,85,0,0,1-14.34-2.51c-8.44-2-13.66-7.75-17.36-15.36-3-6.13-3.73-12.49-3.54-19.17A20.59,20.59,0,0,1,5.11,94.7C14.7,83.79,26.3,77.41,41.41,79.59A34.83,34.83,0,0,0,45.16,79.61Zm172,13.6c-.48-2.64-.88-5.14-1.4-7.62-1.91-9.28-6.65-16.16-15.83-19.83-5.41-2.15-10.44-2.61-15.67.12a52.88,52.88,0,0,1-7,3.2c-4.38,1.53-7.15,0-8.45-4.55a11.51,11.51,0,0,1-.57-3.37c.16-7.43-2.78-14.08-5.8-20.49C156.17,27.44,146.28,18,132.23,13,120.14,8.68,108.13,8.83,96,12.3a50.83,50.83,0,0,0-14.71,6.84c-8,5.36-14.19,12.4-20.23,19.7A36,36,0,0,0,53.3,55c-1.54,7.89-1.79,15.91,3.13,23.19a41,41,0,0,1,3.92,8.58,4.47,4.47,0,0,1-4.92,6,17.3,17.3,0,0,1-5.64-2C38.06,84.11,24.53,89,17,97.23c-2.09,2.27-4.33,5-5,7.85-1.91,8.18-.1,15.87,4.95,22.69,3.29,4.46,8.1,6.3,13.24,7.23a99.19,99.19,0,0,0,29.09,1c13.1-1.49,26.17-3.38,39.31-4.16a418.21,418.21,0,0,1,69.51,1.79,280.27,280.27,0,0,0,46.35,1.21c7.33-.43,14-2.75,20.48-5.9a20.73,20.73,0,0,0,7.65-6.76c3.09-4.29,4.55-9.22,5.74-14.25a8.75,8.75,0,0,0-2.6-8.65c-1-1-2-2.06-3.09-3-3.69-3.07-7.54-4.91-12.61-3C226.23,94.79,222.16,94.93,217.14,93.21Z"/></g></g></svg>