<svg xmlns="http://www.w3.org/2000/svg" viewBox="0 0 72.85 229.84"><g id="Layer_2" data-name="Layer 2"><g id="Layer_1-2" data-name="Layer 1"><path d="M9.69,164.65c-.77-3.36-1.64-5.82-1.87-8.34C4.5,119.27,1.57,82.2,4.22,45,5,33.58,6.62,22.22,7.9,10.85c.16-1.4.7-2.76,1-4.15a5.94,5.94,0,0,1,5.18-5C18.31,1,22.56,0,26.81,0c6.85,0,13.71.56,20.56.92,2.86.15,5.71.39,8.56.59a36.08,36.08,0,0,1,5.12.42C72.18,4.41,73.45,5.25,72.66,15.8,71.22,34.89,70,54,68.42,73.07c-1.28,15.38-2.89,30.73-4.53,46.08-1.24,11.7-4.35,23-8,34.16a14.43,14.43,0,0,1-10.78,10A86.07,86.07,0,0,1,9.69,164.65ZM63.83,10.17c-11.49-.81-22-1.64-32.61-2.24a55.23,55.23,0,0,0-9.43.51c-5,.59-6.25,2-6.81,7.13-.47,4.27-.91,8.55-1.21,12.84-1,14-2.3,28-2.82,42-.95,25.84,2.85,51.47,4.19,77.21.15,2.75.07,5.75,1.87,8a7.61,7.61,0,0,0,1.76.85c8.33,1.27,16.56-.38,24.83-.87,3-.18,4.38-2.5,5.07-5.13,1.67-6.37,3.54-12.71,4.78-19.16,1.55-8.15,2.64-16.4,3.78-24.62,1.16-8.47-.19-17.19,2.57-25.5-.22-10.56,2.1-20.92,2.41-31.46.33-11.16,1.39-22.3,2.06-33.45A55.19,55.19,0,0,0,63.83,10.17Z"/><path d="M.09,205.8c-.17-17.53,10.44-27.05,23.35-32.56,7.94-3.39,14.52-.24,20.42,4.94A27,27,0,0,1,53.4,201c-.35,6.37-1.35,12.46-4.73,18-4.39,7.26-11,10.87-19.24,10.77a45.23,45.23,0,0,1-15.87-3.2C5.74,223.58-.83,215.26.09,205.8Zm45.53-1.93a25.07,25.07,0,0,0-3.8-14.27c-2.66-4.64-7.26-7.2-12.28-8.67a7.35,7.35,0,0,0-5,.46c-7.26,3.76-13.16,8.9-15.8,17a13.74,13.74,0,0,0,0,8.39c4.09,13.8,17.09,15.08,26.94,13.1a3.49,3.49,0,0,0,1.51-.76C42.07,215,46.71,210.76,45.62,203.87Z"/></g></g></svg>