<svg xmlns="http://www.w3.org/2000/svg" viewBox="0 0 217.15 317.48"><g id="Layer_2" data-name="Layer 2"><g id="Layer_1-2" data-name="Layer 1"><path d="M131.83,317.47c-4.48-6.56-8.68-13-13.2-19.26a66.24,66.24,0,0,0-33.76-24.1c-12.47-4-25.72-6-38.84-1.77-2.55.82-4.86,1.18-7.1.1.9-2.4,1.69-4.75,2.67-7,.56-1.28,1.13-2.9,2.2-3.56,6.33-3.92,7.7-10.69,9.16-16.93,2.58-11,2.66-22.18-2.37-32.77a94.66,94.66,0,0,0-19.78-27.85,36.67,36.67,0,0,0-16.91-9.77c-3.3-.8-5.6-2.86-5.89-6.54a6.39,6.39,0,0,1,3.91-6.9c2.33-1.09,4.82-1.83,7.19-2.84,7-3,13-6.83,16.32-14.32,4-8.86,6.75-17.68,4-27.38a18.49,18.49,0,0,0-2.82-6.2c-7.69-10-17-17.73-29.57-20.87a24.94,24.94,0,0,1-3.31-.92c-3.91-1.53-5.1-6.2-1.94-9a24.81,24.81,0,0,1,8-4.79c10.81-3.9,19.6-10.68,27.38-18.81,8.87-9.28,13.64-20.35,13.32-33.4-.11-4.58,0-9.17,0-13.76a35.88,35.88,0,0,1,.22-4.28C51.08,2.34,52.16.61,54.34.12s3.76.48,5,2.39a53.35,53.35,0,0,0,22.79,19,87.3,87.3,0,0,0,22.9,7c11.25,1.74,21.53-1.74,31.19-7.29,4.47-2.56,8.83-5.32,13.37-7.74,4.15-2.22,6.77-1,7.28,3.57.42,3.69.26,7.43.37,11.15.31,10.77,2.59,21,8.67,30.1,4.58,6.87,10.43,12.12,18.62,14.34,5.24,1.42,10.46,2.9,15.72,4.27,4,1,5.85,3.37,5.37,7.36a25.75,25.75,0,0,1-1.48,4.9c-1.27,3.8-2.87,7.53-3.81,11.41-3.09,12.72-1.23,25.12,3.69,37,1.47,3.54,4.78,6.35,7.34,9.41,1.46,1.75,3.3,3.21,4.65,5,1.75,2.36,1.45,4.92-.88,6.9a43.32,43.32,0,0,1-7.65,5.52c-15,8-19.92,21.16-19.81,37.22a43.52,43.52,0,0,0,8.54,25.62,77.28,77.28,0,0,1,6.31,10.21c2.29,4.56,1.39,8.92-2.14,11.62a8.49,8.49,0,0,1-4.61,1.94c-13.83.1-24.41,7.27-34.46,15.57-7.42,6.12-13.33,13.36-16.49,22.63-2.4,7-5.27,13.92-5.54,21.52C139.07,317.1,138.42,317.56,131.83,317.47Zm-1.38-20.79c3.26-7.42,6-13.7,8.78-19.95a49.46,49.46,0,0,1,12.24-16.42,105.49,105.49,0,0,1,17.13-12.89c5.79-3.39,12.38-5.41,19-8.19-1.88-4.18-3.59-8-5.34-11.87-3-6.57-5.38-13.25-4.65-20.68.22-2.27-.05-4.58,0-6.87.41-17.6,6.2-32.49,21.49-42.59a5.24,5.24,0,0,0,1-1.36c-9.47-16.56-7.57-11.09-10.82-33.65a52.06,52.06,0,0,1,.33-18.79c1-4.69,1.76-9.44,2.69-14.51-4.67-1.61-9-3-13.25-4.6-12.44-4.63-21.14-13-26.45-25.31-3.72-8.65-4.31-17.72-5.56-26.76-.18-1.29.35-2.93-2.07-3.72-2.34,1.43-4.94,3.14-7.66,4.63-10.28,5.63-21.22,8.64-33,7.43C90.63,39.18,78.39,33.9,67.19,26c-1.79-1.25-3.7-2.34-5.93-3.74-.93,5.76-1.59,10.82-2.58,15.81a50.16,50.16,0,0,1-9.83,21.7A85.18,85.18,0,0,1,27.34,79.37a56.83,56.83,0,0,0-4.6,3.55c5.4,4.4,10.61,8.4,15.55,12.72,7,6.11,10.47,14.17,12.07,23.14,1.45,8.14-.16,15.76-3,23.5-3.64,9.92-7.91,19-17.42,24.65-.22.13-.31.46-.58.88,12.33,8.93,21,21,27.79,34.35C63.72,215,66.1,228.68,63.46,243c-1,5.32-2.35,10.56-3.65,16.32,2.51.42,5,.93,7.51,1.24,4.55.55,9.17.69,13.67,1.51,16.51,3,29.31,12.41,40.58,24.23C124.51,289.37,127.12,292.77,130.45,296.68Z"/></g></g></svg>