<svg xmlns="http://www.w3.org/2000/svg" viewBox="0 0 176.97 183.79"><g id="Layer_2" data-name="Layer 2"><g id="Layer_1-2" data-name="Layer 1"><path d="M41.44,87.42c-2.62-1.17-4.18-1.81-5.69-2.54A42.67,42.67,0,0,1,19,70.57c-5.44-7.88-6.46-16.4-3.66-25.36C18,36.56,24.72,30.78,36,33.41c7.13,1.66,13.81,5.3,20.68,8.1,1.26.51,2.45,1.2,3.42,1.69,2.07-1.2,1.73-2.75,1.44-4-2.4-10.61,1.51-19.72,6.83-28.4a21.32,21.32,0,0,1,5.9-6.11c11.62-8.16,31.82-5.19,40.61,5.85,2.94,3.69,4.64,7.84,4.21,12.7-.33,3.63-.5,7.27-.79,11.63,2.67-1.38,4.7-2.35,6.66-3.46,10.9-6.18,22.22-6.67,33.9-2.57a47.17,47.17,0,0,1,4.83,1.77,21.76,21.76,0,0,1,11.95,13.62c2.41,7.17,1.32,13.18-1.41,19.8C168.72,77.32,159,85.75,145.69,90.55A39.69,39.69,0,0,0,142,92.39a68.91,68.91,0,0,0,7.17,3.94,59.65,59.65,0,0,1,19.27,12.61,24.62,24.62,0,0,1,7.82,16.65c.48,9.35-6.85,19.15-16.38,21.58a39.76,39.76,0,0,1-32.1-5.16c-2.59-1.63-5.14-3.32-8.49-5.48-.29,2.18-.75,3.5-.58,4.74,1.52,11.39-.87,22.23-5,32.68-1.91,4.89-5.48,8.33-11.41,9.16-4.3.6-8.42,1.09-12.7.16a20.75,20.75,0,0,1-13.17-8.89c-5.11-7.47-8.41-15.61-8.54-24.8,0-4,0-8,0-12.81a19.44,19.44,0,0,0-3.31,1.75c-8.76,7.74-18.67,13.27-30.23,15.4-12.51,2.31-23.18-1-31.38-11.1C.74,140.06-.81,131.68.45,127.19,2.07,121.4,4.18,115.82,8,111c8-10,17.46-17.88,29.81-21.88C38.63,88.85,39.37,88.4,41.44,87.42Zm75.74-.3C123.4,86,128.69,85.06,134,84c2.5-.51,4.92-1.46,7.41-2C152.23,79.36,159,72.06,164,62.58c3.71-7.09,2.09-13.9-1.17-20.45a10.28,10.28,0,0,0-5-4.44c-5.82-2.4-11.69-3.63-18.26-2-11.26,2.84-17.25,11.49-23.85,19.66-.79,4.71-4.27,7.91-6.66,11.72-2.55,4.09-2.73,5,.47,8C112.85,78.28,115.91,81.55,117.18,87.12Zm-54.59,9c-1-.26-1.81-.54-2.63-.66-8.6-1.26-16.37,2-23.9,5.2-10,4.21-17.5,11.6-22.46,21.38a27.93,27.93,0,0,0-2.85,14.09c.16,3.83,1.74,6.59,5.68,7.51a74.77,74.77,0,0,0,7.51,1.45c8.66,1.06,16.09-2.9,23.63-6.14a26,26,0,0,0,7.06-4.65,79.63,79.63,0,0,0,14.2-17,37.55,37.55,0,0,0,2.26-5.06A76,76,0,0,1,66,104.7,87.61,87.61,0,0,1,62.59,96.09ZM94.76,67a39.73,39.73,0,0,0,2.65-5c2.59-7,4.81-14.08,7.58-21,2.55-6.34,2.16-12.93,2.44-19.46A9.73,9.73,0,0,0,106,16.78c-3.45-6.18-15.86-10-22.19-7a4.94,4.94,0,0,0-1.42,1C75.61,17.39,70.94,25,72.39,35c1.28,8.86,4.38,17.18,8.2,25.22C83.69,66.76,86.37,67.94,94.76,67Zm16.33,40.4c2,5.46,5.64,9.12,9,13a54.73,54.73,0,0,0,29.26,18.11,15.57,15.57,0,0,0,15-3.92,7.53,7.53,0,0,0,2.24-8.54c-2.1-6-5.15-11.27-10.6-15.12-10-7-21.19-11-32.9-13.82-2.13-.5-4.49-.07-6.88-.07Zm-11.51,9.25L84.11,118c-6.57,16.3-9.06,32.17-.7,48.23a24.5,24.5,0,0,0,2.64,4.38c2.68,3.2,6.36,5.44,10.37,5.1,4.4-.38,6.16-4.34,7.75-8.2,2.68-6.47,3.23-13.23,3.76-20.08C108.79,136.23,105.76,126.19,99.58,116.65ZM74.36,70.31c-3.3-4-6.25-7.81-9.54-11.34-2.31-2.48-4.77-5.14-7.72-6.63-6.59-3.32-13.52-6-20.32-8.86a11.56,11.56,0,0,0-2.46-.71c-6.92-1.24-11.67,2.68-11.95,9.65-.18,4.79,1,9,4.35,12.54,3.88,4.13,7.07,9.18,12.68,11.16,6.44,2.27,13.05,4.06,19.62,6,2.48.72,5,1.07,7.59-.48Zm31.37,19.84a13.51,13.51,0,0,0-4.3-10.65c-2.7-2.64-6-2.66-9.41-3.14-6.86-.94-12.41,3.21-14.5,9.32a49.93,49.93,0,0,0-2.66,10.69c-.46,4.29,1.61,7.66,5.59,9.67,6.6,3.34,13.54,2.17,18.52-3.33C102.43,98.88,105.45,94.76,105.73,90.15Z"/></g></g></svg>