<svg xmlns="http://www.w3.org/2000/svg" viewBox="0 0 179.09 195.31"><g id="Layer_2" data-name="Layer 2"><g id="Layer_1-2" data-name="Layer 1"><path d="M112.86,42.43c6.67-3.87,13.57-4.16,20.42-3.43C146,40.34,156,46.21,162.36,57.65c4.24,7.63,3.88,15.48.66,23.18-1.83,4.41-4.6,8.43-7.23,13.13a24.53,24.53,0,0,0,3.92,2.47c8.64,3.53,13.48,10.43,16.44,18.77A54.44,54.44,0,0,1,178,144a20.48,20.48,0,0,1-8.5,13.38c-6.49,4.68-13.53,7.36-21.56,7.33h-8c-2.25,1.44-2,3.31-2.26,4.93-1,6.17-4.35,11.22-8.22,15.82-8.64,10.25-26.06,12.84-37.7,6.13-3.68-2.12-5.56-5.69-8.07-8.74a73.69,73.69,0,0,1-4.79-7.39,13.9,13.9,0,0,0-3.3,1.07c-6.31,4.12-13.41,6.37-20.48,8.69-12.38,4.06-24,0-31.73-10.57a41.66,41.66,0,0,1-7.09-17.31,30.72,30.72,0,0,1,4.28-22.27c1.64-2.67,3.53-5.2,5.63-8.26a26.87,26.87,0,0,0-3.66-3.06c-3.47-2-7-3.83-10.58-5.72C4.49,114.06.79,107.76.13,99.39A38.64,38.64,0,0,1,5.47,76.3,25.11,25.11,0,0,1,23.41,64.21c3.91-.69,7.9-1,11.69-1.46.29-.82.72-1.4.59-1.78-3.18-9.14-3.17-18.57-2.36-28a40.2,40.2,0,0,1,6.94-19.17C44.62,7.37,51.55,4,58.63,1.71A39.12,39.12,0,0,1,82.35,2C96.9,6.62,105.71,16.87,109,31.83,109.68,35.15,110.3,38.52,112.86,42.43ZM87.94,161.88c.84,8.7,5.25,15.37,10.4,21.58a10.44,10.44,0,0,0,5,3c7.85,2.27,12.26.53,16.84-6.31a41.76,41.76,0,0,0,2.55-4.46c2.83-5.52,4.49-11.16,1.76-17.27a7.49,7.49,0,0,1-.32-2.53c-.09-1.86,1.26-3.58,3.06-3.36,3.09.38,6.45.54,9.14,1.9,4.94,2.5,9.81,2.57,15,1.58,7.84-1.51,12.82-6.3,14.21-14a76.42,76.42,0,0,0,1.21-8.49c.62-10.14-1.78-19.28-9.12-26.75a15.1,15.1,0,0,0-8.93-4.69,42.16,42.16,0,0,1-6.69-1.34,3.56,3.56,0,0,1-2.27-4.84,12.57,12.57,0,0,1,2.07-3.65c1.62-2,3.6-3.72,5.12-5.78,4-5.44,6.63-11.66,6-18.35-1.45-16.53-19.44-25.78-34-17.72a102.63,102.63,0,0,0-9.16,6.3,25.23,25.23,0,0,1-2.7,2.08,5,5,0,0,1-7.47-4.17c-.14-1.7,0-3.43,0-5.15a55.45,55.45,0,0,0-5.83-24.85C89.12,15.37,82,9.42,70.94,9.23,65.41,9.14,61.16,12,56.65,14.5c-7.1,3.87-10.79,9.9-11.71,17.87a60.42,60.42,0,0,0,1,19.63c1.18,5.55,2.79,11,4.27,16.77a12.42,12.42,0,0,1-10.7,4,51.23,51.23,0,0,0-8.55-.54c-7.73.49-13.4,4-16.47,11.49a32.81,32.81,0,0,0-2.19,12.57c0,6.23,2.47,11.2,7.78,14.41,6.11,3.69,12,7.87,18.89,10.1,1.5.48,2.77,1.71,3.94,2.47-.19,4.14-2.88,5.88-5.36,7.81-15.26,11.87-10.5,35.68,2.42,44.81a13.06,13.06,0,0,0,11.41,2.22C61,175.3,70.71,172.51,76,162.61c1.72-3.2,5-3.54,8.26-2.48A33.94,33.94,0,0,1,87.94,161.88Z"/><path d="M92.67,84.16c8.27-.76,15,3,21.19,7.79,3.7,2.83,4.6,7.29,4.46,11.62a38.68,38.68,0,0,1-3.78,14.89c-3.74,8.11-10.4,12.25-19,12.45a40.37,40.37,0,0,1-14.23-2.49c-9.72-3.48-12.88-10.73-12.53-20.21a34.11,34.11,0,0,1,4.35-14.72c3-5.71,7.82-9,14.4-9.32C89.23,84.08,91,84.16,92.67,84.16ZM80.58,107.61c.43,1.83.75,5,1.92,7.82,2.83,6.81,9,8.57,15.36,4.87,5.19-3,6.93-8,8-13.42,1.34-6.7-1.05-11.4-7.54-13.07C85.7,90.56,82.11,92.47,80.58,107.61Z"/></g></g></svg>