<svg xmlns="http://www.w3.org/2000/svg" viewBox="0 0 132.38 173.8"><g id="Layer_2" data-name="Layer 2"><g id="Layer_1-2" data-name="Layer 1"><path d="M132.38,134.5a20.12,20.12,0,0,1-2.1,3.08,33.8,33.8,0,0,1-3.51,2.71c-1.43-.59-2.7-1.2-4-1.63-8.15-2.7-15.51-.22-20,7.18-2.18,3.64-3.62,7.72-5.61,12.09-3.38,3.27-7.32,2.6-11.25-.07-1.18-.8-2.12-1.93-3.27-2.77-7.75-5.7-16.19-3.43-20.36,5.45-2.88,6.12-6.76,6.67-10.46,1.08-2.65-4-5.25-8-10.55-7.45a17.58,17.58,0,0,0-13.42,8.29c-1.39,2.16-2.43,4.55-3.85,6.69a16,16,0,0,1-3.39,3.68c-1.89,1.48-4.11,1.29-5.16-.78a116.26,116.26,0,0,1-7-15.54c-3.37-10.16-2.14-20.44,1.14-30.38a48.6,48.6,0,0,0-.45-32Q5.8,84.41,2.93,74.5a68.12,68.12,0,0,1,2.4-46.22c5.21-12.55,15.08-20.56,28-24.81,14.95-4.91,29.9-4.35,44.78,0a43,43,0,0,1,15.65,8.72c7.66,6.55,14.47,13.91,17.73,23.8,1.69,5.15,3.48,10.28,4.89,15.51a15.36,15.36,0,0,1,.34,6.77c-2.76,13.6-1.93,27.31-1.31,41,.26,5.74,2.54,11.09,5.6,16.06C124.9,121.65,128.59,128.08,132.38,134.5ZM55.8,149.32c20-9.42,20.2-7.15,34.46-2.41a13.2,13.2,0,0,0,1.44-2c4-8.59,10.34-14.22,19.88-16,1.22-.22,2.27-1.35,3.55-2.16-1.31-2.4-2.26-4.49-3.52-6.36-4.65-6.89-6.43-14.66-6.75-22.74-.34-8.56-.58-17.17-.11-25.71.72-12.8-.48-25.13-6.32-36.72C92.2,22.84,83,14,69,11.1a61,61,0,0,0-25.59-.25c-13.91,3.05-23.23,11.55-28,25.07-3.73,10.54-3,21.4-2.7,32.24a6,6,0,0,0,.37,1.65,280.09,280.09,0,0,1,8.67,27.63c1.79,7.46,2.3,14.5.5,21.87-1.55,6.37-2.75,12.84-4.31,19.21a29.39,29.39,0,0,0-.2,12.76c.23,1.22,1.07,2.32,1.82,3.88C31,146.15,42.51,140.47,55.8,149.32Z"/></g></g></svg>