<svg xmlns="http://www.w3.org/2000/svg" viewBox="0 0 127.14 138.71"><g id="Layer_2" data-name="Layer 2"><g id="Layer_1-2" data-name="Layer 1"><path d="M71.19,21.79c6.73-1.17,12.29-2.44,17.92-3.05,9.6-1.06,18,1.55,25,8.68,12.63,12.95,15.89,28,10.74,45.11-2.84,9.43-9.93,15.27-17.88,20-8.35,5-17.14,9.22-25.64,13.95-11.7,6.52-21.56,15-28.41,26.75-1.35,2.31-3.9,3.93-5.49,5.47-4-.28-6.29-1.43-7-4.83-.42-1.94-1.19-3.81-1.7-5.74-2.2-8.39-6.22-15.92-10.75-23.25-6.78-10.94-14.12-21.54-20-33A71.83,71.83,0,0,1,0,41.3c-.37-12.09,3.59-23,12.76-31.7,10.53-10,33.51-14.69,49-1.47,3.16,2.7,5.25,6.68,7.72,10.16A21.37,21.37,0,0,1,71.19,21.79ZM47.46,118.4a10,10,0,0,0,2.13-1.47c9.06-11.09,20.58-18.83,33.3-25.12,7.67-3.8,15.17-8,22.45-12.55,11.32-7.05,13.54-16.94,10.84-29.08A36.85,36.85,0,0,0,111.75,40c-3.7-6.35-9.39-9.78-16.79-10.42-7.59-.65-14.77.31-21.56,4.1-3.79,2.12-7.32.64-9.13-3.26a15.78,15.78,0,0,1-1.08-3.26c-1.5-6.9-6.39-10.56-12.47-13.06a31,31,0,0,0-16.87-1.92,19.12,19.12,0,0,0-7.89,3c-8.84,6.3-14.16,14.85-14.69,25.89A50.42,50.42,0,0,0,18,69.1c3.42,6,7,11.81,10.7,17.6,6.15,9.65,12.62,19.09,17.08,29.71A9.26,9.26,0,0,0,47.46,118.4Z"/></g></g></svg>