<svg xmlns="http://www.w3.org/2000/svg" viewBox="0 0 143.37 255.85"><g id="Layer_2" data-name="Layer 2"><g id="Layer_1-2" data-name="Layer 1"><path d="M59.44,192.79a14.6,14.6,0,0,0,.66-3.52C59,172.2,57.73,155.14,56.49,137.6c-7.08-.86-13.8-1.9-20.57-2.45-9.76-.8-19.24-3-28.67-5.38C1.73,128.35.52,126.5.11,120.58a32.18,32.18,0,0,1-.06-4.28C1.19,98,2.92,79.82,6.51,61.81,8.24,53.12,9,44.25,10.42,35.49c2.41-14.85,1.92-14.22,14.7-23.35A42.22,42.22,0,0,1,40,5.76C52.26,2.73,64.59.47,77.27.07a92.75,92.75,0,0,1,27.2,2.74c9.63,2.56,15.07,9.18,17.83,17.9,2.85,9,4.54,18.32,6.68,27.51q6.14,26.32,12.22,52.67a5.34,5.34,0,0,0,1,2.33c2.37,2.59.76,4.91-.66,6.91A18.91,18.91,0,0,1,137,114c-12.09,8.85-25,16.15-39.41,20.58-1.89.59-3.74,1.34-5.77,2.08-1.59,5.86.86,11.39.94,17,.08,6,.75,12,1.22,18,.44,5.68,1,11.35,1.45,17.24a19.16,19.16,0,0,0,3.53,1c8.69.48,15.79,4.65,22.62,9.51,3.66,2.61,6.53,6.09,7.2,10.34,1.22,7.85,2.58,15.79.75,23.83a16.53,16.53,0,0,1-5.45,9.43,43.13,43.13,0,0,1-16.53,8.8c-16.28,4.48-32.81,4.71-49.46,3.14-5.69-.54-11.38-1-16.77-3.31-8.53-3.69-13.16-10.15-13.19-19.29A176.32,176.32,0,0,1,29.72,211a13.09,13.09,0,0,1,5.89-9.15c5.68-4,11.66-7.26,18.7-8.15C56,193.48,57.6,193.12,59.44,192.79ZM17.87,30.86c-.33,1.51-.65,2.61-.79,3.73C15.47,47.37,13.79,60.15,12.32,73c-1.63,14.22-3.09,28.46-4.52,42.7a37.44,37.44,0,0,0,.34,6c6.15,2.67,12.35,3.6,18.55,4.46,5.1.7,10.22,1.35,15.36,1.7,8.55.58,17.05,2.34,25.68,1.35,6.25-.71,12.5-1.55,18.75-2.27,18.41-2.1,34.48-9.69,49.7-20.86-.52-2.46-.9-5-1.59-7.39-5-17.33-8.76-35-12.75-52.54-1.33-5.86-2.82-11.68-4.28-17.51-.75-3-1.59-6.07-5.21-7.24-1.31.81-2.56,1.5-3.71,2.32-10.1,7.26-22.19,8.81-33.79,11.8a10.43,10.43,0,0,1-2.57.17c-10.58-.07-21.17-.07-31.75-.31A52.68,52.68,0,0,1,31.23,34C26.82,33.06,22.45,31.94,17.87,30.86Zm42,171.36c-4.07-1.15-7.22-.54-9.88,1.23a120.9,120.9,0,0,0-11.49,8.8c-.87.74-1.08,2.61-1.07,3.95,0,4.55,3.19,7.22,6.53,9.47a49.06,49.06,0,0,0,20.55,8.19,109.46,109.46,0,0,0,34.18-.15,44,44,0,0,0,15.83-6.3,18.3,18.3,0,0,0,5.84-6.06c3.13-5.31,1.81-10.07-3.64-13-4.48-2.44-9.29-4.27-13.61-6.21-2.28,4.85-4.07,9.29-6.39,13.43-2,3.59-4.89,6.28-9.67,5.75-1.64-.19-3.37.51-5.07.72a19.1,19.1,0,0,1-21.53-16.17C60.27,204.74,60.1,203.65,59.87,202.22Zm23-63.83c-6.27,0-11.38,0-16.48.05a6.09,6.09,0,0,0-2.15.92,8.49,8.49,0,0,0-.19,1.87c3,20.09,3.88,40.33,4.66,60.58a23.13,23.13,0,0,0,.45,4.25c1.7,7.24,11.69,10.37,17.08,5.4,3.38-3.12,4.1-6,2-10.8-1.28-3-2.29-5.68-1.28-9,.47-1.52-.19-3.37-.31-5.08C85.78,174,84.94,161.51,84,149,83.78,145.6,83.28,142.24,82.84,138.39ZM27.11,24.12a23.84,23.84,0,0,0,12.11,3.82c17.73.83,35.39.73,52.52-4.91,3-1,6.09-1.58,9-2.68,3.76-1.43,7.18-3.37,7.76-8.61a68,68,0,0,0-26.7-5.3c-4.84.07-9.66.79-14.5,1.09-10.33.63-20.2,3.61-30.22,5.83Q28.84,15.19,27.11,24.12Zm9.62,207.76c-.87,5,1.07,8,4.25,10.35a29.34,29.34,0,0,0,11.76,5,109,109,0,0,0,41.74.66,131.86,131.86,0,0,0,14.2-3.19,23.52,23.52,0,0,0,12.53-8.6c.92-1.26,1.09-2.58-.48-3.58C95.64,245.72,63.32,245.21,36.73,231.88Z"/></g></g></svg>