<svg xmlns="http://www.w3.org/2000/svg" viewBox="0 0 219.28 93.51"><g id="Layer_2" data-name="Layer 2"><g id="Layer_1-2" data-name="Layer 1"><path d="M100.14,17.4c1-.78,1.29-.91,1.41-1.14C110.17.26,127-1.44,139.28.79a103.29,103.29,0,0,1,29.78,10.6c3,1.6,6,3.32,9.14,4.73,8.18,3.69,16.64,5.87,25.79,5a34.57,34.57,0,0,1,10.18.75c3.86.81,5.7,3.86,4.94,7.7A13.36,13.36,0,0,1,216.73,35a53.72,53.72,0,0,1-6.91,7.61c-5.35,4.74-11,9.11-16.38,13.83a117.64,117.64,0,0,1-35.16,21.08c-16,6.3-32.27,11.47-49.34,14.25a140.56,140.56,0,0,1-51.16-1.27C43.62,87.59,30.27,82.85,18,75.2A86.33,86.33,0,0,1,2.11,62.11c-3.18-3.25-2.73-6.82,1.11-9.29a16.26,16.26,0,0,1,4-1.56c10.08-3.1,18.38-8.75,25.71-16.39C39,28.49,46,22.92,52.83,17.28a33.33,33.33,0,0,1,16.19-7c9.42-1.62,17.51.59,25.58,4.67C96.37,15.8,98.22,16.54,100.14,17.4Zm-72.58,39a63.47,63.47,0,0,0,19.16,2.06c8.29-.19,16.57-.95,24.86-1.1a121.8,121.8,0,0,0,24.66-3.29c7.53-1.7,15-3.63,22.61-5.07,17.73-3.38,35.25-7.64,52.66-12.35,4.68-1.27,9.22-3.06,13.8-4.69.43-.15.67-.85,1.26-1.65-1.79-.81-3.48-1.71-5.26-2.38a162.59,162.59,0,0,1-17.95-8.16,84.63,84.63,0,0,0-24.16-8.73,25.33,25.33,0,0,0-27.76,14c-.63,1.28-1.18,2.61-1.85,3.87a4.16,4.16,0,0,1-5.07,2.21A24.51,24.51,0,0,1,99,28.83c-2.5-1.39-4.81-3.12-7.3-4.52-9.29-5.23-18.47-5.44-27.44.8a54.8,54.8,0,0,0-4.87,3.52C49.11,37.58,38.84,46.58,27.56,56.42ZM187.33,43.55c-3.2.69-5.13,1.06-7,1.53-17.77,4.33-35.52,8.74-53.3,13-19.18,4.59-38.36,9.17-58.2,10-12.86.57-25.71,1.45-38.53-.55a22.47,22.47,0,0,0-3.49.12c2.59,3.22,5.6,4.2,8.42,5.44,8.95,3.95,18.45,6,27.94,8.13,13.54,3,27.16,3.69,40.88,1a267.92,267.92,0,0,0,44.36-13,110.3,110.3,0,0,0,35.69-21.67A40.6,40.6,0,0,0,187.33,43.55Z"/></g></g></svg>