<svg xmlns="http://www.w3.org/2000/svg" viewBox="0 0 178.55 175.5"><g id="Layer_2" data-name="Layer 2"><g id="Layer_1-2" data-name="Layer 1"><path d="M96.92,49.5c5.94-5.08,11.09-9.61,16.37-14q11.24-9.33,22.64-18.45a26.76,26.76,0,0,1,5.85-3.58c4.25-1.87,7.62-1.12,10.79,2.37,7.49,8.27,15.23,16.34,20.27,26.52,1.64,3.31,3.87,6.34,5.71,9.3,0,6-3.43,9.52-7.62,12.81-10.58,8.32-21,16.86-31.45,25.33A16.8,16.8,0,0,0,137.65,92c4.6,5.49,9.26,10.84,13.68,16.4s8.94,11.22,12.89,17.17,9.61,10.68,12.14,17.82A99.37,99.37,0,0,1,155,162.67c-7.71,5.17-15.07,11.44-24.88,12.83-4.61-4.51-7.89-9.53-11.22-14.5-4.3-6.42-8.33-13-12.79-19.35-3.44-4.86-7.37-9.39-11.44-14.52-1.82,1.24-3.23,2.07-4.49,3.08Q68.8,147.52,47.47,164.87c-4.7,3.81-9.7,7.13-15.55,9-2.72.85-4.75.25-6.71-2.17-5.05-6.21-10.49-12.11-15.68-18.22-4.09-4.8-7.93-9.73-9.26-16.18-.57-2.75-.31-5.09,1.53-7.2,1.32-1.52,2.6-3.06,4-4.52,11.85-12.43,23.33-25.25,36.65-36.21A18,18,0,0,0,44.54,87c-.1-.84,0-1.53-.25-1.89-7-9-14.14-18-21.18-27-4.05-5.19-8-10.43-12-15.68a17.57,17.57,0,0,1-1.78-2.94c-2.33-4.72-1.92-8.9,2-12.48,5.93-5.39,12.25-10.35,18.32-15.58a66,66,0,0,1,15.9-10.1c4.2-1.92,5.21-1.88,8,1.88,9.61,13,21.69,23.61,32.76,35.2ZM31.1,164.62c8.62-3.59,14.37-10.21,21.19-15.29C59.41,144,66.08,138.16,73,132.59c6.64-5.35,13.33-10.62,19.73-15.72,4.45,1.53,6.55,4.72,8.93,7.52a305.75,305.75,0,0,1,24.75,32.9c2,3.09,4.08,6.19,7.78,7.84,11.73-5.87,21.5-14,30.56-22.74-.2-1-.13-1.73-.43-2.12-10.87-14.35-20.56-29.61-33.15-42.63A40.56,40.56,0,0,1,127.33,93c-1.2-1.67-1.92-3.53-.87-5.59,8.08-4.58,30.08-22.24,42.69-34.27-4.25-11.23-13-24.84-22.62-32-1.76,1.2-3.67,2.43-5.5,3.74a344.34,344.34,0,0,0-34.37,28.48c-7.25,6.77-12.86,5.66-18.88-1.12C77,40.1,65.52,28.44,54.33,16.56c-2.39-2.53-5-4.73-8.53-5C37.16,16,22.05,27.69,15.65,35c1.89,2.63,3.75,5.48,5.86,8.12Q31.7,55.84,42,68.42c3.07,3.74,6.24,7.4,9.44,11,2.31,2.6,4.2,5.35,4.41,9.56-7.16,8.25-16.81,14.23-24.25,22.49C24,120,15.56,127.62,8.5,136.43,14.24,147.72,22.52,156.24,31.1,164.62Z"/></g></g></svg>