<svg xmlns="http://www.w3.org/2000/svg" viewBox="0 0 126.06 84.58"><g id="Layer_2" data-name="Layer 2"><g id="Layer_1-2" data-name="Layer 1"><path d="M.77,81.86C-.5,76.72.15,71.3.3,65.9A6.91,6.91,0,0,1,5.75,59c5.78-1.54,11.64-2.82,17.53-3.87C40,52.13,57,53.42,73.82,52.64c10.29-.48,20.6-.63,30.9-.72a64.54,64.54,0,0,1,11.11.88c6.4,1.07,9.2,4.37,8.39,10.64-.53,4.15.81,8.6-1.57,12.87-3.42.27-6.79.76-10.17.76C101,77.05,89.66,78.51,78.31,80c-5.67.74-11.37,1.28-17.07,1.73C44.7,83,28.19,85,11.55,84.5,7.88,84.38,4,85,.77,81.86ZM9.39,76.8c7.63,1.06,14.73.49,21.81-.09C40.61,75.93,50,75,59.43,74.2c4.85-.43,9.7-.79,14.55-1.3,8.53-.89,17-2,25.59-2.76,5.08-.47,10.14-1,14.92-1.65,1.39-3,1.61-5.41.19-8.2-1.65-.14-3.33-.42-5-.4-15.76.15-31.51.31-47.26.56-3.72,0-7.45.79-11.14.62-10.66-.47-21.15.84-31.65,2.34A22.27,22.27,0,0,0,8.51,68C8.8,70.91,9.08,73.65,9.39,76.8Z"/><path d="M2.54,26.25c.23-6.1.46-12,.67-17.5C5.7,5.58,8.77,4.68,11.78,4A104.93,104.93,0,0,1,26.1,1.4C47.49-.48,68.93,0,90.37.19c7.13.06,14.26.38,21.4.58,2,.06,4,0,6,.25,6.62.72,8.38,2.72,8.3,9.28a55.89,55.89,0,0,1-.28,6.85c-.84,6.12-4.24,8.7-9.59,8.61-20.28-.37-40.56-.2-60.83,1.25-6.5.46-13.07-.54-19.63.38-5.08.72-10.24.95-15.35,1.42C14.65,29.33,9,29.73,2.54,26.25ZM117,8.8c-3.8-.16-6.34-.36-8.87-.38C95.59,8.34,83,8.61,70.44,8.19A315.22,315.22,0,0,0,22.55,9.85c-4,.48-7.81,1.21-11.35,3.33-.74,2.88-1.12,5.59.08,8.31a15.12,15.12,0,0,0,8.68.38c3.63-.69,7.33-1,11-1.43,2.27-.27,4.54-.45,6.82-.63,3.68-.29,7.37-.63,11.06-.79,3.13-.13,6.28,0,9.42-.06,16-.46,32-1,48-1.43,2.82-.08,5.65,0,8.94,0Z"/></g></g></svg>