<svg xmlns="http://www.w3.org/2000/svg" viewBox="0 0 145.22 149.16"><g id="Layer_2" data-name="Layer 2"><g id="Layer_1-2" data-name="Layer 1"><path d="M54.72,59.08c.72-18.19-1.84-35.75-2.94-53.19C58.16.38,65.69,1.36,72.57.17,76.7-.55,80.45,1.06,84.2,4c0,8-.09,16.25,0,24.53.11,8,.39,16,.69,24a16.23,16.23,0,0,0,1,3.52c17.3-2.29,34.45-.61,50.94-1.33,1.12.63,1.62.88,2.09,1.19,6.21,4,6.46,10.22,6.19,16.65a6.88,6.88,0,0,1-5.36,6.9,31,31,0,0,1-5.92.94c-14.55,1.27-29.11,2.47-43.66,3.74a40.84,40.84,0,0,0-4.29.87,19.4,19.4,0,0,0-.62,3.52q.38,21.06.89,42.1c.08,3.14.54,6.27.77,9.41.18,2.53-.76,4.63-3.13,5.59a43.58,43.58,0,0,1-8.94,2.83,70.2,70.2,0,0,1-11.14.71c-3.83,0-5.14-1.07-5.6-5q-1.63-14.07-2.84-28.19c-.62-7.13-.88-14.3-1.48-21.43a48.66,48.66,0,0,0-1.55-6.74A47.6,47.6,0,0,0,46,87.38c-10,.81-20,1.63-29.92,2.7-5.77.62-8.15.63-13.81-1.33C1.52,82.74.76,76.51,0,70.28c-.27-2.28,1-3.88,2.72-5A23.61,23.61,0,0,1,14.19,62q18.44-1.12,36.88-2.37C51.92,59.55,52.75,59.37,54.72,59.08Zm22.43,81.49c.22-2.68.5-4.34.47-6q-.32-22.74-.73-45.49c-.06-2.84-.45-5.71,1.3-8.25a22.75,22.75,0,0,1,10.44-3.7c13.11-1.12,26.21-2.34,39.31-3.58,2.52-.24,5-.75,7.52-1.13a12.51,12.51,0,0,0,.12-9.33,36.05,36.05,0,0,0-3.74-.37c-9.16,0-18.32,0-27.48.23-5.44.11-11-.24-16.25,1C77.42,66.5,76.39,62.9,75.68,53.72c-1-13.45-.6-26.88-.47-40.33a40.85,40.85,0,0,0-.57-5c-5.1-.71-9.38.35-14.07,2.28.44,6.17.9,12.11,1.27,18.05s.79,12,1,18,1.42,11.89.14,17.8C58,67.11,53,67.61,47.79,67.84c-10.86.48-21.72,1.14-32.57,1.83a39.4,39.4,0,0,0-5.73,1.22c-.15,4.4-.71,8.37,2,12C19.37,82,27,80.67,34.66,80.29s15.24-2.06,22.62-1.35c2.65,4.2,4.35,7.92,4.67,12.43,1,13.41,2.29,26.8,3.61,40.18.3,3,1.17,6,1.86,9.48Z"/></g></g></svg>