<svg xmlns="http://www.w3.org/2000/svg" viewBox="0 0 186.09 181.4"><g id="Layer_2" data-name="Layer 2"><g id="Layer_1-2" data-name="Layer 1"><path d="M129.22,123.13c-.53,8.51.8,16.43,1.14,24.36.34,7.67.93,15.33,1.42,23.11a22,22,0,0,1-10.88,5.18c-13.5,2.52-27,5.09-40.8,5.6-4.09.15-7.88-.81-11.48-1.44-2.78-3.92-2.88-7.91-3.28-11.89-1.19-12-2.54-23.89-3.91-35.83a19.54,19.54,0,0,0-1.31-3.91c-3.62-1.32-7-.54-10.41-.22-9.69.89-19.38,1.84-29.09,2.51a49,49,0,0,1-10.26-.52,7.58,7.58,0,0,1-6.94-6.58,57.93,57.93,0,0,1-1.15-5.9C1.45,106.48.57,95.36,0,84.22c-.38-8.11,1.88-11.39,9.35-14.49a38.52,38.52,0,0,1,7.4-2.15c9.83-1.92,19.69-3.72,29.54-5.55,2.51-.46,5.17-.49,7.3-3,0-3.37,0-7,0-10.7-.11-6.59-.19-13.17-.47-19.75A48.93,48.93,0,0,0,52,21.88a37,37,0,0,1-.9-5.06c-.13-3.33.81-6.09,4.24-7.67,6-2.76,12-5.31,18.72-5.8C86,2.47,98,1.14,109.94.16c3.09-.25,6.34-.57,9.71,2,.76,5.07,1.39,10.73,2.51,16.29a148.41,148.41,0,0,1,3.36,27.22c0,2.46,1,4.91,1.7,7.75,4.93.22,9.41-.6,13.91-.85,8.85-.5,17.72-.83,26.58-1.17a22.77,22.77,0,0,1,4.28.3c5.19.75,6.49,1.59,7.16,6.85,1.53,11.91,2.69,23.86,3.88,35.81.4,4,.45,8,.7,12a6.7,6.7,0,0,0,.45,2.51c.73,1.46,2.51,2.52,1.71,4.52-1,2.45-3.41,2.88-5.5,3.65a22.54,22.54,0,0,1-5.77,1.46q-12,1-24,1.71A106.54,106.54,0,0,0,129.22,123.13ZM60.57,16.49c.68,8.62,1.2,16.86,2,25.07s3.85,16.2,2,25a39.19,39.19,0,0,1-5.46,1.79C44.51,71,29.84,73.41,15.21,76c-2.16.39-4.19,1.47-6.36,2.26,0,1.58-.09,2.7,0,3.81,1.06,10.81,2.17,21.62,3.24,32.43.25,2.58.58,5.1,3,7.38a72.85,72.85,0,0,0,15-.23c9.11-.83,18.21-1.85,27.33-2.62,10.63-.89,13.18,1.35,14.33,12,1.32,12.22,2.66,24.44,4.11,36.64a32.37,32.37,0,0,0,1.63,5.49c8,.82,15.25-1.18,22.54-2.51s14.67-1.49,21.76-4.35c.08-1.71.14-3.12.2-4.53.49-12.35-1.06-24.57-2.28-36.81-.56-5.61.83-7.84,6.18-9.36a24.2,24.2,0,0,1,4.23-.76q15.78-1.64,31.58-3.18c3.89-.37,8,.35,11.68-2a26.68,26.68,0,0,0,.21-3.55c-1.08-13.12-2.15-26.25-3.37-39.35-.2-2.17-1.12-4.27-1.8-6.75-4.76-.08-9.05-.48-13.29-.17-9.12.67-18.23,1.63-27.32,2.64-2.9.32-5.7.9-8.41-1.57a60,60,0,0,0-1.75-7.13c-2.12-5.73-2.56-11.65-3-17.68-.59-7.68-1.9-15.32-3-23a16.62,16.62,0,0,0-1.36-3.63A7.78,7.78,0,0,0,108.18,9c-12.25,1.12-24.51,2.24-36.76,3.43A19.82,19.82,0,0,0,60.57,16.49Z"/></g></g></svg>