<svg xmlns="http://www.w3.org/2000/svg" viewBox="0 0 149.41 135.62"><g id="Layer_2" data-name="Layer 2"><g id="Layer_1-2" data-name="Layer 1"><path d="M106.27,32.36c6.92,1.33,13.07,2.5,19.22,3.71,9.2,1.81,15.09,7.77,19.17,15.73,3,5.9,5,12.13,4.73,19a25.94,25.94,0,0,1-9.1,19.62,41.31,41.31,0,0,1-20,9.35c-4.46.83-9,1.2-14,1.83a46.84,46.84,0,0,0-1.9,13.22,9.64,9.64,0,0,1-4.47,8.76c-4,2.66-8.1,5.61-12.6,7.17C73.63,135.47,59.39,136.42,45,135a71.82,71.82,0,0,1-18.33-4.29,26.74,26.74,0,0,1-12.08-9.24c-6.34-8.29-8.71-18-9.87-28a190.76,190.76,0,0,1-1-36c.46-6.25-.1-12.6-.49-18.88a26.17,26.17,0,0,0-1.78-6.54c-2.51-7.43-2-10,4-15.09a50.62,50.62,0,0,1,14.9-8.37C29.73,5,39.57,3.12,49.43,1.3A80,80,0,0,1,75.94.93C86,2.44,93.86,8.11,100.77,15.16a13.77,13.77,0,0,1,3.83,8.46C104.89,26.45,105.65,29.23,106.27,32.36ZM128.42,82.6c-5.68,1.6-11.23,3.74-17.21,4.16-.47,0-.87,1-1.8,2.13,6.75-.4,12.44-1.61,17.7-4.48.57-.31.76-1.31,1.14-2,4.14-.92,4.67-1.54,4.91-5.75a3,3,0,0,0,3.27-2.14c1.86-4.68,1.46-9.46.78-14.33a12.11,12.11,0,0,0-8-10.24,51.94,51.94,0,0,0-16.58-3.86,5.4,5.4,0,0,0-2.51.31c-.67.31-1.59,1.13-1.54,1.65a4.1,4.1,0,0,0,1.29,2.79,7.21,7.21,0,0,0,3.26.71c2.56.25,5.13.35,7.68.64,7,.82,10.94,5.55,13.85,11.38a5.92,5.92,0,0,1,.43,3.31c-.49,3.35-1.18,6.67-1.75,10.07ZM92.06,23.49c-.18,2.25-.52,4.41-.5,6.55,0,6.64-3.51,10.54-9.35,12.91a66.26,66.26,0,0,1-28.47,5c-6.27-.3-12.55-.93-18.77-1.84-10.15-1.48-15.89-8-17.44-19.28-.16-1.2,1.38-2.67-.6-3.58-3.26,2.3-3.3,2.3-3.24,5.1.31,15.43.6,30.86,1,46.29.16,6.58.22,13.17.88,19.7a74.09,74.09,0,0,0,2.88,12.47,14.93,14.93,0,0,0,8.3,9.38A58,58,0,0,0,42,121.5a103.72,103.72,0,0,0,27.36.75c8.89-.82,17.45-3.1,24.52-9.4.17-1.08.44-2.19.53-3.31,1-12.54,1.77-25.1,2.89-37.62a154.66,154.66,0,0,0-2-43.54C95,26.5,95.24,24.24,92.06,23.49Zm-63.31,7c1.9,1.15,3,2.24,4.19,2.46,5,.9,10.14,1.42,15.19,2.29A63.63,63.63,0,0,0,72,34.45a39.53,39.53,0,0,0,6.5-2.05,4.12,4.12,0,0,0,1.68-1.77,3.46,3.46,0,0,0-2.61-5.14C63,23.13,48.58,22.64,34.37,27.13,32.61,27.69,31.11,29.06,28.75,30.5ZM125,66.81a46.23,46.23,0,0,0-5.89-2.57,17.7,17.7,0,0,0-5-.42c-1.86.06-3.71.41-5.86.67.08,3.49-1,6.52.76,9.36,4.36.93,8-.83,11.47-2.59C122,70.47,123.08,68.72,125,66.81Z"/></g></g></svg>