<svg xmlns="http://www.w3.org/2000/svg" viewBox="0 0 173.65 152.74"><g id="Layer_2" data-name="Layer 2"><g id="Layer_1-2" data-name="Layer 1"><path d="M2.43,6.2c5.92-.51,11.29-.91,16.64-1.44C30.46,3.63,41.83,2.23,53.24,1.33,62.64.59,72.09.12,81.52,0c28.36-.27,56.65,1.32,84.89,3.84,4.81.43,6.25,1.69,6.31,6.3.16,11.68,1.67,23.37-.05,35.06a38.71,38.71,0,0,0-.23,6q.27,29.61.61,59.22c.12,8.57.5,17.14.6,25.72.06,5.64-.94,7-6.41,8.42-4.14,1-8.43,1.44-12.64,2.21A211.29,211.29,0,0,1,123,149.6c-21.16.62-42.35.93-63.44,2.56-16.11,1.25-32,.26-48-1.07-7.59-.63-8.25-1.1-9.4-8.37A107.1,107.1,0,0,1,.84,128.21C.42,108.17-.08,88.13,0,68.1.07,55,1.14,41.8,1.68,28.66c.19-4.58.09-9.16.21-13.74C2,12.13,2.23,9.35,2.43,6.2Zm6.68,7.56C9,16.19,8.84,17.6,8.81,19c-.15,8-.26,16-.43,24.05-.24,11.75-.82,23.49-.71,35.23.15,17.19.72,34.38,1.27,51.56.14,4.22-.15,8.63,2.45,12.65a24.92,24.92,0,0,0,3.22.83,213.63,213.63,0,0,0,42.9,1.25c4.57-.37,9.14-.8,13.72-1,15.17-.71,30.36-1.22,45.53-2,12.57-.66,25.2-.56,37.67-2.82,10.12-1.83,10.43-2,10.83-12.49,0-.58,0-1.15,0-1.72q.07-33.11.17-66.2c0-2.86.17-5.73.21-8.59.15-10.88.31-21.77.37-32.65a33,33,0,0,0-.85-5.23c-16.35-1-32.33-2.14-48.31-3C108,8.35,99.1,8,90.22,8c-11.74.09-23.5.38-35.21,1.11-10.57.66-21.09,2-31.63,3.12C18.83,12.72,14.29,13.21,9.11,13.76Z"/><path d="M146.71,70.38a20,20,0,0,1-11.17,11.76C120.67,88.76,105.82,95.45,90.93,102c-9.68,4.28-19.42,8.42-29.14,12.61a20.62,20.62,0,0,1-3.22,1.16c-7.23,1.79-10.32-1.27-10.13-7.38.12-3.71-.12-7.43-.17-11.15-.12-8.29.26-16.63-.46-24.87s.22-16.56.9-24.81C49.12,42.65,51,41,56,41.43a97.59,97.59,0,0,1,12.69,2.09c12,2.73,24,5.53,35.89,8.54,13.07,3.3,25.48,8.49,37.88,13.67a8.92,8.92,0,0,1,2.74,2A12.46,12.46,0,0,1,146.71,70.38ZM57.08,106.53a27.17,27.17,0,0,0,3.77-.93c6.83-2.89,13.67-5.78,20.45-8.8q23.07-10.27,46.1-20.68c2.22-1,4.6-1.94,5.26-5.12-3.14-1.41-5.94-2.82-8.84-4a173.93,173.93,0,0,0-27-8.25c-11.17-2.36-22.21-5.29-33.3-8-2.22-.54-4.43-1.21-7,.24a19.5,19.5,0,0,0-.74,4.71C57,72.49,55.73,89.31,57.08,106.53Z"/></g></g></svg>