<svg xmlns="http://www.w3.org/2000/svg" viewBox="0 0 135.27 95.05"><g id="Layer_2" data-name="Layer 2"><g id="Layer_1-2" data-name="Layer 1"><path d="M65.19,95c-16.49.6-31.55-1.71-45.91-8.43C10.3,82.32,4.45,76.14,3,66.1c-.7-4.79-1.73-9.55-2.71-14.3-.87-4.18.64-8,2.05-11.66C6.77,28.66,13.92,19.37,24.78,12.91A87.25,87.25,0,0,1,59.41,1.29c12-1.49,23.93-2.07,35.82.38a181.61,181.61,0,0,1,18.24,4.75C124,9.77,130.17,17.1,131.62,28.11c.9,6.8,1.49,13.64,2.19,20.47q.74,7.24,1.39,14.49c.49,5.37-1.9,9.4-6.08,12.49a60,60,0,0,1-5.71,3.78c-15.88,9.2-33.12,13.85-51.34,15.17C69.5,94.7,66.93,94.85,65.19,95ZM55.64,61.44l0-.74c5.14-.28,10.29-.53,15.43-.85a89.73,89.73,0,0,0,32.2-8.33,57.32,57.32,0,0,0,16.62-12,13,13,0,0,0,2.61-3.36c4.39-9.28,3-17.29-6.18-21.42A82.69,82.69,0,0,0,85.8,7,158.71,158.71,0,0,0,61,8.24c-11.6,1.3-22.4,4.5-32.32,10.61A43.7,43.7,0,0,0,9.25,43.12a8.57,8.57,0,0,0,1.58,8.82A13,13,0,0,0,16,56.2c5.08,2,10.14,3.9,15.68,4.14C39.68,60.68,47.66,61.07,55.64,61.44Zm-43.2,2.19c-1.6,7,.78,11.78,6.37,14.81a70.3,70.3,0,0,0,22.53,8.09c19,3,37.76,1.26,56.1-4.11,6.81-2,13.29-5.25,19.74-8.29,2.25-1.06,4.07-3.11,5.92-4.89a12,12,0,0,0,3.52-11c-.47-3.11-.88-6.23-1.44-9.33a17.48,17.48,0,0,0-1.37-3.22l-5.1,4.3c-11.54,9.78-25.44,14.52-39.93,16.74a225.28,225.28,0,0,1-42.84,2,54.5,54.5,0,0,1-15.17-2.62C18.12,65.27,15.43,64.53,12.44,63.63Z"/></g></g></svg>