<svg xmlns="http://www.w3.org/2000/svg" viewBox="0 0 225.51 153.6"><g id="Layer_2" data-name="Layer 2"><g id="Layer_1-2" data-name="Layer 1"><path d="M58.42,55.86c8.4-5.62,15.68-10.69,23.18-15.43,4.33-2.73,9-5,13.55-7.34C101.24,30,107.4,27,113.5,23.87c4.58-2.34,8.12-1.2,10.34,3.53a196.55,196.55,0,0,0,15.3,27.78c3.71,5.42,6.51,11.44,9.73,17.18,1.25,2.22,2.52,4.43,4.06,7.14,1.44-.83,2.66-1.41,3.74-2.18C168.09,69.1,180,61.81,193.18,56.63c7.18-2.83,14.07-6.4,21.09-9.63,3.76-1.72,3.76-1.71,9.34-1.6,2.76,3.1,2,6.51.77,10.2-3.32,9.76-6.56,19.55-9.56,29.4-4.59,15-8.94,30.14-13.41,45.2-1.79,6-3.5,12.07-5.48,18-1.64,4.92-2.88,5.61-8.3,5.3a40.91,40.91,0,0,1-6.82-.75c-19.55-4.38-39-9.26-58.64-13.16-19.92-4-39.83-8.08-60.13-9.87-14-1.24-27.92-2.7-41.88-4.12-4.56-.46-9.09-1.1-13.64-1.65a5.71,5.71,0,0,1-5.34-4.78,37.22,37.22,0,0,1-.88-5.93,119,119,0,0,1,.86-25.71C3.35,74,5.05,60.37,7.15,46.79,8,41.14,9.34,35.56,10.55,30c2-9.48,4.19-19,6.39-28.89,2.74-1.74,5.72-1.34,8.2,1.07a38.78,38.78,0,0,1,6,7.25c5.71,9.23,11.78,18.24,16.45,28.13C50.47,43.65,54.47,49.26,58.42,55.86Zm-34-38.53c-.79,1.42-1.78,2.49-2,3.71C19.12,39.33,15.84,57.63,12.71,76c-1.06,6.2-1.34,12.54-2.57,18.7-1.43,7.21.33,14.07.78,21.12,1.85.33,3.24.68,4.65.82,15.38,1.5,30.74,3.32,46.16,4.33,10.61.7,21,2.59,31.45,4.27,22.9,3.69,45.56,8.59,68.16,13.76,8,1.84,16,3.72,24.56,5.7,9.48-27.87,17.78-55.75,26.28-83.55.13-.41-.33-1-.71-2-3.36,1.48-6.68,3-10,4.44C185.83,70.17,171,78.22,158,89.16c-.66.55-1.36,1-2.07,1.54a5.44,5.44,0,0,1-6.45-.08A12.05,12.05,0,0,1,146,87c-3.8-6.38-7.47-12.84-11.13-19.3-1.69-3-3.14-6.11-4.89-9.06q-5.88-10-12-19.83a38.63,38.63,0,0,0-3.07-3.88c-13.2,5.94-26.12,11.32-37.34,20-5.18,4-10.89,7.39-16.42,11-3.17,2-6,1.66-8.43-.94a11.87,11.87,0,0,1-1.51-2.08c-2.94-4.91-6-9.78-8.76-14.77-5.35-9.46-10.57-19-15.88-28.48A15.47,15.47,0,0,0,24.43,17.33Z"/></g></g></svg>