<svg xmlns="http://www.w3.org/2000/svg" viewBox="0 0 142.73 149.54"><g id="Layer_2" data-name="Layer 2"><g id="Layer_1-2" data-name="Layer 1"><path d="M141.81,113.71a34.18,34.18,0,0,1-4.06,1.81c-18.58,5.77-37.3,11-56.23,15.6-6.37,1.53-12.51,4-18.83,5.8q-12.39,3.47-24.9,6.42c-9.16,2.16-18.4,4-27.59,6a8.35,8.35,0,0,1-10.11-7.6,83.75,83.75,0,0,1,.44-12.86c.69-6.82,1.49-13.65,2.67-20.4,1.24-7,2.65-14,4.58-20.9C11.48,74.45,18.63,63,26.89,52.33A141.76,141.76,0,0,1,84.18,8.39c9.25-3.94,19-6.28,28.88-8.07,4.38-.79,8.47-.26,11.82,3.32a10.11,10.11,0,0,1,2.85,5c2,9.51,4.58,18.93,5,28.72a4.8,4.8,0,0,0,.07.85c3.59,17.69,5.47,35.62,7.62,53.52.72,5.94,1.67,11.85,2.31,17.8C142.85,110.9,142.14,112.31,141.81,113.71Zm-10.32-8.61c-1-7.93-1.78-15-2.78-22.06-2.5-17.55-5.11-35.1-7.67-52.64-.71-4.81-1.25-9.65-2.16-14.42-.35-1.83-1.52-3.51-2.51-5.72-13.48,3.18-26.46,6.52-38.26,13.23A137.52,137.52,0,0,0,38.77,56.31c-8.89,11-16.53,22.74-20.66,36.35a165,165,0,0,0-6.17,33.69c-.28,3.31-.66,6.6-1,10.25a37.25,37.25,0,0,0,12.4-1.22c5.24-1.47,10.56-2.62,15.84-3.94,6.37-1.59,12.78-3.1,19.11-4.86,12.94-3.59,25.81-7.45,38.77-11C108.61,112.48,120.19,109.36,131.49,105.1Z"/></g></g></svg>