<svg xmlns="http://www.w3.org/2000/svg" viewBox="0 0 239.19 119.51"><g id="Layer_2" data-name="Layer 2"><g id="Layer_1-2" data-name="Layer 1"><path d="M77.25,30.67c1.24-1.9,2.52-3.78,3.71-5.71C87.63,14.1,98.19,8.55,109.49,4c13.08-1.73,25.14.26,35.1,9.74,2.44,2.32,4.74,4.8,7.45,7.57,6.41-7.49,14.71-11.48,22.64-15.9C187.92-2,201.6-1.38,215.14,4.67c5.7,2.55,9.4,7.58,12.52,12.69,5.4,8.84,9.14,18.3,10.17,28.87a190.11,190.11,0,0,1,.61,27.41,56.94,56.94,0,0,0,.64,9.39c.4,3.33-.16,6.24-3.82,9.21-1.14,0-3.38,0-5.62,0-11.17-.25-22.34-.94-33.5-.66-11.43.28-22.84,1.51-34.26,2.34-2.28.17-4.55.5-6.83.62-12,.65-24,1.14-36,1.93a87.41,87.41,0,0,0-11.86,1.91C87,102.59,66.89,107,46.72,111.1c-7.87,1.61-15.62,3.42-23,6.6A20,20,0,0,1,10,118.76c-4.62-7.65-6.28-16.38-7.9-25A127.16,127.16,0,0,1,0,75C-.51,59.1,4.61,45.09,14.92,33.07c5.71-6.65,13.49-10.51,21-14.62,13.44-2.83,26.27-2.94,36.56,8.24q1.45,1.57,3,3A9.82,9.82,0,0,0,77.25,30.67ZM228.89,82.55a235,235,0,0,0-1.48-38.72c-1.15-10.45-5.94-19.62-12.63-27.76-5.26-6.39-12.17-8.76-20-7.12-13.13,2.74-25.39,7.67-33.51,19.07-2.95,4.16-6.22,5.5-10.84,5-1.39-.16-2.77-.38-4.17-.58a52.91,52.91,0,0,0-2.86-4.54c-2.64-3.38-5.06-7-8.17-9.9-5.26-4.91-11.89-7.3-19-5.82-4.64,1-9.11,3.37-13.3,5.76-9.19,5.24-14.24,13.84-17.85,23.43C83.06,46.89,81,47.86,75.58,46,72.91,45.14,71.41,43.2,70,41a83.11,83.11,0,0,0-5.66-8.58C58.79,25.53,50.08,23,42,26.37,31.19,31,22.21,38.07,16.77,48.72a54.52,54.52,0,0,0-6.1,29.92,183.53,183.53,0,0,0,2.41,18.74c.83,4.37,1.4,9,4.29,13.27,12.66-5.36,25.92-7.65,39-10.57C72,96.59,87.65,93,103.32,89.66a135.88,135.88,0,0,1,18.62-3.07c19.14-1.39,38.3-2.62,57.48-3.41,13.45-.56,26.93-.3,40.39-.42C222.62,82.74,225.43,82.63,228.89,82.55Z"/></g></g></svg>