<svg xmlns="http://www.w3.org/2000/svg" viewBox="0 0 207.11 131.06"><g id="Layer_2" data-name="Layer 2"><g id="Layer_1-2" data-name="Layer 1"><path d="M206.81,39.31c-.7,15.36-3.64,28.79-6.24,42.27-.92,4.76-1.82,9.52-2.73,14.28a5.57,5.57,0,0,1-5.21,4.91,60.74,60.74,0,0,1-9.34.34,34.55,34.55,0,0,1-7.58-1.4c-13.13-3.78-26.59-3.66-40.06-3.65-11.31,0-22.22,2.58-32.84,5.94-19.2,6.06-37.43,14.27-53.18,27.17-2.61,2.14-5.26,2.45-7.92,1A24.51,24.51,0,0,1,35,125c-5.26-6-10.21-12.35-15.28-18.57C14.15,99.59,8.65,92.66,3,85.86c-3.61-4.33-4-7.65-.86-12.25a32.69,32.69,0,0,1,3.27-4Q16,58.44,26.73,47.29a19.56,19.56,0,0,1,1.87-1.77c17.6-14.3,35.79-27.75,57-36.3a126.67,126.67,0,0,1,69.15-7.39c10,1.65,19.1,6,28.05,10.46,4.59,2.31,8.92,5.16,13.31,7.86C203.85,24.9,208.34,31.36,206.81,39.31ZM195.89,31.5c-4.25-2.66-7.8-5.07-11.52-7.16C171.54,17.12,158.13,11.47,143.15,11A132,132,0,0,0,75.44,26.8c-9.86,5.31-18.6,12.26-27.79,18.56-12.66,8.69-22.79,19.9-33.11,31-1.29,1.39-2,3.29-2.94,4.83,9.56,11.63,18.81,22.9,28.09,34.14,1,1.26,2.29,2.32,3.6,3.63,2.77-1.83,5.19-3.33,7.49-5,9.6-6.87,20.3-11.85,30.9-16.71,9.81-4.51,20.5-7.07,31.17-9.29,18.2-3.8,36.4-3.17,54.62-.51,6.43.94,12.82,2.21,19.13,3.32.71-1.24,1.38-1.92,1.51-2.69,2.63-15.51,5.28-31,7.71-46.54C196.29,38.48,195.89,35.29,195.89,31.5Z"/></g></g></svg>