<svg xmlns="http://www.w3.org/2000/svg" viewBox="0 0 145.54 129.49"><g id="Layer_2" data-name="Layer 2"><g id="Layer_1-2" data-name="Layer 1"><path d="M145.54,21.27c-1.66,5.12-2.74,9.91-4.73,14.29-5.12,11.28-7.87,23.3-11.43,35.07q-6.7,22.19-12.66,44.59c-.92,3.46-.47,7.29-.69,11.62a5.84,5.84,0,0,1-6.09,2.56,56.37,56.37,0,0,1-8.4-1.61C84,122.36,65.89,119.41,47.61,117.7q-12-1.12-24-1.86a58.25,58.25,0,0,0-10.23.2c-5.62.65-9.25-2.45-12.35-6.31-.94-1.16-1.15-3.25-1-4.88.89-13.77,2.5-27.39,8.87-40,3.5-6.9,7-13.75,11.55-20.07,7.68-10.62,17.64-18.76,28-26.4C55.14,13.5,62.09,9,69.87,5.77,81.79.88,94-1.56,106.76,1.08c13.06,2.71,25.2,7.58,35.4,16.5C143.22,18.51,144.08,19.66,145.54,21.27Zm-13.12.29c-3.81-3.54-8.82-5.09-13.63-6.72-14.24-4.84-28.44-5.56-42.67.68-8,3.49-15,8.24-22,13.23C38.43,40,26.32,54.1,18.42,71.79c-4.58,10.26-6.68,21-7.34,32.66,31.73,1.67,62.67,4.77,92.76,13.07.49-.53,1.07-.87,1.22-1.36C114.33,87,120.65,57,131.51,28.37a30,30,0,0,0,1.21-5A5.82,5.82,0,0,0,132.42,21.56Z"/></g></g></svg>