<svg xmlns="http://www.w3.org/2000/svg" viewBox="0 0 131.34 212.96"><g id="Layer_2" data-name="Layer 2"><g id="Layer_1-2" data-name="Layer 1"><path d="M0,96.63c7.87-13.79,16.81-26,25.47-38.46s18.09-24.32,28-35.84c5.21-6.09,10.58-12,15.91-18a16.29,16.29,0,0,1,2.6-2.23c4.54-3.27,6.58-2.79,9.52,2s6.43,9.49,9,14.58c4,8.19,7.77,16.57,11.15,25,5.29,13.29,10.11,26.77,18.37,38.65a16.89,16.89,0,0,1,2.3,4.59c1.63,5.3,4.23,9.94,9.12,13.53-1.78,3-3.27,5.76-5,8.37-5.57,8.66-11.24,17.25-16.79,25.92-3.86,6-7.63,12.1-11.38,18.18Q83.58,176.76,69,200.53c-2,3.16-4,6.32-6.21,9.27-3.1,4.08-7.76,4.27-10.81.2a65.6,65.6,0,0,1-6-10.33c-5.45-11-11-22-16-33.23-4.84-10.67-9.15-21.58-13.73-32.37C13.15,127,10,119.9,7,112.81ZM58,199.79a28.29,28.29,0,0,0,3.06-3.29c6.12-9.3,12.58-18.4,17.43-28.49,1.35-2.82,3.12-5.45,4.74-8.14,7.54-12.48,15-25,22.68-37.42,3.88-6.32,8-12.51,12.08-18.89-1.46-2.59-2.92-5-4.22-7.53a509.24,509.24,0,0,1-27-62.15c-2.71-7.56-7-14.22-11.7-21.19-3.51,2.24-6.66,4.45-8.73,7.42-8.54,12.2-19.89,22.07-28,34.65-6.19,9.6-13.27,18.63-19.9,27.95-2.15,3-4.15,6.18-6.2,9.29s-2.45,6.27-.56,9.69c2.2,4,4.19,8.14,6.26,12.22S22.21,122,24,126.18c2.87,6.55,5.46,13.22,8.15,19.85,1.82,4.51,3.36,9.14,5.47,13.51,5.73,11.84,11.69,23.58,17.58,35.35C56,196.4,56.89,197.84,58,199.79Z"/></g></g></svg>