<svg xmlns="http://www.w3.org/2000/svg" viewBox="0 0 53.72 155.36"><g id="Layer_2" data-name="Layer 2"><g id="Layer_1-2" data-name="Layer 1"><path d="M22.4,152.29l-2.19,1.61c-2.91,2.18-5.07,2-7.13-1A79.27,79.27,0,0,1,.56,123.13c-1.68-8.36.71-16.56,3.52-24.35,3.69-10.19,8.19-20.09,12.17-30.19,4.69-11.92,5.9-24.36,5.13-37.06-.46-7.59-2.45-14.62-7.3-20.67A24.05,24.05,0,0,1,12.23,8c-1.38-2.38-.33-4.36,1.07-6.31S16.76-.24,18.7.45A55,55,0,0,1,46.08,21.51c9.57,14,9.3,28.75,3.83,44.16-3.49,9.8-9.07,18.45-14.09,27.4C28.58,106,24.63,120,22.33,134.42,21.5,139.67,22.31,145.19,22.4,152.29ZM13,120.9a19.33,19.33,0,0,0,1.61-3.81c1.84-9.69,6-18.47,10.53-27.12,3.68-7.12,7.42-14.22,11.5-21.11,5.06-8.54,6.18-17.8,5.58-27.35-.46-7.25-2.46-14.12-7.67-19.6-.85-.89-1.62-2.44-3.26-1.3.5,5.2,1.28,10.28,1.43,15.39.37,12.11-1,24-5.81,35.28q-6.37,15-12.52,30.1A30.25,30.25,0,0,0,13,120.9Z"/></g></g></svg>