<svg xmlns="http://www.w3.org/2000/svg" viewBox="0 0 182.37 191.48"><g id="Layer_2" data-name="Layer 2"><g id="Layer_1-2" data-name="Layer 1"><path d="M106.29,142.27c-6.53,7.9-12.62,15.47-18.94,22.84-5.59,6.5-11.39,12.83-17.2,19.14a46.46,46.46,0,0,1-5.21,4.45c-8.16,6.55-19.32.73-20.44-9.23a34.92,34.92,0,0,1,.15-6.85,225.14,225.14,0,0,1,6-35.52c1.72-6.91,3-13.92,4.54-21.06a46.6,46.6,0,0,0-5.07-3.69c-7.32-3.92-14.7-7.71-22.07-11.52C21.74,97.55,15.33,94.37,9,91a30.29,30.29,0,0,1-5.65-3.88c-5-4.36-4.33-11,1.54-14.19A21.3,21.3,0,0,1,10.56,71c11.48-2.41,22.93-5,34.79-5,5.13,0,10.26-.78,15.64-1.23a25.3,25.3,0,0,0,2-4.63c2.58-12,5-24.1,7.58-36.12a142.51,142.51,0,0,1,4-14.91c1-2.92,2.78-5.56,4-7.9C79.74.88,80.27.66,80.82.53c7.5-1.74,12.77.77,16,7.94,3,6.8,6.59,13.34,9.48,20.18,3,7.11,5.45,14.44,8.19,21.66a32,32,0,0,0,1.73,3.32c2.6-.8,5.17-1.22,7.38-2.35,6.46-3.3,13.44-5,20.4-6.5a117,117,0,0,1,28.13-2.62c7.8.27,11.29,4.86,10,12.59-.85,5.28-3.77,9.53-7.27,13.37q-10.72,11.72-21.63,23.27c-3.9,4.15-7.93,8.19-12.2,12.58,1.86,3,3.69,5.86,5.31,8.79s3,6.16,4.71,9.17A233.06,233.06,0,0,1,167,158a38.1,38.1,0,0,1,1.86,9.17c.48,5.41-.67,6.68-6.35,8.14a21.63,21.63,0,0,1-2.29.26c-2.47-1.63-5.57-3.23-8.15-5.43a145.84,145.84,0,0,0-35.94-23.2C112.8,145.46,109.57,143.83,106.29,142.27Zm47.17,15.1c.08-1.62.29-2.23.11-2.68a349.18,349.18,0,0,0-18.14-37.95,33.4,33.4,0,0,0-4.08-5.49c-4.91-5.77-5-7.55-.6-13.3a37.64,37.64,0,0,1,2.78-3.26c9.76-10.09,19.58-20.11,29.27-30.25a78,78,0,0,0,6.45-8c.59-.8.58-2,.95-3.49a15.65,15.65,0,0,0-3.58-.7c-11.75.79-23.33,2.39-34.35,6.86-4.77,1.94-9.64,3.67-14.53,5.28-6.41,2.11-10.56.1-12.81-6-2.65-7.26-5.1-14.59-7.91-21.79C94.31,29.6,91.33,22.77,88.28,16c-.61-1.36-2.09-2.33-3.58-3.92a46.83,46.83,0,0,0-2.39,6.28C80.68,25.88,79.25,33.46,77.69,41c-1.44,7-2.87,14-4.52,21-.44,1.9-1.66,3.62-2.46,5.45s-2.39,2.94-4.36,3.77a62.52,62.52,0,0,1-21.68,4.68c-8.92.41-17.62,2.21-26.29,4.12a22.09,22.09,0,0,0-3.66,1.69,29.44,29.44,0,0,0,3.71,2.78c5.36,2.71,10.8,5.28,16.17,8,8.18,4.11,16.3,8.36,24.51,12.4a9.31,9.31,0,0,1,5.6,8,29.33,29.33,0,0,1,0,7.66c-2.2,12.39-4.39,24.8-7.08,37.09a87.18,87.18,0,0,0-1.85,18.75c0,1.34-.24,2.91,2.17,4,5.91-3.48,10-9.4,14.62-14.64,4.93-5.57,9.53-11.45,14.23-17.22,4.48-5.52,8.92-11.07,13.24-16.44,5.53.35,10.31,1.1,14.75,3.3,7.17,3.56,14.46,6.93,21.43,10.85C142,149.46,147.27,153.33,153.46,157.37Z"/></g></g></svg>