<svg xmlns="http://www.w3.org/2000/svg" viewBox="0 0 209.44 165.09"><g id="Layer_2" data-name="Layer 2"><g id="Layer_1-2" data-name="Layer 1"><path d="M33.13,62.39c-3-6.49-5.5-11.91-7.88-17.39a17.58,17.58,0,0,1-.88-10.13A43.84,43.84,0,0,1,41.7,6.22C48.14,1.35,55.19-.94,63.41.36A56.47,56.47,0,0,1,82,6.86a27,27,0,0,1,7.63,6.77c11.5,14.31,12.68,33.65,3.31,49.8-.28.49-.52,1-1.05,2.06,2.9,7.27,7.34,14.05,11.78,21.08,3.12-5.36,5.79-10.39,8.89-15.14,3-4.53,6.36-8.76,9.82-13.46-.21-3.68-1.57-7.47-2.7-11.27a22.54,22.54,0,0,1,.44-15.14c2.63-6.63,4.87-13.39,9.33-19.19,6-7.86,13.57-10.76,23.33-8.74a54.44,54.44,0,0,1,21.1,9.11,35.23,35.23,0,0,1,12.3,16.18c3.66,9.44,2,18.55-2.19,27.35-1.59,3.31-3.58,6.42-5.3,9.47,16.19,20.17,30.85,65.06,30.79,81.32-2.92,3.89-6.94,6.34-11.56,8.23-17.69,7.21-35.92,9-54.78,6.39-7.63-1.05-15.37-1.26-23.06-1.89-1.71-.14-3.59-.06-5.08-.75-4.78-2.22-9.24-1.31-14,.21-15.72,5-32,6.38-48.36,5.67a69.62,69.62,0,0,1-13.51-2.13c-9.43-2.35-18.92-4.6-27.83-8.68-1-.47-2.12-.87-3.15-1.37-7.58-3.67-9-6.2-7.66-14.34,2.39-15,6-29.75,13.17-43.32,4.16-7.82,8.32-15.65,12.75-23.32C28.33,68.34,31,65.31,33.13,62.39Zm51.75,9.87c-7,2.95-14.34,3.22-21.82,2.87-7.89-.37-14.82-3.7-21.75-6.65A54.69,54.69,0,0,0,30.78,82.57Q26.9,89.74,23.19,97a143.55,143.55,0,0,0-12.58,36.38c-.8,3.84-1.43,7.86.16,11.78,1.41.71,2.65,1.42,4,2,10.6,4.49,21.78,7,33,9.45,3,.66,6.26.31,9.4.2,2.56-.1,5.11-.6,7.68-.81A151.12,151.12,0,0,0,104,147.19c2-.74,3.84-2.17,5.72-3.26a28.17,28.17,0,0,0-.34-3.94c-3-11.64-5.87-23.31-9-34.9A104.45,104.45,0,0,0,84.88,72.26Zm42.76-4.88c-7.17,7.6-13,16.06-15.3,26.31-1.38,6-2.51,12.21-.78,18.63,2.77,10.21,4.92,20.59,7.33,30.9.51,2.2,1,4.4,1.46,6.5a13.79,13.79,0,0,0,2.67,1.07c7.93,1.16,15.85,2.47,23.83,3.31,5.94.62,11.81,1.78,17.94,1.06,11.27-1.33,21.73-5,31.94-9.62a26.37,26.37,0,0,0,3.92-2.69c-2.37-8.46-4.55-16.46-6.87-24.42-4-13.78-9-27.18-16.44-39.52-1.43-2.38-2.27-5.33-5.21-6.48C156,79.36,140,78.62,127.64,67.38ZM61.82,9.24c-3.65.28-7.49-.43-10.74,2-6,4.48-11.28,9.6-14.37,16.64-5.3,12-.75,26.88,10.53,33.6a44.77,44.77,0,0,0,16.85,5.9A19.54,19.54,0,0,0,77.28,64.9,25.61,25.61,0,0,0,89.82,44.55c.84-10.12-2.38-19.11-8.11-27.25A15.79,15.79,0,0,0,76.53,13C72,10.43,67.17,8.7,61.82,9.24ZM151.73,68.7c8.21.47,14.74-4.07,20.32-10.79,11.51-13.88,8.56-32.68-6.67-41.12-1.25-.69-2.45-1.49-3.75-2.08-6.36-2.88-12.53-3.66-18.11,1.76-1.23,1.19-2.7,2.14-3.91,3.34-9,8.88-13.35,19.1-9.15,31.76.62,1.89,1.47,3.7,2.2,5.56C135.9,65.38,142.17,68.87,151.73,68.7Z"/></g></g></svg>