<svg width="64" height="64" viewBox="0 0 64 64" fill="none" xmlns="http://www.w3.org/2000/svg">
<path fill-rule="evenodd" clip-rule="evenodd" d="M24 5.5L20 5.5C11.9919 5.5 5.5 11.9919 5.5 20V43C5.5 51.0081 11.9919 57.5 20 57.5H44C52.0081 57.5 58.5 51.0081 58.5 43V40H53.5V43C53.5 48.2467 49.2467 52.5 44 52.5H20C14.7533 52.5 10.5 48.2467 10.5 43V20C10.5 14.7533 14.7533 10.5 20 10.5H24V5.5Z" fill="black"/>
<path d="M24 40L56 8" stroke="black" stroke-width="5" stroke-linecap="round"/>
<path d="M40 8H56" stroke="black" stroke-width="5" stroke-linecap="round"/>
<path d="M56 24L56 8" stroke="black" stroke-width="5" stroke-linecap="round"/>
<path d="M22 8L24 8" stroke="black" stroke-width="5" stroke-linecap="round"/>
<path d="M56 42L56 40" stroke="black" stroke-width="5" stroke-linecap="round"/>
</svg>
