<svg xmlns="http://www.w3.org/2000/svg" viewBox="0 0 154.97 289.95"><defs><style>.cls-1{fill:#fff;}</style></defs><g id="Layer_2" data-name="Layer 2"><g id="Layer_1-2" data-name="Layer 1"><path d="M12.51,94.75C8,90.88,4,87.35,0,83.92c.65-4.84,3.6-7.68,6.13-10.7,2.39-2.82,5-5.44,7.91-8.56L7,42.39A5.55,5.55,0,0,1,12,37.84c3.36-.62,6.76-1.05,10.15-1.47,2-.24,3.94-.31,6.14-.47C31.13,28,34,20.27,36.75,12.63c8.7-2.22,15.37,3.17,23.51,4.41,1.36-1.2,3.05-2.65,4.68-4.16C68.52,9.58,71.86,6,75.68,3,81.92-1.9,86.39-.8,90.21,6.32c1.35,2.51,2.28,5.24,3.38,7.88.87,2.1,1.71,4.2,2.59,6.4,8.84,1.42,17.2-3,25.85-1.12,5.73,6.38,2.86,14.29,4,21.84,3.71,1.91,7.58,3.74,11.27,5.87a33,33,0,0,1,6.84,5c2.63,2.64,2.66,5.36.63,8.6a14.64,14.64,0,0,1-2.71,3.3c-3.92,3.39-3.89,7.2-1.81,11.59,1.69,3.58,2.95,7.36,4.52,11.37L133,98.22c-1.12,7.23,4.06,13.55,1.8,20.59-5.78,2.81-12.07.8-18.21,2.56a23,23,0,0,0,.54,4.91c4.31,12.81,6.68,26,8.6,39.34,1.8,12.45,4,24.88,7,37.08,2.29,9.42,6.07,18.47,9.16,27.69,3.46,10.33,7.43,20.45,12.87,29.93A4.46,4.46,0,0,1,155,262a4,4,0,0,1-5,2.24,110.53,110.53,0,0,1-12.22-3.89c-4.74-1.87-9.32-4.14-14.54-6.5-.86,2.29-1.62,4-2.17,5.83-2.69,8.74-5.64,17.4-5.87,26.71,0,1.1-1.27,2.55-2.34,3.16-1.78,1-3.46-.06-4.29-1.65-4.11-7.86-8.08-15.8-12.09-23.72-1.39-2.74-2.26-5.79-4.56-8.32-2.67,6.51-3.42,19.26-1.92,29.56-5.58,3.09-7.57,3.14-11-1-4.36-5.29-8.24-11-12.44-16.41-2.25-2.92-4.74-5.66-7.39-8.8a33,33,0,0,0-4.42,3,74.08,74.08,0,0,0-12.25,16.49c-2.38,4.13-5.9,5.92-11.11,5.28-.27-2.08-.68-4-.73-5.89a223.59,223.59,0,0,1,2.31-36.84c1.78-12.47,4-24.87,5.7-37.35,1.55-11.63,2.77-23.31,3.76-35,.39-4.54-.11-9.16-.43-13.73-.19-2.53-.86-5-1.38-7.95l-6.33-1.44a29,29,0,0,1-3.68-13.47c0-6.63-3.77-9.82-9.64-11.33-1.11-.29-2.25-.48-3.34-.8C10.49,118,9.45,116.51,10.21,109c.23-2.27.81-4.5,1.18-6.76S12.07,97.71,12.51,94.75ZM56.07,250.48a18.16,18.16,0,0,1,10.28,6.27c4.2,5.05,8.26,10.22,12.38,15.34.86,1.06,1.54,2.48,3.67,1.73.15-1.82.41-3.79.44-5.75.23-15.18,2.14-30.21,4.36-45.19,1.89-12.7,4.42-25.31,6.21-38,1.67-11.92,2.18-23.94.17-35.91a41.34,41.34,0,0,0-1.77-7.5,6.82,6.82,0,0,0-3-3.76c-1.83-.79-3,1.08-3.95,2.5s-1.64,3-2.64,4.41c-3.75,5.17-8.63,5.9-13.93,2.12-2.56-1.83-5.09-3.7-7.51-5.71a5.54,5.54,0,0,0-6.36-.9c-2,.95-3.91,2.13-6,3.28C49,148,49.81,152.23,50,156.47c.33,7.13.38,14.27.35,21.41,0,2.55-.79,5.09-.87,7.65A129.26,129.26,0,0,1,44.91,216c-4.51,16.12-5,32.72-6.93,49.16a25.23,25.23,0,0,0,.43,4.31c3.39-4,5.81-7,8.47-9.88C49.79,256.48,52.92,253.58,56.07,250.48Zm-21-210c-5,4.71-11.83,1.27-17.37,4.11-1,4.14.42,7.93,1.7,11.68.74,2.15,1.89,4.15,2.76,6.27a6,6,0,0,1-1.35,7.08c-1.44,1.39-2.86,2.82-4.2,4.3C14.28,76.42,12.07,79,10,81.32c.47,1.11.56,1.77.94,2.13a85.16,85.16,0,0,0,7,6.34c3.35,2.56,4.83,5.4,3.19,9.64a38.58,38.58,0,0,0-1.74,7.5c-.32,1.89-.32,3.83-.47,5.85L31.09,118c3.67,1.57,6.14,4.06,6.73,8.2.36,2.54.92,5.06,1.53,7.56a36.6,36.6,0,0,0,1.59,4.16c3.41-1.3,6.39-2.21,9.16-3.55,5.78-2.8,10.85-2.36,15.85,2,2.47,2.14,4.82,4.9,8.73,5.41,1.6-2.83,3-5.65,4.71-8.24,2.92-4.38,5.22-5.23,10.14-3.07,3.58,1.58,7,3.8,11.16,4.08,3.07-2.92,3.41-6.79,4.64-10.21,3.26-9,3.69-11.36,14.47-10.93,2.21.09,4.69.37,6.17-2.32,0-3-.09-6.09-1.88-8.9-1.44-2.27-.61-4.53.64-6.45a24.11,24.11,0,0,1,4.06-4.4c2.29-2.11,4.75-4,6.39-7.13-.59-1.26-1.16-2.54-1.77-3.81-4.88-10.27-4.88-10.27,1-20.22,2.51-4.23,2.23-6.19-2-8.31a72.73,72.73,0,0,0-10.44-3.74c-4-1.31-5.23-2.49-5.4-6.64-.14-3.42.2-6.87.08-10.3a26.11,26.11,0,0,0-1.15-5c-2.41.18-4.4.18-6.33.52-3.09.56-6.12,1.48-9.23,2-4.17.68-7.64,0-10.4-4a49,49,0,0,1-5-9.88c-.79-2-.56-4.67-3.56-5.88a39.57,39.57,0,0,0-9.89,9c-4.23,5.86-9.69,6.39-15.92,4.72-2.2-.59-4.3-1.52-6.48-2.21-1.58-.5-3.22-.86-5.11-1.36C39,25.76,37.72,33.46,35,40.46Zm65.5,103.59c.15,1.3.25,2.7.48,4.07,2.66,15.76,1.29,31.38-1.54,46.95-1.58,8.74-3.28,17.45-4.79,26.2-1.2,7-3.06,14,.74,20.84C97,251.93,102,260.38,106.5,269a18.5,18.5,0,0,0,2.61,2.94c1.55-4.55,2.28-8.92,4.42-12.44,2.45-4,2.73-8.65,4.37-12.51,2.66-1.67,4.75-.6,6.81.41,5.4,2.64,10.78,5.33,16.19,8,.94.46,2,1.24,3.33-.62-.76-2-1.68-4.35-2.54-6.71-4.31-11.83-8.75-23.61-12.86-35.51-5.46-15.78-6.47-32.53-10.17-48.71-1.85-8.08-2.91-16.33-4.49-24.47-.28-1.45-.25-3.43-2.33-4C106.6,141.59,106.6,141.59,100.52,144.05Z"/><path class="cls-1" d="M56.07,250.48c-3.15,3.1-6.28,6-9.19,9.11-2.66,2.84-5.08,5.91-8.47,9.88a25.23,25.23,0,0,1-.43-4.31c1.92-16.44,2.42-33,6.93-49.16a129.26,129.26,0,0,0,4.58-30.47c.08-2.56.86-5.1.87-7.65,0-7.14,0-14.28-.35-21.41-.2-4.24-1-8.46-1.59-13.08,2.1-1.15,4-2.33,6-3.28a5.54,5.54,0,0,1,6.36.9c2.42,2,4.95,3.88,7.51,5.71,5.3,3.78,10.18,3.05,13.93-2.12,1-1.38,1.69-3,2.64-4.41s2.12-3.29,3.95-2.5a6.82,6.82,0,0,1,3,3.76,41.34,41.34,0,0,1,1.77,7.5c2,12,1.5,24-.17,35.91-1.79,12.71-4.32,25.32-6.21,38-2.22,15-4.13,30-4.36,45.19,0,2-.29,3.93-.44,5.75-2.13.75-2.81-.67-3.67-1.73-4.12-5.12-8.18-10.29-12.38-15.34A18.16,18.16,0,0,0,56.07,250.48Z"/><path class="cls-1" d="M35,40.46c2.7-7,4-14.7,8.54-21.37,1.89.5,3.53.86,5.11,1.36,2.18.69,4.28,1.62,6.48,2.21,6.23,1.67,11.69,1.14,15.92-4.72a39.57,39.57,0,0,1,9.89-9c3,1.21,2.77,3.86,3.56,5.88a49,49,0,0,0,5,9.88c2.76,4,6.23,4.7,10.4,4,3.11-.51,6.14-1.43,9.23-2,1.93-.34,3.92-.34,6.33-.52a26.11,26.11,0,0,1,1.15,5c.12,3.43-.22,6.88-.08,10.3.17,4.15,1.35,5.33,5.4,6.64a72.73,72.73,0,0,1,10.44,3.74c4.26,2.12,4.54,4.08,2,8.31-5.88,10-5.88,10-1,20.22.61,1.27,1.18,2.55,1.77,3.81-1.64,3.09-4.1,5-6.39,7.13a24.11,24.11,0,0,0-4.06,4.4c-1.25,1.92-2.08,4.18-.64,6.45,1.79,2.81,1.86,5.91,1.88,8.9-1.48,2.69-4,2.41-6.17,2.32-10.78-.43-11.21,1.92-14.47,10.93-1.23,3.42-1.57,7.29-4.64,10.21-4.15-.28-7.58-2.5-11.16-4.08-4.92-2.16-7.22-1.31-10.14,3.07-1.73,2.59-3.11,5.41-4.71,8.24-3.91-.51-6.26-3.27-8.73-5.41-5-4.33-10.07-4.77-15.85-2-2.77,1.34-5.75,2.25-9.16,3.55a36.6,36.6,0,0,1-1.59-4.16c-.61-2.5-1.17-5-1.53-7.56-.59-4.14-3.06-6.63-6.73-8.2L18.9,112.78c.15-2,.15-4,.47-5.85a38.58,38.58,0,0,1,1.74-7.5c1.64-4.24.16-7.08-3.19-9.64a85.16,85.16,0,0,1-7-6.34c-.38-.36-.47-1-.94-2.13,2.06-2.34,4.27-4.9,6.55-7.42,1.34-1.48,2.76-2.91,4.2-4.3a6,6,0,0,0,1.35-7.08c-.87-2.12-2-4.12-2.76-6.27-1.28-3.75-2.66-7.54-1.7-11.68C23.19,41.73,30,45.17,35,40.46Zm32.36,82.76c12.42-.27,22.19-2.43,31.27-6.89,12-5.9,20.79-14.63,24.34-28.2,5.45-20.85-2.09-39.5-19.75-51.57-13-8.88-27.62-12.28-43.31-9-6.2,1.29-11.76,3.57-16,9A161.26,161.26,0,0,0,33.27,51c-9.66,15.47-11.27,31.35-2.91,48,4.41,8.8,11.82,14.54,19.21,20.4a6.84,6.84,0,0,0,2.35,1C57.71,122.08,63.54,123.45,67.38,123.22Z"/><path class="cls-1" d="M100.52,144.05c6.08-2.46,6.08-2.46,11.32-8.69,2.08.53,2,2.51,2.33,4,1.58,8.14,2.64,16.39,4.49,24.47,3.7,16.18,4.71,32.93,10.17,48.71,4.11,11.9,8.55,23.68,12.86,35.51.86,2.36,1.78,4.7,2.54,6.71-1.31,1.86-2.39,1.08-3.33.62-5.41-2.63-10.79-5.32-16.19-8-2.06-1-4.15-2.08-6.81-.41-1.64,3.86-1.92,8.47-4.37,12.51-2.14,3.52-2.87,7.89-4.42,12.44A18.5,18.5,0,0,1,106.5,269c-4.55-8.6-9.48-17.05-11.09-26.87-3.8-6.82-1.94-13.86-.74-20.84,1.51-8.75,3.21-17.46,4.79-26.2,2.83-15.57,4.2-31.19,1.54-46.95C100.77,146.75,100.67,145.35,100.52,144.05Z"/><path d="M67.38,123.22c-3.84.23-9.67-1.14-15.46-2.79a6.84,6.84,0,0,1-2.35-1c-7.39-5.86-14.8-11.6-19.21-20.4C22,82.39,23.61,66.51,33.27,51a161.26,161.26,0,0,1,10.62-14.5c4.28-5.42,9.84-7.7,16-9,15.69-3.27,30.33.13,43.31,9C120.9,48.63,128.44,67.28,123,88.13c-3.55,13.57-12.32,22.3-24.34,28.2C89.57,120.79,79.8,123,67.38,123.22Zm49-51.59c.11-12-7.06-24.35-21.42-32.71-4.82-2.8-10.13-3.8-15.41-4.93-12.67-2.71-23.07.88-30.89,11.4-5.33,7.16-9.15,15.13-12.42,23.36a27.52,27.52,0,0,0-.52,18.5C36.73,90.52,38,93.72,39,97c3.2,9.92,10.78,15.46,20.11,18,12.65,3.51,25.37.9,36.61-4.84C109,103.41,116.67,91.91,116.41,71.63Z"/><path class="cls-1" d="M116.41,71.63c.26,20.28-7.4,31.78-20.66,38.56-11.24,5.74-24,8.35-36.61,4.84C49.81,112.44,42.23,106.9,39,97c-1.06-3.26-2.3-6.46-3.28-9.73a27.52,27.52,0,0,1,.52-18.5c3.27-8.23,7.09-16.2,12.42-23.36C56.51,34.87,66.91,31.28,79.58,34c5.28,1.13,10.59,2.13,15.41,4.93C109.35,47.28,116.52,59.67,116.41,71.63Z"/></g></g></svg>