<svg xmlns="http://www.w3.org/2000/svg" viewBox="0 0 140.43 134.56"><defs><style>.cls-1{fill:#fff;}</style></defs><g id="Layer_2" data-name="Layer 2"><g id="Layer_1-2" data-name="Layer 1"><path d="M0,74.92c.06-16.29,2.91-29.3,9.12-41.53a19.12,19.12,0,0,1,2.15-3.7c9.88-11.8,21-21.75,36.52-25.7C56.15,1.86,64.4-.22,73.12,0,78.59.17,84,.48,89.2,2.22a80.84,80.84,0,0,0,11.65,3c9.34,1.61,16,7.09,21.77,14.17,10.77,13.34,16.45,28.71,17.7,45.67a45,45,0,0,1-1.17,13.63c-5.32,22.11-18.26,38.42-38.28,49.21a57.46,57.46,0,0,1-22.14,6.29c-17.56,1.69-34.2-1.85-50-9.32C13.94,117.88,5,106.24,2.16,90.17,1.1,84.28.47,78.3,0,74.92ZM38.3,16.81C12.06,28.74-1.18,60.63,8.39,89.63c1.29-.56,2.58-1,3.77-1.67,3.76-2.06,7.54-2.07,11.6-.8a24.27,24.27,0,0,1,9,4.75c3.68,3.2,7.47,6.27,11.07,9.55a34.87,34.87,0,0,0,11,6.48c6.88,2.75,14,2.41,21.2,2.54,12.4.23,21.44-5.16,27.28-16,2.44-4.54,5.22-8.94,7.21-13.66,3.37-8,5.27-16.52,3.47-25.18-2.8-13.46-7.68-20.92-22.45-23.42-7.32-1.25-14.84-1.29-22-3.65a10.38,10.38,0,0,0-2.57-.11c-3.71-.19-7.43-.53-11.15-.55C48,27.85,42.16,24.65,39,17.16,38.93,17,38.54,16.92,38.3,16.81Zm-27.18,82a32.34,32.34,0,0,0,14.26,17.07c14.12,8.27,29,13,45.74,12.31,18.07-.79,33.48-6.35,45.76-20.09,10.52-11.76,17.5-25.18,17.37-40.94-.16-18.69-6.75-35.23-20.73-48.38a24.59,24.59,0,0,0-11.89-6.45c-4.19-.91-8.52-1.42-12.57-2.75C78,6,67,6.93,56,9.23a32.52,32.52,0,0,0-7.15,2.82c-1.68.82-2.05,2.71-1.17,4.44a10.71,10.71,0,0,0,8.87,6c4,.41,8,.43,12,.49,10.08.17,19.93,1.32,29.58,4.6,10.78,3.67,17,11.15,19.88,21.82a44.71,44.71,0,0,1,.53,19.6,88.08,88.08,0,0,1-13.64,33.15c-5.42,8.26-12.81,13.83-23.34,13.89-3.15,0-6.29.58-9.44.63-12.11.2-23.27-2.38-32.27-11.22-2.24-2.21-4.55-4.35-7-6.38a39.67,39.67,0,0,0-6.21-4.54C19.74,90.74,16.59,91.62,11.12,98.81Z"/><path class="cls-1" d="M38.3,16.81c.24.11.63.17.7.35,3.16,7.49,9,10.69,16.9,10.72,3.72,0,7.44.36,11.15.55a10.38,10.38,0,0,1,2.57.11c7.14,2.36,14.66,2.4,22,3.65,14.77,2.5,19.65,10,22.45,23.42,1.8,8.66-.1,17.16-3.47,25.18-2,4.72-4.77,9.12-7.21,13.66-5.84,10.87-14.88,16.26-27.28,16-7.16-.13-14.32.21-21.2-2.54a34.87,34.87,0,0,1-11-6.48c-3.6-3.28-7.39-6.35-11.07-9.55a24.27,24.27,0,0,0-9-4.75c-4.06-1.27-7.84-1.26-11.6.8-1.19.65-2.48,1.11-3.77,1.67C-1.18,60.63,12.06,28.74,38.3,16.81Z"/><path class="cls-1" d="M11.12,98.81c5.47-7.19,8.62-8.07,15.52-4.33A39.67,39.67,0,0,1,32.85,99c2.42,2,4.73,4.17,7,6.38,9,8.84,20.16,11.42,32.27,11.22,3.15-.05,6.29-.61,9.44-.63,10.53-.06,17.92-5.63,23.34-13.89A88.08,88.08,0,0,0,118.51,69a44.71,44.71,0,0,0-.53-19.6c-2.88-10.67-9.1-18.15-19.88-21.82-9.65-3.28-19.5-4.43-29.58-4.6-4-.06-8-.08-12-.49a10.71,10.71,0,0,1-8.87-6c-.88-1.73-.51-3.62,1.17-4.44A32.52,32.52,0,0,1,56,9.23C67,6.93,78,6,89.06,9.58c4,1.33,8.38,1.84,12.57,2.75a24.59,24.59,0,0,1,11.89,6.45c14,13.15,20.57,29.69,20.73,48.38.13,15.76-6.85,29.18-17.37,40.94-12.28,13.74-27.69,19.3-45.76,20.09-16.73.72-31.62-4-45.74-12.31A32.34,32.34,0,0,1,11.12,98.81Z"/></g></g></svg>