<svg xmlns="http://www.w3.org/2000/svg" viewBox="0 0 86.7 235.04"><defs><style>.cls-1{fill:#fff;}</style></defs><g id="Layer_2" data-name="Layer 2"><g id="Layer_1-2" data-name="Layer 1"><path d="M57.31,2.32a18.24,18.24,0,0,1,3.6,11.74c-.17,7.44-.06,14.89,0,22.34,0,3.15.19,6.3.35,9.44A16.29,16.29,0,0,0,68.4,58.91c3,2.17,5.88,4.56,8.81,6.85,4.49,3.51,7.32,8,7.87,13.75.52,5.41,1.59,10.81,1.6,16.22q.09,35.19-.35,70.39c-.17,12.88-.76,25.76-1.32,38.63a82.36,82.36,0,0,1-1.35,11.93A16.71,16.71,0,0,1,73.42,229.5a59,59,0,0,1-19.16,4.44c-8.23.66-16.56,1.93-24.81.32a99.12,99.12,0,0,1-15.73-4C3.48,226.42.23,221.41,0,209a141,141,0,0,1,1.56-21.41A312.88,312.88,0,0,0,4,137.87c-.19-8-.6-16-1.27-24-1-11.79.28-23.44,1.61-35.11a14.75,14.75,0,0,1,5.79-10.15c3.13-2.5,6.25-5,9.31-7.61a18.15,18.15,0,0,0,6.94-15c-.17-9.45.24-18.91.4-28.36a27.75,27.75,0,0,1,0-4.28C28.12,6.07,31.54.73,40.24.28,45.93,0,51.69-.69,57.31,2.32Zm-23,19.05c-.23,3.16-.52,5.67-.56,8.18-.07,5.44-.17,10.89,0,16.32.33,9.55-2.53,17.46-11,22.66-8.14,5-11.07,12.68-11.46,21.73-.06,1.43-.24,2.86-.22,4.29.23,12,.15,24,.83,36a324.38,324.38,0,0,1-1.6,51.4c-.86,8.54-1.9,17.08-2.27,25.64-.38,9,2.59,13.1,10.87,16.43a35.59,35.59,0,0,0,5.75,1.63c11.69,2.51,23.39,1.49,35-.32,6.23-1,12.17-3.22,16.37-8.33.63-5.24,1.61-10.32,1.78-15.43.58-17.72.5-35.46,1.38-53.16.94-18.61.78-37.19.4-55.79C79.5,89.8,79,87,78.79,84.1A16.25,16.25,0,0,0,73.2,72.85a86.34,86.34,0,0,0-10.05-8,19.71,19.71,0,0,1-9.37-14.68c-.55-4.24-.92-8.53-1.07-12.8-.14-3.72.23-7.44.18-11.16a29.84,29.84,0,0,0-.83-4.85H34.31Zm3.1-8.19A15.61,15.61,0,0,0,46,14c3.2-.49,4.5-2.39,4.73-6.65-2.84,0-5.67-.11-8.5,0S37.63,9.18,37.41,13.18Z"/><path class="cls-1" d="M34.31,21.37H52.06a29.84,29.84,0,0,1,.83,4.85c0,3.72-.32,7.44-.18,11.16.15,4.27.52,8.56,1.07,12.8a19.71,19.71,0,0,0,9.37,14.68,86.34,86.34,0,0,1,10.05,8A16.25,16.25,0,0,1,78.79,84.1c.21,2.86.71,5.7.77,8.55.38,18.6.54,37.18-.4,55.79-.88,17.7-.8,35.44-1.38,53.16-.17,5.11-1.15,10.19-1.78,15.43-4.2,5.11-10.14,7.35-16.37,8.33-11.61,1.81-23.31,2.83-35,.32a35.59,35.59,0,0,1-5.75-1.63C10.6,220.72,7.63,216.63,8,207.62c.37-8.56,1.41-17.1,2.27-25.64a324.38,324.38,0,0,0,1.6-51.4c-.68-12-.6-24-.83-36,0-1.43.16-2.86.22-4.29.39-9.05,3.32-16.76,11.46-21.73,8.5-5.2,11.36-13.11,11-22.66-.18-5.43-.08-10.88,0-16.32C33.79,27,34.08,24.53,34.31,21.37Z"/><path class="cls-1" d="M37.41,13.18c.22-4,1.89-5.64,4.86-5.79s5.66,0,8.5,0C50.54,11.62,49.24,13.52,46,14A15.61,15.61,0,0,1,37.41,13.18Z"/></g></g></svg>