<svg xmlns="http://www.w3.org/2000/svg" viewBox="0 0 209.81 129.45"><defs><style>.cls-1{fill:#fff;}</style></defs><g id="Layer_2" data-name="Layer 2"><g id="Layer_1-2" data-name="Layer 1"><path d="M127.4,0A82.83,82.83,0,0,1,172,13.68c7,4.48,14.11,8.73,20,14.74A78.44,78.44,0,0,1,206.1,47.73a34.5,34.5,0,0,1,3.21,21.68c-1.86,12-7.26,21.76-16.44,30.09-15.52,14.09-33.16,23.09-53.85,26.26-5.92.9-11.8,2.07-17.69,3.17-8.49,1.59-16.55-.75-24.46-3.12a106.61,106.61,0,0,1-32.12-16c-5.58-4-11.64-7.87-15.6-13.23-4.39-5.91-9.61-7.28-16.07-7.51-6.62-.24-13.15-.18-19.4,2.5a76.71,76.71,0,0,1-7.25,2.68,4.23,4.23,0,0,1-5-2.31c-1.63-3.55-2.24-7.27.29-10.58a63.59,63.59,0,0,1,8-8.91A80.1,80.1,0,0,1,36.81,56.35c4.84-1.68,7.43-4.5,8.76-9.43A63,63,0,0,1,50.9,34.28a26.14,26.14,0,0,1,5.65-7.41A106.34,106.34,0,0,1,112.06,1.7C117.15,1,122.29.56,127.4,0ZM18.72,78.73c2.81.17,3.9.43,4.93.27,5.73-.94,11.37-.16,17.05.49C50,80.56,57.76,83.43,61.85,92.93c2.42,5.61,7.18,9.54,12.28,12.88,11.21,7.35,23.63,11.44,36.77,13.52,3.1.48,6.28,1.32,9.34,1.08a124,124,0,0,0,39.8-9.88,79.26,79.26,0,0,0,27.64-20c5.13-5.76,8.25-12.23,10.63-19.33,2.52-7.51,1.52-14.71-1.63-21.7a51.08,51.08,0,0,0-4.33-7.38c-4.91-7.3-12.13-11.92-19.11-17-20.51-14.85-43.16-16.9-67.08-12C93,15.9,81.51,22.29,70.43,29.46a40,40,0,0,0-17.29,24.7A13,13,0,0,1,44.69,64c-1.86.75-3.81,1.28-5.65,2.07C32.24,69,25.66,72.35,18.72,78.73Z"/><path class="cls-1" d="M18.72,78.73C25.66,72.35,32.24,69,39,66c1.84-.79,3.79-1.32,5.65-2.07a13,13,0,0,0,8.45-9.8,40,40,0,0,1,17.29-24.7C81.51,22.29,93,15.9,106.16,13.19c23.92-4.93,46.57-2.88,67.08,12,7,5.05,14.2,9.67,19.11,17a51.08,51.08,0,0,1,4.33,7.38c3.15,7,4.15,14.19,1.63,21.7-2.38,7.1-5.5,13.57-10.63,19.33a79.26,79.26,0,0,1-27.64,20,124,124,0,0,1-39.8,9.88c-3.06.24-6.24-.6-9.34-1.08-13.14-2.08-25.56-6.17-36.77-13.52-5.1-3.34-9.86-7.27-12.28-12.88C57.76,83.43,50,80.56,40.7,79.49,35,78.84,29.38,78.06,23.65,79,22.62,79.16,21.53,78.9,18.72,78.73Z"/></g></g></svg>