<svg xmlns="http://www.w3.org/2000/svg" viewBox="0 0 241.02 159.15"><defs><style>.cls-1{fill:#fff;}</style></defs><g id="Layer_2" data-name="Layer 2"><g id="Layer_1-2" data-name="Layer 1"><path d="M226.24,116.21C205.53,123,186,129.34,166.43,135.82c-19.27,6.39-38.49,12.93-57.74,19.38-1.9.63-3.94.89-5.77,1.66-10.53,4.44-20.35,2-29.37-3.7-12.63-8-26.51-13.47-39.72-20.29-4.28-2.22-9-3.54-13.6-5.21S11,124.54,6.5,122.76A59.87,59.87,0,0,1,0,119.27C0,108,2.42,97.66,4.42,87.32c2.65-13.76,5.67-27.45,8.63-41.14,1.08-5,2.47-10,3.62-15a5.75,5.75,0,0,1,4.56-4.57c6.09-1.57,12.17-3.15,18.27-4.69,11.9-3,23.78-6.16,35.73-9,19.51-4.6,39.33-7.52,59.16-10.28C142,1.6,149.72.83,157.41.16c10.25-.88,19.87,2,29.25,5.58,10.13,3.9,20.19,8,30.18,12.25,5.53,2.35,11,5,16.24,7.82,6.78,3.67,8.88,7.86,7.58,15.61-1.71,10.14-3.87,20.2-5.82,30.31S231,91.92,229,102C228.09,106.78,227.16,111.53,226.24,116.21Zm-7.22-4.8c1.63-8.09,3.34-16.17,4.86-24.27,1.48-7.86,2.37-15.85,4.27-23.6A132.22,132.22,0,0,0,232,38.85c-4.07-.88-7.67.32-11.11,1.31-17.59,5-35.09,10.37-52.67,15.46C154,59.75,140,65,125.41,67.94a60.56,60.56,0,0,0-18.2,6.88c-1.85,8.7-3.69,17.06-5.37,25.46s-3.4,16.81-4.77,25.27-4.71,16.32-4.19,25.51c15-2.43,28.27-8.6,42.13-12.81s27.61-9.22,41.47-13.67S204.3,116,219,111.41ZM99.56,68.08c-3.35-1.63-6.82-3.54-10.46-5A324.83,324.83,0,0,1,54.23,46.65C48,43.21,41.46,40.22,34.91,37.4,31.59,36,28.18,34.25,23.7,34.79c-6.65,26.7-11.43,53.86-16.85,81.36,5.38,1.72,10.26,3.23,15.11,4.85,4.61,1.53,9.34,2.81,13.73,4.82,14.81,6.78,29.86,13.07,43.82,21.57,1.1.68,2.53.83,4.4,1.4C86.85,135.16,90,122.16,92.4,109,94.89,95.6,98.71,82.4,99.56,68.08ZM225,31.07c-1.71-3.38-5-4-7.75-5.17q-17.38-7.37-34.92-14.33c-10.86-4.3-22-5.71-33.64-3.28-5.59,1.18-11.31,1.71-17,2.47-15.86,2.14-31.73,4.3-47.37,7.68C70.08,21.52,56,25.13,41.78,28.58a21.7,21.7,0,0,0-4,2c23.91,11.47,47.13,23,70,34.65,8.59-2.29,17.15-4.55,25.68-6.87,3.31-.9,6.58-1.93,9.86-2.94,11.47-3.54,22.9-7.23,34.41-10.64C193.41,40.1,209.08,35.67,225,31.07Z"/><path class="cls-1" d="M219,111.41c-14.72,4.55-28.67,8.72-42.54,13.17S148.94,134,135,138.25s-27.16,10.38-42.13,12.81c-.52-9.19,2.84-17.2,4.19-25.51s3.08-16.87,4.77-25.27,3.52-16.76,5.37-25.46a60.56,60.56,0,0,1,18.2-6.88C140,65,154,59.75,168.24,55.62c17.58-5.09,35.08-10.43,52.67-15.46,3.44-1,7-2.19,11.11-1.31a132.22,132.22,0,0,1-3.87,24.69c-1.9,7.75-2.79,15.74-4.27,23.6C222.36,95.24,220.65,103.32,219,111.41Z"/><path class="cls-1" d="M99.56,68.08C98.71,82.4,94.89,95.6,92.4,109c-2.43,13.14-5.55,26.14-8.49,39.77-1.87-.57-3.3-.72-4.4-1.4-14-8.5-29-14.79-43.82-21.57-4.39-2-9.12-3.29-13.73-4.82-4.85-1.62-9.73-3.13-15.11-4.85,5.42-27.5,10.2-54.66,16.85-81.36,4.48-.54,7.89,1.18,11.21,2.61,6.55,2.82,13.07,5.81,19.32,9.25A324.83,324.83,0,0,0,89.1,63.06C92.74,64.54,96.21,66.45,99.56,68.08Z"/><path class="cls-1" d="M225,31.07c-15.91,4.6-31.58,9-47.19,13.66-11.51,3.41-22.94,7.1-34.41,10.64-3.28,1-6.55,2-9.86,2.94-8.53,2.32-17.09,4.58-25.68,6.87C85,53.55,61.73,42,37.82,30.53a21.7,21.7,0,0,1,4-2C56,25.13,70.08,21.52,84.33,18.44c15.64-3.38,31.51-5.54,47.37-7.68,5.67-.76,11.39-1.29,17-2.47,11.61-2.43,22.78-1,33.64,3.28q17.55,6.95,34.92,14.33C220,27.06,223.28,27.69,225,31.07Z"/></g></g></svg>