<svg xmlns="http://www.w3.org/2000/svg" viewBox="0 0 172.02 199.02"><defs><style>.cls-1{fill:#fff;}</style></defs><g id="Layer_2" data-name="Layer 2"><g id="Layer_1-2" data-name="Layer 1"><path d="M171.47,137.08c-1.45,14.31-6.5,25-15.77,34-15.44,15-34.45,22.2-55,26.14-8.73,1.67-17.5,2.5-26.48,1a20.55,20.55,0,0,1-13.08-7.4c-4-4.79-8.53-9.3-9.65-15.86-11.22-21.28-18.42-44.33-29.15-65.83C15.94,96.37,10.82,83,3.6,70.57c-5.08-8.72-4.7-17.62.63-26C11.36,33.29,19.91,23.3,31.85,16.85c7.3-3.94,14.53-8.18,22.25-11.09A95.22,95.22,0,0,1,76.54.28C86.33-.85,95.88,1.52,105,5.34c1.05.44,2,1.17,3.05,1.57,6.28,2.37,10.09,6.67,12.54,13.08,3.57,9.33,8.27,18.23,12.37,27.36q17.45,38.76,34.81,77.57c.46,1,1.08,2,1.52,3.08C170.68,131.4,173.12,134.65,171.47,137.08ZM15.15,74.53c1.31,3.16,2.2,5.51,3.26,7.78,1,2.07,2.29,4,3.21,6.06q14.21,32.17,28.32,64.38c4.35,9.89,8.44,19.85,14.5,29,3.65,5.49,7.88,8.47,14.37,9.41,9.6,1.38,18.87-.22,28.09-2.12,16.58-3.42,31.37-10.49,43.62-22.44,6.61-6.45,10.22-14.33,11.78-23.3a24.39,24.39,0,0,0-2.14-15q-3.87-8.13-7.53-16.36c-9.62-21.66-20-43-28.6-65.11-1.74-4.5-3.83-8.88-7.52-12.78-1.49,1.76-2.77,3.23-4,4.73A92.14,92.14,0,0,1,79.7,64.38c-4.14,1.94-8.4,3.64-12.65,5.33C53.83,75,40.3,78,26,75.49,22.69,74.92,19.32,74.89,15.15,74.53Zm17.9-5.21,0,.48c4.26-.37,8.65-.19,12.75-1.2A186.67,186.67,0,0,0,74.25,59a85.56,85.56,0,0,0,28.47-20.27,27.12,27.12,0,0,0,5-7.91c2.24-5.18,1.47-10.16-2.71-14.19-4.6-4.45-9.75-7.76-16.38-8.72a42.79,42.79,0,0,0-16.2.67C52.26,13.35,34.3,22.49,19.33,37a51.69,51.69,0,0,0-9.19,12.32c-4.37,8-1.68,14.52,6.85,17.79a33,33,0,0,0,7.48,1.76C27.3,69.2,30.19,69.17,33.05,69.32Z"/><path class="cls-1" d="M15.15,74.53c4.17.36,7.54.39,10.81,1C40.3,78,53.83,75,67.05,69.71,71.3,68,75.56,66.32,79.7,64.38a92.14,92.14,0,0,0,32.82-25.67c1.22-1.5,2.5-3,4-4.73,3.69,3.9,5.78,8.28,7.52,12.78,8.57,22.13,19,43.45,28.6,65.11q3.66,8.23,7.53,16.36a24.39,24.39,0,0,1,2.14,15c-1.56,9-5.17,16.85-11.78,23.3-12.25,11.95-27,19-43.62,22.44-9.22,1.9-18.49,3.5-28.09,2.12-6.49-.94-10.72-3.92-14.37-9.41-6.06-9.11-10.15-19.07-14.5-29Q35.78,120.56,21.62,88.37c-.92-2.09-2.23-4-3.21-6.06C17.35,80,16.46,77.69,15.15,74.53Z"/><path class="cls-1" d="M33.05,69.32c-2.86-.15-5.75-.12-8.58-.5A33,33,0,0,1,17,67.06c-8.53-3.27-11.22-9.75-6.85-17.79A51.69,51.69,0,0,1,19.33,37c15-14.46,32.93-23.6,53.12-28.37a42.79,42.79,0,0,1,16.2-.67c6.63,1,11.78,4.27,16.38,8.72,4.18,4,5,9,2.71,14.19a27.12,27.12,0,0,1-5,7.91A85.56,85.56,0,0,1,74.25,59a186.67,186.67,0,0,1-28.42,9.6c-4.1,1-8.49.83-12.75,1.2Z"/></g></g></svg>