<svg xmlns="http://www.w3.org/2000/svg" viewBox="0 0 57.33 102.01"><defs><style>.cls-1{fill:#fff;}</style></defs><g id="Layer_2" data-name="Layer 2"><g id="Layer_1-2" data-name="Layer 1"><path d="M27.34,102c-5.94-.86-11.81-2.59-16.17-8.63A56.45,56.45,0,0,1,.9,68.41c-3.06-19.26,2.09-36.78,9.62-54,1.59-3.64,3.47-7.17,5-10.85,1-2.51,2.75-3.33,5.26-3.52a12.09,12.09,0,0,1,11.08,5.3c4.42,5.95,8.86,11.93,12.66,18.28,3.07,5.11,5.12,10.83,7.8,16.19a51.8,51.8,0,0,1,5,24c-.06,5.28-1.88,10.62-3.44,15.77a53.62,53.62,0,0,1-4.59,10.1C45.42,96.78,35.89,102.19,27.34,102Zm-5-88a31.59,31.59,0,0,0-1.81,2.65,104.89,104.89,0,0,0-8.46,24.22,67.8,67.8,0,0,0,1.13,35.55c1.65,5.49,5,9.58,9,13.33,2.37,2.27,5.27,2.65,8.71,1.64,6.31-1.86,10.25-5.79,12.69-11.73,3.28-8,3.29-16.17,1.42-24.41C42.28,43.05,36.35,32.35,29.1,22.32,27.16,19.65,25,17.16,22.38,14Z"/><path class="cls-1" d="M22.38,14c2.57,3.17,4.78,5.66,6.72,8.33,7.25,10,13.18,20.73,15.93,32.92,1.87,8.24,1.86,16.4-1.42,24.41-2.44,5.94-6.38,9.87-12.69,11.73-3.44,1-6.34.63-8.71-1.64-3.93-3.75-7.32-7.84-9-13.33a67.8,67.8,0,0,1-1.13-35.55,104.89,104.89,0,0,1,8.46-24.22A31.59,31.59,0,0,1,22.38,14Z"/></g></g></svg>