<svg xmlns="http://www.w3.org/2000/svg" viewBox="0 0 141.96 137.12"><defs><style>.cls-1{fill:#fff;}</style></defs><g id="Layer_2" data-name="Layer 2"><g id="Layer_1-2" data-name="Layer 1"><path d="M11,112.61a11.14,11.14,0,0,1-8.07-2.94c-2.7-2.31-3.7-5-2.17-8.37.59-1.3.92-2.71,1.51-4,8.44-18.5,18-36.24,31.48-51.77,9.92-11.47,19.7-23,31.12-33.06,3.64-3.2,7.59-6.05,11.41-9A15.18,15.18,0,0,1,90.8.81,40.87,40.87,0,0,1,99.46,4.4c6.72,4,12.11,9.55,16.75,15.76a14.25,14.25,0,0,1,2.48,6.24c.73,5-1.17,8.78-5.45,11.67C106.39,42.72,99.61,47.52,93,52.54Q69.86,70.22,46.92,88.21c-7.17,5.64-14,11.66-21.08,17.49-1.53,1.27-3.24,2.35-4.76,3.64A14.56,14.56,0,0,1,11,112.61ZM9.28,102.23c2.42-.51,3.11-.45,3.48-.76,30.37-25.32,61.16-50.08,93.52-72.83.42-.3.6-.94,1.19-1.92-5.58-6.95-11-14.27-20.3-16.91-1.83,1.13-3.34,2-4.74,2.93C72.5,19.66,64.05,28.26,56,37.1,40.44,54,26.22,71.93,15.21,92.2,13.6,95.17,11.77,98,9.28,102.23Z"/><path d="M14.16,130.48a36,36,0,0,0,1-4.4c.39-3.74,2.52-5.86,5.53-8.07,10.79-7.91,23.38-12,35.44-17.05,10.78-4.56,22-8.17,33-12.19,10.55-3.85,21.58-5.53,32.63-7,8-1.08,13.33,2.5,15.7,10.06A57.92,57.92,0,0,1,139,99.35c.8,4.5,1.29,9.07,2.38,13.5a18.89,18.89,0,0,1,.06,9.27c-1.08,4.53-1.61,5.55-5.58,6.25a38.1,38.1,0,0,1-6,.22c-10,.18-20,.12-30,.57-12,.54-24,1.48-36,2.3-2.86.2-5.71.47-8.54.91-9,1.4-18,2.9-27.08,4.37C22.51,137.68,17.33,137.29,14.16,130.48Zm18.76-6.15c.17.48.34,1,.52,1.45,2-.27,3.93-.42,5.85-.83C53,122,67,121,81,119.93c14.54-1.07,29.13-1.24,43.7-1.87a57.61,57.61,0,0,0,6.11-1c-1.49-8.81-1.12-17.47-5.89-25.48-2.68.25-5.23.31-7.72.75a202.71,202.71,0,0,0-42.51,13c-1.84.77-3.75,1.39-5.59,2.18-10.76,4.6-21.53,9.19-32.24,13.9C35.37,122,34.21,123.34,32.92,124.33Z"/><path class="cls-1" d="M9.28,102.23c2.49-4.2,4.32-7.06,5.93-10C26.22,71.93,40.44,54,56,37.1c8.1-8.84,16.55-17.44,26.48-24.36,1.4-1,2.91-1.8,4.74-2.93,9.33,2.64,14.72,10,20.3,16.91-.59,1-.77,1.62-1.19,1.92C73.92,51.39,43.13,76.15,12.76,101.47,12.39,101.78,11.7,101.72,9.28,102.23Z"/><path class="cls-1" d="M32.92,124.33c1.29-1,2.45-2.29,3.9-2.93,10.71-4.71,21.48-9.3,32.24-13.9,1.84-.79,3.75-1.41,5.59-2.18a202.71,202.71,0,0,1,42.51-13c2.49-.44,5-.5,7.72-.75,4.77,8,4.4,16.67,5.89,25.48a57.61,57.61,0,0,1-6.11,1c-14.57.63-29.16.8-43.7,1.87C67,121,53,122,39.29,125c-1.92.41-3.9.56-5.85.83C33.26,125.29,33.09,124.81,32.92,124.33Z"/></g></g></svg>