<svg xmlns="http://www.w3.org/2000/svg" viewBox="0 0 100.37 180.11"><defs><style>.cls-1{fill:#fff;}</style></defs><g id="Layer_2" data-name="Layer 2"><g id="Layer_1-2" data-name="Layer 1"><path d="M20.47,151.71c-.29-4.69-.3-8.11-.74-11.48-1.52-11.61-2.95-23.24-4.9-34.78-1-5.63-3.56-10.84-6.63-15.73-1.52-2.42-2.82-5-4.44-7.34C-.45,76.24-.65,69.58.86,62.64a6,6,0,0,1,.23-.83c2.59-6.67,2.17-13.38.6-20.22a71.36,71.36,0,0,1-1.47-11C0,26.71,1.42,23.43,4,20.42A40.79,40.79,0,0,1,18.17,9.53c15.32-7,31.38-10.6,48.34-9.25a45.16,45.16,0,0,1,15.65,4.3c6.42,3,10.38,7.5,10.85,15.06.38,6,1.78,11.85,2.79,17.77a10.83,10.83,0,0,0,1.1,3.23c4.92,9,4.18,18.12.43,27.17-3,7.18-5.89,14.44-5.74,22.27a198.23,198.23,0,0,0,2,21.3c1.68,13.05,3.63,26.06,5.37,39.1.78,5.83-2.13,10.71-5.23,15-3.84,5.36-8.73,9.61-16,10.44-7.09.81-14.05,2.67-21.13,3.66a59.34,59.34,0,0,1-21.32-1.17,26,26,0,0,1-12.42-7.29,7.12,7.12,0,0,1-2.42-5.29C20.48,160.73,20.47,155.59,20.47,151.71Zm69.19,6.92c-.22-4.84-.1-10-.73-15.08-1.89-15-4.16-30-6.09-45.06a43.23,43.23,0,0,1,.87-16.15,91.61,91.61,0,0,1,7-19.3,17.79,17.79,0,0,0,1.49-12.49c-.59-2.48-2-4.76-2.78-7.18s-1.54-5.19-2.36-8C68.29,49.17,36.08,53.25,12.1,45.51A58.11,58.11,0,0,1,9.73,64.12a18.43,18.43,0,0,0,2.44,15.59c1.86,2.88,3.39,6,5.26,8.85a46.28,46.28,0,0,1,6.49,15.8,192.14,192.14,0,0,1,3.53,22.86c.9,10.54,1.24,21.14,1.51,31.72a8.83,8.83,0,0,0,4.22,7.88,24.8,24.8,0,0,0,6.13,3A40.76,40.76,0,0,0,58,171.08c3.93-.69,7.81-1.84,11.77-2.31C77.18,167.9,83.45,164.89,89.66,158.63ZM9.1,28.4l1,1.75C14.38,38,21.33,41,29.93,40.83c5.72-.09,11.46.13,17.14-.36,10-.85,19.76-3.1,28.5-8.44a35.9,35.9,0,0,0,6.28-4.44c5.37-5.11,4.34-12.39-2.35-15.42A41.54,41.54,0,0,0,68,8.9c-12.07-1.6-23.9.34-35.67,3a42.41,42.41,0,0,0-17.54,8.57C12.14,22.6,9.86,25.1,9.1,28.4Z"/><path class="cls-1" d="M89.66,158.63c-6.21,6.26-12.48,9.27-19.89,10.14-4,.47-7.84,1.62-11.77,2.31a40.76,40.76,0,0,1-18.69-1.29,24.8,24.8,0,0,1-6.13-3A8.83,8.83,0,0,1,29,158.94c-.27-10.58-.61-21.18-1.51-31.72a192.14,192.14,0,0,0-3.53-22.86,46.28,46.28,0,0,0-6.49-15.8c-1.87-2.87-3.4-6-5.26-8.85A18.43,18.43,0,0,1,9.73,64.12,58.11,58.11,0,0,0,12.1,45.51c24,7.74,56.19,3.66,74.91-10.11.82,2.78,1.48,5.41,2.36,8s2.19,4.7,2.78,7.18A17.79,17.79,0,0,1,90.66,63a91.61,91.61,0,0,0-7,19.3,43.23,43.23,0,0,0-.87,16.15c1.93,15,4.2,30,6.09,45.06C89.56,148.62,89.44,153.79,89.66,158.63Z"/><path class="cls-1" d="M9.1,28.4c.76-3.3,3-5.8,5.73-8a42.41,42.41,0,0,1,17.54-8.57C44.14,9.24,56,7.3,68,8.9A41.54,41.54,0,0,1,79.5,12.17c6.69,3,7.72,10.31,2.35,15.42A35.9,35.9,0,0,1,75.57,32c-8.74,5.34-18.46,7.59-28.5,8.44-5.68.49-11.42.27-17.14.36C21.33,41,14.38,38,10.06,30.15Z"/></g></g></svg>