<svg xmlns="http://www.w3.org/2000/svg" viewBox="0 0 101.27 125.52"><defs><style>.cls-1{fill:#fff;}</style></defs><g id="Layer_2" data-name="Layer 2"><g id="Layer_1-2" data-name="Layer 1"><path d="M101,87a27.27,27.27,0,0,1-8.3,24.25A26.26,26.26,0,0,1,88,115.05c-15.88,9.66-32.75,13.18-51.05,8.27-6.94-1.86-13.75-3.89-20-7.61-3.19-1.9-5.11-4.26-5.67-8C9.73,97.2,7.92,86.77,6.23,76.31a42.36,42.36,0,0,0-.49-4.26C2.41,60.1,1.83,47.76.25,35.56-1.09,25.26,3.08,17.64,11,11.92A43.79,43.79,0,0,1,23.2,5.67c16-5.08,32.41-7.41,49.12-4.19A90.74,90.74,0,0,1,87,6.13c5.63,2.12,8.52,6.62,9,12.48.6,6.82,1.2,13.67,1.24,20.51a245.35,245.35,0,0,0,2.21,32.51C100.2,76.73,100.49,81.89,101,87ZM88.15,33.68C86,34.93,84.09,36,82.23,37.15A47.9,47.9,0,0,1,57.9,44.67c-14.64.37-29.2-.18-43.53-3.61-1.77-.42-3.65-1.76-6-.16a35.21,35.21,0,0,0,.27,4c1.92,11,3.92,21.94,5.86,32.92.84,4.78,1.51,9.59,2.37,14.37.66,3.66,1.5,7.29,2.24,10.94a7.3,7.3,0,0,0,3.93,5.33,56.46,56.46,0,0,0,6.14,3,85.91,85.91,0,0,0,26,5c11.84.5,21.88-3.51,31-10.61A14.05,14.05,0,0,0,92.07,94c-.07-2.86-.32-5.72-.46-8.58Q90.55,64,89.5,42.58C89.37,39.8,89.79,36.94,88.15,33.68ZM49.32,36.61l0-.57c3.42,0,6.86.27,10.25-.06A38.55,38.55,0,0,0,82.73,25.9c6.35-5.9,5.24-11-2.63-14C70.54,8.2,60.56,8.25,50.57,8.11c-9.28-.13-18.06,2.3-26.71,5.25A35.79,35.79,0,0,0,16.3,17.3c-3.72,2.37-4.17,4.17-3.29,8.75a7.86,7.86,0,0,0,5.82,6.67,28.81,28.81,0,0,0,5,1.21C32.3,34.89,40.81,35.73,49.32,36.61Z"/><path class="cls-1" d="M88.15,33.68c1.64,3.26,1.22,6.12,1.35,8.9q1,21.44,2.11,42.86c.14,2.86.39,5.72.46,8.58a14.05,14.05,0,0,1-5.87,11.84c-9.09,7.1-19.13,11.11-31,10.61a85.91,85.91,0,0,1-26-5,56.46,56.46,0,0,1-6.14-3,7.3,7.3,0,0,1-3.93-5.33c-.74-3.65-1.58-7.28-2.24-10.94-.86-4.78-1.53-9.59-2.37-14.37-1.94-11-3.94-21.94-5.86-32.92a35.21,35.21,0,0,1-.27-4c2.33-1.6,4.21-.26,6,.16,14.33,3.43,28.89,4,43.53,3.61a47.9,47.9,0,0,0,24.33-7.52C84.09,36,86,34.93,88.15,33.68Z"/><path class="cls-1" d="M49.32,36.61c-8.51-.88-17-1.72-25.52-2.68a28.81,28.81,0,0,1-5-1.21A7.86,7.86,0,0,1,13,26.05c-.88-4.58-.43-6.38,3.29-8.75a35.79,35.79,0,0,1,7.56-3.94C32.51,10.41,41.29,8,50.57,8.11c10,.14,20,.09,29.53,3.79,7.87,3,9,8.1,2.63,14A38.55,38.55,0,0,1,59.61,36c-3.39.33-6.83.06-10.25.06Z"/></g></g></svg>