<svg xmlns="http://www.w3.org/2000/svg" viewBox="0 0 181.61 102.39"><defs><style>.cls-1{fill:#fff;}</style></defs><g id="Layer_2" data-name="Layer 2"><g id="Layer_1-2" data-name="Layer 1"><path d="M83.51,21.48c1.5-2.79,2.72-5,3.91-7.27C91,7.51,96.62,3.44,103.63,1,110-1.26,116.08.75,122,2.78c7,2.41,13.81,5.5,20.84,7.89,9.51,3.23,19.22,5.67,29.43,4.57a6.5,6.5,0,0,1,6.54,3,14.25,14.25,0,0,1,2.68,10.46A52.07,52.07,0,0,1,171,54.61c-8.25,10.78-18.66,19.18-29.58,27.1a103.1,103.1,0,0,1-41.35,17.93,138.91,138.91,0,0,1-21.23,2.46c-11.14.45-22.31.67-33.37-1.5-15.23-3-28.77-9.19-39.87-20.33A19,19,0,0,1,0,65.52,7,7,0,0,1,3.55,59.1a73.93,73.93,0,0,1,7.59-4,27.44,27.44,0,0,0,11.31-8.93C25,42.77,27.71,39.43,30.28,36A63.68,63.68,0,0,1,50.1,18.55a25.36,25.36,0,0,1,22.3-1.77C75.86,18.06,79.21,19.65,83.51,21.48Zm75.59,7.4c-12.67-2.5-23.62-7.53-34.79-11.88a57.09,57.09,0,0,0-8.11-2.78,34.54,34.54,0,0,0-8.47-.88,13.65,13.65,0,0,0-11.47,6.47c-2.38,3.63-4.12,7.48-4.1,12a28,28,0,0,1-.81,7.61,4.51,4.51,0,0,1-7.59,1.83c-2.19-2.25-4.23-4.66-6.22-7.09-5.9-7.18-19.17-9.13-28-2A62.13,62.13,0,0,0,37.62,44.37C33.7,49.91,29.43,55.2,24.69,61.42c4.93.21,8.89.7,12.81.49,9.41-.5,18.8-1.45,28.22-2A100.14,100.14,0,0,0,91,55.45c13.34-4.27,26.75-8.33,40-13,7.78-2.76,15.25-6.47,22.78-9.91A38.88,38.88,0,0,0,159.1,28.88Zm8.11,10c-2.22,1-3.49,1.47-4.72,2.07-6.92,3.39-13.76,6.95-20.76,10.2C129,57.08,115.51,61,102.17,65.22c-7.62,2.42-15.35,5-23.22,6-11.61,1.46-23.38,1.74-35.1,2.21-6.56.26-13.16-.16-19.74-.17-1.87,0-3.95-.67-5.53,1,.18.6.18,1.28.51,1.55,6,5,12.6,8.88,20.36,10.57,6.71,1.46,13.4,2.94,20.34,2.84,7.73-.11,15.48.26,23.18-.24,12-.78,24-2.55,35.07-7.53,17.52-7.85,32-19.84,44.85-33.91C164.74,45.49,166.86,43.34,167.21,38.89Z"/><path class="cls-1" d="M159.1,28.88a38.88,38.88,0,0,1-5.41,3.65c-7.53,3.44-15,7.15-22.78,9.91-13.2,4.68-26.61,8.74-39.95,13a100.14,100.14,0,0,1-25.24,4.49c-9.42.52-18.81,1.47-28.22,2-3.92.21-7.88-.28-12.81-.49,4.74-6.22,9-11.51,12.93-17.05A62.13,62.13,0,0,1,49.56,32.18c8.81-7.16,22.08-5.21,28,2,2,2.43,4,4.84,6.22,7.09a4.51,4.51,0,0,0,7.59-1.83,28,28,0,0,0,.81-7.61c0-4.51,1.72-8.36,4.1-12a13.65,13.65,0,0,1,11.47-6.47,34.54,34.54,0,0,1,8.47.88A57.09,57.09,0,0,1,124.31,17C135.48,21.35,146.43,26.38,159.1,28.88Z"/><path class="cls-1" d="M167.21,38.89c-.35,4.45-2.47,6.6-4.32,8.62C150.06,61.58,135.56,73.57,118,81.42,106.93,86.4,95,88.17,83,89c-7.7.5-15.45.13-23.18.24-6.94.1-13.63-1.38-20.34-2.84-7.76-1.69-14.33-5.61-20.36-10.57-.33-.27-.33-1-.51-1.55,1.58-1.66,3.66-1,5.53-1,6.58,0,13.18.43,19.74.17,11.72-.47,23.49-.75,35.1-2.21,7.87-1,15.6-3.56,23.22-6C115.51,61,129,57.08,141.73,51.16c7-3.25,13.84-6.81,20.76-10.2C163.72,40.36,165,39.86,167.21,38.89Z"/></g></g></svg>