<svg xmlns="http://www.w3.org/2000/svg" viewBox="0 0 108.5 180.86"><defs><style>.cls-1{fill:#fff;}</style></defs><g id="Layer_2" data-name="Layer 2"><g id="Layer_1-2" data-name="Layer 1"><path d="M62.58,135.6a60.68,60.68,0,0,0-2.41,6.14c-1.36,5.26-2.55,10.57-3.81,15.86-2.11,8.84-7.69,15.44-14.67,20.57-5.22,3.83-11.54,3.31-17.11.11-5.36-3.08-8.33-7.79-7.23-14.33,1.81-10.71,3.38-21.48,6.83-31.84.54-1.61,1-3.26,1.55-5.26-1.55-1-2.86-2-4.31-2.73-3.82-2-7.82-3.58-11.53-5.7-4-2.26-7.67-5-9.89-9.13A350.36,350.36,0,0,1,18.15,45.72c4.48-11.42,10-22.42,18.37-31.83A39.05,39.05,0,0,1,56.69,1.72C69-1.5,80.58-.3,91.49,6.13,99.75,11,105.1,18,106.84,27.75c1.87,10.55,2.37,21,.41,31.57-1.67,9-2.78,18.09-4.38,27.1A109.73,109.73,0,0,1,99.82,98q-5.08,17.26-10.33,34.5c-1.4,4.57-3.46,6-8.15,5.62-3.42-.28-6.82-.91-10.22-1.38Zm17.06-7.67c1.11-2.84,2.18-5.13,2.92-7.53,2.36-7.66,4.67-15.34,6.84-23.06a120.48,120.48,0,0,0,3.44-14.18c1.82-11.88,3.49-23.79,4.83-35.73C98.54,39.67,97.05,32,95,24.51A18.7,18.7,0,0,0,83.25,11.7C72.79,7.58,62.32,8.81,52.56,13.84c-9.28,4.79-14.64,13.4-19,22.53-8.2,17.35-14.29,35.48-19.27,54C13.21,94.5,12,98.62,11,102.77c-.78,3.12.3,5.5,2.93,7.42a73,73,0,0,0,18.29,9.36C47.17,125,62.81,126.44,79.64,127.93ZM51.56,134c-5.46-1.58-10.41-3.47-16.08-3.74a37,37,0,0,0-2.34,4.6c-3.29,9.49-3.82,19.52-5.67,29.29a7.56,7.56,0,0,0,.11,2.55c.86,5,4.4,6.73,8.76,4.28a19.93,19.93,0,0,0,9-10C48.69,152.57,50.05,143.6,51.56,134Z"/><path class="cls-1" d="M79.64,127.93c-16.83-1.49-32.47-2.94-47.44-8.38a73,73,0,0,1-18.29-9.36c-2.63-1.92-3.71-4.3-2.93-7.42,1-4.15,2.23-8.27,3.35-12.4,5-18.52,11.07-36.65,19.27-54,4.32-9.13,9.68-17.74,19-22.53,9.76-5,20.23-6.26,30.69-2.14A18.7,18.7,0,0,1,95,24.51c2,7.49,3.51,15.16,2.64,22.92-1.34,11.94-3,23.85-4.83,35.73A120.48,120.48,0,0,1,89.4,97.34c-2.17,7.72-4.48,15.4-6.84,23.06C81.82,122.8,80.75,125.09,79.64,127.93Z"/><path class="cls-1" d="M51.56,134c-1.51,9.56-2.87,18.53-6.22,27a19.93,19.93,0,0,1-9,10c-4.36,2.45-7.9.71-8.76-4.28a7.56,7.56,0,0,1-.11-2.55c1.85-9.77,2.38-19.8,5.67-29.29a37,37,0,0,1,2.34-4.6C41.15,130.57,46.1,132.46,51.56,134Z"/></g></g></svg>