<svg xmlns="http://www.w3.org/2000/svg" viewBox="0 0 126.05 84.59"><defs><style>.cls-1{fill:#fff;}</style></defs><g id="Layer_2" data-name="Layer 2"><g id="Layer_1-2" data-name="Layer 1"><path d="M.77,81.87C-.5,76.74.15,71.31.3,65.91A6.91,6.91,0,0,1,5.75,59c5.77-1.54,11.64-2.82,17.52-3.88,16.73-3,33.7-1.71,50.55-2.49,10.29-.48,20.6-.63,30.9-.72a63.7,63.7,0,0,1,11.11.87c6.4,1.07,9.2,4.37,8.39,10.64-.53,4.15.81,8.6-1.57,12.87-3.42.27-6.79.76-10.17.76C101,77.05,89.66,78.51,78.31,80c-5.67.74-11.37,1.28-17.07,1.73C44.7,83,28.19,85,11.55,84.51,7.88,84.39,4,85,.77,81.87Zm8.62-5.06c7.63,1.06,14.73.49,21.81-.09,9.41-.78,18.82-1.67,28.23-2.52,4.85-.43,9.7-.8,14.55-1.3,8.53-.89,17-2,25.59-2.76,5.08-.48,10.14-1,14.92-1.66,1.39-3,1.61-5.41.19-8.2-1.65-.14-3.33-.42-5-.4q-23.62.23-47.26.57c-3.71.06-7.44.79-11.13.62-10.66-.47-21.16.85-31.65,2.35A22.27,22.27,0,0,0,8.51,68C8.8,70.92,9.08,73.66,9.39,76.81Z"/><path d="M2.53,26.26c.23-6.1.46-12,.67-17.5C5.68,5.59,8.76,4.69,11.77,4A104.93,104.93,0,0,1,26.09,1.41C47.48-.48,68.92,0,90.35.19c7.14.06,14.27.37,21.41.58,2,0,4,0,6,.24,6.62.72,8.38,2.72,8.3,9.28a55.89,55.89,0,0,1-.28,6.85c-.84,6.12-4.24,8.71-9.58,8.61-20.29-.36-40.57-.2-60.83,1.26-6.51.47-13.08-.54-19.64.39-5.08.72-10.23.94-15.35,1.41C14.64,29.34,8.94,29.74,2.53,26.26ZM117,8.8c-3.8-.17-6.34-.37-8.87-.38C95.58,8.34,83,8.6,70.43,8.18A316.53,316.53,0,0,0,22.54,9.86c-4,.48-7.81,1.21-11.35,3.32-.74,2.88-1.12,5.6.08,8.32a15,15,0,0,0,8.68.37c3.63-.68,7.33-1,11-1.43,2.27-.26,4.55-.45,6.82-.62,3.69-.29,7.37-.64,11.06-.8,3.13-.13,6.28,0,9.42-.06,16-.46,32-1,48-1.44,2.82-.08,5.66,0,8.94,0Z"/><path class="cls-1" d="M9.39,76.81c-.31-3.15-.59-5.89-.88-8.82a22.27,22.27,0,0,1,11.12-4.57c10.49-1.5,21-2.82,31.65-2.35,3.69.17,7.42-.56,11.13-.62q23.64-.37,47.26-.57c1.68,0,3.36.26,5,.4,1.42,2.79,1.2,5.18-.19,8.2-4.78.67-9.84,1.18-14.92,1.66C91,70.94,82.51,72,74,72.9c-4.85.5-9.7.87-14.55,1.3-9.41.85-18.82,1.74-28.23,2.52C24.12,77.3,17,77.87,9.39,76.81Z"/><path class="cls-1" d="M117,8.8l-1.87,8.71c-3.28,0-6.12-.07-8.94,0-16,.47-32,1-48,1.44-3.14.09-6.29-.07-9.42.06-3.69.16-7.37.51-11.06.8-2.27.17-4.55.36-6.82.62-3.67.43-7.37.75-11,1.43a15,15,0,0,1-8.68-.37c-1.2-2.72-.82-5.44-.08-8.32,3.54-2.11,7.34-2.84,11.35-3.32A316.53,316.53,0,0,1,70.43,8.18c12.57.42,25.15.16,37.73.24C110.69,8.43,113.23,8.63,117,8.8Z"/></g></g></svg>