<svg xmlns="http://www.w3.org/2000/svg" viewBox="0 0 151.37 149.87"><defs><style>.cls-1{fill:#fff;}</style></defs><g id="Layer_2" data-name="Layer 2"><g id="Layer_1-2" data-name="Layer 1"><path d="M0,115a13.17,13.17,0,0,1,4-8.25c1.8-1.85,3.5-3.78,5.27-5.66,7.84-8.31,15.62-16.68,23.56-24.9s16-16.33,24.1-24.43c7.85-7.9,15.62-15.9,23.7-23.56C87.86,21.34,95.34,14.66,103,8.28c3.25-2.69,7.25-4.52,11-6.51A9.13,9.13,0,0,1,124.54,3a33.74,33.74,0,0,1,8,8.75c3.57,6.15,8.09,11.74,12.16,17.6,4.21,6.07,4.1,9.55-.47,15.32-16,20.18-32.74,39.69-51.61,57.3-5.22,4.88-10.19,10-15.25,15.07-1.62,1.62-3.49,3.1-4.69,5-6.77,10.7-17.25,17.45-27,24.81-5.35,4.05-12.44,4.31-16.92-1.32-3-3.8-6.52-7.2-9.7-10.87C13.12,127.82,7.77,120.36,0,115Zm39,24.17c4-2.7,8-4.63,11-7.52,9.11-8.68,17.56-18.06,26.82-26.58A596.61,596.61,0,0,0,131,47.61c2.72-3.27,5.51-6.57,7.08-11.33-3.07-4.2-6.11-8.66-9.48-12.86s-4.79-9.76-10.05-12.5a79.88,79.88,0,0,0-12.8,9C89,33.85,73.6,49.25,58.36,64.79,54,69.28,49.82,74,45.56,78.68c-4.45,4.85-8.76,9.84-13.39,14.51C26,99.46,19.5,105.48,12.89,111.85c6.12,6.8,12,13.37,17.94,19.92,1.53,1.7,3.09,3.38,4.74,5A32.11,32.11,0,0,0,39,139.19Z"/><path d="M30.66,47.34c-1.15,0-2.29,0-3.43,0C16.14,47.1,8.76,39.84,8.05,28.7c-.44-7,.38-13.67,3.78-19.91,2.17-4,5.35-6.86,9.75-7.69C31.6-.81,41.42-.59,50.65,4.64c6.89,3.91,10.09,9.91,8.94,17.82a80,80,0,0,1-2.16,10.91,13.43,13.43,0,0,1-3.38,5.77c-4.84,4.59-10.35,8.07-17.39,8.07h-6ZM18.53,25.28A32.88,32.88,0,0,0,19,31.12c1.34,6.28,6.32,9.79,12.64,8.84A22.79,22.79,0,0,0,48.36,29c3-4.77,2.47-11.47-.93-15.29-6.08-6.84-15.09-7.15-22.14-5-1.45.45-2.66,2-3.74,3.27C18.76,15.33,18.56,19.37,18.53,25.28Z"/><path d="M151.25,111.92c-.3,3.9-.48,5.88-.6,7.88-.52,8.25-5,13.8-12.22,17.18-7.4,3.49-14.89,4.9-23.09,1.65-5.54-2.19-9.27-5.54-11.12-10.93-3.51-10.23-1-19.77,4.65-28.41,2.71-4.15,7.71-5.87,12.41-7.06,9.67-2.46,18.05.06,24.73,7.58C149.53,103.78,151.93,108.23,151.25,111.92Zm-38.63,6.26a51.55,51.55,0,0,0,.63,6.6,10,10,0,0,0,9,8c7.07.49,13.06-2.06,17.09-7.92,3.64-5.31,3.88-11.32,1.35-17.2-2.64-6.12-10.92-9.32-17.27-7.62-6.78,1.81-10,6-10.48,12.78C112.82,114.53,112.73,116.24,112.62,118.18Z"/><path class="cls-1" d="M39,139.19a32.11,32.11,0,0,1-3.46-2.45c-1.65-1.59-3.21-3.27-4.74-5-5.92-6.55-11.82-13.12-17.94-19.92C19.5,105.48,26,99.46,32.17,93.19c4.63-4.67,8.94-9.66,13.39-14.51C49.82,74,54,69.28,58.36,64.79,73.6,49.25,89,33.85,105.76,19.93a79.88,79.88,0,0,1,12.8-9c5.26,2.74,6.74,8.39,10.05,12.5s6.41,8.66,9.48,12.86c-1.57,4.76-4.36,8.06-7.08,11.33a596.61,596.61,0,0,1-54.15,57.48C67.6,113.61,59.15,123,50,131.67,47,134.56,43.06,136.49,39,139.19Z"/><path class="cls-1" d="M18.53,25.28c0-5.91.23-10,3-13.23,1.08-1.26,2.29-2.82,3.74-3.27,7.05-2.18,16.06-1.87,22.14,5,3.4,3.82,3.88,10.52.93,15.29A22.79,22.79,0,0,1,31.66,40c-6.32.95-11.3-2.56-12.64-8.84A32.88,32.88,0,0,1,18.53,25.28Z"/><path class="cls-1" d="M112.62,118.18c.11-1.94.2-3.65.31-5.36.45-6.76,3.7-11,10.48-12.78,6.35-1.7,14.63,1.5,17.27,7.62,2.53,5.88,2.29,11.89-1.35,17.2-4,5.86-10,8.41-17.09,7.92a10,10,0,0,1-9-8A51.55,51.55,0,0,1,112.62,118.18Z"/></g></g></svg>