<svg xmlns="http://www.w3.org/2000/svg" viewBox="0 0 186.1 181.4"><defs><style>.cls-1{fill:#fff;}</style></defs><g id="Layer_2" data-name="Layer 2"><g id="Layer_1-2" data-name="Layer 1"><path d="M129.22,123.12c-.52,8.52.81,16.43,1.15,24.36.34,7.68.93,15.34,1.42,23.11a22,22,0,0,1-10.88,5.19c-13.5,2.52-27,5.1-40.79,5.61-4.09.15-7.88-.81-11.48-1.44-2.79-3.93-2.89-7.91-3.28-11.89-1.2-12-2.55-23.89-3.93-35.83a18.9,18.9,0,0,0-1.3-3.91c-3.62-1.32-7-.54-10.41-.22C40,129,30.34,130,20.63,130.62a50.38,50.38,0,0,1-10.26-.52,7.6,7.6,0,0,1-6.95-6.58,57.88,57.88,0,0,1-1.14-5.9C1.45,106.5.57,95.38,0,84.24c-.39-8.11,1.88-11.4,9.35-14.49a38.66,38.66,0,0,1,7.39-2.16c9.84-1.92,19.7-3.71,29.55-5.54,2.51-.47,5.17-.5,7.3-3,0-3.37,0-7,0-10.7-.11-6.59-.19-13.17-.47-19.75a48.93,48.93,0,0,0-1.19-6.73,37,37,0,0,1-.9-5.06c-.13-3.33.81-6.09,4.23-7.67,6-2.76,12-5.32,18.73-5.81C86,2.48,98,1.14,109.93.17c3.08-.26,6.34-.58,9.71,2,.76,5.07,1.39,10.73,2.51,16.29a149.3,149.3,0,0,1,3.37,27.22c0,2.46,1,4.91,1.7,7.75,4.93.22,9.4-.6,13.9-.85,8.86-.5,17.72-.84,26.58-1.18a22.77,22.77,0,0,1,4.28.3c5.19.75,6.49,1.59,7.17,6.85,1.53,11.9,2.69,23.86,3.89,35.81.39,4,.44,8,.69,12a6.51,6.51,0,0,0,.46,2.51c.72,1.46,2.5,2.52,1.71,4.52-1,2.45-3.42,2.88-5.5,3.65a22.51,22.51,0,0,1-5.78,1.46q-12,1-24,1.71A107.45,107.45,0,0,0,129.22,123.12ZM60.56,16.5c.69,8.62,1.2,16.86,2,25.07s3.86,16.19,2,25a38.78,38.78,0,0,1-5.46,1.8c-14.64,2.59-29.3,5-43.93,7.66-2.16.38-4.19,1.47-6.36,2.26,0,1.57-.09,2.7,0,3.8,1.07,10.81,2.18,21.62,3.24,32.43.26,2.59.58,5.11,3,7.39a72.85,72.85,0,0,0,15-.23c9.11-.83,18.21-1.86,27.32-2.63,10.64-.9,13.18,1.34,14.34,12,1.32,12.22,2.66,24.43,4.11,36.64a33.2,33.2,0,0,0,1.63,5.48c8.06.83,15.25-1.18,22.55-2.5s14.67-1.5,21.76-4.36c.07-1.71.13-3.12.19-4.53.49-12.35-1.06-24.57-2.28-36.81-.57-5.61.83-7.84,6.18-9.36a25.07,25.07,0,0,1,4.22-.77c10.53-1.08,21.05-2.16,31.58-3.17,3.89-.38,8,.34,11.68-2a25.09,25.09,0,0,0,.21-3.55c-1.08-13.12-2.15-26.25-3.37-39.35-.21-2.17-1.12-4.27-1.8-6.75-4.76-.08-9.05-.48-13.29-.16-9.12.67-18.23,1.63-27.33,2.64-2.89.32-5.69.9-8.4-1.57a60.09,60.09,0,0,0-1.76-7.13c-2.11-5.73-2.56-11.65-3-17.68-.59-7.68-1.9-15.32-3-23a16.62,16.62,0,0,0-1.36-3.63A7.88,7.88,0,0,0,108.17,9q-18.39,1.68-36.76,3.44A19.82,19.82,0,0,0,60.56,16.5Z"/><path class="cls-1" d="M60.56,16.5a19.82,19.82,0,0,1,10.85-4Q89.79,10.68,108.17,9a7.88,7.88,0,0,1,2.07.56,16.62,16.62,0,0,1,1.36,3.63c1.12,7.64,2.43,15.28,3,23,.47,6,.92,12,3,17.68A60.09,60.09,0,0,1,119.41,61c2.71,2.47,5.51,1.89,8.4,1.57,9.1-1,18.21-2,27.33-2.64,4.24-.32,8.53.08,13.29.16.68,2.48,1.59,4.58,1.8,6.75,1.22,13.1,2.29,26.23,3.37,39.35a25.09,25.09,0,0,1-.21,3.55c-3.7,2.3-7.79,1.58-11.68,2-10.53,1-21.05,2.09-31.58,3.17a25.07,25.07,0,0,0-4.22.77c-5.35,1.52-6.75,3.75-6.18,9.36,1.22,12.24,2.77,24.46,2.28,36.81-.06,1.41-.12,2.82-.19,4.53-7.09,2.86-14.54,3-21.76,4.36s-14.49,3.33-22.55,2.5a33.2,33.2,0,0,1-1.63-5.48c-1.45-12.21-2.79-24.42-4.11-36.64-1.16-10.66-3.7-12.9-14.34-12-9.11.77-18.21,1.8-27.32,2.63a72.85,72.85,0,0,1-15,.23c-2.4-2.28-2.72-4.8-3-7.39-1.06-10.81-2.17-21.62-3.24-32.43-.11-1.1,0-2.23,0-3.8,2.17-.79,4.2-1.88,6.36-2.26C29.84,73.42,44.5,71,59.14,68.39a38.78,38.78,0,0,0,5.46-1.8c1.86-8.83-1.16-16.83-2-25S61.25,25.12,60.56,16.5Z"/></g></g></svg>