<svg xmlns="http://www.w3.org/2000/svg" viewBox="0 0 159.58 164.03"><defs><style>.cls-1{fill:#fff;}</style></defs><g id="Layer_2" data-name="Layer 2"><g id="Layer_1-2" data-name="Layer 1"><path d="M151.2,75.55c7,2.34,8.75,7,8.31,12.54a56.58,56.58,0,0,1-6.37,23,140.74,140.74,0,0,1-32.94,40.29c-5.06,4.27-10.67,7.94-17,9.93A50.32,50.32,0,0,1,77.09,163a138.53,138.53,0,0,1-40.6-15.92c-14.82-8.55-25.88-20.42-31.91-36.81C-.08,97.61-.81,84.83.72,71.52c1.37-11.85,5.83-22.69,9.37-33.84a28.53,28.53,0,0,1,4.79-9.07C26.3,14.42,40,3.67,58.63.59A37.4,37.4,0,0,1,76.45,1.68a67.81,67.81,0,0,1,17.76,8.49,21.29,21.29,0,0,1,3.4,2.61c4.44,4.57,3.15,6.93-1.28,9.25C86.29,27.3,80,36.13,74.9,45.88a47.58,47.58,0,0,0-5.11,20.66,38.89,38.89,0,0,0,7.55,25,19.64,19.64,0,0,0,10.1,7.65c12.39,3.88,24.69,4.17,36.83-1.31,8-3.6,14.85-8.47,20.22-15.49C146.35,80,148.81,78,151.2,75.55ZM86.32,15.44c-.67-.93-.89-1.57-1.32-1.8-8-4.11-16.48-4.81-25.07-3.13C45.47,13.32,34.82,22.45,25,32.7a18.53,18.53,0,0,0-3.28,6c-1.7,4.24-3.08,8.6-4.73,12.86a95.38,95.38,0,0,0-6.33,36c.22,20.87,8.81,37,25.67,48.71,6.07,4.22,12.84,7.49,19.46,10.86a68,68,0,0,0,22.12,6.54c5.94.77,12.16,1.73,17.82-.64a69.21,69.21,0,0,0,15.69-8.69c14.23-11,25-25.07,33.62-40.73.57-1,.31-2.52.45-4a6.39,6.39,0,0,0-1.42.27c-1.47.86-2.91,1.79-4.39,2.64-12.14,7-24.72,11.14-39.19,9.28C91,110.62,82.73,108,76,101.11c-2.61-2.65-5.37-5.16-7.8-8a24.71,24.71,0,0,1-4.24-6.41A49.8,49.8,0,0,1,60.4,58.21,66.44,66.44,0,0,1,81,20.48C82.83,18.79,84.6,17.08,86.32,15.44Z"/><path class="cls-1" d="M86.32,15.44c-1.72,1.64-3.49,3.35-5.29,5A66.44,66.44,0,0,0,60.4,58.21a49.8,49.8,0,0,0,3.53,28.53,24.71,24.71,0,0,0,4.24,6.41c2.43,2.8,5.19,5.31,7.8,8,6.76,6.86,15.06,9.51,24.55,10.72,14.47,1.86,27.05-2.31,39.19-9.28,1.48-.85,2.92-1.78,4.39-2.64a6.39,6.39,0,0,1,1.42-.27c-.14,1.44.12,2.93-.45,4-8.67,15.66-19.39,29.73-33.62,40.73A69.21,69.21,0,0,1,95.76,153c-5.66,2.37-11.88,1.41-17.82.64a68,68,0,0,1-22.12-6.54c-6.62-3.37-13.39-6.64-19.46-10.86C19.5,124.54,10.91,108.42,10.69,87.55a95.38,95.38,0,0,1,6.33-36c1.65-4.26,3-8.62,4.73-12.86a18.53,18.53,0,0,1,3.28-6c9.79-10.25,20.44-19.38,34.9-22.19C68.52,8.83,77,9.53,85,13.64,85.43,13.87,85.65,14.51,86.32,15.44Z"/></g></g></svg>