<svg xmlns="http://www.w3.org/2000/svg" viewBox="0 0 300.35 167.81"><defs><style>.cls-1{fill:#fff;}</style></defs><g id="Layer_2" data-name="Layer 2"><g id="Layer_1-2" data-name="Layer 1"><path d="M117.8,30.25a47.48,47.48,0,0,0,3.09-4.09c4.23-7.39,10.55-12.73,17.26-17.69a25.83,25.83,0,0,1,12.7-4.69,37.19,37.19,0,0,1,27.54,7.13c5.34,3.9,10.45,8,14.25,13.52a44.8,44.8,0,0,0,3.56,4,71.06,71.06,0,0,0,5.24-4.9c10.25-11.75,23.61-16.48,38.71-17.8,26.08-2.28,49,15.73,55.31,39.52A151,151,0,0,1,300,93.76c-.55,8.81-1,17.64-1.5,26.46a10.83,10.83,0,0,1-.09,1.72c-2.08,9.51-2.35,19.26-3.74,28.84-.69,4.74-2.76,9.29-4.25,13.91a4.13,4.13,0,0,1-4.59,3.09c-2.82-.28-5.82-.42-8.38-1.49-10.7-4.49-22.13-5.68-33.35-7.81-16.61-3.15-33.48-4.3-50.26-6.08a24.8,24.8,0,0,0-2.57-.24c-17,0-33.59-3.2-50.36-5.1-18.75-2.12-37.52-4.44-56.41-4.53-19.51-.08-38.95.94-57.38,8.51a18.63,18.63,0,0,1-5.82,1.24c-3.81.25-6.77-1.32-8-5.08-1.84-5.41-3.49-10.89-5.2-16.35-.93-3-1.59-6.11-2.74-9-5.62-14.23-5.87-29-4.94-44C1,68.52,4.45,60,7,51.27,11.51,35.63,20.7,23,33.28,13,45.36,3.42,59.34-1.28,74.89.3c14.68,1.49,26.56,8.44,35.79,19.87C113,23.05,115,26.22,117.8,30.25ZM283.87,158.69c1.18-5.65,2.42-10.34,3.09-15.12,1-6.8,1.12-13.71,2.26-20.47A159.79,159.79,0,0,0,291,84.6c-1-13.68-2-27.38-6.33-40.57-3.38-10.23-9.8-18-18.58-23.94-4.28-2.88-9.06-5.26-14.3-5.46-14.79-.54-28.58,2.49-39.51,13.31-4.26,4.2-7.93,9-11.8,13.59-1.11,1.3-1.88,2.89-3,4.18a5.28,5.28,0,0,1-6.17,1.7,4.88,4.88,0,0,1-3.73-4.19c-.29-2-.82-3.94-1-5.93-.47-7.2-4.44-12.18-10-16.19-2.09-1.51-4.14-3.07-6.3-4.48-8.61-5.62-18-5.31-26.37.88-9.5,7-16.62,15.71-19,27.64a14.07,14.07,0,0,1-5,8.14c-5.86.28-8.48-2.52-9.29-7.45-.13-.85-.35-1.69-.45-2.54-1-8.68-5.43-15.73-11.16-21.8C91.88,13.79,83,8.25,72,8.67c-8.59.33-17.1,2.06-24.58,6.76A67.44,67.44,0,0,0,21.81,43.67,112.18,112.18,0,0,0,10.73,94.36a85.5,85.5,0,0,0,3.31,22c2,7.15,3.94,14.33,6.06,21.45a35,35,0,0,0,2.64,5.27c16.1-6.53,32.63-8.22,49.19-9.5,14.9-1.15,29.72.76,44.52,2.19,9.12.87,18.16,2.45,27.27,3.36,20.49,2.05,41,3.83,61.52,5.81,10.81,1,21.68,1.79,32.39,3.52C252.83,150.93,268.29,152.38,283.87,158.69Z"/><path class="cls-1" d="M283.87,158.69c-15.58-6.31-31-7.76-46.24-10.23-10.71-1.73-21.58-2.48-32.39-3.52-20.51-2-41-3.76-61.52-5.81-9.11-.91-18.15-2.49-27.27-3.36-14.8-1.43-29.62-3.34-44.52-2.19-16.56,1.28-33.09,3-49.19,9.5a35,35,0,0,1-2.64-5.27c-2.12-7.12-4-14.3-6.06-21.45a85.5,85.5,0,0,1-3.31-22A112.18,112.18,0,0,1,21.81,43.67,67.44,67.44,0,0,1,47.43,15.43C54.91,10.73,63.42,9,72,8.67c11-.42,19.87,5.12,27.14,12.82,5.73,6.07,10.2,13.12,11.16,21.8.1.85.32,1.69.45,2.54.81,4.93,3.43,7.73,9.29,7.45a14.07,14.07,0,0,0,5-8.14c2.36-11.93,9.48-20.61,19-27.64,8.36-6.19,17.76-6.5,26.37-.88,2.16,1.41,4.21,3,6.3,4.48,5.58,4,9.55,9,10,16.19.14,2,.67,4,1,5.93a4.88,4.88,0,0,0,3.73,4.19,5.28,5.28,0,0,0,6.17-1.7c1.11-1.29,1.88-2.88,3-4.18,3.87-4.59,7.54-9.39,11.8-13.59C223.25,17.12,237,14.09,251.83,14.63c5.24.2,10,2.58,14.3,5.46C274.91,26,281.33,33.8,284.71,44,289.07,57.22,290,70.92,291,84.6a159.79,159.79,0,0,1-1.82,38.5c-1.14,6.76-1.31,13.67-2.26,20.47C286.29,148.35,285.05,153,283.87,158.69Z"/></g></g></svg>