<svg xmlns="http://www.w3.org/2000/svg" viewBox="0 0 166.57 222.27"><defs><style>.cls-1{fill:#fff;}</style></defs><g id="Layer_2" data-name="Layer 2"><g id="Layer_1-2" data-name="Layer 1"><path d="M84.1,11.64A47.51,47.51,0,0,1,90,9.51c10.68-2,21.37-4,32.06-6,3.94-.71,7.89-1.31,11.84-2,2.82-.46,5.65-.86,8.46-1.37,4.84-.88,7.9.93,10.53,5.21,4.2,6.84,8.49,13.54,10.75,21.34,4.71,16.22,3.42,32.34-1.52,48.17a100.69,100.69,0,0,1-27.28,44q-13.74,13-27.47,25.92A89.7,89.7,0,0,0,81.8,186.8a47.13,47.13,0,0,0-1.31,17.83c.44,4-.41,5-4.25,6.19a22.51,22.51,0,0,1-3.33.83c-16.4,2.51-32.42,6.78-48.62,10.22a14.84,14.84,0,0,1-14.17-4A16.51,16.51,0,0,1,6.68,213,63.88,63.88,0,0,1,0,186.6a115.72,115.72,0,0,1,5.73-39.7c3.55-10.63,9.13-20.35,15.67-29.46A253.29,253.29,0,0,1,43.5,91.17c7.85-8.29,15.24-17,22.81-25.6C72,59.09,76.06,51.51,80.11,44c3.66-6.83,4.08-14.19,4-21.68C84.05,18.88,84.1,15.5,84.1,11.64Zm8.48,9.18c0,1.75,0,3.42,0,5.1.07,9.26-1.36,18.09-5.78,26.48C78.17,68.8,66.1,82.58,53.61,95.94c-9.6,10.27-19,20.64-27,32.22-5.22,7.57-9.75,15.58-12.52,24.35-3.75,11.85-4.7,24.08-4.52,36.5a54.9,54.9,0,0,0,4.34,20c.59,1.47,1.84,2.68,2.76,4,6.32-1.28,12.22-2.39,18.07-3.69,6.15-1.37,12.38-2.53,18.34-4.49,5.64-1.85,12-.76,16.61-3.5,1.85-8.76,2.92-16.75,5.25-24.35,5.26-17.13,15.69-31,28.67-43.11,9-8.41,17.8-17,26.74-25.47s15.23-18.5,20.38-29.48c5.39-11.47,6.24-23.72,6.4-36.08S152.49,20.08,144,10.71C126.94,14.2,109.48,15.17,92.58,20.82Z"/><path class="cls-1" d="M92.58,20.82c16.9-5.65,34.36-6.62,51.38-10.11,8.53,9.37,13.36,19.7,13.19,32.08s-1,24.61-6.4,36.08c-5.15,11-11.51,21.08-20.38,29.48s-17.75,17.06-26.74,25.47c-13,12.12-23.41,26-28.67,43.11-2.33,7.6-3.4,15.59-5.25,24.35-4.61,2.74-11,1.65-16.61,3.5-6,2-12.19,3.12-18.34,4.49-5.85,1.3-11.75,2.41-18.07,3.69-.92-1.3-2.17-2.51-2.76-4a54.9,54.9,0,0,1-4.34-20c-.18-12.42.77-24.65,4.52-36.5,2.77-8.77,7.3-16.78,12.52-24.35,8-11.58,17.38-22,27-32.22C66.1,82.58,78.17,68.8,86.81,52.4c4.42-8.39,5.85-17.22,5.78-26.48C92.57,24.24,92.58,22.57,92.58,20.82Z"/></g></g></svg>