<svg xmlns="http://www.w3.org/2000/svg" viewBox="0 0 145.53 129.49"><defs><style>.cls-1{fill:#fff;}</style></defs><g id="Layer_2" data-name="Layer 2"><g id="Layer_1-2" data-name="Layer 1"><path d="M145.53,21.26c-1.66,5.12-2.74,9.91-4.73,14.29-5.12,11.28-7.87,23.31-11.42,35.07q-6.7,22.18-12.66,44.59c-.92,3.47-.47,7.29-.69,11.62a5.84,5.84,0,0,1-6.09,2.57,56.24,56.24,0,0,1-8.39-1.61c-17.6-5.43-35.65-8.38-53.94-10.08q-12-1.12-24-1.86a58.13,58.13,0,0,0-10.22.2c-5.63.65-9.25-2.45-12.36-6.3-.94-1.17-1.15-3.26-1-4.88.89-13.77,2.5-27.4,8.87-40,3.49-6.9,7-13.74,11.54-20.06,7.68-10.63,17.64-18.77,28-26.41C55.13,13.51,62.08,9,69.85,5.77,81.77.89,94-1.56,106.75,1.08c13.06,2.71,25.2,7.58,35.39,16.49C143.2,18.5,144.06,19.65,145.53,21.26Zm-13.13.29c-3.81-3.54-8.81-5.09-13.62-6.72-14.24-4.83-28.44-5.55-42.67.69-8,3.5-15,8.25-22,13.24C38.42,40,26.31,54.11,18.42,71.81c-4.58,10.26-6.68,21-7.34,32.66,31.73,1.66,62.67,4.75,92.76,13,.49-.53,1.07-.88,1.22-1.36C114.33,87,120.65,57,131.5,28.37a29.89,29.89,0,0,0,1.21-5A5.91,5.91,0,0,0,132.4,21.55Z"/><path class="cls-1" d="M132.4,21.55a5.91,5.91,0,0,1,.31,1.82,29.89,29.89,0,0,1-1.21,5C120.65,57,114.33,87,105.06,116.16c-.15.48-.73.83-1.22,1.36-30.09-8.3-61-11.39-92.76-13,.66-11.68,2.76-22.4,7.34-32.66,7.89-17.7,20-31.84,35.7-43,7-5,14-9.74,22-13.24,14.23-6.24,28.43-5.52,42.67-.69C123.59,16.46,128.59,18,132.4,21.55Z"/></g></g></svg>