<svg xmlns="http://www.w3.org/2000/svg" viewBox="0 0 163.94 217.85"><defs><style>.cls-1{fill:#fff;}</style></defs><g id="Layer_2" data-name="Layer 2"><g id="Layer_1-2" data-name="Layer 1"><path d="M95.6,217.85c-7.6-1.7-13.24-6.3-18.43-11.12A205.43,205.43,0,0,1,44,167.51c-7-10.88-12.66-22.45-18.23-34-4.82-10-7.87-20.83-11.7-31.3-.78-2.14-1.46-4.34-2.39-6.43C7.8,87.08,5.81,77.9,3.92,68.62,1.16,55.08.58,41.41,0,27c1.32-.73,2.88-2,4.65-2.47a22.43,22.43,0,0,1,6-.36,85.06,85.06,0,0,0,38.19-8.56C59.38,10.5,69.87,5.29,80.67,0A44.84,44.84,0,0,1,92.8,5.73c14.88,9.4,31.29,10.4,48.08,9.07A27,27,0,0,0,154.3,9.73c4.48-3.16,8.36-1.25,9.06,4.32a76.5,76.5,0,0,1,.54,12c-.47,13.72-.68,27.48-1.86,41.16-1.35,15.62-3.12,31.24-5.92,46.7a81.3,81.3,0,0,1-2.54,9.09c-4.42,14.49-7.59,29.37-13.71,43.31a48.2,48.2,0,0,1-4.41,8.31c-6.7,9.63-13.37,19.3-20.49,28.61C109.89,209.88,103.54,215.21,95.6,217.85ZM154.31,21a16.7,16.7,0,0,0-3.74.2c-7.23,2.13-14.61,2.36-22.09,2.65A72.47,72.47,0,0,1,88.27,13.56C85.6,12,82.71,10.8,80.57,9.75,69.84,14.54,59.93,19,50,23.37a93.48,93.48,0,0,1-33.23,7.91c-2.23.12-4.45.5-7,.8a44.93,44.93,0,0,0,0,5.36c1.29,9.93,3,19.82,3.91,29.78.67,7.25,2.92,14,5.28,20.71,1.9,5.39,3.88,10.76,5.59,16.21A268,268,0,0,0,47.7,156.69c5.85,10.25,13.21,19.43,20.89,28.3,6.18,7.13,12.81,13.91,20.53,19.47,2.54,1.83,4.9,4,8.7,4.13a36.61,36.61,0,0,0,4.63-3.24,56,56,0,0,0,5.84-6.28c2.84-3.59,5.42-7.39,8.2-11,8.22-10.73,15.76-21.8,19-35.23.47-1.94,1.29-3.79,1.92-5.69,5.51-16.61,9.93-33.47,12.1-50.9,1.19-9.66,2.83-19.26,2.71-29a49.4,49.4,0,0,1,.7-6.84,233.26,233.26,0,0,0,2.2-33.4A48.22,48.22,0,0,0,154.31,21Z"/><path class="cls-1" d="M154.31,21a48.22,48.22,0,0,1,.79,6,233.26,233.26,0,0,1-2.2,33.4,49.4,49.4,0,0,0-.7,6.84c.12,9.79-1.52,19.39-2.71,29.05-2.17,17.43-6.59,34.29-12.1,50.9-.63,1.9-1.45,3.75-1.92,5.69-3.22,13.43-10.76,24.5-19,35.23-2.78,3.63-5.36,7.43-8.2,11a56,56,0,0,1-5.84,6.28,36.61,36.61,0,0,1-4.63,3.24c-3.8-.09-6.16-2.3-8.7-4.13C81.4,198.9,74.77,192.12,68.59,185c-7.68-8.87-15-18.05-20.89-28.3a268,268,0,0,1-23.17-52.55c-1.71-5.45-3.69-10.82-5.59-16.21-2.36-6.75-4.61-13.46-5.28-20.71-.92-10-2.62-19.85-3.91-29.78a44.93,44.93,0,0,1,0-5.36c2.59-.3,4.81-.68,7-.8A93.48,93.48,0,0,0,50,23.37C59.93,19,69.84,14.54,80.57,9.75c2.14,1.05,5,2.24,7.7,3.81A72.47,72.47,0,0,0,128.48,23.8c7.48-.29,14.86-.52,22.09-2.65A16.7,16.7,0,0,1,154.31,21ZM147,55.07c0-2.71.25-7-.06-11.28-.41-5.76-2.63-7.7-8.27-7.26a69.06,69.06,0,0,0-11,1.88,40.38,40.38,0,0,1-17.84.05c-6.79-1.37-13.41-3.21-19.36-6.7-5.75-3.37-10.63-2.66-15.84,1.18A51.92,51.92,0,0,1,64,38.41a80.69,80.69,0,0,1-31.86,6c-7.84,0-10,.7-7.94,9.35,2.29,9.74,4.93,19.4,7.17,29.14,2.78,12.06,7.61,23.37,12.54,34.6,5.17,11.76,11.12,23.19,16.74,34.76,2.51,5.16,5.32,10.17,9.35,14.3,6.58,6.77,13.23,13.49,20.1,20a23.06,23.06,0,0,0,7.32,4.18c2.92,1.16,5.5.23,7.65-2.27,5.8-6.75,10.12-14.51,14-22.36,5.43-11,9.92-22.47,14.5-33.86,2.33-5.8,4.7-11.65,5.16-18.07a84.5,84.5,0,0,1,1.83-11.81C143.85,87.23,147.42,72.22,147,55.07Z"/><path d="M147,55.07c.47,17.15-3.1,32.16-6.37,47.21a84.5,84.5,0,0,0-1.83,11.81c-.46,6.42-2.83,12.27-5.16,18.07C129,143.55,124.52,155,119.09,166c-3.88,7.85-8.2,15.61-14,22.36-2.15,2.5-4.73,3.43-7.65,2.27a23.06,23.06,0,0,1-7.32-4.18c-6.87-6.47-13.52-13.19-20.1-20-4-4.13-6.84-9.14-9.35-14.3-5.62-11.57-11.57-23-16.74-34.76C39,106.22,34.17,94.91,31.39,82.85c-2.24-9.74-4.88-19.4-7.17-29.14-2-8.65.1-9.36,7.94-9.35a80.69,80.69,0,0,0,31.86-6,51.92,51.92,0,0,0,10.61-5.47c5.21-3.84,10.09-4.55,15.84-1.18,6,3.49,12.57,5.33,19.36,6.7a40.38,40.38,0,0,0,17.84-.05,69.06,69.06,0,0,1,11-1.88c5.64-.44,7.86,1.5,8.27,7.26C147.2,48.06,147,52.36,147,55.07ZM99.39,181.92c1.48-1.81,2.6-2.78,3.23-4,4-7.89,8.33-15.67,11.85-23.79,7.53-17.37,12.63-35.54,17.17-53.89A191.74,191.74,0,0,0,137.1,50c0-1.52-.8-3-1.37-5.06-9.43,2.83-18.52,2.52-27.7,2-9.54-.5-17.1-6.25-25.07-8.61-8.65,3.37-16.54,6.75-24.63,9.53S41.7,51.23,32.92,52c.48,2.54.73,4.51,1.23,6.42,2,7.48,3.72,15,6.08,22.37,3.51,10.88,7,21.81,11.36,32.35,4.27,10.28,9.44,20.2,14.64,30.06,3.32,6.29,6.7,12.81,11.35,18.07C84,168.52,91.6,174.67,99.39,181.92Z"/><path class="cls-1" d="M99.39,181.92c-7.79-7.25-15.42-13.4-21.81-20.63-4.65-5.26-8-11.78-11.35-18.07-5.2-9.86-10.37-19.78-14.64-30.06-4.38-10.54-7.85-21.47-11.36-32.35-2.36-7.35-4.12-14.89-6.08-22.37-.5-1.91-.75-3.88-1.23-6.42,8.78-.79,17.35-1.32,25.41-4.09s16-6.16,24.63-9.53c8,2.36,15.53,8.11,25.07,8.61,9.18.49,18.27.8,27.7-2,.57,2,1.34,3.54,1.37,5.06a191.74,191.74,0,0,1-5.46,50.19c-4.54,18.35-9.64,36.52-17.17,53.89-3.52,8.12-7.81,15.9-11.85,23.79C102,179.14,100.87,180.11,99.39,181.92Z"/></g></g></svg>