<svg xmlns="http://www.w3.org/2000/svg" viewBox="0 0 53.7 155.36"><defs><style>.cls-1{fill:#fff;}</style></defs><g id="Layer_2" data-name="Layer 2"><g id="Layer_1-2" data-name="Layer 1"><path d="M22.4,152.29l-2.18,1.61c-2.91,2.18-5.07,2-7.13-1A79.13,79.13,0,0,1,.56,123.13c-1.68-8.36.71-16.56,3.52-24.34,3.69-10.2,8.19-20.1,12.16-30.2,4.69-11.92,5.9-24.36,5.12-37.06-.46-7.59-2.45-14.62-7.3-20.67A22.81,22.81,0,0,1,12.22,8c-1.39-2.38-.34-4.36,1.06-6.3S16.74-.24,18.68.45A55,55,0,0,1,46.06,21.51c9.57,13.94,9.31,28.74,3.84,44.15-3.48,9.81-9.07,18.46-14.08,27.41C28.58,106,24.63,120,22.33,134.42,21.5,139.67,22.32,145.19,22.4,152.29ZM13,120.9a19.9,19.9,0,0,0,1.6-3.81c1.84-9.69,6-18.47,10.52-27.12,3.68-7.12,7.42-14.22,11.5-21.12,5.06-8.53,6.17-17.8,5.57-27.35-.45-7.25-2.46-14.11-7.66-19.59-.86-.9-1.62-2.45-3.26-1.3.5,5.19,1.27,10.28,1.43,15.39.36,12.11-1,24-5.81,35.28q-6.36,15-12.51,30.1A30.19,30.19,0,0,0,13,120.9Z"/><path class="cls-1" d="M13,120.9a30.19,30.19,0,0,1,1.38-19.52q6.14-15.09,12.51-30.1C31.72,60,33.09,48.11,32.73,36c-.16-5.11-.93-10.2-1.43-15.39,1.64-1.15,2.4.4,3.26,1.3,5.2,5.48,7.21,12.34,7.66,19.59.6,9.55-.51,18.82-5.57,27.35-4.08,6.9-7.82,14-11.5,21.12-4.47,8.65-8.68,17.43-10.52,27.12A19.9,19.9,0,0,1,13,120.9Z"/></g></g></svg>