<svg xmlns="http://www.w3.org/2000/svg" viewBox="0 0 182.37 191.49"><defs><style>.cls-1{fill:#fff;}</style></defs><g id="Layer_2" data-name="Layer 2"><g id="Layer_1-2" data-name="Layer 1"><path d="M106.3,142.26c-6.53,7.91-12.62,15.48-18.94,22.85-5.58,6.5-11.38,12.83-17.19,19.14A46.31,46.31,0,0,1,65,188.7c-8.16,6.56-19.32.74-20.45-9.22a35.69,35.69,0,0,1,.15-6.85,225.26,225.26,0,0,1,6-35.53c1.71-6.9,3-13.91,4.54-21a46.47,46.47,0,0,0-5.08-3.7c-7.31-3.91-14.7-7.7-22.07-11.51C21.74,97.56,15.33,94.38,9,91a30.83,30.83,0,0,1-5.65-3.89c-5-4.36-4.34-11,1.54-14.18A21.32,21.32,0,0,1,10.56,71c11.48-2.41,22.93-5,34.79-5,5.12,0,10.25-.78,15.64-1.23a25.34,25.34,0,0,0,2-4.64c2.59-12,5-24.1,7.58-36.12a141.67,141.67,0,0,1,4-14.9c1-2.92,2.77-5.57,4-7.91C79.73.88,80.26.66,80.81.53c7.5-1.74,12.77.77,16,7.94,3,6.79,6.59,13.34,9.48,20.18,3,7.1,5.46,14.44,8.19,21.65a35.36,35.36,0,0,0,1.73,3.33c2.6-.81,5.18-1.23,7.39-2.36,6.46-3.3,13.43-5,20.4-6.5a117,117,0,0,1,28.12-2.62c7.8.27,11.3,4.86,10.05,12.58-.85,5.29-3.77,9.54-7.28,13.37q-10.71,11.73-21.62,23.28c-3.9,4.15-7.93,8.19-12.19,12.58,1.85,3.05,3.68,5.86,5.31,8.79s3,6.16,4.7,9.17A233,233,0,0,1,167,158a38.69,38.69,0,0,1,1.87,9.18c.48,5.4-.67,6.68-6.35,8.14a22,22,0,0,1-2.29.26c-2.48-1.63-5.58-3.23-8.15-5.43a146,146,0,0,0-35.95-23.2C112.81,145.46,109.58,143.82,106.3,142.26Zm47.17,15.1c.09-1.62.29-2.23.11-2.69a348.13,348.13,0,0,0-18.15-37.94,32.3,32.3,0,0,0-4.08-5.49c-4.9-5.77-5-7.55-.6-13.29a37.78,37.78,0,0,1,2.78-3.27c9.76-10.09,19.57-20.11,29.27-30.25a80.53,80.53,0,0,0,6.45-8c.58-.81.58-2,.95-3.49a15.62,15.62,0,0,0-3.59-.7c-11.74.79-23.32,2.39-34.35,6.86-4.77,1.94-9.63,3.68-14.52,5.29-6.41,2.11-10.56.09-12.81-6-2.66-7.26-5.11-14.6-7.92-21.79C94.3,29.6,91.32,22.77,88.27,16c-.61-1.36-2.09-2.33-3.58-3.92a46.83,46.83,0,0,0-2.39,6.28c-1.63,7.54-3,15.12-4.61,22.67-1.45,7-2.88,14-4.52,21-.45,1.9-1.66,3.62-2.46,5.45s-2.39,2.94-4.37,3.77a62.26,62.26,0,0,1-21.67,4.69C35.75,76.3,27.05,78.1,18.38,80a21.08,21.08,0,0,0-3.66,1.68,29.44,29.44,0,0,0,3.71,2.78c5.36,2.71,10.8,5.28,16.17,8,8.19,4.1,16.3,8.35,24.52,12.39a9.35,9.35,0,0,1,5.6,8,29.25,29.25,0,0,1,0,7.65c-2.2,12.39-4.39,24.8-7.07,37.1a86.52,86.52,0,0,0-1.85,18.74c0,1.35-.24,2.92,2.17,4,5.91-3.47,10-9.4,14.61-14.64,4.93-5.57,9.53-11.45,14.23-17.22,4.48-5.52,8.92-11.07,13.24-16.44,5.53.34,10.31,1.1,14.75,3.3,7.17,3.55,14.46,6.93,21.43,10.84C142,149.45,147.28,153.32,153.47,157.36Z"/><path class="cls-1" d="M153.47,157.36c-6.19-4-11.51-7.91-17.21-11.11-7-3.91-14.26-7.29-21.43-10.84-4.44-2.2-9.22-3-14.75-3.3-4.32,5.37-8.76,10.92-13.24,16.44-4.7,5.77-9.3,11.65-14.23,17.22C68,171,63.91,176.94,58,180.41c-2.41-1.13-2.17-2.7-2.17-4a86.52,86.52,0,0,1,1.85-18.74c2.68-12.3,4.87-24.71,7.07-37.1a29.25,29.25,0,0,0,0-7.65,9.35,9.35,0,0,0-5.6-8c-8.22-4-16.33-8.29-24.52-12.39-5.37-2.7-10.81-5.27-16.17-8a29.44,29.44,0,0,1-3.71-2.78A21.08,21.08,0,0,1,18.38,80c8.67-1.92,17.37-3.72,26.29-4.13A62.26,62.26,0,0,0,66.34,71.2c2-.83,3.51-1.8,4.37-3.77s2-3.55,2.46-5.45c1.64-7,3.07-14,4.52-21,1.56-7.55,3-15.13,4.61-22.67a46.83,46.83,0,0,1,2.39-6.28c1.49,1.59,3,2.56,3.58,3.92,3,6.79,6,13.62,8.74,20.56,2.81,7.19,5.26,14.53,7.92,21.79,2.25,6.13,6.4,8.15,12.81,6,4.89-1.61,9.75-3.35,14.52-5.29,11-4.47,22.61-6.07,34.35-6.86a15.62,15.62,0,0,1,3.59.7c-.37,1.45-.37,2.68-.95,3.49a80.53,80.53,0,0,1-6.45,8c-9.7,10.14-19.51,20.16-29.27,30.25A37.78,37.78,0,0,0,130.75,98c-4.43,5.74-4.3,7.52.6,13.29a32.3,32.3,0,0,1,4.08,5.49,348.13,348.13,0,0,1,18.15,37.94C153.76,155.13,153.56,155.74,153.47,157.36Z"/></g></g></svg>