<svg xmlns="http://www.w3.org/2000/svg" viewBox="0 0 123.92 125.22"><defs><style>.cls-1{fill:#fff;}</style></defs><g id="Layer_2" data-name="Layer 2"><g id="Layer_1-2" data-name="Layer 1"><path d="M38.23,79.84c-3.82-1.61-7.15-3.27-10.65-4.43C18.78,72.48,11,67.54,3.3,62.64c-4.72-3-4.33-7.36.88-9.69,8.35-3.73,16.42-8.18,25.4-10.4a31.38,31.38,0,0,0,4.84-2.13Q38.74,26.05,43,11.73c.57-1.92,1.25-3.81,1.84-5.72C46.71,0,54.62-2.56,60,3.35c5.22,5.7,10.42,11.42,15.72,17.06,2.34,2.48,4.9,4.76,7.62,7.39,8-1.11,15.88-2.32,23.81-3.26a28.41,28.41,0,0,1,8.49.1c4.42.85,6,4.15,4.35,8.47a27.62,27.62,0,0,1-2.44,4.5c-3.7,6.13-7.47,12.21-11.12,18.37-1.44,2.43-2.61,5-3.87,7.46,7.43,9.28,15,17.83,21.32,27.05-4.85,8.25-7.46,9.41-15.45,8.1-10.14-1.66-20.32-3-30.86-4.6-3.19,3.88-6.3,7.58-9.32,11.35q-6.45,8-12.77,16.18a9.22,9.22,0,0,1-7.39,3.7c-2.65.09-4.59-1.12-5.09-3.64-.82-4.21-1.54-8.45-2-12.72C40,99.49,39.21,90.1,38.23,79.84ZM17.31,59.21a49.34,49.34,0,0,0,11.06,5.95c5.64,2,11.19,4.39,16.61,7,3.73,1.78,4.19,3.44,3.64,7.71a25.91,25.91,0,0,0-.42,6.72c.77,5.34,1.88,10.64,3,15.93A22.77,22.77,0,0,0,53,106.58c2.07-2.3,3.68-3.91,5.08-5.67,3.38-4.26,6.84-8.48,9.93-13,2.21-3.2,4.9-4.56,8.7-4.17,2,.21,4,0,6,.27,6.8.9,13.58,2,20.37,2.87a21.13,21.13,0,0,0,3.89-.31c-4-8.9-11-15-16.42-22,3-10.86,10.83-18.91,15.17-29.77C99.4,35.56,94,36,88.67,36.9c-5.82,1-10.84-.22-15.06-4.27-3.3-3.17-6.48-6.47-9.61-9.81s-6-6.69-9.29-9.26c-.89.39-1.32.45-1.37.62-2.6,8.76-5.59,17.43-7.57,26.33-1.13,5.07-3.42,8.3-8.15,10-4,1.43-8.13,2.78-12.18,4.22C22.78,55.63,19.89,56.19,17.31,59.21Z"/><path class="cls-1" d="M17.31,59.21c2.58-3,5.47-3.58,8.13-4.52,4-1.44,8.13-2.79,12.18-4.22,4.73-1.66,7-4.89,8.15-10,2-8.9,5-17.57,7.57-26.33,0-.17.48-.23,1.37-.62,3.31,2.57,6.22,6,9.29,9.26s6.31,6.64,9.61,9.81c4.22,4,9.24,5.28,15.06,4.27C94,36,99.4,35.56,105.73,34.81c-4.34,10.86-12.18,18.91-15.17,29.77C96,71.66,103,77.72,107,86.62a21.13,21.13,0,0,1-3.89.31C96.3,86,89.52,85,82.72,84.06c-2-.26-4-.06-6-.27-3.8-.39-6.49,1-8.7,4.17-3.09,4.47-6.55,8.69-9.93,13-1.4,1.76-3,3.37-5.08,5.67a22.77,22.77,0,0,1-1.83-4.09c-1.1-5.29-2.21-10.59-3-15.93a25.91,25.91,0,0,1,.42-6.72c.55-4.27.09-5.93-3.64-7.71-5.42-2.58-11-4.92-16.61-7A49.34,49.34,0,0,1,17.31,59.21Z"/></g></g></svg>