<svg xmlns="http://www.w3.org/2000/svg" viewBox="0 0 147.68 127.61"><defs><style>.cls-1{fill:#fff;}</style></defs><g id="Layer_2" data-name="Layer 2"><g id="Layer_1-2" data-name="Layer 1"><path d="M128.39,125.6c-24.34,3.08-48.4,1.69-72.44,1.76a163.42,163.42,0,0,1-31.53-3.48c-4.5-.87-9-1.84-13.42-2.94a52.41,52.41,0,0,1-7.34-2.39A5.61,5.61,0,0,1,0,112.36a27.65,27.65,0,0,1,1.24-5.83,27.8,27.8,0,0,1,2.26-4.62c8.52-15.23,17.15-30.4,25.56-45.7,5.55-10.09,12.61-19.1,19.67-28.08,6.72-8.54,14-16.65,21.11-24.85,3.56-4.09,6-4.28,10.26-1a96.78,96.78,0,0,1,23.75,26.89,515.63,515.63,0,0,1,27.17,52.6,46.92,46.92,0,0,0,3.47,6.86c6.52,9.65,9.64,20.68,12.83,31.65,1.13,3.87-.86,6.13-4.79,6C137.74,126.13,132.9,125.83,128.39,125.6ZM76.44,10.83c-3.11,3.71-6,7.25-9,10.67-13.83,15.75-26,32.62-35.75,51.26-5,9.63-10.81,18.86-16.15,28.33-1.8,3.2-3.28,6.57-5.12,10.29a55.08,55.08,0,0,0,6,2.24c15.66,3.68,31.48,6,47.62,5.94,12.89-.08,25.78,0,38.67,0a294.42,294.42,0,0,0,33.16-1.93c.22-.93.58-1.52.44-1.95-2.21-7.1-4.31-14.23-8.58-20.48a52,52,0,0,1-3.73-6.75c-5.45-11.35-10.7-22.8-16.29-34.08-6.1-12.32-12.89-24.23-21.57-35A42.18,42.18,0,0,0,76.44,10.83Z"/><path class="cls-1" d="M76.44,10.83a42.18,42.18,0,0,1,9.77,8.51c8.68,10.77,15.47,22.68,21.57,35,5.59,11.28,10.84,22.73,16.29,34.08a52,52,0,0,0,3.73,6.75c4.27,6.25,6.37,13.38,8.58,20.48.14.43-.22,1-.44,1.95a294.42,294.42,0,0,1-33.16,1.93c-12.89,0-25.78,0-38.67,0-16.14.1-32-2.26-47.62-5.94a55.08,55.08,0,0,1-6-2.24c1.84-3.72,3.32-7.09,5.12-10.29,5.34-9.47,11.13-18.7,16.15-28.33C41.46,54.12,53.65,37.25,67.48,21.5,70.47,18.08,73.33,14.54,76.44,10.83Z"/></g></g></svg>