<svg xmlns="http://www.w3.org/2000/svg" viewBox="0 0 111.59 146.36"><defs><style>.cls-1{fill:#fff;}</style></defs><g id="Layer_2" data-name="Layer 2"><g id="Layer_1-2" data-name="Layer 1"><path d="M16,62.84c-3-3.78-5.5-7.28-8.37-10.42C.05,44.05.32,25.87,6.92,17c3.63-4.9,7.69-9.7,13-12.32C33.84-2.25,48.83-2.29,61,10.12a28.33,28.33,0,0,1,7.31,15.31c1.36,8.17,2.24,16.46-1.16,24.49a10.89,10.89,0,0,0-.44,2.36c.48.52.78,1.1,1.25,1.32C78.33,58.55,85.66,66.94,92.6,75.75c4.07,5.16,8,10.44,12,15.68,3.13,4.12,5.8,8.48,7,14.3-3.91,7-7.32,14.8-15.45,19.26-3.68,2-6.65,5.32-10,7.91a38.47,38.47,0,0,1-13.79,6.7c-6.91,1.8-13.74,3.93-20.7,5.45a63.74,63.74,0,0,1-25.59,0c-6.18-1.16-12.41-2.13-18.53-3.58-7.32-1.74-7.62-2.2-7.46-10A96.22,96.22,0,0,1,1.19,117c2-11.53,4.36-23,6.69-34.48a34.64,34.64,0,0,1,2.28-6.45C12,71.85,13.86,67.71,16,62.84Zm8.18,5.94A53.47,53.47,0,0,0,17.26,87c-1,5.06-2.18,10.06-3,15.13-1.31,7.9-2.5,15.81-3.52,23.75-.31,2.46-.87,5.14,1.24,7.81,7.88,2.27,16.2,4.21,24.79,4.61A40,40,0,0,0,47,137.71c16.6-3.69,32.63-8.66,45.16-21.19,3.68-3.68,6.88-7.52,8.51-12.46a33.55,33.55,0,0,0-2.43-4.8C90.5,88.64,83.18,77.65,73.67,68.46c-2.64-2.56-5.86-4.52-8.79-6.79s-5.65-2-8.42.56c-5.37,4.87-11.9,6.6-19,6.55C33.17,68.76,28.89,68.78,24.21,68.78ZM40.89,8.37c-11.14.09-18.73,3.73-24.16,11.72-4.79,7-6.16,14.6-2.49,22.67A49,49,0,0,0,25.37,57.82a11,11,0,0,0,5.26,2.61c6.46,1.2,12.55.14,17.74-4.19C62,44.83,62.94,28.17,52.79,14.17,49.82,10.06,45.61,7.62,40.89,8.37Z"/><path class="cls-1" d="M24.21,68.78c4.68,0,9,0,13.25,0,7.1,0,13.63-1.68,19-6.55,2.77-2.51,5.43-2.86,8.42-.56S71,65.9,73.67,68.46c9.51,9.19,16.83,20.18,24.57,30.8a33.55,33.55,0,0,1,2.43,4.8c-1.63,4.94-4.83,8.78-8.51,12.46C79.63,129.05,63.6,134,47,137.71a40,40,0,0,1-10.26.56c-8.59-.4-16.91-2.34-24.79-4.61-2.11-2.67-1.55-5.35-1.24-7.81,1-7.94,2.21-15.85,3.52-23.75C15.08,97,16.29,92,17.26,87A53.47,53.47,0,0,1,24.21,68.78Z"/><path class="cls-1" d="M40.89,8.37c4.72-.75,8.93,1.69,11.9,5.8,10.15,14,9.25,30.66-4.42,42.07-5.19,4.33-11.28,5.39-17.74,4.19a11,11,0,0,1-5.26-2.61A49,49,0,0,1,14.24,42.76c-3.67-8.07-2.3-15.63,2.49-22.67C22.16,12.1,29.75,8.46,40.89,8.37Z"/></g></g></svg>