<svg width="16" height="16" viewBox="0 0 16 16" fill="none" xmlns="http://www.w3.org/2000/svg">
<rect width="16" height="16" fill="black"/>
<path d="M6.192 11L4.456 8.488L2.232 5.4H3.328L5.024 7.88L7.288 11H6.192ZM2.192 11L4.328 7.952L4.864 8.584L3.208 11H2.192ZM5.152 8.4L4.624 7.792L6.192 5.4H7.208L5.152 8.4ZM8.26056 11V5.4H10.4526C10.8526 5.4 11.2126 5.46667 11.5326 5.6C11.8579 5.73333 12.1352 5.92533 12.3646 6.176C12.5939 6.42667 12.7699 6.72267 12.8926 7.064C13.0152 7.40533 13.0766 7.784 13.0766 8.2C13.0766 8.616 13.0152 8.99733 12.8926 9.344C12.7699 9.68533 12.5939 9.98133 12.3646 10.232C12.1406 10.4773 11.8659 10.6667 11.5406 10.8C11.2152 10.9333 10.8526 11 10.4526 11H8.26056ZM9.12456 10.256L9.10056 10.168H10.4126C10.6952 10.168 10.9459 10.1227 11.1646 10.032C11.3886 9.94133 11.5752 9.81333 11.7246 9.648C11.8792 9.47733 11.9966 9.26933 12.0766 9.024C12.1566 8.77867 12.1966 8.504 12.1966 8.2C12.1966 7.896 12.1566 7.624 12.0766 7.384C11.9966 7.13867 11.8792 6.93067 11.7246 6.76C11.5699 6.58933 11.3832 6.45867 11.1646 6.368C10.9459 6.27733 10.6952 6.232 10.4126 6.232H9.07656L9.12456 6.16V10.256Z" fill="white"/>
</svg>
