<svg width="24" height="24" viewBox="0 0 24 24" fill="none" xmlns="http://www.w3.org/2000/svg">
<path fill-rule="evenodd" clip-rule="evenodd" d="M11.7994 3.54201C11.9238 3.48752 12.065 3.48598 12.1906 3.53774L21.1906 7.24788C21.3778 7.32508 21.5 7.50761 21.5 7.71014V16.5217C21.5 16.7234 21.3788 16.9053 21.1928 16.9831L12.8678 20.4614C12.7134 20.5258 12.5371 20.5089 12.3979 20.4162C12.2586 20.3234 12.175 20.1673 12.175 20V11.4203C12.175 11.2168 12.2984 11.0336 12.4869 10.957L18.8119 8.38911C19.0678 8.28524 19.3594 8.40844 19.4633 8.6643C19.5672 8.92016 19.4439 9.21179 19.1881 9.31566L13.175 11.7569V19.2492L20.5 16.1888V8.04484L12.0059 4.54326L3.5 8.26889V15.7307L9.79516 12.7409L4.41889 10.7341C4.16019 10.6375 4.02875 10.3495 4.12532 10.0908C4.22189 9.83206 4.5099 9.70063 4.76861 9.7972L11.2518 12.2173C11.4399 12.2875 11.5678 12.4635 11.5765 12.6642C11.5851 12.8648 11.4728 13.0512 11.2914 13.1374L3.2145 16.9734C3.0596 17.047 2.8778 17.036 2.73284 16.9444C2.58788 16.8528 2.5 16.6932 2.5 16.5217V7.94203C2.5 7.74346 2.61751 7.5637 2.7994 7.48403L11.7994 3.54201Z" fill="black"/>
</svg>
