<svg width="24" height="24" viewBox="0 0 24 24" fill="none" xmlns="http://www.w3.org/2000/svg">
<path fill-rule="evenodd" clip-rule="evenodd" d="M5.83595 5.96889L9.94906 12.2253C9.95339 12.2319 9.95757 12.2386 9.96158 12.2454C10.4742 13.1117 11.0933 13.5989 11.6998 13.7327C12.2836 13.8615 12.9778 13.6888 13.7243 12.9674C14.032 12.6701 14.1688 12.0962 14.0385 11.4327C13.9099 10.7779 13.5486 10.1968 13.0822 9.92629C12.8866 9.81284 12.7915 9.58224 12.8502 9.36388C12.909 9.14553 13.107 8.99377 13.3331 8.99377H20.5495C20.7603 8.99377 20.9485 9.126 21.0199 9.32433C21.7003 11.2135 22.1107 15.5608 18.9834 18.6334C17.1999 20.3858 15.329 21.0922 13.8961 21.3562C13.1816 21.4878 12.5774 21.5092 12.1481 21.4971C11.9333 21.491 11.7618 21.4766 11.6415 21.4632C11.5813 21.4564 11.5338 21.45 11.5001 21.445C11.4833 21.4425 11.4699 21.4403 11.46 21.4387L11.4478 21.4366L11.4438 21.4359L11.4423 21.4357C11.442 21.4356 11.4411 21.4354 11.5313 20.9436L11.4411 21.4354C11.2806 21.406 11.1445 21.3001 11.0766 21.1517C11.0087 21.0033 11.0175 20.8311 11.1001 20.6904L13.3789 16.8106C12.9754 16.908 12.5337 16.9682 12.0829 16.9731C10.8915 16.986 9.53269 16.6137 8.5675 15.4109C7.70397 14.3348 6.49567 12.4587 5.51461 10.8731C5.02136 10.0759 4.58105 9.34476 4.26409 8.81295C4.24659 8.78359 4.22947 8.75484 4.21273 8.72671C3.62062 10.0873 3.26468 12.0486 3.68004 14.0196C4.15618 16.279 5.65273 18.5873 9.07877 20.0228L10.2054 18.0306C10.3413 17.7903 10.6464 17.7056 10.8868 17.8415C11.1271 17.9775 11.2118 18.2825 11.0759 18.5229L9.734 20.8956C9.6122 21.111 9.35115 21.2049 9.12005 21.1165C5.10148 19.5784 3.26758 16.9119 2.70153 14.2258C2.14347 11.5777 2.82512 8.94856 3.75882 7.433C3.851 7.28337 4.01497 7.19312 4.19071 7.1953C4.36644 7.19747 4.52813 7.29175 4.61658 7.44362L4.65115 7.50279L4.75149 7.67373C4.83885 7.82218 4.96564 8.0368 5.12309 8.30098C5.43806 8.82944 5.8754 9.55567 6.36499 10.3469C7.34961 11.9383 8.52779 13.7636 9.34743 14.785C10.0654 15.6797 11.0875 15.9839 12.072 15.9731C13.0808 15.9622 13.9463 15.6213 14.2674 15.36C14.4551 15.2072 14.7251 15.2108 14.9087 15.3683C15.0923 15.5259 15.1367 15.7924 15.0142 16.001L12.3717 20.5C12.7245 20.4993 13.184 20.4705 13.715 20.3727C14.982 20.1393 16.662 19.5124 18.2825 17.9201C20.8565 15.3912 20.7173 11.819 20.1861 9.99377H14.5277C14.7708 10.3775 14.9357 10.8118 15.0198 11.2399C15.185 12.0811 15.0661 13.0614 14.4192 13.6865C13.4979 14.5768 12.4765 14.9281 11.4844 14.7093C10.5182 14.4961 9.70335 13.7683 9.1071 12.765L4.76958 6.1672C4.63887 5.96839 4.66637 5.70501 4.83533 5.53748C6.19898 4.18537 8.61695 2.73807 11.4165 2.52638C14.2525 2.31195 17.4187 3.37134 20.2047 6.93197C20.3225 7.08257 20.3442 7.2872 20.2604 7.4591C20.1766 7.63101 20.0021 7.74008 19.8109 7.74008L12.7648 7.74007C11.5959 7.74008 10.5484 7.95541 9.63033 8.76875C9.42363 8.95186 9.10763 8.93274 8.92452 8.72604C8.74141 8.51934 8.76053 8.20333 8.96723 8.02022C10.1391 6.9821 11.4666 6.74008 12.7648 6.74007L18.7375 6.74008C16.3335 4.08731 13.7599 3.35204 11.4919 3.52354C9.16364 3.69958 7.10434 4.83643 5.83595 5.96889Z" fill="black"/>
</svg>
