<svg width="24" height="24" viewBox="0 0 24 24" fill="none" xmlns="http://www.w3.org/2000/svg">
<path fill-rule="evenodd" clip-rule="evenodd" d="M11.3749 3.5C7.60748 3.5 4.5 6.76444 4.5 10.8593C4.5 14.9542 7.60748 18.2186 11.3749 18.2186C11.8092 18.2186 12.2338 18.1756 12.6452 18.0933C12.4391 17.3476 12.061 16.4389 11.495 15.7218C10.8159 14.8615 9.91661 14.3258 8.71323 14.5699C8.49548 14.614 8.27472 14.5092 8.17131 14.3126C8.0679 14.1159 8.10665 13.8746 8.26644 13.7203C8.88148 13.1261 9.97269 12.4613 11.2763 12.4054C12.6164 12.3479 14.0884 12.9377 15.4075 14.6919L15.4113 14.697L15.4113 14.697C15.674 15.0558 15.9554 15.5105 16.225 15.9534C16.2672 16.0227 16.3091 16.0918 16.3507 16.1603C16.5802 16.5382 16.8001 16.9003 17.0038 17.2049C17.09 17.3338 17.2559 17.5118 17.4754 17.6687C17.6941 17.8251 17.9353 17.9385 18.1652 17.9761C18.3844 18.0119 18.5932 17.9804 18.793 17.8461C19.002 17.7056 19.2476 17.4211 19.4646 16.8641C19.5447 16.6584 19.7503 16.5296 19.9704 16.5472C20.1905 16.5648 20.373 16.7247 20.4193 16.9406C20.5831 17.7028 20.5229 18.7998 19.9989 19.7353C19.4552 20.7061 18.4355 21.4573 16.801 21.4998C16.7896 21.5001 16.7782 21.5 16.7669 21.4996C16.4339 21.4855 15.946 21.4257 15.4578 21.2775C14.9792 21.1322 14.4378 20.8833 14.0679 20.4494C13.8888 20.2392 13.9139 19.9236 14.1241 19.7445C14.3342 19.5653 14.6498 19.5905 14.8289 19.8006C15.0185 20.023 15.3469 20.1988 15.7482 20.3206C16.1318 20.4371 16.5253 20.4871 16.7922 20.4997C18.0712 20.4616 18.7605 19.8999 19.1264 19.2466C19.2307 19.0605 19.3104 18.8634 19.3689 18.6637C19.3629 18.6679 19.3569 18.672 19.3509 18.676C18.9114 18.9714 18.4378 19.0339 18.0039 18.963C17.5807 18.8938 17.1978 18.6995 16.8938 18.4821C16.5904 18.2652 16.3347 18.0033 16.1726 17.7609C15.9555 17.4363 15.722 17.0518 15.4933 16.6749C15.4523 16.6074 15.4114 16.5401 15.3709 16.4734C15.0994 16.0275 14.8396 15.6093 14.6063 15.2904C13.4556 13.7614 12.2824 13.3631 11.3191 13.4045C10.9305 13.4212 10.5615 13.5101 10.227 13.6401C11.0784 13.884 11.7609 14.4446 12.2799 15.1023C13.0976 16.1382 13.5576 17.4615 13.7377 18.3654C13.7888 18.6219 13.6336 18.8744 13.3817 18.9447C12.7406 19.1235 12.0679 19.2186 11.3749 19.2186C6.99622 19.2186 3.5 15.4456 3.5 10.8593C3.5 6.27303 6.99622 2.5 11.3749 2.5C15.7536 2.5 19.2498 6.27303 19.2498 10.8593C19.2498 12.708 18.9791 14.0163 17.961 15.4462C17.8639 15.5826 17.7049 15.6614 17.5376 15.656C17.3702 15.6506 17.2167 15.5618 17.1285 15.4194C16.9483 15.1282 16.5901 14.6173 16.2001 14.1219C15.7998 13.6132 15.4101 13.178 15.1642 12.9942C15.0183 12.8851 14.9432 12.7052 14.9684 12.5247C15.1586 11.1617 15.0477 9.23641 14.4629 7.66639C13.8772 6.09388 12.8839 5.02039 11.3675 4.99804C10.4639 4.98472 9.79343 5.28138 9.28067 5.76131C8.75607 6.25232 8.37135 6.96004 8.1059 7.79665C7.57319 9.47559 7.56509 11.5326 7.72983 12.9181C7.76243 13.1924 7.56657 13.4411 7.29236 13.4737C7.01815 13.5063 6.76943 13.3104 6.73682 13.0362C6.56249 11.57 6.56165 9.3571 7.15273 7.49422C7.44918 6.55992 7.90549 5.67876 8.59732 5.03122C9.30099 4.3726 10.2224 3.98105 11.3823 3.99815C13.4989 4.02935 14.7497 5.5715 15.4 7.31733C16.0122 8.96084 16.1523 10.9114 15.9929 12.3866C16.3105 12.6791 16.6696 13.1014 16.9859 13.5034C17.1824 13.753 17.3731 14.0088 17.5409 14.2438C18.0834 13.2633 18.2498 12.278 18.2498 10.8593C18.2498 6.76444 15.1423 3.5 11.3749 3.5Z" fill="black"/>
</svg>
