<svg width="24" height="24" viewBox="0 0 24 24" fill="none" xmlns="http://www.w3.org/2000/svg">
<path fill-rule="evenodd" clip-rule="evenodd" d="M12.8522 2.60789C12.9862 2.50182 13.1652 2.4716 13.3266 2.52775C15.6075 3.32102 20.2709 6.30166 20.4867 11.9292C20.609 15.1211 19.8784 17.2361 18.7592 18.6647C17.6447 20.0873 16.1939 20.7652 15.0054 21.1785C13.7758 21.6062 11.653 21.6717 9.6479 20.9751C7.6181 20.2699 5.65717 18.7633 4.87147 16.0075C3.41664 10.9047 6.56775 7.51761 8.34364 6.45491C8.5806 6.31312 8.88764 6.39026 9.02943 6.62722C9.17123 6.86418 9.09409 7.17122 8.85713 7.31301C7.32412 8.23037 4.54353 11.21 5.83315 15.7333C6.51068 18.1097 8.18289 19.4075 9.97607 20.0305C11.7939 20.662 13.684 20.5794 14.6769 20.234C15.7876 19.8477 17.0288 19.2519 17.972 18.048C18.9104 16.8502 19.6031 14.9861 19.4874 11.9675C19.3141 7.44757 15.9127 4.78426 13.7007 3.75898C13.7047 4.7114 13.5684 5.91782 13.1609 7.10442C12.6241 8.66767 11.5997 10.2392 9.76271 11.1059C9.57754 11.1932 9.35783 11.1589 9.20817 11.0192C9.05669 10.8778 8.85225 10.6372 8.68666 10.3404C8.5224 10.046 8.37232 9.65303 8.39303 9.22086C8.40625 8.94504 8.64057 8.73215 8.91639 8.74537C9.19222 8.75859 9.4051 8.99291 9.39189 9.26873C9.3834 9.44582 9.44621 9.64938 9.55992 9.85317C9.59509 9.9162 9.63283 9.9751 9.67052 10.0286C10.9876 9.28527 11.7724 8.06882 12.2151 6.77964C12.6961 5.37906 12.7561 3.93581 12.665 3.0512C12.6475 2.88116 12.7181 2.71395 12.8522 2.60789Z" fill="black"/>
</svg>
