<svg width="24" height="24" viewBox="0 0 24 24" fill="none" xmlns="http://www.w3.org/2000/svg">
<path fill-rule="evenodd" clip-rule="evenodd" d="M3.79888 2.82004C3.87327 2.62719 4.05867 2.5 4.26537 2.5H21.0001C21.2762 2.5 21.5001 2.72386 21.5001 3V13.9328C21.5001 14.0685 21.4449 14.1984 21.3472 14.2926L16.3676 19.0952C16.2744 19.1851 16.1499 19.2354 16.0205 19.2354H12.6008L9.83855 21.394C9.68791 21.5117 9.48334 21.5332 9.31151 21.4494C9.13968 21.3656 9.03067 21.1912 9.03067 21V16.7911H5.89802C5.62188 16.7911 5.39802 16.5672 5.39802 16.2911V4.88978C5.39802 4.61364 5.62188 4.38978 5.89802 4.38978H19.1633C19.4395 4.38978 19.6633 4.61364 19.6633 4.88978V13.2065C19.6633 13.3442 19.6066 13.4758 19.5064 13.5702L16.6084 16.3034C16.5156 16.3909 16.3929 16.4397 16.2654 16.4397H12.0205C11.7443 16.4397 11.5205 16.2158 11.5205 15.9397C11.5205 15.6635 11.7443 15.4397 12.0205 15.4397H16.0668L18.6633 12.9908V5.38978H6.39802V15.7911H9.53067C9.80682 15.7911 10.0307 16.0149 10.0307 16.2911V19.9747L12.1208 18.3414C12.2087 18.2727 12.3171 18.2354 12.4286 18.2354H15.8186L20.5001 13.7203V3.5H4.60839L3.50006 6.37293V18.2354H7.24496C7.5211 18.2354 7.74496 18.4592 7.74496 18.7354V21C7.74496 21.2761 7.5211 21.5 7.24496 21.5C6.96882 21.5 6.74496 21.2761 6.74496 21V19.2354H3.00006C2.72392 19.2354 2.50006 19.0115 2.50006 18.7354V6.27983C2.50006 6.21829 2.51142 6.15728 2.53357 6.09986L3.79888 2.82004Z" fill="black"/>
</svg>
