<svg width="24" height="24" viewBox="0 0 24 24" fill="none" xmlns="http://www.w3.org/2000/svg">
<path fill-rule="evenodd" clip-rule="evenodd" d="M6.56977 3.98319C11.4745 1.40034 15.4136 2.64745 17.6113 4.27559C20.754 6.60379 23.2641 11.6985 19.9081 16.7047C18.1279 19.3603 15.6602 20.5048 13.2707 20.814C10.991 21.109 8.77689 20.6467 7.2571 20.0253L3.16667 21.4714C2.99483 21.5322 2.80354 21.4946 2.66744 21.3734C2.53134 21.2521 2.47199 21.0665 2.51255 20.8888L3.58961 16.1698C1.56385 10.8285 3.17615 7.32199 4.40887 6.15981C4.6098 5.97039 4.92624 5.97971 5.11567 6.18063C5.3051 6.38156 5.29578 6.69801 5.09485 6.88744C4.20226 7.72894 2.58518 10.8331 4.57691 15.9513C4.61318 16.0444 4.62067 16.1464 4.59842 16.2439L3.68955 20.2259L7.10609 19.018C7.22512 18.9759 7.35567 18.9805 7.47152 19.0306C8.85524 19.6302 10.9756 20.1027 13.1423 19.8223C15.2926 19.5441 17.4822 18.5276 19.0775 16.1479C22.0436 11.7232 19.8771 7.1987 17.016 5.07911C15.1234 3.67694 11.6734 2.51883 7.24396 4.76048C7.05664 5.73721 6.9557 7.21715 7.2392 8.78219C7.5447 10.4687 8.29049 12.2254 9.82483 13.5752C13.2397 16.5795 15.841 15.5907 16.782 14.6836L14.7699 13.516L13.6303 14.5334C13.4946 14.6545 13.3039 14.6924 13.1322 14.6324C12.5728 14.4367 11.7149 14.0381 10.9189 13.4647C10.1318 12.8976 9.34082 12.1135 9.01917 11.1263C8.96882 10.9718 8.99671 10.8025 9.09394 10.6723L9.86191 9.64384L8.96512 7.53645C8.69477 7.65884 8.38071 7.83968 8.17064 8.06249C7.9812 8.26341 7.66476 8.27272 7.46384 8.08328C7.26292 7.89385 7.25361 7.5774 7.44304 7.37648C7.96121 6.82691 8.76823 6.51382 9.10313 6.41985C9.3451 6.35195 9.59987 6.47422 9.69828 6.70547L10.8946 9.51683C10.9644 9.68063 10.9417 9.86914 10.8352 10.0118L10.0604 11.0494C10.3309 11.649 10.8672 12.195 11.5034 12.6533C12.0903 13.0761 12.7192 13.3933 13.1908 13.5853L14.3743 12.5286C14.5356 12.3846 14.7712 12.3606 14.9583 12.4692L17.7783 14.1056C18.0123 14.2415 18.0959 14.5389 17.9667 14.7767C17.0942 16.3833 13.4476 18.0943 9.16431 14.326C7.41719 12.789 6.58919 10.8042 6.25521 8.96043C5.92205 7.12123 6.07434 5.39387 6.31475 4.31668C6.34671 4.17348 6.43995 4.05155 6.56977 3.98319Z" fill="black"/>
</svg>
