<svg xmlns="http://www.w3.org/2000/svg" viewBox="0 0 136.42 129.14"><defs><style>.cls-1{fill:#fff;}</style></defs><g id="Layer_2" data-name="Layer 2"><g id="Layer_1-2" data-name="Layer 1"><path d="M3.67,103.46c2.1-2,3.35-3.59,5-4.56,3.68-2.17,7.53-4.08,11.37-6,6.15-3,12.4-5.86,18.51-9,13.75-7,27.43-14.15,41.14-21.25,1.19-.61,2.33-1.33,3.46-2-.44-.92-.54-1.63-.88-1.78C68.6,53.06,55,47.12,41.23,41.45c-9.51-3.92-19-8-29.39-9.25a17.26,17.26,0,0,1-5.69-1.84c-4.76-2.51-8-7.08-5-13.59C3.62,11.63,5.72,6.33,7.88,1.32a17.07,17.07,0,0,1,13.78.28c6,2.63,12.11,5.19,18,8.11C52,15.79,64.32,21.82,76.39,28.37q15.49,8.4,31.69,15.26c5.26,2.23,10.32,4.94,15.48,7.42,2.56,1.24,5.18,2.4,7.68,3.75,1.67.91,3.18,2.1,5.18,3.45-2,3.38-3.7,6.23-6.47,8.35-13.84,10.6-27.7,21.23-42.85,29.91C77.43,102.05,67.4,107,57.51,112.1q-12.54,6.54-25.14,13a73.73,73.73,0,0,1-7,3.29c-4,1.57-6.75.84-8.85-2.66C12.29,118.61,8.25,111.4,3.67,103.46ZM9,23.33c2.9.79,4.78,1.44,6.7,1.79,11.91,2.18,23.13,6.45,34.21,11.13q20.14,8.51,40.26,17.12c3.9,1.68,7.7,3.57,10.42,7.64-1.29,1.42-2.2,2.92-3.52,3.76a83.13,83.13,0,0,1-7.62,4C77.18,74.8,64.79,80.69,52.62,87c-10.15,5.26-20,11.06-30.77,15.1-2.35.88-4.84,1.84-6.14,5,1.91,4.39,3.95,9,8.33,12.28,2.73-1.38,5.3-2.61,7.81-4,13.6-7.3,27.15-14.69,40.79-21.92a257.62,257.62,0,0,0,46.89-31.53,22.25,22.25,0,0,0,2.23-2.61c-.85-.76-1.38-1.52-2.09-1.81A589.81,589.81,0,0,1,62.48,30c-13-7.11-26.68-13.13-40.13-19.48-2.19-1-4.49-2.8-7.78-1.08-.86,1.9-2,4.19-2.93,6.54C10.79,18.09,10.11,20.23,9,23.33Z"/><path class="cls-1" d="M9,23.33c1.1-3.1,1.78-5.24,2.63-7.31,1-2.35,2.07-4.64,2.93-6.54,3.29-1.72,5.59,0,7.78,1.08C35.8,16.91,49.44,22.93,62.48,30a589.81,589.81,0,0,0,57.19,27.48c.71.29,1.24,1,2.09,1.81a22.25,22.25,0,0,1-2.23,2.61A257.62,257.62,0,0,1,72.64,93.47C59,100.7,45.45,108.09,31.85,115.39c-2.51,1.34-5.08,2.57-7.81,4-4.38-3.3-6.42-7.89-8.33-12.28,1.3-3.13,3.79-4.09,6.14-5,10.75-4,20.62-9.84,30.77-15.1,12.17-6.3,24.56-12.19,36.84-18.27a83.13,83.13,0,0,0,7.62-4c1.32-.84,2.23-2.34,3.52-3.76-2.72-4.07-6.52-6-10.42-7.64Q70.07,44.76,49.92,36.25c-11.08-4.68-22.3-8.95-34.21-11.13C13.79,24.77,11.91,24.12,9,23.33Z"/></g></g></svg>