<svg xmlns="http://www.w3.org/2000/svg" viewBox="0 0 129.06 150.26"><defs><style>.cls-1{fill:#fff;}</style></defs><g id="Layer_2" data-name="Layer 2"><g id="Layer_1-2" data-name="Layer 1"><path d="M68.89,106,30.12,150.26c-4.4-1.76-8.24-4.75-12-7.63A150.09,150.09,0,0,1,3.49,129.42c-4.41-4.44-4.64-7.86-.69-12.93,7.57-9.7,15.5-19.11,23.2-28.71,2.84-3.53,5.47-7.24,8.35-11.08-4.3-4.91-8-9.56-12.92-13.11a81.86,81.86,0,0,1-7.1-6.22,6.08,6.08,0,0,1-1.76-6.59c3.31-2.88,7.81-4,12-5.84,8.64-3.81,17.28-7.63,25.94-11.39C60.17,29.33,70,25.27,79.63,21q15.69-7,31.23-14.28c3.86-1.81,7.44-4.24,11.29-6.07,3.44-1.63,6.47.06,6.74,3.83a36.9,36.9,0,0,1-.39,10.24,303.52,303.52,0,0,1-12.65,43.64c-4.14,11-7.76,22.18-10.93,33.47-1.84,6.56-2.35,13.49-3.43,20.26-.18,1.13-.25,2.28-.32,3.42-.43,6.6-5.38,8.85-10.8,5.41-4.83-3.06-9.55-6.28-14.27-9.51C73.78,109.79,71.6,108,68.89,106ZM23.79,55c2.07,1.83,3.34,2.91,4.56,4.05,4.38,4.1,8.81,8.16,13.09,12.36,2.51,2.47,2.83,4,1.13,6.87a128.77,128.77,0,0,1-8,12.12c-7.07,9.34-14.39,18.49-21.52,27.8a51.53,51.53,0,0,0-3.42,6,57,57,0,0,0,17.74,15.21c7.83-8.37,15.56-16.37,23-24.65,4.19-4.68,7.79-9.87,11.8-14.72,2.62-3.18,4.7-3.83,8.25-2.14a31.27,31.27,0,0,1,7,4.79A57.78,57.78,0,0,0,91.16,112c.58-2.29,1.21-4.14,1.51-6C94.22,96,97.15,86.49,100.4,77,106,60.51,113,44.46,117.25,27.51a75.3,75.3,0,0,0,2.81-15.86C88.44,27.53,55.71,38.76,23.79,55Z"/><path class="cls-1" d="M23.79,55c31.92-16.28,64.65-27.51,96.27-43.39a75.3,75.3,0,0,1-2.81,15.86C113,44.46,106,60.51,100.4,77c-3.25,9.5-6.18,19-7.73,28.94-.3,1.91-.93,3.76-1.51,6a57.78,57.78,0,0,1-13.76-9.29,31.27,31.27,0,0,0-7-4.79c-3.55-1.69-5.63-1-8.25,2.14-4,4.85-7.61,10-11.8,14.72C42.93,123,35.2,131,27.37,139.41A57,57,0,0,1,9.63,124.2a51.53,51.53,0,0,1,3.42-6c7.13-9.31,14.45-18.46,21.52-27.8a128.77,128.77,0,0,0,8-12.12c1.7-2.85,1.38-4.4-1.13-6.87-4.28-4.2-8.71-8.26-13.09-12.36C27.13,58,25.86,56.87,23.79,55Z"/></g></g></svg>