<svg xmlns="http://www.w3.org/2000/svg" viewBox="0 0 119.69 256.04"><defs><style>.cls-1{fill:#fff;}</style></defs><g id="Layer_2" data-name="Layer 2"><g id="Layer_1-2" data-name="Layer 1"><path d="M68.29,52.67c9.12,1.35,17,2.53,24.9,3.65,3.38.48,6.73.55,9.68,2.91,3.44,2.74,4.63,4.57,3.57,8.65-3.81,14.68-7.23,29.48-12.65,43.7-1.84,4.8-3.56,9.65-5.48,14.89,1.62.71,3.08,1.5,4.64,2,7.06,2.33,14.23,4.37,21.2,6.94,5.58,2.06,6.48,4.3,4.73,10-2.86,9.27-5.4,18.69-8.89,27.73A239.29,239.29,0,0,1,87.72,217.6c-4.82,7.43-9.58,14.92-14.78,22.09-3.52,4.84-7.76,9.15-11.65,13.72-1.86,2.17-4.24,2.7-7,2.62-4.32-.13-6.36-1.79-6.44-6.25a102.08,102.08,0,0,1,.57-15.45c2.45-18.15,3.5-36.51,7.9-54.37a12.7,12.7,0,0,0,0-2.32,17.41,17.41,0,0,0-4-2.18c-5-1.34-10-2.33-15-3.6-9.07-2.32-11.17-5.27-9.11-14,2.83-12,6-23.89,9.24-35.75,1.52-5.5,3.71-10.82,5.56-16.23a32.05,32.05,0,0,0,1.66-5.74,2.91,2.91,0,0,0-2.25-3.24,27,27,0,0,0-4.24-.56c-2.56-.25-5.15-.3-7.67-.74a31.24,31.24,0,0,0-9.28-.46c-5.77.7-11.34-.86-16.6-3.42-3.16-1.55-5-3.85-4.69-7.43.46-5.41.52-10.93,1.71-16.19,4.05-17.86,7.89-35.8,14.74-52.89,1.28-3.18,3-6.22,3.88-9.5.91-3.47,3.13-4.49,6.2-4.82a174.2,174.2,0,0,1,43.7,1.18,27.87,27.87,0,0,1,5,1.23c4.67,1.58,5.58,3.21,5.58,8.27,0,6.51-2.66,12.22-5,18.05-.74,1.85-1.71,3.61-2.3,5.49C71.85,40.52,70.28,46,68.29,52.67ZM58.4,238.25l1.55.8a34.62,34.62,0,0,0,3.28-3.59c3.08-4.49,5.93-9.13,9-13.58,13.54-19.39,23.58-40.55,31.76-62.63,2-5.27,3.58-10.73,3.46-16.51-7.72-3.55-15.2-6.18-23.48-5.78-3.82.19-7.45-.34-9.57-4.63.57-1.49,1.07-3.13,1.79-4.66C84.37,110.2,89.47,91.74,94,73.08c.52-2.17,1.54-4.38-.11-7A37,37,0,0,0,89.22,65C80.15,63.9,71.06,62.88,62,61.84c-5.71-.66-7-2.39-5.58-7.88Q57,51.46,57.86,49q4.94-14.16,9.92-28.31c.94-2.64,2.54-5.15,1-8.71a141.83,141.83,0,0,0-39-1.55c-1.45,2.87-3.06,5.31-3.95,8C19.33,38,13.67,57.78,10.5,78.2c-.34,2.18-.89,4.55,1.4,6.89,5.17,1.37,10.94.47,16.59,1,8.56.73,17.12,1.36,25.66,2.21,3.37.33,6,1.92,6.27,5.79-11.07,21.29-17.29,44.07-22.2,67.84,1.94,1,3.57,2.1,5.38,2.59,5,1.33,10,2.36,15,3.56,8.75,2.09,9.69,3.6,8,12.57-1.5,8.16-3.05,16.31-4.43,24.48-.77,4.51-1.33,9.06-1.84,13.61C59.67,225.21,59.06,231.73,58.4,238.25Z"/><path class="cls-1" d="M58.4,238.25c.66-6.52,1.27-13,2-19.55.51-4.55,1.07-9.1,1.84-13.61,1.38-8.17,2.93-16.32,4.43-24.48,1.66-9,.72-10.48-8-12.57-5-1.2-10.07-2.23-15-3.56-1.81-.49-3.44-1.64-5.38-2.59,4.91-23.77,11.13-46.55,22.2-67.84-.32-3.87-2.9-5.46-6.27-5.79-8.54-.85-17.1-1.48-25.66-2.21-5.65-.49-11.42.41-16.59-1-2.29-2.34-1.74-4.71-1.4-6.89C13.67,57.78,19.33,38,25.85,18.43c.89-2.67,2.5-5.11,3.95-8a141.83,141.83,0,0,1,39,1.55c1.55,3.56,0,6.07-1,8.71q-5,14.13-9.92,28.31Q57,51.45,56.4,54C55,59.45,56.27,61.18,62,61.84c9.08,1,18.17,2.06,27.24,3.16a37,37,0,0,1,4.62,1.1c1.65,2.6.63,4.81.11,7-4.48,18.66-9.58,37.12-17.72,54.59-.72,1.53-1.22,3.17-1.79,4.66,2.12,4.29,5.75,4.82,9.57,4.63,8.28-.4,15.76,2.23,23.48,5.78.12,5.78-1.5,11.24-3.46,16.51-8.18,22.08-18.22,43.24-31.76,62.63-3.11,4.45-6,9.09-9,13.58A34.62,34.62,0,0,1,60,239.05Z"/></g></g></svg>