<svg xmlns="http://www.w3.org/2000/svg" viewBox="0 0 174.33 167.07"><defs><style>.cls-1{fill:#fff;}</style></defs><g id="Layer_2" data-name="Layer 2"><g id="Layer_1-2" data-name="Layer 1"><path d="M0,95.85c-.31-14,3.41-27.21,7.46-40.36a28.14,28.14,0,0,1,3.72-7.68c8.56-12.27,18.42-23.46,31.18-31.43C50.29,11.44,58,5.66,67.68,4.14,71.59,3.53,75.36,2,79.26,1.21c14.8-2.94,28.8-.23,42.88,4.9,20.64,7.51,36.22,20.58,46.57,39.64,8.7,16,6.82,32.3-2.38,47.41-5.17,8.47-13.7,13.69-23,17.27a87.18,87.18,0,0,1-24.25,5.35c-6.85.59-13.7,1.09-20.55,1.62-6.63.52-13,1.94-18.84,5.31a23.82,23.82,0,0,0-9.6,9.54c-4.26,8.18-2.42,15.52,2.74,22.4,1.7,2.27,2.45,4.33,1.41,7.07a6.6,6.6,0,0,1-4,4.15,15.93,15.93,0,0,1-9.26.86C42.18,162.72,26,154,13.86,139,5.41,128.51.15,116.5,0,102.72,0,100.43,0,98.14,0,95.85Zm61.57,60.66c-.76-1.88-1-2.69-1.41-3.45-7.24-14.4-2-31.59,12.12-39.11A55.3,55.3,0,0,1,96,107.11a244.87,244.87,0,0,0,24.79-2.37,72.35,72.35,0,0,0,15.72-4.17c15.24-6,25.75-15.9,26-33.63,0-1.71.21-3.43.19-5.15a28.34,28.34,0,0,0-3.79-13.91,75.81,75.81,0,0,0-28-28.4c-6.74-4-14-6.44-21.47-8.53C94.36,6.74,79.79,9.06,65.83,15A91.94,91.94,0,0,0,33.94,37.87c-6.4,7-12.41,14.25-15.34,23.56-4,12.62-6.94,25.32-6.75,38.73a62,62,0,0,0,5.06,24.17A54.66,54.66,0,0,0,33.15,145C41.21,151.57,50.66,154.22,61.59,156.51Z"/><path class="cls-1" d="M61.59,156.51c-10.93-2.29-20.38-4.94-28.44-11.47a54.66,54.66,0,0,1-16.24-20.71,62,62,0,0,1-5.06-24.17c-.19-13.41,2.77-26.11,6.75-38.73,2.93-9.31,8.94-16.58,15.34-23.56A91.94,91.94,0,0,1,65.83,15c14-5.9,28.53-8.22,43.61-4,7.48,2.09,14.73,4.55,21.47,8.53a75.81,75.81,0,0,1,28,28.4,28.34,28.34,0,0,1,3.79,13.91c0,1.72-.17,3.44-.19,5.15-.21,17.73-10.72,27.63-26,33.63a72.35,72.35,0,0,1-15.72,4.17A244.87,244.87,0,0,1,96,107.11,55.3,55.3,0,0,0,72.3,114c-14.14,7.52-19.36,24.71-12.12,39.11C60.56,153.82,60.83,154.63,61.59,156.51Z"/></g></g></svg>