<svg xmlns="http://www.w3.org/2000/svg" viewBox="0 0 119.44 179.14"><defs><style>.cls-1{fill:#fff;}</style></defs><g id="Layer_2" data-name="Layer 2"><g id="Layer_1-2" data-name="Layer 1"><path d="M119.44,142.15c-8.16,10.1-16.34,20.4-24.73,30.53-5.39,6.51-10.86,7.92-19.06,5-5.12-1.8-10.11-4-15.12-6.14-8.43-3.57-16.77-7.38-25.27-10.78-5.57-2.23-11.36-3.9-17-5.85-1.06-.37-2.08-.85-3.66-1.51-1.14-4.82-2.62-9.74-3.45-14.77-2.71-16.39-4-32.94-5.32-49.49C5,79.76,3.8,70.38,2.52,61A104.55,104.55,0,0,0,0,50.32c7.13-8.67,13.69-16.54,20.12-24.51,5.21-6.46,10.24-13.06,15.4-19.55a32.7,32.7,0,0,1,4-4.44,6.5,6.5,0,0,1,8-.83,46.74,46.74,0,0,1,4.25,2.89C59.85,9.77,67.89,15.71,76,21.54c3.72,2.67,7.67,5,11.38,7.69,4.85,3.51,9.7,7.05,14.27,10.91a9.56,9.56,0,0,1,2.73,5.18C106,52.87,108.65,60.19,109.1,68a42.88,42.88,0,0,0,1,5.91c3.57,17.41,4.8,35.13,7,52.73C117.62,131.43,118.51,136.21,119.44,142.15ZM65.3,121.89C64,102.31,60.78,83.53,57,64.93a16,16,0,0,0-2.65-1.13c-9-1.86-17.89-3.75-26.87-5.48a56.87,56.87,0,0,0-9.37-1.08c-1.84-.05-3.71.72-5.58,1.12,0,2.51-.18,4.51,0,6.46,1.6,14.47,3.91,28.9,4.74,43.41.63,10.9,2.47,21.52,4.25,32.21.08.46.72.82,1.57,1.72,2.08-.66,4.5-1.33,6.84-2.2,11.29-4.21,21.81-10,32.43-15.61A15.88,15.88,0,0,0,65.3,121.89ZM106.11,131a9.94,9.94,0,0,0,.61-2.67c-.72-8.28-1.24-16.58-2.35-24.81-1.83-13.61-4-27.17-6.14-40.75a80,80,0,0,0-1.76-8.41,33,33,0,0,0-2.14-4.71c-4.75,2.47-9.19,4.47-13.29,7-4.33,2.68-9.57,3.82-13.73,8.07.33,3.41.16,7.24,1.16,10.72,3.13,10.81,4,21.93,5.43,33,.35,2.79,1,5.54,1.53,8,5.41,2.66,10.22,5.14,15.12,7.42C95.65,126.25,100.15,130,106.11,131ZM53.28,53c-.71-2.73-1.28-5.19-2-7.62S49.63,40.49,49,38s-1-5-1.51-7.55-1-5.05-1.73-7.52,0-5.28-3.21-7.12C34.08,25.32,26,35.23,18.23,45.4c-.38.49-.05,1.52-.05,2.31,5.89,1.09,11.49,2.23,17.12,3.15C41.1,51.81,46.69,54.68,53.28,53ZM32.89,149.56c14,6.81,26.85,10.61,40.31,14.88-1-10.72-1.93-20.57-4.86-31C56.75,138.22,46.16,144.29,32.89,149.56ZM78.21,130.2c1.17,6.45,2.06,12.38,3.37,18.22s.83,11.84,3.83,17.83c9.25-6.42,13.46-16,19.94-24.1-7.72-4.05-15-7.9-22.33-11.7a7.91,7.91,0,0,0-2.46-.7A9.7,9.7,0,0,0,78.21,130.2ZM56,20c.57,10.77,4.5,25.41,8.91,33.41a39.4,39.4,0,0,0,10.4-5.44c3.12-2.15,7.31-2.94,9.66-6.7C76.09,34.42,67.58,27.88,59,21.38A19.8,19.8,0,0,0,56,20Z"/><path class="cls-1" d="M65.3,121.89a15.88,15.88,0,0,1-2.88,2.46C51.8,130,41.28,135.75,30,140c-2.34.87-4.76,1.54-6.84,2.2-.85-.9-1.49-1.26-1.57-1.72-1.78-10.69-3.62-21.31-4.25-32.21-.83-14.51-3.14-28.94-4.74-43.41-.21-1.95,0-3.95,0-6.46,1.87-.4,3.74-1.17,5.58-1.12a56.87,56.87,0,0,1,9.37,1.08c9,1.73,17.92,3.62,26.87,5.48A16,16,0,0,1,57,64.93C60.78,83.53,64,102.31,65.3,121.89Z"/><path class="cls-1" d="M106.11,131c-6-1-10.46-4.79-15.56-7.16-4.9-2.28-9.71-4.76-15.12-7.42-.48-2.43-1.18-5.18-1.53-8-1.39-11.07-2.3-22.19-5.43-33-1-3.48-.83-7.31-1.16-10.72,4.16-4.25,9.4-5.39,13.73-8.07,4.1-2.54,8.54-4.54,13.29-7a33,33,0,0,1,2.14,4.71,80,80,0,0,1,1.76,8.41c2.11,13.58,4.31,27.14,6.14,40.75,1.11,8.23,1.63,16.53,2.35,24.81A9.94,9.94,0,0,1,106.11,131Z"/><path class="cls-1" d="M53.28,53c-6.59,1.7-12.18-1.17-18-2.12-5.63-.92-11.23-2.06-17.12-3.15,0-.79-.33-1.82.05-2.31C26,35.23,34.08,25.32,42.55,15.81c3.17,1.84,2.55,4.76,3.21,7.12s1.2,5,1.73,7.52S48.36,35.52,49,38s1.58,4.9,2.3,7.36S52.57,50.25,53.28,53Z"/><path class="cls-1" d="M32.89,149.56c13.27-5.27,23.86-11.34,35.45-16.12,2.93,10.43,3.81,20.28,4.86,31C59.74,160.17,46.9,156.37,32.89,149.56Z"/><path class="cls-1" d="M78.21,130.2a9.7,9.7,0,0,1,2.35-.45,7.91,7.91,0,0,1,2.46.7c7.32,3.8,14.61,7.65,22.33,11.7-6.48,8.11-10.69,17.68-19.94,24.1-3-6-2.56-12.12-3.83-17.83S79.38,136.65,78.21,130.2Z"/><path class="cls-1" d="M56,20a19.8,19.8,0,0,1,3,1.41c8.54,6.5,17.05,13,25.94,19.86-2.35,3.76-6.54,4.55-9.66,6.7a39.4,39.4,0,0,1-10.4,5.44C60.51,45.38,56.58,30.74,56,20Z"/></g></g></svg>