<svg xmlns="http://www.w3.org/2000/svg" viewBox="0 0 137.53 194.97"><defs><style>.cls-1{fill:#fff;}</style></defs><g id="Layer_2" data-name="Layer 2"><g id="Layer_1-2" data-name="Layer 1"><path d="M93,.12c6.3-.23,11.19,1.82,14.82,6.35A62.94,62.94,0,0,1,119.5,31c.64,2.56-1,4.29-3.13,5.54q-6.69,3.86-13.32,7.82-4.78,2.85-9.49,5.84C86.1,55,78.42,59.44,71.28,64.66,58.14,74.26,43.72,82.1,31.81,93.39a46.45,46.45,0,0,1-5.51,4.08c-6.95,4.84-14.38,5.06-22,2.13-3.41-1.3-4.92-4-4-7.54a20.61,20.61,0,0,1,3.19-6.94C15.28,69.34,26.36,53,40.59,39.1c9.63-9.4,19.22-18.81,29.7-27.24,4-3.22,8.34-6,12.6-8.92C86.05.79,89.54-.39,93,.12ZM14.44,92.05c6.61-3.59,10.78-7.47,15.24-11,5.63-4.41,11.2-8.91,17.12-12.89C62,58,77.36,48.05,92.63,38c4.46-3,8.82-6.06,13.79-9.5-3.87-6.85-4.52-15.1-12.3-19.19C84.7,13,77.28,19.37,70.05,25.74,61.26,33.46,53.14,42,44.88,50.26,33.54,61.67,24.79,75.12,15.61,88.21,15.19,88.81,15.15,89.67,14.44,92.05Z"/><path d="M116.75,67.56c3.22.24,6.09.32,8.92.7,6,.81,9.74,4.68,10.41,10.72.57,5.11.91,10.25,1.39,15.36.38,4.13-1.08,7.88-2.38,11.63-.72,2.07-2.62,2.94-4.78,3.06-3.42.18-6.86.31-10.28.51q-19.69,1.11-39.39,2.26a38.09,38.09,0,0,0-5.1.68c-13.18,2.57-26.34,5.31-39.56,7.68a72.92,72.92,0,0,1-12.81.69c-4.6,0-8-2.73-11.3-5.57-2-1.77-2.08-4.34.1-5.86a88.12,88.12,0,0,1,10.91-6.79C35.18,96.55,47.35,90.11,60.05,85c13.22-5.33,26.23-11.39,40.18-14.77,2.22-.54,4.39-1.32,6.63-1.65C110.25,68.07,113.68,67.86,116.75,67.56Zm7,10.43c-4.09,0-7.22-.25-10.3.05-8,.77-15.48,3.93-23,6.73-13.64,5.11-27.17,10.52-40.75,15.81-5.33,2.07-10.1,5.1-15.61,9.06,3.64-.35,6.19-.51,8.72-.88,2-.28,3.9-.86,5.86-1.26,9.52-1.92,19-4.46,28.59-5.58,12.76-1.48,25.66-1.86,38.5-2.69,3.1-.2,6.2-.35,9.41-.52C126.46,91.5,124.2,85.21,123.74,78ZM29.27,110.77l-.49.21.52.16Z"/><path d="M30.77,127.46c5.25.73,11,1,16.51,2.39,11.89,3,23.78,6.1,35.4,10C91,142.61,99,146.53,107,150.33c3.57,1.7,6.77,4.24,10,6.6a5.45,5.45,0,0,1,2.18,6.07,83.49,83.49,0,0,1-3,9.76c-1.7,4.22-3.69,8.33-5.75,12.4a47.33,47.33,0,0,1-4.06,6.49,8.23,8.23,0,0,1-6.67,3.27c-6.18.31-11.69-.79-16.59-5.14C77.34,184.67,71.17,180,65,175.4c-11-8.14-22.24-16-33.31-24.13-3.91-2.85-7.63-6-11.48-8.92-2.6-2-3.91-4.87-5.18-7.72-1.08-2.43-.11-4.65,2.62-5.22C21.77,128.54,26,128.14,30.77,127.46Zm.09,10.63c8.83,6.1,16.1,11,23.27,16.09s14.53,10.12,21.44,15.64,13.94,10.76,21.51,16.29c5.18-7.36,7.65-15.07,9.72-22.78C93.27,152.37,47.88,136.91,30.86,138.09Z"/><path class="cls-1" d="M14.44,92.05c.71-2.38.75-3.24,1.17-3.84,9.18-13.09,17.93-26.54,29.27-37.95C53.14,42,61.26,33.46,70.05,25.74,77.28,19.37,84.7,13,94.12,9.27c7.78,4.09,8.43,12.34,12.3,19.19-5,3.44-9.33,6.55-13.79,9.5C77.36,48.05,62,58,46.8,68.19c-5.92,4-11.49,8.48-17.12,12.89C25.22,84.58,21.05,88.46,14.44,92.05Z"/><path class="cls-1" d="M123.74,78c.46,7.22,2.72,13.51,1.47,20.72-3.21.17-6.31.32-9.41.52-12.84.83-25.74,1.21-38.5,2.69-9.62,1.12-19.07,3.66-28.59,5.58-2,.4-3.89,1-5.86,1.26-2.53.37-5.08.53-8.72.88,5.51-4,10.28-7,15.61-9.06,13.58-5.29,27.11-10.7,40.75-15.81,7.47-2.8,14.9-6,23-6.73C116.52,77.74,119.65,78,123.74,78Z"/><polygon class="cls-1" points="29.27 110.77 29.3 111.14 28.78 110.98 29.27 110.77"/><path class="cls-1" d="M30.86,138.09c17-1.18,62.41,14.28,75.94,25.24-2.07,7.71-4.54,15.42-9.72,22.78-7.57-5.53-14.62-10.78-21.51-16.29s-14.22-10.53-21.44-15.64S39.69,144.19,30.86,138.09Z"/></g></g></svg>