<svg xmlns="http://www.w3.org/2000/svg" viewBox="0 0 104.35 156.07"><defs><style>.cls-1{fill:#fff;}</style></defs><g id="Layer_2" data-name="Layer 2"><g id="Layer_1-2" data-name="Layer 1"><path d="M33,87.19c-.63-5.78-2.75-9.49-4.72-13.19a82.1,82.1,0,0,1-6.1-15.08c-5.27-17.5-5.62-34.93.22-52.37,1-3,.78-3,4.58-6.55,1.43,1.06,3.38,1.9,4.39,3.38a55.38,55.38,0,0,1,5.36,9.75A39.34,39.34,0,0,0,54.14,32.56C60.35,36.12,66.5,39.8,72.88,43,84.12,48.7,91.59,57.84,97,68.81a88.34,88.34,0,0,1,5.23,13.56c4.19,13.79,1.64,27.14-3.38,40.17C97,127.33,94.73,132,92.5,136.6a22.39,22.39,0,0,1-10.82,10.63c-10.4,4.94-21.21,8.56-32.91,8.83-15.11.34-27-6-36.63-17.31-7.36-8.65-10.47-19-11.67-29.92a71.32,71.32,0,0,1,5.5-37A38.88,38.88,0,0,1,9.7,65.12c2.25-3.2,5.13-4.22,8.12-3.26,3.52,1.14,4.56,3.66,4.74,7.23C23,78.43,23.81,79.58,33,87.19ZM14.1,84c-.76,1.48-1.6,2.42-1.71,3.44-.58,5.68-1.5,11.4-1.33,17.07.23,7.71,1.13,15.49,5.12,22.35,7.59,13.06,18.37,21.07,34.18,20a71.2,71.2,0,0,0,22.41-5.39,17.8,17.8,0,0,0,9.51-8.28c2.89-5.57,5.87-11.12,8.25-16.91A41.15,41.15,0,0,0,93,92.7a151.15,151.15,0,0,0-4.59-16.46c-2.37-7.58-7-13.63-12.88-18.91-5.58-5-12.11-8.5-18.67-12C48.08,40.6,39.14,36,32.68,27.92c-.54-.68-1.74-.84-3.39-1.57-.07,4.83-.58,8.86-.08,12.76,1.55,12.24,4.4,24.1,10.62,35,2.39,4.17,3.86,8.88,5.63,13.4a14.23,14.23,0,0,1-1.08,13c-7.09,3.8-12.78,2.37-17.65-3.6-2.88-3.55-6-6.89-9.13-10.24A28.11,28.11,0,0,0,14.1,84Z"/><path class="cls-1" d="M14.1,84a28.11,28.11,0,0,1,3.5,2.7c3.11,3.35,6.25,6.69,9.13,10.24,4.87,6,10.56,7.4,17.65,3.6a14.23,14.23,0,0,0,1.08-13c-1.77-4.52-3.24-9.23-5.63-13.4-6.22-10.91-9.07-22.77-10.62-35-.5-3.9,0-7.93.08-12.76,1.65.73,2.85.89,3.39,1.57C39.14,36,48.08,40.6,56.9,45.32c6.56,3.51,13.09,7,18.67,12,5.85,5.28,10.51,11.33,12.88,18.91A151.15,151.15,0,0,1,93,92.7a41.15,41.15,0,0,1-2.51,23.56c-2.38,5.79-5.36,11.34-8.25,16.91a17.8,17.8,0,0,1-9.51,8.28,71.2,71.2,0,0,1-22.41,5.39c-15.81,1-26.59-7-34.18-20-4-6.86-4.89-14.64-5.12-22.35-.17-5.67.75-11.39,1.33-17.07C12.5,86.38,13.34,85.44,14.1,84Z"/></g></g></svg>