<svg xmlns="http://www.w3.org/2000/svg" viewBox="0 0 219.28 93.51"><defs><style>.cls-1{fill:#fff;}</style></defs><g id="Layer_2" data-name="Layer 2"><g id="Layer_1-2" data-name="Layer 1"><path d="M100.13,17.41c1-.79,1.29-.91,1.41-1.14C110.16.27,127-1.44,139.27.79a103.29,103.29,0,0,1,29.78,10.6c3,1.6,6,3.31,9.14,4.72,8.18,3.69,16.64,5.87,25.79,5a34.9,34.9,0,0,1,10.18.74c3.87.82,5.71,3.87,5,7.7a13.49,13.49,0,0,1-2.39,5.4,53.05,53.05,0,0,1-6.9,7.61c-5.35,4.74-11,9.11-16.38,13.83a117.64,117.64,0,0,1-35.16,21.08C142.28,83.79,126,89,109,91.74a140.33,140.33,0,0,1-51.16-1.26C43.62,87.6,30.27,82.87,18,75.21A85.88,85.88,0,0,1,2.11,62.13c-3.18-3.25-2.73-6.82,1.11-9.28a15.89,15.89,0,0,1,4-1.57c10.08-3.11,18.37-8.75,25.71-16.4C39,28.51,46,22.94,52.82,17.29a33.32,33.32,0,0,1,16.2-7c9.41-1.62,17.5.59,25.57,4.66C96.36,15.81,98.21,16.55,100.13,17.41Zm-72.57,39a63.44,63.44,0,0,0,19.16,2.05c8.29-.19,16.57-1,24.86-1.1A121.8,121.8,0,0,0,96.24,54.1c7.53-1.71,15-3.64,22.61-5.08,17.73-3.38,35.24-7.64,52.66-12.36,4.68-1.26,9.22-3.06,13.79-4.69.44-.15.68-.85,1.27-1.64-1.79-.82-3.49-1.71-5.27-2.38a163.46,163.46,0,0,1-17.94-8.16,84.85,84.85,0,0,0-24.16-8.73,25.32,25.32,0,0,0-27.76,14c-.64,1.28-1.19,2.61-1.85,3.87a4.16,4.16,0,0,1-5.08,2.22A24.47,24.47,0,0,1,99,28.83c-2.5-1.38-4.81-3.11-7.3-4.51-9.29-5.24-18.48-5.44-27.45.8a54.65,54.65,0,0,0-4.86,3.52C49.11,37.59,38.84,46.59,27.56,56.44Zm159.76-12.9c-3.2.69-5.12,1.06-7,1.53-17.77,4.34-35.52,8.75-53.3,13-19.18,4.6-38.36,9.18-58.2,10.06-12.86.58-25.71,1.45-38.53-.54a21.31,21.31,0,0,0-3.49.12c2.59,3.22,5.6,4.2,8.43,5.44,8.95,3.94,18.45,6,27.93,8.13,13.55,3,27.17,3.68,40.88,1a267.92,267.92,0,0,0,44.36-13,110.65,110.65,0,0,0,35.69-21.67A41,41,0,0,0,187.32,43.54Z"/><path class="cls-1" d="M27.56,56.44c11.28-9.85,21.55-18.85,31.87-27.8a54.65,54.65,0,0,1,4.86-3.52c9-6.24,18.16-6,27.45-.8,2.49,1.4,4.8,3.13,7.3,4.51a24.47,24.47,0,0,0,5.47,2.29,4.16,4.16,0,0,0,5.08-2.22c.66-1.26,1.21-2.59,1.85-3.87a25.32,25.32,0,0,1,27.76-14,84.85,84.85,0,0,1,24.16,8.73A163.46,163.46,0,0,0,181.3,28c1.78.67,3.48,1.56,5.27,2.38-.59.79-.83,1.49-1.27,1.64-4.57,1.63-9.11,3.43-13.79,4.69-17.42,4.72-34.93,9-52.66,12.36-7.59,1.44-15.08,3.37-22.61,5.08a121.8,121.8,0,0,1-24.66,3.29c-8.29.15-16.57.91-24.86,1.1A63.44,63.44,0,0,1,27.56,56.44Z"/><path class="cls-1" d="M187.32,43.54a41,41,0,0,1-3.25,4.05,110.65,110.65,0,0,1-35.69,21.67A267.92,267.92,0,0,1,104,82.3c-13.71,2.68-27.33,2-40.88-1-9.48-2.09-19-4.19-27.93-8.13-2.83-1.24-5.84-2.22-8.43-5.44a21.31,21.31,0,0,1,3.49-.12c12.82,2,25.67,1.12,38.53.54,19.84-.88,39-5.46,58.2-10.06,17.78-4.27,35.53-8.68,53.3-13C182.2,44.6,184.12,44.23,187.32,43.54Z"/></g></g></svg>