<svg xmlns="http://www.w3.org/2000/svg" viewBox="0 0 131.11 130.01"><defs><style>.cls-1{fill:#fff;}</style></defs><g id="Layer_2" data-name="Layer 2"><g id="Layer_1-2" data-name="Layer 1"><path d="M130.7,112.78c-4.39,2.18-8.5,4.09-13,5-14,2.83-28.07,5.42-42,8.48-18.64,4.08-37.51,3.87-56.4,3.66a21.19,21.19,0,0,1-4.26-.51c-2.72-.57-4.05-1.91-4.33-4.58-.71-6.54-1.42-13.08-1.92-19.64A198.56,198.56,0,0,0,5.58,81.43c1.63-2.14,3.95-3,6.58-3.26C25,76.73,37.7,74.85,50.63,75c12.63.1,25.12-1.56,37.65-2.88,9.35-1,18.57-3.64,28.11-2.73,2.28.21,4.55.45,6.83.64a4.74,4.74,0,0,1,4.59,4.35c1.2,8.5,2.39,17,3.16,25.55C131.36,104.08,130.82,108.37,130.7,112.78ZM118.28,76.62a10,10,0,0,0-2.39-.28c-8.78,1.13-17.52,2.59-26.33,3.45C77,81,64.49,82.24,51.92,82.61c-11.47.34-22.84,1.44-34.21,2.72a12.28,12.28,0,0,0-3.09,1.29c1,5.95,1.9,11.54,2.74,17.15.88,5.86,1.66,11.74,2.53,17.9,1.72.17,3.09.41,4.46.43,3.43.05,6.87-.17,10.29,0a138.39,138.39,0,0,0,35.81-2.91q21-4.27,41.93-9c3.23-.73,6.9-.84,9.1-3.79C122,96.7,120.46,82.14,118.28,76.62Z"/><path d="M0,16.52c7.19-7.58,15.73-9,24.22-10.37,4.23-.68,8.55-.81,12.83-1.25,9.4-1,18.78-2.25,28.2-2.88C79.54,1.08,93.84.3,108.15,0c10-.2,11.77,1.78,13.41,11.59,1.69,10.19,2.19,20.47,2.84,30.75a25.65,25.65,0,0,1-.54,4.42c-3.42,1-6.64,2.15-10,2.92C97.73,53.44,81.52,57,64.84,57.83c-16,.82-32,1.85-48,2.74a45,45,0,0,1-6.87,0c-4.46-.41-7.42-2.77-8.35-7.29a35.4,35.4,0,0,1-.91-5.94C.41,37.06.23,26.77,0,16.52ZM12.42,52.37c3.23,0,6.08.12,8.91,0,11.71-.54,23.43-1,35.13-1.81,9.11-.62,18.24-1.35,27.27-2.66,8.75-1.27,17.38-3.32,26-5.12a20.16,20.16,0,0,0,3.77-1.59c.77-11.31.84-22.06-2-33a60.34,60.34,0,0,0-6.94-.37c-15.71.93-31.42,1.82-47.1,3-10.85.83-21.66,2-32.47,3.3-5.93.68-11.84,1.73-16.72,5.2C7.79,33.05,9.13,44.08,12.42,52.37Z"/><path class="cls-1" d="M118.28,76.62c2.18,5.52,3.74,20.08,3.2,29.81-2.2,2.95-5.87,3.06-9.1,3.79q-20.92,4.69-41.93,9a138.39,138.39,0,0,1-35.81,2.91c-3.42-.2-6.86,0-10.29,0-1.37,0-2.74-.26-4.46-.43-.87-6.16-1.65-12-2.53-17.9-.84-5.61-1.79-11.2-2.74-17.15a12.28,12.28,0,0,1,3.09-1.29C29.08,84.05,40.45,83,51.92,82.61,64.49,82.24,77,81,89.56,79.79c8.81-.86,17.55-2.32,26.33-3.45A10,10,0,0,1,118.28,76.62Z"/><path class="cls-1" d="M12.42,52.37C9.13,44.08,7.79,33.05,8.27,19.3c4.88-3.47,10.79-4.52,16.72-5.2,10.81-1.25,21.62-2.47,32.47-3.3,15.68-1.21,31.39-2.1,47.1-3a60.34,60.34,0,0,1,6.94.37c2.88,11,2.81,21.72,2,33a20.16,20.16,0,0,1-3.77,1.59c-8.66,1.8-17.29,3.85-26,5.12-9,1.31-18.16,2-27.27,2.66-11.7.8-23.42,1.27-35.13,1.81C18.5,52.49,15.65,52.37,12.42,52.37Z"/></g></g></svg>