<svg xmlns="http://www.w3.org/2000/svg" viewBox="0 0 135.27 95.05"><defs><style>.cls-1{fill:#fff;}</style></defs><g id="Layer_2" data-name="Layer 2"><g id="Layer_1-2" data-name="Layer 1"><path d="M65.2,95c-16.49.61-31.55-1.71-45.91-8.42C10.31,82.34,4.45,76.15,3,66.12c-.71-4.8-1.73-9.56-2.72-14.31-.87-4.18.64-8,2-11.66C6.76,28.67,13.91,19.38,24.77,12.92A87.42,87.42,0,0,1,59.4,1.29c12-1.49,23.93-2.07,35.82.38a176.38,176.38,0,0,1,18.24,4.75C124,9.77,130.16,17.1,131.62,28.1c.9,6.8,1.49,13.64,2.19,20.47q.74,7.24,1.4,14.49c.48,5.37-1.91,9.4-6.08,12.49a61.3,61.3,0,0,1-5.71,3.78c-15.89,9.2-33.13,13.86-51.34,15.18C69.51,94.7,66.94,94.85,65.2,95ZM55.64,61.45l0-.75c5.14-.28,10.29-.53,15.44-.85a89.89,89.89,0,0,0,32.19-8.33,57.35,57.35,0,0,0,16.62-12,12.78,12.78,0,0,0,2.61-3.36c4.38-9.28,3-17.28-6.18-21.41A82.35,82.35,0,0,0,85.79,7,158.71,158.71,0,0,0,61,8.24c-11.59,1.3-22.39,4.51-32.31,10.62A43.7,43.7,0,0,0,9.25,43.13,8.57,8.57,0,0,0,10.83,52,13,13,0,0,0,16,56.21c5.08,2,10.14,3.9,15.68,4.13C39.68,60.68,47.66,61.08,55.64,61.45Zm-43.2,2.19c-1.6,7,.78,11.78,6.38,14.81a70.4,70.4,0,0,0,22.52,8.09c19,3,37.76,1.25,56.1-4.13,6.82-2,13.29-5.24,19.75-8.29,2.24-1.06,4.06-3.11,5.91-4.88a11.94,11.94,0,0,0,3.52-11c-.47-3.11-.88-6.23-1.44-9.33a17.78,17.78,0,0,0-1.37-3.22l-5.1,4.3c-11.54,9.78-25.43,14.53-39.93,16.75a224.42,224.42,0,0,1-42.84,2,54.13,54.13,0,0,1-15.17-2.61C18.13,65.28,15.44,64.54,12.44,63.64Z"/><path class="cls-1" d="M55.64,61.45c-8-.37-16-.77-23.94-1.11C26.16,60.11,21.1,58.2,16,56.21A13,13,0,0,1,10.83,52a8.57,8.57,0,0,1-1.58-8.82,43.7,43.7,0,0,1,19.4-24.27C38.57,12.75,49.37,9.54,61,8.24A158.71,158.71,0,0,1,85.79,7a82.35,82.35,0,0,1,30.56,7.73c9.15,4.13,10.56,12.13,6.18,21.41a12.78,12.78,0,0,1-2.61,3.36,57.35,57.35,0,0,1-16.62,12,89.89,89.89,0,0,1-32.19,8.33c-5.15.32-10.3.57-15.44.85Z"/><path class="cls-1" d="M12.44,63.64c3,.9,5.69,1.64,8.33,2.53a54.13,54.13,0,0,0,15.17,2.61,224.42,224.42,0,0,0,42.84-2c14.5-2.22,28.39-7,39.93-16.75l5.1-4.3a17.78,17.78,0,0,1,1.37,3.22c.56,3.1,1,6.22,1.44,9.33a11.94,11.94,0,0,1-3.52,11c-1.85,1.77-3.67,3.82-5.91,4.88-6.46,3-12.93,6.3-19.75,8.29-18.34,5.38-37.07,7.12-56.1,4.13a70.4,70.4,0,0,1-22.52-8.09C13.22,75.42,10.84,70.62,12.44,63.64Z"/></g></g></svg>