<svg xmlns="http://www.w3.org/2000/svg" viewBox="0 0 292.19 286.96"><defs><style>.cls-1{fill:#fff;}</style></defs><g id="Layer_2" data-name="Layer 2"><g id="Layer_1-2" data-name="Layer 1"><path d="M173.57,91.26a30.21,30.21,0,0,0,3-2.48q8.55-10.2,17-20.45a160.51,160.51,0,0,1,32.73-30.16c3.52-2.44,7.32-4.49,11-6.7a29.56,29.56,0,0,1,13-4.12c4.36-.36,8.15,2.35,8.48,6.68a40.84,40.84,0,0,1-.8,11.88,40.42,40.42,0,0,1-6.29,14c-8.43,12.34-17.39,24.18-29.3,33.45-2.71,2.11-5.53,4.07-8.27,6.14q-10.62,8-21.18,16.1a17.92,17.92,0,0,0-2.5,2.81c.64,2.17,2,1.82,2.91,1.54,13.76-4.3,28-6.34,42.22-7.69,15.73-1.49,31.51-.86,46.69,4.55,1.08.38,2.16.75,3.22,1.2,7.38,3.12,8.76,8.6,3.78,15a17.66,17.66,0,0,1-11.39,7.07,23.4,23.4,0,0,1-5.11.57c-10.65-.68-21.15,1.12-31.65,2.21-6.77.7-13.4,2.93-20,4.71a138.91,138.91,0,0,0-15.57,4.83c-10,4-10.55,6.84-3.54,14.65,8.22,9.17,16.49,18.29,24.56,27.59,3.18,3.66,5.89,7.72,8.77,11.64a21.38,21.38,0,0,1,1.73,3c4.38,8.53,5.34,16.85-1.92,25.15A16.65,16.65,0,0,1,221.06,231c-4.67-3.76-9-7.93-13.34-12.08-3.09-3-6-6.11-8.89-9.3-6.52-7.23-12.9-14.57-19.45-21.78-3-3.33-5.46-7.31-10-10.22-.55,1.41-1.32,2.39-1.21,3.26.6,5.09.68,10.23,2.68,15.14q4.52,11.11,8.39,22.48c3.59,10.55,7.33,21.09,10.14,31.86,1.55,6,2.72,12.32,1.45,18.72-.38,1.91.07,4-.06,6a26.11,26.11,0,0,1-.93,6.7c-1.62,4.65-6,6.54-10.36,4.38a19.89,19.89,0,0,1-6.75-5.07,68.34,68.34,0,0,1-7.94-12.21c-9.58-19.56-17.91-39.63-23-60.91-1.73-7.22-3.27-14.5-5-21.73a31.07,31.07,0,0,0-1.54-4.91c-.64-1.55-1.54-3-2.59-5-2.34.72-4.71,1-6.47,2.12a66.14,66.14,0,0,0-10.1,7.9c-11.83,11.67-23.61,23.38-36.53,33.87-4.92,4-10,7.64-16.33,9.16a11.66,11.66,0,0,1-14.21-9.91,18.12,18.12,0,0,1,1.74-9.18A71.66,71.66,0,0,1,66,187.52c10.19-10.46,21-20.21,31.65-30.2,2-1.9,3.77-4.08,6.07-6.59A33.32,33.32,0,0,0,89,147.94c-10.94.25-21.68-1.35-32.46-3.05a88.32,88.32,0,0,0-16.27-.65c-10.66.34-20.31-2.83-29.57-7.69a13.48,13.48,0,0,1-2.94-1.76c-10.09-9.53-10.69-14.8-.06-22.64,5-3.68,10.57-5.82,16.84-5.39,8.57.59,17.13,1.3,25.68,2.18,7.67.78,15.32,1.88,23,2.81,5.4.67,10.79,1.46,16.21,1.87,3.94.3,7.93.06,11.45.06,2.17-2.37,1.66-4.34.25-5.86a41.61,41.61,0,0,0-6.39-5.69c-15-10.63-23.28-25.67-27.79-43-2.26-8.69,2.42-20,9.76-25a6.75,6.75,0,0,1,7.3-.33c6.84,3.42,12.46,8.16,16.21,14.88,7.1,12.75,14.1,25.56,21.2,38.32,1.66,3,3.49,5.91,5.36,8.78.39.59,1.29.85,1.81,1.17,1.75-.63,1.42-2,1.4-3-.08-5.15.08-10.35-.51-15.45-1.11-9.74-.54-19.45-.16-29.17a113.5,113.5,0,0,1,7.78-36.77A18.59,18.59,0,0,1,151.53.38c6.46-1.31,10.18.72,12.94,6.74a61.09,61.09,0,0,1,5,19c2,18,2.15,36,3,54C172.67,83.46,172.41,86.86,173.57,91.26ZM154.2,10.06A12.61,12.61,0,0,0,147,17.85c-4,10.82-6.76,22-6.95,33.49-.23,14.6-.05,29.22.43,43.81.2,5.81-.84,10.72-5.19,14.71a8.63,8.63,0,0,1-8.68-2.27,53.74,53.74,0,0,1-11.16-14.07c-4.46-8.32-8.85-16.68-13.38-25-3-5.52-6-11.06-9.44-16.36-2.61-4.08-5.85-7.69-11.18-7.61A16.24,16.24,0,0,0,77,61.51c3.67,13,10,24.27,21.23,32.39a60.88,60.88,0,0,1,7.26,6c4.27,4.25,6.41,9.4,5.62,15.55-.6,4.64-1.63,6.11-6.1,7.05a34,34,0,0,1-9.35.88c-9.41-.67-18.81-1.6-28.19-2.62-11.38-1.25-22.72-2.92-34.11-3.93a43.55,43.55,0,0,0-12.75,1.06c-4.2.89-7.74,3.25-10.24,8.65,1.24.74,2.46,1.5,3.7,2.22,1.73,1,3.44,2,5.21,3,7.45,3.89,15.56,3.78,23.54,3.24a62.27,62.27,0,0,1,14.45,1.12c7.9,1.29,15.85,2.36,23.82,3,6.84.53,13.74.11,20.59.48a24.07,24.07,0,0,1,8.23,2c4.58,2,6,5.69,4.78,10.64a17.42,17.42,0,0,1-5.49,8.54c-6.71,6.24-13.38,12.51-20.17,18.67-8.93,8.09-17.58,16.43-24.31,26.52-2.84,4.27-5,8.79-5.22,14.18,4.41.61,7-1.79,9.63-3.82a333.52,333.52,0,0,0,33.91-30.29c4.82-4.87,9.92-9.49,15.09-14,3.75-3.29,8.38-4.89,13.27-5.63,4.11-.63,7.52.77,9.33,4.55a72.81,72.81,0,0,1,4.64,12c2.42,8.81,4.65,17.7,6.59,26.63,4.34,20,12.82,38.52,21.47,56.92,1.31,2.8,3.48,5.22,5.39,7.71.85,1.1,1.95,2.18,3.81,1a64,64,0,0,0-3.31-27.73c-4.43-12.7-9.33-25.23-14-37.86-3-8-5.89-16.1-7.4-24.61a23.57,23.57,0,0,1,1.48-12.61,8.2,8.2,0,0,1,8.83-5.39,16.9,16.9,0,0,1,7.09,2.65,42.84,42.84,0,0,1,7.41,7.09c9.11,10.65,17.2,22.19,28,31.29,1.29,1.08,2.09,2.73,3.28,3.95,3.8,3.88,7.59,7.77,11.59,11.44,1.37,1.26,3.34,1.87,5.34,2.94a11.6,11.6,0,0,0-1.37-10.32,171,171,0,0,0-9.43-14.33,205.24,205.24,0,0,0-26.58-29.17c-5.21-4.66-8-10.31-6.86-17.35a31.45,31.45,0,0,1,12.17-8.3,171.84,171.84,0,0,1,40.45-11.12c10.15-1.47,20.44-2.72,30.81-2.31,2.77.11,5.65-.76,8.37-1.56,2.53-.75,3.51-2.74,2.79-5.57a13.78,13.78,0,0,0-2-1.29c-13.78-6.1-28.32-6.77-43-5.3a230.12,230.12,0,0,0-38.77,7.36,51.15,51.15,0,0,1-10.14,1.37c-4.3.29-6.93-2.18-8.51-5.92-1.47-3.47.09-6.16,2.54-8.41,8-7.37,16.08-14.7,25.35-20.45a110.84,110.84,0,0,0,27.66-24.25c6.9-8.47,12.7-17.65,14.76-28.69.33-1.76.61-3.4-1.81-4.59A39.46,39.46,0,0,0,243.16,38c-16.46,9.24-30,21.8-42,36.26-6,7.27-12.28,14.35-18.31,21.61-3.65,4.38-8.35,5.8-13.77,5.5-3.36-.18-5.25-1.78-5.86-5.17a41.16,41.16,0,0,1-.41-6c-.51-14-.82-28.07-1.57-42.08-.46-8.56-1.37-17.11-2.54-25.6C158.11,18.42,157.47,14.07,154.2,10.06Z"/><path class="cls-1" d="M154.2,10.06c3.27,4,3.91,8.36,4.48,12.5,1.17,8.49,2.08,17,2.54,25.6.75,14,1.06,28.05,1.57,42.08a41.16,41.16,0,0,0,.41,6c.61,3.39,2.5,5,5.86,5.17,5.42.3,10.12-1.12,13.77-5.5,6-7.26,12.28-14.34,18.31-21.61,12-14.46,25.56-27,42-36.26a39.46,39.46,0,0,1,4.34-1.84c2.42,1.19,2.14,2.83,1.81,4.59-2.06,11-7.86,20.22-14.76,28.69a110.84,110.84,0,0,1-27.66,24.25c-9.27,5.75-17.35,13.08-25.35,20.45-2.45,2.25-4,4.94-2.54,8.41,1.58,3.74,4.21,6.21,8.51,5.92a51.15,51.15,0,0,0,10.14-1.37,230.12,230.12,0,0,1,38.77-7.36c14.64-1.47,29.18-.8,43,5.3a13.78,13.78,0,0,1,2,1.29c.72,2.83-.26,4.82-2.79,5.57-2.72.8-5.6,1.67-8.37,1.56-10.37-.41-20.66.84-30.81,2.31A171.84,171.84,0,0,0,199,146.91a31.45,31.45,0,0,0-12.17,8.3c-1.15,7,1.65,12.69,6.86,17.35a205.24,205.24,0,0,1,26.58,29.17,171,171,0,0,1,9.43,14.33A11.6,11.6,0,0,1,231,226.38c-2-1.07-4-1.68-5.34-2.94-4-3.67-7.79-7.56-11.59-11.44-1.19-1.22-2-2.87-3.28-3.95-10.84-9.1-18.93-20.64-28-31.29a42.84,42.84,0,0,0-7.41-7.09,16.9,16.9,0,0,0-7.09-2.65,8.2,8.2,0,0,0-8.83,5.39A23.57,23.57,0,0,0,158,185c1.51,8.51,4.45,16.56,7.4,24.61,4.64,12.63,9.54,25.16,14,37.86a64,64,0,0,1,3.31,27.73c-1.86,1.17-3,.09-3.81-1-1.91-2.49-4.08-4.91-5.39-7.71-8.65-18.4-17.13-36.87-21.47-56.92-1.94-8.93-4.17-17.82-6.59-26.63a72.81,72.81,0,0,0-4.64-12c-1.81-3.78-5.22-5.18-9.33-4.55-4.89.74-9.52,2.34-13.27,5.63-5.17,4.52-10.27,9.14-15.09,14a333.52,333.52,0,0,1-33.91,30.29c-2.65,2-5.22,4.43-9.63,3.82.22-5.39,2.38-9.91,5.22-14.18,6.73-10.09,15.38-18.43,24.31-26.52,6.79-6.16,13.46-12.43,20.17-18.67a17.42,17.42,0,0,0,5.49-8.54c1.22-5-.2-8.61-4.78-10.64a24.07,24.07,0,0,0-8.23-2c-6.85-.37-13.75,0-20.59-.48-8-.61-15.92-1.68-23.82-3A62.27,62.27,0,0,0,42.84,135c-8,.54-16.09.65-23.54-3.24-1.77-.93-3.48-2-5.21-3-1.24-.72-2.46-1.48-3.7-2.22,2.5-5.4,6-7.76,10.24-8.65a43.55,43.55,0,0,1,12.75-1.06c11.39,1,22.73,2.68,34.11,3.93,9.38,1,18.78,2,28.19,2.62a34,34,0,0,0,9.35-.88c4.47-.94,5.5-2.41,6.1-7.05.79-6.15-1.35-11.3-5.62-15.55a60.88,60.88,0,0,0-7.26-6C87.05,85.78,80.69,74.48,77,61.51a16.24,16.24,0,0,1,4.47-16.92c5.33-.08,8.57,3.53,11.18,7.61,3.39,5.3,6.42,10.84,9.44,16.36,4.53,8.28,8.92,16.64,13.38,25a53.74,53.74,0,0,0,11.16,14.07,8.63,8.63,0,0,0,8.68,2.27c4.35-4,5.39-8.9,5.19-14.71-.48-14.59-.66-29.21-.43-43.81.19-11.53,2.92-22.67,6.95-33.49A12.61,12.61,0,0,1,154.2,10.06Z"/></g></g></svg>