<svg xmlns="http://www.w3.org/2000/svg" viewBox="0 0 216.96 138.93"><defs><style>.cls-1{fill:#fff;}</style></defs><g id="Layer_2" data-name="Layer 2"><g id="Layer_1-2" data-name="Layer 1"><path d="M140.73,114C129,120.4,121,132.18,108.63,137.3L87.85,122.67c-.71-.49-1.4-1-2.13-1.44-17.79-10.57-14.25-8.92-30.87-3.46A264.87,264.87,0,0,0,23.06,130.7a51.44,51.44,0,0,1-9.69,3.36c-2.61.65-4.4-.74-5-3.42a52.06,52.06,0,0,1-1.11-6.78C6.49,115.31,6.13,106.7,5,98.2,2.16,75.7,3.14,53,1.49,30.48,1.24,27.06.77,23.65.43,20.23a23.89,23.89,0,0,1-.38-5.1c.69-5.72,3.09-7,8.76-5.55,6.63,1.74,13.33,3.25,20,4.83,7.8,1.83,15.6,3.66,23.42,5.43,6.11,1.38,12.25,2.66,19,4.13,3.08-2.28,6.46-4.9,10-7.34,6.11-4.26,12.09-8.74,18.47-12.52,9.49-5.62,10.35-5.42,19.54.28,3.17,2,6.22,4.1,9.29,6.21C136.75,16.26,145,22,153.6,27.91c6.66-3.49,13.38-7.19,20.27-10.56,9.25-4.52,18.46-9.2,28.43-12,3.3-.93,6.65-1.74,10.15-.84,3.31.84,5.31,3.07,4.2,6.27C213.11,21,214,31.66,213.09,42.15c-1,11.41-2,22.81-2.73,34.23-1.05,16.58-1.85,33.17-1,49.78.13,2.57.82,5.11.83,7.67a5.38,5.38,0,0,1-8.06,4.34C191,131.81,179.45,126.31,167,122.81,158.16,120.34,149.61,117,140.73,114Zm-30.66,14.2c2.19-1.59,3.86-2.68,5.39-3.94,5.76-4.72,11.5-9.45,17.18-14.26,4.1-3.46,8.49-4.29,13.56-2.37,5.61,2.14,11.37,3.88,17,6,11.49,4.32,23.79,6.48,34.5,12.91.53.33,1.57-.18,2.59-.34.3-14.15.55-28.15.91-42.16.11-4.28.4-8.57.8-12.84,1.58-16.53,3.37-33,3.1-49.7,0-2.51-.27-5-.4-7.29-3.65-1.22-6.29.09-8.85,1.28-10.63,5-21.49,9.44-31.49,15.68A92.28,92.28,0,0,1,156,35.54a6,6,0,0,1-6.48-.45c-9.61-6.74-19.26-13.4-28.84-20.17-4-2.82-8-5.42-12.81-6.17a61.71,61.71,0,0,0-15.84,9c-5.26,4-10.58,7.86-15.79,11.89-2.91,2.25-5.56,2.75-9.45,1.74C49.59,26.86,32.27,23,15,19c-1.58-.37-3.3-1.06-5,.56a10,10,0,0,0-.39,2.24C10,34.91,11.07,48,11,61.21c-.12,18.34,2.51,36.53,4.3,54.75.3,3.1.57,6.23,2.64,9.25,4.83-2.06,9.5-4.2,14.27-6.07,10.39-4.06,20.82-8,31.26-11.93a16.94,16.94,0,0,1,13.35.43,80.21,80.21,0,0,1,15.08,8.1C97.66,119.92,103.63,123.82,110.07,128.22Z"/><path class="cls-1" d="M110.07,128.22c-6.44-4.4-12.41-8.3-18.18-12.48a80.21,80.21,0,0,0-15.08-8.1,16.94,16.94,0,0,0-13.35-.43C53,111.13,42.59,115.08,32.2,119.14c-4.77,1.87-9.44,4-14.27,6.07-2.07-3-2.34-6.15-2.64-9.25C13.5,97.74,10.87,79.55,11,61.21,11.07,48,10,34.91,9.6,21.76A10,10,0,0,1,10,19.52c1.69-1.62,3.41-.93,5-.56,17.29,4,34.61,7.9,51.78,12.38,3.89,1,6.54.51,9.45-1.74,5.21-4,10.53-7.92,15.79-11.89a61.71,61.71,0,0,1,15.84-9c4.77.75,8.82,3.35,12.81,6.17,9.58,6.77,19.23,13.43,28.84,20.17a6,6,0,0,0,6.48.45,92.28,92.28,0,0,0,8.38-4.35c10-6.24,20.86-10.72,31.49-15.68,2.56-1.19,5.2-2.5,8.85-1.28.13,2.27.36,4.78.4,7.29.27,16.65-1.52,33.17-3.1,49.7-.4,4.27-.69,8.56-.8,12.84-.36,14-.61,28-.91,42.16-1,.16-2.06.67-2.59.34-10.71-6.43-23-8.59-34.5-12.91-5.62-2.12-11.38-3.86-17-6-5.07-1.92-9.46-1.09-13.56,2.37-5.68,4.81-11.42,9.54-17.18,14.26C113.93,125.54,112.26,126.63,110.07,128.22Z"/></g></g></svg>