<svg xmlns="http://www.w3.org/2000/svg" viewBox="0 0 207.1 131.08"><defs><style>.cls-1{fill:#fff;}</style></defs><g id="Layer_2" data-name="Layer 2"><g id="Layer_1-2" data-name="Layer 1"><path d="M206.81,39.3c-.71,15.36-3.64,28.79-6.24,42.27-.92,4.76-1.82,9.52-2.73,14.28a5.56,5.56,0,0,1-5.2,4.91,60.79,60.79,0,0,1-9.34.34,34.44,34.44,0,0,1-7.58-1.4c-13.13-3.78-26.59-3.66-40.06-3.64-11.32,0-22.23,2.58-32.85,5.94-19.19,6.07-37.43,14.29-53.17,27.18-2.61,2.14-5.27,2.45-7.92,1A24.51,24.51,0,0,1,35,125C29.76,119,24.8,112.68,19.74,106.47,14.15,99.61,8.65,92.68,3,85.89c-3.61-4.34-4-7.66-.86-12.26a32.69,32.69,0,0,1,3.27-4Q16,58.46,26.72,47.31a20.83,20.83,0,0,1,1.87-1.77c17.61-14.31,35.79-27.76,57-36.32a126.67,126.67,0,0,1,69.15-7.39c10,1.64,19.1,6,28,10.45,4.59,2.31,8.92,5.16,13.31,7.86C203.84,24.89,208.33,31.34,206.81,39.3Zm-10.93-7.82c-4.25-2.65-7.79-5.06-11.52-7.15C171.53,17.11,158.12,11.47,143.14,11a131.93,131.93,0,0,0-67.7,15.79c-9.86,5.31-18.6,12.26-27.79,18.57-12.67,8.69-22.8,19.89-33.11,31-1.29,1.39-2,3.29-2.94,4.83,9.57,11.63,18.81,22.9,28.09,34.14,1,1.25,2.29,2.32,3.61,3.63,2.77-1.84,5.18-3.34,7.49-5,9.59-6.87,20.29-11.85,30.89-16.72,9.81-4.5,20.5-7.06,31.17-9.29,18.2-3.8,36.4-3.17,54.63-.51,6.43.93,12.81,2.2,19.12,3.31.71-1.24,1.38-1.92,1.51-2.69,2.63-15.51,5.27-31,7.7-46.54C196.29,38.47,195.88,35.28,195.88,31.48Z"/><path class="cls-1" d="M195.88,31.48c0,3.8.41,7-.07,10.05-2.43,15.53-5.07,31-7.7,46.54-.13.77-.8,1.45-1.51,2.69-6.31-1.11-12.69-2.38-19.12-3.31-18.23-2.66-36.43-3.29-54.63.51-10.67,2.23-21.36,4.79-31.17,9.29-10.6,4.87-21.3,9.85-30.89,16.72-2.31,1.65-4.72,3.15-7.49,5-1.32-1.31-2.57-2.38-3.61-3.63C30.41,104.09,21.17,92.82,11.6,81.19c.92-1.54,1.65-3.44,2.94-4.83C24.85,65.27,35,54.07,47.65,45.38c9.19-6.31,17.93-13.26,27.79-18.57A131.93,131.93,0,0,1,143.14,11c15,.45,28.39,6.09,41.22,13.31C188.09,26.42,191.63,28.83,195.88,31.48Z"/></g></g></svg>