<svg xmlns="http://www.w3.org/2000/svg" viewBox="0 0 219.02 115.15"><defs><style>.cls-1{fill:#fff;}</style></defs><g id="Layer_2" data-name="Layer 2"><g id="Layer_1-2" data-name="Layer 1"><path d="M146.37,93.64A110.82,110.82,0,0,1,120,90.28c-9.72-2.43-19.47-5-29.61-3.8-18,2.16-34.5,8-48.13,20.44-1.89,1.72-3.38,3.87-5.17,5.7-3.09,3.17-5.19,3.24-9.11.9-3.11-1.86-5-4.74-6.68-7.7-4.71-8.17-9.25-16.44-13.87-24.66a57.47,57.47,0,0,0-4.34-7.37C1.31,71.47-.27,69.35,0,66.14c.39-4,.65-7.88,3.57-11.16,2.26-2.54,4-5.57,6-8.32,1.69-2.31,3.36-4.65,5.25-6.78,12.88-14.45,27.52-26.54,45.63-34A78.54,78.54,0,0,1,83.71.21a42,42,0,0,1,17.77,1.92C111.21,5.52,121,8.77,130.3,13.19c5.93,2.81,12.17,5,18.3,7.36,8.06,3.15,16.37,2.79,24.53.87A99,99,0,0,0,191,15.53c10.11-4.53,15.84-2.37,20.69,7.82a45.2,45.2,0,0,1,2,4.72c1.38,4,2.38,8.25,4.05,12.18A13.69,13.69,0,0,1,216,54.71a122.8,122.8,0,0,1-23,24.1,64.87,64.87,0,0,1-32.9,13.69C155.5,93,150.93,93.27,146.37,93.64ZM201,23.87c-9,5.15-18.45,7.39-28,9.43A41.47,41.47,0,0,1,148.64,31c-6.91-2.73-13.66-5.86-20.51-8.72-8.44-3.52-16.86-7.1-25.41-10.32-2.86-1.08-6.1-1.21-9.19-1.65-11.92-1.69-22.83,2.4-33.05,7.35A107,107,0,0,0,26,44.05c-6.24,7.23-11.21,15.12-13.48,24.27C17.57,79.81,28.06,97.92,32,101.85c1.66-1.49,3.29-3.06,5-4.5,2.63-2.2,5.11-4.69,8-6.41,21.85-12.8,45-17.67,70.07-11.56a188.12,188.12,0,0,0,20.22,3.85,67.3,67.3,0,0,0,42.29-7.77C188.85,69.26,201.5,57.27,209,45,206.39,38,203.77,31.13,201,23.87Z"/><path class="cls-1" d="M201,23.87c2.76,7.26,5.38,14.13,8,21.09-7.54,12.31-20.19,24.3-31.44,30.5a67.3,67.3,0,0,1-42.29,7.77,188.12,188.12,0,0,1-20.22-3.85c-25-6.11-48.22-1.24-70.07,11.56-2.92,1.72-5.4,4.21-8,6.41-1.72,1.44-3.35,3-5,4.5-3.92-3.93-14.41-22-19.49-33.53,2.27-9.15,7.24-17,13.48-24.27A107,107,0,0,1,60.48,17.63c10.22-4.95,21.13-9,33.05-7.35,3.09.44,6.33.57,9.19,1.65,8.55,3.22,17,6.8,25.41,10.32,6.85,2.86,13.6,6,20.51,8.72a41.47,41.47,0,0,0,24.41,2.33C182.56,31.26,192,29,201,23.87Z"/></g></g></svg>