<svg xmlns="http://www.w3.org/2000/svg" viewBox="0 0 239.19 119.54"><defs><style>.cls-1{fill:#fff;}</style></defs><g id="Layer_2" data-name="Layer 2"><g id="Layer_1-2" data-name="Layer 1"><path d="M77.25,30.69c1.23-1.9,2.51-3.78,3.7-5.72,6.67-10.85,17.23-16.4,28.52-21,13.08-1.73,25.15.26,35.11,9.74,2.44,2.32,4.74,4.8,7.45,7.57,6.41-7.49,14.71-11.49,22.64-15.91,13.24-7.38,26.92-6.8,40.46-.74,5.7,2.55,9.4,7.57,12.52,12.68,5.4,8.85,9.14,18.3,10.18,28.88a190,190,0,0,1,.61,27.4,57.13,57.13,0,0,0,.64,9.4c.4,3.32-.16,6.24-3.82,9.2-1.14,0-3.38,0-5.62,0-11.16-.24-22.34-.94-33.49-.65-11.44.28-22.84,1.51-34.26,2.35-2.28.16-4.56.49-6.84.62-12,.64-24,1.14-36,1.93a87.19,87.19,0,0,0-11.86,1.92C87,102.6,66.89,107,46.73,111.12c-7.87,1.62-15.62,3.43-23,6.61A20.07,20.07,0,0,1,10,118.79c-4.62-7.65-6.28-16.38-7.9-25A127,127,0,0,1,0,75C-.51,59.13,4.61,45.12,14.92,33.1c5.71-6.65,13.48-10.51,21-14.62,13.44-2.84,26.27-2.94,36.57,8.23q1.45,1.58,3,3A10,10,0,0,0,77.25,30.69ZM228.89,82.55a235.08,235.08,0,0,0-1.48-38.73c-1.15-10.44-5.95-19.62-12.64-27.76-5.26-6.38-12.17-8.75-20-7.11-13.13,2.74-25.39,7.68-33.5,19.08-3,4.15-6.23,5.5-10.84,5-1.39-.16-2.78-.39-4.18-.58a51.39,51.39,0,0,0-2.86-4.54c-2.64-3.38-5.06-7-8.17-9.9-5.26-4.91-11.89-7.29-19-5.82-4.64,1-9.11,3.38-13.3,5.77-9.18,5.23-14.23,13.84-17.84,23.43-2.09,5.56-4.14,6.52-9.57,4.71-2.67-.9-4.17-2.84-5.56-5.07a80,80,0,0,0-5.66-8.58C58.78,25.56,50.07,23,42,26.4,31.18,31,22.2,38.1,16.76,48.75a54.6,54.6,0,0,0-6.09,29.92,183.53,183.53,0,0,0,2.41,18.74c.84,4.36,1.4,9,4.3,13.27C30,105.31,43.29,103,56.4,100.1,72,96.61,87.65,93,103.32,89.67a135.88,135.88,0,0,1,18.62-3.07c19.14-1.39,38.31-2.62,57.48-3.42,13.45-.56,26.93-.3,40.39-.42C222.62,82.73,225.43,82.63,228.89,82.55Z"/><path class="cls-1" d="M228.89,82.55c-3.46.08-6.27.18-9.08.21-13.46.12-26.94-.14-40.39.42-19.17.8-38.34,2-57.48,3.42a135.88,135.88,0,0,0-18.62,3.07C87.65,93,72,96.61,56.4,100.1c-13.11,2.92-26.37,5.21-39,10.58-2.9-4.3-3.46-8.91-4.3-13.27a183.53,183.53,0,0,1-2.41-18.74,54.6,54.6,0,0,1,6.09-29.92C22.2,38.1,31.18,31,42,26.4c8.09-3.43,16.8-.84,22.38,6A80,80,0,0,1,70,41c1.39,2.23,2.89,4.17,5.56,5.07,5.43,1.81,7.48.85,9.57-4.71,3.61-9.59,8.66-18.2,17.84-23.43,4.19-2.39,8.66-4.8,13.3-5.77,7.06-1.47,13.69.91,19,5.82,3.11,2.89,5.53,6.52,8.17,9.9a51.39,51.39,0,0,1,2.86,4.54c1.4.19,2.79.42,4.18.58,4.61.54,7.88-.81,10.84-5,8.11-11.4,20.37-16.34,33.5-19.08,7.81-1.64,14.72.73,20,7.11,6.69,8.14,11.49,17.32,12.64,27.76A235.08,235.08,0,0,1,228.89,82.55Z"/></g></g></svg>