<svg xmlns="http://www.w3.org/2000/svg" viewBox="0 0 131.34 212.96"><defs><style>.cls-1{fill:#fff;}</style></defs><g id="Layer_2" data-name="Layer 2"><g id="Layer_1-2" data-name="Layer 1"><path d="M0,96.64c7.87-13.79,16.81-26,25.47-38.46A453.87,453.87,0,0,1,53.41,22.33c5.21-6.09,10.57-12,15.91-18a15.86,15.86,0,0,1,2.6-2.23c4.53-3.27,6.57-2.79,9.51,2s6.44,9.49,9,14.58q6.08,12.28,11.15,25c5.29,13.29,10.12,26.76,18.37,38.64a17.12,17.12,0,0,1,2.31,4.6c1.63,5.29,4.23,9.93,9.12,13.52-1.77,3-3.27,5.76-5,8.37-5.56,8.66-11.23,17.26-16.79,25.93-3.85,6-7.62,12.09-11.37,18.18C88.47,168.84,78.77,184.71,69,200.53c-1.95,3.17-3.95,6.32-6.2,9.27-3.1,4.08-7.76,4.27-10.81.2a64.84,64.84,0,0,1-6-10.33c-5.46-11-11-22-16-33.22-4.84-10.67-9.15-21.58-13.74-32.37-3-7.1-6.12-14.17-9.19-21.25ZM58,199.8a29.12,29.12,0,0,0,3.06-3.3C67.2,187.2,73.65,178.1,78.5,168c1.35-2.82,3.12-5.45,4.74-8.14,7.54-12.48,15.05-25,22.67-37.42,3.88-6.33,8-12.51,12.08-18.9-1.46-2.58-2.92-5-4.22-7.53a509.16,509.16,0,0,1-27-62.14C84,26.31,79.75,19.66,75,12.69c-3.5,2.24-6.65,4.45-8.73,7.42-8.53,12.2-19.88,22.07-28,34.66-6.19,9.6-13.26,18.63-19.89,27.95-2.16,3-4.15,6.18-6.2,9.29s-2.45,6.27-.56,9.69c2.2,4,4.19,8.14,6.26,12.22S22.21,122,24,126.18c2.86,6.56,5.45,13.23,8.14,19.86,1.83,4.5,3.37,9.14,5.48,13.5,5.73,11.85,11.69,23.59,17.58,35.35C56,196.41,56.91,197.84,58,199.8Z"/><path class="cls-1" d="M58,199.8c-1.11-2-2-3.39-2.78-4.91-5.89-11.76-11.85-23.5-17.58-35.35-2.11-4.36-3.65-9-5.48-13.5-2.69-6.63-5.28-13.3-8.14-19.86C22.21,122,20,118,17.92,113.92s-4.06-8.21-6.26-12.22c-1.89-3.42-1.49-6.58.56-9.69s4-6.26,6.2-9.29c6.63-9.32,13.7-18.35,19.89-27.95,8.11-12.59,19.46-22.46,28-34.66,2.08-3,5.23-5.18,8.73-7.42,4.72,7,9,13.62,11.71,21.19a509.16,509.16,0,0,0,27,62.14c1.3,2.52,2.76,5,4.22,7.53-4.09,6.39-8.2,12.57-12.08,18.9-7.62,12.43-15.13,24.94-22.67,37.42-1.62,2.69-3.39,5.32-4.74,8.14C73.65,178.1,67.2,187.2,61.08,196.5A29.12,29.12,0,0,1,58,199.8Z"/></g></g></svg>