<svg xmlns="http://www.w3.org/2000/svg" viewBox="0 0 167.57 164.4"><defs><style>.cls-1{fill:#fff;}</style></defs><g id="Layer_2" data-name="Layer 2"><g id="Layer_1-2" data-name="Layer 1"><path d="M62.81,163.37c-8.9,2.69-15.42-.07-20.84-6-7.88-8.59-17.38-14.76-28-19.47a78.5,78.5,0,0,1-9.7-5.47C.43,130-.54,126.17.26,122a55.77,55.77,0,0,1,2.66-9c6.19-16.6,12.29-33.29,21-48.75C36.62,41.79,53.65,23.71,76.85,11.82a203,203,0,0,1,22-9.64c6.09-2.27,12.31-2.43,18.61-2a14,14,0,0,1,10.72,6.09A409,409,0,0,1,153.64,45Q160.12,56,166.41,67.23c2.65,4.72.63,8.62-4.76,8.77-8.57.25-16.13,3.61-23.62,7.17-10.69,5.08-19.72,12.6-28.49,20.38-13.1,11.63-25,24.4-34.6,39.08-3.6,5.48-6.53,11.41-9.8,17.11C64.44,161,63.61,162.13,62.81,163.37Zm90.32-98a24.46,24.46,0,0,0-1.13-3,540.91,540.91,0,0,0-29.63-47.24c-2.72-3.88-5.76-5.28-10.15-4.41-2,.39-3.9.83-5.83,1.32C96.6,14.5,87.76,19.14,79,24,60.3,34.17,46.66,49.37,35.76,67.16,31.6,74,28.44,81.4,25.28,88.75q-6.44,15-12.11,30.26c-2.82,7.57-1,8.18,4.44,10.58A102,102,0,0,1,49.78,152.1a48,48,0,0,0,4.11,3.34c1.08-1.95,1.85-3.45,2.7-4.91C59.93,144.86,63,139,66.7,133.58c11.87-17.39,26.7-32.12,42.78-45.52,8.78-7.31,18.34-13.71,29.29-17.59C143.35,68.85,147.91,67.21,153.13,65.34Z"/><path class="cls-1" d="M153.13,65.34c-5.22,1.87-9.78,3.51-14.36,5.13-11,3.88-20.51,10.28-29.29,17.59-16.08,13.4-30.91,28.13-42.78,45.52C63,139,59.93,144.86,56.59,150.53c-.85,1.46-1.62,3-2.7,4.91a48,48,0,0,1-4.11-3.34,102,102,0,0,0-32.17-22.51c-5.46-2.4-7.26-3-4.44-10.58q5.67-15.29,12.11-30.26C28.44,81.4,31.6,74,35.76,67.16,46.66,49.37,60.3,34.17,79,24c8.81-4.82,17.65-9.46,27.44-12,1.93-.49,3.88-.93,5.83-1.32,4.39-.87,7.43.53,10.15,4.41A540.91,540.91,0,0,1,152,62.33,24.46,24.46,0,0,1,153.13,65.34Z"/></g></g></svg>