<svg xmlns="http://www.w3.org/2000/svg" viewBox="0 0 151.49 118.61"><defs><style>.cls-1{fill:#fff;}</style></defs><g id="Layer_2" data-name="Layer 2"><g id="Layer_1-2" data-name="Layer 1"><path d="M49.57,77.32A21.87,21.87,0,0,0,59.94,95c.29,7.29-1.82,13.44-8.28,17.51-3.13,2-6.43,3.7-9.72,5.41-2.59,1.34-4.95.75-7.07-1.23-1.67-1.56-3.7-2.8-5.15-4.53C22.19,103.17,13.57,95,7.8,84.7.4,71.44-2.2,57.39,2,42.52c1.41-5,2.93-9.88,4.74-14.7C12.52,12.51,24.41,4.3,39.66.51a23.17,23.17,0,0,1,11,.35C67.23,5.18,79.54,23.32,77.23,41c-.36,2.76-1.62,5.41-2.6,8.06-.79,2.14-1.89,4.17-2.64,6.32A27.6,27.6,0,0,1,61.74,68.81C57.85,71.64,53.86,74.33,49.57,77.32Zm1.63,22.81A22.25,22.25,0,0,0,49,97.71c-6-4.87-8.12-11.55-9-18.83-.56-4.72.44-6.49,4.88-8.72,1.79-.9,3.63-1.7,5.42-2.59A28.51,28.51,0,0,0,65.46,49.9c.51-1.64,1-3.3,1.49-4.93,4.16-13.07-.9-23.49-9.78-32.52C53,8.2,47.45,6,41.47,7.42c-14.25,3.37-25,11.08-29.3,25.8C10.89,37.6,10,42.1,8.93,46.54c-1.7,7.12-1.1,14.17.42,21.24C11.59,78.2,17.6,86.49,24.23,94.44c3.47,4.17,7,8.31,10.58,12.36a44.59,44.59,0,0,0,4.29,3.79C44.89,108.8,49.46,106.3,51.2,100.13Z"/><path d="M127.48,71.09c4.23,7,7.65,13.73,15.84,15.3,2.18,5,1,8.91-1.89,13a41,41,0,0,1-16.83,13.68c-1.34-1.07-2.88-2.24-4.35-3.49-1.31-1.1-2.45-2.41-3.81-3.43-17.51-13-26.72-30.79-30-52-.22-1.41-.29-2.85-.59-4.24-2.86-13,1.23-24.39,9-34.47,7-9.11,16.44-13.12,28-10.12,9.33,2.42,17.62,6.61,23.19,15,6.19,9.28,7.33,18.91,2.53,29.16-3.74,8-9,14.5-16.74,18.92C130.56,69.05,129.41,69.86,127.48,71.09Zm-11.72-.46c3.06-4.62,7.16-6.63,11.06-9,12.75-7.86,16.63-17.44,14.24-32.85a16.86,16.86,0,0,0-6.72-10.65,31.32,31.32,0,0,0-17.42-6.51,16.52,16.52,0,0,0-14.44,6.14c-6.55,8.08-10,17.54-9,27.86,1,11.09,3.34,22,8.65,32.07,5.66,10.74,12.81,20.1,23.42,26.63A20.18,20.18,0,0,0,134.45,93,55.15,55.15,0,0,1,115.76,70.63Z"/><path class="cls-1" d="M51.2,100.13c-1.74,6.17-6.31,8.67-12.1,10.46a44.59,44.59,0,0,1-4.29-3.79c-3.6-4-7.11-8.19-10.58-12.36-6.63-8-12.64-16.24-14.88-26.66-1.52-7.07-2.12-14.12-.42-21.24,1.06-4.44,2-8.94,3.24-13.32C16.5,18.5,27.22,10.79,41.47,7.42c6-1.41,11.53.78,15.7,5C66.05,21.48,71.11,31.9,67,45c-.52,1.63-1,3.29-1.49,4.93A28.51,28.51,0,0,1,50.27,67.57c-1.79.89-3.63,1.69-5.42,2.59-4.44,2.23-5.44,4-4.88,8.72.86,7.28,3,14,9,18.83A22.25,22.25,0,0,1,51.2,100.13Z"/><path class="cls-1" d="M115.76,70.63A55.15,55.15,0,0,0,134.45,93a20.18,20.18,0,0,1-8.93,11.3c-10.61-6.53-17.76-15.89-23.42-26.63-5.31-10-7.64-21-8.65-32.07-1-10.32,2.48-19.78,9-27.86a16.52,16.52,0,0,1,14.44-6.14,31.32,31.32,0,0,1,17.42,6.51,16.86,16.86,0,0,1,6.72,10.65c2.39,15.41-1.49,25-14.24,32.85C122.92,64,118.82,66,115.76,70.63Z"/></g></g></svg>