<svg xmlns="http://www.w3.org/2000/svg" viewBox="0 0 151.21 108.04"><defs><style>.cls-1{fill:#fff;}</style></defs><g id="Layer_2" data-name="Layer 2"><g id="Layer_1-2" data-name="Layer 1"><path d="M23.74,38.53a16.76,16.76,0,0,0,0-4.07C21.93,27.82,19.94,21.27,15.19,16c-1.52-1.7-2.76-3.59-2.13-6.19.56-2.31,1.15-4.51,3.63-5.41,4-1.45,8-3,12.11-4.11,2.89-.8,5.51.39,8.08,1.94,8.68,5.26,15.85,12.17,22.31,19.87A69.85,69.85,0,0,1,72.33,45a56.49,56.49,0,0,1,.87,32.91c-3.09,11.67-10.44,20.12-22,24.6A48,48,0,0,1,26,105.39c-11-1.73-24.39-11.2-25.81-27.21C-.39,72,.6,65.62,1.71,59.48c1.53-8.42,6.62-14.4,14.58-17.8ZM22.2,11.91c2.95,5,5.65,9.64,8.4,14.25A31.34,31.34,0,0,1,35.4,41c-3.35,3.94-7.89,4.33-11.75,6.05-4,1.8-7.74,4-9.82,7.94-5,9.48-6.56,19.26-2.44,29.67,2.92,7.38,8.24,11.58,15.68,13.14C37.18,100,46.23,97.66,54.29,91c9.51-7.9,12.24-18.77,11.88-30-.38-12-3.41-23.7-12.14-33.11C48.77,22.16,43.62,16.45,37.21,12,32.6,8.83,27.91,7.75,22.2,11.91Z"/><path d="M104.58,34.36c-1.16-8.72-7.83-14.31-10.44-22.28,2.34-6.85,8.63-9,14.77-11.19a4.6,4.6,0,0,1,3.27.4A21.05,21.05,0,0,1,117.91,5C128,15.48,137.68,26.3,144.37,39.55c6.9,13.65,8.69,27.65,4.85,42.35a27.19,27.19,0,0,1-8.11,12.9c-6.89,6.46-15.33,9.67-24.27,12.18-11.42,3.19-20.14-1.12-27.58-9.17-7.81-8.45-11.14-18.46-9.55-30,.23-1.69.33-3.41.56-5.11,1.52-11.3,7.15-19.66,17.57-24.63C100.11,37,102.24,35.66,104.58,34.36ZM103.31,14c2.77,8.67,10.17,14.1,11.45,22.78-1.91,1.25-3.61,2.27-5.21,3.43-3.23,2.36-6.56,4.62-9.57,7.23C87,58.71,86.23,76.71,94.57,90.47c4.41,7.28,12.55,11,20.57,9.21a43.1,43.1,0,0,0,14.2-5.89,24.5,24.5,0,0,0,10.88-14.9c2.2-8.69,2.79-17.4,0-26.27A84.1,84.1,0,0,0,111.37,11c-.39-.32-1.08-.27-2.12-.5Z"/><path class="cls-1" d="M22.2,11.91c5.71-4.16,10.4-3.08,15,.11C43.62,16.45,48.77,22.16,54,27.83c8.73,9.41,11.76,21.08,12.14,33.11.36,11.25-2.37,22.12-11.88,30-8.06,6.7-17.11,9-27.22,6.88-7.44-1.56-12.76-5.76-15.68-13.14C7.27,74.29,8.8,64.51,13.83,55c2.08-3.92,5.79-6.14,9.82-7.94C27.51,45.37,32.05,45,35.4,41a31.34,31.34,0,0,0-4.8-14.88C27.85,21.55,25.15,16.92,22.2,11.91Z"/><path class="cls-1" d="M103.31,14l5.94-3.53c1,.23,1.73.18,2.12.5a84.1,84.1,0,0,1,28.88,41.67c2.76,8.87,2.17,17.58,0,26.27a24.5,24.5,0,0,1-10.88,14.9,43.1,43.1,0,0,1-14.2,5.89c-8,1.81-16.16-1.93-20.57-9.21C86.23,76.71,87,58.71,100,47.42c3-2.61,6.34-4.87,9.57-7.23,1.6-1.16,3.3-2.18,5.21-3.43C113.48,28.08,106.08,22.65,103.31,14Z"/></g></g></svg>