<svg xmlns="http://www.w3.org/2000/svg" viewBox="0 0 80.27 113.88"><defs><style>.cls-1{fill:#fff;}</style></defs><g id="Layer_2" data-name="Layer 2"><g id="Layer_1-2" data-name="Layer 1"><path d="M32.11,47.35a56.89,56.89,0,0,0-12.47-20c-1-1-2.13-1.92-3.17-2.9-4.31-4.06-4.8-6.74-1.18-11S22.76,5.59,26.67,1.82A6.57,6.57,0,0,1,33.89.54,33.24,33.24,0,0,1,39.4,2.9C56.3,13.09,69.26,26.7,76.52,45.39A53.31,53.31,0,0,1,80.11,63c.29,8.57.49,17.17-2.07,25.55a25.65,25.65,0,0,1-8.35,12.65C57.8,111,44.08,114.64,29,113.75c-4-.23-8.18-.35-11.76-1.81C6.12,107.44.32,100.51,0,85.88A35.42,35.42,0,0,1,8.67,61.33,38,38,0,0,1,25.41,49.79C27.29,49.17,29.13,48.44,32.11,47.35ZM22.65,19.73c3.07,3.66,6.14,7.41,9.31,11.08,4.39,5.09,7,11.07,8.85,17.44a3.3,3.3,0,0,1-2.71,4.44c-.56.12-1.14.09-1.71.16C19.1,54.91,5.55,71.79,9.94,91.79c1.69,7.67,6.4,12.09,13.31,14.2a26.26,26.26,0,0,0,11.81.82,75.62,75.62,0,0,0,17.2-5.09c10-4.42,16.54-12.1,18.11-23.27a67.55,67.55,0,0,0-.47-23.9c-1.84-8.34-3.73-16.91-10-23.36-5.15-5.31-10.26-10.8-16.12-15.27C33.69,8.21,32.37,7.05,22.65,19.73Z"/><path class="cls-1" d="M22.65,19.73c9.72-12.68,11-11.52,21.14-3.81,5.86,4.47,11,10,16.12,15.27,6.26,6.45,8.15,15,10,23.36a67.55,67.55,0,0,1,.47,23.9C68.8,89.62,62.3,97.3,52.26,101.72a75.62,75.62,0,0,1-17.2,5.09A26.26,26.26,0,0,1,23.25,106c-6.91-2.11-11.62-6.53-13.31-14.2-4.39-20,9.16-36.88,26.45-38.94.57-.07,1.15,0,1.71-.16a3.3,3.3,0,0,0,2.71-4.44C39,41.88,36.35,35.9,32,30.81,28.79,27.14,25.72,23.39,22.65,19.73Z"/></g></g></svg>