<svg xmlns="http://www.w3.org/2000/svg" viewBox="0 0 135.39 295.8"><defs><style>.cls-1{fill:#fff;}</style></defs><g id="Layer_2" data-name="Layer 2"><g id="Layer_1-2" data-name="Layer 1"><path d="M31.35,261.8c.51-9.05.72-18.19,1.63-27.25.72-7.09,2.33-14.1,3.51-21.15a22.52,22.52,0,0,0,0-3C30,208.9,23.57,208,17.16,206.83c-3.66-.65-7.38-1-11-1.73-4.71-.91-6.34-2.94-6.11-7.74a44.76,44.76,0,0,1,1.18-7.61c1.71-7.52,3.4-15.05,6.69-22.54H25.1c.93-3,2-5.63,2.57-8.38C32.35,137.28,38,116,44,94.77c4.14-14.59,7.49-29.4,11.57-44C59.49,36.7,58.2,38.3,69.15,30c11.85-9,24-17.61,36.09-26.35,2.56-1.86,5.29-3.4,8.6-3.6,3.48-.2,5.49.85,6.66,4.09a54.9,54.9,0,0,1,3,9.85,174.87,174.87,0,0,0,6.87,26.55c2,6,3,12.22,4.66,18.29,1,3.56,0,6.86-.93,10.13-2.84,9.9-5.74,19.78-8.84,29.6-5.77,18.3-10.44,36.88-14.72,55.56-2.11,9.2-4.08,18.44-6.22,27.63a71.54,71.54,0,0,1-2.37,6.82c2.78.92,5.16,1.7,7.53,2.5,4.53,1.54,6.06,3.54,5.87,8.19a33.1,33.1,0,0,1-1.08,5.87c-1.33,5.85-2.67,11.7-4.09,17.54-.92,3.8-1,3.79-6.26,6.25-7.64-6.49-17.2-8-26.91-10.37-3.9,7.55-5.43,15.44-8.35,22.8-2.84,7.16-5.87,14.25-8.89,21.56A28,28,0,0,1,64,275.75c.36,6-1.6,10.89-6.39,14.2-5.68,3.93-11.79,7.05-19.2,5.39a19.52,19.52,0,0,1-9.66-5.27c-5-4.92-6.52-10.83-3.8-17.28C26.61,268.9,29.21,265.41,31.35,261.8Zm62.4-76.43c1.06-4.28,1.92-7.88,2.83-11.47C102.14,152,107.34,130,113.4,108.26c3.75-13.48,8.17-26.78,11.52-40.38a17.79,17.79,0,0,0,.52-8.42c-1.79-8.1-3.52-16.19-6.37-24a66.53,66.53,0,0,1-2.16-8.3c-1.32-5.78-2.57-11.58-4-18.09a38.68,38.68,0,0,0-5.09,2.48C100.55,16.62,93.29,21.71,86.17,27,81.34,30.56,76.74,34.43,72,38.18c-3.73,3-5.74,6.89-6.85,11.53Q62,63,58.28,76.24c-3.7,13.22-7.92,26.3-11.33,39.59-4.12,16-7.63,32.27-11.36,48.42a50,50,0,0,0-.63,5.32c5,1.27,9.74,2.41,14.42,3.65q7.45,2,14.87,4.1c4.67,1.34,9.29,2.87,14,4.2C83.11,182.91,87.8,185.14,93.75,185.37Zm8.84,31.12c1.14-4.43,2.31-8.53,3.24-12.67.76-3.38.1-4.35-3.51-5.59-22.17-7.62-44.38-15.14-67.39-19.87-6.63-1.37-13.3-3-20.33-2.76-3.95,6.55-4.16,13.63-5.4,21.32,6.41,2,12.75,1.71,18.79,2.93s12.44,1.83,18.63,2.91c6.47,1.13,12.91,2.43,19.33,3.81,6.14,1.33,12.28,2.69,18.35,4.34S96.26,214.54,102.59,216.49Zm-54.91-4.55c-3.15,4.4-2.3,8.66-3.3,12.46-2.43,9.21-3,18.65-3.15,28.11a38.51,38.51,0,0,0,.6,5.27l9.34.76c7.14-10.9,15.36-33,15.71-42.27-2.57-.76-5.24-1.72-8-2.32C55.29,213.15,51.63,212.63,47.68,211.94Zm5.93,63.42c.6-4.79-2.17-7.86-6.08-10.06a5.63,5.63,0,0,0-4-.46c-6.83,2.05-10.64,12.13-7,18.26,2.9,4.93,8.65,5.84,13,2.12C52.51,282.65,54.11,279.54,53.61,275.36Z"/><path class="cls-1" d="M93.75,185.37c-6-.23-10.64-2.46-15.54-3.85-4.67-1.33-9.29-2.86-14-4.2q-7.41-2.15-14.87-4.1C44.7,172,40,170.84,35,169.57a50,50,0,0,1,.63-5.32c3.73-16.15,7.24-32.37,11.36-48.42,3.41-13.29,7.63-26.37,11.33-39.59Q62,63,65.19,49.71c1.11-4.64,3.12-8.55,6.85-11.53,4.7-3.75,9.3-7.62,14.13-11.19,7.12-5.28,14.38-10.37,21.65-15.45a38.68,38.68,0,0,1,5.09-2.48c1.43,6.51,2.68,12.31,4,18.09a66.53,66.53,0,0,0,2.16,8.3c2.85,7.82,4.58,15.91,6.37,24a17.79,17.79,0,0,1-.52,8.42c-3.35,13.6-7.77,26.9-11.52,40.38C107.34,130,102.14,152,96.58,173.9,95.67,177.49,94.81,181.09,93.75,185.37Z"/><path class="cls-1" d="M102.59,216.49c-6.33-2-12.26-4-18.29-5.58s-12.21-3-18.35-4.34c-6.42-1.38-12.86-2.68-19.33-3.81-6.19-1.08-12.48-1.66-18.63-2.91s-12.38-1-18.79-2.93c1.24-7.69,1.45-14.77,5.4-21.32,7-.28,13.7,1.39,20.33,2.76,23,4.73,45.22,12.25,67.39,19.87,3.61,1.24,4.27,2.21,3.51,5.59C104.9,208,103.73,212.06,102.59,216.49Z"/><path class="cls-1" d="M47.68,211.94c4,.69,7.61,1.21,11.21,2,2.75.6,5.42,1.56,8,2.32-.35,9.31-8.57,31.37-15.71,42.27l-9.34-.76a38.51,38.51,0,0,1-.6-5.27c.2-9.46.72-18.9,3.15-28.11C45.38,220.6,44.53,216.34,47.68,211.94Z"/><path class="cls-1" d="M53.61,275.36c.5,4.18-1.1,7.29-4.11,9.86-4.35,3.72-10.1,2.81-13-2.12-3.6-6.13.21-16.21,7-18.26a5.63,5.63,0,0,1,4,.46C51.44,267.5,54.21,270.57,53.61,275.36Z"/></g></g></svg>