<svg width="64" height="64" viewBox="0 0 64 64" fill="none" xmlns="http://www.w3.org/2000/svg">
<path d="M22.4541 33.7678L24.2219 32L22.4541 30.2323L11.1404 18.9185C8.99248 16.7706 8.99248 13.2882 11.1404 11.1404C13.2882 8.99247 16.7707 8.99247 18.9185 11.1404L30.2323 22.4541L32 24.2218L33.7678 22.4541L45.0815 11.1404C47.2294 8.99248 50.7118 8.99248 52.8597 11.1404C55.0076 13.2883 55.0076 16.7707 52.8597 18.9185L41.546 30.2322L39.7782 32L41.546 33.7678L52.8597 45.0815C55.0075 47.2294 55.0075 50.7118 52.8597 52.8596C50.7118 55.0075 47.2294 55.0075 45.0815 52.8597L33.7678 41.546L32 39.7782L30.2323 41.546L18.9186 52.8597C16.7707 55.0075 13.2883 55.0076 11.1404 52.8597C8.9925 50.7118 8.9925 47.2294 11.1404 45.0815L22.4541 33.7678Z" stroke="black" stroke-width="5"/>
</svg>
