<svg width="64" height="64" viewBox="0 0 64 64" fill="none" xmlns="http://www.w3.org/2000/svg">
<path d="M36.75 5.62918L52.4628 14.701C55.4021 16.398 57.2128 19.5342 57.2128 22.9282V41.0718C57.2128 44.4658 55.4021 47.602 52.4628 49.299L36.75 58.3708C33.8107 60.0678 30.1893 60.0678 27.25 58.3708L11.5372 49.299C8.59789 47.602 6.7872 44.4658 6.7872 41.0718V22.9282C6.7872 19.5342 8.59789 16.398 11.5372 14.701L27.25 5.62918C30.1893 3.93216 33.8107 3.93216 36.75 5.62918Z" stroke="black" stroke-width="5"/>
<path d="M32 42.5C37.799 42.5 42.5 37.799 42.5 32C42.5 26.201 37.799 21.5 32 21.5C26.201 21.5 21.5 26.201 21.5 32C21.5 37.799 26.201 42.5 32 42.5Z" stroke="black" stroke-width="5"/>
</svg>
