<svg width="24" height="24" viewBox="0 0 24 24" fill="none" xmlns="http://www.w3.org/2000/svg">
<path fill-rule="evenodd" clip-rule="evenodd" d="M14.4495 4.55496C15.264 4.31224 15.8631 4.48427 16.1 4.80008C16.4013 5.20183 16.4765 5.57306 16.4336 5.91425C16.3888 6.27089 16.2084 6.63998 15.9211 7.0014C15.3397 7.73276 14.4193 8.30878 13.8244 8.53187C13.598 8.61674 13.4648 8.85139 13.508 9.08924C13.5511 9.3271 13.7582 9.50003 13.9999 9.50003L19.4999 9.50003V12.5H17.9999C17.7237 12.5 17.4999 12.7239 17.4999 13V20.5H6.49988V14.5C6.49988 14.2239 6.27602 14 5.99988 14C5.72374 14 5.49988 14.2239 5.49988 14.5V21C5.49988 21.2762 5.72374 21.5 5.99988 21.5H17.9999C18.276 21.5 18.4999 21.2762 18.4999 21V13.5H19.9999C20.276 13.5 20.4999 13.2762 20.4999 13V9.00003C20.4999 8.86742 20.4472 8.74024 20.3534 8.64647C20.2597 8.5527 20.1325 8.50003 19.9999 8.50003L15.8202 8.50003C16.1407 8.24236 16.4465 7.94742 16.7039 7.62365C17.0625 7.17257 17.3508 6.63542 17.4258 6.03894C17.5027 5.42703 17.3487 4.79827 16.8999 4.20004C16.2882 3.38451 15.1373 3.30652 14.1639 3.59661C13.3806 3.83006 12.5842 4.32791 12.0008 5.07015C11.4285 4.33983 10.6586 3.86465 9.88727 3.64428C8.91382 3.36617 7.82238 3.47046 7.14633 4.14646C6.65753 4.63524 6.41235 5.18235 6.41347 5.75926C6.41457 6.32145 6.64952 6.84017 6.97799 7.28883C7.30058 7.72947 7.7389 8.1377 8.22434 8.50003L3.99988 8.50003C3.86727 8.50003 3.74009 8.5527 3.64632 8.64647C3.55256 8.74024 3.49988 8.86742 3.49988 9.00003V13C3.49988 13.2762 3.72374 13.5 3.99988 13.5H15.4999C15.776 13.5 15.9999 13.2762 15.9999 13C15.9999 12.7239 15.776 12.5 15.4999 12.5H4.49988V9.50003L9.99995 9.50003C10.2318 9.50003 10.4333 9.34059 10.4866 9.11491C10.5398 8.88922 10.431 8.65652 10.2236 8.55282C9.25206 8.06707 8.29723 7.39797 7.78487 6.69812C7.53216 6.35293 7.41402 6.03723 7.41347 5.75731C7.41295 5.4921 7.51758 5.18941 7.85342 4.85359C8.17738 4.52965 8.83597 4.38394 9.61256 4.60581C10.3657 4.82097 11.1212 5.36046 11.5528 6.22359C11.6375 6.39298 11.8106 6.49998 12 6.49998C12.1894 6.49998 12.3625 6.39298 12.4472 6.22359C12.8783 5.36142 13.672 4.78668 14.4495 4.55496Z" fill="black"/>
</svg>
