<svg width="24" height="24" viewBox="0 0 24 24" fill="none" xmlns="http://www.w3.org/2000/svg">
<path fill-rule="evenodd" clip-rule="evenodd" d="M14.2141 2.51823C14.3738 2.47387 14.5451 2.51158 14.6715 2.61891L17.2706 4.82653H21C21.1696 4.82653 21.3276 4.91246 21.4197 5.05479C21.5119 5.19711 21.5256 5.37644 21.4562 5.53115L19.9828 8.81633L21.4562 12.1015C21.5328 12.2722 21.5077 12.4712 21.3912 12.6176C21.2747 12.7639 21.0863 12.8329 20.9028 12.7966L17.2716 12.0769L14.7226 14.9636C14.5926 15.1109 14.3883 15.1683 14.2006 15.1105C14.0128 15.0526 13.8763 14.8902 13.8518 14.6952L13.5998 12.6981C12.337 14.2152 10.4921 16.8803 9.48647 21.1155C9.43671 21.3251 9.2583 21.4793 9.04371 21.4981C8.82912 21.5169 8.62659 21.3962 8.54108 21.1985C8.18121 20.3664 7.62484 19.0668 7.51806 17.154C7.02855 17.3036 6.40766 17.5196 5.77496 17.7903C4.82641 18.1962 3.90894 18.7012 3.35194 19.2531C3.15579 19.4475 2.83921 19.446 2.64484 19.2499C2.45047 19.0537 2.45191 18.7372 2.64806 18.5428C3.34323 17.8539 4.40403 17.2892 5.38157 16.8709C6.37042 16.4478 7.33303 16.1501 7.87977 16.0147C8.02904 15.9777 8.18702 16.0115 8.30813 16.1062C8.42924 16.201 8.5 16.3462 8.5 16.5C8.5 17.6804 8.68763 18.6262 8.91994 19.3853C10.2827 14.9326 12.5023 12.388 13.5864 11.1944C13.7176 11.0499 13.921 10.995 14.1071 11.0538C14.2933 11.1126 14.4282 11.2744 14.4526 11.468L14.7054 13.4723L16.7122 11.1997C16.8299 11.0663 17.0097 11.0056 17.1842 11.0402L20.1476 11.6275L18.9786 9.02094C18.9202 8.89078 18.9202 8.74187 18.9786 8.61171L20.2278 5.82653H17.087C16.9684 5.82653 16.8537 5.78439 16.7633 5.70762L14.5862 3.85847L13.4738 7.15966C13.4283 7.29472 13.3273 7.40394 13.1962 7.45988L10.8399 8.46535L13.0069 9.55314C13.1819 9.64096 13.2895 9.82279 13.2823 10.0184C13.2751 10.214 13.1544 10.3875 12.9734 10.4622C11.4425 11.0942 7.62825 12.9966 4.88556 16.3183C4.70974 16.5313 4.39459 16.5614 4.18165 16.3856C3.96872 16.2097 3.93862 15.8946 4.11444 15.6817C6.52816 12.7583 9.70366 10.8951 11.618 9.97483L9.42786 8.87543C9.25386 8.78809 9.14639 8.60769 9.15241 8.4131C9.15844 8.2185 9.27687 8.0451 9.45594 7.96869L12.5977 6.62804L13.874 2.84034C13.9269 2.68323 14.0543 2.56258 14.2141 2.51823Z" fill="black"/>
</svg>
