<svg width="24" height="24" viewBox="0 0 24 24" fill="none" xmlns="http://www.w3.org/2000/svg">
<path fill-rule="evenodd" clip-rule="evenodd" d="M10.991 3.50155C10.8864 3.51226 10.6464 3.5997 10.2695 4.14682C9.99564 4.54423 9.62885 4.73134 9.26661 4.81997C8.98926 4.88783 8.68625 4.90207 8.44406 4.91345C8.39621 4.9157 8.35074 4.91784 8.30831 4.92026C8.01635 4.93689 7.82219 4.96575 7.67621 5.03811C7.55966 5.09588 7.43693 5.1998 7.34349 5.47104C7.32802 5.51593 7.32069 5.66083 7.44887 5.945C7.56802 6.20914 7.76743 6.51118 8.01008 6.81111C8.25061 7.10843 8.52008 7.38702 8.76499 7.60453C9.02352 7.83414 9.21261 7.95786 9.29451 7.99133C9.44862 8.0543 9.56128 8.18984 9.59502 8.35286C9.62875 8.51588 9.57914 8.685 9.46268 8.80396C9.08794 9.18675 7.3788 11.128 6.06401 13.313C5.40569 14.407 4.86528 15.5313 4.62825 16.5328C4.38952 17.5414 4.48012 18.3209 4.92637 18.8527C5.40286 19.4205 6.44912 19.8809 7.90895 20.169C9.33738 20.4509 11.051 20.5471 12.7293 20.479C14.4085 20.411 16.0256 20.1795 17.2622 19.8206C17.8817 19.6407 18.3861 19.4345 18.7507 19.2134C19.1258 18.9859 19.2904 18.781 19.3416 18.6324C19.55 18.0275 19.5503 17.2639 19.3568 16.4071C19.1644 15.5549 18.7875 14.6448 18.2849 13.7722C17.2696 12.0099 15.8003 10.4986 14.455 9.91869C13.5871 9.54452 12.9291 9.39003 12.3991 9.36596C11.8773 9.34227 11.4556 9.44386 11.0539 9.6197C10.8009 9.73045 10.5061 9.61515 10.3954 9.36219C10.2846 9.10923 10.3999 8.81438 10.6529 8.70364C11.1758 8.47472 11.7498 8.33545 12.4445 8.36699C13.1311 8.39816 13.9105 8.59499 14.8509 9.00039C16.4687 9.6978 18.0777 11.4093 19.1514 13.273C19.6931 14.2135 20.1133 15.2172 20.3323 16.1868C20.5502 17.1518 20.5764 18.1181 20.287 18.9582C20.1243 19.4305 19.7255 19.7917 19.2692 20.0684C18.8025 20.3515 18.2074 20.5875 17.5409 20.7809C16.2055 21.1686 14.5041 21.4079 12.7698 21.4782C11.0345 21.5486 9.2394 21.4509 7.71533 21.1501C6.22266 20.8555 4.87262 20.3443 4.16033 19.4955C3.41781 18.6106 3.38521 17.4429 3.65513 16.3024C3.92676 15.1548 4.52685 13.928 5.20718 12.7974C6.29115 10.996 7.62715 9.36059 8.33843 8.55236C8.25847 8.48884 8.17877 8.42134 8.10094 8.35222C7.81534 8.09857 7.5079 7.78031 7.23263 7.44006C6.95948 7.10242 6.70421 6.72616 6.53732 6.35619C6.37947 6.00624 6.25473 5.56123 6.39802 5.14531C6.56827 4.65114 6.85671 4.32822 7.2321 4.14214C7.57807 3.97065 7.95663 3.93867 8.25145 3.92187C8.31439 3.91829 8.37377 3.91533 8.43016 3.91252C8.66901 3.90062 8.85417 3.89139 9.02896 3.84862C9.2149 3.80313 9.34366 3.72798 9.446 3.57944C9.87842 2.95185 10.3428 2.56274 10.8891 2.50675C11.4242 2.45192 11.8611 2.73994 12.1694 2.98062C12.2898 3.0746 12.413 3.18032 12.5267 3.2778C12.5636 3.30949 12.5995 3.3403 12.634 3.36956C12.7827 3.49569 12.9174 3.60441 13.0504 3.69127C13.3123 3.8623 13.5112 3.91282 13.7167 3.86036C14.0522 3.77467 14.3316 3.63718 14.5802 3.49537C14.6622 3.44862 14.7319 3.40678 14.8023 3.36445C14.8461 3.33818 14.8901 3.31173 14.9376 3.28379C15.0478 3.21896 15.1745 3.14754 15.3024 3.09737C15.4291 3.04766 15.6064 2.99839 15.8054 3.03151C16.0226 3.06769 16.1902 3.18854 16.3108 3.34054C16.4222 3.48087 16.4996 3.65402 16.5602 3.83405C16.6224 4.01875 16.6771 4.24249 16.7288 4.50623C16.9083 5.42328 16.7626 6.34416 16.5288 7.06126C16.4111 7.42218 16.2673 7.7433 16.1206 7.99909C15.9856 8.23423 15.8133 8.47669 15.6153 8.61155C15.387 8.76699 15.076 8.70797 14.9206 8.47973C14.7651 8.25148 14.8241 7.94045 15.0524 7.78502C15.0508 7.78612 15.0499 7.78671 15.0499 7.78667C15.0497 7.78645 15.0697 7.76998 15.1073 7.72247C15.1485 7.67047 15.1984 7.59688 15.2532 7.50141C15.3627 7.31063 15.4796 7.0532 15.5781 6.75124C15.7765 6.14258 15.8849 5.4004 15.7474 4.69838C15.7 4.45616 15.6551 4.27973 15.6124 4.1531C15.6013 4.12003 15.5909 4.09215 15.5814 4.06879C15.5445 4.08814 15.4998 4.1133 15.4446 4.14575C15.4125 4.16461 15.375 4.18712 15.3341 4.21167C15.2556 4.25872 15.1646 4.31327 15.0757 4.36399C14.7881 4.52806 14.4211 4.71256 13.9641 4.82926C13.377 4.97919 12.8841 4.77701 12.5037 4.52858C12.3155 4.40571 12.1413 4.263 11.987 4.13205C11.943 4.09466 11.9011 4.05876 11.8607 4.02413C11.7523 3.93115 11.6546 3.8474 11.554 3.76883C11.2671 3.54482 11.1067 3.48969 10.991 3.50155ZM15.6956 4.01897C15.6956 4.01899 15.6952 4.01909 15.6944 4.01924L15.6956 4.01897Z" fill="black"/>
</svg>
