<svg width="24" height="24" viewBox="0 0 24 24" fill="none" xmlns="http://www.w3.org/2000/svg">
<path fill-rule="evenodd" clip-rule="evenodd" d="M11.5327 2.51384C13.1221 2.63554 14.728 3.5799 15.1309 5.12645C15.4264 6.26057 15.2736 7.47293 14.9963 8.4678C14.8904 8.84798 14.7633 9.20661 14.6294 9.52777C15.3631 9.76673 16.1032 10.0508 16.8581 10.3406C16.8867 10.3516 16.9153 10.3626 16.9439 10.3735C18.0681 10.805 18.9259 10.4866 19.5288 9.90807C20.1627 9.29985 20.5 8.41249 20.5 7.79244C20.5 7.5163 20.7239 7.29244 21 7.29244C21.2761 7.29244 21.5 7.5163 21.5 7.79244C21.5 8.69633 21.0432 9.8409 20.2212 10.6296C19.3683 11.448 18.1083 11.8916 16.5855 11.3071C16.518 11.2812 16.4509 11.2555 16.384 11.2299C16.5807 11.3807 16.7657 11.5423 16.9374 11.7154C17.7732 12.5586 18.2706 13.6543 18.2706 15.0266C18.2706 18.6265 15.2007 21.5 11.4706 21.5C7.74047 21.5 4.67059 18.6265 4.67059 15.0266C4.67059 13.8623 4.99377 12.7701 5.55761 11.8274L2.6624 9.17722C2.45871 8.99077 2.44474 8.6745 2.63119 8.47081C2.81764 8.26712 3.13392 8.25314 3.33761 8.4396L6.54414 11.3748C6.72882 11.5438 6.75999 11.8234 6.61709 12.029C6.01762 12.8914 5.67059 13.9208 5.67059 15.0266C5.67059 18.0247 8.24193 20.5 11.4706 20.5C14.6993 20.5 17.2706 18.0247 17.2706 15.0266C17.2706 13.9226 16.8806 13.0786 16.2272 12.4195C15.5617 11.7481 14.6015 11.2487 13.4438 10.8995C13.2876 10.8524 13.1642 10.7319 13.1132 10.5769C13.0659 10.4327 13.0867 10.2756 13.1684 10.1492C11.7365 9.80098 10.4022 9.75402 9.00269 10.2912C8.82183 10.3606 8.61714 10.3193 8.47736 10.1851C7.32389 9.07837 6.38935 7.25226 7.3032 5.0601C8.11765 3.1064 9.90225 2.38899 11.5327 2.51384ZM13.6642 9.24206C13.7949 8.94101 13.925 8.58701 14.0331 8.19932C14.2852 7.29472 14.3971 6.27635 14.1632 5.37858C13.9044 4.38514 12.7848 3.61264 11.4563 3.51092C10.1689 3.41233 8.84317 3.9649 8.22621 5.44488C7.57533 7.00623 8.1102 8.3246 8.9565 9.24581C10.5703 8.70935 12.1117 8.83445 13.6642 9.24206Z" fill="black"/>
</svg>
