<svg width="24" height="24" viewBox="0 0 24 24" fill="none" xmlns="http://www.w3.org/2000/svg">
<path d="M18.5 8V7.5C18.3649 7.5 18.2356 7.55463 18.1415 7.65146C18.0474 7.74829 17.9964 7.87909 18.0002 8.01408L18.5 8ZM16 8.5C16.2761 8.5 16.5 8.27614 16.5 8C16.5 7.72386 16.2761 7.5 16 7.5V8.5ZM10.4969 9.44478C10.4664 9.17033 10.2192 8.97256 9.94478 9.00306C9.67033 9.03355 9.47256 9.28076 9.50306 9.55522L10.4969 9.44478ZM10.5 14L10.4622 14.4986C10.6106 14.5098 10.7563 14.4544 10.8597 14.3473C10.9631 14.2402 11.0134 14.0927 10.9969 13.9448L10.5 14ZM3.01446 17.6188L3.51213 17.667L3.51213 17.667L3.01446 17.6188ZM9.42329 20.9409L9.46094 20.4423L9.46094 20.4423L9.42329 20.9409ZM17.7473 17.4688L17.2627 17.3459L17.2627 17.3459L17.7473 17.4688ZM9.5 3.5H18.5V2.5H9.5V3.5ZM9.5 7.5C8.39543 7.5 7.5 6.60457 7.5 5.5H6.5C6.5 7.15685 7.84314 8.5 9.5 8.5V7.5ZM20.5 5.5C20.5 6.60457 19.6046 7.5 18.5 7.5V8.5C20.1569 8.5 21.5 7.15685 21.5 5.5H20.5ZM18.5 3.5C19.6046 3.5 20.5 4.39543 20.5 5.5H21.5C21.5 3.84315 20.1569 2.5 18.5 2.5V3.5ZM9.5 2.5C7.84315 2.5 6.5 3.84315 6.5 5.5H7.5C7.5 4.39543 8.39543 3.5 9.5 3.5V2.5ZM16 7.5H9.5V8.5H16V7.5ZM9.50306 9.55522L10.0031 14.0552L10.9969 13.9448L10.4969 9.44478L9.50306 9.55522ZM10.5378 13.5014C9.38337 13.414 7.509 13.6247 5.87759 14.2209C4.28741 14.802 2.68395 15.8453 2.51679 17.5706L3.51213 17.667C3.61819 16.5724 4.67687 15.7244 6.22084 15.1602C7.72358 14.611 9.45538 14.4223 10.4622 14.4986L10.5378 13.5014ZM2.51679 17.5706C2.42592 18.5085 2.70972 19.2509 3.24501 19.8089C3.76151 20.3473 4.48 20.6813 5.21519 20.8994C6.67453 21.3322 8.43635 21.3678 9.38564 21.4394L9.46094 20.4423C8.42199 20.3638 6.82483 20.3337 5.49953 19.9406C4.8424 19.7457 4.31216 19.4768 3.96664 19.1166C3.63991 18.7761 3.44843 18.3244 3.51213 17.667L2.51679 17.5706ZM9.38564 21.4394C10.4503 21.5198 12.3638 21.5665 14.1459 21.1142C15.9205 20.6638 17.7034 19.6766 18.232 17.5916L17.2627 17.3459C16.868 18.9024 15.534 19.7302 13.8999 20.1449C12.2734 20.5578 10.4865 20.5197 9.46094 20.4423L9.38564 21.4394ZM18.232 17.5916C19.0031 14.5504 19.0549 9.94248 18.9998 7.98592L18.0002 8.01408C18.0551 9.96232 17.9969 14.4496 17.2627 17.3459L18.232 17.5916Z" fill="black"/>
</svg>
