<svg width="24" height="24" viewBox="0 0 24 24" fill="none" xmlns="http://www.w3.org/2000/svg">
<path d="M7 8L6.64645 7.64645C6.50345 7.78945 6.46067 8.0045 6.53806 8.19134C6.61545 8.37818 6.79777 8.5 7 8.5V8ZM12 3L12.3536 2.64645C12.1583 2.45118 11.8417 2.45118 11.6464 2.64645L12 3ZM17 8V8.5C17.2022 8.5 17.3845 8.37818 17.4619 8.19134C17.5393 8.0045 17.4966 7.78945 17.3536 7.64645L17 8ZM14 8V7.5C13.7978 7.5 13.6155 7.62182 13.5381 7.80866C13.4607 7.9955 13.5034 8.21055 13.6464 8.35355L14 8ZM19 13V13.5C19.2022 13.5 19.3845 13.3782 19.4619 13.1913C19.5393 13.0045 19.4966 12.7894 19.3536 12.6464L19 13ZM14 13V12.5C13.7895 12.5 13.6015 12.6319 13.5299 12.8298C13.4582 13.0277 13.5182 13.2493 13.6799 13.3841L14 13ZM20 18V18.5C20.2105 18.5 20.3985 18.3681 20.4701 18.1702C20.5418 17.9723 20.4818 17.7507 20.3201 17.6159L20 18ZM14 18V17.5C13.7239 17.5 13.5 17.7239 13.5 18H14ZM13.5 21C13.5 21.2761 13.7239 21.5 14 21.5C14.2761 21.5 14.5 21.2761 14.5 21H13.5ZM10 8L10.3536 8.35355C10.4966 8.21055 10.5393 7.9955 10.4619 7.80866C10.3845 7.62182 10.2022 7.5 10 7.5V8ZM5 13L4.64645 12.6464C4.50345 12.7894 4.46067 13.0045 4.53806 13.1913C4.61545 13.3782 4.79777 13.5 5 13.5V13ZM10 13L10.3201 13.3841C10.4818 13.2493 10.5418 13.0277 10.4701 12.8298C10.3985 12.6319 10.2105 12.5 10 12.5V13ZM4 18L3.67991 17.6159C3.51819 17.7507 3.4582 17.9723 3.52986 18.1702C3.60153 18.3681 3.78949 18.5 4 18.5V18ZM10 18H10.5C10.5 17.7239 10.2761 17.5 10 17.5V18ZM9.5 20C9.5 20.2761 9.72386 20.5 10 20.5C10.2761 20.5 10.5 20.2761 10.5 20H9.5ZM7.35355 8.35355L12.3536 3.35355L11.6464 2.64645L6.64645 7.64645L7.35355 8.35355ZM11.6464 3.35355L16.6464 8.35355L17.3536 7.64645L12.3536 2.64645L11.6464 3.35355ZM17 7.5H14V8.5H17V7.5ZM13.6464 8.35355L18.6464 13.3536L19.3536 12.6464L14.3536 7.64645L13.6464 8.35355ZM19 12.5H14V13.5H19V12.5ZM13.6799 13.3841L19.6799 18.3841L20.3201 17.6159L14.3201 12.6159L13.6799 13.3841ZM20 17.5H14V18.5H20V17.5ZM13.5 18V21H14.5V18H13.5ZM7 8.5H10V7.5H7V8.5ZM9.64645 7.64645L4.64645 12.6464L5.35355 13.3536L10.3536 8.35355L9.64645 7.64645ZM5 13.5H10V12.5H5V13.5ZM9.67991 12.6159L3.67991 17.6159L4.32009 18.3841L10.3201 13.3841L9.67991 12.6159ZM4 18.5H10V17.5H4V18.5ZM9.5 18V20H10.5V18H9.5Z" fill="black"/>
</svg>
