<svg width="24" height="24" viewBox="0 0 24 24" fill="none" xmlns="http://www.w3.org/2000/svg">
<path d="M14.9153 9.20707L14.4785 8.96378C14.3858 9.13016 14.3957 9.33473 14.504 9.49138C14.6123 9.64804 14.8002 9.72957 14.9886 9.70167L14.9153 9.20707ZM8.31655 9.24045L8.26506 9.73779C8.45138 9.75708 8.63285 9.67061 8.73524 9.51375C8.83763 9.3569 8.84376 9.15597 8.75112 8.99317L8.31655 9.24045ZM4.08317 10.7991L4.56768 10.9226L4.08317 10.7991ZM8.84165 14.1415C9.11687 14.119 9.32175 13.8776 9.29925 13.6024C9.27675 13.3272 9.0354 13.1223 8.76017 13.1448L8.84165 14.1415ZM6.13497 17.3404L5.92399 16.8871L6.13497 17.3404ZM7.41737 20.9465L7.50516 21.4387L7.50516 21.4387L7.41737 20.9465ZM11.521 17.7597L11.9665 17.5327C11.8801 17.3631 11.7049 17.2573 11.5146 17.2598C11.3244 17.2622 11.152 17.3724 11.0699 17.5441L11.521 17.7597ZM16.3942 20.9465L16.34 20.4494L16.34 20.4494L16.3942 20.9465ZM18.9589 18.0952L19.4489 17.9953C19.4473 17.9874 19.4455 17.9795 19.4435 17.9717L18.9589 18.0952ZM14.0777 13.6903L14.0963 13.1906C13.9331 13.1845 13.7772 13.2585 13.6787 13.3888C13.5803 13.5191 13.5517 13.6893 13.6021 13.8446L14.0777 13.6903ZM18.8793 10.512L19.3585 10.3691L19.3585 10.3691L18.8793 10.512ZM8.46345 15.952C8.62248 15.7262 8.56838 15.4143 8.34263 15.2553C8.11687 15.0963 7.80495 15.1504 7.64592 15.3761L8.46345 15.952ZM14.9537 7.10924C14.9537 7.7896 14.7795 8.42334 14.4785 8.96378L15.3521 9.45035C15.7351 8.76263 15.9537 7.96163 15.9537 7.10924H14.9537ZM11.6065 3.5C13.4246 3.5 14.9537 5.08437 14.9537 7.10924H15.9537C15.9537 4.59517 14.0379 2.5 11.6065 2.5V3.5ZM8.25934 7.10924C8.25934 5.08437 9.78845 3.5 11.6065 3.5V2.5C9.17512 2.5 7.25934 4.59517 7.25934 7.10924H8.25934ZM8.75112 8.99317C8.43998 8.44636 8.25934 7.80196 8.25934 7.10924H7.25934C7.25934 7.97713 7.48595 8.79174 7.88198 9.48773L8.75112 8.99317ZM4.56768 10.9226C4.70548 10.3819 5.11813 10.04 5.79769 9.84881C6.48904 9.65429 7.37549 9.64569 8.26506 9.73779L8.36804 8.7431C7.42897 8.64589 6.39625 8.64157 5.52684 8.88618C4.64564 9.13412 3.85591 9.66623 3.59866 10.6757L4.56768 10.9226ZM8.76017 13.1448C7.43977 13.2527 6.21986 13.1094 5.42471 12.7145C5.03423 12.5206 4.77571 12.2812 4.63564 12.0102C4.49923 11.7463 4.44661 11.3977 4.56768 10.9226L3.59866 10.6757C3.42827 11.3442 3.47926 11.9508 3.7473 12.4694C4.01169 12.9809 4.45847 13.3512 4.9799 13.6102C6.0086 14.1211 7.43903 14.2561 8.84165 14.1415L8.76017 13.1448ZM7.32958 20.4542C6.11521 20.6708 5.49805 20.1288 5.33088 19.5873C5.15734 19.0251 5.39017 18.2386 6.34595 17.7937L5.92399 16.8871C4.57293 17.5159 4.03632 18.784 4.37537 19.8822C4.72079 21.0011 5.89825 21.7253 7.50516 21.4387L7.32958 20.4542ZM11.0699 17.5441C10.6794 18.3614 9.36596 20.0911 7.32958 20.4542L7.50516 21.4387C9.98283 20.9968 11.5078 18.9471 11.9722 17.9753L11.0699 17.5441ZM16.34 20.4494C15.2858 20.5643 14.3469 20.1381 13.5752 19.507C12.801 18.8738 12.2393 18.0678 11.9665 17.5327L11.0756 17.9868C11.4013 18.6257 12.045 19.5473 12.9421 20.281C13.8419 21.0169 15.0403 21.597 16.4483 21.4435L16.34 20.4494ZM18.469 18.1951C18.5346 18.5167 18.5133 19.0271 18.2386 19.4719C17.9787 19.8928 17.4462 20.3289 16.34 20.4494L16.4483 21.4435C17.8044 21.2957 18.6397 20.7255 19.0894 19.9974C19.5242 19.2933 19.5543 18.5123 19.4489 17.9953L18.469 18.1951ZM16.7361 17.3372C18.0715 17.3372 18.4214 18.0107 18.4744 18.2186L19.4435 17.9717C19.2685 17.2851 18.491 16.3372 16.7361 16.3372V17.3372ZM13.6021 13.8446C13.85 14.6084 14.1026 15.4777 14.5312 16.1351C14.7533 16.4758 15.0349 16.782 15.408 17.0011C15.7837 17.2217 16.224 17.3372 16.7361 17.3372V16.3372C16.3802 16.3372 16.1188 16.2588 15.9143 16.1387C15.707 16.017 15.5297 15.8357 15.3689 15.589C15.0318 15.0719 14.8232 14.3676 14.5532 13.5359L13.6021 13.8446ZM14.059 14.1899C15.5148 14.2442 16.9945 14.0355 18.0421 13.459C18.5725 13.1672 19.0203 12.765 19.2741 12.2272C19.5317 11.6816 19.5626 11.0534 19.3585 10.3691L18.4002 10.6549C18.5462 11.1443 18.5052 11.5135 18.3698 11.8003C18.2307 12.095 17.9643 12.3604 17.56 12.5829C16.7384 13.035 15.4672 13.2417 14.0963 13.1906L14.059 14.1899ZM19.3585 10.3691C19.079 9.4321 18.3375 8.94983 17.5065 8.74288C16.6918 8.54001 15.7318 8.58069 14.8421 8.71246L14.9886 9.70167C15.827 9.57749 16.636 9.55666 17.2648 9.71325C17.8773 9.86577 18.2537 10.1639 18.4002 10.6549L19.3585 10.3691ZM6.34595 17.7937C6.97536 17.5008 7.50513 17.0326 7.86694 16.6575C8.05068 16.467 8.19758 16.2936 8.29919 16.1671C8.3501 16.1037 8.38992 16.0517 8.4176 16.0147C8.43145 15.9962 8.44228 15.9814 8.44996 15.9708C8.4538 15.9655 8.45686 15.9613 8.45911 15.9581C8.46024 15.9565 8.46116 15.9552 8.46189 15.9542C8.46225 15.9537 8.46256 15.9533 8.46282 15.9529C8.46295 15.9527 8.46307 15.9525 8.46318 15.9524C8.46323 15.9523 8.4633 15.9522 8.46332 15.9522C8.46339 15.9521 8.46345 15.952 8.05469 15.6641C7.64592 15.3761 7.64598 15.376 7.64603 15.376C7.64605 15.3759 7.6461 15.3759 7.64612 15.3758C7.64618 15.3758 7.64622 15.3757 7.64625 15.3757C7.64631 15.3756 7.64632 15.3755 7.64629 15.3756C7.64622 15.3757 7.64595 15.3761 7.64549 15.3767C7.64457 15.378 7.64289 15.3804 7.64045 15.3837C7.63557 15.3904 7.6277 15.4012 7.61697 15.4155C7.59549 15.4442 7.56262 15.4872 7.51944 15.541C7.43286 15.6488 7.30595 15.7986 7.14717 15.9633C6.82394 16.2984 6.39385 16.6684 5.92399 16.8871L6.34595 17.7937Z" fill="black"/>
</svg>
