<svg width="24" height="24" viewBox="0 0 24 24" fill="none" xmlns="http://www.w3.org/2000/svg">
<path d="M3.5165 6.70282C3.31741 6.51146 3.00089 6.51772 2.80953 6.71681C2.61817 6.91589 2.62443 7.23241 2.82352 7.42377L3.5165 6.70282ZM4.3081 13.2622L3.82709 13.1258L3.82709 13.1258L4.3081 13.2622ZM4.3081 20.5551L4.00972 20.9563L4.3081 20.5551ZM8.48101 19.4612L8.7734 19.0556C8.56346 18.9042 8.27274 18.9381 8.10321 19.1337L8.48101 19.4612ZM11.8953 20.1905L11.9897 20.6815C12.1134 20.6577 12.2237 20.588 12.2983 20.4864L11.8953 20.1905ZM16.4476 13.9915L16.5645 13.5054C16.3687 13.4583 16.1638 13.5333 16.0446 13.6956L16.4476 13.9915ZM21 13.6269L21.2924 14.0325C21.4451 13.9224 21.523 13.7359 21.494 13.5499L21 13.6269ZM19.4995 4L19.9935 3.923C19.973 3.79152 19.901 3.67364 19.7933 3.59544C19.6857 3.51725 19.5513 3.48519 19.4199 3.50638L19.4995 4ZM9.9963 5.53237L9.9167 5.03875C9.6957 5.07439 9.52531 5.25258 9.49961 5.47496L9.9963 5.53237ZM10.9966 10.1295L11.4006 10.4241C11.5604 10.205 11.5164 9.89845 11.3014 9.73313L10.9966 10.1295ZM6.58419 16.1794L6.18022 15.8848C6.15106 15.9247 6.128 15.9688 6.11179 16.0156L6.58419 16.1794ZM6.61706 18.3631C6.81615 18.5544 7.13267 18.5482 7.32403 18.3491C7.51539 18.15 7.50913 17.8335 7.31004 17.6421L6.61706 18.3631ZM2.82352 7.42377C3.4576 8.03325 4.68394 10.1059 3.82709 13.1258L4.78911 13.3987C5.7532 10.0009 4.39987 7.55191 3.5165 6.70282L2.82352 7.42377ZM3.82709 13.1258C3.54476 14.1208 3.2661 14.957 3.03242 15.709C2.80257 16.4487 2.61344 17.1151 2.53708 17.7194C2.45956 18.3329 2.49377 18.9128 2.73519 19.4691C2.97553 20.0229 3.39902 20.5022 4.00972 20.9563L4.60647 20.1539C4.08627 19.767 3.80206 19.4155 3.65253 19.071C3.50407 18.7289 3.46625 18.3428 3.52919 17.8447C3.5933 17.3374 3.75713 16.7467 3.98738 16.0058C4.2138 15.2771 4.50239 14.4092 4.78911 13.3987L3.82709 13.1258ZM4.00972 20.9563C5.01959 21.7074 6.11127 21.5729 6.97119 21.1948C7.8182 20.8224 8.51013 20.1909 8.8588 19.7887L8.10321 19.1337C7.81964 19.4608 7.24177 19.9835 6.56871 20.2794C5.90856 20.5697 5.22991 20.6175 4.60647 20.1539L4.00972 20.9563ZM8.18861 19.8668C8.76605 20.283 10.2952 21.0072 11.9897 20.6815L11.8009 19.6995C10.4605 19.9571 9.2076 19.3686 8.7734 19.0556L8.18861 19.8668ZM12.2983 20.4864L16.8506 14.2875L16.0446 13.6956L11.4923 19.8945L12.2983 20.4864ZM16.3308 14.4777C16.8713 14.6076 17.7478 14.7413 18.655 14.7285C19.5451 14.7159 20.5583 14.5617 21.2924 14.0325L20.7076 13.2213C20.2278 13.5672 19.4706 13.7169 18.6409 13.7286C17.8284 13.7401 17.0356 13.6186 16.5645 13.5054L16.3308 14.4777ZM21.494 13.5499L19.9935 3.923L19.0055 4.077L20.506 13.7039L21.494 13.5499ZM19.4199 3.50638L9.9167 5.03875L10.0759 6.026L19.5791 4.49362L19.4199 3.50638ZM9.49961 5.47496C9.43905 5.99886 9.30017 6.91759 9.38192 7.84738C9.46409 8.78183 9.77577 9.82143 10.6918 10.5259L11.3014 9.73313C10.7001 9.2707 10.4483 8.5587 10.3781 7.75979C10.3074 6.95622 10.4271 6.15981 10.493 5.58979L9.49961 5.47496ZM10.5927 9.83486L6.18022 15.8848L6.98816 16.474L11.4006 10.4241L10.5927 9.83486ZM6.11179 16.0156C6.02661 16.2612 5.95861 16.6445 6.00147 17.0602C6.04503 17.4827 6.20737 17.9693 6.61706 18.3631L7.31004 17.6421C7.11275 17.4525 7.02219 17.2098 6.9962 16.9577C6.96951 16.6988 7.01532 16.4622 7.05659 16.3432L6.11179 16.0156Z" fill="black"/>
</svg>
