<svg width="24" height="24" viewBox="0 0 24 24" fill="none" xmlns="http://www.w3.org/2000/svg">
<path d="M20 11H19.5C19.5 11.0057 19.5001 11.0113 19.5003 11.017L20 11ZM3.99997 11L4.49975 11.0149C4.4999 11.0099 4.49997 11.005 4.49997 11H3.99997ZM6.19047 16.5V16C5.99917 16 5.82463 16.1092 5.74091 16.2812L6.19047 16.5ZM17.8095 16.5L17.4822 16.122C17.3109 16.2703 17.2608 16.5152 17.3599 16.7188L17.8095 16.5ZM20 21V21.5C20.1723 21.5 20.3325 21.4112 20.4239 21.2651C20.5153 21.119 20.525 20.9361 20.4495 20.7812L20 21ZM3.99997 21L3.55041 20.7812C3.47498 20.9361 3.48467 21.119 3.57605 21.2651C3.66744 21.4112 3.82763 21.5 3.99997 21.5V21ZM16 17C16.2761 17 16.5 16.7761 16.5 16.5C16.5 16.2239 16.2761 16 16 16V17ZM4.56645 14.7491C4.70404 14.9886 5.00967 15.0711 5.24909 14.9335C5.48851 14.7959 5.57106 14.4903 5.43347 14.2509L4.56645 14.7491ZM4.49997 11C4.49997 6.85786 7.85784 3.5 12 3.5V2.5C7.30555 2.5 3.49997 6.30558 3.49997 11H4.49997ZM12 3.5C16.1421 3.5 19.5 6.85786 19.5 11H20.5C20.5 6.30558 16.6944 2.5 12 2.5V3.5ZM17.3599 16.7188L19.5504 21.2188L20.4495 20.7812L18.259 16.2812L17.3599 16.7188ZM20 20.5H3.99997V21.5H20V20.5ZM4.44954 21.2188L6.64004 16.7188L5.74091 16.2812L3.55041 20.7812L4.44954 21.2188ZM19.5003 11.017C19.5182 11.5457 19.4396 12.4644 19.1352 13.4384C18.8309 14.412 18.3134 15.4022 17.4822 16.122L18.1368 16.878C19.1532 15.9978 19.7507 14.8213 20.0897 13.7366C20.4286 12.6522 20.5214 11.621 20.4997 10.983L19.5003 11.017ZM6.19047 17H16V16H6.19047V17ZM3.50019 10.9851C3.47635 11.7865 3.73929 13.3098 4.56645 14.7491L5.43347 14.2509C4.69821 12.9715 4.48142 11.6309 4.49975 11.0149L3.50019 10.9851Z" fill="black"/>
</svg>
