<svg width="24" height="24" viewBox="0 0 24 24" fill="none" xmlns="http://www.w3.org/2000/svg">
<path d="M3 8.80841L6.20654 11.7436C5.55169 12.6856 5.17059 13.8139 5.17059 15.0266C5.17059 18.3256 7.99119 21 11.4706 21C14.95 21 17.7706 18.3256 17.7706 15.0266C17.7706 12.5503 15.9959 11.1471 13.5882 10.4208C14.1176 9.71398 15.1765 7.28441 14.6471 5.25251C13.9853 2.71252 9.19611 1.81882 7.76471 5.25249C6.95575 7.19303 7.76471 8.8084 8.82353 9.82437C11.4706 8.8084 13.8985 9.74029 16.7647 10.8403C19.4118 11.8563 21 9.31638 21 7.79244" stroke="black" stroke-linecap="round" stroke-linejoin="round"/>
</svg>
