<svg width="66" height="66" viewBox="0 0 66 66" fill="none" xmlns="http://www.w3.org/2000/svg">
<g clip-path="url(#clip0_0_1)">
<path d="M35.5607 30.3408L57.9518 49L8.0482 49L30.4393 30.3408C31.9226 29.1046 34.0774 29.1046 35.5607 30.3408Z" stroke="black" stroke-width="8"/>
</g>
<rect x="0.95" y="0.95" width="64.1" height="64.1" stroke="black" stroke-width="0.1"/>
<path fill-rule="evenodd" clip-rule="evenodd" d="M25.3176 16.598L25.8 17L31.4635 21.7196C31.8304 21.2798 32.3825 21 33 21C34.1046 21 35 21.8954 35 23C35 24.1046 34.1046 25 33 25C32.3825 25 31.8304 24.7202 31.4635 24.2804L25.8 29L25.3176 29.402C27.152 31.6008 29.9126 33 33 33C38.5229 33 43 28.5228 43 23C43 17.4772 38.5229 13 33 13C29.9126 13 27.152 14.3992 25.3176 16.598Z" fill="black"/>
<defs>
<clipPath id="clip0_0_1">
<rect x="1" y="1" width="64" height="64" fill="white"/>
</clipPath>
</defs>
</svg>
