<svg width="24" height="24" viewBox="0 0 24 24" fill="none" xmlns="http://www.w3.org/2000/svg">
<path fill-rule="evenodd" clip-rule="evenodd" d="M17.5508 6.02493C17.7708 6.05636 17.9437 6.2292 17.9751 6.44919L18.859 12.6364C18.9269 13.1121 18.3502 13.4004 18.0105 13.0606L16.5962 11.6464C16.401 11.4512 16.0844 11.4512 15.8891 11.6464C15.6939 11.8417 15.6939 12.1583 15.8891 12.3535L17.3033 13.7677C18.3227 14.7871 20.0528 13.922 19.8489 12.495L18.9651 6.30777C18.8708 5.64781 18.3522 5.12926 17.6923 5.03498L11.5051 4.1511C10.078 3.94724 9.21297 5.67737 10.2323 6.69668L13.0607 9.52511C13.256 9.72037 13.256 10.037 13.0607 10.2322L5.28253 18.0104C5.08727 18.2057 5.08727 18.5222 5.28253 18.7175C5.4778 18.9128 5.79438 18.9128 5.98964 18.7175L13.7678 10.9393C14.3536 10.3535 14.3536 9.40379 13.7678 8.818L10.9394 5.98957C10.5996 5.64981 10.888 5.07309 11.3637 5.14105L17.5508 6.02493Z" fill="black"/>
</svg>
