<svg width="24" height="24" viewBox="0 0 24 24" fill="none" xmlns="http://www.w3.org/2000/svg">
<path fill-rule="evenodd" clip-rule="evenodd" d="M17.5508 17.975C17.7708 17.9436 17.9437 17.7707 17.9751 17.5507L18.859 11.3636C18.9269 10.8879 18.3502 10.5995 18.0105 10.9393L16.5962 12.3535C16.401 12.5488 16.0844 12.5488 15.8891 12.3535C15.6939 12.1582 15.6939 11.8417 15.8891 11.6464L17.3033 10.2322C18.3227 9.21288 20.0528 10.078 19.8489 11.505L18.9651 17.6922C18.8708 18.3521 18.3522 18.8707 17.6923 18.965L11.5051 19.8488C10.078 20.0527 9.21297 18.3226 10.2323 17.3033L13.0607 14.4748C13.256 14.2796 13.256 13.963 13.0607 13.7677L5.28253 5.98955C5.08727 5.79429 5.08727 5.47771 5.28253 5.28244C5.4778 5.08718 5.79438 5.08718 5.98964 5.28244L13.7678 13.0606C14.3536 13.6464 14.3536 14.5962 13.7678 15.1819L10.9394 18.0104C10.5996 18.3501 10.888 18.9268 11.3637 18.8589L17.5508 17.975Z" fill="black"/>
</svg>
