<svg width="24" height="24" viewBox="0 0 24 24" fill="none" xmlns="http://www.w3.org/2000/svg">
<path fill-rule="evenodd" clip-rule="evenodd" d="M20.468 10.1759C20.3948 10.3709 20.2083 10.5 20 10.5L15.0532 10.5C14.777 10.5 14.5532 10.2761 14.5532 10C14.5532 9.72386 14.777 9.5 15.0532 9.5L18.6693 9.5L12 3.66438L5.3307 9.5L8.99998 9.5C9.27612 9.5 9.49998 9.72386 9.49998 10C9.49998 12.0117 9.37527 14.5639 8.79583 16.7529C8.44761 18.0684 7.91584 19.3219 7.09602 20.2312C8.16727 19.9754 9.33312 19.5259 10.3754 18.8352C12.1519 17.6579 13.5532 15.7956 13.5532 12.975C13.5532 12.6989 13.777 12.475 14.0532 12.475C14.3293 12.475 14.5532 12.6989 14.5532 12.975C14.5532 16.1931 12.9278 18.3433 10.9278 19.6688C8.94839 20.9806 6.58657 21.5 4.99998 21.5C4.75063 21.5 4.53939 21.3163 4.50481 21.0694C4.47022 20.8224 4.62286 20.5877 4.86262 20.5192C6.34114 20.0968 7.27551 18.5885 7.82912 16.4971C8.32976 14.6057 8.4765 12.3888 8.49726 10.5L3.99998 10.5C3.79167 10.5 3.60519 10.3709 3.53192 10.1759C3.45866 9.98087 3.51396 9.76088 3.67072 9.62371L11.6707 2.62371C11.8592 2.45876 12.1407 2.45876 12.3292 2.62371L20.3292 9.62371C20.486 9.76088 20.5413 9.98087 20.468 10.1759Z" fill="black"/>
</svg>
