<svg width="24" height="24" viewBox="0 0 24 24" fill="none" xmlns="http://www.w3.org/2000/svg">
<path fill-rule="evenodd" clip-rule="evenodd" d="M13.8241 3.53197C13.6291 3.60524 13.5 3.79172 13.5 4.00002V8.94683C13.5 9.22297 13.7239 9.44683 14 9.44683C14.2761 9.44683 14.5 9.22297 14.5 8.94683V5.33075L20.3356 12L14.5 18.6693V15C14.5 14.7239 14.2761 14.5 14 14.5C11.9883 14.5 9.43606 14.6247 7.24705 15.2042C5.93158 15.5524 4.67807 16.0842 3.76885 16.904C4.02459 15.8327 4.47406 14.6669 5.16477 13.6246C6.34214 11.8481 8.20437 10.4468 11.025 10.4468C11.3011 10.4468 11.525 10.223 11.525 9.94683C11.525 9.67069 11.3011 9.44683 11.025 9.44683C7.80694 9.44683 5.65666 11.0722 4.33121 13.0722C3.01942 15.0516 2.5 17.4134 2.5 19C2.5 19.2494 2.68371 19.4606 2.93065 19.4952C3.17759 19.5298 3.41226 19.3771 3.48076 19.1374C3.9032 17.6589 5.4115 16.7245 7.50295 16.1709C9.39425 15.6702 11.6112 15.5235 13.5 15.5027V20C13.5 20.2083 13.6291 20.3948 13.8241 20.4681C14.0191 20.5413 14.2391 20.486 14.3763 20.3293L21.3763 12.3293C21.5412 12.1408 21.5412 11.8593 21.3763 11.6708L14.3763 3.67077C14.2391 3.51401 14.0191 3.4587 13.8241 3.53197Z" fill="black"/>
</svg>
