<svg width="24" height="24" viewBox="0 0 24 24" fill="none" xmlns="http://www.w3.org/2000/svg">
<path fill-rule="evenodd" clip-rule="evenodd" d="M3.51474 8.65449C3.55076 8.45757 3.66314 8.21628 3.95008 7.94339C4.23631 7.67118 4.49825 7.55619 4.72261 7.51703C4.95067 7.47723 5.17601 7.50966 5.39333 7.58789C5.84281 7.74969 6.19668 8.08443 6.324 8.21293L6.32962 8.2186L10.2528 11.9333L10.9403 11.2072L7.02861 7.5033C6.87227 7.34601 6.39216 6.88461 5.73202 6.64699C5.39036 6.524 4.98667 6.45583 4.55067 6.53193C4.11096 6.60867 3.67381 6.82611 3.26094 7.21876C2.84876 7.61076 2.61157 8.03434 2.53106 8.47459C2.45114 8.91154 2.53443 9.31616 2.67851 9.65873C2.95243 10.31 3.48122 10.8125 3.71401 11.0338C3.71845 11.038 3.72277 11.0421 3.72699 11.0461L9.31986 16.365C10.1014 17.1082 11.037 17.5 11.9948 17.5C12.9525 17.5 13.8882 17.1082 14.6697 16.365C15.5429 15.5347 16.3718 14.7326 17.1266 14.0021C18.4433 12.728 19.5349 11.6718 20.2438 11.0631C20.5127 10.8322 21.0575 10.3243 21.3317 9.65425C21.473 9.30919 21.5495 8.90422 21.4645 8.46875C21.379 8.0309 21.1395 7.60945 20.7287 7.21877C20.3158 6.82616 19.8773 6.60745 19.4316 6.53374C18.9897 6.46065 18.5786 6.53622 18.2255 6.67052C17.5483 6.92812 17.0224 7.42855 16.7884 7.65118L13.0484 11.2079L13.7375 11.9326L17.4661 8.38664C17.7042 8.16022 18.1043 7.78654 18.5811 7.60517C18.8106 7.51785 19.0403 7.48261 19.2684 7.52033C19.4927 7.55743 19.7533 7.67115 20.0395 7.9434C20.3278 8.21758 20.4441 8.46099 20.483 8.66031C20.5224 8.86199 20.4918 9.06648 20.4063 9.27547C20.227 9.71351 19.8396 10.0921 19.5923 10.3044C18.8619 10.9316 17.7312 12.0256 16.393 13.3203C15.6428 14.0462 14.8273 14.8352 13.9806 15.6404C13.3639 16.2268 12.6683 16.5 11.9948 16.5C11.3212 16.5 10.6257 16.2268 10.009 15.6404L4.41613 10.3215C4.17556 10.0927 3.78722 9.71546 3.6003 9.27103C3.51135 9.05955 3.47813 8.8547 3.51474 8.65449Z" fill="black"/>
</svg>
