<svg width="24" height="24" viewBox="0 0 24 24" fill="none" xmlns="http://www.w3.org/2000/svg">
<path fill-rule="evenodd" clip-rule="evenodd" d="M8.65455 3.51474C8.45763 3.55076 8.21634 3.66314 7.94345 3.95008C7.67124 4.23631 7.55626 4.49825 7.5171 4.72261C7.47729 4.95067 7.50972 5.17601 7.58795 5.39333C7.74975 5.84281 8.08449 6.19668 8.21299 6.324L8.21866 6.32962L11.9334 10.2528L11.2072 10.9403L7.50336 7.02861C7.34607 6.87227 6.88467 6.39216 6.64705 5.73202C6.52406 5.39036 6.45589 4.98667 6.53199 4.55067C6.60874 4.11096 6.82617 3.67381 7.21882 3.26094C7.61082 2.84876 8.03441 2.61157 8.47465 2.53106C8.91161 2.45114 9.31622 2.53443 9.65879 2.67851C10.31 2.95243 10.8126 3.48122 11.0338 3.71401C11.038 3.71845 11.0422 3.72277 11.0462 3.72699L16.3651 9.31987C17.1083 10.1014 17.5 11.037 17.5 11.9948C17.5 12.9525 17.1083 13.8882 16.3651 14.6697C15.5347 15.5429 14.7327 16.3718 14.0022 17.1266C12.7281 18.4433 11.6718 19.5349 11.0632 20.2438C10.8323 20.5127 10.3244 21.0575 9.65431 21.3317C9.30925 21.473 8.90428 21.5495 8.46881 21.4645C8.03096 21.379 7.60951 21.1395 7.21883 20.7287C6.82622 20.3158 6.60752 19.8773 6.5338 19.4316C6.46071 18.9897 6.53628 18.5786 6.67058 18.2255C6.92818 17.5483 7.42861 17.0224 7.65124 16.7884L11.208 13.0484L11.9326 13.7375L8.3867 17.4661C8.16028 17.7042 7.7866 18.1043 7.60524 18.5811C7.51791 18.8106 7.48267 19.0403 7.52039 19.2684C7.55749 19.4927 7.67121 19.7533 7.94346 20.0395C8.21764 20.3278 8.46105 20.4441 8.66037 20.483C8.86205 20.5224 9.06654 20.4918 9.27553 20.4063C9.71357 20.227 10.0922 19.8396 10.3045 19.5923C10.9317 18.8619 12.0256 17.7312 13.3204 16.393C14.0463 15.6428 14.8352 14.8273 15.6404 13.9806C16.2269 13.3639 16.5 12.6683 16.5 11.9948C16.5 11.3212 16.2269 10.6257 15.6404 10.009L10.3215 4.41613C10.0928 4.17556 9.71552 3.78722 9.27109 3.6003C9.05961 3.51135 8.85476 3.47813 8.65455 3.51474Z" fill="black"/>
</svg>
