<svg width="64" height="64" viewBox="0 0 64 64" fill="none" xmlns="http://www.w3.org/2000/svg">
<path d="M25.5 16C25.5 12.9624 23.0376 10.5 20 10.5C16.9624 10.5 14.5 12.9624 14.5 16V48C14.5 51.0376 16.9624 53.5 20 53.5C23.0376 53.5 25.5 51.0376 25.5 48V16Z" stroke="black" stroke-width="5"/>
<path d="M25.5 16C25.5 12.9624 23.0376 10.5 20 10.5C16.9624 10.5 14.5 12.9624 14.5 16V48C14.5 51.0376 16.9624 53.5 20 53.5C23.0376 53.5 25.5 51.0376 25.5 48V16Z" stroke="black" stroke-opacity="0.2" stroke-width="5"/>
<path d="M49.5 16C49.5 12.9624 47.0376 10.5 44 10.5C40.9624 10.5 38.5 12.9624 38.5 16V48C38.5 51.0376 40.9624 53.5 44 53.5C47.0376 53.5 49.5 51.0376 49.5 48V16Z" stroke="black" stroke-width="5"/>
<path d="M49.5 16C49.5 12.9624 47.0376 10.5 44 10.5C40.9624 10.5 38.5 12.9624 38.5 16V48C38.5 51.0376 40.9624 53.5 44 53.5C47.0376 53.5 49.5 51.0376 49.5 48V16Z" stroke="black" stroke-opacity="0.2" stroke-width="5"/>
</svg>
