<svg xmlns="http://www.w3.org/2000/svg" viewBox="0 0 113.08 97.3"><g id="Layer_2" data-name="Layer 2"><g id="Layer_1-2" data-name="Layer 1"><path d="M50.34,26.8c9.35-.24,18.7.9,28.09-.7C84.9,25,91.49,24.58,98,23.66a9.8,9.8,0,0,1,10.31,4.68c3.83,6.21,5.85,13,4.21,20.45a9.28,9.28,0,0,1-5.77,7,22,22,0,0,1-4.89,1.59C91.39,58.9,81.1,61.58,70.44,61.87c-3.66.09-7.3.9-11.37,1.44a59.24,59.24,0,0,0-.25,6.15c.31,5.14.92,10.26,1.14,15.4a27.31,27.31,0,0,1-.65,7.66C58.15,97.15,54.1,98.64,50,96a74.84,74.84,0,0,1-8.3-6.08C29.53,79.51,17.18,69.33,3.84,60.39c-4.42-3-4.91-5-2.06-9.24,3.47-5.25,7.33-10.23,11-15.32,3.36-4.63,7.08-9,10-13.92,3.86-6.46,9.08-11.75,13.82-17.46a32.3,32.3,0,0,1,3.18-2.87C41.13.34,42.54-.51,44.41.35a4.59,4.59,0,0,1,2.79,4c.76,6.53,1.6,13,2.44,19.56C49.75,24.71,50,25.52,50.34,26.8ZM13,52.21A18.61,18.61,0,0,0,20.8,60.1c3.79,1.95,7.33,4.4,10.94,6.68C37,70.08,42.2,73.43,48.32,77.33c-.24-3-.43-5.18-.58-7.32-.21-3.12-.62-6.24-.52-9.35.08-2.78,1.83-5.33,4.35-5.83,6.13-1.22,11.56-4.8,18.1-4.68A68,68,0,0,0,82.43,48.8c6.4-1.1,12.9-1.88,19.16-4.07.08-3.44-.21-6.43-2.31-9.16-7.92.91-15.54,1.84-23.17,2.63-4,.4-8,.58-12,.78-5.68.29-11.38.39-17.07.77-4,.26-6.5-1.23-7.4-5.23-.75-3.34-1-6.78-1.65-10.14a26.15,26.15,0,0,0-1.25-3.65c-.87.23-1.25.2-1.38.37Q25.32,34.84,15.29,48.6C14.47,49.72,13.8,51,13,52.21Z"/></g></g></svg>