<svg xmlns="http://www.w3.org/2000/svg" viewBox="0 0 98.56 156.07"><g id="Layer_2" data-name="Layer 2"><g id="Layer_1-2" data-name="Layer 1"><path d="M10.5,144.16c1.6-6,6.6-9.36,9.77-14,3.4-5,7.08-9.7,10.69-14.5,3.44-4.58,7-9.05,10.38-13.67q5.31-7.29,10.32-14.78c3.14-4.7,7.27-8.81,9.24-14.64a45.2,45.2,0,0,0-4.21-4.21c-11.16-8.55-20.94-18.6-31.06-28.29A244.78,244.78,0,0,0,.49,19c-1.36-3.79.28-7.13,2.85-9.94a67.27,67.27,0,0,1,8.24-7.49c3.08-2.41,6.6-1.78,9.74-.1,5,2.7,9.91,5.73,14.84,8.62.49.29.92.7,1.42,1C55.06,20.82,69.31,34.43,83,48.79c3.94,4.15,8.08,8.11,12,12.29,4.29,4.59,4.69,6.89,1.68,12.22C93,79.76,89,86,85.08,92.36c-2.53,4.15-5.15,8.25-7.62,12.44-7.88,13.38-18.22,24.89-27.89,36.91a71.1,71.1,0,0,1-12.2,11.95c-4,3.07-7.48,3.21-11.8.42C20.79,151,16.06,147.83,10.5,144.16ZM88.23,67.37c-16.65-22.58-52.79-52-71.86-58.51-2.31,1.85-4.8,3.67-5.83,7.31,2.43,2,4.84,4,7.17,6.06,6.65,5.86,13.58,11.45,19.83,17.71a342.62,342.62,0,0,0,29.3,26.42c1.74,1.38,3.28,3,5.27,4.88-1.69,3.57-2.86,7.17-4.9,10.17q-9.39,13.83-19.37,27.25c-7.52,10.08-15.37,19.93-23,29.9a23.3,23.3,0,0,0-1.64,2.92c1.79,3.2,4.59,4.31,7.38,5.14,6.78-4.46,19-17.77,28.65-31C73.14,96.51,86.15,74.88,88.23,67.37Z"/></g></g></svg>