<svg xmlns="http://www.w3.org/2000/svg" viewBox="0 0 119.78 100.68"><g id="Layer_2" data-name="Layer 2"><g id="Layer_1-2" data-name="Layer 1"><path d="M60.29,78.46c-.3,5-.39,9-.82,12.92-.86,7.85-7.85,11.56-14.92,7.84A63,63,0,0,1,34.4,92.84Q19.67,81,5.29,68.78C-.35,64-1.3,58.64,1.58,51.81a31.27,31.27,0,0,1,2.19-4.64A301.58,301.58,0,0,1,31.92,9.31a48.26,48.26,0,0,1,7.64-6.84C46-2.3,51.85,0,53.53,7.92a63.38,63.38,0,0,1,.77,7.69c.15,1.66.25,3.33.41,5.53a29.55,29.55,0,0,0,4.39.14c7.1-.83,14.18-2.09,21.3-2.57,8.28-.55,16.61-.81,24.89-.53,7.68.26,11.37,3.91,12.77,11.46a113.85,113.85,0,0,1,1.63,24.8c-.06,1.42-.32,2.84-.5,4.26-1.06,8.34-5.08,13.8-14,14.63a17.7,17.7,0,0,0-4.08,1.24A66,66,0,0,1,78.3,78.25C72.6,78.16,66.89,78.37,60.29,78.46ZM43.47,14c-9,5.63-27.46,31.37-32.4,44.91,10.7,9.07,21.55,18.33,32.51,27.45,1.39,1.15,3.4,1.55,5.34,2.4,1.37-4.27.25-8,.35-11.62.12-4.8.95-6.56,5.41-7.27,5-.8,10.21-.76,15.33-1,7.4-.41,14.84-.5,22.2-1.28a39.24,39.24,0,0,0,16.08-5c2.55-12.13,1.56-25-2.64-33.79-4.32-1.14-8.87-1.08-13.43-.95-10.85.31-21.7.6-32.42,2.72-5.51,1.09-10.79.41-15.39-3.89C44.13,22.77,43.83,18.81,43.47,14Z"/></g></g></svg>