<svg xmlns="http://www.w3.org/2000/svg" viewBox="0 0 119.68 256.04"><g id="Layer_2" data-name="Layer 2"><g id="Layer_1-2" data-name="Layer 1"><path d="M68.29,52.68c9.13,1.34,17,2.53,24.9,3.65,3.38.48,6.74.55,9.69,2.91,3.44,2.74,4.62,4.57,3.56,8.65-3.81,14.68-7.23,29.48-12.66,43.69-1.83,4.81-3.56,9.66-5.48,14.89,1.62.72,3.09,1.51,4.64,2,7.07,2.34,14.23,4.38,21.2,6.95,5.59,2.06,6.48,4.3,4.73,10-2.86,9.28-5.41,18.69-8.89,27.73A239.56,239.56,0,0,1,87.7,217.6c-4.82,7.44-9.58,14.93-14.79,22.1-3.51,4.84-7.76,9.14-11.65,13.71-1.85,2.17-4.24,2.7-7,2.62-4.32-.13-6.36-1.79-6.44-6.25a102.08,102.08,0,0,1,.58-15.45c2.45-18.15,3.51-36.5,7.9-54.37a11.83,11.83,0,0,0,0-2.32,17.55,17.55,0,0,0-3.94-2.18c-5-1.34-10-2.33-15-3.6-9.07-2.32-11.17-5.27-9.11-14,2.83-12,6-23.89,9.25-35.75,1.52-5.5,3.71-10.82,5.55-16.23a31.28,31.28,0,0,0,1.67-5.74,2.92,2.92,0,0,0-2.25-3.24,27.18,27.18,0,0,0-4.24-.56c-2.56-.25-5.15-.3-7.67-.74a30.92,30.92,0,0,0-9.28-.46c-5.77.7-11.34-.86-16.6-3.43-3.16-1.54-5-3.85-4.69-7.43.46-5.41.53-10.93,1.72-16.18,4-17.87,7.89-35.81,14.74-52.9,1.28-3.18,3-6.22,3.88-9.5.92-3.46,3.14-4.48,6.2-4.81a173.73,173.73,0,0,1,43.7,1.19,27.85,27.85,0,0,1,5,1.22c4.67,1.59,5.58,3.21,5.58,8.28,0,6.5-2.66,12.22-5,18-.74,1.84-1.71,3.6-2.3,5.49C71.86,40.53,70.29,46,68.29,52.68ZM58.38,238.25l1.55.81a35.66,35.66,0,0,0,3.27-3.6c3.08-4.48,5.94-9.12,9-13.58C85.79,202.5,95.84,181.34,104,159.26c2-5.27,3.58-10.73,3.46-16.51C99.77,139.2,92.28,136.57,84,137c-3.83.18-7.46-.35-9.58-4.64.57-1.49,1.07-3.12,1.79-4.65C84.37,110.21,89.47,91.75,94,73.09c.53-2.17,1.54-4.38-.1-7A37.45,37.45,0,0,0,89.23,65C80.15,63.9,71.06,62.89,62,61.84,56.27,61.18,55,59.45,56.4,54c.42-1.66.91-3.32,1.47-4.94q4.93-14.16,9.92-28.31c.94-2.63,2.54-5.15,1-8.7a141.83,141.83,0,0,0-39-1.56c-1.44,2.87-3.06,5.3-3.95,8C19.33,38,13.67,57.77,10.5,78.19c-.34,2.19-.89,4.55,1.4,6.9,5.17,1.37,10.94.47,16.59,1,8.56.73,17.12,1.36,25.66,2.21,3.37.33,6,1.93,6.27,5.79-11.07,21.29-17.3,44.07-22.21,67.84,1.93,1,3.56,2.1,5.37,2.59,5,1.33,10,2.36,15,3.56,8.76,2.1,9.7,3.61,8,12.58-1.51,8.15-3,16.3-4.44,24.47-.77,4.52-1.33,9.07-1.84,13.61C59.64,225.21,59,231.73,58.38,238.25Z"/></g></g></svg>