<svg xmlns="http://www.w3.org/2000/svg" viewBox="0 0 86.72 235.04"><g id="Layer_2" data-name="Layer 2"><g id="Layer_1-2" data-name="Layer 1"><path d="M57.34,2.32a18.2,18.2,0,0,1,3.6,11.74c-.17,7.44-.06,14.89,0,22.34,0,3.15.19,6.3.35,9.45a16.33,16.33,0,0,0,7.14,13.07c3,2.17,5.88,4.55,8.81,6.85,4.49,3.51,7.31,8,7.86,13.74.52,5.41,1.59,10.82,1.6,16.22q.09,35.21-.37,70.39c-.17,12.88-.76,25.76-1.32,38.63a82.2,82.2,0,0,1-1.35,11.93,16.74,16.74,0,0,1-10.25,12.83,58.64,58.64,0,0,1-19.15,4.43c-8.24.66-16.56,1.93-24.82.32a100.09,100.09,0,0,1-15.72-4C3.48,226.41.23,221.4,0,209a141,141,0,0,1,1.56-21.41,312.83,312.83,0,0,0,2.49-49.69q-.28-12-1.28-24c-1-11.8.29-23.45,1.62-35.12a14.69,14.69,0,0,1,5.8-10.14c3.12-2.51,6.24-5,9.31-7.62a18.13,18.13,0,0,0,6.94-15c-.17-9.44.24-18.9.4-28.35a27.88,27.88,0,0,1,0-4.29C28.16,6.07,31.58.73,40.27.28,46,0,51.72-.69,57.34,2.32Zm-23,19.05c-.23,3.16-.52,5.67-.56,8.18-.08,5.44-.17,10.89,0,16.32.32,9.55-2.53,17.45-11,22.65-8.14,5-11.07,12.68-11.46,21.74-.06,1.43-.24,2.86-.22,4.29.23,12,.15,24,.83,36A325.5,325.5,0,0,1,10.29,182c-.87,8.54-1.91,17.08-2.28,25.65-.38,9,2.59,13.09,10.87,16.43a35.3,35.3,0,0,0,5.75,1.63c11.68,2.51,23.39,1.49,35-.32,6.23-1,12.17-3.22,16.37-8.32.63-5.25,1.61-10.33,1.78-15.43.58-17.72.5-35.47,1.39-53.16.94-18.61.78-37.19.41-55.79-.06-2.86-.56-5.7-.77-8.55a16.19,16.19,0,0,0-5.59-11.25,86.32,86.32,0,0,0-10-8,19.67,19.67,0,0,1-9.37-14.68c-.55-4.24-.92-8.53-1.08-12.8-.13-3.71.24-7.44.19-11.16a29.84,29.84,0,0,0-.83-4.85H34.34Zm3.1-8.19a15.61,15.61,0,0,0,8.63.83c3.2-.49,4.5-2.39,4.73-6.65-2.84,0-5.67-.11-8.49,0C39.33,7.54,37.66,9.18,37.44,13.18Z"/></g></g></svg>