<svg xmlns="http://www.w3.org/2000/svg" viewBox="0 0 209.81 129.45"><g id="Layer_2" data-name="Layer 2"><g id="Layer_1-2" data-name="Layer 1"><path d="M127.42,0A82.84,82.84,0,0,1,172,13.69c6.95,4.48,14.11,8.73,20,14.74A78.4,78.4,0,0,1,206.1,47.74a34.45,34.45,0,0,1,3.21,21.69c-1.86,12-7.26,21.75-16.44,30.08-15.52,14.08-33.17,23.08-53.86,26.25-5.92.9-11.8,2.07-17.69,3.17-8.49,1.59-16.55-.76-24.45-3.13a106.5,106.5,0,0,1-32.12-16c-5.58-4-11.65-7.88-15.61-13.23-4.38-5.92-9.6-7.28-16.06-7.52-6.62-.24-13.15-.18-19.4,2.5a76.71,76.71,0,0,1-7.25,2.68,4.23,4.23,0,0,1-5-2.31c-1.63-3.55-2.24-7.27.29-10.58a63,63,0,0,1,8-8.91A80.12,80.12,0,0,1,36.81,56.34c4.85-1.69,7.44-4.51,8.77-9.44a62.37,62.37,0,0,1,5.33-12.63,25.68,25.68,0,0,1,5.65-7.41A106.28,106.28,0,0,1,112.07,1.7C117.16,1,122.3.56,127.42,0ZM18.73,78.71c2.8.17,3.9.44,4.92.27,5.73-.94,11.37-.15,17.05.5C50,80.54,57.76,83.42,61.85,92.92c2.42,5.61,7.17,9.54,12.28,12.89,11.21,7.35,23.62,11.44,36.77,13.51,3.1.49,6.27,1.32,9.34,1.08a123.72,123.72,0,0,0,39.8-9.87,79.2,79.2,0,0,0,27.64-20c5.13-5.76,8.25-12.23,10.63-19.33,2.52-7.51,1.52-14.7-1.62-21.7a51.68,51.68,0,0,0-4.34-7.38c-4.9-7.3-12.12-11.93-19.1-17-20.51-14.84-43.15-16.9-67.08-12-13.12,2.7-24.65,9.1-35.73,16.26a40,40,0,0,0-17.3,24.7A13,13,0,0,1,44.69,64c-1.86.75-3.81,1.27-5.64,2.07C32.24,69,25.66,72.33,18.73,78.71Z"/></g></g></svg>