<svg xmlns="http://www.w3.org/2000/svg" viewBox="0 0 306.67 177.25"><g id="Layer_2" data-name="Layer 2"><g id="Layer_1-2" data-name="Layer 1"><path d="M41.28,83.21c1.27-3.3,2.47-6.2,3.51-9.16,4-11.38,13-16.22,24-18.12,3.34-.58,6.85-.22,10.29-.26,1.94,0,3.88,0,6.38,0,.25-4.44.71-8.36.63-12.28-.12-5.51,2.1-9.82,5.47-14C106.71,10.54,126.86,1.49,150.41.08c11.92-.71,23.09,3.37,33.37,9.52,9.67,5.79,16.43,14.09,21.2,24.15.72,1.52,1.61,3,2.65,4.87,10.76-2.2,21.08-2,30,5.61a44.14,44.14,0,0,1,15.49,27.38c2.33,0,4.25,0,6.17,0,5.71.06,11.39-.22,17.05,1.34,8.39,2.3,15.06,6.67,19.71,14.09,6.66,10.64,11,21.95,10.64,34.73-.31,11.73-5,20.84-15,27.41a67.73,67.73,0,0,1-25.28,10.2,213,213,0,0,1-23.67,2.75c-3.36.25-6.84-.49-10.19-1.18-4.74-1-9,0-13.36,1.87-7.57,3.28-15.13,6.65-22.88,9.49a70.68,70.68,0,0,1-14.93,3.74,120.42,120.42,0,0,1-33.33.08c-10.09-1.48-18.93-6.24-27.31-11.86-1.65-1.11-3.31-2.2-5.28-3.5-2.92,1.68-5.78,3.49-8.79,5-2.82,1.39-5.77,2.51-8.71,3.63a57.71,57.71,0,0,1-18.44,3.66c-9.45.38-18.84.74-28.17-1.66-22.79-5.87-39.45-19.1-48.66-40.86-3.94-9.29-3.27-19.07.18-28.52A17.67,17.67,0,0,1,6.54,96.3c7.74-8.36,17.16-13.2,28.8-13.09C37.05,83.22,38.76,83.21,41.28,83.21Zm74.85,64.12c5.69,6.6,13,10.51,20.82,13.3,11.56,4.12,23.61,4.45,35.66,3.26,10.27-1,20.4-3,29.54-8.32,3.21-1.87,6.56-3.5,9.78-5.37a10.77,10.77,0,0,1,8.24-1.24c15.53,3.58,30.81,1.15,45.89-2.58,6.88-1.71,13.83-3.69,19.79-8,4.81-3.49,8.72-7.76,9.77-13.62,1.31-7.34,1.88-14.81-2.24-21.73a39.9,39.9,0,0,1-2.81-6.25C288,90,282.66,86.42,276.34,84A38.45,38.45,0,0,0,268,82c-7.15-1-14.29-1.24-21.14,1.71-2.16.92-3.92.22-5.36-1.45s-1.77-3.61,0-5.33,1.53-3.6,1.32-5.61c-1-9.84-6-17.07-14.45-22-2.55-1.48-5.06-2.48-8.11-2.08-2.81.37-5.8-.14-8.48.56-2.94.77-5.63,2.49-8.25,3.72-3.39-1.06-4.78-3.19-5.19-6.38-.36-2.79-.65-5.83-2-8.21-5.84-10.6-14.09-18.42-25.83-22.61a53,53,0,0,0-31.18-1.54,69.82,69.82,0,0,0-37.46,22.85,23.57,23.57,0,0,0-5.79,12.26c-.53,4-.71,8-1.18,11.95-.61,5.13-3,7-8,6.62-3.71-.27-7.46-1-11.12-.63C62.28,67,55.4,72.59,52.52,84.7c-.33,1.39-.5,2.81-.81,4.21a10,10,0,0,1-4.48,6.74c-1.77-.38-4-.81-6.13-1.32-10.94-2.54-25.69,5.4-29.35,15.86a18.06,18.06,0,0,0-.75,3.35,30.48,30.48,0,0,0,8,26.1c9.43,10.42,21.15,16.29,34.65,19.25,10,2.19,19.91,1.32,29.91.32,8.15-.81,15.73-3,22.48-7.67A23.88,23.88,0,0,1,116.13,147.33Z"/></g></g></svg>