<svg xmlns="http://www.w3.org/2000/svg" viewBox="0 0 241.04 159.14"><g id="Layer_2" data-name="Layer 2"><g id="Layer_1-2" data-name="Layer 1"><path d="M226.24,116.22c-20.71,6.78-40.28,13.12-59.81,19.6-19.28,6.39-38.5,12.92-57.75,19.37-1.9.63-3.94.89-5.77,1.66-10.52,4.43-20.34,2-29.37-3.71-12.62-8-26.51-13.47-39.71-20.29-4.28-2.22-9-3.55-13.6-5.21S11,124.52,6.5,122.73A59.87,59.87,0,0,1,0,119.24C0,108,2.43,97.64,4.42,87.29c2.66-13.75,5.68-27.44,8.64-41.14,1.08-5,2.47-10,3.62-15a5.74,5.74,0,0,1,4.56-4.57c6.09-1.57,12.18-3.15,18.28-4.69,11.9-3,23.78-6.16,35.73-9,19.51-4.6,39.32-7.52,59.15-10.28,7.65-1.06,15.34-1.83,23-2.5,10.24-.88,19.87,2,29.25,5.58Q201.88,11.61,216.86,18c5.52,2.35,11,5,16.24,7.82,6.78,3.67,8.88,7.87,7.57,15.61-1.71,10.14-3.87,20.21-5.82,30.31S231,91.93,229,102C228.09,106.79,227.16,111.54,226.24,116.22Zm-7.22-4.8c1.63-8.09,3.34-16.17,4.87-24.27,1.48-7.86,2.37-15.85,4.27-23.6A131.27,131.27,0,0,0,232,38.86c-4.06-.88-7.67.32-11.11,1.31-17.59,5-35.09,10.36-52.67,15.45C154,59.75,140.05,65,125.42,67.94a60.5,60.5,0,0,0-18.21,6.87c-1.84,8.7-3.68,17.06-5.37,25.46s-3.4,16.81-4.77,25.27c-1.35,8.3-4.72,16.32-4.2,25.51,15-2.43,28.27-8.6,42.14-12.8s27.61-9.22,41.47-13.67S204.3,116,219,111.42ZM99.57,68.07c-3.36-1.63-6.82-3.54-10.46-5A323,323,0,0,1,54.24,46.63C48,43.19,41.47,40.2,34.92,37.38c-3.32-1.43-6.73-3.15-11.2-2.61C17.06,61.46,12.27,88.62,6.85,116.12c5.38,1.73,10.26,3.24,15.11,4.86,4.61,1.53,9.34,2.81,13.73,4.82,14.8,6.78,29.86,13.07,43.81,21.58,1.11.68,2.54.82,4.41,1.4,2.94-13.63,6.06-26.63,8.5-39.77C94.9,95.59,98.71,82.39,99.57,68.07ZM225,31.08c-1.71-3.37-5-4-7.75-5.17q-17.37-7.36-34.91-14.34c-10.86-4.3-22-5.71-33.64-3.28-5.59,1.17-11.31,1.71-17,2.47-15.86,2.13-31.73,4.29-47.38,7.67C70.1,21.51,56,25.11,41.8,28.56a21.75,21.75,0,0,0-4,2c23.92,11.47,47.13,23,70,34.66,8.59-2.29,17.14-4.55,25.68-6.87,3.31-.9,6.58-1.92,9.86-2.93,11.47-3.55,22.9-7.23,34.42-10.64C193.42,40.1,209.09,35.68,225,31.08Z"/></g></g></svg>