<svg xmlns="http://www.w3.org/2000/svg" viewBox="0 0 172.01 199.02"><g id="Layer_2" data-name="Layer 2"><g id="Layer_1-2" data-name="Layer 1"><path d="M171.45,137.09c-1.45,14.31-6.5,25-15.77,34-15.44,15-34.45,22.19-55,26.13-8.73,1.67-17.5,2.5-26.48,1a20.55,20.55,0,0,1-13.08-7.4c-4-4.8-8.53-9.31-9.65-15.87C40.24,153.7,33,130.65,22.32,109.15,15.94,96.36,10.81,83,3.59,70.56c-5.07-8.72-4.69-17.62.65-26,7.12-11.24,15.68-21.23,27.62-27.68,7.3-3.93,14.53-8.17,22.24-11.08A94.93,94.93,0,0,1,76.55.28C86.34-.85,95.89,1.52,105,5.35c1,.44,2,1.16,3,1.57,6.28,2.37,10.09,6.66,12.54,13.08,3.57,9.33,8.26,18.22,12.37,27.35q17.43,38.78,34.79,77.58c.46,1,1.08,2,1.52,3.08C170.67,131.41,173.11,134.66,171.45,137.09ZM15.15,74.52c1.31,3.16,2.19,5.51,3.26,7.78,1,2.07,2.29,4,3.21,6.06q14.19,32.17,28.3,64.39c4.35,9.89,8.45,19.84,14.5,29,3.65,5.49,7.88,8.47,14.37,9.41,9.59,1.38,18.86-.22,28.09-2.12,16.58-3.41,31.37-10.48,43.62-22.43,6.61-6.45,10.23-14.33,11.78-23.3a24.34,24.34,0,0,0-2.13-15q-3.87-8.13-7.53-16.37c-9.62-21.66-20-43-28.59-65.12A37.46,37.46,0,0,0,116.51,34c-1.49,1.77-2.77,3.23-4,4.74A92,92,0,0,1,79.7,64.38c-4.14,1.94-8.4,3.64-12.65,5.33C53.83,75,40.3,78,26,75.48,22.68,74.91,19.32,74.88,15.15,74.52Zm17.9-5.21,0,.48c4.26-.36,8.65-.19,12.75-1.2A185.59,185.59,0,0,0,74.25,59a85.25,85.25,0,0,0,28.47-20.26,27.31,27.31,0,0,0,5-7.9c2.24-5.19,1.47-10.16-2.71-14.2-4.6-4.45-9.75-7.76-16.38-8.72a42.78,42.78,0,0,0-16.2.67c-20.2,4.76-38.16,13.9-53.12,28.36a51,51,0,0,0-9.19,12.32C5.77,57.3,8.46,63.78,17,67.05a33,33,0,0,0,7.48,1.76C27.3,69.19,30.18,69.16,33.05,69.31Z"/></g></g></svg>