<svg xmlns="http://www.w3.org/2000/svg" viewBox="0 0 235.07 216.75"><g id="Layer_2" data-name="Layer 2"><g id="Layer_1-2" data-name="Layer 1"><path d="M159.83,166.62c2.74,9.37,5.14,17.58,7.64,26.1,2.75.51,5.23.88,7.68,1.43,5.9,1.33,7.7,3.83,7.06,9.7-.18,1.71-.49,3.4-.74,5.1-.63,4.48-2.52,6.74-6.83,7.35a47.94,47.94,0,0,1-9.43.36c-15.75-.95-31.48-.37-47.23-.06-4,.08-8-.43-12-.41-6.58,0-13.15.23-19.73.36a38.58,38.58,0,0,1-6,.09c-6.47-.88-8.14-2.78-8.67-9.4-.2-2.55-.33-5.1-.51-7.87,3.66-3.17,8.8-2.64,12.73-5.48.75-8,1.51-16.22,2.31-24.91A30.18,30.18,0,0,0,81,167.72c-6.57-.37-13.15-.6-19.73-.84-10.88-.41-21.76-.63-32.63-1.26a85.72,85.72,0,0,1-13.55-2.17c-4.74-1.06-8.4-3.47-9.18-8.89-.7-4.81-2.09-9.54-2.46-14.36-2.34-30-3.1-60-3.13-90.13C.32,38,.14,26,0,14c0-.86,0-1.72,0-2.58C.15,7.13,1.38,5.74,5.46,5.21a8.14,8.14,0,0,1,.85-.08C24,4,41.77,3.29,59.44,1.78,78.3.15,97.19,0,116.07,0c13.74,0,27.47,1.09,41.2,1.58q9,.31,18,.18c9.21-.16,18.27,1.24,27.35,2.4,7.66,1,15.28,2.26,23,3.2A6,6,0,0,1,231.06,12a4.23,4.23,0,0,1,.26.81c.92,8.82,2.17,17.62,2.67,26.46.67,11.68,1,23.39,1,35.08.1,22.92,0,45.83-.18,68.74a33.52,33.52,0,0,1-1,6.79c-1.24,5.84-5.35,9.44-11.26,10.07-15.08,1.61-30.16,3.25-45.24,4.82-4,.42-8,.57-12,.92C163.76,165.86,162.15,166.23,159.83,166.62ZM222,18c-2.83-.28-4.55-.31-6.21-.63A264,264,0,0,0,175,12.6c-4.86-.16-9.73.07-14.57-.17-8.57-.43-17.12-1.46-25.69-1.58-18.32-.26-36.64-.1-55-.1-.57,0-1.13.11-1.71.15l-60,3.33c-2.49.14-5,.4-7.39.59a15.74,15.74,0,0,0-.75,3c.07,11.45.14,22.89.3,34.34.19,12.87.52,25.75.71,38.62.28,17.74.43,35.48,3.69,53,.36,2,.37,4,.68,6,.25,1.63.71,3.24,1.18,5.29,4.14.47,8.08,1.23,12,1.32,21.18.51,42.36.87,63.54,1.24,6.28.11,12.58.45,18.84.1,25.15-1.43,50.31-2.82,75.42-4.79,12.2-1,24.29-3.16,36.93-4.87.56-6.48,1.33-12.68,1.59-18.91,1.41-32.93-.66-65.81-1.39-98.72C223.35,26.47,222.54,22.53,222,18ZM94.07,169.19c-2.52,12.48-2.86,19.55-1.37,24.4,7.22,0,14.35,0,21.47,0s14.28-.05,21.41-.39,14.12.74,21.54-1A106.87,106.87,0,0,0,150.26,167h-4.53c-15.7.18-31.35,2.59-47.1,1C97.1,167.86,95.46,168.8,94.07,169.19ZM80.89,205.28c0,1.17-.1,1.65,0,1.72.71.37,1.52,1,2.22.9a98.84,98.84,0,0,1,23.94.07,60.08,60.08,0,0,0,7.71.08q20.57-.36,41.13-.77,7.26-.17,14.51-.64c.42,0,.93-1.23,1.08-1.95.07-.36-.49-1-.92-1.27a3.35,3.35,0,0,0-1.64-.4c-9.37-.37-18.72-1.08-28.14-.64-12,.55-24,.14-36,.56C96.85,203.21,88.82,203.09,80.89,205.28Z"/><path d="M212.94,144a34.79,34.79,0,0,1-16.87,4c-20.9.13-41.79.16-62.69.49-14.3.23-28.6.93-42.9,1.33-12,.34-24,.36-36-1.09-5.1-.61-10.3-.34-15.45-.59-2-.09-4.15,0-5.88-.84-8.45-3.89-10.85-5.15-11-15.18C22,125,21,117.89,20.64,110.75c-.38-7.43-.53-14.87-.67-22.31-.12-6.27,0-12.55-.14-18.83-.15-10.3-.43-20.6-.51-30.9,0-4,.32-8,.51-12.34,2.06-.7,3.86-1.76,5.71-1.86C37.24,23.88,49,23.44,60.67,23c4.29-.16,8.59-.26,12.88-.23q40.38.27,80.75.65c4.29,0,8.57.47,12.86.73A101.17,101.17,0,0,0,186,23.73a51.12,51.12,0,0,1,22.88,2.21C212,27,213.9,28.87,213.9,32c0,12.55,2.22,24.94,1.31,37.64-1.56,21.68-1.6,43.47-2.25,65.21C212.87,137.68,212.94,140.49,212.94,144ZM205.73,40.7c-18.57-5.31-26.17-6.53-38.34-6.38-3.14,0-6.29,0-9.44-.08l-54.11-.51c-2.86,0-5.71-.18-8.58-.25-16.59-.38-33.19-.79-49.79-1.12-3.43-.07-6.88.06-10.3.31a49.48,49.48,0,0,0-6,1.19c-.06,7.28-.3,14.12-.16,21,.3,14.59.79,29.18,1.2,43.77.25,9.16.44,18.32.76,27.48a34.27,34.27,0,0,0,2,11.4,22.53,22.53,0,0,0,3,.71q21.85,1.34,43.72,2.61a32.93,32.93,0,0,0,3.44,0c16.57-.66,33.14-1.55,49.72-2,20.89-.51,41.8-.6,62.69-.93,2.2,0,4.39-.48,6.8-.76C204.51,104.71,206.88,72.86,205.73,40.7Z"/></g></g></svg>