<svg xmlns="http://www.w3.org/2000/svg" viewBox="0 0 57.33 102.01"><g id="Layer_2" data-name="Layer 2"><g id="Layer_1-2" data-name="Layer 1"><path d="M27.34,102c-5.94-.86-11.82-2.59-16.18-8.63A56.42,56.42,0,0,1,.9,68.4c-3.06-19.25,2.1-36.77,9.63-54,1.59-3.64,3.46-7.17,5-10.85C16.5,1.05,18.24.23,20.75,0a12.1,12.1,0,0,1,11.08,5.3c4.42,5.95,8.86,11.94,12.66,18.28,3.07,5.12,5.12,10.83,7.79,16.2a51.77,51.77,0,0,1,5,24c-.06,5.28-1.89,10.61-3.44,15.76a53.37,53.37,0,0,1-4.6,10.1C45.42,96.79,35.88,102.19,27.34,102ZM22.39,14a29.3,29.3,0,0,0-1.81,2.65,105.38,105.38,0,0,0-8.47,24.22,67.9,67.9,0,0,0,1.12,35.55c1.66,5.49,5.05,9.58,9,13.33,2.37,2.27,5.27,2.65,8.71,1.64,6.32-1.86,10.26-5.79,12.69-11.73,3.29-8,3.29-16.17,1.43-24.41C42.28,43.05,36.35,32.35,29.1,22.33,27.16,19.65,25,17.17,22.39,14Z"/></g></g></svg>