<svg xmlns="http://www.w3.org/2000/svg" viewBox="0 0 137.53 194.97"><defs><style>.cls-1{fill:#fff;}</style></defs><g id="Layer_2" data-name="Layer 2"><g id="Layer_1-2" data-name="Layer 1"><path d="M93,.12c6.3-.23,11.2,1.83,14.83,6.35A63,63,0,0,1,119.51,31c.64,2.55-1,4.28-3.13,5.53q-6.69,3.87-13.32,7.82-4.78,2.85-9.49,5.84C86.1,55,78.42,59.44,71.28,64.66,58.14,74.25,43.72,82.09,31.81,93.38a45.76,45.76,0,0,1-5.52,4.08c-6.94,4.83-14.37,5.06-22,2.13-3.41-1.3-4.92-4-4-7.54a20.52,20.52,0,0,1,3.19-6.94C15.29,69.33,26.36,53,40.6,39.09c9.63-9.4,19.22-18.8,29.7-27.24,4-3.21,8.35-6,12.6-8.91C86.07.79,89.55-.39,93,.12ZM14.44,92c6.61-3.58,10.78-7.47,15.24-11,5.63-4.41,11.21-8.91,17.13-12.89C62,58,77.37,48.05,92.64,38c4.46-3,8.82-6.06,13.79-9.49-3.87-6.86-4.52-15.11-12.3-19.2C84.71,13,77.29,19.37,70.06,25.73,61.27,33.46,53.15,42,44.89,50.25c-11.34,11.42-20.1,24.86-29.28,38C15.19,88.8,15.15,89.65,14.44,92Z"/><path d="M116.76,67.56c3.22.25,6.08.32,8.91.71,6,.8,9.74,4.68,10.42,10.72.57,5.11.9,10.24,1.38,15.36.38,4.12-1.08,7.88-2.38,11.63-.72,2.06-2.62,2.94-4.78,3-3.43.19-6.86.32-10.29.51q-19.69,1.11-39.38,2.26a38.09,38.09,0,0,0-5.1.68C62.35,115,49.2,117.78,36,120.15a73,73,0,0,1-12.82.69c-4.59,0-8-2.74-11.29-5.57-2-1.78-2.09-4.35.1-5.86a88.12,88.12,0,0,1,10.91-6.79C35.18,96.55,47.35,90.1,60.05,85c13.22-5.32,26.23-11.38,40.19-14.76,2.21-.53,4.38-1.32,6.62-1.65C110.25,68.07,113.69,67.86,116.76,67.56Zm7,10.43c-4.1,0-7.23-.24-10.3.05-8.06.77-15.48,3.93-23,6.73-13.65,5.11-27.18,10.52-40.76,15.8-5.33,2.08-10.1,5.1-15.61,9.06,3.64-.35,6.19-.51,8.71-.87,2-.29,3.91-.87,5.87-1.27,9.52-1.92,19-4.46,28.59-5.57,12.76-1.48,25.66-1.85,38.49-2.69,3.1-.2,6.21-.34,9.42-.52C126.46,91.51,124.2,85.22,123.75,78ZM29.27,110.76l-.49.21.51.16Z"/><path d="M30.76,127.45c5.25.73,11,1,16.51,2.4,11.89,3,23.79,6.09,35.4,10C91,142.61,99,146.53,107,150.33c3.57,1.7,6.77,4.25,10,6.6a5.46,5.46,0,0,1,2.18,6.08,84.08,84.08,0,0,1-3,9.76c-1.71,4.21-3.7,8.33-5.75,12.39a47.14,47.14,0,0,1-4.07,6.5,8.24,8.24,0,0,1-6.66,3.27c-6.18.3-11.69-.8-16.59-5.15C77.33,184.66,71.15,180,65,175.4c-11-8.15-22.24-16.05-33.31-24.14-3.91-2.85-7.63-6-11.47-8.92-2.61-2-3.92-4.87-5.19-7.73-1.08-2.43-.11-4.64,2.62-5.21C21.76,128.53,26,128.13,30.76,127.45Zm.09,10.63c8.84,6.1,16.11,11,23.27,16.09s14.53,10.13,21.43,15.65,13.94,10.76,21.52,16.29c5.17-7.36,7.65-15.07,9.72-22.77C93.26,152.37,47.87,136.9,30.85,138.08Z"/><polygon class="cls-1" points="29.27 110.76 29.29 111.13 28.78 110.97 29.27 110.76"/></g></g></svg>