<svg xmlns="http://www.w3.org/2000/svg" viewBox="0 0 309.13 171.91"><g id="Layer_2" data-name="Layer 2"><g id="Layer_1-2" data-name="Layer 1"><path d="M89.69,0c16.93,12.79,35.09,21,56.39,20.56,2.29,0,4.59-.06,6.87.07a64.43,64.43,0,0,0,35.56-7.84c4.36-2.43,8.6-2.67,13.19-1.85a8.06,8.06,0,0,1,5.09,2.86c12,14.42,27.73,20.49,46.19,20.61,8.12.05,16-.64,23.46-4.15a13.85,13.85,0,0,1,5.81-1c2.25,0,4.14,2.72,3.63,4.92a25.56,25.56,0,0,1-1.32,3.12c-4.65,12.17-1.89,23.2,5.92,33,2.16,2.71,6.09,4.07,9.31,5.86,2.49,1.38,5.26,2.27,7.68,3.75a3.53,3.53,0,0,1,.19,5.86,18.68,18.68,0,0,1-2.87,1.84c-14.11,7.92-20.7,21-23.88,36-1.13,5.36.92,10.75,2.64,15.94a57.25,57.25,0,0,1,2.29,7.35c.62,3.33-1.26,5.55-4.75,5.65a34.39,34.39,0,0,1-6.76-.75c-19-3.33-36.39.36-51.73,12.39-2.25,1.76-4.26,3.83-6.45,5.67-2.93,2.47-5.43,2.7-8.58.86a14.68,14.68,0,0,1-2.1-1.51c-6.69-5.61-14.73-7.23-23.14-8-13.19-1.23-25.78,1.36-37.68,6.62-6.7,3-11.49.83-16.33-3.13-2.65-2.17-5.15-4.54-7.64-6.91a24.81,24.81,0,0,0-12.93-6.4c-15.06-2.69-30.13-3.61-45.1.75-4.94,1.44-10,2.46-14.88,4.11s-8.33-.65-11.48-3.67c-.86-.83-1-2.56-1.19-3.92-.86-5.65-1.51-11.33-2.46-17a24.8,24.8,0,0,0-12.9-18.3c-4.94-2.78-9.12-7.08-15.61-7.77L0,98c3.06-2.94,5.88-5.71,8.77-8.4C19.4,79.69,23.18,67.22,22.28,53.1A10.75,10.75,0,0,0,20,47.78c-2.74-3.67-2.57-7.3-.64-11.71,6.28.84,12.44,1.81,18.63,2.47C48,39.6,57.27,37,66.26,32.92A36.86,36.86,0,0,0,80.62,21.1c1.81-2.39,3.17-5,3.15-7.8,0-4.54,2.42-8.06,4.06-11.93C88,.93,88.71.7,89.69,0ZM194.85,20.38c-15.43,9.11-32.61,10.9-50.33,10.34s-34.57-4-49.91-13.78c-1.85,2.88-3.39,5.25-4.9,7.64a45.12,45.12,0,0,1-19,17c-9.12,4.34-18.77,7-29,6.81-2.49,0-5,.21-7.58.33-1.24,4.16-.64,7.9-.73,11.56A44.56,44.56,0,0,1,17.54,94.13c-1,.85-2.52,1.5-1.94,3.56,4.17,2.69,8.45,5.52,12.8,8.24a34.48,34.48,0,0,1,15,20.23c1,3.26,1.17,6.74,1.74,10.11.47,2.76,0,5.82,2.82,8.21a20.83,20.83,0,0,0,3.86-.53,90.11,90.11,0,0,1,31.26-4.72c8,.32,16,.8,24,1.72,10.56,1.21,19.89,5.18,26.91,13.62a33.67,33.67,0,0,0,4.06,3.5c24-8,48-11.35,71.22-.19,5.26-3,9.8-6,14.66-8.32a97.63,97.63,0,0,1,15.19-5.81,104.33,104.33,0,0,1,16-3.11c5.25-.63,10.6-.59,16.29-.86a55.92,55.92,0,0,0-1.45-7.14c-1.79-5.13-1-10,.26-15.17a66,66,0,0,1,16.47-29.69c1.3-1.38,2.5-2.86,3.56-4.07-3.62-3.1-7.22-5.56-10-8.72a37.08,37.08,0,0,1-9.39-25.18c0-2.21.67-4.61-1.41-6.57a126.89,126.89,0,0,1-31.51-.34,59.93,59.93,0,0,1-29.87-12C203.7,27.62,199.54,24.14,194.85,20.38Z"/></g></g></svg>