<svg xmlns="http://www.w3.org/2000/svg" viewBox="0 0 104.36 156.07"><g id="Layer_2" data-name="Layer 2"><g id="Layer_1-2" data-name="Layer 1"><path d="M33,87.19c-.63-5.78-2.75-9.49-4.72-13.19a83.83,83.83,0,0,1-6.1-15.08c-5.26-17.5-5.61-34.93.23-52.37,1-3,.79-3,4.58-6.55,1.43,1.06,3.39,1.9,4.39,3.38a55.43,55.43,0,0,1,5.37,9.75A39.31,39.31,0,0,0,54.16,32.57c6.2,3.56,12.35,7.24,18.73,10.46C84.13,48.71,91.59,57.85,97,68.82a89.83,89.83,0,0,1,5.24,13.56c4.18,13.8,1.63,27.14-3.39,40.17-1.85,4.79-4.15,9.42-6.38,14.06a22.41,22.41,0,0,1-10.81,10.63c-10.41,4.93-21.22,8.56-32.92,8.82-15.11.34-27-6-36.63-17.32-7.35-8.65-10.47-19-11.66-29.92a71.3,71.3,0,0,1,5.5-37,38.86,38.86,0,0,1,3.74-6.74c2.25-3.2,5.13-4.22,8.11-3.26,3.52,1.14,4.56,3.66,4.74,7.23C23,78.43,23.81,79.58,33,87.19ZM14.1,84c-.76,1.48-1.6,2.42-1.71,3.44-.58,5.68-1.5,11.39-1.33,17.07.23,7.7,1.13,15.49,5.12,22.35,7.58,13.06,18.36,21.07,34.17,20a71.74,71.74,0,0,0,22.42-5.39,17.87,17.87,0,0,0,9.51-8.28c2.89-5.57,5.86-11.12,8.24-16.91A41,41,0,0,0,93,92.72a149.1,149.1,0,0,0-4.59-16.47c-2.37-7.58-7-13.63-12.87-18.91-5.58-5-12.11-8.5-18.67-12C48.09,40.6,39.15,36,32.7,27.92c-.55-.68-1.75-.84-3.4-1.57-.06,4.83-.58,8.86-.08,12.76,1.55,12.24,4.4,24.1,10.62,35,2.38,4.18,3.86,8.89,5.62,13.4a14.23,14.23,0,0,1-1.08,13c-7.09,3.8-12.78,2.37-17.64-3.6-2.89-3.55-6-6.89-9.14-10.24A28.11,28.11,0,0,0,14.1,84Z"/></g></g></svg>