<svg xmlns="http://www.w3.org/2000/svg" viewBox="0 0 154.05 177.17"><g id="Layer_2" data-name="Layer 2"><g id="Layer_1-2" data-name="Layer 1"><path d="M115.81,139.08c-.6,5.9-1,11.86-1.88,17.75a31.17,31.17,0,0,1-2.62,8.08A18.77,18.77,0,0,1,100.06,175c-9.31,3.29-18.39,3.21-27.15-2.35C65.7,168,61,162.12,60,153.44c-.31-2.78-1.06-5.51-1.72-8.83-4.82,1-9.21,2-13.62,2.86-7.31,1.41-14.16,0-20.73-3.4-8.39-4.39-11.34-11.76-11.33-20.6a24.6,24.6,0,0,1,5.29-16c2.13-2.62,4-5.46,6.21-8.59-2.78-1.44-5-2.62-7.3-3.78C-1,86-5.44,64.86,7.26,49.43a14.13,14.13,0,0,1,5.19-4.29c7.52-3,15.27-4.91,23.43-2.48a39.17,39.17,0,0,0,4.18.85c.24,0,.51-.12,1.13-.28a53.16,53.16,0,0,0,0-5.64,45.41,45.41,0,0,1,1.18-16.16A21.28,21.28,0,0,1,50.87,8.94,47,47,0,0,1,78.18,0c11.73-.09,23.53,8.55,27.61,19.8C108,25.8,109,32,107.9,38.34c-.23,1.32-.37,2.66-.68,4.89,3.53-.9,6.19-1.6,8.87-2.25,8.6-2.1,17-1.95,25,2.26,11.7,6.14,16.45,20.81,10.08,32.32-2.19,4-5.23,7.46-8,11.06a49.31,49.31,0,0,1-4.1,4.2c.39,2.93,2.84,3.75,4.42,5.22a22.5,22.5,0,0,1,.78,32.2c-7.35,7.54-15.83,12.15-26.8,10.38C117,138.54,116.44,138.9,115.81,139.08Zm-6-49.91c1.36-7.4-1.83-14-6.61-20-2.32-2.92-4.7-5.78-9.22-5.06a5.71,5.71,0,0,1-3.9-1.37c-6.18-5-13.33-4.48-20.39-3.48a11.76,11.76,0,0,0-8.46,5.38C58.55,69,55.6,73.17,52.92,77.54a16.22,16.22,0,0,0-1.77,4.79C48,96,56.19,114.8,68.33,121.73a29.48,29.48,0,0,0,11.28,3.89c11,1.31,24.12-7.82,27.05-17.34C108.51,102.24,110.21,96.19,109.86,89.17ZM91.5,51c4.8-5.13,5.2-11.65,4.9-18.24-.31-6.83-3.29-12.51-8-17.47-6.06-6.38-12.8-8.11-20.79-4-1.52.78-3.09,1.47-4.66,2.15-5.39,2.32-8.38,6.64-10.09,12C49.57,35.87,52.57,45,58.12,53.58,79.63,47.66,77.32,49.77,91.5,51ZM51.67,62.94c-4.73-4.27-9.57-6.7-14.33-9.29-4-2.16-8.16-2.5-12.5-2a14.25,14.25,0,0,0-12.79,12c-1.12,7.47.62,14.14,6.31,19.57,4.7,4.49,10.32,7.16,16.42,8.93,1.15.33,2.6-.34,4.08-.58C39.44,80.33,45.44,71.92,51.67,62.94ZM71,134.57c-1.41,5.84-.86,10.65.06,15.44,1.9,9.92,8.71,15,17.76,17.81a9.07,9.07,0,0,0,4.18.06c5.13-1,7.85-4.54,9-9.27,1.32-5.3,2.08-10.79.84-16.16-.87-3.73-1-8-4.5-11C89.78,135.85,80.57,134.84,71,134.57Zm52.32-46.14c2.53-.7,4.65-.82,6.23-1.81a27.08,27.08,0,0,0,12-15.05c2.88-9.22-.49-15.26-8.27-20.32a16.76,16.76,0,0,0-14.79-2,68.14,68.14,0,0,0-8.63,3.67c-1.44.72-3.06,1.59-2.92,3.67C122.11,72.08,120.47,73.77,123.28,88.43ZM39.35,102.37c-5.53,1.06-10.26,3.21-13.23,8.25-3.48,5.89-3.22,11.93-.7,18,3,7.34,11.87,12.14,19.48,10.13A136.11,136.11,0,0,0,58.56,134c1.19-.46,2.69-1,2.59-2.35-4.55-4.44-9.38-8.13-12.85-12.82C44.67,113.88,42.34,108,39.35,102.37Zm70.26,21.26c4.32,4.44,4.92,5,8.09,5.43a47.07,47.07,0,0,0,7.68.61,13.17,13.17,0,0,0,12.77-11.57,32.45,32.45,0,0,0-.17-6.82,14.1,14.1,0,0,0-11.21-12.4c-3.15-.65-5.2.23-6,3.26A51.3,51.3,0,0,1,109.61,123.63Z"/></g></g></svg>