<svg xmlns="http://www.w3.org/2000/svg" viewBox="0 0 222.82 196.63"><g id="Layer_2" data-name="Layer 2"><g id="Layer_1-2" data-name="Layer 1"><path d="M62.54,56c1.09-3.46-.15-6.44-.63-9.48-1.81-11.32-3.18-22.7-1.36-34.15a22.69,22.69,0,0,1,2.82-8c2.89-4.76,7.27-5.81,11.7-2.58a36.74,36.74,0,0,1,8.43,8.45c3.76,5.38,6.89,11.2,10.24,16.86,1.58,2.68,3.08,5.4,4.48,7.86,2.79.11,3.12-1.86,4-3.12a39.1,39.1,0,0,0,2.69-4.37A50.64,50.64,0,0,1,126.37,5.93c1.27-.66,2.52-1.36,3.84-1.91a7,7,0,0,1,8.57,1.83,18.43,18.43,0,0,1,4.74,9c1.66,8.13,3.48,16.22,3.35,24.6-.05,3.69.22,7.38.37,11.64,2-.14,3.6-.1,5.17-.38,7.6-1.35,15.14-3.29,22.8-4.05s15.43-.45,23.16-.44a8.77,8.77,0,0,1,4,1.34c3.8,2.13,5,5.25,3.76,9.4-1.58,5.33-4.74,9.75-8.15,14a117.72,117.72,0,0,1-17.15,18,39,39,0,0,0-3.08,3.25c5.24,2.27,9.95,4.19,14.56,6.33,4.15,1.93,8.22,4,12.27,6.17,7.61,4,12.79,10.48,17.32,17.52,1.61,2.51,1.12,4.7-1.52,6.66-2.49,1.86-5.1,3.91-8,4.83a67.66,67.66,0,0,1-18.47,3.53c-10.55.33-21.09,1.13-31.62,1.73-1.49,2.08-.12,3.93.42,5.68,4.25,13.66,4.43,27.63,3.16,41.68-.73,8-8.11,12.39-15.58,9.28a35.63,35.63,0,0,1-13-9.65,234.68,234.68,0,0,1-18.56-24.71c-.94-1.4-2-2.72-3.11-4.21-2.7.85-3.34,3.2-4.38,5-6.27,11.18-15.1,20.09-24.72,28.34A14,14,0,0,1,74.63,194c-4-.66-7-2.79-8.18-6.66a22.81,22.81,0,0,1-1.18-8.43c1-10.24,1.36-20.58,4.45-30.52a29.89,29.89,0,0,0,.59-4.69c-3.22-.61-5.85.46-8.42,1.37-15.32,5.45-31.13,7.38-47.31,6.74a44.23,44.23,0,0,1-6-.48C4.5,150.56,2,147.67,2,143.6c0-3.17.53-6.33,2.5-9a61,61,0,0,1,6-7.29c10.29-9.93,20.67-19.78,34.16-27a39.44,39.44,0,0,0-4.36-3C29,92,19.46,84.26,9.74,76.74,4.17,72.43.07,67,0,59.38a6.2,6.2,0,0,1,3.58-6.22A28,28,0,0,1,19.2,49.45c13.44,1,26.78,2.44,39.81,6.1A27.48,27.48,0,0,0,62.54,56Zm90.57,43.16c.69-8.7-2.72-15.64-8.52-21.73-2-2.07-3.54-4.52-5.6-6.48-9.48-9.08-20.5-14.82-34-12.87-16.47,2.38-27.93,12-35.53,26.53-3.55,6.8-3.29,13.85-1.35,20.81a38.62,38.62,0,0,0,11,18.13,43.07,43.07,0,0,0,22.56,11.29c16.31,2.92,30.5-1.08,43.14-11.35a16.74,16.74,0,0,0,6.43-10.78Zm-83,30C61.93,123.53,59.7,114.57,55,107.14c-9,3.89-16.33,9.22-23.33,15.14-5.68,4.8-11.18,9.79-15.35,16A15.69,15.69,0,0,0,15.07,142C34.25,143.83,57.17,138.67,70.08,129.21ZM64.4,68.8C63.35,68,62.76,67.29,62,67.07a178,178,0,0,0-43.83-7.23,6.78,6.78,0,0,0-4.64,1.39c-1.7,1.71-.39,3.86.77,5.42a26.17,26.17,0,0,0,4.73,4.85,117.7,117.7,0,0,0,11.06,8.09c6.06,3.74,12.33,7.17,18.59,10.57,1.37.74,3.1.83,5.14,1.35C55,82.5,60.93,76.27,64.4,68.8Zm94.92,56.36c11.09,3.73,36.11,3.07,47.42-1.19-.41-2.39-2-4-3.75-5.48-7.48-6.47-16.49-10.25-25.39-14.17-3.32-1.46-6.67-3.31-10.6-2.6-.82,4.1-1.24,8.12-2.49,11.87C163.19,117.57,161.1,121.3,159.32,125.16Zm-5.17,58.94c2.79-15-1.81-37.15-9.13-45.27-3.34,1.14-7,2.1-10.32,3.58s-7.36,1.12-10.2,4.41C132.68,158.71,140,171,150,181.35,150.91,182.31,152.25,182.87,154.15,184.1Zm9.27-98.56c4.63-1.15,7.66-4.67,10.89-7.84s6.45-6.43,9.47-9.83,6.56-6.14,7.66-10.55c-2.63-2.36-5.1-2.08-7.72-1.59-7.85,1.48-15.78,2.63-23.58,4.3-4.38.94-8.83,2.12-12.72,5.2Zm-29.69-30.1c3-11.2,1.58-28.62-3-39-4.19.73-7,3.58-9.52,6.62-5.94,7.29-9.76,15.79-13.89,24.53,5,1,9.45,1.65,13.75,2.93S129.49,53.77,133.73,55.44Zm-26.1,90.88c-8.5-1.44-15.59-4.4-23.7-5.46-1.56,7.68-3.06,14.91-4.46,22.15a63.7,63.7,0,0,0-1.18,8.44c-.18,3.26.7,6.15,3.95,7.66C93.34,170.45,102.13,160.32,107.63,146.32ZM77.69,57c2.8-1.39,5-2.52,7.31-3.61s4.46-2.1,6.63-3.12c-2.68-7.53-13.09-27.78-17-33-.55-.72-1.65-1-2.71-1.63C70,28.77,72.35,46.09,77.69,57Z"/></g></g></svg>