<svg xmlns="http://www.w3.org/2000/svg" viewBox="0 0 70.77 245.07"><g id="Layer_2" data-name="Layer 2"><g id="Layer_1-2" data-name="Layer 1"><path d="M49,205.82c4.56,1.44,8.34,2.78,12.19,3.81s6.3,3.61,7.87,7.27a19.6,19.6,0,0,1,1.46,10.92c-.68,4.41-2.51,8.35-6.66,10.48-3.8,1.95-7.67,4.14-11.77,5-13.41,2.87-26.73,2.45-39.65-2.83a21.92,21.92,0,0,1-8.32-5.92,16.2,16.2,0,0,1,5.75-25.77c4.4-1.84,9.13-2.88,14.38-4.49.26-1.65.71-3.84.93-6.05,1.61-16.17-.42-32-4.32-47.69-2.22-8.88-5.09-17.61-7.42-26.47-2.46-9.4-4.9-18.82-6.88-28.33a122.39,122.39,0,0,1-.67-45.27c1.82-11,3.8-22,5.14-33.07,1.09-9,6.4-13.76,14.49-16A40.56,40.56,0,0,1,44.29.82a24.2,24.2,0,0,1,7.05,3,9.59,9.59,0,0,1,5.07,8.44c.52,15.21,4.48,30,5.88,45.07,1.22,13.14,2.2,26.39.42,39.46-1.54,11.29-4.7,22.37-7.33,33.5-2.77,11.71-5.26,23.47-5.86,35.5-.58,11.44-.65,22.9-.89,34.35C48.6,201.85,48.86,203.54,49,205.82ZM19,19.32a34.84,34.84,0,0,0-1.36,4.89C16,36.69,14.19,49.16,13,61.69A121.49,121.49,0,0,0,15.27,101c2.64,11.42,6.11,22.63,9.1,34,2.25,8.56,4.93,17.08,6.29,25.79S35.07,178,32.57,187c1.9,5.68.13,11.36,0,17-.12,5.87-.31,8.12-8,7.89a16.85,16.85,0,0,0-9.89,2.34c-7.12,4.56-7.76,11.31-1.64,16.79a16.58,16.58,0,0,0,7.5,3.91,64.87,64.87,0,0,0,32.25-1,28,28,0,0,0,7.61-3.9c3-2,3.84-4.93,2.71-8.26-1-2.88-2.8-5.08-5.89-5.69a74.53,74.53,0,0,0-7.63-.88c-4.39-.43-7.52-3.05-8.34-7.24a23.44,23.44,0,0,1-.25-4.28c0-11.45-.24-22.91.09-34.36.38-13.18,1.66-26.34,5.26-39.06,3.2-11.29,6.06-22.62,8.46-34.11A64.63,64.63,0,0,0,56,77.48c-1.12-13.4-2.21-26.81-3.63-40.17a75.86,75.86,0,0,0-3.78-17.56c-5.22.35-10.05,1-14.88.9S24.18,19.82,19,19.32Zm3-8.89c9.27,4,10.76,4.15,21.22,2,1.17-.24,2.17-1.32,3.79-2.35C40.15,6.26,33.52,7.4,27.1,7.48,25.73,7.5,24.39,9,21.92,10.43Z"/></g></g></svg>