<svg xmlns="http://www.w3.org/2000/svg" viewBox="0 0 101.26 125.52"><g id="Layer_2" data-name="Layer 2"><g id="Layer_1-2" data-name="Layer 1"><path d="M101,87a27.28,27.28,0,0,1-8.31,24.26A25.94,25.94,0,0,1,88,115.05c-15.88,9.66-32.75,13.17-51,8.27-6.94-1.86-13.75-3.89-20-7.61-3.19-1.9-5.11-4.27-5.67-8C9.72,97.2,7.91,86.76,6.22,76.3A39.64,39.64,0,0,0,5.73,72c-3.32-12-3.9-24.29-5.48-36.49C-1.09,25.25,3.08,17.64,11,11.91A44.34,44.34,0,0,1,23.2,5.66c16-5.07,32.41-7.4,49.13-4.18A91.62,91.62,0,0,1,87,6.13c5.63,2.13,8.52,6.62,9,12.48.6,6.83,1.2,13.68,1.24,20.52a245.58,245.58,0,0,0,2.21,32.51C100.19,76.74,100.48,81.9,101,87ZM88.15,33.69C86,34.94,84.09,36,82.23,37.16A47.79,47.79,0,0,1,57.9,44.67c-14.64.37-29.2-.19-43.53-3.62-1.77-.42-3.65-1.76-6-.16a35.21,35.21,0,0,0,.27,4c1.92,11,3.92,21.94,5.85,32.92.84,4.78,1.52,9.6,2.37,14.38.66,3.66,1.5,7.29,2.24,10.93a7.32,7.32,0,0,0,3.93,5.34,55.5,55.5,0,0,0,6.14,3,85.8,85.8,0,0,0,26,5c11.83.5,21.88-3.51,31-10.61A14.07,14.07,0,0,0,92.06,94c-.07-2.86-.32-5.72-.46-8.58Q90.54,64,89.5,42.58C89.37,39.8,89.79,37,88.15,33.69ZM49.31,36.61l0-.57c3.42,0,6.86.27,10.25-.06A38.5,38.5,0,0,0,82.73,25.9C89.09,20,88,15,80.1,11.9,70.54,8.2,60.57,8.25,50.58,8.11c-9.29-.14-18.07,2.3-26.72,5.24a36,36,0,0,0-7.56,3.94C12.59,19.66,12.14,21.46,13,26a7.86,7.86,0,0,0,5.82,6.67,28.84,28.84,0,0,0,5,1.22C32.3,34.88,40.81,35.73,49.31,36.61Z"/></g></g></svg>