<svg xmlns="http://www.w3.org/2000/svg" viewBox="0 0 95.92 126.75"><g id="Layer_2" data-name="Layer 2"><g id="Layer_1-2" data-name="Layer 1"><path d="M51.32,27.72c3.13-4.33,5.56-7.81,8.13-11.19,3.41-4.47,8.16-7.16,13.24-9.24a13.73,13.73,0,0,1,5.82-1.06c8.48.52,16.19,8,17.13,16.56,1.14,10.28-1.36,20-5.59,29.15A156.63,156.63,0,0,1,70.73,84.25c-6.91,8.67-14.21,17.11-18.88,27.34-1.78,3.89-3.5,7.8-5.28,11.69a5.53,5.53,0,0,1-9.68,1.08A13.43,13.43,0,0,1,35,120.52c-4.76-14.21-12.34-27.06-19.61-40-5.06-9-9.77-18.2-12.58-28.13C-.75,39.72-1.63,26.92,4.33,14.62a34.9,34.9,0,0,1,6.18-9.16A17.46,17.46,0,0,1,31.8,2.27c9,5.18,16.1,11.83,18.41,22.46A26.22,26.22,0,0,0,51.32,27.72ZM47.89,50.9c-.61-.76-1.68-1.53-2-2.52-1.31-4.67-3.16-9.36-3.4-14.12-.45-9.08-4.8-15.65-11.39-21.2-5.58-4.71-10.79-4-15.29,2C11.1,21.33,10,28.51,10.39,36.12c.46,9.65,3.68,18.53,8,27,6.09,12,12.56,23.76,19,35.53,1.45,2.63,2.07,5.89,5.69,8.76.67-1.21,1.14-2.25,1.76-3.17,4.46-6.63,8.9-13.26,13.43-19.83S67.79,71.46,72,64.68c5-8,9.39-16.4,11.77-25.61,1.13-4.4,2.51-9,2.27-13.44-.51-9.44-5.55-12.23-13.71-7a32.57,32.57,0,0,0-11.2,12.72c-2.6,5.07-5,10.26-7.12,15.54C52.87,49.79,51,50.86,47.89,50.9Z"/></g></g></svg>