<svg xmlns="http://www.w3.org/2000/svg" viewBox="0 0 111.46 117.27"><g id="Layer_2" data-name="Layer 2"><g id="Layer_1-2" data-name="Layer 1"><path d="M55.63,10.74c4.61-2.9,8.68-5.86,13.95-7C82,.9,99.69,7.09,107.66,21.26A30,30,0,0,1,111.44,37c-.2,6.83-1.23,13.49-4.28,19.94A69.63,69.63,0,0,1,90,80.22c-3.67,3.19-7.07,6.69-10.74,9.88-6.42,5.56-10.8,12.52-14.49,20A15.89,15.89,0,0,1,61.54,115c-3.56,3.25-5.91,3.11-8.39-.86C44.56,100.33,32.82,89.53,20.74,79,4.4,64.64-1.29,46,.24,24.94.89,15.91,5.71,8.69,13,3.44A18.78,18.78,0,0,1,21.74.36C33.51-.83,44.67.57,53.51,9.64A9.92,9.92,0,0,0,55.63,10.74ZM51.77,22.93a6.6,6.6,0,0,1-1.12-.75c-.35-.45-.64-.94-.95-1.41C43.47,11.56,34.14,9.92,24,10.42a11.06,11.06,0,0,0-8.32,3.91c-2.93,3.6-5.22,7.66-5.44,12.37C9.68,39.43,13,51.15,21.1,61.06c4.13,5.06,9.15,9.42,14,13.86,7.17,6.57,14.3,13.15,19.57,21.44a24.22,24.22,0,0,0,2.94,3.21c.8-.66,1.67-1.06,2-1.74,5.07-9.15,12.37-16.38,20-23.36,3.37-3.1,6.86-6.09,10-9.41,6.67-7,11.1-15.34,11.82-25.09.55-7.41-1.8-14.16-7.55-19.19A27.33,27.33,0,0,0,80,14.38C72.87,13.29,65.72,13,60.63,20,58.72,22.68,55.54,23.61,51.77,22.93Z"/></g></g></svg>