<svg xmlns="http://www.w3.org/2000/svg" viewBox="0 0 218.47 90.06"><g id="Layer_2" data-name="Layer 2"><g id="Layer_1-2" data-name="Layer 1"><path d="M104.41,25.51c1.33-2.26,2.49-4.54,3.94-6.63C115,9.39,123.26,2.06,135.17.68a76.42,76.42,0,0,1,19.7-.07,285.49,285.49,0,0,1,58.88,15.18,32,32,0,0,1,3.57,1.82c2.71,5.86.23,10.07-3.34,14.23-14.22,16.56-31.54,29-51,38.6-14.26,7.09-29.58,10.69-45,13.77a294.56,294.56,0,0,1-46,5.73A132.86,132.86,0,0,1,19,81.5c-4-1.52-8-3-12.13-4.3S.51,73.57,0,69.45c1.12-3,1.86-6.07,3.41-8.72a70.66,70.66,0,0,1,7.83-11.17A177.45,177.45,0,0,1,42.88,22a47.87,47.87,0,0,1,21.29-8.26c14.39-2,26.55,2,37.65,10.66A12.1,12.1,0,0,0,104.41,25.51ZM189.82,20l-.12-1.76c-4.33-1.21-8.6-2.69-13-3.58-9.53-1.94-19-4-28.87-4.18-13.46-.21-22.71,6.74-29.78,17.18-2.35,3.48-3.44,7.81-5.17,11.73-1.57,3.56-4.58,4.56-7.59,2.21a79.47,79.47,0,0,1-9-8c-8-8.47-17.75-11.34-28.92-9.09a40.39,40.39,0,0,0-17.8,8.09Q38.31,41.81,27.05,51.1c-2,1.61-4,3.22-4.54,5.91.55.24,1,.67,1.48.63,19.38-1.91,38.86-3,58-7.18,4.19-.92,8.5-1.27,12.73-2,13.83-2.4,27.61-5,41-9.52,11.39-3.83,22.82-7.57,34.17-11.5C176.52,25.11,183.15,22.5,189.82,20Zm8.31,10a68.52,68.52,0,0,0-7,1.57c-9.71,3.41-19.36,7-29.09,10.38-13.23,4.58-26.28,9.71-40.1,12.51C110.4,56.76,99,59.58,87.34,61,72,62.88,56.73,65.19,41.42,67.29c-3.68.5-7.38.92-11.08,1.3s-7.15.65-10.74,1c.14.81.12,1.27.24,1.31,6.45,2.25,12.77,5,19.38,6.56C51.59,80.37,64.3,80.14,76.84,79a324.63,324.63,0,0,0,43.28-6.46c11.42-2.62,22.81-5.29,33.48-10.48,15-7.3,29.09-16,41.13-27.66A49.82,49.82,0,0,0,198.13,30Z"/></g></g></svg>