<svg xmlns="http://www.w3.org/2000/svg" viewBox="0 0 108.51 180.86"><g id="Layer_2" data-name="Layer 2"><g id="Layer_1-2" data-name="Layer 1"><path d="M62.58,135.6a55.48,55.48,0,0,0-2.41,6.14c-1.37,5.26-2.56,10.57-3.82,15.86-2.1,8.83-7.69,15.43-14.67,20.56-5.22,3.83-11.54,3.31-17.11.11-5.36-3.08-8.33-7.79-7.23-14.33,1.81-10.71,3.39-21.47,6.84-31.84.54-1.61,1-3.25,1.54-5.25a48.4,48.4,0,0,0-4.31-2.74c-3.82-2-7.81-3.58-11.53-5.7-4-2.26-7.66-5-9.88-9.14A349.73,349.73,0,0,1,18.17,45.71c4.47-11.42,10-22.42,18.36-31.82A39.06,39.06,0,0,1,56.7,1.72C69-1.5,80.59-.3,91.5,6.13,99.77,11,105.11,18,106.85,27.76c1.87,10.55,2.37,21,.41,31.56-1.67,9-2.79,18.09-4.39,27.1A107.37,107.37,0,0,1,99.82,98q-5.08,17.28-10.33,34.5c-1.4,4.57-3.46,6-8.16,5.62-3.42-.27-6.81-.91-10.22-1.38Zm17.06-7.66c1.11-2.84,2.18-5.14,2.92-7.54,2.36-7.66,4.67-15.34,6.84-23.06a120.48,120.48,0,0,0,3.44-14.18c1.83-11.88,3.5-23.78,4.84-35.72.87-7.77-.62-15.43-2.63-22.93A18.72,18.72,0,0,0,83.27,11.7C72.81,7.58,62.34,8.81,52.58,13.84c-9.28,4.79-14.65,13.4-19,22.53-8.2,17.35-14.29,35.48-19.28,54C13.22,94.5,12,98.61,11,102.76c-.78,3.12.3,5.5,2.93,7.42a72.72,72.72,0,0,0,18.29,9.37C47.16,125,62.81,126.43,79.64,127.94ZM51.55,134c-5.46-1.58-10.4-3.48-16.07-3.74a36.3,36.3,0,0,0-2.34,4.6c-3.3,9.48-3.82,19.51-5.67,29.29a7.33,7.33,0,0,0,.1,2.55c.86,5,4.4,6.72,8.76,4.27a19.88,19.88,0,0,0,9-10C48.68,152.56,50.05,143.6,51.55,134Z"/></g></g></svg>