<svg xmlns="http://www.w3.org/2000/svg" viewBox="0 0 181.2 130.95"><g id="Layer_2" data-name="Layer 2"><g id="Layer_1-2" data-name="Layer 1"><path d="M.84,41.67c8-9.22,18-14.27,29-18.21,20.57-7.4,41.76-11.91,63.27-15.27,16.66-2.6,33.31-5.25,50-7.84,11.06-1.71,19.57,2.81,24.22,13.1a107.07,107.07,0,0,1,8.53,26.89c.73,4.49,2,8.89,3.13,13.31,2.14,8.4,2.32,17,2.24,25.57-.07,6.7-4.41,11-8.64,15.21a46.38,46.38,0,0,1-14.84,10.08c-8.16,3.41-16.42,6.65-24.8,9.49-8.65,2.93-17.47,5.41-26.28,7.88-4.39,1.23-8.93,2-13.38,3a243.23,243.23,0,0,1-50.19,6.1c-6.26.09-12.55-.08-18.58-2.42-6.33-2.45-10.67-6.76-12.5-13.2C8.06,101.58,3.2,88.09,1.42,73.8.08,63-.68,52.19.84,41.67ZM73.63,71.79c-2.82,3-5.47,5.63-7.81,8.48-4.54,5.54-8.92,11.2-13.34,16.83-5.1,6.52-10.23,13-15.18,19.65-.66.89-.35,2.51-.54,4.29,3.43.17,6.27.53,9.1.39,5.13-.25,10.24-.85,15.37-1.21A197.86,197.86,0,0,0,96.74,114c13.84-3.56,27.45-8,41.06-12.46a138.64,138.64,0,0,0,16.63-6.94c3.83-1.82,7.51-4.08,9.64-8.71-16.18-6-30.16-15.42-44.65-24.34a55.52,55.52,0,0,0-5,3.95c-2,2-3.71,4.39-5.79,6.35-4.16,3.92-8.72,6-14.81,4.28C87.53,74.32,81,73.33,73.63,71.79ZM17.76,41.19c.42.73.58,1.46,1,1.66C27,46.78,34.93,51.18,44.1,53s18.28,4.66,27.4,7.1c5,1.32,9.88,2.89,14.89,4.07,11.83,2.79,11.88,2.76,20.15-5.91,7.7-8.07,15.69-15.91,22.85-24.44,5.3-6.32,9.5-13.56,14.12-20.44.43-.63.34-1.6.6-2.94a39.92,39.92,0,0,0-4.3.21c-19.48,3.22-39,6.38-58.43,9.74a304.48,304.48,0,0,0-52.15,14C25,35.9,20.61,37.36,17.76,41.19Zm-6.11,12C10.39,68.66,18.07,104.52,25,113.06c7.22-6.19,11.32-14.8,17.23-21.93,6.09-7.36,12.37-14.62,18.05-22.8A20.48,20.48,0,0,0,56.8,66.6c-5-1.28-10-2.3-15-3.67C32.34,60.3,22.31,59.15,14,53.22,13.58,53,12.86,53.18,11.65,53.18ZM154.45,16.4c-4.55,10.31-11.17,18.15-17.9,25.91-2.25,2.59-4.66,5-6.88,7.65a19.75,19.75,0,0,0-1.91,3.33c13.79,10.56,31.77,20.11,40.8,21.77,2.91-6.26-2.18-22.46-6.43-41.73C159.76,22.6,158.74,21.2,154.45,16.4Z"/></g></g></svg>