<svg xmlns="http://www.w3.org/2000/svg" viewBox="0 0 134.57 143.2"><g id="Layer_2" data-name="Layer 2"><g id="Layer_1-2" data-name="Layer 1"><path d="M86.69,66.36c.57,1.4.83,2.9,1.67,3.93,3.41,4.22,7,8.26,10.51,12.42,4.23,5.05,8.27,10.25,12.63,15.18,4.54,5.15,9.4,10,14,15.09a93.58,93.58,0,0,1,7.15,8.53c2.21,3.1,2.09,6.47-.28,9.57-1.55,2-3.14,4.08-4.83,6-2.91,3.3-6.08,3.71-9.87,1a87.49,87.49,0,0,1-14.34-13.48C93.06,113.08,82.47,101.83,72,90.5a30.14,30.14,0,0,0-3.62-2.84c-1.45,1.09-2.84,2-4.06,3.07C51.6,102,40.85,115,29.39,127.44c-4.85,5.24-9.76,10.41-14.77,15.76-4.53-1.5-7.59-4.58-10.68-7.32-5.3-4.71-5.07-8.59-.41-13.91C19,104.34,34.35,86.62,50,68.66c-1.28-1.54-2.25-2.89-3.39-4.08-8.1-8.49-16-17.12-22.94-26.66-4.35-6-9.52-11.43-14.24-17.18a45.85,45.85,0,0,1-4.48-6.27c-1.62-2.8-1.22-4.72,1.15-6.85C8.2,5.7,10.4,3.87,12.63,2.07c3.53-2.84,6.7-2.85,9.77.54,5.37,5.94,10.86,11.84,15.54,18.31A281.76,281.76,0,0,0,59.43,46.56c1.91,2.07,4.22,3.78,6.63,5.91a41.63,41.63,0,0,0,4.13-3.31c7.12-7.45,14.34-14.81,21.2-22.49s14.53-13.77,22.41-20a9.49,9.49,0,0,1,7.68-2.4c3.94,3.81,8.9,7.26,11.75,12.74,2.07,4,1.85,5.12-1.49,8.08q-17,15.06-34.06,30.15C93.86,58.68,89.86,61.94,86.69,66.36Zm-25.92,6c-5.48-.18-7.54,3.9-10.27,7.1Q33.21,99.63,16.07,120c-2.38,2.8-4.7,5.64-7.28,8.75l4.38,5c7.2-7.74,14.18-14.91,20.78-22.4A341.46,341.46,0,0,1,60.8,83.53a12.23,12.23,0,0,1,9-3.62c3,2.38,6.65,4.74,9.63,7.76,8.84,9,17.78,17.87,25.93,27.43a146.74,146.74,0,0,0,14.26,14.7c.38.34,1.05.36,2.18.72l3.74-5.31c-3.37-3.82-6.43-7.2-9.4-10.67Q99.91,95.67,83.72,76.75a34.69,34.69,0,0,0-4.1-4.29c-4.48-3.68-4.71-5.22-1-9.61a31.16,31.16,0,0,1,3-3.07c6.85-6.08,13.77-12.07,20.58-18.19,7.23-6.51,14.38-13.11,21.53-19.72a10.66,10.66,0,0,0,1.38-2.47c-2.13-1.81-3.17-4.73-7-5.25-6.55,4.56-13.51,9.33-18.82,15.58C90.79,39.79,81.2,48.78,72,58.15a7.49,7.49,0,0,1-10.08,1,22.13,22.13,0,0,1-2.62-2.22A205.93,205.93,0,0,1,35.84,30.7C31.05,24.29,26,18.06,21,11.8a26.19,26.19,0,0,0-3.25-2.88l-4.53,4.7C17.78,19,22.05,23.93,26.25,29c8.8,10.52,16.59,21.9,27,31.05C56.4,62.77,59.45,66,60.77,72.31Z"/></g></g></svg>