<svg xmlns="http://www.w3.org/2000/svg" viewBox="0 0 151.37 149.87"><g id="Layer_2" data-name="Layer 2"><g id="Layer_1-2" data-name="Layer 1"><path d="M0,115a13.2,13.2,0,0,1,4-8.25c1.8-1.84,3.5-3.78,5.27-5.65,7.84-8.31,15.62-16.68,23.56-24.9s16-16.32,24.11-24.43c7.86-7.9,15.62-15.89,23.71-23.55,7.26-6.88,14.74-13.55,22.45-19.93,3.25-2.69,7.24-4.53,11-6.52a9.16,9.16,0,0,1,10.48,1.27,34,34,0,0,1,8,8.76c3.57,6.15,8.09,11.74,12.15,17.6,4.21,6.07,4.1,9.55-.47,15.32-16,20.18-32.75,39.68-51.61,57.29-5.23,4.88-10.2,10-15.26,15.07-1.62,1.61-3.49,3.1-4.69,5-6.77,10.7-17.25,17.45-27,24.81-5.35,4.05-12.44,4.31-16.92-1.32-3-3.8-6.51-7.21-9.69-10.88C13.12,127.81,7.77,120.36,0,115Zm39,24.18c4-2.7,8-4.63,11-7.52,9.11-8.68,17.57-18.06,26.82-26.57A596.71,596.71,0,0,0,131,47.62c2.72-3.26,5.51-6.56,7.08-11.33C135,32.1,132,27.63,128.62,23.44s-4.78-9.77-10.05-12.51a81.54,81.54,0,0,0-12.79,9C89,33.86,73.61,49.26,58.36,64.8,54,69.29,49.83,74,45.57,78.68c-4.45,4.85-8.76,9.84-13.4,14.51C26,99.46,19.5,105.48,12.89,111.84c6.12,6.8,12,13.38,17.94,19.93,1.53,1.7,3.09,3.39,4.74,5A32.11,32.11,0,0,0,39,139.19Z"/><path d="M30.67,47.34c-1.14,0-2.29,0-3.43,0C16.15,47.09,8.77,39.84,8.07,28.69c-.44-7,.37-13.66,3.78-19.9C14,4.81,17.2,1.93,21.6,1.1c10-1.91,19.84-1.69,29.07,3.55,6.88,3.9,10.08,9.9,8.93,17.82a77.68,77.68,0,0,1-2.16,10.91,13.35,13.35,0,0,1-3.38,5.76c-4.84,4.59-10.35,8.07-17.39,8.07h-6ZM18.54,25.28A32.94,32.94,0,0,0,19,31.12c1.34,6.28,6.32,9.79,12.64,8.84A22.81,22.81,0,0,0,48.38,29c2.94-4.77,2.46-11.46-.93-15.28-6.09-6.84-15.09-7.16-22.14-5-1.45.45-2.67,2-3.74,3.27C18.78,15.33,18.57,19.37,18.54,25.28Z"/><path d="M151.25,111.94c-.3,3.9-.48,5.88-.6,7.87-.52,8.26-5.05,13.81-12.23,17.19-7.39,3.49-14.89,4.9-23.08,1.65-5.54-2.2-9.27-5.55-11.12-10.94-3.51-10.23-1-19.76,4.65-28.4,2.72-4.15,7.72-5.87,12.42-7.07,9.67-2.45,18,.06,24.72,7.59C149.54,103.8,151.93,108.25,151.25,111.94Zm-38.63,6.25a51.7,51.7,0,0,0,.63,6.61,10,10,0,0,0,9,8c7.08.49,13.07-2,17.1-7.92,3.64-5.3,3.88-11.31,1.35-17.19-2.64-6.12-10.92-9.32-17.27-7.62-6.77,1.81-10,6-10.48,12.77C112.82,114.54,112.73,116.26,112.62,118.19Z"/></g></g></svg>