<svg xmlns="http://www.w3.org/2000/svg" viewBox="0 0 119.44 113.94"><g id="Layer_2" data-name="Layer 2"><g id="Layer_1-2" data-name="Layer 1"><path d="M63.46,113.73c-3.44,0-6.88,0-10.31,0-7.67.13-14.71-2.23-21.27-5.88C18.09,100.2,8.64,88.61,2.59,74.21A31.81,31.81,0,0,1,.36,65.09a70.6,70.6,0,0,1,5.79-36C11.74,16.5,21.49,7.82,34.24,2.68A38.52,38.52,0,0,1,55.36.62,27.65,27.65,0,0,1,65.52,4.84c5.22,3.47,4.42,10.35-1.35,13-4,1.81-7.48,3.8-10.19,7.48-8.13,11.07-7,22.59,2.51,32.45,9.28,9.58,27,7.92,34.18-2.22.82-1.17,1.59-2.38,2.4-3.56,5.09-7.43,12.81-8.24,19.64-2.25,4.6,4,7,8.88,6.7,15.08C118.53,82.23,111,96.3,97,106.34c-6.64,4.76-14.34,8.37-23.21,7.46a101.06,101.06,0,0,0-10.3-.06Zm41.25-56.1c-2.06,2.14-4.11,4.42-6.32,6.55-9.69,9.33-21.06,12-34,8.48-8.39-2.27-14.61-7.61-20.08-14-6.89-8.06-8.37-17.28-5.38-27.32C41.05,24.23,45.6,18.82,51.08,14c1.14-1,3.37-1.31,2.8-3.78C51.59,8.71,49,9,46.55,9.47A40.7,40.7,0,0,0,24.43,21.86c-12,13-13.87,28.91-11.88,45.67a17.71,17.71,0,0,0,1.46,4c3,7.59,7.94,14,13.29,19.87,5.17,5.68,11.36,10.52,19.34,12.08,9.63,1.88,19.35,1.26,29.06.85a12.37,12.37,0,0,0,3.31-.87c7.79-2.63,14.17-6.86,18.88-14A55.38,55.38,0,0,0,107.06,64C107.27,61.8,107.57,59.32,104.71,57.63Z"/></g></g></svg>