<svg xmlns="http://www.w3.org/2000/svg" viewBox="0 0 161.93 160.5"><g id="Layer_2" data-name="Layer 2"><g id="Layer_1-2" data-name="Layer 1"><path d="M144.07,57.6l4.81-2.3c9.77,4.39,13.4,12.45,13,22.22a89,89,0,0,1-7,31.61,95.13,95.13,0,0,1-15.45,24.59,148.17,148.17,0,0,1-10.73,11.12,52.83,52.83,0,0,1-30.4,14.57c-18.17,2.24-36.21,1.54-52.86-6.8C17.54,138.59,1,116.55,0,84.35c-.3-9.52,1.32-18.78,3-28.09,1-5.92,1.92-11.81,4.37-17.39C16.14,19,30.9,6.21,52.09,1a31.93,31.93,0,0,1,18.59.85A11,11,0,0,1,74.3,4a3.41,3.41,0,0,1-.62,5.77c-12.93,6.4-19,18.33-25,30.43-2.68,5.45-3.9,11.35-5,17.24a26.1,26.1,0,0,0,2.65,16.66,74,74,0,0,0,25.15,28.74c11.77,7.9,23.92,8.28,36.48,1.6,8-4.26,14.28-10.42,20.16-17.08a123.26,123.26,0,0,0,8-10.12A45.66,45.66,0,0,0,144.07,57.6Zm5.23,17.91c-.92,1.52-1.67,2.62-2.3,3.8a83.26,83.26,0,0,1-31.45,33.2c-12.11,7.17-24.78,8.1-37.87,2.66-16.73-6.94-28.93-19-38.85-33.8-5.62-8.4-6.9-17.52-5.23-27.11A82.28,82.28,0,0,1,46.86,21c1.77-2.57,3.49-5.16,5.71-8.45-1.85.12-3-.05-3.93.3C30,19.66,19.4,33.81,14.93,52.21a131.72,131.72,0,0,0-3.85,36.63c.43,10.26,2.68,19.8,8.73,28.25,3,4.15,6.07,8.22,8.87,12.48A36.75,36.75,0,0,0,43.55,142.2c18,9,37,8.89,56.23,5.39a23.48,23.48,0,0,0,4-1.44c9.93-3.72,17.5-10.52,24.59-18.18,13.21-14.26,19.64-31.32,21.78-50.29C150.24,77.22,149.81,76.71,149.3,75.51Z"/></g></g></svg>