<svg xmlns="http://www.w3.org/2000/svg" viewBox="0 0 199.76 217.68"><g id="Layer_2" data-name="Layer 2"><g id="Layer_1-2" data-name="Layer 1"><path d="M189.06,28.07c2.26,2.47,3.95,4.41,5.74,6.26,5.43,5.64,6.28,12.29,3.15,19.05a219.6,219.6,0,0,1-12.17,22.68C178.59,87.77,171,99.25,162,109.73c-1.84,2.13-3.81,4.15-5.74,6.24-3.59-1.25-5.81-3.48-8-5.64s-2.91-5-1.26-7.81c2.17-3.7,4.42-7.37,6.9-10.87,6.46-9.11,13.25-18,19.54-27.21,3.36-4.95,6-10.39,8.88-15.66.64-1.17,1.14-2.63-1.06-3.93-.64.94-1.29,1.77-1.81,2.67C171.31,61.7,163,75.7,151.64,87.71c-4.5,4.78-8.45,10.1-12.57,15.24a31.49,31.49,0,0,0-2.13,3.66c-.55.91-1.07,2.41-1.8,2.53-3.26.58-4.6,3.27-6.46,5.34-7.45,8.33-14.8,16.75-22.24,25.09a214.86,214.86,0,0,1-41.86,36.72C56.47,181.63,49,187.89,41,193.43c-8.49,5.88-16.53,12.15-23.61,19.76C12.58,218.32,8,218.74,2.63,216c-2.39-1.22-3.06-3-2.37-5.7,1.24-4.93,4.29-8.8,7.76-12.17s5.23-7.2,6.49-11.73a56.89,56.89,0,0,1,5.25-12.65c7.64-13.45,15.21-27,23.49-40C54.8,115.56,68.8,99.24,83.92,83.89c1.61-1.63,3.19-3.3,4.85-4.88a5.85,5.85,0,0,0,2.14-5.33,7.52,7.52,0,0,1,2.17-6.29c8.39-9.41,15.43-20,24.85-28.48,12.35-11.13,24.78-22.19,39.25-30.57A137.26,137.26,0,0,1,172.61.84c5.29-2.24,14.41.22,18,4.75a9.22,9.22,0,0,1,2,5.46,68.31,68.31,0,0,1-1.42,11A43.35,43.35,0,0,1,189.06,28.07Zm-93.63,54A26.29,26.29,0,0,0,92,84.82c-8.94,10-18.27,19.76-26.64,30.24a335.18,335.18,0,0,0-35.71,55.46c-2.22,4.31-4.85,8.41-7.18,12.68-1.73,3.19-1.37,5.3,1,7.78,2.75,2.9,4.84,3.25,8.31,1.25a55.34,55.34,0,0,0,5-3.3c4.37-3.22,8.69-6.49,13-9.74C60.29,171.3,71.24,164,81.28,155.46c13.07-11.13,23.78-24.53,35.68-36.77,3.09-3.18,5.07-7.44,7.75-11.49-4.91-3.86-9.94-7.54-14.66-11.6C105.08,91.34,100.42,86.73,95.43,82.09Zm35.16,20.38c7.27-8.54,13.9-16,20.18-23.79,13.9-17.23,24.91-36.26,34-56.37a25.22,25.22,0,0,0,1.75-9.17c.19-4.3-2.44-7.2-6.71-7.23a21.18,21.18,0,0,0-8.26,1.72c-17.55,7.6-32.62,19-46.21,32.17-8.17,8-15.5,16.79-23.09,25.33-1.67,1.88-2.83,4.19-4.44,6.63C106.18,84.79,117.74,93.8,130.59,102.47Zm24.69,3.78a16.62,16.62,0,0,0,2.87-2.5c7-9.69,14.13-19.37,21-29.2a145.59,145.59,0,0,0,12.76-22.23c2.62-5.65,2.5-10.42-2.53-14.56-.86-.71-1.65-1.5-3-2.75-.68,1.61-1.61,2.81-1.55,4a7.34,7.34,0,0,0,1.6,3.88c2.68,3.38,2.58,6.71.49,10.3-1.28,2.21-2.1,4.71-3.48,6.85q-8.82,13.66-17.86,27.17c-3.33,5-6.86,9.83-10.23,14.79C154.59,103.07,153.66,104.34,155.28,106.25ZM21.63,198.88c-4.06-1.11-4.13-1.17-4.72-.48-2.55,3-5.12,5.95-7.51,9-.47.6-.22,1.76-.38,3.5C15,208.13,17.64,203.53,21.63,198.88Z"/></g></g></svg>