<svg xmlns="http://www.w3.org/2000/svg" viewBox="0 0 151.65 230.33"><g id="Layer_2" data-name="Layer 2"><g id="Layer_1-2" data-name="Layer 1"><path d="M92.16,118.09c-.87,3-2,5.42-2.19,7.88-.73,9.66-2.85,19.28-1,29.06.61,3.32-.43,4.7-3.5,6a19.46,19.46,0,0,1-4.08,1.26,62.73,62.73,0,0,1-28.93-.9,47.28,47.28,0,0,1-7.79-3.54c-3.16-1.57-4.36-4.19-4.37-7.71,0-13.45-.53-26.91-.26-40.36.13-6.53,1.41-13.07,2.45-19.56A31.14,31.14,0,0,1,48,77.63c4.15-1.39,8.45-.92,12.7-.86a83.78,83.78,0,0,0,23.79-3c3.65-1,6.89-2.76,9-6.16a9.29,9.29,0,0,0,.49-9.74c-4.71-9.35-11.87-13-21.91-10.13C57.54,51.91,46.45,60.29,40.34,74.5c-2.92,6.8-5,7.77-11.79,5.94a17.21,17.21,0,0,1-4.8-1.85c-7.18-4.7-14.32-9.46-21.36-14.37C.1,62.63-.4,60.32.28,57.39a34.43,34.43,0,0,1,6.2-13.08A152.51,152.51,0,0,1,41.11,11.24C48.58,6,57.22,4,65.9,2.08,76.64-.3,87.28-.87,98.23,1.6A52.15,52.15,0,0,1,126,17.54c4.64,5.07,9,10.4,13.23,15.82a59.23,59.23,0,0,1,11.09,24.82c4.65,22.12-3.37,39.08-20.12,53-6.1,5.07-13.15,6.71-20.74,6.9C104.05,118.2,98.62,118.09,92.16,118.09Zm-12.64,35.2c.24-1.8.58-3.73.75-5.68.5-6,.79-12,1.45-18,.56-5.12,1.56-10.19,2.28-15.29.43-3,2.27-4.53,5-5a25.12,25.12,0,0,1,5.12-.44c5.15.12,10.3.3,15.45.6a19.21,19.21,0,0,0,10-1.67c10.45-5.25,18.36-13,21.35-24.47,2.56-9.8,2.67-19.8-1.26-29.54a59.87,59.87,0,0,0-8.88-15.61c-3.8-4.65-7.38-9.51-11.42-14-6.26-6.89-13.67-12.06-22.94-14.34C79.59,5.71,63.57,8.48,48.09,15.8a29.68,29.68,0,0,0-4.31,2.8C32.2,26.73,22.38,36.74,13.49,47.65c-2.29,2.81-4.82,5.72-4.93,9.64A68.21,68.21,0,0,0,32.27,73.2c1.38-2.33,2.82-4.74,4.27-7.15,3.4-5.68,7-11.23,12.53-15.09C57.14,45.32,66,41.11,75.73,39.64c13.48-2,23.84,4.83,27.91,19.61a14.22,14.22,0,0,1-.76,9.27C100.34,74.66,96.24,79,89.71,81.09a68.66,68.66,0,0,1-21.95,3.44c-4.52,0-9.07-.47-13.29.44-3.58,5-4,10.55-4.28,16-.73,13.39-1.2,26.8-1.68,40.2a58.9,58.9,0,0,0,.42,6.38C59.43,154.9,67.68,156.45,79.52,153.29Z"/><path d="M65,230.3a27.48,27.48,0,0,1-26.76-17.82,20.61,20.61,0,0,1-1.55-10.06c1.21-9.34,4.72-17.43,11.77-24.14,6.51-6.19,13.47-7.72,22-5.48,5.61,1.47,11.06,2.83,15.42,6.95,6.45,6.08,9.93,13.21,8.3,22.27-.25,1.41-.38,2.84-.62,4.25C90.87,221.87,80.82,230.33,65,230.3ZM66.77,222a37.08,37.08,0,0,0,5.93-1.34c7.76-2.76,14.62-13.84,13.67-21.92a16.48,16.48,0,0,0-1.3-4c-4-10.17-12.6-13.4-22.46-14.34A9,9,0,0,0,57,181.81c-6,4.3-10.38,10.18-11.58,17.4C43.42,211.16,53.12,222.26,66.77,222Z"/></g></g></svg>