<svg xmlns="http://www.w3.org/2000/svg" viewBox="0 0 292.19 286.97"><g id="Layer_2" data-name="Layer 2"><g id="Layer_1-2" data-name="Layer 1"><path d="M173.58,91.26a30,30,0,0,0,3-2.48q8.55-10.2,17-20.44A160.23,160.23,0,0,1,226.3,38.18c3.53-2.44,7.33-4.49,11-6.7a29.56,29.56,0,0,1,13-4.12c4.36-.35,8.16,2.36,8.49,6.69A41.19,41.19,0,0,1,258,45.93a40.5,40.5,0,0,1-6.29,14c-8.43,12.33-17.4,24.17-29.31,33.44-2.71,2.11-5.53,4.07-8.27,6.14-7.08,5.34-14.16,10.68-21.18,16.1a17.92,17.92,0,0,0-2.5,2.81c.64,2.16,2,1.82,2.91,1.53,13.76-4.29,28-6.33,42.22-7.68,15.74-1.49,31.51-.85,46.69,4.56,1.08.38,2.16.75,3.22,1.2,7.38,3.12,8.76,8.6,3.77,15a17.66,17.66,0,0,1-11.38,7.08,24.09,24.09,0,0,1-5.11.56c-10.65-.69-21.15,1.12-31.65,2.2-6.77.7-13.4,2.94-20,4.71a139.56,139.56,0,0,0-15.57,4.83c-10,4-10.55,6.84-3.54,14.65,8.22,9.17,16.49,18.29,24.56,27.59,3.17,3.66,5.89,7.73,8.77,11.64a20.92,20.92,0,0,1,1.73,3c4.37,8.52,5.33,16.85-1.93,25.15A16.65,16.65,0,0,1,221,231c-4.66-3.76-9-7.93-13.34-12.08-3.09-3-6-6.12-8.88-9.3-6.52-7.23-12.91-14.58-19.45-21.78-3-3.34-5.46-7.31-10-10.23-.55,1.41-1.32,2.39-1.21,3.26.6,5.09.68,10.24,2.68,15.14q4.5,11.11,8.39,22.48c3.59,10.56,7.33,21.09,10.12,31.87,1.56,6,2.72,12.31,1.45,18.71-.38,1.92.08,4-.06,6a26.55,26.55,0,0,1-.92,6.7c-1.62,4.65-6,6.54-10.37,4.37a19.72,19.72,0,0,1-6.74-5.07,68.07,68.07,0,0,1-7.94-12.2c-9.58-19.57-17.9-39.65-23-60.92-1.73-7.23-3.27-14.5-4.95-21.74a31.28,31.28,0,0,0-1.54-4.9c-.64-1.55-1.54-3-2.59-5-2.34.73-4.71,1-6.47,2.12a66.2,66.2,0,0,0-10.1,7.91c-11.83,11.66-23.61,23.37-36.53,33.86-4.92,4-10,7.63-16.34,9.15a11.66,11.66,0,0,1-14.21-9.91,18,18,0,0,1,1.75-9.18A71.77,71.77,0,0,1,66,187.5c10.19-10.45,21-20.2,31.66-30.19,2-1.89,3.77-4.07,6.07-6.59A33.37,33.37,0,0,0,89,147.93c-11,.25-21.69-1.36-32.46-3.05a87.45,87.45,0,0,0-16.27-.65c-10.66.32-20.32-2.84-29.57-7.71a12.74,12.74,0,0,1-2.94-1.76C-2.29,125.24-2.89,120,7.74,112.13c5-3.68,10.57-5.82,16.84-5.39,8.57.59,17.14,1.3,25.68,2.18,7.68.79,15.32,1.88,23,2.82,5.4.66,10.79,1.46,16.21,1.87,4,.3,7.93.06,11.45.06,2.17-2.37,1.66-4.34.25-5.86a42,42,0,0,0-6.38-5.69c-15-10.63-23.28-25.67-27.79-43-2.26-8.68,2.42-20,9.77-25a6.77,6.77,0,0,1,7.3-.32c6.83,3.42,12.45,8.16,16.2,14.88,7.1,12.76,14.1,25.57,21.19,38.32,1.67,3,3.5,5.91,5.37,8.79.38.59,1.28.84,1.81,1.16,1.75-.63,1.41-2,1.4-3-.09-5.16.08-10.35-.51-15.46-1.11-9.73-.54-19.45-.16-29.16a113.51,113.51,0,0,1,7.79-36.77A18.57,18.57,0,0,1,151.55.38c6.46-1.31,10.18.73,12.94,6.74a61.09,61.09,0,0,1,5,19c2,18,2.14,36,3,54C172.68,83.47,172.41,86.87,173.58,91.26Zm-19.36-81.2a12.61,12.61,0,0,0-7.16,7.79c-4,10.81-6.77,22-6.95,33.49-.24,14.6-.06,29.21.42,43.81.19,5.81-.85,10.72-5.2,14.71a8.6,8.6,0,0,1-8.67-2.28A53.17,53.17,0,0,1,115.5,93.51c-4.46-8.31-8.85-16.68-13.38-25-3-5.52-6.05-11.06-9.44-16.36-2.61-4.08-5.85-7.69-11.18-7.61A16.22,16.22,0,0,0,77,61.49c3.66,13,10,24.28,21.22,32.4a60.19,60.19,0,0,1,7.27,6c4.26,4.25,6.4,9.4,5.61,15.55-.59,4.64-1.63,6.11-6.1,7a34,34,0,0,1-9.35.88c-9.41-.67-18.81-1.6-28.19-2.63-11.38-1.24-22.72-2.92-34.11-3.93a43.45,43.45,0,0,0-12.74,1.06c-4.21.89-7.75,3.25-10.25,8.65,1.24.74,2.46,1.49,3.7,2.21,1.73,1,3.44,2,5.21,3,7.45,3.89,15.56,3.78,23.54,3.24a62.31,62.31,0,0,1,14.45,1.12c7.89,1.29,15.85,2.36,23.82,3,6.83.53,13.74.11,20.59.48a23.86,23.86,0,0,1,8.23,2.06c4.57,2,6,5.69,4.78,10.63a17.39,17.39,0,0,1-5.5,8.54C102.5,167,95.83,173.31,89,179.47c-8.93,8.09-17.58,16.42-24.31,26.52-2.84,4.26-5,8.79-5.23,14.17,4.41.62,7-1.79,9.64-3.82a334.39,334.39,0,0,0,33.91-30.27c4.82-4.88,9.93-9.5,15.09-14,3.75-3.28,8.39-4.88,13.27-5.62,4.11-.63,7.53.77,9.33,4.55a72.16,72.16,0,0,1,4.64,12c2.42,8.82,4.65,17.7,6.58,26.64,4.35,20,12.82,38.52,21.46,56.92,1.32,2.8,3.49,5.22,5.4,7.72.84,1.1,2,2.17,3.8,1a63.87,63.87,0,0,0-3.3-27.73c-4.43-12.7-9.33-25.23-14-37.86-3-8-5.89-16.1-7.4-24.61a23.48,23.48,0,0,1,1.49-12.61,8.17,8.17,0,0,1,8.82-5.38,16.75,16.75,0,0,1,7.09,2.64,42.18,42.18,0,0,1,7.41,7.1c9.11,10.64,17.19,22.19,28,31.28,1.29,1.09,2.08,2.74,3.28,4,3.8,3.88,7.59,7.78,11.58,11.44,1.38,1.26,3.35,1.88,5.35,3a11.62,11.62,0,0,0-1.38-10.33c-3-4.87-6-9.78-9.42-14.33a204.7,204.7,0,0,0-26.58-29.17c-5.21-4.67-8-10.32-6.85-17.36A31.35,31.35,0,0,1,199,146.92a171.84,171.84,0,0,1,40.45-11.12c10.14-1.47,20.43-2.71,30.81-2.3,2.77.11,5.65-.76,8.36-1.56,2.54-.75,3.52-2.74,2.8-5.57a14.35,14.35,0,0,0-2-1.29c-13.78-6.1-28.32-6.78-43-5.3a229.11,229.11,0,0,0-38.77,7.35,50.51,50.51,0,0,1-10.14,1.36c-4.3.29-6.93-2.17-8.51-5.91-1.47-3.48.09-6.17,2.54-8.42,8-7.37,16.08-14.7,25.35-20.45a110.63,110.63,0,0,0,27.67-24.23c6.9-8.48,12.7-17.66,14.76-28.7.33-1.76.61-3.39-1.81-4.59A38.54,38.54,0,0,0,243.17,38c-16.46,9.24-30,21.79-42,36.25-6,7.27-12.27,14.34-18.31,21.6-3.64,4.39-8.35,5.8-13.77,5.5-3.36-.18-5.25-1.78-5.86-5.17a42.51,42.51,0,0,1-.41-6c-.51-14-.81-28.07-1.56-42.08-.46-8.56-1.36-17.11-2.53-25.6C158.13,18.42,157.49,14.07,154.22,10.06Z"/></g></g></svg>