<svg xmlns="http://www.w3.org/2000/svg" viewBox="0 0 166.59 222.25"><g id="Layer_2" data-name="Layer 2"><g id="Layer_1-2" data-name="Layer 1"><path d="M84.13,11.63A47.51,47.51,0,0,1,90,9.5c10.68-2,21.37-4,32.06-5.95,3.93-.72,7.89-1.32,11.84-2,2.82-.46,5.65-.86,8.46-1.37,4.84-.88,7.9.93,10.53,5.21,4.2,6.84,8.49,13.54,10.75,21.34,4.71,16.23,3.41,32.34-1.53,48.17a100.81,100.81,0,0,1-27.29,44q-13.74,13-27.48,25.91A89.78,89.78,0,0,0,81.8,186.79a47.13,47.13,0,0,0-1.31,17.83c.44,4-.41,5-4.26,6.19a23.84,23.84,0,0,1-3.33.83c-16.39,2.51-32.42,6.77-48.62,10.21a14.85,14.85,0,0,1-14.17-4A16.83,16.83,0,0,1,6.67,213,63.91,63.91,0,0,1,0,186.58a115.93,115.93,0,0,1,5.73-39.7c3.55-10.63,9.14-20.35,15.68-29.46A252.14,252.14,0,0,1,43.51,91.16c7.86-8.3,15.24-17,22.82-25.6,5.73-6.49,9.75-14.06,13.81-21.62,3.65-6.83,4.07-14.19,4-21.68C84.08,18.87,84.12,15.49,84.13,11.63Zm8.48,9.18c0,1.75,0,3.42,0,5.1.07,9.26-1.36,18.09-5.78,26.48-8.64,16.4-20.71,30.18-33.21,43.54-9.6,10.27-19,20.63-27,32.21-5.22,7.57-9.76,15.57-12.53,24.35-3.74,11.85-4.7,24.07-4.52,36.5a54.69,54.69,0,0,0,4.34,20,20.85,20.85,0,0,0,2.76,4c6.31-1.28,12.21-2.39,18.07-3.69,6.14-1.36,12.37-2.53,18.34-4.49,5.64-1.85,12-.76,16.61-3.49,1.84-8.76,2.92-16.75,5.26-24.35,5.25-17.13,15.69-31,28.66-43.11,9-8.4,17.82-17,26.75-25.46s15.24-18.5,20.39-29.48c5.39-11.47,6.24-23.71,6.41-36.08S152.52,20.08,144,10.71C127,14.2,109.5,15.17,92.61,20.81Z"/></g></g></svg>