<svg xmlns="http://www.w3.org/2000/svg" viewBox="0 0 300.36 167.84"><g id="Layer_2" data-name="Layer 2"><g id="Layer_1-2" data-name="Layer 1"><path d="M117.81,30.26a47.48,47.48,0,0,0,3.09-4.09c4.23-7.39,10.56-12.73,17.27-17.69a25.76,25.76,0,0,1,12.7-4.69,37.12,37.12,0,0,1,27.53,7.14c5.34,3.9,10.45,8,14.25,13.52a44.8,44.8,0,0,0,3.56,4,71.06,71.06,0,0,0,5.24-4.9c10.25-11.75,23.62-16.48,38.71-17.8,26.08-2.27,49,15.74,55.3,39.54A151,151,0,0,1,300,93.79c-.55,8.82-1,17.65-1.51,26.47a11,11,0,0,1-.09,1.72c-2.07,9.51-2.35,19.25-3.74,28.84-.69,4.74-2.77,9.28-4.25,13.9a4.13,4.13,0,0,1-4.59,3.1c-2.82-.28-5.82-.43-8.38-1.5-10.7-4.49-22.13-5.68-33.35-7.81-16.62-3.16-33.48-4.3-50.26-6.08a22.35,22.35,0,0,0-2.57-.25c-17,0-33.59-3.2-50.36-5.11-18.74-2.12-37.52-4.45-56.41-4.53-19.51-.09-38.95.93-57.38,8.5a18.9,18.9,0,0,1-5.82,1.23c-3.81.25-6.77-1.32-8-5.07-1.84-5.42-3.49-10.9-5.19-16.36-.94-3-1.6-6.11-2.75-9-5.61-14.23-5.86-29-4.93-44C1,68.51,4.45,60,7,51.26,11.52,35.62,20.71,23,33.3,13,45.37,3.42,59.35-1.28,74.91.3c14.67,1.49,26.55,8.44,35.78,19.87C113,23.06,115,26.23,117.81,30.26ZM283.86,158.73c1.18-5.65,2.42-10.35,3.09-15.13.95-6.79,1.12-13.71,2.26-20.46A159.35,159.35,0,0,0,291,84.63c-1-13.67-2-27.38-6.32-40.57-3.39-10.23-9.8-18-18.58-23.94-4.28-2.88-9.06-5.26-14.3-5.46-14.79-.54-28.58,2.49-39.51,13.3-4.26,4.21-7.93,9-11.81,13.59-1.1,1.31-1.87,2.89-3,4.19a5.28,5.28,0,0,1-6.16,1.69,4.91,4.91,0,0,1-3.74-4.19c-.29-2-.82-3.94-.95-5.93-.47-7.2-4.44-12.18-10-16.19-2.09-1.51-4.14-3.07-6.29-4.48-8.62-5.63-18-5.32-26.38.87-9.5,7-16.62,15.71-19,27.64a14,14,0,0,1-5,8.14c-5.86.28-8.48-2.53-9.28-7.45-.14-.85-.36-1.69-.45-2.54-1-8.68-5.43-15.73-11.16-21.81C91.9,13.79,83.06,8.25,72,8.67c-8.59.33-17.11,2.06-24.59,6.76A67.36,67.36,0,0,0,21.82,43.66,112.19,112.19,0,0,0,10.73,94.35a85.07,85.07,0,0,0,3.31,22c2,7.16,3.94,14.33,6.06,21.45a34.07,34.07,0,0,0,2.63,5.28c16.1-6.54,32.63-8.23,49.19-9.5,14.91-1.15,29.72.77,44.53,2.19,9.11.88,18.15,2.46,27.26,3.37,20.49,2.05,41,3.84,61.52,5.82,10.81,1,21.69,1.79,32.39,3.53C252.82,151,268.28,152.42,283.86,158.73Z"/></g></g></svg>