<svg xmlns="http://www.w3.org/2000/svg" viewBox="0 0 201.6 106.22"><g id="Layer_2" data-name="Layer 2"><g id="Layer_1-2" data-name="Layer 1"><path d="M108,31.78c6.3-6.58,12-12.61,17.78-18.53a61.73,61.73,0,0,1,7.62-6.86c3.31-2.41,6.36-2.32,9.34.55A79.65,79.65,0,0,1,151,16.7c2.87,3.86,5.25,8.11,9.31,11.67,5.17-5.4,10.44-10.11,15.19-15.4a87.46,87.46,0,0,1,9.17-9A20.47,20.47,0,0,1,191.49.53c5.06-1.62,8.16.54,8.94,6a40,40,0,0,1,.35,5.13c.2,11.44.41,22.87.52,34.31.14,14,.18,28,.25,42,0,3.72.14,7.45-.08,11.16-.3,5-2.74,7.3-7.73,7.12-4.57-.16-9.12-.81-13.68-1.27-2-.21-4-.61-6-.7-30.3-1.41-60.61-2.9-90.92-4.08-10.57-.41-21.18-.12-31.77.07a107.31,107.31,0,0,0-12,1.16c-9.07,1.14-18.12,2.45-27.19,3.55-5.27.65-7.83-1.82-8.11-7.25-.26-5.14-.86-10.27-1-15.4-.29-16.59-.53-33.18-.56-49.77A106.35,106.35,0,0,0,0,8.71c3.74-3.8,5.09-4.3,8.6-2,4.75,3.16,9.31,6.62,13.86,10.08,4.78,3.63,9.42,7.44,14.18,11.11a38.2,38.2,0,0,0,3.94,2.32c2.14-1.69,4.17-3.2,6.09-4.83C53.86,19.31,60.89,13,68.22,7.08,74.16,2.29,81.29,3,86.54,8.63c6.26,6.69,12.35,13.53,18.52,20.29C105.81,29.74,106.66,30.47,108,31.78Zm83.05,65c.72-27.46,1.34-54,.67-80.59,0-1-.53-2-1.17-4.32a143.16,143.16,0,0,0-12.67,12.43c-3.91,4.14-7.81,8.29-11.3,12-8.21,1.55-11.76.87-18.23-7.55-2.44-3.17-4.43-6.67-6.74-9.95a47.11,47.11,0,0,0-3.51-4L112.86,40.94c-7.93,1.4-13.13-2.62-17.45-8.44a56.77,56.77,0,0,0-3.64-4.78c-4.63-5-8.8-10.43-14.32-14.64-8.7,5.19-15.89,11.71-22.9,18.47-2.46,2.37-5.24,4.4-7.86,6.6-3,2.55-6.43,2.29-9.72,1a24.22,24.22,0,0,1-5.8-3.55C26,31.53,21,27.28,15.78,23.22c-1-.76-2.35-1-4.06-1.7,0,3.06-.05,5.31,0,7.57.25,10,.56,20,.79,30,.17,7.44.14,14.88.43,22.31a120,120,0,0,0,1.28,11.94,3.16,3.16,0,0,0,3.63,2.84,25,25,0,0,0,2.54-.43,360.55,360.55,0,0,1,63.32-3.68c12.3.34,24.58.89,36.87,1.37,21.73.87,43.45,1.77,65.14,3.35C187.12,96.89,188.54,96.8,191.08,96.8Z"/></g></g></svg>