<svg xmlns="http://www.w3.org/2000/svg" viewBox="0 0 216.96 138.94"><g id="Layer_2" data-name="Layer 2"><g id="Layer_1-2" data-name="Layer 1"><path d="M140.71,114C129,120.4,121,132.19,108.61,137.3L87.83,122.67c-.7-.49-1.39-1-2.13-1.45-17.79-10.57-14.24-8.91-30.87-3.46A266.47,266.47,0,0,0,23,130.68,50.74,50.74,0,0,1,13.35,134c-2.61.66-4.39-.73-5-3.42a51.76,51.76,0,0,1-1.1-6.78C6.48,115.29,6.12,106.69,5,98.18,2.15,75.69,3.13,53,1.49,30.46,1.24,27,.77,23.63.43,20.22a24,24,0,0,1-.38-5.11c.69-5.72,3.09-7,8.76-5.55,6.63,1.75,13.33,3.26,20,4.83,7.8,1.84,15.6,3.67,23.41,5.44,6.12,1.38,12.26,2.67,19,4.13,3.08-2.27,6.46-4.89,10-7.34C87.33,12.37,93.31,7.89,99.7,4.1c9.48-5.61,10.34-5.41,19.53.29,3.17,2,6.22,4.1,9.29,6.21C136.75,16.26,145,22,153.59,27.92c6.67-3.49,13.39-7.19,20.28-10.56,9.25-4.52,18.46-9.19,28.43-12,3.3-.93,6.66-1.73,10.16-.84,3.3.85,5.3,3.07,4.19,6.27C213.11,21,214,31.68,213.09,42.17c-1,11.41-2,22.81-2.74,34.23-1,16.57-1.85,33.16-1,49.78.13,2.56.83,5.11.83,7.66a5.37,5.37,0,0,1-8.06,4.34c-11.17-6.35-22.73-11.86-35.22-15.36C158.15,120.35,149.6,117,140.71,114Zm-30.66,14.19c2.19-1.59,3.86-2.68,5.4-3.94,5.75-4.72,11.5-9.45,17.18-14.25,4.09-3.46,8.48-4.3,13.55-2.37,5.62,2.13,11.38,3.88,17,6,11.48,4.32,23.79,6.48,34.49,12.92.54.32,1.57-.19,2.59-.34.3-14.15.56-28.16.92-42.16.11-4.29.4-8.57.81-12.84,1.58-16.54,3.36-33,3.09-49.7,0-2.51-.26-5-.38-7.29-3.66-1.23-6.3.09-8.86,1.28-10.63,5-21.49,9.43-31.49,15.67A92.28,92.28,0,0,1,156,35.55a6,6,0,0,1-6.48-.46c-9.61-6.73-19.26-13.39-28.84-20.17-4-2.82-8-5.42-12.81-6.17a61.71,61.71,0,0,0-15.84,9c-5.26,4-10.58,7.86-15.79,11.89-2.91,2.25-5.56,2.75-9.45,1.73C49.59,26.85,32.26,23,15,18.94c-1.58-.37-3.3-1.05-5,.57a10,10,0,0,0-.39,2.24C10,34.9,11.07,48,11,61.19c-.12,18.35,2.5,36.53,4.29,54.76.31,3.09.57,6.22,2.65,9.25,4.82-2.06,9.49-4.2,14.26-6.07,10.39-4.06,20.83-8,31.27-11.93a16.88,16.88,0,0,1,13.34.44,80.29,80.29,0,0,1,15.09,8.1C97.64,119.92,103.61,123.81,110.05,128.22Z"/></g></g></svg>