<svg xmlns="http://www.w3.org/2000/svg" viewBox="0 0 112.62 168.48"><g id="Layer_2" data-name="Layer 2"><g id="Layer_1-2" data-name="Layer 1"><path d="M0,100.27C1.56,74.35,7.64,50.92,23.71,30.83A59.6,59.6,0,0,1,38.92,17.09,134.52,134.52,0,0,1,77.43.65c7.13-1.73,12.43-.09,16.26,6q6.61,10.53,12.91,21.26c1.86,3.19,3.42,6.57,5,9.92,2,4.21,1.07,7.84-2.63,10.64C102.71,53.21,98,59.35,93.73,65.77c-7,10.42-11.32,21.71-11.42,34.5-.07,8.6-.43,17.18,1.64,25.62.89,3.6,2,7.15,3,10.71.65,2.2,1.58,4.32,2,6.55.84,4.07-.4,6.6-4.26,8.3-4.44,2-9.06,3.5-13.56,5.33-10.6,4.29-21.19,8.57-32.37,11.27a11.13,11.13,0,0,1-9.59-1.61A42.76,42.76,0,0,1,13.66,148.6C8.23,137.21,2.86,125.84,1.4,113.09.89,108.57.41,104,0,100.27ZM85.35,10.73A116.42,116.42,0,0,0,53.54,21.66c-15.77,8.27-27.42,20.27-34.3,36.87a125,125,0,0,0-6,17.88c-6.45,26-3.15,50.53,11,73.42A24.48,24.48,0,0,0,33,158.69c14.39-3.11,32.61-10.46,46-17.42-1-3.2-2-6.48-3.12-9.7a65.69,65.69,0,0,1-3.6-21.92c0-3.43,0-6.87,0-10.3.15-15.67,5.19-29.71,14.12-42.47A86.73,86.73,0,0,1,103,39C96.72,29.46,92.84,18.91,85.35,10.73Z"/></g></g></svg>