<svg xmlns="http://www.w3.org/2000/svg" viewBox="0 0 163.94 217.85"><g id="Layer_2" data-name="Layer 2"><g id="Layer_1-2" data-name="Layer 1"><path d="M95.57,217.85c-7.6-1.7-13.24-6.3-18.43-11.12A205.08,205.08,0,0,1,44,167.5c-7-10.88-12.66-22.45-18.23-34-4.82-10-7.86-20.83-11.69-31.3-.79-2.15-1.46-4.34-2.39-6.43C7.79,87.07,5.8,77.89,3.91,68.6,1.16,55.07.58,41.39,0,27c1.32-.74,2.88-2,4.65-2.47a22.43,22.43,0,0,1,6-.36,85.06,85.06,0,0,0,38.19-8.56C59.38,10.5,69.87,5.29,80.67,0A44.58,44.58,0,0,1,92.8,5.74c14.88,9.4,31.29,10.39,48.08,9.07A27,27,0,0,0,154.3,9.74c4.48-3.15,8.36-1.24,9.06,4.33a75.19,75.19,0,0,1,.54,12c-.47,13.73-.68,27.49-1.87,41.16-1.35,15.63-3.12,31.24-5.93,46.7a81.3,81.3,0,0,1-2.54,9.09c-4.42,14.49-7.59,29.37-13.71,43.31a48.48,48.48,0,0,1-4.42,8.3c-6.7,9.63-13.37,19.3-20.49,28.62C109.86,209.89,103.51,215.21,95.57,217.85ZM154.32,21a17.37,17.37,0,0,0-3.75.2c-7.23,2.13-14.61,2.36-22.09,2.64A72.38,72.38,0,0,1,88.27,13.56C85.6,12,82.71,10.8,80.58,9.75,69.84,14.54,59.93,19,50,23.37a93.68,93.68,0,0,1-33.23,7.9c-2.23.12-4.45.5-7,.8a44.93,44.93,0,0,0,0,5.36c1.29,9.93,3,19.82,3.91,29.78.67,7.25,2.91,14,5.27,20.71,1.9,5.39,3.88,10.76,5.59,16.22a267.29,267.29,0,0,0,23.16,52.54c5.85,10.25,13.2,19.44,20.88,28.3,6.18,7.14,12.81,13.92,20.53,19.48,2.54,1.83,4.9,4,8.7,4.13a37.54,37.54,0,0,0,4.63-3.23,57.11,57.11,0,0,0,5.85-6.29c2.84-3.59,5.41-7.38,8.2-11,8.21-10.73,15.76-21.81,19-35.23.47-1.94,1.29-3.79,1.92-5.69,5.51-16.61,9.94-33.47,12.1-50.89,1.21-9.67,2.85-19.27,2.73-29.06a47.92,47.92,0,0,1,.7-6.84A233.26,233.26,0,0,0,155.1,27,50.33,50.33,0,0,0,154.32,21Z"/><path d="M147,55.08c.46,17.15-3.11,32.16-6.38,47.21a83,83,0,0,0-1.83,11.81c-.46,6.42-2.84,12.27-5.17,18.07C129,143.56,124.5,155,119.07,166c-3.88,7.84-8.2,15.61-14,22.36-2.14,2.49-4.73,3.43-7.65,2.27a23.23,23.23,0,0,1-7.31-4.19c-6.87-6.47-13.52-13.19-20.11-20-4-4.13-6.83-9.14-9.34-14.31-5.62-11.57-11.57-23-16.73-34.76C39,106.21,34.15,94.9,31.38,82.85c-2.24-9.75-4.87-19.41-7.16-29.15-2-8.65.1-9.36,7.93-9.34a80.91,80.91,0,0,0,31.87-6,51.59,51.59,0,0,0,10.6-5.47c5.22-3.84,10.1-4.55,15.85-1.18,6,3.49,12.57,5.34,19.35,6.71a40.68,40.68,0,0,0,17.84,0,69.38,69.38,0,0,1,11-1.88c5.64-.44,7.86,1.51,8.27,7.26C147.19,48.07,147,52.38,147,55.08ZM99.36,181.93c1.49-1.82,2.61-2.79,3.24-4,4-7.89,8.33-15.68,11.85-23.8,7.53-17.36,12.63-35.53,17.17-53.89a191.63,191.63,0,0,0,5.48-50.18c0-1.52-.8-3-1.37-5.06-9.44,2.83-18.52,2.51-27.71,2C98.48,46.51,90.93,40.76,83,38.4c-8.65,3.37-16.53,6.74-24.62,9.52S41.7,51.23,32.91,52c.48,2.53.73,4.51,1.23,6.41,2,7.48,3.72,15,6.08,22.37,3.51,10.88,7,21.82,11.36,32.36,4.27,10.27,9.43,20.2,14.63,30.05,3.32,6.29,6.7,12.81,11.35,18.08C84,168.52,91.57,174.67,99.36,181.93Z"/></g></g></svg>