<svg xmlns="http://www.w3.org/2000/svg" viewBox="0 0 123.96 133.31"><g id="Layer_2" data-name="Layer 2"><g id="Layer_1-2" data-name="Layer 1"><path d="M57.5,21.35a9.4,9.4,0,0,0-5.11-5.46,21.24,21.24,0,0,1-4.92-3.34c-4.1-3.84-3.06-9.15,2.19-10.68C55.18.25,60.88-.61,66.62.5c17.62,3.38,33.14,11.05,45.44,24.18,11.23,12,14.8,26.13,9.49,42.1-2,5.86-6.11,10.31-9.73,15A58.2,58.2,0,0,1,96.46,95.35a37,37,0,0,1-15.08,5.81c-7.09.91-14.14,2.11-21.2,3.23-6.83,1.07-13.46,2.74-19.26,6.78-4.6,3.2-7.25,7.25-6.11,13.1a16.91,16.91,0,0,1,.4,2.55c.12,3.12-.76,4.38-4,5.65a26.46,26.46,0,0,1-3.35.84c-5.8-2.25-10-6.29-13.19-11.64-2.78-4.66-6.1-9-8.9-13.64A38.53,38.53,0,0,1,1,79.08,47.66,47.66,0,0,1,14.29,55.53c9.68-9.6,20.4-17.37,33.14-22.45C54,30.47,55.07,28.61,57.5,21.35ZM23,116.47c1.45-2.74,2.35-5.08,3.79-7A40.64,40.64,0,0,1,32.13,104c6.4-5.81,14.26-8.24,22.58-9.57,7.62-1.22,15.21-2.61,22.84-3.72,8.93-1.29,16.12-5.78,22.12-12.15a92.47,92.47,0,0,0,8.81-11.58c5.39-7.93,6.64-24.26-2-33.63C96,21.94,83.23,15.08,68.45,11.49c-1.19-.29-2.58.31-4.19.53.44,1.37.61,2.16.93,2.89,4.29,9.54,2.23,18.21-6.18,24a60.05,60.05,0,0,1-11.38,5.87A69.4,69.4,0,0,0,20.76,64.16c-8,9.37-12,20.07-8.14,32.57.33,1.09.46,2.25.8,3.33A44.5,44.5,0,0,0,23,116.47Z"/></g></g></svg>