<svg xmlns="http://www.w3.org/2000/svg" viewBox="0 0 80.28 113.88"><g id="Layer_2" data-name="Layer 2"><g id="Layer_1-2" data-name="Layer 1"><path d="M32.12,47.35a57.17,57.17,0,0,0-12.47-20c-1-1-2.13-1.91-3.17-2.89-4.31-4.06-4.8-6.74-1.18-11S22.78,5.59,26.69,1.82A6.55,6.55,0,0,1,33.9.54a32.45,32.45,0,0,1,5.51,2.37C56.32,13.09,69.27,26.7,76.52,45.4A53,53,0,0,1,80.11,63c.29,8.57.49,17.17-2.07,25.54a25.6,25.6,0,0,1-8.36,12.65C57.79,111,44.07,114.64,29,113.75c-3.95-.23-8.17-.35-11.75-1.81C6.12,107.43.32,100.51,0,85.88A35.47,35.47,0,0,1,8.67,61.33,38,38,0,0,1,25.42,49.79C27.29,49.17,29.13,48.44,32.12,47.35ZM22.66,19.72c3.07,3.67,6.14,7.42,9.31,11.09,4.39,5.1,7,11.07,8.84,17.44a3.29,3.29,0,0,1-2.71,4.44c-.55.12-1.13.09-1.7.16C19.1,54.91,5.55,71.78,9.94,91.79c1.69,7.67,6.4,12.09,13.3,14.2a26.31,26.31,0,0,0,11.82.82,75.62,75.62,0,0,0,17.2-5.09c10-4.41,16.54-12.1,18.11-23.27a67.5,67.5,0,0,0-.47-23.89c-1.83-8.34-3.72-16.91-10-23.36C54.77,25.88,49.66,20.39,43.8,15.92,33.7,8.21,32.38,7.05,22.66,19.72Z"/></g></g></svg>