<svg xmlns="http://www.w3.org/2000/svg" viewBox="0 0 151.5 118.61"><g id="Layer_2" data-name="Layer 2"><g id="Layer_1-2" data-name="Layer 1"><path d="M49.57,77.32A21.83,21.83,0,0,0,59.93,95c.29,7.29-1.82,13.45-8.28,17.51-3.13,2-6.43,3.7-9.72,5.41-2.59,1.34-5,.74-7.07-1.23-1.67-1.56-3.7-2.8-5.15-4.53C22.18,103.16,13.57,95,7.8,84.69.39,71.44-2.2,57.39,2,42.51,3.44,37.56,5,32.63,6.77,27.82,12.52,12.5,24.42,4.29,39.67.51a23.17,23.17,0,0,1,11,.35C67.24,5.18,79.54,23.32,77.23,41.05c-.36,2.75-1.62,5.4-2.6,8.05-.79,2.14-1.89,4.17-2.64,6.32a27.67,27.67,0,0,1-10.25,13.4C57.85,71.64,53.86,74.33,49.57,77.32Zm1.62,22.81A22.15,22.15,0,0,0,49,97.71c-6-4.87-8.12-11.55-9-18.83-.56-4.72.45-6.49,4.89-8.72,1.79-.9,3.63-1.7,5.42-2.59A28.53,28.53,0,0,0,65.47,49.9c.5-1.64,1-3.29,1.48-4.93,4.17-13.07-.89-23.49-9.77-32.52C53,8.21,47.46,6,41.48,7.42c-14.25,3.36-25,11.08-29.3,25.79C10.89,37.59,10,42.09,8.93,46.54c-1.7,7.11-1.1,14.16.42,21.23C11.59,78.2,17.6,86.48,24.22,94.43c3.47,4.17,7,8.32,10.59,12.37a43.32,43.32,0,0,0,4.28,3.79C44.88,108.8,49.45,106.3,51.19,100.13Z"/><path d="M127.48,71.1c4.23,7,7.65,13.73,15.84,15.3,2.18,5,1,8.92-1.9,13a41,41,0,0,1-16.83,13.67c-1.34-1.07-2.88-2.24-4.35-3.48-1.3-1.11-2.45-2.42-3.81-3.44-17.5-13-26.71-30.79-30-52-.22-1.41-.29-2.85-.59-4.24-2.86-13,1.23-24.39,9-34.47,7-9.11,16.45-13.12,28-10.12,9.33,2.42,17.62,6.61,23.19,15,6.19,9.28,7.33,18.91,2.52,29.16-3.74,8-9,14.49-16.74,18.91C130.56,69.06,129.41,69.87,127.48,71.1Zm-11.73-.45c3.06-4.63,7.17-6.63,11.07-9,12.75-7.86,16.63-17.44,14.24-32.84a16.78,16.78,0,0,0-6.72-10.66,31.29,31.29,0,0,0-17.41-6.51,16.51,16.51,0,0,0-14.44,6.14c-6.55,8.08-10,17.54-9,27.86,1,11.09,3.33,22,8.64,32.07,5.67,10.74,12.82,20.1,23.42,26.63A20.12,20.12,0,0,0,134.44,93,55.38,55.38,0,0,1,115.75,70.65Z"/></g></g></svg>