<svg xmlns="http://www.w3.org/2000/svg" viewBox="0 0 151.21 108.05"><g id="Layer_2" data-name="Layer 2"><g id="Layer_1-2" data-name="Layer 1"><path d="M23.75,38.53a16.26,16.26,0,0,0-.05-4.07C21.94,27.82,20,21.27,15.2,16c-1.52-1.7-2.76-3.6-2.13-6.19.56-2.31,1.15-4.52,3.63-5.41,4-1.45,8-3,12.11-4.11,2.89-.8,5.52.39,8.08,1.94C45.57,7.46,52.74,14.38,59.2,22.07A70,70,0,0,1,72.33,45,56.41,56.41,0,0,1,73.2,77.9c-3.09,11.67-10.44,20.12-22,24.59A47.9,47.9,0,0,1,26,105.38c-11-1.73-24.38-11.2-25.8-27.21C-.39,72,.6,65.62,1.71,59.48c1.53-8.42,6.62-14.41,14.58-17.8C18.63,40.68,21,39.7,23.75,38.53ZM22.21,11.9c2.95,5,5.65,9.65,8.39,14.26a31.24,31.24,0,0,1,4.81,14.89c-3.35,3.93-7.9,4.32-11.75,6-4,1.8-7.75,4-9.83,7.93-5,9.48-6.56,19.27-2.44,29.67,2.92,7.38,8.23,11.59,15.68,13.15C37.17,100,46.22,97.66,54.29,91c9.51-7.9,12.24-18.77,11.89-30-.38-12-3.41-23.71-12.14-33.12C48.78,22.16,43.63,16.45,37.22,12,32.61,8.83,27.92,7.75,22.21,11.9Z"/><path d="M104.58,34.37c-1.15-8.72-7.82-14.31-10.43-22.28,2.34-6.85,8.63-9,14.77-11.19a4.59,4.59,0,0,1,3.27.4A21.54,21.54,0,0,1,117.92,5c10.13,10.51,19.77,21.34,26.46,34.58,6.9,13.66,8.69,27.66,4.84,42.36a27.14,27.14,0,0,1-8.12,12.9c-6.88,6.46-15.33,9.67-24.26,12.17-11.42,3.2-20.15-1.12-27.59-9.17-7.8-8.45-11.13-18.46-9.54-30,.23-1.7.33-3.41.56-5.11,1.52-11.3,7.15-19.66,17.58-24.63C100.11,37,102.25,35.67,104.58,34.37ZM103.32,14c2.77,8.67,10.16,14.1,11.44,22.78-1.9,1.25-3.61,2.27-5.21,3.44-3.23,2.35-6.55,4.61-9.56,7.22C87,58.72,86.23,76.72,94.57,90.48c4.41,7.28,12.54,11,20.56,9.21a42.83,42.83,0,0,0,14.21-5.88,24.53,24.53,0,0,0,10.88-14.9c2.2-8.69,2.79-17.41,0-26.27A84,84,0,0,0,111.38,11c-.39-.31-1.08-.26-2.12-.49Z"/></g></g></svg>