<svg xmlns="http://www.w3.org/2000/svg" viewBox="0 0 123.92 125.22"><g id="Layer_2" data-name="Layer 2"><g id="Layer_1-2" data-name="Layer 1"><path d="M38.23,79.84c-3.82-1.61-7.15-3.27-10.65-4.44C18.77,72.47,11,67.53,3.3,62.63c-4.72-3-4.33-7.36.88-9.69,8.35-3.73,16.42-8.18,25.41-10.4a30.27,30.27,0,0,0,4.83-2.12Q38.74,26.05,43,11.73C43.62,9.81,44.3,7.92,44.89,6c1.83-6,9.74-8.57,15.16-2.66,5.22,5.7,10.42,11.43,15.72,17.06,2.34,2.49,4.89,4.77,7.61,7.39,8-1.11,15.88-2.31,23.82-3.25a28.35,28.35,0,0,1,8.48.1c4.42.85,6,4.15,4.36,8.47a29,29,0,0,1-2.45,4.51c-3.7,6.12-7.47,12.2-11.12,18.36-1.44,2.43-2.61,5-3.87,7.46,7.42,9.28,15,17.83,21.32,27.05-4.86,8.25-7.47,9.41-15.46,8.1-10.13-1.66-20.31-3-30.86-4.6-3.19,3.88-6.3,7.58-9.32,11.35q-6.44,8-12.77,16.17a9.22,9.22,0,0,1-7.39,3.7c-2.65.09-4.59-1.12-5.09-3.64-.82-4.21-1.54-8.46-2-12.72C40,99.49,39.21,90.09,38.23,79.84ZM17.31,59.2a49,49,0,0,0,11.06,6c5.64,2,11.19,4.38,16.61,7,3.73,1.78,4.18,3.44,3.64,7.71a25.88,25.88,0,0,0-.42,6.72c.76,5.34,1.87,10.64,3,15.93A23.51,23.51,0,0,0,53,106.58c2.07-2.3,3.68-3.9,5.08-5.67,3.38-4.26,6.85-8.48,9.93-13,2.21-3.2,4.91-4.56,8.71-4.16,2,.21,4,0,6,.27,6.79.9,13.57,2,20.37,2.87a21.25,21.25,0,0,0,3.89-.31c-4-8.9-11-15-16.42-22,3-10.86,10.83-18.9,15.17-29.76C99.4,35.57,94,36,88.67,36.9c-5.82,1-10.83-.21-15.06-4.26-3.3-3.17-6.47-6.48-9.61-9.82s-6-6.69-9.29-9.26c-.88.39-1.31.45-1.36.62-2.6,8.76-5.59,17.43-7.58,26.33-1.13,5.07-3.42,8.3-8.15,10-4,1.43-8.13,2.77-12.18,4.21C22.78,55.63,19.89,56.19,17.31,59.2Z"/></g></g></svg>