<svg xmlns="http://www.w3.org/2000/svg" viewBox="0 0 135.41 295.78"><g id="Layer_2" data-name="Layer 2"><g id="Layer_1-2" data-name="Layer 1"><path d="M31.34,261.79c.51-9.06.72-18.19,1.64-27.25.72-7.1,2.33-14.1,3.51-21.16a22.68,22.68,0,0,0,0-3C30,208.89,23.57,208,17.16,206.81c-3.66-.65-7.38-1-11-1.73-4.71-.91-6.34-2.94-6.11-7.74a44.76,44.76,0,0,1,1.18-7.61c1.71-7.52,3.41-15,6.69-22.53H25.1c.93-3,2-5.64,2.57-8.38C32.36,137.27,38,116,44,94.76c4.14-14.59,7.5-29.4,11.58-44C59.52,36.69,58.23,38.3,69.18,30c11.85-9,24-17.61,36.09-26.34,2.56-1.86,5.29-3.4,8.6-3.6,3.49-.2,5.49.85,6.66,4.09a55.25,55.25,0,0,1,3,9.86,174.74,174.74,0,0,0,6.87,26.54c2,6,3,12.22,4.65,18.29,1,3.56,0,6.86-.93,10.13-2.84,9.9-5.74,19.79-8.84,29.61-5.78,18.29-10.45,36.87-14.73,55.55-2.11,9.2-4.08,18.43-6.23,27.63a67.87,67.87,0,0,1-2.37,6.81l7.53,2.51c4.53,1.54,6.06,3.54,5.87,8.19a33.1,33.1,0,0,1-1.08,5.87c-1.34,5.85-2.67,11.7-4.09,17.54-.93,3.8-1,3.79-6.27,6.24-7.64-6.48-17.2-8-26.9-10.37-3.9,7.56-5.44,15.44-8.35,22.8-2.85,7.16-5.88,14.25-8.9,21.56A28,28,0,0,1,64,275.74c.36,6-1.61,10.89-6.4,14.2-5.68,3.93-11.78,7-19.2,5.39a19.64,19.64,0,0,1-9.66-5.27c-5-4.93-6.52-10.84-3.79-17.29C26.6,268.88,29.2,265.39,31.34,261.79Zm62.41-76.42c1.06-4.29,1.92-7.89,2.83-11.47,5.56-21.9,10.77-43.89,16.83-65.64,3.76-13.48,8.18-26.77,11.53-40.38a17.92,17.92,0,0,0,.53-8.42c-1.79-8.09-3.53-16.19-6.38-24a70.55,70.55,0,0,1-2.16-8.29c-1.31-5.79-2.56-11.59-4-18.1a38.68,38.68,0,0,0-5.09,2.48C100.58,16.62,93.32,21.71,86.19,27c-4.82,3.57-9.43,7.44-14.12,11.19-3.74,3-5.75,6.89-6.86,11.54Q62,63,58.3,76.23c-3.7,13.22-7.92,26.3-11.33,39.59-4.13,16.05-7.64,32.26-11.37,48.42a50.12,50.12,0,0,0-.63,5.31c5,1.28,9.74,2.42,14.41,3.66q7.45,2,14.87,4.1c4.67,1.35,9.29,2.87,14,4.2C83.11,182.9,87.8,185.14,93.75,185.37Zm8.83,31.12c1.15-4.43,2.32-8.53,3.25-12.68.76-3.37.1-4.34-3.51-5.58-22.17-7.63-44.38-15.15-67.39-19.89-6.63-1.36-13.3-3-20.33-2.76-3.95,6.55-4.16,13.63-5.4,21.32,6.41,2,12.75,1.71,18.79,2.94s12.44,1.82,18.63,2.91c6.47,1.13,12.91,2.43,19.33,3.82,6.14,1.32,12.28,2.69,18.34,4.33S96.26,214.54,102.58,216.49Zm-54.9-4.56c-3.15,4.4-2.3,8.65-3.3,12.46-2.44,9.21-3,18.64-3.16,28.1a40.48,40.48,0,0,0,.6,5.28l9.34.76c7.14-10.89,15.36-33,15.72-42.27-2.57-.76-5.24-1.72-8-2.32C55.29,213.14,51.63,212.62,47.68,211.93Zm5.91,63.42c.6-4.79-2.16-7.86-6.07-10.06a5.64,5.64,0,0,0-4-.46c-6.84,2.05-10.64,12.12-7,18.26,2.9,4.93,8.64,5.84,13,2.12C52.49,282.64,54.1,279.53,53.59,275.35Z"/></g></g></svg>