<svg xmlns="http://www.w3.org/2000/svg" viewBox="0 0 90.3 152.32"><g id="Layer_2" data-name="Layer 2"><g id="Layer_1-2" data-name="Layer 1"><path d="M11.12,2.28A27.57,27.57,0,0,1,13.79.94c4.75-1.59,6.06-1.4,8.8,2.43A127.73,127.73,0,0,1,31.9,17.74c12.1,23,25,45.58,36.19,69,3.58,7.46,7.25,14.89,10.8,22.36a49.23,49.23,0,0,0,9.57,14.11c2.56,2.54,2.44,4.61-.31,6.19-5.42,3.14-10.75,6.51-17,8-18.61,4.46-37.2,9-55.82,13.46a61.73,61.73,0,0,1-8.45,1.37c-3.67.36-5.82-1.59-6.27-5.34a24.43,24.43,0,0,1-.12-2.57c-.2-18-.66-36-.48-54A218.1,218.1,0,0,1,2.23,64.72C4.79,44.89,7.64,25.09,10.39,5.29,10.51,4.45,10.79,3.63,11.12,2.28Zm66.48,123c-3.38-6.14-6.87-11.74-9.64-17.67-13.19-28.25-27.59-55.87-42-83.47C24.27,21,22.7,17.63,19.05,15a46,46,0,0,0-1.22,4.61c-1.29,8.47-2.58,17-3.73,25.45-1.2,8.78-2.5,17.57-3.28,26.39a327.94,327.94,0,0,0-1.19,45.42c.35,7.14.35,14.3.65,21.44a23.74,23.74,0,0,0,1.07,4.59C26.73,141.25,68.24,130.27,77.6,125.26Z"/></g></g></svg>