<svg width="24" height="24" viewBox="0 0 24 24" fill="none" xmlns="http://www.w3.org/2000/svg">
<path fill-rule="evenodd" clip-rule="evenodd" d="M8.76637 3.75333C8.85518 3.59675 9.02129 3.5 9.20129 3.5H14.7755C14.9552 3.5 15.1211 3.59645 15.21 3.75263L21.4345 14.6864C21.5208 14.838 21.5219 15.0237 21.4372 15.1763L18.6269 20.2425C18.5388 20.4014 18.3714 20.5 18.1897 20.5H5.85677C5.67843 20.5 5.51359 20.405 5.42417 20.2507C5.33474 20.0964 5.33428 19.9061 5.42296 19.7514L8.32618 14.6851C8.41529 14.5296 8.58079 14.4337 8.76 14.4337H14.4981L12.0516 10.1162L10.1662 13.3459C10.027 13.5844 9.72078 13.6649 9.4823 13.5256C9.24382 13.3864 9.16335 13.0802 9.30257 12.8417L11.6263 8.86132C11.7165 8.7068 11.8824 8.61226 12.0613 8.61341C12.2402 8.61456 12.4049 8.71123 12.4931 8.8669L15.7911 14.6872C15.8789 14.842 15.8777 15.0318 15.7881 15.1855C15.6986 15.3392 15.534 15.4337 15.3561 15.4337H9.04975L6.71958 19.5H17.8953L20.4265 14.9369L14.4848 4.5H9.49253L3.57248 14.9379L5.29781 18.0848C5.43056 18.3269 5.34189 18.6309 5.09975 18.7636C4.85761 18.8964 4.5537 18.8077 4.42094 18.5655L2.56157 15.1741C2.47824 15.0221 2.47957 14.8378 2.56508 14.6871L8.76637 3.75333Z" fill="black"/>
</svg>
