<svg width="24" height="24" viewBox="0 0 24 24" fill="none" xmlns="http://www.w3.org/2000/svg">
<path fill-rule="evenodd" clip-rule="evenodd" d="M9.19319 4.15684C7.92717 4.67649 6.71363 5.56602 6.03241 7.06411C4.66004 10.0822 6.27293 12.3883 7.22635 13.1528C7.44179 13.3255 7.47641 13.6402 7.30367 13.8556C7.13094 14.0711 6.81625 14.1057 6.60081 13.933C5.41612 12.9831 3.50111 10.215 5.12211 6.65018C5.93758 4.85684 7.38565 3.8178 8.81348 3.23174C10.2356 2.64803 11.6665 2.5 12.5262 2.5C13.6435 2.5 15.2208 2.69963 16.6021 3.57396C18.0086 4.46425 19.1548 6.0189 19.4375 8.60278C19.8862 12.7035 17.8353 15.3653 15.6188 16.0761C14.302 16.4984 12.4427 16.4437 11.0748 15.3312C10.9505 15.2301 10.8314 15.1212 10.7181 15.0045C9.94334 17.2728 9.04878 19.6189 8.44944 21.1793C8.35042 21.4371 8.06118 21.5658 7.8034 21.4668C7.54562 21.3677 7.41692 21.0785 7.51594 20.8207C8.14728 19.1771 9.09951 16.6786 9.89361 14.3223C9.92931 14.2164 9.96466 14.1108 9.99964 14.0056C9.35898 12.7813 9.15243 11.0448 9.63092 8.70328C9.81181 7.81804 10.3722 7.18036 11.1231 7.24345C11.8559 7.30502 12.3051 8.00391 12.3051 8.80338C12.3051 9.41599 12.1291 10.299 11.869 11.2885C11.6616 12.0777 11.3927 12.9638 11.0925 13.8843C11.276 14.154 11.4845 14.3754 11.7058 14.5554C12.7433 15.3992 14.2248 15.473 15.3134 15.1239C16.998 14.5836 18.8501 12.428 18.4435 8.71153C18.1916 6.4097 17.1997 5.13577 16.0672 4.41891C14.9095 3.6861 13.5469 3.5 12.5262 3.5C11.7601 3.5 10.465 3.63483 9.19319 4.15684ZM10.4997 12.4418C10.6505 11.9467 10.7864 11.4738 10.9019 11.0344C11.1612 10.0475 11.3051 9.27481 11.3051 8.80338C11.3051 8.31555 11.0699 8.2425 11.0394 8.23994C11.013 8.23772 10.9526 8.24248 10.8709 8.32435C10.7849 8.41044 10.6756 8.58577 10.6107 8.90349C10.3066 10.3916 10.3083 11.5486 10.4997 12.4418Z" fill="black"/>
</svg>
