<svg width="24" height="24" viewBox="0 0 24 24" fill="none" xmlns="http://www.w3.org/2000/svg">
<path fill-rule="evenodd" clip-rule="evenodd" d="M14.1867 4.97711C13.6529 4.65748 12.9419 4.46157 11.9884 4.50632C10.5952 4.57171 9.7051 5.06646 9.13091 5.71009C8.54546 6.36633 8.24837 7.22317 8.13796 8.06501C8.10205 8.33881 7.85099 8.53166 7.57719 8.49575C7.30339 8.45984 7.11054 8.20877 7.14645 7.93497C7.27368 6.96491 7.62476 5.89621 8.38469 5.04438C9.15587 4.17994 10.3083 3.58408 11.9415 3.50742C13.0612 3.45487 13.9734 3.6838 14.7004 4.11915C15.426 4.55357 15.9345 5.17384 16.2809 5.85254C16.803 6.87575 16.9696 8.05491 16.9615 9.03081C17.1943 8.96358 17.4441 8.92118 17.6919 8.92742C17.995 8.93505 18.3249 9.01688 18.6051 9.24733C18.8877 9.47979 19.0657 9.81902 19.145 10.2388C19.3148 11.1371 18.8982 11.7869 18.3701 12.1929C18.0714 12.4225 17.7286 12.584 17.4099 12.6913C17.8699 13.5935 19.0125 15.0385 21.1739 15.8402C21.391 15.9207 21.5245 16.1398 21.4963 16.3697C21.4682 16.5996 21.2859 16.7801 21.0557 16.8059C20.3884 16.8806 18.6858 17.2864 17.3789 18.272C15.6213 19.5976 14.5403 20.34 12.5991 20.4911C11.7527 20.557 10.8184 20.245 10.039 19.8787C9.25367 19.5096 8.55318 19.0505 8.13532 18.7302C7.56497 18.3447 6.62002 17.7856 5.64043 17.3611C5.14748 17.1475 4.65696 16.9729 4.2085 16.8698C3.77264 16.7695 3.40973 16.7446 3.13447 16.7924C3.1195 16.7953 3.1047 16.7981 3.09006 16.8008C2.8202 16.8502 2.56093 16.6729 2.50905 16.4035C2.45717 16.1341 2.63205 15.8732 2.90096 15.8189C2.91779 15.8155 2.9347 15.8123 2.95167 15.8092C3.48784 15.7038 4.33288 15.402 5.11373 14.8321C5.80766 14.3257 6.43458 13.6205 6.76548 12.6666C6.39617 12.5227 5.97653 12.3178 5.61048 12.0548C5.09761 11.6862 4.53218 11.0833 4.64055 10.266C4.72847 9.60292 5.04563 9.16661 5.51072 8.98045C5.92842 8.81325 6.35727 8.89368 6.61889 8.99915C6.875 9.1024 6.99892 9.39372 6.89567 9.64983C6.79242 9.90595 6.5011 10.0299 6.24498 9.92662C6.13306 9.8815 5.98409 9.8681 5.88234 9.90883C5.84055 9.92556 5.79749 9.95424 5.75628 10.0137C5.7125 10.077 5.65902 10.1927 5.63188 10.3974C5.60018 10.6365 5.75264 10.9255 6.19405 11.2427C6.61138 11.5426 7.14978 11.7615 7.51568 11.8668C7.77157 11.9404 7.92489 12.2016 7.86438 12.4609C7.52275 13.9248 6.64228 14.9546 5.70325 15.6399C5.48559 15.7987 5.26362 15.94 5.04272 16.0648C5.37594 16.1721 5.71145 16.3021 6.03803 16.4436C7.09251 16.9005 8.09865 17.4972 8.70862 17.9107C8.71697 17.9164 8.72514 17.9223 8.73314 17.9284C9.09892 18.2101 9.74408 18.6352 10.4643 18.9737C11.1984 19.3186 11.9392 19.5395 12.5215 19.4941C14.1524 19.3672 15.0325 18.7891 16.7768 17.4736C17.6381 16.824 18.6316 16.4004 19.4682 16.1412C17.4725 14.9878 16.507 13.3491 16.2489 12.4914C16.2072 12.3529 16.2275 12.2031 16.3046 12.0807C16.3818 11.9583 16.5081 11.8753 16.651 11.8532C16.9699 11.8037 17.4272 11.6564 17.7607 11.4001C18.0719 11.1608 18.2448 10.8607 18.1624 10.4245C18.1157 10.1771 18.0308 10.0698 17.9698 10.0197C17.9065 9.96753 17.8122 9.93077 17.6667 9.9271C17.3525 9.91919 16.9513 10.0715 16.6683 10.24C16.5044 10.3376 16.2993 10.3334 16.1396 10.2293C15.9798 10.1253 15.8931 9.93934 15.9161 9.75004C16.0314 8.80255 15.9542 7.41248 15.3902 6.30708C15.1123 5.76252 14.7221 5.29767 14.1867 4.97711Z" fill="black"/>
</svg>
