<svg width="24" height="24" viewBox="0 0 24 24" fill="none" xmlns="http://www.w3.org/2000/svg">
<path fill-rule="evenodd" clip-rule="evenodd" d="M6.44916 6.02493C6.22917 6.05636 6.05633 6.2292 6.0249 6.44919L5.14102 12.6364C5.07306 13.1121 5.64978 13.4004 5.98954 13.0606L7.40376 11.6464C7.59902 11.4512 7.9156 11.4512 8.11087 11.6464C8.30613 11.8417 8.30613 12.1583 8.11087 12.3535L6.69665 13.7677C5.67734 14.7871 3.94721 13.922 4.15107 12.495L5.03495 6.30777C5.12923 5.64781 5.64777 5.12926 6.30774 5.03498L12.4949 4.1511C13.922 3.94724 14.787 5.67737 13.7677 6.69668L10.9393 9.52511C10.744 9.72037 10.744 10.037 10.9393 10.2322L18.7175 18.0104C18.9127 18.2057 18.9127 18.5222 18.7175 18.7175C18.5222 18.9128 18.2056 18.9128 18.0104 18.7175L10.2322 10.9393C9.6464 10.3535 9.6464 9.40379 10.2322 8.818L13.0606 5.98957C13.4004 5.64981 13.112 5.07309 12.6363 5.14105L6.44916 6.02493Z" fill="black"/>
</svg>
