<svg width="24" height="24" viewBox="0 0 24 24" fill="none" xmlns="http://www.w3.org/2000/svg">
<path fill-rule="evenodd" clip-rule="evenodd" d="M20.15 11.7C20.2833 11.8778 20.2833 12.1222 20.15 12.3L16.4 17.3C16.1117 17.6844 15.5 17.4805 15.5 17L15.5 15C15.5 14.7239 15.2761 14.5 15 14.5C14.7239 14.5 14.5 14.7239 14.5 15L14.5 17C14.5 18.4415 16.3351 19.0532 17.2 17.9L20.95 12.9C21.35 12.3667 21.35 11.6334 20.95 11.1L17.2 6.10002C16.3351 4.94681 14.5 5.5585 14.5 7.00002L14.5 11C14.5 11.2762 14.2761 11.5 14 11.5L3 11.5C2.72386 11.5 2.5 11.7239 2.5 12C2.5 12.2762 2.72386 12.5 3 12.5L14 12.5C14.8284 12.5 15.5 11.8284 15.5 11L15.5 7.00002C15.5 6.51951 16.1117 6.31561 16.4 6.70002L20.15 11.7Z" fill="black"/>
</svg>
