<svg width="24" height="24" viewBox="0 0 24 24" fill="none" xmlns="http://www.w3.org/2000/svg">
<path fill-rule="evenodd" clip-rule="evenodd" d="M3.85 11.7C3.71667 11.8778 3.71667 12.1222 3.85 12.3L7.6 17.3C7.88831 17.6844 8.5 17.4805 8.5 17L8.5 15C8.5 14.7239 8.72386 14.5 9 14.5C9.27614 14.5 9.5 14.7239 9.5 15L9.5 17C9.5 18.4415 7.66491 19.0532 6.8 17.9L3.05 12.9C2.65 12.3667 2.65 11.6334 3.05 11.1L6.8 6.10002C7.66491 4.94681 9.5 5.5585 9.5 7.00002L9.5 11C9.5 11.2762 9.72386 11.5 10 11.5L21 11.5C21.2761 11.5 21.5 11.7239 21.5 12C21.5 12.2762 21.2761 12.5 21 12.5L10 12.5C9.17157 12.5 8.5 11.8284 8.5 11L8.5 7.00002C8.5 6.51951 7.88831 6.31561 7.6 6.70002L3.85 11.7Z" fill="black"/>
</svg>
