<svg width="24" height="24" viewBox="0 0 24 24" fill="none" xmlns="http://www.w3.org/2000/svg">
<path fill-rule="evenodd" clip-rule="evenodd" d="M6.44916 17.975C6.22917 17.9436 6.05633 17.7707 6.0249 17.5507L5.14102 11.3636C5.07306 10.8879 5.64978 10.5995 5.98954 10.9393L7.40376 12.3535C7.59902 12.5488 7.9156 12.5488 8.11087 12.3535C8.30613 12.1582 8.30613 11.8417 8.11087 11.6464L6.69665 10.2322C5.67734 9.21288 3.94721 10.078 4.15107 11.505L5.03495 17.6922C5.12923 18.3521 5.64777 18.8707 6.30774 18.965L12.4949 19.8488C13.922 20.0527 14.787 18.3226 13.7677 17.3033L10.9393 14.4748C10.744 14.2796 10.744 13.963 10.9393 13.7677L18.7175 5.98955C18.9127 5.79429 18.9127 5.47771 18.7175 5.28244C18.5222 5.08718 18.2056 5.08718 18.0104 5.28244L10.2322 13.0606C9.6464 13.6464 9.6464 14.5962 10.2322 15.1819L13.0606 18.0104C13.4004 18.3501 13.112 18.9268 12.6363 18.8589L6.44916 17.975Z" fill="black"/>
</svg>
