<svg width="24" height="24" viewBox="0 0 24 24" fill="none" xmlns="http://www.w3.org/2000/svg">
<path fill-rule="evenodd" clip-rule="evenodd" d="M5.98952 15.889C5.40374 16.4748 5.40374 17.4246 5.98952 18.0104C6.57531 18.5962 7.52506 18.5962 8.11084 18.0104L18.0103 8.11087C18.5961 7.52509 18.5961 6.57534 18.0103 5.98955C17.4246 5.40377 16.4748 5.40377 15.889 5.98955L9.52506 12.3535C9.32979 12.5488 9.01321 12.5488 8.81795 12.3535C8.62269 12.1583 8.62269 11.8417 8.81795 11.6464L15.1819 5.28245C16.1582 4.30613 17.7411 4.30614 18.7174 5.28245C19.6938 6.25876 19.6938 7.84167 18.7174 8.81798L8.81795 18.7175C7.84164 19.6938 6.25873 19.6938 5.28242 18.7175C4.3061 17.7412 4.3061 16.1583 5.28242 15.1819L6.69663 13.7677C6.89189 13.5725 7.20847 13.5725 7.40374 13.7677C7.599 13.963 7.599 14.2796 7.40374 14.4748L5.98952 15.889Z" fill="black"/>
</svg>
