<svg width="24" height="24" viewBox="0 0 24 24" fill="none" xmlns="http://www.w3.org/2000/svg">
<path fill-rule="evenodd" clip-rule="evenodd" d="M3.53197 13.8241C3.60524 13.6291 3.79172 13.5 4.00002 13.5L8.94683 13.5C9.22297 13.5 9.44683 13.7239 9.44683 14C9.44683 14.2761 9.22297 14.5 8.94683 14.5L5.33075 14.5L12 20.3356L18.6693 14.5L15 14.5C14.7239 14.5 14.5 14.2761 14.5 14C14.5 11.9883 14.6247 9.43606 15.2042 7.24705C15.5524 5.93158 16.0842 4.67807 16.904 3.76885C15.8327 4.02459 14.6669 4.47406 13.6246 5.16477C11.8481 6.34214 10.4468 8.20437 10.4468 11.025C10.4468 11.3011 10.223 11.525 9.94683 11.525C9.67069 11.525 9.44683 11.3011 9.44683 11.025C9.44683 7.80694 11.0722 5.65666 13.0722 4.33121C15.0516 3.01942 17.4134 2.5 19 2.5C19.2494 2.5 19.4606 2.68371 19.4952 2.93065C19.5298 3.17759 19.3771 3.41226 19.1374 3.48076C17.6589 3.9032 16.7245 5.4115 16.1709 7.50295C15.6702 9.39425 15.5235 11.6112 15.5027 13.5L20 13.5C20.2083 13.5 20.3948 13.6291 20.4681 13.8241C20.5413 14.0191 20.486 14.2391 20.3293 14.3763L12.3293 21.3763C12.1408 21.5412 11.8593 21.5412 11.6708 21.3763L3.67077 14.3763C3.51401 14.2391 3.45871 14.0191 3.53197 13.8241Z" fill="black"/>
</svg>
