<svg width="24" height="24" viewBox="0 0 24 24" fill="none" xmlns="http://www.w3.org/2000/svg">
<path fill-rule="evenodd" clip-rule="evenodd" d="M10.1759 3.53197C10.3709 3.60524 10.5 3.79172 10.5 4.00002V8.94683C10.5 9.22297 10.2761 9.44683 10 9.44683C9.72386 9.44683 9.5 9.22297 9.5 8.94683V5.33075L3.66438 12L9.5 18.6693V15C9.5 14.7239 9.72386 14.5 10 14.5C12.0117 14.5 14.5639 14.6247 16.7529 15.2042C18.0684 15.5524 19.3219 16.0842 20.2312 16.904C19.9754 15.8327 19.5259 14.6669 18.8352 13.6246C17.6579 11.8481 15.7956 10.4468 12.975 10.4468C12.6989 10.4468 12.475 10.223 12.475 9.94683C12.475 9.67069 12.6989 9.44683 12.975 9.44683C16.1931 9.44683 18.3433 11.0722 19.6688 13.0722C20.9806 15.0516 21.5 17.4134 21.5 19C21.5 19.2494 21.3163 19.4606 21.0694 19.4952C20.8224 19.5298 20.5877 19.3771 20.5192 19.1374C20.0968 17.6589 18.5885 16.7245 16.4971 16.1709C14.6057 15.6702 12.3888 15.5235 10.5 15.5027V20C10.5 20.2083 10.3709 20.3948 10.1759 20.4681C9.98087 20.5413 9.76088 20.486 9.62371 20.3293L2.62371 12.3293C2.45876 12.1408 2.45876 11.8593 2.62371 11.6708L9.62371 3.67077C9.76088 3.51401 9.98087 3.4587 10.1759 3.53197Z" fill="black"/>
</svg>
