<svg width="24" height="24" viewBox="0 0 24 24" fill="none" xmlns="http://www.w3.org/2000/svg">
<path fill-rule="evenodd" clip-rule="evenodd" d="M15.3454 3.51474C15.5424 3.55076 15.7837 3.66314 16.0565 3.95008C16.3288 4.23631 16.4437 4.49825 16.4829 4.72261C16.5227 4.95067 16.4903 5.17601 16.4121 5.39333C16.2503 5.84281 15.9155 6.19668 15.787 6.324L15.7813 6.32962L12.0666 10.2528L12.7928 10.9403L16.4966 7.02861C16.6539 6.87227 17.1153 6.39216 17.3529 5.73202C17.4759 5.39036 17.5441 4.98667 17.468 4.55067C17.3913 4.11096 17.1738 3.67381 16.7812 3.26094C16.3892 2.84876 15.9656 2.61157 15.5254 2.53106C15.0884 2.45114 14.6838 2.53443 14.3412 2.67851C13.69 2.95243 13.1874 3.48122 12.9662 3.71401C12.962 3.71845 12.9578 3.72277 12.9538 3.72699L7.63495 9.31987C6.8917 10.1014 6.49997 11.037 6.49997 11.9948C6.49997 12.9525 6.8917 13.8882 7.63494 14.6697C8.46528 15.5429 9.26734 16.3718 9.9978 17.1266C11.2719 18.4433 12.3282 19.5349 12.9368 20.2438C13.1677 20.5127 13.6756 21.0575 14.3457 21.3317C14.6908 21.473 15.0957 21.5495 15.5312 21.4645C15.969 21.379 16.3905 21.1395 16.7812 20.7287C17.1738 20.3158 17.3925 19.8773 17.4662 19.4316C17.5393 18.9897 17.4637 18.5786 17.3294 18.2255C17.0718 17.5483 16.5714 17.0224 16.3488 16.7884L12.792 13.0484L12.0674 13.7375L15.6133 17.4661C15.8397 17.7042 16.2134 18.1043 16.3948 18.5811C16.4821 18.8106 16.5173 19.0403 16.4796 19.2684C16.4425 19.4927 16.3288 19.7533 16.0565 20.0395C15.7824 20.3278 15.539 20.4441 15.3396 20.483C15.138 20.5224 14.9335 20.4918 14.7245 20.4063C14.2864 20.227 13.9078 19.8396 13.6955 19.5923C13.0683 18.8619 11.9744 17.7312 10.6796 16.393C9.95374 15.6428 9.16476 14.8273 8.35958 13.9806C7.7731 13.3639 7.49997 12.6683 7.49997 11.9948C7.49997 11.3212 7.77309 10.6257 8.35957 10.009L13.6785 4.41613C13.9072 4.17556 14.2845 3.78722 14.7289 3.6003C14.9404 3.51135 15.1452 3.47813 15.3454 3.51474Z" fill="black"/>
</svg>
