<svg width="24" height="24" viewBox="0 0 24 24" fill="none" xmlns="http://www.w3.org/2000/svg">
<path fill-rule="evenodd" clip-rule="evenodd" d="M3.51474 15.3455C3.55076 15.5424 3.66314 15.7837 3.95008 16.0566C4.23631 16.3288 4.49825 16.4438 4.72261 16.483C4.95067 16.5228 5.17601 16.4903 5.39333 16.4121C5.84281 16.2503 6.19668 15.9156 6.324 15.7871L6.32962 15.7814L10.2528 12.0667L10.9403 12.7928L7.02861 16.4967C6.87227 16.654 6.39216 17.1154 5.73202 17.353C5.39036 17.476 4.98667 17.5442 4.55067 17.4681C4.11096 17.3913 3.67381 17.1739 3.26094 16.7812C2.84876 16.3892 2.61157 15.9657 2.53106 15.5254C2.45114 15.0885 2.53443 14.6838 2.67851 14.3413C2.95243 13.69 3.48122 13.1875 3.71401 12.9662C3.71845 12.962 3.72277 12.9579 3.72699 12.9539L9.31986 7.63501C10.1014 6.89176 11.037 6.50003 11.9948 6.50003C12.9525 6.50003 13.8882 6.89176 14.6697 7.635C15.5429 8.46534 16.3718 9.2674 17.1266 9.99786C18.4433 11.272 19.5349 12.3282 20.2438 12.9369C20.5127 13.1678 21.0575 13.6757 21.3317 14.3457C21.473 14.6908 21.5495 15.0958 21.4645 15.5313C21.379 15.9691 21.1395 16.3906 20.7287 16.7812C20.3158 17.1738 19.8773 17.3925 19.4316 17.4663C18.9897 17.5394 18.5786 17.4638 18.2255 17.3295C17.5483 17.0719 17.0224 16.5714 16.7884 16.3488L13.0484 12.7921L13.7375 12.0674L17.4661 15.6134C17.7042 15.8398 18.1043 16.2135 18.5811 16.3948C18.8106 16.4821 19.0403 16.5174 19.2684 16.4797C19.4927 16.4426 19.7533 16.3288 20.0395 16.0566C20.3278 15.7824 20.4441 15.539 20.483 15.3397C20.5224 15.138 20.4918 14.9335 20.4063 14.7245C20.227 14.2865 19.8396 13.9079 19.5923 13.6956C18.8619 13.0684 17.7312 11.9744 16.393 10.6797C15.6428 9.9538 14.8273 9.16482 13.9806 8.35964C13.3639 7.77316 12.6683 7.50003 11.9948 7.50003C11.3212 7.50003 10.6257 7.77315 10.009 8.35963L4.41613 13.6785C4.17556 13.9073 3.78722 14.2845 3.6003 14.729C3.51135 14.9405 3.47813 15.1453 3.51474 15.3455Z" fill="black"/>
</svg>
